<svg xmlns="http://www.w3.org/2000/svg" viewBox="0 0 344.75 100"><defs><style>.cls-1,.cls-2{fill:#fff;}.cls-1{fill-rule:evenodd;}</style></defs><title>HomeLogo Negocios Rentables@1x</title><g id="Capa_2" data-name="Capa 2"><g id="Capa_1-2" data-name="Capa 1"><path class="cls-1" d="M332.33,40.65a6.67,6.67,0,0,1-1.87,4.64,6.31,6.31,0,0,1-4.53,1.93H88a6.31,6.31,0,0,1-4.53-1.93,6.67,6.67,0,0,1-1.87-4.64V21A6.67,6.67,0,0,1,83.5,16.3,6.29,6.29,0,0,1,88,14.38l237.91,4.41a6.34,6.34,0,0,1,4.53,1.92,6.67,6.67,0,0,1,1.87,4.64v15.3Zm-.72.42a5.75,5.75,0,0,1-5.68,5.82H88a5.75,5.75,0,0,1-5.68-5.82V21.37A5.75,5.75,0,0,1,88,15.55c40.51,1.17,194,3.14,237.9,4.41a5.75,5.75,0,0,1,5.68,5.82V41.07Z"/><path class="cls-1" d="M340.41,56.54a12.29,12.29,0,0,1,1.14.59A4.42,4.42,0,0,1,343.79,61a4.36,4.36,0,0,1-3.38,4.31v.59a8.37,8.37,0,0,1-.13,14.74,15.05,15.05,0,0,1-3.21,7.46c-1.87,1.19-5.72,2-9.87,2H72.92c2.33,0,2.4.32,3.32.86H326.76c4,0,7.56-.73,9.42-1.83h0a14.25,14.25,0,0,1-10.24,4.35H78.2l2.55,3.7A1.68,1.68,0,0,1,79.29,100H1.9A1.68,1.68,0,0,1,.44,97.17l4.72-6.83a2.37,2.37,0,0,1,.69-.75,3.07,3.07,0,0,1,1.53-.23h.27V38.45a9,9,0,0,1-3.34-7V20.93a.83.83,0,0,1,.09-.39L14.77,1.29a2.5,2.5,0,0,1,2-1.29H64.41a2.5,2.5,0,0,1,2,1.29l8,14.92a14.74,14.74,0,0,1,3.34-5.33A14.22,14.22,0,0,1,88,6.53h.18L326.12,11a14.3,14.3,0,0,1,10.08,4.38,15,15,0,0,1,4.21,10.45V56.54Zm-7.62.63v.38c-3.88.41-6.46,2.74-6.46,6.21,0,3.75,2.18,5.48,6.61,6.71v5A11.72,11.72,0,0,1,329,73.72a2.21,2.21,0,0,0-1.2-.42,2.1,2.1,0,0,0-2.12,2.15,2.13,2.13,0,0,0,1.05,1.89,15.12,15.12,0,0,0,6,2.21v1.7a1.6,1.6,0,1,0,3.2,0V79.58c3.87-.44,6.52-2.71,6.53-6.24s-2-5.48-6.68-6.78V61.77a12.48,12.48,0,0,1,2.56,1.07,2.18,2.18,0,0,0,1.07.29A2.07,2.07,0,0,0,341.55,61a2.13,2.13,0,0,0-1.11-1.89A12.47,12.47,0,0,0,336,57.62v-.45a1.6,1.6,0,1,0-3.2,0ZM202.11,77.27a2.35,2.35,0,1,0,4.69,0V72.51h3.74l4.55,5.92a2.78,2.78,0,0,0,2.31,1.24,2.2,2.2,0,0,0,2.21-2.21,2.82,2.82,0,0,0-.75-1.83l-3.25-4A6.66,6.66,0,0,0,219.87,65v-.07a7,7,0,0,0-1.83-5,8.35,8.35,0,0,0-6.2-2.21h-7.38a2.34,2.34,0,0,0-2.34,2.39V77.27Zm4.69-9V62h4.65c2.28,0,3.67,1.06,3.67,3.12v.06c0,1.84-1.3,3.08-3.58,3.08Zm18.72,1.56c.36-2.14,1.61-3.55,3.52-3.55s3.16,1.43,3.44,3.55Zm9.63,8a1.89,1.89,0,0,0,.61-1.4A1.79,1.79,0,0,0,234,74.57a1.74,1.74,0,0,0-1.13.37,5.23,5.23,0,0,1-3.28,1.12,3.79,3.79,0,0,1-4-3.26h9.15a2.14,2.14,0,0,0,2.15-2.28c0-3.46-2.39-8-7.84-8-4.73,0-8,3.91-8,8.68v.06a8.25,8.25,0,0,0,8.51,8.63,8.36,8.36,0,0,0,5.65-2Zm3.74-.53a2.31,2.31,0,1,0,4.62,0V70.18c0-2.24,1.13-3.39,2.88-3.39s2.8,1.15,2.8,3.39v7.13a2.31,2.31,0,1,0,4.62,0V68.69c0-3.83-2-6.2-5.53-6.2a5.72,5.72,0,0,0-4.77,2.68V65a2.31,2.31,0,1,0-4.62,0V77.31Zm22.9,2.47a6.55,6.55,0,0,0,2.65-.47,1.91,1.91,0,0,0,1.19-1.77,2,2,0,0,0-1.91-2c-.1,0-.4,0-.55,0-1,0-1.49-.53-1.49-1.62V66.86h2a2,2,0,0,0,0-4h-2V60.72a2.31,2.31,0,1,0-4.62,0V62.8h-.15a2,2,0,0,0,0,4.06h.15v7.91c0,3.85,1.91,5,4.73,5Zm10.22,0a6.2,6.2,0,0,0,4.92-2.12v0a2.08,2.08,0,0,0,2.22,2,2.24,2.24,0,0,0,2.24-2.27v-7.6a7.35,7.35,0,0,0-1.76-5.32c-1.15-1.19-3-1.88-5.5-1.88a13.73,13.73,0,0,0-5.2.88,1.94,1.94,0,0,0-1.24,1.83,1.91,1.91,0,0,0,1.91,1.94,1.87,1.87,0,0,0,.67-.14,10.69,10.69,0,0,1,3.19-.45c2.31,0,3.49,1.08,3.49,3V70a11.6,11.6,0,0,0-4-.69c-3.86,0-6.56,1.69-6.56,5.33v.07c0,3.3,2.52,5.1,5.59,5.1Zm1.39-3.27c-1.48,0-2.51-.75-2.51-2v-.07c0-1.49,1.21-2.3,3.19-2.3a7,7,0,0,1,2.94.63v.83c0,1.72-1.46,2.94-3.62,2.93Zm10.45.78a2.31,2.31,0,1,0,4.62,0v0a6.2,6.2,0,0,0,5.07,2.49c3.86,0,7.42-3,7.42-8.63v-.06c0-5.57-3.61-8.62-7.41-8.62a6,6,0,0,0-5.08,2.7V59a2.31,2.31,0,1,0-4.62,0V77.32Zm8.51-1.52c-2.16,0-3.95-1.84-3.95-4.61v-.06c0-2.77,1.8-4.61,4-4.61s4,1.84,4,4.61v.06c0,2.81-1.82,4.61-4,4.61Zm10.7,1.53a2.31,2.31,0,1,0,4.61,0V59a2.31,2.31,0,1,0-4.62,0V77.33Zm11.18-7.47c.36-2.15,1.61-3.55,3.52-3.55s3.16,1.43,3.43,3.55Zm9.62,8a1.86,1.86,0,0,0,.61-1.41,1.78,1.78,0,0,0-1.79-1.86,1.71,1.71,0,0,0-1.13.37,5.25,5.25,0,0,1-3.28,1.12,3.79,3.79,0,0,1-4-3.27h9.14a2.14,2.14,0,0,0,2.16-2.28c0-3.46-2.4-8-7.84-8-4.74,0-8.05,3.92-8.05,8.69v.06a8.24,8.24,0,0,0,8.5,8.63,8.34,8.34,0,0,0,5.65-2ZM338,73.59c0,1.14-.75,1.83-2.19,2V71.26c1.66.6,2.19,1.3,2.19,2.33Zm-7.2-10.11c0-1,.64-1.77,2.12-2v4.26c-1.69-.64-2.12-1.3-2.12-2.27Zm5.91-22.41a11.16,11.16,0,0,1-3.16,7.82h0a10.68,10.68,0,0,1-7.63,3.26H88a10.61,10.61,0,0,1-7.63-3.27,11.15,11.15,0,0,1-3.16-7.8V21.37a11.15,11.15,0,0,1,3.16-7.8A10.61,10.61,0,0,1,88,10.3l.14,0,237.76,4.4v0A10.67,10.67,0,0,1,333.57,18a11.2,11.2,0,0,1,3.16,7.83V41.07Zm-282.35.54H26.81a1,1,0,0,0-1,.76l-11-1.53a1.19,1.19,0,0,0-1,.29,1.25,1.25,0,0,0-.41.95V90.17h-3V39.1a7.45,7.45,0,0,0,2.37.38,7.68,7.68,0,0,0,6.85-4.31,7.6,7.6,0,0,0,13.87-.39,7.6,7.6,0,0,0,14,0,7.6,7.6,0,0,0,13.88.39,7.66,7.66,0,0,0,6.84,4.31,7.45,7.45,0,0,0,2.37-.38V90.17h-3V42.08a1.26,1.26,0,0,0-.42-.95,1.19,1.19,0,0,0-1-.29l-11,1.53a1,1,0,0,0-1-.76Zm19.8,50.6,3.45,5.14c.05.07-.07.17-.17.17H3.75c-.09,0-.22-.09-.17-.17L7,92.21h6.49v.62a1.22,1.22,0,0,0,.48,1,1.14,1.14,0,0,0,1.05.21l6.65-1.82H55.16l11,3a1.17,1.17,0,0,0,1-.22,1.22,1.22,0,0,0,.48-1V92.21Zm-20.7-2H27.81V43.65H53.39L53.48,51v39.2Zm1.19-39.12V90.78L66.46,94V42.08L54.67,43.73v7.32ZM64.73,76c0,.42-.7.68-1.46.59l-5.59-.71c-.75-.09-1.32-.51-1.27-.93s.7-.68,1.45-.58l5.6.7c.75.1,1.32.51,1.27.93ZM26.53,51.05V89.59L14.74,92.83V42.08l11.79,1.65v7.32ZM16.63,76c.05.42.7.68,1.46.59l5.59-.71c.75-.09,1.32-.51,1.27-.93s-.7-.68-1.45-.58l-5.6.7c-.75.1-1.32.51-1.27.93Zm18.22-55L36.61,2h8l1.68,18.91V31.62A5.84,5.84,0,0,1,40.6,37.5h0a5.84,5.84,0,0,1-5.75-5.88V20.93Zm-14,0L26.81,2h8.13L32.28,20.93V31.62a5.83,5.83,0,0,1-5.74,5.88h0a5.83,5.83,0,0,1-5.74-5.88V20.93Zm39.6,0L54.38,2H46.25l2.66,18.91V31.62a5.84,5.84,0,0,0,5.74,5.88h0a5.84,5.84,0,0,0,5.75-5.88V20.93Zm-53.29,0L17.27,2h8L18.59,20.93V31.62a5.83,5.83,0,0,1-5.74,5.88h0a5.83,5.83,0,0,1-5.74-5.88V20.93Zm67,0L63.92,2h-8L62.6,20.93V31.62a5.83,5.83,0,0,0,5.74,5.88h0a5.83,5.83,0,0,0,5.74-5.88V20.93ZM181,66.64a6.91,6.91,0,0,1,6-3.12,11,11,0,0,1,5,1.27,3.69,3.69,0,0,1,2,3.34,3.65,3.65,0,0,1-1.54,3,5.21,5.21,0,0,1,1.78,4.1v.05c0,4.3-3.22,6.51-7.14,6.51a11.21,11.21,0,0,1-6.1-1.88,3.68,3.68,0,0,1-.73-.63,9.32,9.32,0,0,1-6.47,2.55,9.22,9.22,0,0,1-6.88-3,3.92,3.92,0,0,1-7,1.21,8.57,8.57,0,0,1-5.49,1.78A8.85,8.85,0,0,1,147.24,78a9.39,9.39,0,0,1-14.32,1,8,8,0,0,1-2.06,4.21c-1.9,1.94-4.59,2.44-7.17,2.44a14.69,14.69,0,0,1-5.6-1.08,3.75,3.75,0,0,1-2.17-4.73,9.24,9.24,0,0,1-12.66-1.07,4,4,0,0,1-3.81,2.88h-.12a4.37,4.37,0,0,1-3.62-2l-3.87-5.22v3.17a4,4,0,1,1-7.91,0V63.52a4,4,0,0,1,4-4.07h.4a4.33,4.33,0,0,1,3.61,2l3.61,4.85V63.45a4,4,0,1,1,7.91,0v2.86a8.28,8.28,0,0,1,6.33-2.86,8.06,8.06,0,0,1,6.44,3l.35.45a7.64,7.64,0,0,1,6.49-3.43,7.07,7.07,0,0,1,3.71,1,3.88,3.88,0,0,1,2.43-.85A4,4,0,0,1,133,66.33a9.31,9.31,0,0,1,6.78-2.87,9.19,9.19,0,0,1,7.54,3.81,8.88,8.88,0,0,1,7.37-3.81,8.77,8.77,0,0,1,5.13,1.46,3.84,3.84,0,0,1-.7-2.26v0a4.19,4.19,0,0,1,8.36,0v0a3.79,3.79,0,0,1-1,2.59,4.11,4.11,0,0,1,.59,1.23,9.41,9.41,0,0,1,13.94.16Z"/><path class="cls-2" d="M206.45,39.53c3.75,0,6.38-2,6.38-5.51V34c0-3.11-2-4.41-5.51-5.35-3-.79-3.74-1.17-3.74-2.34v-.06c0-.86.77-1.55,2.23-1.55a7.26,7.26,0,0,1,3.65,1.2,1.79,1.79,0,0,0,2.75-1.53,1.8,1.8,0,0,0-.84-1.55,10,10,0,0,0-5.51-1.58c-3.55,0-6.08,2.14-6.08,5.37v.05c0,3.54,2.26,4.53,5.75,5.45,2.91.76,3.51,1.27,3.51,2.27v0c0,1-.95,1.67-2.52,1.67a7.22,7.22,0,0,1-4.44-1.6,1.79,1.79,0,0,0-2.87,1.45,1.83,1.83,0,0,0,.71,1.48,11.08,11.08,0,0,0,6.53,2.13Zm11.84,0a5.09,5.09,0,0,0,4-1.73v0a1.71,1.71,0,0,0,1.81,1.6A1.83,1.83,0,0,0,226,37.58V31.37A6.05,6.05,0,0,0,224.53,27,6.07,6.07,0,0,0,220,25.49a11.31,11.31,0,0,0-4.25.72,1.58,1.58,0,0,0-1,1.5,1.57,1.57,0,0,0,1.56,1.58,1.49,1.49,0,0,0,.55-.11,8.73,8.73,0,0,1,2.61-.38c1.89,0,2.85.89,2.85,2.49v.23a9.24,9.24,0,0,0-3.25-.56c-3.15,0-5.36,1.38-5.36,4.36v0c0,2.69,2.06,4.17,4.56,4.17Zm1.14-2.67c-1.21,0-2.05-.62-2.05-1.65v-.06c0-1.22,1-1.88,2.6-1.88a5.8,5.8,0,0,1,2.41.51v.68c0,1.4-1.19,2.4-3,2.4Zm8.72.64a1.89,1.89,0,1,0,3.77,0v-15a1.89,1.89,0,1,0-3.78,0v15Zm18.17-10.08a1.89,1.89,0,1,0-3.77,0v5.83c0,1.83-.93,2.77-2.36,2.77s-2.29-.94-2.29-2.77V27.43a1.89,1.89,0,1,0-3.77,0v7c0,3.13,1.66,5.06,4.52,5.06a4.73,4.73,0,0,0,3.9-2.18v.15a1.89,1.89,0,1,0,3.77,0V27.43Zm15.52-4.92a1.89,1.89,0,1,0-3.78,0v4.94a5,5,0,0,0-4.14-2c-3.15,0-6.06,2.5-6.06,7.05v0c0,4.56,2.95,7,6,7a4.84,4.84,0,0,0,4.15-2.22v.18a1.89,1.89,0,1,0,3.77,0v-15Zm-6.95,6.17c1.76,0,3.22,1.51,3.22,3.77v0c0,2.27-1.46,3.77-3.22,3.77s-3.26-1.51-3.26-3.77v0c0-2.29,1.49-3.77,3.26-3.77Zm12.85,10.87a5,5,0,0,0,4-1.73v0a1.71,1.71,0,0,0,1.81,1.6,1.83,1.83,0,0,0,1.84-1.85V31.39A6,6,0,0,0,274,27a6.07,6.07,0,0,0-4.5-1.53,11.27,11.27,0,0,0-4.24.71,1.59,1.59,0,0,0-1,1.5,1.55,1.55,0,0,0,1.56,1.58,1.57,1.57,0,0,0,.55-.11,8.74,8.74,0,0,1,2.6-.37c1.89,0,2.86.89,2.86,2.49v.23a9.28,9.28,0,0,0-3.25-.56c-3.16,0-5.37,1.37-5.37,4.35v.05c0,2.7,2.06,4.17,4.57,4.17Zm1.14-2.67c-1.21,0-2.06-.61-2.05-1.65v-.06c0-1.22,1-1.88,2.6-1.88a5.83,5.83,0,0,1,2.41.51v.69c0,1.4-1.19,2.39-3,2.39Zm8.54.64a1.89,1.89,0,1,0,3.77,0v0a5.06,5.06,0,0,0,4.15,2c3.15,0,6.06-2.49,6.06-7.05v0c0-4.55-3-7-6.06-7a4.87,4.87,0,0,0-4.15,2.22V22.51a1.89,1.89,0,1,0-3.78,0v15Zm6.95-1.25c-1.76,0-3.23-1.5-3.23-3.76v0c0-2.27,1.47-3.77,3.23-3.77s3.26,1.5,3.25,3.77v0c0,2.29-1.49,3.76-3.25,3.76Zm8.74,1.25a1.89,1.89,0,1,0,3.77,0v-15a1.89,1.89,0,1,0-3.78,0v15Zm9.13-6.1c.3-1.75,1.32-2.9,2.88-2.9s2.58,1.17,2.81,2.9ZM310.11,38a1.53,1.53,0,0,0,.5-1.14,1.47,1.47,0,0,0-1.47-1.53,1.37,1.37,0,0,0-.92.31,4.3,4.3,0,0,1-2.68.91,3.1,3.1,0,0,1-3.25-2.67h7.47A1.74,1.74,0,0,0,311.52,32a6.36,6.36,0,0,0-6.4-6.56c-3.87,0-6.58,3.2-6.58,7.09v.05A7,7,0,0,0,310.11,38Zm7.72,1.61c2.88,0,5.09-1.37,5.09-4.4v-.05c0-2.5-2.16-3.41-4-4-1.44-.51-2.71-.87-2.71-1.63v-.05c0-.54.48-.94,1.4-.94a6.93,6.93,0,0,1,2.88.87,1.38,1.38,0,0,0,.69.17A1.49,1.49,0,0,0,322.68,28a1.57,1.57,0,0,0-.9-1.45,9.16,9.16,0,0,0-4.12-1.05c-2.68,0-4.86,1.55-4.86,4.33v.05c0,2.65,2.11,3.53,4,4.1,1.47.45,2.76.73,2.76,1.57v0c0,.61-.5,1-1.59,1a6.9,6.9,0,0,1-3.59-1.22,1.56,1.56,0,0,0-.75-.21,1.49,1.49,0,0,0-1.49,1.53,1.53,1.53,0,0,0,.72,1.32,9.08,9.08,0,0,0,5,1.56Z"/><path class="cls-2" d="M90,23.85A1.86,1.86,0,0,1,91.84,22h.38a2.3,2.3,0,0,1,1.92,1.11l7.11,9.58V23.78a1.82,1.82,0,1,1,3.64,0V37.46A1.85,1.85,0,0,1,103,39.35h-.12A2.26,2.26,0,0,1,101,38.24l-7.38-9.92v9.21a1.82,1.82,0,1,1-3.64,0V23.85Z"/><path class="cls-2" d="M115.77,31.64c-.22-1.67-1.18-2.8-2.71-2.8s-2.49,1.11-2.78,2.8Zm-2.35,7.91a6.5,6.5,0,0,1-6.71-6.8v0c0-3.76,2.61-6.85,6.35-6.85a6.15,6.15,0,0,1,6.18,6.34,1.68,1.68,0,0,1-1.7,1.79h-7.21a3,3,0,0,0,3.14,2.57,4.09,4.09,0,0,0,2.58-.88,1.44,1.44,0,0,1,2.3,1.18,1.48,1.48,0,0,1-.48,1.11,6.55,6.55,0,0,1-4.45,1.59Z"/><path class="cls-2" d="M130.14,32V32a3.13,3.13,0,0,0-6.25,0V32A3,3,0,0,0,127,35.09,3,3,0,0,0,130.14,32Zm-8.27,10.29a1.54,1.54,0,0,1-1-1.45,1.51,1.51,0,0,1,1.49-1.52,1.37,1.37,0,0,1,.6.12,8.12,8.12,0,0,0,3.54.78c2.49,0,3.67-1.22,3.67-3.58V36A5,5,0,0,1,126,38.18c-3,0-5.7-2.24-5.7-6.14V32c0-3.93,2.75-6.14,5.7-6.14a5.13,5.13,0,0,1,4.14,2v0a1.82,1.82,0,1,1,3.64,0v8.47c0,2.36-.55,4.08-1.63,5.18s-3,1.77-5.53,1.77a12.15,12.15,0,0,1-4.7-.91Z"/><path class="cls-2" d="M145.47,32.76v0a3.47,3.47,0,0,0-3.37-3.64,3.35,3.35,0,0,0-3.34,3.59v.05a3.46,3.46,0,0,0,3.38,3.63,3.33,3.33,0,0,0,3.33-3.58Zm-10.3,0v0a7,7,0,0,1,13.9-.05v.05a6.83,6.83,0,0,1-7,6.85,6.76,6.76,0,0,1-6.92-6.81Z"/><path class="cls-2" d="M149.88,32.76v0a6.67,6.67,0,0,1,6.73-6.85A6.32,6.32,0,0,1,161,27.34a1.68,1.68,0,0,1-1.08,2.94,1.73,1.73,0,0,1-1.06-.37,3.41,3.41,0,0,0-2.27-.83,3.33,3.33,0,0,0-3.12,3.58v.05a3.35,3.35,0,0,0,3.26,3.64,3.68,3.68,0,0,0,2.4-.91,1.64,1.64,0,0,1,1-.34,1.55,1.55,0,0,1,1.53,1.59,1.6,1.6,0,0,1-.53,1.18,6.21,6.21,0,0,1-4.55,1.69,6.64,6.64,0,0,1-6.68-6.8Z"/><path class="cls-2" d="M163.15,27.83a1.83,1.83,0,1,1,3.65,0v9.72a1.82,1.82,0,1,1-3.64,0V27.83ZM162.94,23A2.06,2.06,0,0,1,167,23V23a2.06,2.06,0,0,1-4.07,0V23Z"/><path class="cls-2" d="M178.7,32.77v-.05a3.47,3.47,0,0,0-3.38-3.64A3.34,3.34,0,0,0,172,32.67v0a3.46,3.46,0,0,0,3.38,3.63,3.33,3.33,0,0,0,3.33-3.58Zm-10.3,0v0a6.95,6.95,0,0,1,13.89,0v0a6.95,6.95,0,0,1-13.89,0Z"/><path class="cls-2" d="M183.39,38a1.49,1.49,0,0,1-.69-1.27,1.43,1.43,0,0,1,1.44-1.48,1.37,1.37,0,0,1,.71.2,6.63,6.63,0,0,0,3.48,1.18c1,0,1.53-.39,1.53-1v-.05c0-.81-1.24-1.08-2.66-1.52-1.79-.54-3.83-1.4-3.83-4v-.05c0-2.67,2.11-4.17,4.7-4.17a8.79,8.79,0,0,1,4,1,1.52,1.52,0,0,1,.86,1.4,1.45,1.45,0,0,1-1.46,1.47,1.34,1.34,0,0,1-.67-.17,6.66,6.66,0,0,0-2.78-.84c-.88,0-1.34.4-1.34.91v.05c0,.74,1.22,1.08,2.61,1.57,1.8.62,3.88,1.5,3.88,3.91v.05c0,2.92-2.13,4.24-4.91,4.24a8.74,8.74,0,0,1-4.84-1.5Z"/><path class="cls-2" d="M86,63.52a1.91,1.91,0,0,1,1.9-1.94h.4a2.33,2.33,0,0,1,2,1.14l7.33,9.86V63.45a1.88,1.88,0,1,1,3.75,0V77.54a1.9,1.9,0,0,1-1.9,1.95h-.12a2.34,2.34,0,0,1-2-1.14l-7.6-10.22v9.48a1.88,1.88,0,1,1-3.75,0V63.52Z"/><path class="cls-2" d="M112.56,71.55c-.22-1.72-1.21-2.88-2.79-2.88s-2.57,1.13-2.86,2.88Zm-2.42,8.14a6.7,6.7,0,0,1-6.91-7v0c0-3.87,2.69-7.06,6.54-7.06a6.34,6.34,0,0,1,6.37,6.53A1.73,1.73,0,0,1,114.39,74H107a3.08,3.08,0,0,0,3.23,2.66,4.24,4.24,0,0,0,2.66-.91,1.41,1.41,0,0,1,.92-.3,1.44,1.44,0,0,1,1.45,1.51,1.52,1.52,0,0,1-.49,1.14,6.77,6.77,0,0,1-4.59,1.64Z"/><path class="cls-2" d="M127.37,72v0a3.22,3.22,0,0,0-6.44,0v0a3,3,0,0,0,3.2,3.13A3.09,3.09,0,0,0,127.37,72Zm-8.52,10.59a1.57,1.57,0,0,1,.47-3.06,1.46,1.46,0,0,1,.62.13,8.28,8.28,0,0,0,3.65.81c2.57,0,3.77-1.26,3.77-3.69v-.66a5.11,5.11,0,0,1-4.31,2.2c-3.09,0-5.88-2.3-5.88-6.32v0c0-4,2.84-6.33,5.88-6.33a5.3,5.3,0,0,1,4.27,2v0a1.88,1.88,0,1,1,3.75,0v8.73c0,2.42-.57,4.19-1.68,5.33s-3.14,1.82-5.7,1.82a12.25,12.25,0,0,1-4.84-.94Z"/><path class="cls-2" d="M143.16,72.7v0a3.57,3.57,0,0,0-3.48-3.75,3.44,3.44,0,0,0-3.43,3.69v.06a3.57,3.57,0,0,0,3.48,3.74,3.43,3.43,0,0,0,3.43-3.69Zm-10.61,0v0a7.16,7.16,0,0,1,14.31,0v.05a7.16,7.16,0,0,1-14.31,0Z"/><path class="cls-2" d="M147.7,72.7v0a6.88,6.88,0,0,1,6.94-7.06,6.51,6.51,0,0,1,4.51,1.52,1.73,1.73,0,0,1,.59,1.32,1.7,1.7,0,0,1-1.7,1.72,1.82,1.82,0,0,1-1.09-.38,3.5,3.5,0,0,0-2.34-.86,3.43,3.43,0,0,0-3.21,3.69v.05a3.44,3.44,0,0,0,3.36,3.74,3.73,3.73,0,0,0,2.46-.93,1.75,1.75,0,0,1,1-.35,1.6,1.6,0,0,1,1.58,1.64,1.68,1.68,0,0,1-.55,1.21,6.41,6.41,0,0,1-4.69,1.75,6.84,6.84,0,0,1-6.88-7Z"/><path class="cls-2" d="M161.37,67.62a1.88,1.88,0,1,1,3.76,0v10a1.88,1.88,0,1,1-3.75,0v-10Zm-.22-5a2.13,2.13,0,0,1,4.2,0v0a2.12,2.12,0,0,1-4.2,0v0Z"/><path class="cls-2" d="M177.39,72.71v0a3.57,3.57,0,0,0-3.48-3.75,3.44,3.44,0,0,0-3.43,3.7v0A3.56,3.56,0,0,0,174,76.4a3.44,3.44,0,0,0,3.43-3.69Zm-10.61,0v0a7.16,7.16,0,0,1,14.31,0v0a7,7,0,0,1-7.19,7,6.94,6.94,0,0,1-7.12-7Z"/><path class="cls-2" d="M182.22,78.12a1.54,1.54,0,0,1-.71-1.31,1.48,1.48,0,0,1,2.22-1.32,6.81,6.81,0,0,0,3.57,1.22c1.09,0,1.58-.41,1.58-1v0c0-.84-1.28-1.12-2.74-1.57-1.84-.56-3.94-1.45-3.94-4.08v0c0-2.75,2.17-4.3,4.84-4.3a9.06,9.06,0,0,1,4.09,1,1.57,1.57,0,0,1,.89,1.44,1.5,1.5,0,0,1-1.5,1.52,1.33,1.33,0,0,1-.7-.18,6.93,6.93,0,0,0-2.86-.86c-.91,0-1.38.41-1.38.94v0c0,.76,1.26,1.11,2.69,1.62,1.85.63,4,1.54,4,4v.05c0,3-2.19,4.38-5,4.38a9.17,9.17,0,0,1-5-1.55Z"/></g></g></svg>