<svg xmlns="http://www.w3.org/2000/svg" viewBox="0 0 74.34 119.47"><defs><style>.cls-1,.cls-3{fill:#135aa2;}.cls-1{fill-rule:evenodd;}.cls-2{fill:#fff;}</style></defs><title>Autorregulapaso 3 Azul@1x</title><g id="Capa_2" data-name="Capa 2"><g id="Contenidos"><path class="cls-1" d="M9.42,97.73C3.85,92.7,0,85.36,0,77.91V61.79c0-5.66,6-9.91,11.39-9.91a12.18,12.18,0,0,1,2.29.23l-4.53-28A11.11,11.11,0,0,1,18.53,11.4a11.38,11.38,0,0,1,10.28,3.68l0-3.92A11.28,11.28,0,0,1,51.32,11l.08,7.61L52.22,15A11.26,11.26,0,0,1,65.69,6.7,11,11,0,0,1,74,20L65.34,56.15l.59,21.76A24,24,0,0,1,54.39,98.24v21.23h-45Z"/><path class="cls-2" d="M13.06,96.1v19.81H50.75V96.21c7.07-3.72,11.54-10.52,11.54-18.3l-.6-22.13,8.8-36.62a7.41,7.41,0,0,0-5.62-9,7.6,7.6,0,0,0-9.1,5.63L48.05,49l-.36-38a7.64,7.64,0,0,0-15.28.14l.4,40.77-5-30.75a7.63,7.63,0,0,0-8.74-6.23,7.52,7.52,0,0,0-6.36,8.58L18.48,59c-1.05-2.12-4.54-3.57-7.09-3.57-3.58,0-7.75,2.84-7.75,6.35V77.91c0,7.69,4.71,14.44,9.42,18.19"/><path class="cls-3" d="M11.39,56.21a5.53,5.53,0,0,0-3.88,1.58A5.33,5.33,0,0,0,5.89,61.6V71.8a5.33,5.33,0,0,0,1.62,3.81,5.55,5.55,0,0,0,7.76,0,5.33,5.33,0,0,0,1.62-3.81V61.6a5.29,5.29,0,0,0-1.62-3.8,5.51,5.51,0,0,0-3.88-1.59m0-2.82a8.43,8.43,0,0,1,5.92,2.41,8.1,8.1,0,0,1,2.46,5.8V71.8a8.1,8.1,0,0,1-2.46,5.8,8.48,8.48,0,0,1-11.84,0A8.1,8.1,0,0,1,3,71.8V61.6a8.1,8.1,0,0,1,2.46-5.8A8.45,8.45,0,0,1,11.39,53.39Z"/><path class="cls-3" d="M64.9,80.63,33,56.1c-.78-.36-6-2.54-9.34,1.84-3.47,4.58,2.72,9.25,2.73,9.26,3.09,2.35,7.23,6.79,10.26,9.64l-.85,1s-8.29,9.47-.87,19.79l-2.35,1.62c-7.12-9.9-1.93-19.11.21-22.16l-8.24-7.74c-.82-.65-8.07-6.66-3.19-13.1,5-6.66,13-2.63,13.06-2.62l.11.06L66.66,78.41Z"/></g></g></svg>