<svg xmlns="http://www.w3.org/2000/svg" xmlns:xlink="http://www.w3.org/1999/xlink" viewBox="0 0 123.2 135.99"><defs><style>.cls-1{fill:#3d5da6;}.cls-2{fill:url(#Degradado_sin_nombre_18);}.cls-3{fill:url(#Degradado_sin_nombre_18-2);}</style><linearGradient id="Degradado_sin_nombre_18" x1="95.41" y1="62.16" x2="123.05" y2="62.16" gradientTransform="translate(0.18 -0.01) rotate(0.04)" gradientUnits="userSpaceOnUse"><stop offset="0.03" stop-color="#e67d23"/><stop offset="1" stop-color="#fbb03b"/></linearGradient><linearGradient id="Degradado_sin_nombre_18-2" x1="-0.14" y1="62.16" x2="27.5" y2="62.16" xlink:href="#Degradado_sin_nombre_18"/></defs><title>AutorregulaIcono autorregulate @1x</title><g id="Capa_2" data-name="Capa 2"><g id="Contenidos"><path class="cls-1" d="M17.82,36.05h4V15.73H16.25L25.8,5.61l9.54,10.13H29.78V28.67h4V19.43H44.11L25.8,0,7.47,19.42H17.83Z"/><path class="cls-1" d="M29.76,32.36h4v3.7h-4Z"/><path class="cls-1" d="M29.76,39.75h4v3.69h-4Z"/><path class="cls-2" d="M109.39,40.32,95.55,58.26h7.85V71.2h4l0-16.62h-4.1l6.09-7.9,6.08,7.91h-4.09l0,29.55h4l0-25.85h7.85Z"/><path class="cls-3" d="M15.8,71.14h4V58.21h7.85l-13.81-18L0,58.2H7.85l0,25.86h4l0-29.55H7.74l6.09-7.9,6.08,7.91h-4.1Z"/><path class="cls-1" d="M89.49,28.71h4V15.78H87.91L97.46,5.66,107,15.79h-5.57V36.1h4V19.48h10.36L97.47.05,79.13,19.46H89.49Z"/><path class="cls-1" d="M89.48,32.4h4v3.7h-4Z"/><path class="cls-1" d="M89.48,39.79h4v3.69h-4Z"/><path class="cls-1" d="M29.84,83.78V76.62l63.59,0v7.16h4V73h-8V60a9.29,9.29,0,0,0-7.08-8.84L69.61,47.6V44.8a12.65,12.65,0,0,0,6-10.58V28.68c0-7.12-6.24-12.92-13.91-12.92s-13.91,5.78-13.92,12.9V34.2a12.69,12.69,0,0,0,6,10.59v2.8L40.92,51.14A9.28,9.28,0,0,0,33.83,60v13H25.87V83.78ZM51.74,34.2V28.67c0-5.09,4.46-9.23,9.94-9.22s9.94,4.14,9.93,9.23v5.53c0,5.09-4.46,9.23-9.94,9.22S51.73,39.29,51.74,34.2Zm13.9,12.38v1.88a5.12,5.12,0,0,1-4,2.35,5.11,5.11,0,0,1-4-2.35V46.58a14.9,14.9,0,0,0,8,0ZM37.81,60a5.57,5.57,0,0,1,4.25-5.3l12.8-3.56a8.54,8.54,0,0,0,13.6,0l12.8,3.57A5.57,5.57,0,0,1,85.5,60V73H77.55V60.05h-4V73l-23.85,0V60h-4V72.94h-8Z"/><path class="cls-1" d="M104.93,100.09V96.45a.86.86,0,0,0,0-.16v0l0-.14v0a.5.5,0,0,0,0-.13l0,0a.37.37,0,0,0,0-.11v0l-8.2-15.51v-6a1.71,1.71,0,0,0-1.81-1.58l-67,0A1.71,1.71,0,0,0,26,74.26v6L17.73,95.73v0l0,.11s0,0,0,0a.93.93,0,0,1,0,.13,0,0,0,0,1,0,0,.68.68,0,0,0,0,.14v0s0,.11,0,.16V100c0,4.34,3.61,8,8.37,8.72l0,24H19.36a1.6,1.6,0,1,0,0,3.17H49.57l45.14,0h8.38a1.6,1.6,0,1,0,0-3.16H96.53l0-24C101.31,108.05,104.93,104.43,104.93,100.09Zm-4.66-5.22H87.75l-4-12.66h9.84ZM71.43,96.29,70,82.19H80l4,12.66H77.16a1.6,1.6,0,1,0,0,3.17h7.39v2.06c0,3.14-2.94,5.69-6.55,5.69s-6.55-2.56-6.55-5.7V96.43A.61.61,0,0,0,71.43,96.29ZM29.59,75.84l63.34,0v3.17L29.59,79Zm31.9,19H54.87l1.35-12.65H66.29L67.8,96.5v3.57c0,3.13-3,5.69-6.56,5.68s-6.55-2.55-6.55-5.69V98h6.8a1.6,1.6,0,1,0,0-3.16ZM49.91,98h1.14v2c0,3.14-2.94,5.7-6.56,5.69s-6.55-2.56-6.54-5.69V96.62l4.6-14.44h10L51.21,94.83h-1.3a1.6,1.6,0,1,0,0,3.17ZM21.2,100V98h4.93a1.6,1.6,0,1,0,0-3.16H22.22l6.71-12.65h9.84L34.37,96a1.52,1.52,0,0,0-.06.42V100c0,3.14-3,5.69-6.56,5.69S21.2,103.17,21.2,100Zm26.56,22.48H45.94a1.6,1.6,0,1,0,0,3.16h1.82v7.12H36.83V115.39H47.76Zm45.13,10.31-41.5,0,0-19a1.72,1.72,0,0,0-1.82-1.58H35a1.72,1.72,0,0,0-1.83,1.58v19H29.55l0-24a10.41,10.41,0,0,0,6.55-3.66,11.1,11.1,0,0,0,16.75,0,11.09,11.09,0,0,0,16.74,0,11.1,11.1,0,0,0,16.75,0,10.48,10.48,0,0,0,6.55,3.68Zm1.84-27c-3.61,0-6.55-2.56-6.55-5.7V98h13.1v2.06C101.29,103.23,98.35,105.78,94.73,105.78Z"/><path class="cls-1" d="M87.45,112.26l-30.58,0a1.7,1.7,0,0,0-1.82,1.58v14.23a1.71,1.71,0,0,0,1.82,1.58l30.58,0a1.7,1.7,0,0,0,1.82-1.58V113.84s0-.1,0-.16a.13.13,0,0,1,0-.06s0-.06,0-.09a.14.14,0,0,0,0-.07s0,0,0-.08l0-.07,0-.08,0-.06,0-.08,0-.06L89,113l0-.06-.06-.06a.47.47,0,0,0-.1-.1l0,0h0a.94.94,0,0,0-.12-.09l-.07-.05-.07,0-.08,0-.08,0-.08,0-.08,0-.08,0-.08,0-.09,0-.09,0h-.35ZM58.68,126.47V115.4H72.75l-.78.68a1.44,1.44,0,0,0,0,2.24,2,2,0,0,0,1.29.46,1.94,1.94,0,0,0,1.28-.46l3.36-2.92h5.15L70.3,126.48Zm26.94,0H75.45l10.17-8.82Z"/><path class="cls-1" d="M67.74,119.76l-.79.68a1.44,1.44,0,0,0,0,2.24,2,2,0,0,0,2.57,0l.8-.68a1.44,1.44,0,0,0,0-2.24A2,2,0,0,0,67.74,119.76Z"/></g></g></svg>