<svg xmlns="http://www.w3.org/2000/svg" viewBox="0 0 89.34 117.35"><defs><style>.cls-1,.cls-3{fill:#135aa2;}.cls-1{fill-rule:evenodd;}.cls-2{fill:#fff;}</style></defs><title>AutorregulaPaso 5 Azul@1x</title><g id="Capa_2" data-name="Capa 2"><g id="Contenidos"><path class="cls-1" d="M68.53,85.24c-2,4.92-5.82,7.29-9.27,10.78v21.33H18.47V97.52c-4.57-2.4-7.06-7.88-7.58-12.92L.29,42.12a10.79,10.79,0,0,1,8-12.95,10.65,10.65,0,0,1,6.89.65l-1.2-8.69a10.75,10.75,0,0,1,18-9.31l0-.77a10.75,10.75,0,1,1,21.49-.6l0,1.37a10.75,10.75,0,0,1,20.83,5L69,53.39l1.79-2A10.76,10.76,0,0,1,86,50.53c4.49,4,4.32,10.81.4,15.2Z"/><path class="cls-2" d="M83.72,53.06a7.34,7.34,0,0,0-10.38.58L64.05,64l6.87-47.73a7.36,7.36,0,0,0-14.57-2.1L51.13,50.5,50,10.54A7.36,7.36,0,0,0,35.31,11l1.14,40.81L31.88,18.65a7.36,7.36,0,0,0-14.58,2l4.81,34.78L17.91,37.9A7.36,7.36,0,0,0,3.6,41.34L14.25,84s.82,9.63,7.62,11.15V114h34V94.66c2.26-2.49,8-6.44,9.72-11.24l18.28-20c2.71-3,2.87-7.68-.15-10.38"/><path class="cls-3" d="M59.51,92,84.68,62.12c.4-.79,2.67-5.73-1.49-9C78.8,49.57,74,55.35,74,55.37c-2.39,2.88-6.91,6.73-9.81,9.55l-1-.87s-9-8.29-19.39-1.51l-1.52-2.32c10-6.5,18.82-1.2,21.74,1L72,53.52c.71-.81,6.83-7.5,13-2.62C91.27,56,87.06,63.53,87,63.55l-.06.11L61.62,93.77Z"/></g></g></svg>