<svg xmlns="http://www.w3.org/2000/svg" viewBox="0 0 57.91 91.02"><defs><style>.cls-1,.cls-2{fill:#fff;}.cls-1{fill-rule:evenodd;}</style></defs><title>AutorregulaPaso 4 Blanco@1x</title><g id="Capa_2" data-name="Capa 2"><g id="Contenidos"><path class="cls-1" d="M50.74,6.72A8.27,8.27,0,0,0,43,11l0-2.52A8.54,8.54,0,0,0,34.64,0C30,0,26.46,4.41,26.5,8.86l0,1.55a8.14,8.14,0,0,0-7.19-3.13,8,8,0,0,0-7.25,8.89l.45,4A8.12,8.12,0,0,0,6.75,19,8.21,8.21,0,0,0,.13,28.58l3.64,20L5.08,61l0,.12c1.24,5.94,2.69,11.11,8,14.12V91H42.88V74.33c14.65-13,13-40.73,15-58.55A8.09,8.09,0,0,0,50.74,6.72Zm4.69,8.79c-2,17.46-.31,45.84-15,57.68V88.58H15.54V73.77c-5.34-2.34-6.72-6.74-8-13.11L6.27,49l.06,0L2.54,28.15a5.77,5.77,0,1,1,11.36-2l3.41,18.82c.15-.06.3-.08.45-.15L14.51,15.89A5.61,5.61,0,0,1,19.6,9.7,6.07,6.07,0,0,1,26,15.17l3,27.17h.31l-.32-33.5c0-3.19,2.53-6.37,5.72-6.4a6.11,6.11,0,0,1,5.83,6.1l.31,33.8h.45L44.12,15c.34-3.17,3.19-6.21,6.36-5.87A5.65,5.65,0,0,1,55.43,15.51Z"/><path class="cls-2" d="M49.77,58.37,25.93,39.68c-.59-.28-4.5-1.94-7,1.4-2.59,3.49,2,7.05,2,7.06,2.3,1.79,5.4,5.17,7.66,7.34l-.64.77s-6.18,7.22-.64,15.08l-1.76,1.23C20.3,65,24.17,58,25.77,55.68l-6.15-5.9c-.62-.49-6-5.07-2.39-10,3.76-5.07,9.74-2,9.75-2l.09,0,24,18.83Z"/></g></g></svg>