<svg xmlns="http://www.w3.org/2000/svg" viewBox="0 0 55.8 91.02"><defs><style>.cls-1{fill:#fff;}</style></defs><title>AutorregulaPaso 2 Blanco@1x</title><g id="Capa_2" data-name="Capa 2"><g id="Contenidos"><path class="cls-1" d="M49.07,2.58a8.39,8.39,0,0,0-9.85,6.67l-1.77,9.13L36.14,7.44A8.43,8.43,0,0,0,26.77.06c-4.72.57-7.91,5.59-7.38,10.12l2.93,25a6.81,6.81,0,0,0-2.81-.67c-3.74,0-7.48,2-8.6,5.48a7.2,7.2,0,0,0-2.69-.51C4.14,39.45,0,42.73,0,47v12.3A18.6,18.6,0,0,0,8.81,74.92V91H40.68V75a18.7,18.7,0,0,0,9-15.64L49.29,44l6.34-31.47A8.37,8.37,0,0,0,49.07,2.58ZM21.71,40h-.39c-.14,0-.27,0-.41,0H20.8a7,7,0,0,0-2.49.57l-.1,0a6,6,0,0,0-.82.45l-.19.13a7.38,7.38,0,0,0-.71.57l-.22.19A7.71,7.71,0,0,0,14.9,43.7l-.12.26-.17.34V41.88a4.1,4.1,0,0,1,6.89-3A4,4,0,0,1,22.38,40L21.74,40ZM15.89,50.83,16,51c.11.13.22.27.33.39l.16.19c.1.11.19.21.29.3a1.29,1.29,0,0,0,.16.17l.24.24.14.13.2.18.09.08.18.15,4.13,4a4.28,4.28,0,0,1-1.1,1,4.09,4.09,0,0,1-5-.6h0a4.1,4.1,0,0,1-1.2-2.9V48.58l0,.09a5.3,5.3,0,0,0,.27.59,1.63,1.63,0,0,0,.09.19A9.32,9.32,0,0,0,15.89,50.83Zm-12-3.9A4.13,4.13,0,0,1,8,42.82a4.11,4.11,0,0,1,4.1,4.11V54.7a4.1,4.1,0,0,1-1.2,2.9,4.08,4.08,0,0,1-5.8,0,4.06,4.06,0,0,1-1.21-2.9ZM38,73.39V88.3H11.53V73.36a16,16,0,0,1-8.81-14V58a6,6,0,0,0,.85,1.08,6.17,6.17,0,0,0,9.9-1.47,6.31,6.31,0,0,0,.83,1h0a6.22,6.22,0,0,0,7.67.92,6,6,0,0,0,1.52-1.33l.48.46c-1.59,2.32-5.47,9.34-.15,16.88l1.76-1.23c-5.55-7.86.62-15.06.64-15.08l.64-.77c-2.06-2-4.8-4.94-7-6.81l-.64-.53s-4.63-3.57-2-7.06a6,6,0,0,1,.56-.64c.07-.08.15-.14.22-.21L18.3,43l.29-.2.29-.16a4.59,4.59,0,0,1,1.06-.4,5.35,5.35,0,0,1,.95-.15h0a7.11,7.11,0,0,1,2.64.42l.25.08.34.15,22.72,17.8A16.33,16.33,0,0,1,38,73.39ZM53,12,46.57,43.72l.3,14.12L25.78,41.31,22.1,9.87c-.38-3.14,1.86-6.73,5-7.11a5.7,5.7,0,0,1,6.35,5L36.81,36l5.08-26.2A5.64,5.64,0,1,1,53,12Z"/></g></g></svg>