<svg xmlns="http://www.w3.org/2000/svg" viewBox="0 0 73.73 115.88"><defs><style>.cls-1,.cls-3{fill:#135aa2;}.cls-1{fill-rule:evenodd;}.cls-2{fill:#fff;}</style></defs><title>AutorregulaPaso 4 Azul@1x</title><g id="Capa_2" data-name="Capa 2"><g id="Contenidos"><path class="cls-1" d="M54.59,94.63v21.25H16.67v-20C9.92,92,8.08,85.43,6.5,77.87l0-.15L4.8,61.87.17,36.39A10.45,10.45,0,0,1,16,25.64l-.57-5.06A10.23,10.23,0,0,1,24.61,9.27a10.35,10.35,0,0,1,9.15,4l0-2C33.69,5.61,38.21.05,44.1,0S54.6,5.12,54.66,10.84l0,3.21c2.05-3.46,5.78-5.94,9.91-5.49a10.29,10.29,0,0,1,9.06,11.53c-2.53,22.68-.42,58-19.07,74.54"/><path class="cls-2" d="M64.27,11.65c-4-.44-7.66,3.44-8.1,7.47L52.52,53.91H52l-.4-43c0-4.06-3.36-7.8-7.42-7.76s-7.32,4.08-7.28,8.14l.4,42.66h-.39L33.08,19.32c-.45-4-4.09-7.42-8.12-7a7.12,7.12,0,0,0-6.49,7.87L22.62,57c-.2.09-.39.11-.58.19l-4.35-24a7.35,7.35,0,1,0-14.46,2.6L8.05,62.35l-.06,0L9.54,77.23C11.23,85.34,13,91,19.78,93.93v18.84h31.7V93.19C70.17,78.11,68.07,42,70.57,19.74a7.18,7.18,0,0,0-6.3-8.09"/><path class="cls-3" d="M62,79.65,31.67,55.85c-.74-.35-5.72-2.46-8.88,1.79-3.3,4.44,2.58,9,2.6,9,2.93,2.28,6.87,6.58,9.76,9.35l-.82,1s-7.87,9.19-.82,19.2l-2.23,1.57c-6.77-9.6-1.84-18.54.19-21.49l-7.83-7.51c-.78-.63-7.67-6.46-3-12.71C25.39,49.55,33,53.46,33,53.47l.1.05,30.6,24Z"/></g></g></svg>