<svg xmlns="http://www.w3.org/2000/svg" xmlns:xlink="http://www.w3.org/1999/xlink" viewBox="0 0 293.79 264.5"><defs><style>.cls-1{fill:#3d5da6;}.cls-2{fill:url(#Degradado_sin_nombre_18);}.cls-3{fill:url(#Degradado_sin_nombre_18-2);}</style><linearGradient id="Degradado_sin_nombre_18" x1="189.47" y1="70.01" x2="276.54" y2="70.01" gradientUnits="userSpaceOnUse"><stop offset="0.03" stop-color="#e67d23"/><stop offset="1" stop-color="#fbb03b"/></linearGradient><linearGradient id="Degradado_sin_nombre_18-2" x1="170.71" y1="91.68" x2="257.78" y2="91.68" xlink:href="#Degradado_sin_nombre_18"/></defs><title>AutorregulaIcono Autorregulacion @1x</title><g id="Capa_2" data-name="Capa 2"><g id="Contenidos"><path class="cls-1" d="M139.28,65.82a4.38,4.38,0,0,0,4.39,4.39h2a80.2,80.2,0,0,1,1.93-8.78h-3.9A4.39,4.39,0,0,0,139.28,65.82Z"/><path class="cls-1" d="M265.3,179H251a20.16,20.16,0,0,0,4.17-12.21,8.15,8.15,0,0,0-8.14-8.14h-6.1V148.51a69.2,69.2,0,1,0-32.57,0v10.16H204a20.55,20.55,0,0,0-9.1,2.14l-11.3,5.66-102,.28V114.09a4.4,4.4,0,0,0-4.39-4.39H42.13a4.39,4.39,0,0,0-4.39,4.39v52.66H29V100.09a24.64,24.64,0,0,0,15.8-10.18,24.54,24.54,0,0,0,40.37,0,24.54,24.54,0,0,0,40.37,0,24.55,24.55,0,0,0,20.19,10.58c.29,0,.57,0,.86,0a79.18,79.18,0,0,1-1.45-8.78,15.8,15.8,0,0,1-15.21-15.76V65.82c0-.13,0-.27,0-.4l-3.6-39.09h24.15l4.68,17a80.7,80.7,0,0,1,6.44-9.66l-2-7.3h8.41a80.59,80.59,0,0,1,10.29-8.78H29V8.78H181.67v6.43a79.11,79.11,0,0,1,8.77-4.92V4.39A4.39,4.39,0,0,0,186.06,0H24.57a4.39,4.39,0,0,0-4.38,4.39V21L.4,64s0,0,0,0l-.12.31,0,.12c0,.11-.07.23-.1.34a.3.3,0,0,1,0,.1,2.32,2.32,0,0,0-.06.38s0,0,0,.08,0,.31,0,.46v10.1a24.61,24.61,0,0,0,20.19,24.17v66.66H4.39a4.39,4.39,0,1,0,0,8.78H118.76v27.91h8.14V175.53H135v64.55H126.9v-28.5h-8.14v28.5H90.27v8.14h52.92v-8.14h20.58a12.33,12.33,0,0,1,5.46,1.28l17.55,8.78a20.46,20.46,0,0,0,9.09,2.15h12.44V264.5h32.57V252.29H265.3a12.16,12.16,0,0,0,9-20.35,12,12,0,0,0,0-16.29,12,12,0,0,0,0-16.28,12.16,12.16,0,0,0-9-20.35ZM89.52,70.21h16.39a4.39,4.39,0,0,0,0-8.78h-16l3.23-35.1h24.29L121.11,66v9.9a15.8,15.8,0,0,1-31.59,0ZM84.35,26.33l-3.22,35.1H78a4.39,4.39,0,1,0,0,8.78h2.76v5.71a15.8,15.8,0,0,1-31.59,0v-9.5L60.21,26.33ZM8.78,75.92V70.21H20.65a4.39,4.39,0,1,0,0-8.78H11.24l16.15-35.1H51.11L40.53,64.66a4.16,4.16,0,0,0-.16,1.16v10.1a15.8,15.8,0,0,1-31.59,0Zm64.06,62.31H68.46a4.39,4.39,0,1,0,0,8.77h4.38v19.75H46.51V118.48H72.84Zm90.7-56.9a61.06,61.06,0,1,1,61.05,61.06A61.13,61.13,0,0,1,163.54,81.33ZM232.73,150v8.66H216.45V150a64,64,0,0,0,16.28,0Zm-61.47,69.72a40.43,40.43,0,0,0,33.58-18l3.47-5.21v47.61H195.87a12.34,12.34,0,0,1-5.46-1.29l-17.55-8.77a20.39,20.39,0,0,0-9.09-2.15H143.19V183.09h20.58a20.59,20.59,0,0,0,9.1-2.14l25.68-12.85a12.21,12.21,0,0,1,5.46-1.29h43A12.23,12.23,0,0,1,234.77,179H210.2l-12.14,18.22a32.23,32.23,0,0,1-26.8,14.34h-7.72v8.15Zm61.47,36.63H216.45v-69.2h8.89a11.82,11.82,0,0,0,2.43,12.21,12,12,0,0,0,0,16.28,12,12,0,0,0,0,16.29,12.07,12.07,0,0,0-3.18,8.14,12.2,12.2,0,0,0,8.14,11.46Zm32.57-12.21H236.81a4.07,4.07,0,1,1,0-8.14H265.3a4.07,4.07,0,0,1,0,8.14Zm0-16.28H236.81a4.07,4.07,0,1,1,0-8.14H265.3a4.07,4.07,0,0,1,0,8.14Zm0-16.29H236.81a4.07,4.07,0,1,1,0-8.14H265.3a4.07,4.07,0,1,1,0,8.14Zm0-16.28H236.81a4.07,4.07,0,1,1,0-8.14H265.3a4.07,4.07,0,0,1,0,8.14Z"/><path class="cls-1" d="M241.37,45.12l-4,7.11a28.54,28.54,0,0,1,14.7,24.94h8.14A36.66,36.66,0,0,0,241.37,45.12Z"/><path class="cls-1" d="M219.37,48a29,29,0,0,1,7.12.9l2-7.88a36.61,36.61,0,0,0-9.15-1.16Z"/><path class="cls-2" d="M223.62,34.61a44.75,44.75,0,0,1,34.18,73.67l6.21,5.26A52.88,52.88,0,0,0,189.47,39l5.26,6.2A44.78,44.78,0,0,1,223.62,34.61Z"/><path class="cls-3" d="M252.52,116.48a44.75,44.75,0,0,1-63.07-63.07l-6.21-5.26a52.88,52.88,0,0,0,74.54,74.53Z"/><path class="cls-1" d="M93.18,116v34.68a3.72,3.72,0,0,0,3.58,3.85h60.08a3.72,3.72,0,0,0,3.57-3.85V116a2.48,2.48,0,0,0,0-.38,1,1,0,0,0,0-.16,1.52,1.52,0,0,0,0-.21,1.16,1.16,0,0,0,0-.18c0-.06,0-.13,0-.19l-.06-.17-.06-.18c0-.06,0-.11-.07-.16s0-.12-.08-.19l-.08-.14-.1-.18-.1-.15-.11-.15a2.31,2.31,0,0,0-.2-.24l0,0,0,0-.23-.22-.13-.11-.15-.11-.16-.11-.14-.08a.91.91,0,0,0-.17-.09l-.15-.08-.16-.06a1.15,1.15,0,0,0-.17-.06l-.16,0-.18,0-.19,0-.15,0-.35,0H96.76A3.72,3.72,0,0,0,93.18,116Zm60.08,30.83h-20l20-21.53Zm-52.93-27H128l-1.53,1.66a4.06,4.06,0,0,0,0,5.45,3.39,3.39,0,0,0,5.05,0l6.6-7.11H148.2l-25,27H100.33Z"/></g></g></svg>