<svg xmlns="http://www.w3.org/2000/svg" viewBox="0 0 55.52 91.02"><defs><style>.cls-1{fill:#fff;}</style></defs><title>AutorregulaPaso 3 Blanco@1x</title><g id="Capa_2" data-name="Capa 2"><g id="Contenidos"><path class="cls-1" d="M49.06,5.1A8.41,8.41,0,0,0,39,11.43l-.62,2.71-.05-5.79a8.42,8.42,0,1,0-16.84.15l0,3A8.43,8.43,0,0,0,6.83,18.33L10.22,39.7a8.54,8.54,0,0,0-1.71-.17C4.45,39.53,0,42.76,0,47.07V59.35a21.14,21.14,0,0,0,7,15.1V91H40.62V74.85A18.44,18.44,0,0,0,49.2,60.49l.58-.75-.54-.43L48.8,42.78l6.49-27.56A8.39,8.39,0,0,0,49.06,5.1ZM4.4,46.93a4.13,4.13,0,0,1,4.11-4.11,4.11,4.11,0,0,1,4.1,4.11V54.7a4.11,4.11,0,0,1-8.21,0ZM37.9,73.3v15H9.75V73.21c-3.52-2.86-7-8-7-13.86v-2.3a6,6,0,0,0,1.37,2.07A6.25,6.25,0,0,0,14.76,54.7V47.38c.52,2.92,3.13,5.13,3.55,5.46l6.15,5.9c-1.6,2.32-5.47,9.34-.16,16.88l1.76-1.23c-5.54-7.86.63-15.06.65-15.08l.63-.77C25.08,56.37,22,53,19.68,51.2c0,0-4.63-3.57-2-7.06s6.39-1.67,7-1.4L46.5,59.89A15.81,15.81,0,0,1,37.9,73.3ZM52.65,14.59,46.07,42.5l.39,14.64L25.76,40.91l-.09,0s-6-3.08-9.75,2a5.87,5.87,0,0,0-1.23,3.33,6.18,6.18,0,0,0-1.16-2.95l-4-25.34a5.7,5.7,0,1,1,11.27-1.78L24.5,39.54,24.2,8.48a5.71,5.71,0,0,1,11.41-.11l.27,28.92L41.65,12a5.65,5.65,0,1,1,11,2.55Z"/></g></g></svg>