<svg xmlns="http://www.w3.org/2000/svg" viewBox="0 0 50.31 91.02"><defs><style>.cls-1{fill:#fff;}</style></defs><title>AutorregulaPaso 1 Blanco@1x</title><g id="Capa_2" data-name="Capa 2"><g id="Contenidos"><path class="cls-1" d="M41.1,0c-4.78,0-9.21,3.86-9.21,8.76V25a9.36,9.36,0,0,0-2.08-.24,8.39,8.39,0,0,0-7.3,4.15,9.57,9.57,0,0,0-3.34-.62,8.44,8.44,0,0,0-7.73,5,7.37,7.37,0,0,0-2.89-.57C4.29,32.72,0,36.15,0,40.6V58.29A18.87,18.87,0,0,0,8.86,74V91h32.6V74a18.88,18.88,0,0,0,8.85-15.75V8.76C50.31,3.86,45.88,0,41.1,0Zm0,3c3.18,0,6.2,2.58,6.2,5.75V58.29c0,.09,0,.17,0,.26l-11.11-8.7a.44.44,0,0,0,0-.1,7,7,0,0,0,0-.79V33A6.5,6.5,0,0,0,34.9,29V8.76C34.9,5.59,37.92,3,41.1,3ZM4.16,40.77a4.13,4.13,0,0,1,4.11-4.11,4.14,4.14,0,0,1,2.9,1.21,4.1,4.1,0,0,1,1.2,2.9v7.77a4.11,4.11,0,0,1-8.21,0ZM15,42.63V36.15A4.13,4.13,0,0,1,19.12,32,4.14,4.14,0,0,1,22,33.25a4.08,4.08,0,0,1,1.15,2.42V40.3A9.65,9.65,0,0,0,21,40,6.85,6.85,0,0,0,15,42.63Zm10.36-1.25V36.15c0-.17,0-.32,0-.48V33a4.38,4.38,0,0,1,7.48-3.11h0A4.34,4.34,0,0,1,34.1,33V48.21L33.86,48ZM38.44,72.33V88H11.87V72.33A16.1,16.1,0,0,1,3,58.29V51.91A7.1,7.1,0,0,0,3.84,53a6.24,6.24,0,0,0,8.85,0,6.18,6.18,0,0,0,1-1.37,6.16,6.16,0,0,0,1,1.36h0a6.25,6.25,0,0,0,4.42,1.84h.24l4.12,4c-1.6,2.32-5.47,9.34-.16,16.88l1.76-1.24c-5.54-7.86.63-15,.64-15.07l.64-.77C24.1,56.36,21,53,18.7,51.2c0,0-4.63-3.57-2-7.06a4.81,4.81,0,0,1,4.11-2,7.12,7.12,0,0,1,2.75.65l9.21,7.13L47,61.07A16.44,16.44,0,0,1,38.44,72.33Z"/></g></g></svg>