<svg xmlns="http://www.w3.org/2000/svg" viewBox="0 0 73.56 120"><defs><style>.cls-1,.cls-3{fill:#135aa2;}.cls-1{fill-rule:evenodd;}.cls-2{fill:#fff;}</style></defs><title>AutorregulaPaso 2 Azul @1x</title><g id="Capa_2" data-name="Capa 2"><g id="Contenidos"><path class="cls-1" d="M11.61,98.78A24.52,24.52,0,0,1,0,78.19V62c0-5.63,5.45-10,10.84-10a9.54,9.54,0,0,1,3.54.67c1.48-4.62,6.41-7.22,11.34-7.22a8.9,8.9,0,0,1,3.71.89L25.57,13.43c-.7-6,3.5-12.6,9.72-13.35A11.12,11.12,0,0,1,47.65,9.8l1.73,14.43,2.33-12a11,11,0,1,1,21.63,4.27L65,58l.44,20.23c0,8.56-4.74,16.11-11.8,20.62V120h-42Z"/><path class="cls-2" d="M15.2,96.73v19.69H50.05V96.76c7-3.71,11.79-10.63,11.79-18.57L61.4,57.64l8.43-41.88a7.44,7.44,0,1,0-14.6-2.88L48.54,47.43l-4.45-37.2a7.52,7.52,0,0,0-8.37-6.59c-4.13.5-7.08,5.23-6.59,9.37l5.05,43h-.41c-.71-2.33-4.41-7-8.05-7-4.16,0-8.2,2.39-8.2,6.56v3.73c-2.32-2.2-4.1-3.73-6.68-3.73-3.52,0-7.26,2.85-7.26,6.37V78.19C3.58,86.1,8.23,93,15.2,96.73"/><path class="cls-3" d="M10.53,56.46a5.45,5.45,0,0,0-5.42,5.42V72.12a5.41,5.41,0,0,0,9.24,3.82A5.36,5.36,0,0,0,16,72.12V61.88a5.45,5.45,0,0,0-5.42-5.42m0-2.83a8.26,8.26,0,0,1,8.25,8.25V72.12a8.25,8.25,0,0,1-16.5,0V61.88a8.26,8.26,0,0,1,8.25-8.25Z"/><path class="cls-3" d="M23.5,69.67a14.79,14.79,0,0,1-4.24-5.62v7.5a5.41,5.41,0,0,0,1.59,3.83h0a5.4,5.4,0,0,0,6.64.8,5.58,5.58,0,0,0,1.45-1.29ZM24.68,49.8a5.43,5.43,0,0,0-5.42,5.42v3.19A9.6,9.6,0,0,1,25.42,53a10.29,10.29,0,0,1,4.09-.21,5.58,5.58,0,0,0-1.16-1.52A5.35,5.35,0,0,0,24.68,49.8Zm0-2.83a8.27,8.27,0,0,1,8.22,7.62l.17,2.15L31,56a8.65,8.65,0,0,0-4.89-.33,6.32,6.32,0,0,0-3.52,2.48c-3.42,4.61,2.67,9.3,2.69,9.31,2.18,1.69,5,4.83,7.19,6.88l-.49.94a8.35,8.35,0,0,1-3,3.27,8.21,8.21,0,0,1-10.11-1.21h0a8.22,8.22,0,0,1-2.42-5.83V55.22A8.26,8.26,0,0,1,24.68,47Z"/><path class="cls-3" d="M63.26,81,31.82,56.35c-.77-.36-5.93-2.56-9.2,1.84-3.42,4.61,2.67,9.3,2.69,9.31,3,2.36,7.12,6.82,10.1,9.68l-.84,1s-8.16,9.52-.85,19.88L31.41,99.7c-7-9.94-1.91-19.2.2-22.25L23.5,69.67C22.69,69,15.55,63,20.35,56.51c5-6.69,12.84-2.64,12.86-2.63l.11.06L65,78.76Z"/></g></g></svg>