<svg xmlns="http://www.w3.org/2000/svg" xmlns:xlink="http://www.w3.org/1999/xlink" viewBox="0 0 228.75 228.75"><defs><style>.cls-1{fill:#3d5da6;}.cls-2{fill:url(#Degradado_sin_nombre_18);}</style><linearGradient id="Degradado_sin_nombre_18" x1="111.31" y1="29.49" x2="155.65" y2="29.49" gradientUnits="userSpaceOnUse"><stop offset="0.03" stop-color="#e67d23"/><stop offset="1" stop-color="#fbb03b"/></linearGradient></defs><title>Autorregulaicono a quien vigila SS @1x</title><g id="Capa_2" data-name="Capa 2"><g id="Contenidos"><path class="cls-1" d="M210.3,136.51H147.58v7.38H131.75a59,59,0,1,0,0,22.14h15.83v7.38H155v48H7.38V7.38H155V95.93h59V88.55H162.34V0H0V228.75H162.34V173.41h48a18.45,18.45,0,0,0,0-36.9ZM155,143.89h7.38V166H155ZM73.79,206.61A51.65,51.65,0,1,1,125.44,155,51.71,51.71,0,0,1,73.79,206.61Zm58.85-48c.07-1.23.18-2.44.18-3.69s-.11-2.46-.18-3.69h14.94v7.38ZM210.3,166H169.72V143.89H210.3a11.07,11.07,0,0,1,0,22.14Z"/><path class="cls-1" d="M155,103.31h73.79v7.38H155Z"/><path class="cls-1" d="M155,118.06h59v7.38H155Z"/><path class="cls-1" d="M14.76,14.76H88.55v7.38H14.76Z"/><path class="cls-1" d="M95.93,14.76h7.38v7.38H95.93Z"/><path class="cls-1" d="M14.76,29.52H88.55V36.9H14.76Z"/><path class="cls-1" d="M95.93,29.52h7.38V36.9H95.93Z"/><path class="cls-1" d="M14.76,44.27h88.55v7.38H14.76Z"/><path class="cls-1" d="M14.76,59H147.58v7.38H14.76Z"/><path class="cls-1" d="M110.69,73.79h7.37v7.38h-7.37Z"/><path class="cls-1" d="M125.44,73.79h7.38v7.38h-7.38Z"/><path class="cls-1" d="M140.2,73.79h7.38v7.38H140.2Z"/><path class="cls-1" d="M14.76,73.79h88.55v7.38H14.76Z"/><path class="cls-1" d="M114.38,206.61h33.2V214h-33.2Z"/><path class="cls-1" d="M129.13,191.85h18.45v7.38H129.13Z"/><path class="cls-2" d="M145.19,24.66l10.46-10.32-4-3.94-6.47,6.39V15.16H111.31V48.57h33.88ZM117,43V20.73h22.59v1.63l-10.86,10.7L125,27.54l-4.7,3.09,7.56,11.17,11.73-11.57V43Z"/><path class="cls-1" d="M52.7,155.25v-5l44.61,0v5h2.79v-7.61H94.52v-9.08a6.52,6.52,0,0,0-5-6.2l-9-2.51v-2a8.87,8.87,0,0,0,4.18-7.41V116.6c0-5-4.37-9.06-9.75-9.06s-9.76,4.06-9.76,9v3.88a8.89,8.89,0,0,0,4.17,7.43v2l-9,2.5a6.5,6.5,0,0,0-5,6.19v9.09H49.92v7.61Zm15.36-34.78v-3.88a7,7,0,0,1,13.94,0v3.88a7,7,0,0,1-13.93,0Zm9.75,8.69v1.32a3.19,3.19,0,0,1-5.58,0v-1.32a10.27,10.27,0,0,0,2.79.39A10.68,10.68,0,0,0,77.81,129.16Zm-19.52,9.39a3.89,3.89,0,0,1,3-3.71l9-2.5a6,6,0,0,0,9.54,0l9,2.5a3.92,3.92,0,0,1,3,3.72v9.09H86.16V138.6H83.38v9.06l-16.73,0v-9H63.86v9H58.28Z"/><path class="cls-1" d="M105.36,166.68V164s0-.06,0-.09v0l0-.09v0l0-.08h0L99.5,152.79V148.6a1.2,1.2,0,0,0-1.27-1.11l-47,0A1.2,1.2,0,0,0,50,148.57v4.19l-5.76,10.87h0l0,.08,0,0a.19.19,0,0,0,0,.08v0s0,.06,0,.09v0a.49.49,0,0,0,0,.12v2.55c0,3.05,2.53,5.59,5.87,6.12l0,16.85H45.35a1.12,1.12,0,1,0,0,2.22H66.54l31.66,0h5.87a1.12,1.12,0,1,0,0-2.22h-4.6l0-16.85C102.82,172.27,105.36,169.73,105.36,166.68ZM102.1,163H93.32l-2.82-8.88h6.9Zm-20.23,1-1-9.89h7L90.67,163H85.88a1.12,1.12,0,1,0,0,2.22h5.19v1.44a4.31,4.31,0,0,1-4.59,4c-2.54,0-4.6-1.79-4.6-4v-2.55S81.87,164.05,81.87,164ZM52.52,149.68l44.43,0v2.22l-44.43,0ZM74.9,163H70.25l1-8.87h7.07l1,10v2.5c0,2.2-2.06,4-4.6,4s-4.59-1.8-4.59-4v-1.44H74.9a1.12,1.12,0,1,0,0-2.22Zm-8.13,2.22h.81v1.44c0,2.2-2.07,4-4.6,4s-4.6-1.8-4.6-4v-2.4l3.22-10.13h7l-1,8.87h-.91a1.12,1.12,0,1,0,0,2.22Zm-20.13,1.42V165.2H50.1a1.12,1.12,0,1,0,0-2.21H47.36l4.7-8.87H59l-3.08,9.68a1,1,0,0,0-.05.3v2.55c0,2.2-2.06,4-4.6,4S46.64,168.85,46.64,166.64Zm18.63,15.77H64a1.2,1.2,0,0,0-1.28,1.11A1.22,1.22,0,0,0,64,184.63h1.28v5H57.6v-12.2h7.66Zm31.65,7.23-29.1,0V176.31a1.21,1.21,0,0,0-1.28-1.11H56.34a1.2,1.2,0,0,0-1.28,1.11v13.31H52.5V172.76a7.38,7.38,0,0,0,4.6-2.57,7.78,7.78,0,0,0,11.74,0,7.79,7.79,0,0,0,11.74,0,7.79,7.79,0,0,0,11.75,0,7.32,7.32,0,0,0,4.59,2.58Zm1.29-19c-2.53,0-4.59-1.79-4.59-4v-1.45h9.19v1.44C102.81,168.88,100.75,170.67,98.21,170.67Z"/><path class="cls-1" d="M93.1,175.22l-21.44,0a1.2,1.2,0,0,0-1.28,1.11v10a1.2,1.2,0,0,0,1.28,1.11l21.44,0a1.2,1.2,0,0,0,1.28-1.11v-10s0-.08,0-.11a.09.09,0,0,0,0-.05.13.13,0,0,0,0-.06.43.43,0,0,0,0-.05l0-.06,0-.05s0,0,0,0l0,0,0-.06,0,0,0,0,0,0,0,0-.07-.07h0l-.08-.06,0,0,0,0-.06,0,0,0-.06,0,0,0-.06,0-.06,0H93.1Zm-20.17,10v-7.77H82.8l-.55.47a1,1,0,0,0,0,1.57,1.39,1.39,0,0,0,1.8,0l2.36-2H90l-8.94,7.76Zm18.89,0H84.69L91.82,179Z"/><path class="cls-1" d="M79.28,180.48l-.55.48a1,1,0,0,0,0,1.57,1.38,1.38,0,0,0,.9.32,1.36,1.36,0,0,0,.9-.32l.56-.48a1,1,0,0,0,0-1.57A1.41,1.41,0,0,0,79.28,180.48Z"/></g></g></svg>