<svg xmlns="http://www.w3.org/2000/svg" viewBox="0 0 69.29 91.02"><defs><style>.cls-1{fill:#fff;}</style></defs><title>AutorregulaPao 5 Blanco@1x</title><g id="Capa_2" data-name="Capa 2"><g id="Contenidos"><path class="cls-1" d="M67,51c3-3.41,3.18-8.69-.31-11.8a8.34,8.34,0,0,0-11.77.66l-1.39,1.56L57.61,13A8.34,8.34,0,0,0,41.46,9.17l0-1.07a8.34,8.34,0,1,0-16.67.47l0,.6a8.34,8.34,0,0,0-14,7.22l.93,6.74A8.32,8.32,0,0,0,.23,32.67l8.22,33c.4,3.9,2.33,8.16,5.88,10V91H46V74.48c2.52-2.56,5.26-4.36,6.89-7.75l3-3.6ZM43.33,73.42v15H17V73.83c-5.27-1.18-5.91-8.66-5.91-8.66L2.79,32.06a5.71,5.71,0,0,1,11.1-2.66L17.15,43,13.42,16a5.7,5.7,0,1,1,11.3-1.57l3.56,25.69L27.39,8.5A5.71,5.71,0,0,1,38.8,8.18l.86,31L43.71,11A5.71,5.71,0,0,1,55,12.65l-5,34.46-.36.35c-2.27-1.68-9.14-5.8-16.87-.75L34,48.51c8-5.26,15,1.15,15,1.17l.75.67C52,48.17,55.54,45.18,57.4,43c0,0,3.72-4.5,7.13-1.79,3.22,2.58,1.46,6.41,1.15,7L62,52.5,50.88,64.7C49.52,68.43,45.09,71.49,43.33,73.42Z"/></g></g></svg>