<svg xmlns="http://www.w3.org/2000/svg" viewBox="0 0 65.38 119.15"><defs><style>.cls-1,.cls-3{fill:#135aa2;}.cls-1{fill-rule:evenodd;}.cls-2{fill:#fff;}</style></defs><title>AutorregulaPaso 1 azul@1x</title><g id="Capa_2" data-name="Capa 2"><g id="Contenidos"><path class="cls-1" d="M11.51,96.92A24.74,24.74,0,0,1,0,76.3V53.15c0-5.83,5.57-10.31,11.11-10.31a9.62,9.62,0,0,1,3.76.74,10.94,10.94,0,0,1,10.05-6.53,12.5,12.5,0,0,1,4.33.8,10.91,10.91,0,0,1,9.48-5.43,12,12,0,0,1,2.7.31V11.47C41.43,5.05,47.19,0,53.4,0s12,5.05,12,11.47V76.3A24.76,24.76,0,0,1,53.87,96.92v22.23H11.51Z"/><path class="cls-2" d="M15.42,94.68V115.2H50V94.68c6.91-3.74,11.51-10.57,11.51-18.38V11.47c0-4.16-3.93-7.53-8.05-7.53s-8.06,3.37-8.06,7.53V41c0-2.72-3.51-4.63-6.62-4.63a7.26,7.26,0,0,0-7.19,7.53v1.73C31.54,42.91,28,41,24.91,41a7.26,7.26,0,0,0-7.18,7.53v2c-2.31-2.2-4.06-3.73-6.62-3.73-3.49,0-7.19,2.85-7.19,6.37V76.3c0,7.81,4.6,14.64,11.5,18.38"/><path class="cls-3" d="M24.84,41.94a5.3,5.3,0,0,0-3.77,1.58,5.38,5.38,0,0,0-1.57,3.8V55.8c3.43-4.35,8.15-3.74,10.68-3v-5.5a5.38,5.38,0,0,0-1.57-3.8,5.32,5.32,0,0,0-3.77-1.58m0-2.81a8.07,8.07,0,0,1,5.74,2.4A8.2,8.2,0,0,1,33,47.32V57.81l-2.4-1.87c-.76-.36-5.84-2.53-9.06,1.84C18.14,62.35,24.14,67,24.16,67c1.36,1.06,3.19,3.07,4.51,4.34l-3,.32-.42,0-.42,0a8.07,8.07,0,0,1-5.74-2.41h0a8.22,8.22,0,0,1-2.38-5.78V47.32a8.23,8.23,0,0,1,2.38-5.79A8.13,8.13,0,0,1,24.84,39.13Z"/><path class="cls-3" d="M38.61,37.41a5.74,5.74,0,0,0-5.7,5.74V54.22l11.4,8.89v-20a5.74,5.74,0,0,0-1.67-4h0a5.64,5.64,0,0,0-4-1.68m0-2.82a8.44,8.44,0,0,1,6,2.52h0a8.57,8.57,0,0,1,2.49,6V64.09a8.89,8.89,0,0,1-.06,1,9.75,9.75,0,0,1-.19,1l-.52,2.09L30.11,55.59V43.15a8.56,8.56,0,0,1,2.5-6A8.44,8.44,0,0,1,38.61,34.59Z"/><path class="cls-3" d="M10.74,48A5.28,5.28,0,0,0,7,49.57a5.38,5.38,0,0,0-1.57,3.8V63.54A5.36,5.36,0,0,0,7,67.33a5.29,5.29,0,0,0,7.54,0,5.36,5.36,0,0,0,1.57-3.79V53.37a5.38,5.38,0,0,0-1.57-3.8A5.32,5.32,0,0,0,10.74,48m0-2.81a8.07,8.07,0,0,1,5.74,2.4,8.16,8.16,0,0,1,2.39,5.79V63.54a8.16,8.16,0,0,1-2.39,5.78A8,8,0,0,1,5,69.32a8.16,8.16,0,0,1-2.39-5.78V53.37a8.18,8.18,0,0,1,8.13-8.19Z"/><path class="cls-3" d="M61.7,80.41l-31-24.47c-.75-.35-5.84-2.53-9.06,1.84C18.28,62.35,24.28,67,24.3,67c3,2.34,7,6.76,10,9.61l-.83,1s-8,9.45-.84,19.74L30.31,99c-6.91-9.88-1.88-19.07.2-22.1l-8-7.72c-.79-.65-7.83-6.64-3.1-13.06,4.89-6.64,12.65-2.63,12.68-2.62l.1.06L63.41,78.2Z"/></g></g></svg>