<svg xmlns="http://www.w3.org/2000/svg" viewBox="0 0 81.87 85"><defs><style>.cls-1{fill:#fff;}</style></defs><title>HomeSalones de Belleza@1x</title><g id="Capa_2" data-name="Capa 2"><g id="Capa_1-2" data-name="Capa 1"><path class="cls-1" d="M22,63.1a9.47,9.47,0,1,0-6.75,16.1A9.48,9.48,0,0,0,22,63.1ZM20.14,74.71a7,7,0,1,1,.08-9.87A7,7,0,0,1,20.14,74.71Z"/><path class="cls-1" d="M38.21,37a3.64,3.64,0,0,0-2.33-1.62A3.72,3.72,0,1,0,38.21,37Zm-1.92,2.27a1.22,1.22,0,0,1-.53.76,1.2,1.2,0,0,1-.92.17,1.24,1.24,0,0,1-.77-.53,1.19,1.19,0,0,1-.17-.92,1.24,1.24,0,0,1,.53-.77,1.21,1.21,0,0,1,.66-.19l.26,0a1.24,1.24,0,0,1,.94,1.46Z"/><path class="cls-1" d="M80.63,79.78h0l-11.22,0v-3l11.21,0a1.25,1.25,0,1,0,0-2.49h0l-11.21,0v-3H80.62a1.25,1.25,0,1,0,0-2.49H69.4v-3H80.61a1.25,1.25,0,0,0,0-2.49H69.39v-3l11.22,0a1.23,1.23,0,0,0,1.24-1.24,1.25,1.25,0,0,0-1.24-1.25l-11.22,0v-3l11.21,0a1.25,1.25,0,0,0,0-2.49h0l-11.22,0v-3l11.21,0a1.25,1.25,0,1,0,0-2.49h0l-11.22,0v-3l11.21,0a1.25,1.25,0,1,0,0-2.49h0l-11.21,0v-3H80.57a1.25,1.25,0,1,0,0-2.49h0l-11.21,0v-3H80.56a1.25,1.25,0,0,0,0-2.49H69.34v-3H80.55a1.25,1.25,0,0,0,0-2.49H69.33v-3l11.21,0a1.25,1.25,0,0,0,0-2.49h0l-11.22,0V16l11.21,0a1.25,1.25,0,1,0,0-2.49h0l-11.22,0v-3l11.21,0a1.25,1.25,0,1,0,0-2.49L69.31,8V5L80.52,5a1.25,1.25,0,1,0,0-2.49h0l-11.33,0A3.38,3.38,0,0,0,65.93,0h0a3.37,3.37,0,0,0-3.1,2.06h-.24a9.21,9.21,0,0,0-9.17,9.2v4.67a1.24,1.24,0,0,0,1.24,1.24h0a1.25,1.25,0,0,0,1.24-1.24V11.26a6.72,6.72,0,0,1,6.65-6.71l.1,62.55a1.24,1.24,0,0,0,1.24,1.24h0a1.25,1.25,0,0,0,1.25-1.24c0-4.48-.09-60.86-.1-63.72a.93.93,0,0,1,.89-.89.89.89,0,0,1,.88.88c0,24.37.08,53.78.12,78.23a.93.93,0,0,1-.89.89.89.89,0,0,1-.88-.88s0-8.68,0-8.71a1.25,1.25,0,0,0-1.25-1.24h0a1.24,1.24,0,0,0-1.24,1.25c0,1.41,0,5.33,0,7.53A6.72,6.72,0,0,1,56,73.75c0-3.11-.08-49-.08-52a1.25,1.25,0,0,0-1.25-1.24h0a1.24,1.24,0,0,0-1.24,1.25l0,33c-2.31-.4-3.31-.16-11.2-.16L42.23,49c.24-1.82,1.8-6.52.75-13.39,0-.13.12.43-2.33-8.87C39.23,4.12,39.3,5.05,39.28,5c-.39-2.6-3.14-4.26-4-4.7a2.16,2.16,0,0,0-2.18.08A2.14,2.14,0,0,0,31,.26a6.4,6.4,0,0,0-3.33,4.83L27,21.55c-3.9,14.83-3.68,13.92-3.69,14.05-1.06,6.88.52,11.63.75,13.39L24,54.57l-2.92,0A1.25,1.25,0,0,0,21,57c5.76,0,5.17,0,5.34.06A2,2,0,0,1,28.09,59L28,69.68a12.88,12.88,0,0,1-3.92,9.19,12.67,12.67,0,0,1-17.93-.19c-7.87-8-2.23-21.57,9.11-21.7a1.24,1.24,0,0,0,1.23-1.26,1.26,1.26,0,0,0-1.26-1.23,15.25,15.25,0,0,0,0,30.49A15.33,15.33,0,0,0,30.44,70.84a4.77,4.77,0,0,0,2.68-1.59,4.8,4.8,0,0,0,2.69,1.59A15.26,15.26,0,0,0,59.53,82.37a9.21,9.21,0,0,0,3.41.56,3.38,3.38,0,0,0,6.41-.64l11.28,0a1.25,1.25,0,0,0,0-2.49Zm-27.12-6c0,.13,0,.27,0,.4v.14l0,.33s0,.07,0,.11v.06a8.82,8.82,0,0,0,.25,1.32,7,7,0,1,1-.33-12.91ZM34.5,2.67a4.73,4.73,0,0,1,2.31,2.61l.57,9C36.14,9.59,34.68,4,34.41,3ZM31.77,66.18a2.31,2.31,0,0,1-1.26,2l.08-9.14a4.45,4.45,0,0,0-4.13-4.47c0-6,.07-5.74,0-6-.26-1.91-1.73-6.24-.77-12.6l.77-2.95c-.33,8.43-.29,6-.3,6.73a7.5,7.5,0,0,0,1.21,4.12l4.46,6.86,0,2.45Zm3.89-7.11.08,9.14a2.31,2.31,0,0,1-1.26-2c-.15-17.23,0-16-.34-16.43-4.75-7.39-4.82-7.24-5.16-8.18-.45-1.23-.4,1.63,1.12-36.31a4,4,0,0,1,1.65-2.58L40.53,36c1,7-.8,11.44-.79,12.85l0,5.71A4.44,4.44,0,0,0,35.66,59.07Zm2.59,10.61c-.1-11.39-.12-10.73-.06-11h0a2,2,0,0,1,1.51-1.53,6.9,6.9,0,0,1,1.36,0c8.83,0,10.1-.3,12.42.18V60.6a9.47,9.47,0,1,0,1.3,17.81A9.11,9.11,0,0,0,57,81,12.78,12.78,0,0,1,38.25,69.68Z"/></g></g></svg>