<svg xmlns="http://www.w3.org/2000/svg" viewBox="0 0 85 85"><defs><style>.cls-1{fill:#fff;}</style></defs><title>HomeDroguerias@1x</title><g id="Capa_2" data-name="Capa 2"><g id="Capa_1-2" data-name="Capa 1"><path class="cls-1" d="M49.21,26.49a1.36,1.36,0,0,0,0-2.71h-.12V18a3.59,3.59,0,0,0-3.59-3.59H5.07A3.6,3.6,0,0,0,1.47,18v5.83H1.36a1.36,1.36,0,1,0,0,2.71H4.69v3.24L3,30.68a6.83,6.83,0,0,0-3,5.51v43A5.85,5.85,0,0,0,5.84,85H44.73a5.84,5.84,0,0,0,5.83-5.84v-43a6.85,6.85,0,0,0-3-5.51l-1.67-.95V26.49ZM47.85,79.16a3.13,3.13,0,0,1-3.12,3.13H5.84a3.13,3.13,0,0,1-3.13-3.13V76H47.85Zm0-5.83H2.71V47.07H47.85ZM46.19,33a4.12,4.12,0,0,1,1.66,3.15v8.17H2.71V36.19A4.13,4.13,0,0,1,4.38,33l2.34-1.35a1.34,1.34,0,0,0,.69-1.17v-4H43.16v4a1.35,1.35,0,0,0,.68,1.17Zm-42-9.26V18a.9.9,0,0,1,.89-.88h5.38v2.64a1.36,1.36,0,0,0,2.71,0V17.07h6.27v2.64a1.36,1.36,0,0,0,2.72,0V17.07h6.27v2.64a1.36,1.36,0,0,0,2.71,0V17.07H37.4v2.64a1.36,1.36,0,0,0,2.71,0V17.07H45.5a.89.89,0,0,1,.88.88v5.83Z"/><path class="cls-1" d="M17.17,68.43H33.4A8.23,8.23,0,0,0,33.4,52H17.17a8.23,8.23,0,1,0,0,16.45Zm9.47-13.74H33.4a5.51,5.51,0,1,1,0,11H26.64Zm-9.47,0h6.76v11H17.17a5.51,5.51,0,0,1,0-11Z"/><path class="cls-1" d="M39.09,29.16H22.33a1.36,1.36,0,1,0,0,2.71H39.09a1.36,1.36,0,1,0,0-2.71Z"/><path class="cls-1" d="M16.9,29.16H11.47a1.36,1.36,0,0,0,0,2.71H16.9a1.36,1.36,0,1,0,0-2.71Z"/><path class="cls-1" d="M55.35,78.22a1.36,1.36,0,0,0,2.71,0V67.37a1.36,1.36,0,1,0-2.71,0Z"/><path class="cls-1" d="M56.71,63.3a1.35,1.35,0,0,0,1.35-1.36V6.78a1.36,1.36,0,0,0-2.71,0V61.94A1.36,1.36,0,0,0,56.71,63.3Z"/><path class="cls-1" d="M74.78,0H38.63A10.22,10.22,0,0,0,28.42,10.22a1.36,1.36,0,0,0,2.71,0,7.52,7.52,0,0,1,7.5-7.51H74.78a7.52,7.52,0,0,1,7.51,7.51V74.78a7.52,7.52,0,0,1-7.51,7.51H53.58a1.36,1.36,0,1,0,0,2.71h21.2A10.23,10.23,0,0,0,85,74.78V10.22A10.23,10.23,0,0,0,74.78,0Z"/><path class="cls-1" d="M70.18,21.28a6.63,6.63,0,1,0-6.63-6.63A6.63,6.63,0,0,0,70.18,21.28Zm0-10.53a3.91,3.91,0,1,1-3.91,3.9A3.91,3.91,0,0,1,70.18,10.75Z"/><path class="cls-1" d="M70.18,39.84a6.62,6.62,0,1,0-6.63-6.62,6.63,6.63,0,0,0,6.63,6.62Zm0-10.53a3.91,3.91,0,1,1-3.91,3.91A3.91,3.91,0,0,1,70.18,29.31Z"/><path class="cls-1" d="M70.18,58.4a6.62,6.62,0,1,0-6.63-6.62A6.63,6.63,0,0,0,70.18,58.4Zm0-10.53a3.91,3.91,0,1,1-3.91,3.91A3.91,3.91,0,0,1,70.18,47.87Z"/><path class="cls-1" d="M70.18,77a6.63,6.63,0,1,0-6.63-6.62A6.63,6.63,0,0,0,70.18,77Zm0-10.53a3.91,3.91,0,1,1-3.91,3.91A3.91,3.91,0,0,1,70.18,66.44Z"/><path class="cls-1" d="M41.06,11.41a3.92,3.92,0,0,1,4.4,0,1.4,1.4,0,0,0,.77.24,1.36,1.36,0,0,0,1.12-.59A1.35,1.35,0,0,0,47,9.21a6.62,6.62,0,0,0-7.47-.05,1.36,1.36,0,1,0,1.52,2.25Z"/></g></g></svg>