<svg xmlns="http://www.w3.org/2000/svg" viewBox="0 0 112.15 79.22"><defs><style>.cls-1{fill:#ffffff;}</style></defs><title>HomeExpendios carne@1x</title><g id="Capa_2" data-name="Capa 2"><g id="Capa_1-2" data-name="Capa 1"><rect class="cls-1" x="57.78" y="10.06" width="2.35" height="2.35" transform="translate(43.23 69.16) rotate(-85.6)"/><rect class="cls-1" x="53.82" y="15.65" width="2.35" height="2.35" transform="translate(34 70.37) rotate(-85.6)"/><rect class="cls-1" x="53.28" y="22.68" width="2.35" height="2.35" transform="translate(26.49 76.32) rotate(-85.6)"/><rect class="cls-1" x="58.24" y="19.53" width="2.35" height="2.35" transform="translate(34.21 78.35) rotate(-85.6)"/><rect class="cls-1" x="60.94" y="15.02" width="2.35" height="2.35" transform="translate(41.2 76.88) rotate(-85.6)"/><rect class="cls-1" x="56.43" y="27.64" width="2.35" height="2.35" transform="translate(24.46 84.04) rotate(-85.6)"/><path class="cls-1" d="M82.34,28.85A21,21,0,0,0,84.06,22,17.07,17.07,0,0,0,68.38,3.71L67.2,3.62A17,17,0,0,0,49.41,24.88L56.87,53.7l-.65,8.51-2.88,1.44A6.42,6.42,0,0,0,55.73,75.8l.79.06a6.4,6.4,0,0,0,4.68-1.52l1.24-1.07,1.06,1.24a6.37,6.37,0,0,0,4.39,2.23l.79.06A6.43,6.43,0,0,0,72.9,65.15l-2.62-1.86.65-8.5ZM71.53,67.07a4.08,4.08,0,0,1-2.67,7.39l-.79-.06A4,4,0,0,1,65.29,73l-2.6-3-3,2.59a4.07,4.07,0,0,1-3,1l-.79-.06a4.07,4.07,0,0,1-1.51-7.71l4.06-2,.68-8.87,9.37.72-.68,8.87ZM69,53.26l-.34,0-9.37-.72-.33,0L51.68,24.3A14.68,14.68,0,0,1,67,6l1.18.09A14.7,14.7,0,0,1,81.71,21.83a18.5,18.5,0,0,1-1.52,6.07Z"/><path class="cls-1" d="M84.64,15.09l3,.53A10.1,10.1,0,0,0,87,17.83a10.31,10.31,0,0,0,0,3.59l2.09,11A21.92,21.92,0,0,1,86,48.5l-4.68,7.21a9.88,9.88,0,0,0-1.45,3.7,9.59,9.59,0,0,0-.12,2.13l-3-.52a3.89,3.89,0,0,0-3.83,6.07l7.36,10.42a4,4,0,0,0,7.28-1.65l.85-5,.08,0a9.91,9.91,0,0,0,7.76-2A41,41,0,0,0,111.5,43.53l0-.33a40.94,40.94,0,0,0-5.83-29,10.1,10.1,0,0,0-6.78-4.51h0l.86-4.95A4,4,0,0,0,96.49.06a4.09,4.09,0,0,0-3,.68L83.06,8.1a3.88,3.88,0,0,0-.93,5.41A3.8,3.8,0,0,0,84.64,15.09Zm-4.4,49.16a10,10,0,0,0,1.14,2.29L79.7,68.83l2.08,1.53,1.34-1.82a9.88,9.88,0,0,0,2.76,1.7L85,75.42a1.45,1.45,0,0,1-2.62.59L75,65.6a1.29,1.29,0,0,1,1.27-2h0Zm9.33-46a7.48,7.48,0,0,1,8.64-6.09l.29.05a7.44,7.44,0,0,1,5,3.35A38.3,38.3,0,0,1,109,42.76l-.06.33A38.35,38.35,0,0,1,94.7,66.89a7.34,7.34,0,0,1-5.79,1.48l-.54-.09a7.29,7.29,0,0,1-6-8.43,7.07,7.07,0,0,1,1.06-2.73l4-6.08.12,0A12,12,0,0,1,95.3,56l2.11-1.49a14.41,14.41,0,0,0-8.55-5.75,24.33,24.33,0,0,0,2.55-6.38,23.35,23.35,0,0,1,10.51-.62l.67.12.44-2.55-.67-.12a26,26,0,0,0-10.43.35,24.83,24.83,0,0,0-.24-7.59l-.89-4.67a18.31,18.31,0,0,1,10.6-1.39l.44-2.55A20.82,20.82,0,0,0,90.3,24.64l-.7-3.7A7.49,7.49,0,0,1,89.57,18.27Zm-4.49-5.73a1.27,1.27,0,0,1-.84-.53,1.3,1.3,0,0,1,.31-1.8L95,2.85a1.42,1.42,0,0,1,1.08-.24,1.45,1.45,0,0,1,1.18,1.68L96.34,9.5a10.27,10.27,0,0,0-3.45.83l-.33-2.17L90,8.55l.5,3.27a9.89,9.89,0,0,0-1.4,1.42Z"/><path class="cls-1" d="M14.88,35.41c-2.62,2.74-2.73,6.89-.25,9.26s6.63,2.08,9.24-.66,2.73-6.88.25-9.26S17.49,32.68,14.88,35.41Zm7,6.73c-1.59,1.66-4,1.91-5.42.57s-1.25-3.77.33-5.43,4-1.91,5.42-.57S23.5,40.49,21.92,42.14Z"/><path class="cls-1" d="M53.51,44.59a65.13,65.13,0,0,0-3.4,7.75c-1.66,4.3-3.23,8.37-6.78,12.08a19.65,19.65,0,0,1-26.8,1.46,22.35,22.35,0,0,0,21.92-6.13c3.93-4.1,5.59-8.41,7.35-13A46.22,46.22,0,0,1,51.11,36l-.92-3.28c-3.6,4.47-5.29,8.83-6.92,13.06s-3.22,8.37-6.77,12.08A19.62,19.62,0,0,1,8.14,30.76c3.21-3.36,11.68-11.76,21-17.37C37.84,8.2,44.66,7,49.51,9.63c.33-.89.68-1.73,1-2.52a15,15,0,0,0-9.17-1.39c-4,.55-8.58,2.34-13.59,5.35C18.15,16.84,9.47,25.45,6.18,28.89a22.36,22.36,0,0,0,.7,31.57L13.72,67a22.35,22.35,0,0,0,31.57-.7c3.92-4.1,5.59-8.41,7.34-13,.62-1.58,1.24-3.19,2-4.81Z"/><path class="cls-1" d="M23.82,23.73c1.35-1.06,2.7-2.07,4-3,7.74-5.46,14.34-7.94,18.09-6.8a5.28,5.28,0,0,1,2.14,1.28l.1.11,1.1-2.64a7.9,7.9,0,0,0-2.55-1.34c-2.84-.86-6.57-.29-11.06,1.71a57.44,57.44,0,0,0-9.38,5.46c-1.36,1-2.75,2-4.13,3.1a1.35,1.35,0,1,0,1.67,2.12Z"/><path class="cls-1" d="M48.48,26.47c0,.06-.1.13-.16.19a41.12,41.12,0,0,0-7.63,11.25c-.87,1.85-1.61,3.75-2.32,5.59-.47,1.22-1,2.48-1.48,3.69a21.84,21.84,0,0,1-4.3,7A14.21,14.21,0,0,1,12.05,34.5c1.06-1.11,2.15-2.21,3.25-3.27l.56-.55A1.35,1.35,0,0,0,14,28.73l-.58.55c-1.12,1.09-2.24,2.22-3.32,3.35A16.91,16.91,0,0,0,34.54,56a24.35,24.35,0,0,0,4.85-7.76c.53-1.26,1-2.53,1.5-3.77.7-1.8,1.42-3.66,2.25-5.43a38.85,38.85,0,0,1,6.15-9.4Z"/></g></g></svg>