<svg xmlns="http://www.w3.org/2000/svg" viewBox="0 0 86.58 85"><defs><style>.cls-1{fill:#3d5da6;}.cls-2{fill:#fff;}</style></defs><title>HomeRestaurantes@1x</title><g id="Capa_2" data-name="Capa 2"><g id="Capa_1-2" data-name="Capa 1"><path class="cls-1" d="M66.16,21.76a31.59,31.59,0,0,0-44.08,0,32.48,32.48,0,0,0-3.18,3.65l2.26,1.48A28.25,28.25,0,0,1,24,23.64a28.83,28.83,0,0,1,40.24,0,27.57,27.57,0,0,1,0,39.51,28.69,28.69,0,0,1-43.41-3.7l-2.5,1.13A30.68,30.68,0,0,0,22.08,65a31.59,31.59,0,0,0,44.08,0,30.2,30.2,0,0,0,0-43.27Z"/><path class="cls-1" d="M50,18.56a2.45,2.45,0,0,0-2.54,2.34V31a.85.85,0,0,1-1.69,0V20.9a2.55,2.55,0,0,0-5.08,0V31A.85.85,0,0,1,39,31V20.9a2.55,2.55,0,0,0-5.08,0V32.68A8.65,8.65,0,0,0,38.11,40V41.1a2.35,2.35,0,0,0,1.7,2.19V63.64a3.4,3.4,0,0,0,6.77,0V43.29a2.35,2.35,0,0,0,1.69-2.19V40a8.65,8.65,0,0,0,4.23-7.27V20.9A2.45,2.45,0,0,0,50,18.56ZM44.88,63.64a1.7,1.7,0,0,1-3.38,0V43.43h3.38Zm1.7-22.54a.82.82,0,0,1-.85.78H40.65a.81.81,0,0,1-.84-.78v-.78h6.77Zm4.23-8.42a7.15,7.15,0,0,1-3.65,6.09H39.22a7.15,7.15,0,0,1-3.65-6.09V20.9a.85.85,0,0,1,1.7,0V31a2.55,2.55,0,0,0,5.08,0V20.9a.81.81,0,0,1,.84-.78.82.82,0,0,1,.85.78V31a2.55,2.55,0,0,0,5.08,0V20.9a.85.85,0,0,1,1.69,0Z"/><path class="cls-1" d="M79.68,38.25a12.07,12.07,0,0,0,.59-3.14,10.24,10.24,0,0,0-.76-4.48,8.55,8.55,0,0,0-1.15-1.95,8.38,8.38,0,0,0-3.51-2.61,9.14,9.14,0,0,0-3.5-.62,11.3,11.3,0,0,0-5.26,1.44,13.92,13.92,0,0,0-4.47,3.89,14.06,14.06,0,0,0-2.1,4A12,12,0,0,0,58.94,38a10.11,10.11,0,0,0,.75,4.48c.1.22.21.45.32.66l-1.1-.79-1.4,1.88A2.34,2.34,0,0,0,57.66,47L49.85,57.44l1.46,1.06L59,48.18,62,50.29l-11.23,15a1.74,1.74,0,0,1-2.4.2,1.67,1.67,0,0,1-.53-2.31l1.46-1.95L47.8,60.18l-1.46,2a3.32,3.32,0,0,0,1,4.61,3.47,3.47,0,0,0,4.8-.39L63.51,51.23a2.46,2.46,0,0,0,2.78-.71l1.41-1.88-1.47-1-.14-.11a8.65,8.65,0,0,0,1.76.14,11.49,11.49,0,0,0,5.27-1.44,13.91,13.91,0,0,0,4.46-3.89A13.58,13.58,0,0,0,79.68,38.25ZM65.3,48.84l-.47.62a.86.86,0,0,1-1.2.1L59.24,46.4A.84.84,0,0,1,59,45.24l.47-.62ZM73,43.93a11.14,11.14,0,0,1-2.49,1.29,8.76,8.76,0,0,1-3.75.53,6.62,6.62,0,0,1-1.68-.37,5.67,5.67,0,0,1-1.5-.79,6,6,0,0,1-1.1-1,6.68,6.68,0,0,1-1.25-2.36,9.16,9.16,0,0,1-.14-4.5A12.22,12.22,0,0,1,63.27,32a12.83,12.83,0,0,1,2.93-2.83,10.81,10.81,0,0,1,2.5-1.29,8.71,8.71,0,0,1,3.74-.53,6.7,6.7,0,0,1,1.69.37,6,6,0,0,1,1.5.79,6.28,6.28,0,0,1,1.1,1A6.6,6.6,0,0,1,78,31.86a9.17,9.17,0,0,1,.13,4.5,11.94,11.94,0,0,1-2.18,4.74A12.44,12.44,0,0,1,73,43.93Z"/><path class="cls-1" d="M12.09,25.71c-.84-1.07-2.63-1.1-4-.07A3.31,3.31,0,0,0,6.73,28a19,19,0,0,0,3.78,12.37,26.73,26.73,0,0,0,7.41,6.83l-1.28,1,1.53,2a2.64,2.64,0,0,0,3.09.58l12.35,15.7c1.12,1.44,3.52,1.48,5.33.11s2.37-3.66,1.25-5.09L27.84,45.72a2.51,2.51,0,0,0,.2-3.07L26.51,40.7,24.87,42Zm-3.42,2a1.1,1.1,0,0,1,.45-.8,1,1,0,0,1,1.33,0L23.22,43.2l-3.56,2.7c-1.1-.57-4-2.35-7.5-6.75A17.47,17.47,0,0,1,8.67,27.73ZM38.54,62.67a1.85,1.85,0,0,1-.62,2.55,1.94,1.94,0,0,1-2.67,0L23,49.59l3.29-2.5ZM26.4,43.9a.93.93,0,0,1-.31,1.27l-4.94,3.74a1,1,0,0,1-1.33,0l-.51-.64,6.58-5Z"/><path class="cls-2" d="M73,43.93a11.14,11.14,0,0,1-2.49,1.29,8.76,8.76,0,0,1-3.75.53,6.62,6.62,0,0,1-1.68-.37,5.67,5.67,0,0,1-1.5-.79,6,6,0,0,1-1.1-1,6.68,6.68,0,0,1-1.25-2.36,9.16,9.16,0,0,1-.14-4.5A12.22,12.22,0,0,1,63.27,32a12.83,12.83,0,0,1,2.93-2.83,10.81,10.81,0,0,1,2.5-1.29,8.71,8.71,0,0,1,3.74-.53,6.7,6.7,0,0,1,1.69.37,6,6,0,0,1,1.5.79,6.28,6.28,0,0,1,1.1,1A6.6,6.6,0,0,1,78,31.86a9.17,9.17,0,0,1,.13,4.5,11.94,11.94,0,0,1-2.18,4.74A12.44,12.44,0,0,1,73,43.93Z"/><path class="cls-1" d="M85.31,42.5H84A39.49,39.49,0,0,1,72.11,70.79a41.28,41.28,0,0,1-57.63,0,39.48,39.48,0,0,1,0-56.58,41.28,41.28,0,0,1,57.63,0A39.49,39.49,0,0,1,84,42.5h2.54C86.58,19,67.2,0,43.29,0S0,19,0,42.5,19.38,85,43.29,85,86.58,66,86.58,42.5Z"/></g></g></svg>