<svg xmlns="http://www.w3.org/2000/svg" xmlns:xlink="http://www.w3.org/1999/xlink" viewBox="0 0 345 208.28"><defs><style>.cls-1{fill:#3d5da6;}.cls-2{fill:#fff;}.cls-3{fill:url(#Degradado_sin_nombre_18);}</style><linearGradient id="Degradado_sin_nombre_18" x1="113.51" y1="91.22" x2="180.26" y2="91.22" gradientUnits="userSpaceOnUse"><stop offset="0.03" stop-color="#e67d23"/><stop offset="1" stop-color="#fbb03b"/></linearGradient></defs><title>HomeIcono 1@1x</title><g id="Capa_2" data-name="Capa 2"><g id="Capa_1-2" data-name="Capa 1"><path class="cls-1" d="M225.71,40.32l1.42,1.83.66.8Z"/><path class="cls-2" d="M118.09,118.39a40.31,40.31,0,0,1,0-56.65,39.47,39.47,0,0,1,56.16,0,40.31,40.31,0,0,1,0,56.65,39.47,39.47,0,0,1-56.16,0Zm58.66,4.06.78-.76.75-.78,2.5,2.52L179.25,125Z"/><path class="cls-1" d="M326.23,144.64l-48-9.66v-6.06a40.34,40.34,0,0,0,19.46-28.42A16.76,16.76,0,0,0,311.64,84V47.44a21.06,21.06,0,0,0-14.35-20l-.16-.31A48.4,48.4,0,0,0,253.57,0a48.92,48.92,0,0,0-48.7,49V84a16.75,16.75,0,0,0,13.9,16.52,40.37,40.37,0,0,0,19.46,28.42V135L214.3,139.8l4.65,5.92,9.83-2,7.37,29.67.36-.24v-.06l22.07-14.82,11.95,8.34,0,.21,9.79,6.57,7.36-29.68,37.19,7.49a16.83,16.83,0,0,1,13.42,16.48v33.86H311.64V168H305v33.59H211.54V168h-6.67v33.59H178.18V167.7a16.89,16.89,0,0,1,6.75-13.49l-4.39-5.05a23.62,23.62,0,0,0-9,18.54v40.58H345V167.7A23.53,23.53,0,0,0,326.23,144.64Zm-27.94-51.2V74.53a10,10,0,0,1,0,18.91Zm-80.08,0a10,10,0,0,1,0-18.92Zm0-44.54v.7c0,.26,0,.53,0,.79V67.53a16.44,16.44,0,0,0-6.69,3.1V49a42.22,42.22,0,0,1,42-42.32,41.77,41.77,0,0,1,37.59,23.39l1.5,3,1.48.38A14.33,14.33,0,0,1,305,47.44V70.63a16.55,16.55,0,0,0-6.67-3.1v-3.7a23.77,23.77,0,0,0-4.67-14.11,23.43,23.43,0,0,0-18.69-9.41,31.72,31.72,0,0,0-14.13,3.36L235.69,56.32a7.59,7.59,0,0,1-3.34.79,7.49,7.49,0,0,1-7.46-7.51v-.7A7.56,7.56,0,0,1,227.76,43l-.63-.82-3.62-4.36A14.21,14.21,0,0,0,218.21,48.9Zm6.68,45.16V61.68a14.43,14.43,0,0,0,13.78.65l25.11-12.65A25,25,0,0,1,274.93,47a16.71,16.71,0,0,1,13.35,6.72,17,17,0,0,1,3.34,10.08V94.06a33.37,33.37,0,1,1-66.73,0Zm15.43,68.47-5-20.11,5.15-1L253,154Zm17.93-12.75-13.34-13.44V132a38.91,38.91,0,0,0,26.69,0v4.32Zm17.93,12.75L263.49,154,276,141.38l5.15,1Z"/><path class="cls-1" d="M42.72,133.16a2.51,2.51,0,0,0,2.52-2.5v-5.34a2.52,2.52,0,0,0-5,0v5.34A2.51,2.51,0,0,0,42.72,133.16Z"/><path class="cls-1" d="M134,143v3.89H117.62v-.2h-5v.2H85.45v-.2h-5v.2H64v-.2h0v-43H96c-.38-1.58-.69-3.2-.93-4.83H61.49a2.5,2.5,0,0,0-2.51,2.5v48a2.5,2.5,0,0,0,2.51,2.5h75.06a2.5,2.5,0,0,0,2.51-2.5v-5.47A48.8,48.8,0,0,1,134,143Z"/><path class="cls-1" d="M152.63,157.51h-2.84V144c-1.52.15-3,.23-4.59.23h-.44v13.25H53.28v-56.2a2.51,2.51,0,0,0-2.51-2.5H18.6a2.51,2.51,0,0,0-2.52,2.5v56.2H10.39V93a12.38,12.38,0,0,0,1.51.09,11.89,11.89,0,0,0,9.38-4.57,11.91,11.91,0,0,0,18.76,0,11.92,11.92,0,0,0,18.77,0,11.91,11.91,0,0,0,18.76,0,11.91,11.91,0,0,0,16.86,1.93s0,0,0-.07a56.49,56.49,0,0,1,4.43-22v-10h5.5a52.2,52.2,0,0,1,4-5H10.39V45.27a2.84,2.84,0,0,1,2.85-2.83H40.62a7.9,7.9,0,0,0,7.47,5.33h59a7.88,7.88,0,0,0,7.46-5.33h7.66a48.17,48.17,0,0,1,14-5H114.94v-.16a7.87,7.87,0,0,0-7.88-7.84h-59a7.86,7.86,0,0,0-7.88,7.84v.16h-27a7.87,7.87,0,0,0-7.88,7.84v8.17H3.18A3.18,3.18,0,0,0,0,56.61V81.29a11.82,11.82,0,0,0,5.36,9.89v66.33H2.51a2.5,2.5,0,1,0,0,5H152.63a2.5,2.5,0,1,0,0-5ZM80.09,58.45H93.83V81.29a6.87,6.87,0,0,1-13.74,0Zm-18.77,0H75.06V81.29a6.87,6.87,0,0,1-13.74,0Zm-18.76,0H56.3V81.29a6.87,6.87,0,0,1-13.74,0Zm-18.77,0H37.53V81.29a6.87,6.87,0,0,1-13.74,0ZM45.24,37.27a2.85,2.85,0,0,1,2.85-2.84h59a2.85,2.85,0,0,1,2.85,2.84v2.65h0a2.84,2.84,0,0,1-2.85,2.83h-59a2.85,2.85,0,0,1-2.85-2.84ZM5,81.29V58.45H18.77V81.29A6.87,6.87,0,0,1,5,81.29Zm43.22,76.22H21.11v-5.67H48.25Zm0-10.67H21.11v-43H48.25Z"/><path class="cls-3" d="M170.48,66.77a32.58,32.58,0,0,0-47.2,0,35.47,35.47,0,0,0,0,48.89,32.56,32.56,0,0,0,47.2,0,35.44,35.44,0,0,0,0-48.89Zm-3.14,45.64a28.22,28.22,0,0,1-40.91,0,30.75,30.75,0,0,1,0-42.38,28.22,28.22,0,0,1,40.91,0A30.77,30.77,0,0,1,167.34,112.41Z"/><path class="cls-1" d="M160.39,68.17a2.17,2.17,0,0,0-3,.77,2.35,2.35,0,0,0,.74,3.16,21.77,21.77,0,0,1,4.07,3.31,2.16,2.16,0,0,0,1.57.67,2.19,2.19,0,0,0,1.57-.67,2.38,2.38,0,0,0,0-3.26A26.2,26.2,0,0,0,160.39,68.17Z"/><path class="cls-1" d="M130.05,76.08a2.16,2.16,0,0,0,1.57-.67,21.2,21.2,0,0,1,18.6-6.28,2.24,2.24,0,0,0,2.54-1.92,2.29,2.29,0,0,0-1.85-2.63,25.58,25.58,0,0,0-22.43,7.57,2.36,2.36,0,0,0,0,3.26A2.16,2.16,0,0,0,130.05,76.08Z"/><path class="cls-1" d="M135.48,110.21a22.06,22.06,0,0,1-3.86-3.18,2.16,2.16,0,0,0-3.14,0,2.35,2.35,0,0,0,0,3.25,26.1,26.1,0,0,0,4.65,3.83,2.1,2.1,0,0,0,1.17.35,2.2,2.2,0,0,0,1.89-1.08A2.35,2.35,0,0,0,135.48,110.21Z"/><path class="cls-1" d="M162.15,107a21.07,21.07,0,0,1-17.82,6.39,2.24,2.24,0,0,0-2.47,2A2.28,2.28,0,0,0,143.8,118a25.36,25.36,0,0,0,21.49-7.71,2.35,2.35,0,0,0,0-3.25,2.16,2.16,0,0,0-3.14,0Z"/><path class="cls-1" d="M214.31,147.55,187.42,119.7a2.16,2.16,0,0,0-3.14,0l-1.08,1.11-2.64-2.73c12.85-17.25,11.64-42.19-3.62-58a41.51,41.51,0,0,0-60.11,0,45.2,45.2,0,0,0,0,62.26,41.5,41.5,0,0,0,56,3.76l2.63,2.73L174.38,130a2.37,2.37,0,0,0,0,3.26l26.88,27.85a9,9,0,0,0,13.05,0,9.82,9.82,0,0,0,0-13.51ZM120,119.1a40.43,40.43,0,0,1,0-55.76,37.14,37.14,0,0,1,53.83,0,40.43,40.43,0,0,1,0,55.76,37.16,37.16,0,0,1-53.83,0Zm56.23,4,.74-.75.72-.77,2.4,2.49-1.47,1.51Zm35,34.7a4.66,4.66,0,0,1-6.75,0l-25.32-26.22,6.76-7,25.31,26.22A5.07,5.07,0,0,1,211.16,157.8Z"/></g></g></svg>