<svg xmlns="http://www.w3.org/2000/svg" xmlns:xlink="http://www.w3.org/1999/xlink" viewBox="0 0 244.21 234"><defs><style>.cls-1{fill:#3d5da6;}.cls-2{fill:url(#Degradado_sin_nombre_18);}.cls-3{fill:url(#Degradado_sin_nombre_18-2);}.cls-4{fill:url(#Degradado_sin_nombre_18-3);}.cls-5{fill:url(#Degradado_sin_nombre_18-4);}</style><linearGradient id="Degradado_sin_nombre_18" x1="146.21" y1="21.98" x2="221.89" y2="21.98" gradientUnits="userSpaceOnUse"><stop offset="0.03" stop-color="#e67d23"/><stop offset="1" stop-color="#fbb03b"/></linearGradient><linearGradient id="Degradado_sin_nombre_18-2" x1="146.21" y1="29.51" x2="221.89" y2="29.51" xlink:href="#Degradado_sin_nombre_18"/><linearGradient id="Degradado_sin_nombre_18-3" x1="146.21" y1="37.03" x2="221.89" y2="37.03" xlink:href="#Degradado_sin_nombre_18"/><linearGradient id="Degradado_sin_nombre_18-4" x1="146.21" y1="44.56" x2="198.87" y2="44.56" xlink:href="#Degradado_sin_nombre_18"/></defs><title>HomeNewsletter@1x</title><g id="Capa_2" data-name="Capa 2"><g id="Capa_1-2" data-name="Capa 1"><path class="cls-1" d="M244.21,43.85a2.35,2.35,0,0,0-1-1.79l-12.1-8.48V7.05a7.17,7.17,0,0,0-7.28-7h-51.3a2.39,2.39,0,0,0-2.43,2.35,2.39,2.39,0,0,0,2.43,2.35h51.3a2.4,2.4,0,0,1,2.43,2.35V53.22L196.65,76.65l-7.43-5.21a12.43,12.43,0,0,0-14.22,0l-7.43,5.21L138,53.22V7.05a2.4,2.4,0,0,1,2.43-2.35h13.22A2.38,2.38,0,0,0,156,2.35,2.38,2.38,0,0,0,153.61,0H140.39a7.18,7.18,0,0,0-7.28,7.05V33.58L121,42.06h0a2.3,2.3,0,0,0-1,1.9v64.66a12,12,0,0,0,12.13,11.75h99.94a12,12,0,0,0,12.13-11.75V43.85Zm-13.1-4.46,6.7,4.69-6.7,5.3Zm-98,0v10l-6.69-5.3Zm-8.25,9.53,38.65,30.59-38.65,27.1Zm107.22,66.76H132.14a7.31,7.31,0,0,1-6.47-3.83l52.18-36.6a7.45,7.45,0,0,1,8.53,0l41.55,29.15H203.7a2.35,2.35,0,1,0,0,4.7h30.93l3.92,2.75A7.31,7.31,0,0,1,232.08,115.68Zm7.28-9.07-38.64-27.1,38.64-30.59Z"/><rect class="cls-2" x="146.21" y="20.22" width="75.68" height="3.53" rx="1.76"/><rect class="cls-3" x="146.21" y="27.74" width="75.68" height="3.53" rx="1.76"/><rect class="cls-4" x="146.21" y="35.27" width="75.68" height="3.53" rx="1.76"/><rect class="cls-5" x="146.21" y="42.79" width="52.66" height="3.53" rx="1.76"/><path class="cls-1" d="M105.38,166.9a4.57,4.57,0,0,0-6.32,0,4.25,4.25,0,0,0,0,6.12,4.57,4.57,0,0,0,6.32,0,4.25,4.25,0,0,0,0-6.12Z"/><path class="cls-1" d="M200,128.44a4.39,4.39,0,0,0-4.47,4.32v19H119V152H9l0-.21H8.93V47.85a3.43,3.43,0,0,1,3.48-3.36H105.2a4.33,4.33,0,1,0,0-8.65H12.41A12.23,12.23,0,0,0,0,47.85V176.13a12.23,12.23,0,0,0,12.41,12H80.34v20c-11.26,1.11-20.08,10.35-20.08,21.55A4.4,4.4,0,0,0,64.72,234h75a4.4,4.4,0,0,0,4.46-4.33c0-11.2-8.82-20.44-20.08-21.55v-20H192a12.23,12.23,0,0,0,12.41-12V132.76A4.4,4.4,0,0,0,200,128.44Zm-65.49,96.91H70a13.41,13.41,0,0,1,12.66-8.68h39.22A13.42,13.42,0,0,1,134.49,225.35ZM89.27,208V188.14h25.9V208Zm106.24-31.88a3.42,3.42,0,0,1-3.48,3.35H12.41a3.42,3.42,0,0,1-3.48-3.35V160.45H195.51Z"/><path class="cls-1" d="M105.93,126.08l-25.74-5.14v-3.23a21.49,21.49,0,0,0,10.44-15.15,9,9,0,0,0,7.47-8.8V74.28a11.24,11.24,0,0,0-7.7-10.67l-.09-.16a26.13,26.13,0,0,0-49.5,11.68V93.76a8.94,8.94,0,0,0,7.46,8.8,21.52,21.52,0,0,0,10.44,15.15v3.23L33,126.08A12.57,12.57,0,0,0,22.9,138.37V160H116V138.37A12.58,12.58,0,0,0,105.93,126.08ZM81.75,124.9l-2.68,10.72-6.81-4.54L79,124.35ZM65.58,151.65l8.36,2.78.44,2H64.52Zm.78-3.52,1-4.24h4.28L73,150.36Zm5.27-7.82H67.27l-1.15-4.59,3.33-2.21,3.33,2.22ZM90.94,98.8V88.72a5.34,5.34,0,0,1,0,10.08Zm-46.55-5A5.37,5.37,0,0,1,48,88.71V98.8A5.36,5.36,0,0,1,44.39,93.76ZM48,75.06v.37c0,.14,0,.28,0,.42V85a8.84,8.84,0,0,0-3.58,1.65V75.13A22.55,22.55,0,0,1,87.11,65.05l.8,1.6.8.2a7.66,7.66,0,0,1,5.81,7.43V86.64A8.9,8.9,0,0,0,90.94,85V83A12.55,12.55,0,0,0,78.4,70.48a17.06,17.06,0,0,0-7.58,1.79L57.34,79a4,4,0,0,1-5.79-3.58v-.37a4,4,0,0,1,1.54-3.16l-.34-.44-1.94-2.32A7.52,7.52,0,0,0,48,75.06Zm3.58,24.07V81.87a7.77,7.77,0,0,0,7.39.35l13.48-6.74a13.39,13.39,0,0,1,6-1.42,9,9,0,0,1,8.95,9V99.13a17.9,17.9,0,1,1-35.8,0Zm17.9,21.48a21.25,21.25,0,0,0,7.16-1.25v2.3l-7.16,7.16-7.16-7.16v-2.3A21.25,21.25,0,0,0,69.45,120.61Zm-9.54,3.74,6.73,6.73-6.81,4.54L57.15,124.9Zm-33.43,14a9,9,0,0,1,7.2-8.78l20-4,4,15.82L63,137.84,64,142.12l-3.18,14.3H44.39v-17.9H40.81v17.9H26.48Zm85.94,18H98.1v-17.9H94.52v17.9H78.05l-3.18-14.3,1.07-4.29,5.37,3.58,4-15.81,20,4a9,9,0,0,1,7.2,8.78Z"/></g></g></svg>