<svg xmlns="http://www.w3.org/2000/svg" xmlns:xlink="http://www.w3.org/1999/xlink" viewBox="0 0 274.11 215.21"><defs><style>.cls-1{fill:#3d5da6;}.cls-2,.cls-3{fill:none;}.cls-2{stroke:#3d5da6;stroke-miterlimit:10;stroke-width:6px;}.cls-3{stroke-linecap:round;stroke-linejoin:round;stroke-width:9px;stroke:url(#Degradado_sin_nombre_18);}</style><linearGradient id="Degradado_sin_nombre_18" x1="213.36" y1="33.15" x2="260.56" y2="33.15" gradientUnits="userSpaceOnUse"><stop offset="0.03" stop-color="#e67d23"/><stop offset="1" stop-color="#fbb03b"/></linearGradient></defs><title>HomeConcepto favorable@1x</title><g id="Capa_2" data-name="Capa 2"><g id="Capa_1-2" data-name="Capa 1"><path class="cls-1" d="M148.17,109.87H39.86a3.78,3.78,0,0,0-3.75,3.81V191a3.78,3.78,0,0,0,3.75,3.81H148.17a3.78,3.78,0,0,0,3.76-3.81V113.68A3.78,3.78,0,0,0,148.17,109.87Zm-3.75,77.36H43.61V117.49H144.42Z"/><ellipse class="cls-2" cx="233.15" cy="49.8" rx="37.96" ry="37.95"/><polyline class="cls-3" points="217.86 38.88 235.05 61.8 256.06 4.5"/><path class="cls-1" d="M116.44,168.06,100,164.77V162.7a13.78,13.78,0,0,0,6.68-9.69,5.71,5.71,0,0,0,4.77-5.62V134.93a7.19,7.19,0,0,0-4.93-6.83l0-.1a16.72,16.72,0,0,0-31.67,7.47v11.92A5.73,5.73,0,0,0,79.56,153a13.75,13.75,0,0,0,6.68,9.68v2.07l-16.46,3.29a8,8,0,0,0-6.45,7.86v13.84h59.55V175.92A8,8,0,0,0,116.44,168.06ZM101,167.31l-1.71,6.85-4.36-2.9L99.21,167Zm-10.34,17.1L96,186.2l.28,1.27H90Zm.5-2.24.6-2.72h2.75l.92,4.14Zm3.37-5H91.71L91,174.23l2.13-1.42,2.12,1.42Zm12.35-26.55v-6.45a3.42,3.42,0,0,1,0,6.45Zm-29.78-3.22a3.43,3.43,0,0,1,2.3-3.23v6.45A3.42,3.42,0,0,1,77.07,147.39Zm2.29-12v.23c0,.09,0,.19,0,.27v5.85a5.64,5.64,0,0,0-2.3,1.06v-7.37A14.43,14.43,0,0,1,104.4,129l.52,1,.51.13a4.89,4.89,0,0,1,3.71,4.75v7.91a5.6,5.6,0,0,0-2.29-1.06v-1.26a8,8,0,0,0-8-8A11,11,0,0,0,94,133.64L85.36,138a2.52,2.52,0,0,1-1.14.27,2.56,2.56,0,0,1-2.57-2.56v-.23a2.61,2.61,0,0,1,1-2l-.21-.27-1.25-1.49A4.83,4.83,0,0,0,79.36,135.43Zm2.29,15.39v-11a5,5,0,0,0,4.74.22L95,135.69a8.58,8.58,0,0,1,3.82-.9,5.74,5.74,0,0,1,5.73,5.73v10.3a11.46,11.46,0,0,1-22.91,0Zm11.46,13.74a13.69,13.69,0,0,0,4.58-.8v1.47l-4.58,4.59-4.58-4.59v-1.47A13.61,13.61,0,0,0,93.11,164.56ZM87,167l4.31,4.31L87,174.16l-1.71-6.85Zm-21.38,9a5.74,5.74,0,0,1,4.61-5.61L83,167.76l2.53,10.11L89,175.58l.68,2.74-2,9.15H77.07V176H74.78v11.45H65.62Zm55,11.55h-9.16V176h-2.29v11.45H98.61l-2-9.15.69-2.74,3.43,2.29,2.53-10.12L116,170.31a5.74,5.74,0,0,1,4.6,5.61Z"/><path class="cls-1" d="M244.45,207.59h-4.26V107.91a58.77,58.77,0,0,1-6.25.33c-.42,0-.84,0-1.26,0v99.38H220.13V113.68a3.79,3.79,0,0,0-3.76-3.81H168.23a3.78,3.78,0,0,0-3.75,3.81v93.91H23.55V98.27a34.39,34.39,0,0,0,11.29,1.91,34.83,34.83,0,0,0,31.09-19.4,34.62,34.62,0,0,0,62.19,0,34.55,34.55,0,0,0,59,5.1,60.51,60.51,0,0,1-4.65-6.58,27.24,27.24,0,0,1-23.3,13.26,27.52,27.52,0,0,1-27.08-23.93h45.26A60.58,60.58,0,0,1,175.2,61H35.85a3.81,3.81,0,0,0,0,7.62H61.92A27.52,27.52,0,0,1,34.84,92.56,27.5,27.5,0,0,1,7.77,68.63h12a3.81,3.81,0,0,0,0-7.62H10.22L36.8,13.81a4.24,4.24,0,0,1,3.7-2.18H186.13A59.65,59.65,0,0,1,193.06,4H40.5a11.76,11.76,0,0,0-10.22,6L.49,62.93A3.89,3.89,0,0,0,0,64.82,35.45,35.45,0,0,0,16.05,94.57v113H11.78a3.81,3.81,0,0,0,0,7.62H244.45a3.81,3.81,0,0,0,0-7.62ZM124.1,68.63a27.28,27.28,0,0,1-54.15,0Zm88.52,139H172V194.85h40.63Zm0-20.36H172V117.49h40.63Z"/></g></g></svg>