<svg xmlns="http://www.w3.org/2000/svg" viewBox="0 0 12.16 12.16"><defs><style>.cls-1{fill:#009fe3;}</style></defs><title>HomeIcono buscar@1x</title><g id="Capa_2" data-name="Capa 2"><g id="Capa_1-2" data-name="Capa 1"><path class="cls-1" d="M7.14,2a3.62,3.62,0,1,0,1,2.55A3.59,3.59,0,0,0,7.14,2ZM6.8,6.8a3.13,3.13,0,1,1,0-4.42A3.11,3.11,0,0,1,6.8,6.8Z"/><path class="cls-1" d="M6.05,2.18a.24.24,0,0,0-.33.09.22.22,0,0,0,.08.32,2.94,2.94,0,0,1,.44.35A.21.21,0,0,0,6.41,3a.23.23,0,0,0,.17-.07.25.25,0,0,0,0-.34A3.06,3.06,0,0,0,6.05,2.18Z"/><path class="cls-1" d="M2.77,3a.23.23,0,0,0,.17-.07,2.33,2.33,0,0,1,2-.65A.24.24,0,0,0,5,1.81,2.82,2.82,0,0,0,2.6,2.6a.25.25,0,0,0,0,.34A.23.23,0,0,0,2.77,3Z"/><path class="cls-1" d="M3.36,6.57a3.39,3.39,0,0,1-.42-.33.23.23,0,0,0-.34,0,.25.25,0,0,0,0,.34A2.69,2.69,0,0,0,3.1,7a.22.22,0,0,0,.13,0,.23.23,0,0,0,.2-.11A.24.24,0,0,0,3.36,6.57Z"/><path class="cls-1" d="M6.24,6.24a2.33,2.33,0,0,1-1.93.66.24.24,0,0,0,0,.48l.33,0a2.83,2.83,0,0,0,2-.82.25.25,0,0,0,0-.34.23.23,0,0,0-.34,0Z"/><path class="cls-1" d="M11.87,10.46,9,7.56a.23.23,0,0,0-.34,0l-.12.11-.28-.28a4.58,4.58,0,1,0-.84.84l.28.28-.11.12a.21.21,0,0,0-.07.17A.23.23,0,0,0,7.56,9l2.9,2.9a1,1,0,0,0,.7.29,1,1,0,0,0,.71-.29,1,1,0,0,0,0-1.41Zm-10.19-3A4.11,4.11,0,0,1,7.49,1.68a4.09,4.09,0,0,1,0,5.81,4.09,4.09,0,0,1-5.81,0Zm6.07.42.08-.08.08-.08L8.17,8,8,8.17Zm3.78,3.62a.52.52,0,0,1-.73,0L8.07,8.8l.73-.73,2.73,2.73A.52.52,0,0,1,11.53,11.53Z"/></g></g></svg>