<svg xmlns="http://www.w3.org/2000/svg" xmlns:xlink="http://www.w3.org/1999/xlink" viewBox="0 0 234.47 270"><defs><style>.cls-1{fill:#3d5da6;}.cls-2{fill:#fff;}.cls-3{fill:url(#Degradado_sin_nombre_18);}.cls-4{fill:url(#Degradado_sin_nombre_18-2);}.cls-5{fill:url(#Degradado_sin_nombre_18-3);}.cls-6{fill:url(#Degradado_sin_nombre_18-4);}</style><linearGradient id="Degradado_sin_nombre_18" x1="38.48" y1="233.67" x2="45.5" y2="233.67" gradientUnits="userSpaceOnUse"><stop offset="0.03" stop-color="#e67d23"/><stop offset="1" stop-color="#fbb03b"/></linearGradient><linearGradient id="Degradado_sin_nombre_18-2" x1="40.38" y1="205.3" x2="82.06" y2="205.3" xlink:href="#Degradado_sin_nombre_18"/><linearGradient id="Degradado_sin_nombre_18-3" x1="174.88" y1="36.55" x2="217.68" y2="36.55" xlink:href="#Degradado_sin_nombre_18"/><linearGradient id="Degradado_sin_nombre_18-4" x1="186.63" y1="22.82" x2="234.47" y2="22.82" xlink:href="#Degradado_sin_nombre_18"/></defs><title>Sectores-Restaurantes-Que debo hacer</title><g id="Layer_2" data-name="Layer 2"><g id="Capa_1" data-name="Capa 1"><path class="cls-1" d="M168,185.16l-41.88-14v-8.49A45.24,45.24,0,0,0,144.89,137,20.46,20.46,0,0,0,163,116.76v-62a28.4,28.4,0,0,0,8-23.35,29,29,0,0,0-23.84-25,28.62,28.62,0,0,0-23.74,6.89,36.77,36.77,0,0,0-43.87,0A28.67,28.67,0,0,0,55.8,6.42,29,29,0,0,0,32,31.45,28.41,28.41,0,0,0,40,54.8v62A20.46,20.46,0,0,0,58.06,137a45.21,45.21,0,0,0,18.82,25.7v8.49L35,185.16a28.67,28.67,0,0,0-19.63,27.23v47.87H187.58V212.39A28.67,28.67,0,0,0,168,185.16Zm-13.57,66.9H142.48v-24.6h9.67ZM50.8,227.46h9.68v24.6H48.56Zm17.88,0h16.4v24.6H68.68Zm24.6,0h16.4v24.6H93.28Zm24.6,0h16.4v24.6h-16.4Zm-52.49-8.2,5.31-29.2,13.48,23.6,17.3-17.3,17.29,17.3,13.49-23.6,5.31,29.2Zm62.85-38.69L117,200.26l-9.36-9.36,15.18-12.15Zm26.54-88.42v8.31a20.36,20.36,0,0,0-8.2-3.79V92.15Zm-8.37,36.2c.08-1.12.17-2.25.17-3.39V105.21a12.22,12.22,0,0,1-.17,23.14Zm-106.3-96a20.49,20.49,0,0,1,36-10.84l2.76,3.27L82,21.89a28.55,28.55,0,0,1,38.88,0l3.14,2.9,2.77-3.27A20.49,20.49,0,1,1,156.15,50l-1.37,1.22V67.55h-82v8.2h82V84H48.17v-8.2H64.58v-8.2H48.17V51.22L46.81,50A20.34,20.34,0,0,1,40.11,32.36ZM56.38,96.67a20.27,20.27,0,0,0-8.21,3.79V92.15h8.21Zm-8.21,20.09a12.29,12.29,0,0,1,8.21-11.55V125c0,1.14.08,2.27.17,3.39A12.28,12.28,0,0,1,48.17,116.76ZM64.58,125V92.15h73.8V125a36.9,36.9,0,1,1-73.8,0Zm36.9,45.1a44.77,44.77,0,0,0,16.4-3.14v5.27l-16.4,13.12-16.4-13.12v-5.27A44.73,44.73,0,0,0,101.48,170.06Zm-21.32,8.69L95.34,190.9,86,200.26,74.72,180.57ZM23.57,212.39a20.49,20.49,0,0,1,14-19.45l25.82-8.61-6.35,34.93H51.55l.71-7.83-8.17-.74-3.76,41.37H23.57Zm155.81,39.67H162.62l-3.76-41.37-8.16.74.7,7.83h-5.5l-6.35-34.92,25.81,8.6a20.47,20.47,0,0,1,14,19.45Z"/><path class="cls-2" d="M31.9,243.74S27.23,185.25,88,178.17h28.32s55,5,54.05,65.57Z"/><path class="cls-1" d="M177.16,243.74H25.28a9.88,9.88,0,0,0-9.91,9.84v6.57A9.89,9.89,0,0,0,25.28,270H177.16a9.89,9.89,0,0,0,9.91-9.85v-6.57A9.89,9.89,0,0,0,177.16,243.74Zm3.3,16.41a3.29,3.29,0,0,1-3.3,3.28H25.28A3.3,3.3,0,0,1,22,260.15v-6.57a3.3,3.3,0,0,1,3.31-3.28H177.16a3.29,3.29,0,0,1,3.3,3.28Z"/><path class="cls-1" d="M68.2,155.09v20.65a65.72,65.72,0,0,0-42.92,61.43h6.6c0-32.58,26.66-59.1,59.43-59.1h19.81c32.78,0,59.44,26.52,59.44,59.1h6.6a65.72,65.72,0,0,0-42.92-61.43V155.09a9.89,9.89,0,0,0-9.91-9.85H78.11A9.89,9.89,0,0,0,68.2,155.09Zm46.23,16.59c-1.1-.06-2.19-.17-3.31-.17H91.31c-1.11,0-2.2.11-3.3.17v-6.74h26.42ZM74.8,155.09a3.3,3.3,0,0,1,3.31-3.28h46.22a3.29,3.29,0,0,1,3.3,3.28v18.58a65.34,65.34,0,0,0-6.6-1.34v-14H81.41v14a66.1,66.1,0,0,0-6.61,1.34Z"/><path class="cls-3" d="M38.48,237.17h6.61A46.18,46.18,0,0,1,45.5,231L39,230.17A52.65,52.65,0,0,0,38.48,237.17Z"/><path class="cls-4" d="M82.06,192.13l-1.31-6.44a53.1,53.1,0,0,0-40.37,37.47l6.37,1.75A46.44,46.44,0,0,1,82.06,192.13Z"/><path class="cls-2" d="M180.46,260.15a3.29,3.29,0,0,1-3.3,3.28H25.28A3.3,3.3,0,0,1,22,260.15v-6.57a3.3,3.3,0,0,1,3.31-3.28H177.16a3.29,3.29,0,0,1,3.3,3.28Z"/><path class="cls-2" d="M74.8,155.09a3.3,3.3,0,0,1,3.31-3.28h46.22a3.29,3.29,0,0,1,3.3,3.28v18.58a65.34,65.34,0,0,0-6.6-1.34v-14H81.41v14a66.1,66.1,0,0,0-6.61,1.34Z"/><path class="cls-2" d="M114.43,171.68c-1.1-.06-2.19-.17-3.31-.17H91.31c-1.11,0-2.2.11-3.3.17v-6.74h26.42Z"/><path class="cls-1" d="M16.81,205.12c-2.52-.81-4.32-2.8-4.3-5.08l.61-63.36L26.3,137l-.5,53.11,6.62-2.75.48-50.66c3.84-1,6.64-3.82,6.67-7.25l.07-7.92-6.59-.18.63-66c0-4.36-4.35-8-9.79-8.17a10.56,10.56,0,0,0-8.19,3.22C11.16,55.55.56,69.57.38,88.8c-.16,16.33,2.8,26.68,4.81,31.82l-5.11-.14L0,128.4c0,3.44,2.71,6.42,6.52,7.62l-.61,63.84c0,4.95,4.19,9.23,9.93,10.52A47.63,47.63,0,0,1,16.81,205.12ZM7,89c.17-17.76,10-30.7,14.14-35.43a3.55,3.55,0,0,1,2.73-1.07c1.81.05,3.26,1.26,3.25,2.71l-.63,66-14.28-.4C10.56,117.21,6.8,106.9,7,89Zm-.37,39.6,0-2.64,26.38.72,0,2.64c0,1.46-1.51,2.61-3.33,2.55l-19.78-.54C8.05,131.26,6.58,130,6.6,128.58Z"/><path class="cls-1" d="M217.27,62.94c-4.47,0-8.11,3.34-8.11,7.45v32.29a2.72,2.72,0,0,1-5.41,0V70.39c0-4.11-3.64-7.45-8.12-7.45s-8.11,3.34-8.11,7.45v32.29a2.72,2.72,0,0,1-5.41,0V70.39c0-4.11-3.64-7.45-8.12-7.45s-8.11,3.34-8.11,7.45v37.68c0,9.31,5.17,18.05,13.52,23.23V135a7.52,7.52,0,0,0,5.41,7v61.41a61.61,61.61,0,0,1,2,9.32,11.1,11.1,0,0,0,8.84,4.24c6,0,10.82-4.46,10.82-9.94V142a7.51,7.51,0,0,0,5.41-7V131.3c8.36-5.18,13.53-13.92,13.53-23.23V70.39C225.39,66.28,221.75,62.94,217.27,62.94ZM201,207a5.43,5.43,0,0,1-10.82,0V142.42H201Zm5.41-72a2.6,2.6,0,0,1-2.7,2.48H187.52a2.61,2.61,0,0,1-2.71-2.48v-2.48h21.64ZM220,108.07a22.8,22.8,0,0,1-11.66,19.45H183a22.8,22.8,0,0,1-11.66-19.45V70.39a2.72,2.72,0,0,1,5.41,0v32.29c0,4.11,3.64,7.45,8.11,7.45s8.12-3.34,8.12-7.45V70.39a2.72,2.72,0,0,1,5.41,0v32.29c0,4.11,3.64,7.45,8.11,7.45s8.12-3.34,8.12-7.45V70.39a2.72,2.72,0,0,1,5.41,0Z"/><path class="cls-2" d="M40.11,32.36a20.49,20.49,0,0,1,36-10.84l2.76,3.27L82,21.89a28.55,28.55,0,0,1,38.88,0l3.14,2.9,2.77-3.27A20.49,20.49,0,1,1,156.15,50l-1.37,1.22V67.55h-82v8.2h82V84H48.17v-8.2H64.58v-8.2H48.17V51.22L46.81,50A20.34,20.34,0,0,1,40.11,32.36Z"/><path class="cls-5" d="M217.68,36.55h-7.13V51.6H182V21.49h21.41V14H174.88V59.13h42.8Z"/><path class="cls-6" d="M229.43,0,196.28,35l-4.61-4.87-5,5.32,9.65,10.19L234.47,5.32Z"/></g></g></svg>