<svg xmlns="http://www.w3.org/2000/svg" viewBox="0 0 54.91 73"><defs><style>.cls-1{fill:#3d5da6;}</style></defs><title>HomeTips Auto1@1x</title><g id="Capa_2" data-name="Capa 2"><g id="Capa_1-2" data-name="Capa 1"><path class="cls-1" d="M40.14,70.86H2V18a1,1,0,0,0-1-1.07A1,1,0,0,0,0,18V71.21A1.74,1.74,0,0,0,1.68,73H40.14a1.07,1.07,0,0,0,0-2.14Z"/><path class="cls-1" d="M54.62,9.69,46.07.32A1,1,0,0,0,45.34,0H1.68A1.74,1.74,0,0,0,0,1.79v8.35a1,1,0,0,0,1,1.07,1,1,0,0,0,1-1.07v-8H44.92l8,8.73v60H47.19a1.07,1.07,0,0,0,0,2.14h6a1.74,1.74,0,0,0,1.68-1.79V10.44A1.08,1.08,0,0,0,54.62,9.69Z"/><path class="cls-1" d="M54.62,9.69,46.07.32A1,1,0,0,0,45,.08a1.07,1.07,0,0,0-.63,1v9.37a1,1,0,0,0,1,1.07H53.9a1,1,0,0,0,.93-.66A1.1,1.1,0,0,0,54.62,9.69Zm-8.27-.33V3.71l5.17,5.65Z"/><path class="cls-1" d="M32.11,5.69H7.85A1.73,1.73,0,0,0,6.18,7.47V13.4a1.73,1.73,0,0,0,1.67,1.78H32.11a1.73,1.73,0,0,0,1.68-1.78V7.47A1.73,1.73,0,0,0,32.11,5.69ZM31.78,13H8.19V7.83H31.78Z"/><path class="cls-1" d="M16.23,20.79a1,1,0,0,0-1.41.2l-4.45,6.23L9,26a1,1,0,0,0-1.42.1,1.11,1.11,0,0,0,.09,1.51l2.15,2a1,1,0,0,0,.66.27h.1a1,1,0,0,0,.7-.42l5.11-7.14A1.12,1.12,0,0,0,16.23,20.79Z"/><path class="cls-1" d="M46.54,20.57H21.18a1.07,1.07,0,0,0,0,2.14H46.54a1.07,1.07,0,0,0,0-2.14Z"/><path class="cls-1" d="M37.64,24.14H21.18a1.08,1.08,0,0,0,0,2.15H37.64a1.08,1.08,0,0,0,0-2.15Z"/><path class="cls-1" d="M41.4,27.71H21.18a1.08,1.08,0,0,0,0,2.15H41.4a1.08,1.08,0,0,0,0-2.15Z"/><path class="cls-1" d="M16.23,35.36a1,1,0,0,0-1.41.21L10.37,41.8,9,40.55a1,1,0,0,0-1.42.1,1.11,1.11,0,0,0,.09,1.51l2.15,2a.93.93,0,0,0,.66.27h.1a1,1,0,0,0,.7-.41l5.11-7.15A1.12,1.12,0,0,0,16.23,35.36Z"/><path class="cls-1" d="M46.54,35.14H21.18a1.08,1.08,0,0,0,0,2.15H46.54a1.08,1.08,0,0,0,0-2.15Z"/><path class="cls-1" d="M37.64,38.71H21.18a1.08,1.08,0,0,0,0,2.15H37.64a1.08,1.08,0,0,0,0-2.15Z"/><path class="cls-1" d="M41.4,42.29H21.18a1.07,1.07,0,0,0,0,2.14H41.4a1.07,1.07,0,0,0,0-2.14Z"/><path class="cls-1" d="M46.54,49.71H21.18a1.08,1.08,0,0,0,0,2.15H46.54a1.08,1.08,0,0,0,0-2.15Z"/><path class="cls-1" d="M37.64,53.29H21.18a1.07,1.07,0,0,0,0,2.14H37.64a1.07,1.07,0,0,0,0-2.14Z"/><path class="cls-1" d="M41.4,56.86H21.18a1.07,1.07,0,0,0,0,2.14H41.4a1.07,1.07,0,0,0,0-2.14Z"/><path class="cls-1" d="M14.42,49.71H9.05A1.74,1.74,0,0,0,7.37,51.5v5.71A1.74,1.74,0,0,0,9.05,59h5.37a1.73,1.73,0,0,0,1.67-1.78V51.5A1.74,1.74,0,0,0,14.42,49.71Zm-.34,7.15H9.38v-5h4.7Z"/></g></g></svg>