<svg xmlns="http://www.w3.org/2000/svg" viewBox="0 0 78.79 78.82"><defs><style>.cls-1{fill:#3d5da6;}</style></defs><title>HomeTips Auto 2@1x</title><g id="Capa_2" data-name="Capa 2"><g id="Capa_1-2" data-name="Capa 1"><path class="cls-1" d="M77.61,45.77h-16V29.93a1.17,1.17,0,0,0-2.34,0V45.77H53.53V16.66a1.17,1.17,0,0,0-1.17-1.17H47.92V10.42h6.6a4.8,4.8,0,0,1,4.79,4.79V26a1.17,1.17,0,0,0,2.34,0V15.21a7.14,7.14,0,0,0-7.13-7.13H47.84a3.59,3.59,0,0,0-3.52-2.89H39.14a9.26,9.26,0,0,0-16.63,0H17.34a3.6,3.6,0,0,0-3.53,2.89H7.13A7.14,7.14,0,0,0,0,15.21V27.59a1.17,1.17,0,0,0,2.34,0V15.21a4.8,4.8,0,0,1,4.79-4.79h6.61v5.07H9.29a1.17,1.17,0,0,0-1.17,1.17V68.17a1.17,1.17,0,0,0,1.17,1.17H39A1.17,1.17,0,1,0,39,67H10.46V17.83h3.28v3.52a1.17,1.17,0,0,0,1.17,1.17H46.74a1.18,1.18,0,0,0,1.18-1.17V17.83h3.27V45.77H42.88a1.18,1.18,0,0,0-1.17,1.17V76.48H7.13a4.8,4.8,0,0,1-4.79-4.79V31.49a1.17,1.17,0,0,0-2.34,0v40.2a7.14,7.14,0,0,0,7.13,7.13H77.61a1.18,1.18,0,0,0,1.18-1.17V46.94A1.18,1.18,0,0,0,77.61,45.77ZM16.08,20.18V8.79a1.26,1.26,0,0,1,1.26-1.26h5.94a1.17,1.17,0,0,0,1.09-.75,6.91,6.91,0,0,1,12.91,0,1.17,1.17,0,0,0,1.09.75h6a1.26,1.26,0,0,1,1.25,1.26V20.18ZM65.17,48.11v11.5l-4.34-2.45a1.2,1.2,0,0,0-1.16,0l-4.34,2.45V48.11ZM76.44,76.48H44.06V48.11H53v13.5a1.15,1.15,0,0,0,.58,1,1.17,1.17,0,0,0,1.17,0l5.51-3.11,5.51,3.11a1.19,1.19,0,0,0,.58.15,1.16,1.16,0,0,0,.59-.16,1.15,1.15,0,0,0,.58-1V48.11h8.93Z"/><path class="cls-1" d="M22.13,29.05a1.17,1.17,0,0,0-1.58.49l-2.64,5L16.34,32a1.17,1.17,0,0,0-2,1.23L17,37.57a1.17,1.17,0,0,0,1,.55h0a1.15,1.15,0,0,0,1-.62l3.59-6.87A1.17,1.17,0,0,0,22.13,29.05Z"/><path class="cls-1" d="M47.1,33.52a1.17,1.17,0,0,0-1.17-1.17H26.27a1.17,1.17,0,0,0,0,2.34H45.93A1.17,1.17,0,0,0,47.1,33.52Z"/><path class="cls-1" d="M22.13,42.4a1.16,1.16,0,0,0-1.58.5l-2.64,5-1.57-2.57a1.17,1.17,0,0,0-2,1.23L17,50.92a1.16,1.16,0,0,0,1,.56h0a1.15,1.15,0,0,0,1-.62L22.62,44A1.17,1.17,0,0,0,22.13,42.4Z"/><path class="cls-1" d="M26.27,45.7a1.17,1.17,0,1,0,0,2.34H38.75a1.17,1.17,0,1,0,0-2.34Z"/></g></g></svg>