<svg xmlns="http://www.w3.org/2000/svg" viewBox="0 0 62 75.49"><defs><style>.cls-1{fill:#3d5da6;}</style></defs><title>HomeTips Auto 3@1x</title><g id="Capa_2" data-name="Capa 2"><g id="Capa_1-2" data-name="Capa 1"><path class="cls-1" d="M60.47,50.74,58.1,48.37V36.46a1.11,1.11,0,1,0-2.21,0v9.7l-5.72-5.72a1.1,1.1,0,0,0-1.56,0l-.2.2L46,38.22a21.65,21.65,0,1,0-5.45,5.45L43,46.09l-.2.2a1.12,1.12,0,0,0,0,1.57L53.05,58.15a5.26,5.26,0,0,0,2.84,1.46v2.63H46a1.11,1.11,0,0,0-1.11,1.11v9.93H2.22V47.11a1.11,1.11,0,0,0-2.22,0V74.38a1.11,1.11,0,0,0,1.11,1.11H46.18l.06,0h0l.06,0h0l.06,0,0,0,.06,0,0,0,.08-.06h0l.08-.07,11-11a.52.52,0,0,0,.1-.11l0,0a.75.75,0,0,0,.07-.12h0a.61.61,0,0,0,.05-.12l0,0,0-.14h0a.59.59,0,0,0,0-.14V59.51a5.25,5.25,0,0,0,2.37-1.36h0A5.25,5.25,0,0,0,60.47,50.74Zm-13.4,21V64.46h7.25ZM41.93,39.62a19.88,19.88,0,0,1-2,1.71l-.06.05a19.46,19.46,0,0,1-25.5-29.29A19.46,19.46,0,0,1,43.68,37.62l0,0a20.1,20.1,0,0,1-1.72,2Zm.37,2.68c.42-.36.82-.73,1.21-1.12s.75-.78,1.11-1.19l2.22,2.22-2.31,2.31ZM58.9,56.58a3,3,0,0,1-4.28,0l-9.51-9.51.2-.2h0L49.19,43h0l.2-.2,6.82,6.82h0L58.9,52.3A3,3,0,0,1,58.9,56.58Z"/><path class="cls-1" d="M38.28,38.22A1.12,1.12,0,0,0,36.73,38,14.89,14.89,0,0,1,17.6,15.29,1.11,1.11,0,1,0,16,13.73a17.11,17.11,0,0,0,22,26A1.12,1.12,0,0,0,38.28,38.22Z"/><path class="cls-1" d="M28.18,8.65a17.12,17.12,0,0,0-9,2.54,1.11,1.11,0,1,0,1.17,1.89A14.89,14.89,0,0,1,39.19,35.79a1.11,1.11,0,0,0,.07,1.56,1.09,1.09,0,0,0,.75.29,1.11,1.11,0,0,0,.82-.36A17.11,17.11,0,0,0,28.18,8.65Z"/><path class="cls-1" d="M57,0H1.11A1.11,1.11,0,0,0,0,1.11v42.3a1.11,1.11,0,1,0,2.22,0V2.22H55.89V32.76a1.11,1.11,0,1,0,2.21,0V1.11A1.11,1.11,0,0,0,57,0Z"/><path class="cls-1" d="M42,56.65H14.36a1.11,1.11,0,1,0,0,2.21H42a1.11,1.11,0,1,0,0-2.21Z"/><path class="cls-1" d="M42,51.43H14.36a1.11,1.11,0,0,0,0,2.22H42a1.11,1.11,0,0,0,0-2.22Z"/><path class="cls-1" d="M33.42,61.86H14.36a1.11,1.11,0,0,0,0,2.22H33.42a1.11,1.11,0,0,0,0-2.22Z"/><path class="cls-1" d="M37.87,23.78V20.61a.42.42,0,0,0-.41-.41h-.28V19.15a1,1,0,0,0-1-1H32.73v0a1,1,0,0,0-1-1H24.2a1,1,0,0,0-1,1v0H19.75a1,1,0,0,0-1,1V20.2h-.28a.41.41,0,0,0-.4.41v3.17a1.52,1.52,0,0,0,.68,1.27v8.53h-.36a.32.32,0,0,0,0,.64H37.55a.32.32,0,0,0,0-.64h-.37V25.05A1.53,1.53,0,0,0,37.87,23.78Zm-14-5.66a.37.37,0,0,1,.37-.36h7.53a.36.36,0,0,1,.36.36v.35h0a.36.36,0,0,1-.36.36H24.2a.37.37,0,0,1-.37-.36Zm-4.45,1a.37.37,0,0,1,.37-.36h3.49a1,1,0,0,0,1,.68h7.53a1,1,0,0,0,.95-.68h3.5a.36.36,0,0,1,.36.36V20.2H19.38Zm15.45,1.7v2.93a.88.88,0,0,1-1.76,0V20.85Zm-2.4,0v2.93a.88.88,0,1,1-1.75,0V20.85Zm-2.39,0v2.93a.88.88,0,0,1-1.76,0V20.85Zm-2.4,0v2.93a.88.88,0,1,1-1.75,0V20.85Zm-2.4,0v2.93a.88.88,0,1,1-1.75,0V20.85Zm-2.39,0v2.93a.88.88,0,0,1-1.76,0V20.85ZM18.7,23.78V20.85h1.75v2.93a.88.88,0,1,1-1.75,0Zm5.52,9.8H20.75v-.73h3.47Zm0-1.38H20.75V26.68h3.47Zm12.32,1.38H24.86V26.35a.32.32,0,0,0-.32-.32H20.43a.32.32,0,0,0-.32.32v7.23h-.73V25.29h.19a1.53,1.53,0,0,0,1.2-.58,1.53,1.53,0,0,0,2.4,0,1.53,1.53,0,0,0,1.2.58,1.51,1.51,0,0,0,1.19-.58,1.53,1.53,0,0,0,2.4,0,1.53,1.53,0,0,0,2.4,0,1.53,1.53,0,0,0,1.2.58,1.51,1.51,0,0,0,1.19-.58,1.53,1.53,0,0,0,2.4,0,1.53,1.53,0,0,0,1.2.58h.19Zm-.19-8.92a.87.87,0,0,1-.88-.88V20.85h1.75v2.93A.87.87,0,0,1,36.35,24.66Z"/><path class="cls-1" d="M35.49,26H25.91a.32.32,0,0,0-.32.32v6.18a.32.32,0,0,0,.32.32h9.58a.32.32,0,0,0,.32-.32V26.35A.32.32,0,0,0,35.49,26Zm-.32,6.17h-2.1V31.13h1a.32.32,0,1,0,0-.64H31.38a.32.32,0,0,0,0,.64h1.05V32.2H29V31.13h1a.32.32,0,1,0,0-.64H27.28a.32.32,0,0,0,0,.64h1V32.2H26.23V26.68h2.09v.42a1.35,1.35,0,0,0-1,1.31.32.32,0,0,0,.32.32h.7v0a.33.33,0,1,0,.65,0v0h.7a.32.32,0,0,0,.32-.32,1.34,1.34,0,0,0-1-1.31v-.42h3.46v.42a1.34,1.34,0,0,0-1,1.31.32.32,0,0,0,.32.32h.7v0a.33.33,0,0,0,.32.33.32.32,0,0,0,.32-.33v0h.71a.32.32,0,0,0,.32-.32,1.35,1.35,0,0,0-1-1.31v-.42h2.1Z"/><path class="cls-1" d="M23.51,30.45a.32.32,0,0,0,.32-.32v-.69a.32.32,0,0,0-.64,0v.69A.32.32,0,0,0,23.51,30.45Z"/></g></g></svg>