<svg xmlns="http://www.w3.org/2000/svg" viewBox="0 0 59.24 78.75"><defs><style>.cls-1{fill:#3d5da6;}</style></defs><title>HomeTips Auto 4@1x</title><g id="Capa_2" data-name="Capa 2"><g id="Capa_1-2" data-name="Capa 1"><path class="cls-1" d="M43.3,76.44H2.17v-57a1.12,1.12,0,0,0-1.08-1.16A1.13,1.13,0,0,0,0,19.42v57.4a1.87,1.87,0,0,0,1.81,1.93H43.3a1.16,1.16,0,0,0,0-2.31Z"/><path class="cls-1" d="M58.93,10.45,49.69.35A1,1,0,0,0,48.92,0H1.81A1.87,1.87,0,0,0,0,1.93v9A1.13,1.13,0,0,0,1.09,12.1a1.12,1.12,0,0,0,1.08-1.16V2.31H48.46l8.6,9.42V76.44H50.91a1.16,1.16,0,0,0,0,2.31h6.51a1.88,1.88,0,0,0,1.82-1.93V11.26A1.26,1.26,0,0,0,58.93,10.45Z"/><path class="cls-1" d="M58.93,10.45,49.69.35A1,1,0,0,0,48.51.09a1.15,1.15,0,0,0-.68,1.07v10.1a1.12,1.12,0,0,0,1.09,1.15h9.23a1.07,1.07,0,0,0,1-.7A1.23,1.23,0,0,0,58.93,10.45ZM50,10.1V4l5.58,6.1Z"/><path class="cls-1" d="M34.64,6.14H8.47A1.87,1.87,0,0,0,6.66,8.06v6.39a1.88,1.88,0,0,0,1.81,1.93H34.64a1.88,1.88,0,0,0,1.81-1.93V8.06A1.87,1.87,0,0,0,34.64,6.14Zm-.36,7.93H8.84V8.45H34.28Z"/><path class="cls-1" d="M35.8,49.57a2.58,2.58,0,0,0,.4,3,2.86,2.86,0,0,0,1.18.71,1.73,1.73,0,0,1,1.14,1.09,2.56,2.56,0,0,0,.75,1.12,2.8,2.8,0,0,0,1.86.69,2.93,2.93,0,0,0,2-.79L51,48a2.6,2.6,0,0,0,.1-3.69,2.84,2.84,0,0,0-1.17-.72,1.74,1.74,0,0,1-1.15-1.09A2.68,2.68,0,0,0,48,41.34,2.92,2.92,0,0,0,44.83,41L36.27,32.8a2.58,2.58,0,0,0-.4-3,2.82,2.82,0,0,0-1.17-.71A1.79,1.79,0,0,1,33.55,28a2.56,2.56,0,0,0-.74-1.12,2.91,2.91,0,0,0-3.87.1l-7.82,7.46A2.59,2.59,0,0,0,21,38.1a2.75,2.75,0,0,0,1.18.71,1.74,1.74,0,0,1,1.14,1.1A2.53,2.53,0,0,0,24.08,41a2.8,2.8,0,0,0,1.86.69,3,3,0,0,0,1.31-.3l2.4,2.3L7.33,65a2.73,2.73,0,0,0,0,4,3.06,3.06,0,0,0,2.08.82A3,3,0,0,0,11.49,69l22.32-21.3ZM50,45.17h0A1.29,1.29,0,0,1,50,47l-7.82,7.46a1.45,1.45,0,0,1-1.93.07,1.33,1.33,0,0,1-.38-.56,2.85,2.85,0,0,0-.33-.68l9.23-8.82a3.13,3.13,0,0,0,.72.33A1.33,1.33,0,0,1,50,45.17Zm-3-2.86a1.37,1.37,0,0,1,.37.56,3.16,3.16,0,0,0,.34.69l-9.24,8.81a2.92,2.92,0,0,0-.72-.32,1.35,1.35,0,0,1-.58-.36,1.31,1.31,0,0,1,.07-1.85l3.91-3.73,3.91-3.73a1.46,1.46,0,0,1,1-.4A1.39,1.39,0,0,1,47.05,42.31ZM22,37.2a1.31,1.31,0,0,1,.07-1.85l7.82-7.46a1.47,1.47,0,0,1,1-.41,1.34,1.34,0,0,1,.92.34,1.28,1.28,0,0,1,.37.55,2.77,2.77,0,0,0,.34.69l-9.24,8.81a3.35,3.35,0,0,0-.72-.32A1.44,1.44,0,0,1,22,37.2Zm3,2.85a1.3,1.3,0,0,1-.38-.55,2.74,2.74,0,0,0-.33-.69L33.55,30a3.59,3.59,0,0,0,.72.32,1.35,1.35,0,0,1,.58.36h0a1.28,1.28,0,0,1-.07,1.84L27,40A1.44,1.44,0,0,1,25,40.05Zm10.35-6.22,8.37,8-3.53,3.36-3.53,3.37-8.36-8ZM10.51,68a1.61,1.61,0,0,1-2.19,0,1.43,1.43,0,0,1,0-2.1l22.32-21.3,2.19,2.1Z"/><path class="cls-1" d="M29.12,22.81H8.64a.82.82,0,1,0,0,1.64H29.12a.82.82,0,0,0,0-1.64Z"/><path class="cls-1" d="M29.12,19H8.64a.82.82,0,0,0,0,1.64H29.12a.82.82,0,0,0,0-1.64Z"/><path class="cls-1" d="M28.76,26.68H14.64a.82.82,0,0,0,0,1.64H28.76a.82.82,0,1,0,0-1.64Z"/></g></g></svg>