<svg xmlns="http://www.w3.org/2000/svg" xmlns:xlink="http://www.w3.org/1999/xlink" viewBox="0 0 303 171.05"><defs><style>.cls-1{fill:#3d5da6;}.cls-2{fill:none;stroke:#3d5da6;stroke-miterlimit:10;stroke-width:6px;}.cls-3{fill:url(#Degradado_sin_nombre_18);}.cls-4{fill:url(#Degradado_sin_nombre_18-2);}</style><linearGradient id="Degradado_sin_nombre_18" x1="148.02" y1="83.79" x2="288.8" y2="83.79" gradientUnits="userSpaceOnUse"><stop offset="0.03" stop-color="#e67d23"/><stop offset="1" stop-color="#fbb03b"/></linearGradient><linearGradient id="Degradado_sin_nombre_18-2" x1="190.21" y1="115.37" x2="245.02" y2="115.37" xlink:href="#Degradado_sin_nombre_18"/></defs><title>Buen propietario-Como ser</title><g id="Layer_2" data-name="Layer 2"><g id="Capa_1" data-name="Capa 1"><path class="cls-1" d="M259.1,106.23l5.71-7.61H238.93v9.14h-3.05V84.92H241A7.58,7.58,0,0,0,248.58,78l2.5-26.27a4.52,4.52,0,0,0,0-.52v-.36a5.54,5.54,0,0,0-11-.61l-2.5,22.47H225.23V70.06a12.4,12.4,0,0,0,3.67-4.93h.89A6.09,6.09,0,0,0,235.88,59V46.86a18.27,18.27,0,0,0-36.53,0V59a6.09,6.09,0,0,0,6.08,6.09h.9A12.3,12.3,0,0,0,210,70.06v2.68H197.66l-2.49-22.47a5.54,5.54,0,0,0-11,.61v.36a4.84,4.84,0,0,0,0,.53L186.65,78a7.58,7.58,0,0,0,7.58,6.89h5.12v22.84h-3V98.62H170.42l5.71,7.61-5.71,7.62h16.75v4.56a4.57,4.57,0,0,0,4.56,4.57h51.76a4.58,4.58,0,0,0,4.57-4.57v-4.56h16.75Zm-16-55.63a2.49,2.49,0,0,1,5,.28v.36a1.93,1.93,0,0,1,0,.24l-1.59,16.7h-5.33Zm-2.5,22.48.21-1.86h5.37l-.62,6.52A4.56,4.56,0,0,1,241,81.88h-8.16v25.88h-13.7V84l6.58,6.58,6.58-14.82h5.26A3,3,0,0,0,240.59,73.08ZM229,75.79l-4.24,9.53-5-5,4.56-4.57Zm.82-13.7h-.1a12.82,12.82,0,0,0,.1-1.53V56a3,3,0,1,1,0,6.09ZM217.61,31.64a15.24,15.24,0,0,1,15.23,15.22V53.8a6.07,6.07,0,0,0-3.05-.85,3,3,0,0,0-3-3H224.7a4.62,4.62,0,0,1-3.23-1.34l-3.86-3.86-3.86,3.86a4.59,4.59,0,0,1-3.23,1.34h-2a3,3,0,0,0-3,3,6.06,6.06,0,0,0-3,.85V46.86A15.24,15.24,0,0,1,217.61,31.64ZM205.43,62.09a3,3,0,0,1,0-6.09v4.56a12.81,12.81,0,0,0,.11,1.53Zm3-1.53V53h2a7.56,7.56,0,0,0,5.39-2.23l1.7-1.7,1.71,1.7A7.56,7.56,0,0,0,224.7,53h2.05v7.61a9.14,9.14,0,1,1-18.27,0Zm9.13,12.18a12.16,12.16,0,0,0,4.57-.89v1.79l-4.57,4.56-4.56-4.56V71.85A12.15,12.15,0,0,0,217.61,72.74Zm-6.72,3.05,4.57,4.57-5,5-4.23-9.53ZM187.17,51.24v-.36a2.49,2.49,0,0,1,5-.28l2,17.58h-5.32l-1.59-16.7A1.93,1.93,0,0,1,187.17,51.24Zm7.06,30.64a4.55,4.55,0,0,1-4.55-4.14l-.62-6.52h5.37l.21,1.86a3,3,0,0,0,3,2.71h5.26l6.59,14.82L216.09,84v23.73h-13.7V81.88ZM176.51,110.8l3.43-4.57-3.43-4.56h16.75v6.09h-6.09v3ZM245,118.41a1.54,1.54,0,0,1-1.53,1.53H191.73a1.53,1.53,0,0,1-1.52-1.53V110.8H245Zm13.7-7.61H248.06v-3H242v-6.09h16.75l-3.43,4.56Z"/><path class="cls-1" d="M167.11,163.21H77.88V116.15a4.06,4.06,0,0,0-4.19-3.92H40.2A4.06,4.06,0,0,0,36,116.15v47.06H27.64V103.64a23.63,23.63,0,0,0,15.07-9.1,24.34,24.34,0,0,0,38.52,0,24.34,24.34,0,0,0,38.52,0,23.24,23.24,0,0,0,8.59,7,108.76,108.76,0,0,1-2-11.93A13.33,13.33,0,0,1,123.94,82V73c0-.12,0-.24,0-.36l-3.43-34.93h12.57c1-2.66,2.14-5.29,3.37-7.85H27.64V22h113q2.37-4,5.07-7.84H23.45a4.06,4.06,0,0,0-4.19,3.92V33L.38,71.38s0,0,0,0a2.36,2.36,0,0,0-.12.28,1,1,0,0,0,0,.1,1.58,1.58,0,0,0-.09.31l0,.08c0,.11,0,.23,0,.34s0,0,0,.07,0,.28,0,.42v9c0,10.77,8.32,19.74,19.26,21.6v59.57H4.19a3.93,3.93,0,1,0,0,7.84H178.31A109.06,109.06,0,0,1,167.11,163.21ZM85.42,76.94h15.64a3.93,3.93,0,1,0,0-7.84H85.82L88.9,37.73h23.18l3.49,35.47V82c0,7.78-6.77,14.11-15.08,14.11S85.42,89.82,85.42,82ZM80.49,37.73,77.41,69.1h-3a3.93,3.93,0,1,0,0,7.84H77V82C77,89.82,70.28,96.15,62,96.15S46.9,89.82,46.9,82V73.55L57.45,37.73ZM8.37,82v-5.1H19.71a3.93,3.93,0,1,0,0-7.84h-9L26.13,37.73H48.77L38.67,72a3.68,3.68,0,0,0-.15,1v9c0,7.78-6.76,14.11-15.07,14.11S8.37,89.82,8.37,82Zm61.14,55.68H65.32a3.93,3.93,0,1,0,0,7.84h4.19v17.65H44.38V120.07H69.51Z"/><circle class="cls-2" cx="219.21" cy="83.79" r="80.79"/><path class="cls-3" d="M268,46.42a61,61,0,0,1-5.45,80.9,63,63,0,0,1-88.27,0,61,61,0,0,1,0-87.07,63,63,0,0,1,84.84-3.11l5.3-6a71,71,0,0,0-95.76,3.42,69,69,0,0,0,0,98.45,70.95,70.95,0,0,0,99.51,0,69,69,0,0,0,5.2-92.68Z"/><path class="cls-4" d="M245,118.41a1.54,1.54,0,0,1-1.53,1.53H191.73a1.53,1.53,0,0,1-1.52-1.53V110.8H245Z"/></g></g></svg>