<svg xmlns="http://www.w3.org/2000/svg" xmlns:xlink="http://www.w3.org/1999/xlink" viewBox="0 0 135.35 135.35"><defs><style>.cls-1{fill:#3d5da6;}.cls-2{fill:url(#Degradado_sin_nombre_18);}.cls-3{fill:url(#Degradado_sin_nombre_18-2);}.cls-4{fill:url(#Degradado_sin_nombre_18-3);}.cls-5{fill:url(#Degradado_sin_nombre_18-4);}</style><linearGradient id="Degradado_sin_nombre_18" x1="8.73" y1="69.86" x2="34.93" y2="69.86" gradientUnits="userSpaceOnUse"><stop offset="0.03" stop-color="#e67d23"/><stop offset="1" stop-color="#fbb03b"/></linearGradient><linearGradient id="Degradado_sin_nombre_18-2" x1="15.92" y1="61.9" x2="45.2" y2="61.9" xlink:href="#Degradado_sin_nombre_18"/><linearGradient id="Degradado_sin_nombre_18-3" x1="8.73" y1="106.97" x2="34.93" y2="106.97" xlink:href="#Degradado_sin_nombre_18"/><linearGradient id="Degradado_sin_nombre_18-4" x1="15.92" y1="99.01" x2="45.2" y2="99.01" xlink:href="#Degradado_sin_nombre_18"/></defs><title>Buen propietario-Ejemplo-02</title><g id="Layer_2" data-name="Layer 2"><g id="Capa_1" data-name="Capa 1"><path class="cls-1" d="M96.19,69.86A6.51,6.51,0,0,1,99.82,71l15.25,10.16A10.88,10.88,0,0,0,121.13,83h14.22V78.59H121.13a6.54,6.54,0,0,1-3.64-1.1l-6.16-4.11V0H28.38V13.1H0V135.35H83v-13.1h28.37V103.88l.42-.07,10.16-2.54a28.57,28.57,0,0,1,6.89-.85h6.55V96.05H128.8a32.78,32.78,0,0,0-8,1l-10.16,2.54A28.57,28.57,0,0,1,94.82,99l-3.68-1.23a32.92,32.92,0,0,0-10.37-1.68h-19a6.56,6.56,0,0,1,6.55-6.55h24a6.53,6.53,0,0,0,.76-13l1.79-6.62ZM93.43,103.1a32.65,32.65,0,0,0,10.37,1.69c1.06,0,2.12-.1,3.17-.2v13.29H83v-7.14a7.82,7.82,0,0,0,1.67-3.11L86.42,101a27.79,27.79,0,0,1,3.34.87Zm-11.38-2.63-1.63,6A3.6,3.6,0,0,1,77,109.15h-.71a3.6,3.6,0,0,1-3.6-3.6,3.79,3.79,0,0,1,.12-.94l1.14-4.19h6.87C81.2,100.42,81.62,100.45,82.05,100.47Zm-12.68,0-.82,3a8.14,8.14,0,0,0-.28,2.08,7.93,7.93,0,0,0,4,6.88l-.69,2.74,4.24,1.06.68-2.71H77a8.16,8.16,0,0,0,1.64-.19V131H4.37V17.46H32.75V4.37H107v66.1l-4.72-3.15a11,11,0,0,0-6.06-1.83H96l9.09-33.62a8,8,0,0,0-7.69-10h-.71A8,8,0,0,0,89,27.72L83,50.17V13.1H37.11v4.36H78.59v48H74.07a10.83,10.83,0,0,0-6.48,2.18H45.84V72H63l-4.36,4.37H45.84v4.36h8.43l-3.65,3.65a6.82,6.82,0,0,0,4.82,11.63,7,7,0,0,0,2-.31c0,.1,0,.2,0,.31a4.37,4.37,0,0,0,4.37,4.37ZM86.19,85.14H78L87.25,51l7.48,2.5ZM69.44,71.77a6.63,6.63,0,0,1,4.63-1.91h3.57l-1.79,6.59a10.81,10.81,0,0,0-7.31,3.15L57.17,91a2.45,2.45,0,1,1-3.46-3.46Zm2.19,10.92a6.46,6.46,0,0,1,3-1.68L73.5,85.14H69.18Zm29.26-51.95-2.67,9.89-7.49-2.5,2.51-9.27a3.6,3.6,0,0,1,3.47-2.66h.71a3.6,3.6,0,0,1,3.6,3.59A3.4,3.4,0,0,1,100.89,30.74ZM89.59,42.35l7.49,2.5L95.87,49.3l-7.48-2.49Zm2.7,38.42a2.19,2.19,0,0,1,0,4.37H90.71l1.18-4.37Z"/><path class="cls-1" d="M65.49,21.83H8.73V43.66H65.49ZM61.12,39.29h-48V26.2h48Z"/><path class="cls-1" d="M17.46,30.56h4.37v4.37H17.46Z"/><path class="cls-1" d="M26.2,30.56h4.36v4.37H26.2Z"/><path class="cls-1" d="M34.93,30.56h4.36v4.37H34.93Z"/><path class="cls-1" d="M43.66,30.56H48v4.37H43.66Z"/><path class="cls-1" d="M52.39,30.56h4.37v4.37H52.39Z"/><path class="cls-2" d="M34.93,69.86H30.56v8.73H13.1V61.12H26.2V56.76H8.73V83h26.2Z"/><path class="cls-3" d="M42.12,48.67,21.83,69,19,66.13l-3.09,3.09,5.91,5.91L45.2,51.75Z"/><path class="cls-4" d="M30.56,115.7H13.1V98.24H26.2V93.87H8.73v26.2h26.2V107H30.56Z"/><path class="cls-5" d="M19,103.24l-3.09,3.09,5.91,5.91L45.2,88.86l-3.08-3.08L21.83,106.06Z"/><path class="cls-1" d="M69.86,120.07h4.36v4.36H69.86Z"/><path class="cls-1" d="M41.48,120.07h24v4.36h-24Z"/><path class="cls-1" d="M45.84,58.94H74.22v4.37H45.84Z"/></g></g></svg>