<svg xmlns="http://www.w3.org/2000/svg" xmlns:xlink="http://www.w3.org/1999/xlink" viewBox="0 0 113.52 135.35"><defs><style>.cls-1{fill:url(#Degradado_sin_nombre_18);}.cls-2{fill:#3d5da6;}</style><linearGradient id="Degradado_sin_nombre_18" x1="-2992.31" y1="92.58" x2="-2946.83" y2="92.58" gradientTransform="matrix(-1, 0, 0, 1, -2922.58, 0)" gradientUnits="userSpaceOnUse"><stop offset="0.03" stop-color="#e67d23"/><stop offset="1" stop-color="#fbb03b"/></linearGradient></defs><title>Buen propietario-Ejemplo-03</title><g id="Layer_2" data-name="Layer 2"><g id="Capa_1" data-name="Capa 1"><path class="cls-1" d="M30.72,104.12l-3.32,5.44a6.33,6.33,0,0,0-.2,6.25,6.05,6.05,0,0,0,5,3.32h.93a6.09,6.09,0,0,0,5-3.32,6.32,6.32,0,0,0-.22-6.27l-3.31-5.44a2.31,2.31,0,0,0-2-1.1h0a2.3,2.3,0,0,0-2,1.1Zm-.59,10.15a3,3,0,0,1,.1-3l2.43-4,2.44,4a3.05,3.05,0,0,1,.09,3,2.76,2.76,0,0,1-2.3,1.53h-.46a2.76,2.76,0,0,1-2.28-1.54ZM55.41,76V74.88h1.16a4.43,4.43,0,1,0,0-8.85H45.41a4.43,4.43,0,1,0,0,8.85h1.16v1.06h-.39a4.42,4.42,0,0,0-4.34,3.58H31.24A4.43,4.43,0,0,0,26.81,84v8.46a4.45,4.45,0,0,0-2.57,4v.5a4.43,4.43,0,0,0,4.43,4.43h8a4.42,4.42,0,0,0,4.42-4.43v-.5a4.41,4.41,0,0,0-2.57-4V91.22h3.32a4.43,4.43,0,0,0,4.35,3.57H56a4.41,4.41,0,0,0,4.32-3.57h5a4.42,4.42,0,0,0,4.42-4.42V84h0a4.42,4.42,0,0,0-4.42-4.42h-5A4.42,4.42,0,0,0,56,76Zm-1.66-4.4h0a1.67,1.67,0,0,0-1.66,1.66V77.6a1.66,1.66,0,0,0,1.66,1.66H56a1.11,1.11,0,0,1,1.11,1.11v.81a1.66,1.66,0,0,0,1.66,1.66h6.64A1.11,1.11,0,0,1,66.46,84v2.84a1.11,1.11,0,0,1-1.1,1.11H58.72a1.66,1.66,0,0,0-1.66,1.66v.81A1.11,1.11,0,0,1,56,91.48H46.18a1.11,1.11,0,0,1-1.11-1.11v-.81a1.65,1.65,0,0,0-1.65-1.66H36.85a1.66,1.66,0,0,0-1.66,1.66v4.13a1.66,1.66,0,0,0,1.54,1.66,1.1,1.1,0,0,1,1,1.1V97a1.11,1.11,0,0,1-1.11,1.1h-8a1.1,1.1,0,0,1-1.1-1.1v-.51a1.1,1.1,0,0,1,1-1.1,1.65,1.65,0,0,0,1.54-1.66V84a1.11,1.11,0,0,1,1.11-1.1H43.41a1.66,1.66,0,0,0,1.66-1.66v-.82a1.1,1.1,0,0,1,1.11-1.1h2a1.66,1.66,0,0,0,1.66-1.66v-4.4a1.67,1.67,0,0,0-1.66-1.66H45.4a1.11,1.11,0,1,1,0-2.21H56.57a1.11,1.11,0,1,1,0,2.21H53.75Z"/><path class="cls-2" d="M65.49,113.52h13.1v4.36H65.49Z"/><path class="cls-2" d="M48,122.25H78.59v4.37H48Z"/><path class="cls-2" d="M69.86,34.93H26.2V56.76H69.86ZM65.49,52.39H30.56V39.29H65.49Z"/><path class="cls-2" d="M45.84,43.66h4.37V48H45.84Z"/><path class="cls-2" d="M54.58,43.66h4.36V48H54.58Z"/><path class="cls-2" d="M37.11,43.66h4.37V48H37.11Z"/><path class="cls-2" d="M113.52,18.74,94.77,0H34.93V26.2H0V135.35H87.32v-26.2h26.2ZM96.05,7.45l10,10h-10ZM83,131H21.83V85.14H17.46V131H4.37V30.56H17.46V80.77h4.37V30.56H74.22v62L83,101.32Zm4.36-26.19V99.52l-8.73-8.74V83H96.05V78.59H78.59V74.22h26.2V69.86H78.59V65.49h26.2V61.12H78.59V56.76H83V52.39H78.59V48h26.2V43.66H78.59V39.29h26.2V34.93H78.59V26.2H39.29V4.37h52.4V21.83h17.46v83Z"/><path class="cls-2" d="M43.66,8.73H87.32V13.1H43.66Z"/><path class="cls-2" d="M83,17.46h4.36v4.37H83Z"/><path class="cls-2" d="M43.66,17.46H78.59v4.37H43.66Z"/><path class="cls-2" d="M87.32,52.39h17.47v4.37H87.32Z"/><path class="cls-2" d="M100.42,78.59h4.37V83h-4.37Z"/></g></g></svg>