<svg xmlns="http://www.w3.org/2000/svg" xmlns:xlink="http://www.w3.org/1999/xlink" viewBox="0 0 135.35 135.35"><defs><style>.cls-1{fill:url(#Degradado_sin_nombre_18);}.cls-2{fill:url(#Degradado_sin_nombre_18-2);}.cls-3{fill:url(#Degradado_sin_nombre_18-3);}.cls-4{fill:url(#Degradado_sin_nombre_18-4);}.cls-5{fill:url(#Degradado_sin_nombre_18-5);}.cls-6{fill:#3d5da6;}</style><linearGradient id="Degradado_sin_nombre_18" x1="21.83" y1="98.24" x2="78.59" y2="98.24" gradientUnits="userSpaceOnUse"><stop offset="0.03" stop-color="#e67d23"/><stop offset="1" stop-color="#fbb03b"/></linearGradient><linearGradient id="Degradado_sin_nombre_18-2" x1="74.22" y1="115.7" x2="78.59" y2="115.7" xlink:href="#Degradado_sin_nombre_18"/><linearGradient id="Degradado_sin_nombre_18-3" x1="21.83" y1="115.7" x2="69.86" y2="115.7" xlink:href="#Degradado_sin_nombre_18"/><linearGradient id="Degradado_sin_nombre_18-4" x1="21.83" y1="106.97" x2="48.03" y2="106.97" xlink:href="#Degradado_sin_nombre_18"/><linearGradient id="Degradado_sin_nombre_18-5" x1="52.39" y1="106.97" x2="78.59" y2="106.97" xlink:href="#Degradado_sin_nombre_18"/></defs><title>Buen propietario-Ejemplo-01</title><g id="Layer_2" data-name="Layer 2"><g id="Capa_1" data-name="Capa 1"><path class="cls-1" d="M21.83,96.05H78.59v4.37H21.83Z"/><path class="cls-2" d="M74.22,113.52h4.37v4.36H74.22Z"/><path class="cls-3" d="M21.83,113.52h48v4.36h-48Z"/><path class="cls-4" d="M21.83,104.79H48v4.36H21.83Z"/><path class="cls-5" d="M52.39,104.79h26.2v4.36H52.39Z"/><path class="cls-6" d="M104.82,28.17l-4.4,1.89V8.73H74.22V4.37A4.37,4.37,0,0,0,69.86,0H30.56A4.37,4.37,0,0,0,26.2,4.37V8.73H0V135.35H100.42V104.66l4.37,2.69,6.66-4.11a50.52,50.52,0,0,0,23.9-42.75V42.26ZM96.05,13.1V31.93L91.69,33.8V17.46H74.22V13.1ZM4.37,131V13.1H26.2v4.36H8.73V126.62h83V98.5a51.22,51.22,0,0,0,4.36,3.38V131ZM131,60.49a46.13,46.13,0,0,1-21.82,39l-4.37,2.69-4.38-2.69a46.16,46.16,0,0,1-21.82-39V45.06l5.28-2.44-1.83-4-7.82,3.6V60.48a50.55,50.55,0,0,0,13.1,33.74v28H13.1V21.83H65.49V17.46H30.56V4.37h39.3V21.83H87.32V40.42L104.75,33,131,45.06Z"/><path class="cls-6" d="M122.94,74l-2-2a.66.66,0,0,0-.94,0l-.53.53-11-11,.53-.53a.66.66,0,0,0,0-.94L106.8,57.8l1.38-1.38a2.73,2.73,0,0,0,.5,0h1.83a2.66,2.66,0,0,0,2.66-2.66V52a2.65,2.65,0,0,0-.78-1.88l-8.8-8.8a2.65,2.65,0,0,0-1.88-.78H99.88a2.66,2.66,0,0,0-2.66,2.66V45a2.73,2.73,0,0,0,0,.5L86.92,55.86a2.73,2.73,0,0,0-.5,0H84.59a2.66,2.66,0,0,0-2.66,2.66V60.3a2.65,2.65,0,0,0,.78,1.88l8.8,8.8a2.65,2.65,0,0,0,1.88.78h1.83a2.66,2.66,0,0,0,2.66-2.66V67.27a2.73,2.73,0,0,0,0-.5l1.38-1.38,2.19,2.19a.68.68,0,0,0,.94,0l.53-.53,11,11-.53.53a.66.66,0,0,0,0,.94l2,2a.65.65,0,0,0,.94,0l6.64-6.64A.66.66,0,0,0,122.94,74ZM99.21,63.51l-9-9,5.71-5.71,9,9Zm-.66-20.33a1.33,1.33,0,0,1,1.33-1.33h1.83a1.33,1.33,0,0,1,.94.39l8.8,8.8a1.33,1.33,0,0,1,.39.94v1.83a1.33,1.33,0,0,1-1.33,1.33h-1.83a1.28,1.28,0,0,1-.94-.39L98.94,46a1.32,1.32,0,0,1-.39-.94ZM98,46.89l8.8,8.8.12.11-1.06,1.06-9-9,1.06-1.06ZM96.55,69.1a1.33,1.33,0,0,1-1.33,1.33H93.39a1.33,1.33,0,0,1-.94-.39l-8.8-8.8a1.33,1.33,0,0,1-.39-.94V58.47a1.33,1.33,0,0,1,1.33-1.33h1.83a1.32,1.32,0,0,1,.94.39l8.8,8.8a1.28,1.28,0,0,1,.39.94Zm.55-3.71-8.8-8.8-.12-.11,1.06-1.06,9,9-1.06,1.06Zm3.05-.94,5.71-5.71,1.72,1.72-5.71,5.71Zm3.66,1.66,3.71-3.71,11,11-3.71,3.71Zm12,14-1.06-1.05,5.71-5.71,1,1.06Z"/><path class="cls-6" d="M75.45,69.12V66.6s0-.06,0-.09v0s0,0,0-.08v0a.25.25,0,0,0,0-.07h0l-5-10.21V52.14a1.08,1.08,0,0,0-1.12-1H28.29a1.08,1.08,0,0,0-1.11,1v3.94l-5,10.21h0l0,.07v0l0,.08v0s0,.06,0,.09v0a.37.37,0,0,0,0,.11v2.39a6,6,0,0,0,5.12,5.74V90.68h-4a1,1,0,1,0,0,2.09H74.34a1,1,0,1,0,0-2.09h-4V74.86A6,6,0,0,0,75.45,69.12ZM72.6,65.68H65L62.5,57.35h6ZM55,66.63l-.91-9.28h6.12l2.46,8.33H58.48a1,1,0,1,0,0,2.09H63v1.35a4,4,0,0,1-8,0V66.73S55,66.66,55,66.63ZM29.4,53.18H68.11v2.09H29.4Zm19.51,12.5h-4l.82-8.33h6.16l.92,9.42v2.35a4,4,0,0,1-8,0V67.77h4.16a1,1,0,1,0,0-2.09Zm-7.08,2.09h.7v1.35a4,4,0,0,1-8,0V66.87l2.8-9.52h6.12l-.81,8.33h-.8a1,1,0,1,0,0,2.09ZM24.29,69.12V67.77h3a1,1,0,1,0,0-2.09H24.91L29,57.35h6l-2.68,9.1a.86.86,0,0,0,0,.28v2.39a4,4,0,0,1-8,0ZM40.53,83.91H39.41a1,1,0,1,0,0,2.09h1.12v4.68H33.85V79.23h6.68Zm27.58,6.77H42.75V78.18a1.08,1.08,0,0,0-1.11-1h-8.9a1.08,1.08,0,0,0-1.11,1v12.5H29.4V74.86a6.28,6.28,0,0,0,4-2.42,6.47,6.47,0,0,0,10.23,0,6.47,6.47,0,0,0,10.23,0,6.48,6.48,0,0,0,10.24,0,6.26,6.26,0,0,0,4,2.42Zm1.11-17.81a3.89,3.89,0,0,1-4-3.75V67.77h8v1.35A3.89,3.89,0,0,1,69.22,72.87Z"/><path class="cls-6" d="M64.77,77.14H46.09a1.08,1.08,0,0,0-1.11,1v9.38a1.08,1.08,0,0,0,1.11,1H64.77a1.08,1.08,0,0,0,1.12-1V78.18s0-.06,0-.1a.06.06,0,0,0,0,0,.13.13,0,0,0,0-.06.09.09,0,0,0,0,0s0,0,0-.05,0,0,0,0,0,0,0,0l0,0,0,0,0,0,0,0,0,0,0,0-.06-.06h0l-.07-.06,0,0,0,0,0,0,0,0,0,0,0,0,0,0H65.1l0,0h-.28ZM47.2,86.52V79.23h8.6l-.48.44a1,1,0,0,0,0,1.48,1.18,1.18,0,0,0,1.57,0l2-1.92h3.15L54.3,86.52Zm16.46,0H57.45l6.21-5.82Z"/><path class="cls-6" d="M52.74,82.09l-.49.45a1,1,0,0,0,0,1.48,1.16,1.16,0,0,0,.79.3,1.18,1.18,0,0,0,.79-.3l.48-.46a1,1,0,0,0,0-1.47A1.16,1.16,0,0,0,52.74,82.09Z"/><path class="cls-6" d="M69.35,26.57H27.46V47.51H69.35ZM65.16,43.32H31.65V30.76H65.16Z"/><path class="cls-6" d="M46.31,34.94H50.5v4.19H46.31Z"/><path class="cls-6" d="M54.69,34.94h4.19v4.19H54.69Z"/><path class="cls-6" d="M37.94,34.94h4.18v4.19H37.94Z"/></g></g></svg>