<svg xmlns="http://www.w3.org/2000/svg" viewBox="0 0 142.11 190.06"><defs><style>.cls-1{fill:none;stroke:#3d5da6;stroke-miterlimit:10;stroke-width:2px;}.cls-1,.cls-3{fill-rule:evenodd;}.cls-2,.cls-3{fill:#3d5da6;}</style></defs><title>Buen propietario-Estrategias-Talleres Opticas</title><g id="Layer_2" data-name="Layer 2"><g id="Capa_1" data-name="Capa 1"><path class="cls-1" d="M7.16,142.23c0,.08.54,1.26.67,1.7l2.28,5.88c.94,2.06,1.74,3.48,2.83,5.47a68.38,68.38,0,0,0,24.93,25,65.17,65.17,0,0,0,40.59,8.34l7.28-1.1a69.59,69.59,0,0,0,23.34-10.16c4.73-3.23,5.4-4.41,9.07-7.54a42.24,42.24,0,0,0,4-4.34,69.08,69.08,0,0,0,6.9-9.72,71.06,71.06,0,0,0,4.13-8.33c1.71-4.33,1.79-5.45,3.08-9.36a32.79,32.79,0,0,0,.68-3.55,25.45,25.45,0,0,0,.62-3.48c.52-9.44.57-6.22.11-15.84a27.74,27.74,0,0,0-.45-3.78,61.26,61.26,0,0,0-3.5-13.36c-.4-1-.81-2-1.23-2.92l-2.76-5.56A80.84,80.84,0,0,0,123,79.73C118.23,74,111.39,67.88,105,64.4c-3.83-2.1-6.81-4-11.33-5.31C90,58,88.4,57.25,84,56.32l-7.21-1a88.83,88.83,0,0,0-12.26.15c-5.66.8-8.53,1-13.91,2.91a40.7,40.7,0,0,0-4.55,1.59C32.85,65.57,20.62,75.26,13.61,87.87A64.58,64.58,0,0,0,8.23,99.13c-1.72,4.4-1.76,5.74-2.78,9.63-1.28,4.84-1.62,14.54-1.08,19.3a64.83,64.83,0,0,0,1,7.34Z"/><path class="cls-2" d="M135.18,46.22c4.07,0,6.93-2.1,6.93-5.84v-.06c0-3.28-2.16-4.66-6-5.65-3.26-.84-4.07-1.24-4.07-2.48v-.06c0-.91.83-1.64,2.42-1.64a7.8,7.8,0,0,1,4,1.27,2,2,0,0,0,1.05.29,1.92,1.92,0,0,0,1-3.55,10.93,10.93,0,0,0-6-1.67c-3.85,0-6.6,2.26-6.6,5.68v.05c0,3.75,2.45,4.8,6.25,5.77,3.15.81,3.79,1.34,3.79,2.39v.06c0,1.1-1,1.78-2.72,1.78a8,8,0,0,1-4.82-1.7,2,2,0,0,0-1.18-.38,1.91,1.91,0,0,0-1.94,1.91A2,2,0,0,0,128.1,44a12.16,12.16,0,0,0,7.08,2.26m-20.73-8.16,2.61-6.22,2.61,6.22Zm-6.68,6.11a1.9,1.9,0,0,0,1.91,1.94,2,2,0,0,0,1.91-1.29l1.32-3.1h8.3l1.26,3a2.11,2.11,0,0,0,2,1.43,2,2,0,0,0,2-2,2.12,2.12,0,0,0-.21-.84l-6.57-14.84a2.54,2.54,0,0,0-2.4-1.64H117a2.58,2.58,0,0,0-2.43,1.64L108,43.28A2.32,2.32,0,0,0,107.77,44.17Zm-8.67,2.1a9.49,9.49,0,0,0,6.71-2.37,1.91,1.91,0,0,0-1.24-3.39,1.92,1.92,0,0,0-1.24.46,6.09,6.09,0,0,1-4.1,1.48c-3.23,0-5.46-2.69-5.46-5.93v-.05a5.58,5.58,0,0,1,5.46-5.87A6.12,6.12,0,0,1,103.08,32a2.27,2.27,0,0,0,1.24.4,2,2,0,0,0,2.05-2,2.06,2.06,0,0,0-.81-1.64,10,10,0,0,0-6.3-1.92,9.58,9.58,0,0,0-9.83,9.75v.06A9.51,9.51,0,0,0,99.1,46.27ZM82.48,44a2.08,2.08,0,0,0,4.15,0V29a2.08,2.08,0,0,0-4.15,0ZM70.31,44a2.08,2.08,0,0,0,4.15,0V30.92h4a1.91,1.91,0,0,0,0-3.82H66.33a1.91,1.91,0,1,0,0,3.82h4ZM53.16,36.6V30.84h3.2c2.08,0,3.37,1,3.37,2.86v0c0,1.62-1.21,2.85-3.29,2.85ZM49,44a2.08,2.08,0,0,0,4.15,0V40.29h3.15c4.23,0,7.62-2.26,7.62-6.62v-.06c0-3.85-2.72-6.51-7.22-6.51H51.09A2.06,2.06,0,0,0,49,29.17ZM36.27,25.51a3,3,0,0,0,2.35-.89l1.67-1.56a1.36,1.36,0,0,0,.54-1c0-.62-1.3-1.24-2.29-1.24a1.76,1.76,0,0,0-1.54.91l-1.48,2.32a1.59,1.59,0,0,0-.27.73C35.25,25.24,35.68,25.51,36.27,25.51Zm.14,16.94a5.73,5.73,0,0,1-5.71-5.93v-.05a5.64,5.64,0,0,1,5.66-5.87,5.72,5.72,0,0,1,5.71,5.92v.06A5.64,5.64,0,0,1,36.41,42.45Zm0,3.82a9.75,9.75,0,0,0,10-9.75v-.05a9.66,9.66,0,0,0-10-9.7,9.75,9.75,0,0,0-10,9.75v.06A9.66,9.66,0,0,0,36.36,46.27ZM6.6,44a2.08,2.08,0,0,0,4.15,0V38.6l6.08-8.22a2.56,2.56,0,0,0,.54-1.45,1.92,1.92,0,0,0-2-2,2.36,2.36,0,0,0-2,1.24L8.7,34.8,4.12,28.2a2.38,2.38,0,0,0-2.05-1.26,2,2,0,0,0-2.07,2,2.49,2.49,0,0,0,.51,1.48L6.6,38.68ZM130.48,19.42c4.07,0,6.93-2.1,6.93-5.85v-.05c0-3.29-2.16-4.66-6-5.66-3.26-.83-4.07-1.23-4.07-2.47V5.33c0-.91.83-1.64,2.42-1.64a7.8,7.8,0,0,1,4,1.27,2.09,2.09,0,0,0,1,.29,1.92,1.92,0,0,0,1-3.55,10.93,10.93,0,0,0-6-1.67c-3.85,0-6.6,2.26-6.6,5.68v0c0,3.75,2.45,4.8,6.25,5.77,3.15.81,3.8,1.34,3.8,2.39V14c0,1.1-1,1.78-2.72,1.78a8,8,0,0,1-4.83-1.7,1.94,1.94,0,0,0-1.18-.38,1.91,1.91,0,0,0-1.94,1.91,2,2,0,0,0,.78,1.57A12.23,12.23,0,0,0,130.48,19.42Zm-21.59-.27h10.58a1.84,1.84,0,0,0,1.86-1.83,1.86,1.86,0,0,0-1.86-1.86h-8.54v-4h7.19A1.84,1.84,0,0,0,120,9.67a1.86,1.86,0,0,0-1.86-1.86h-7.19V4h8.41a1.85,1.85,0,1,0,0-3.69H108.89a2.06,2.06,0,0,0-2.08,2.07V17.08A2.06,2.06,0,0,0,108.89,19.15ZM92.57,9.45V4h4.12c2,0,3.26.92,3.26,2.69v.06c0,1.59-1.16,2.66-3.18,2.66Zm-4.15,7.79a2.08,2.08,0,0,0,4.15,0V13.12h3.31l4,5.11a2.49,2.49,0,0,0,2,1.08,1.93,1.93,0,0,0,2-1.91,2.43,2.43,0,0,0-.67-1.59l-2.88-3.5a5.76,5.76,0,0,0,3.77-5.74V6.52a5.92,5.92,0,0,0-1.62-4.31A7.49,7.49,0,0,0,97,.3H90.49a2.06,2.06,0,0,0-2.07,2.07ZM73.53,19.15H84.11A1.84,1.84,0,0,0,86,17.32a1.86,1.86,0,0,0-1.86-1.86H75.58v-4h7.19a1.84,1.84,0,0,0,1.86-1.83,1.87,1.87,0,0,0-1.86-1.86H75.58V4H84A1.85,1.85,0,1,0,84,.3H73.53a2,2,0,0,0-2.07,2.07V17.08A2.06,2.06,0,0,0,73.53,19.15ZM55.86,17.08a2.06,2.06,0,0,0,2.08,2.07h9.75a1.89,1.89,0,0,0,0-3.77H60V2.21a2.08,2.08,0,1,0-4.15,0Zm-15.59,0a2.06,2.06,0,0,0,2.08,2.07H52.1a1.89,1.89,0,0,0,0-3.77H44.42V2.21a2.08,2.08,0,1,0-4.15,0ZM26.11,11.26,28.72,5l2.61,6.22Zm-6.68,6.11a1.9,1.9,0,0,0,1.91,1.94A2,2,0,0,0,23.25,18l1.32-3.1h8.3l1.26,3a2.11,2.11,0,0,0,2,1.43,2,2,0,0,0,2-2,2.12,2.12,0,0,0-.21-.84L31.31,1.64A2.54,2.54,0,0,0,28.91,0h-.24a2.58,2.58,0,0,0-2.43,1.64L19.67,16.48A2.32,2.32,0,0,0,19.43,17.37Zm-8.67-.13a2.08,2.08,0,0,0,4.15,0V4.12h4a1.92,1.92,0,0,0,1.92-1.91A1.92,1.92,0,0,0,18.89.3H6.77a1.91,1.91,0,0,0,0,3.82h4Z"/><path class="cls-3" d="M124.49,119.92l-4.85-6.25c-4.78-5.71-10-12.64-14.8-18.6a53.77,53.77,0,0,0-5.11-6c-2.42-2.08-4.82-2.83-8.84-1.16-3.24,1.36-6.65,5.44-8.76,8.09a32.09,32.09,0,0,0-2.48,3.17c-3.15,5,4.33,8.69,6.62,3.23,1.1-2.62,4.53-8.78,8.06-8.84,2.92-.05,5.15,3.36,6.48,4.93l12.87,15c.86,1,1.78,2,2.64,3,1.69,2.08,1.47,2.12,3.18,2.42s3.25.75,5,1"/><path class="cls-3" d="M16,119.9c1.63-.4,3-.72,4.77-1,1.88-.31,1.45-.11,3.29-2.33,1.69-2,3.33-3.94,5.16-6,3.5-4,6.77-8,10.3-12,1.36-1.55,3.36-5,6.56-4.64,3.55.35,6.55,6.23,7.87,8.83,2.52,5,10.08,1.46,6.7-3.81A78.22,78.22,0,0,0,53,90.07c-2.23-1.85-5.1-3.6-8.54-3-3.77.64-6.61,5.37-8.91,8.12-3.11,3.7-6.58,8.35-9.78,12.3Z"/><path class="cls-3" d="M127.42,123.05c-1.46-2-4-2.35-7-3-5.44-1.14-12.68-1.52-18.4-1.71-15.6-.52-25.9,5.44-36,3.43-2.83-.56-5.75-1.09-8.52-1.68s-5.62-.88-8.39-1.38a107,107,0,0,0-19.36.22c-3.21.32-9.86,1.08-12.87,2.22s-3.67,5.75-1.49,7.55c.6.49,1,.51,1.52,1,2.31,2.12.95,8.11,2.13,13.16,2.94,12.52,14.82,14.34,26,14.37,6.45,0,11.62-1.45,15.56-4.59,4.14-3.31,5.72-9,5.89-14.37.1-3,.73-6.53,2.66-7.64A3.45,3.45,0,0,1,73,131c4.16,3.59-.94,17.93,11.42,23.87A24.83,24.83,0,0,0,92.24,157c6.09.57,12.86.27,18.36-1.48,17.75-5.64,9.94-22.3,14.52-25.84,1.2-.92,2.06-.82,2.67-2.44A4.9,4.9,0,0,0,127.42,123.05ZM60,142.31a12.14,12.14,0,0,1-8,8.11c-6.26,2.26-20.4,1.68-25.27-5.06-2.63-3.64-2.61-8.42-2.51-13.54.11-5.43,3.25-7,8.38-7.66a91.73,91.73,0,0,1,15.48-.44c5,.27,9.67,1.06,11.6,4.57C61.44,131.47,61.19,138.69,60,142.31Zm55.56,3.05c-4.87,6.74-19,7.32-25.27,5.06a12.13,12.13,0,0,1-8-8.11c-1.22-3.62-1.47-10.84.28-14,1.94-3.51,6.62-4.3,11.6-4.57a91.73,91.73,0,0,1,15.48.44c5.13.65,8.27,2.23,8.39,7.66C118.15,136.94,118.16,141.72,115.53,145.36Z"/></g></g></svg>