<svg xmlns="http://www.w3.org/2000/svg" viewBox="0 0 197.87 163.29"><defs><style>.cls-1{fill:none;stroke:#3d5da6;stroke-miterlimit:10;stroke-width:2px;}.cls-1,.cls-3{fill-rule:evenodd;}.cls-2,.cls-3{fill:#3d5da6;}</style></defs><title>Buen propietario-Estrategias-Veterinarios</title><g id="Layer_2" data-name="Layer 2"><g id="Capa_1" data-name="Capa 1"><path class="cls-1" d="M35.05,115.46c0,.07.53,1.26.66,1.7L38,123c.93,2.06,1.74,3.48,2.83,5.47a68.28,68.28,0,0,0,24.92,25,65.18,65.18,0,0,0,40.6,8.33l7.28-1.09a69.9,69.9,0,0,0,12.63-4.22,67.32,67.32,0,0,0,10.7-5.94c4.74-3.23,5.4-4.41,9.07-7.55a40.08,40.08,0,0,0,4-4.33,67.58,67.58,0,0,0,6.9-9.73,69.28,69.28,0,0,0,4.14-8.32c1.7-4.33,1.78-5.45,3.08-9.37.32-1,.46-2.48.68-3.55a26.92,26.92,0,0,0,.62-3.47c.51-9.44.56-6.22.11-15.84a27.33,27.33,0,0,0-.46-3.78,60.09,60.09,0,0,0-3.5-13.37c-.39-1-.8-2-1.23-2.91l-2.76-5.56c-5.43-9.75-15-19.86-24.71-25.19-3.82-2.09-6.8-4-11.33-5.3-3.68-1.06-5.28-1.85-9.68-2.77l-7.2-1a89,89,0,0,0-12.27.14c-5.65.8-8.52,1-13.91,2.91A41,41,0,0,0,74,33.17C60.73,38.79,48.51,48.48,41.5,61.09a62.92,62.92,0,0,0-5.38,11.27c-1.73,4.4-1.76,5.73-2.79,9.63-1.28,4.84-1.62,14.53-1.08,19.29a65.32,65.32,0,0,0,1,7.35Z"/><path class="cls-2" d="M191,19.44c4.07,0,6.92-2.1,6.92-5.84v0c0-3.29-2.15-4.66-6-5.66-3.25-.83-4.06-1.24-4.06-2.48v0c0-.92.83-1.64,2.42-1.64a7.81,7.81,0,0,1,4,1.26,2,2,0,0,0,1,.3,1.92,1.92,0,0,0,1-3.56,11,11,0,0,0-6-1.67c-3.86,0-6.6,2.27-6.6,5.69v0c0,3.74,2.45,4.79,6.25,5.76,3.15.81,3.79,1.35,3.79,2.4V14c0,1.11-1,1.78-2.72,1.78a8,8,0,0,1-4.82-1.69,2,2,0,0,0-1.18-.38,1.92,1.92,0,0,0-1.16,3.47A12.14,12.14,0,0,0,191,19.44m-19.17-3.77a5.72,5.72,0,0,1-5.71-5.92V9.7a5.64,5.64,0,0,1,5.65-5.88,5.73,5.73,0,0,1,5.71,5.93V9.8A5.63,5.63,0,0,1,171.78,15.67Zm-.06,3.83a9.75,9.75,0,0,0,10.05-9.75V9.7a10,10,0,0,0-20,.05V9.8A9.67,9.67,0,0,0,171.72,19.5Zm-16.93-2.24a2.07,2.07,0,1,0,4.14,0v-15a2.07,2.07,0,1,0-4.14,0ZM140.35,9.48V4.07h4.12c2,0,3.26.91,3.26,2.69v0c0,1.59-1.16,2.67-3.18,2.67Zm-4.14,7.78a2.07,2.07,0,1,0,4.14,0V13.14h3.32l4,5.12a2.47,2.47,0,0,0,2,1.08,1.93,1.93,0,0,0,2-1.91,2.39,2.39,0,0,0-.68-1.59l-2.88-3.51a5.74,5.74,0,0,0,3.77-5.73V6.54a5.91,5.91,0,0,0-1.61-4.3,7.52,7.52,0,0,0-5.5-1.92h-6.54a2.06,2.06,0,0,0-2.07,2.08Zm-14.17-6,2.61-6.22,2.62,6.22Zm-6.68,6.12a1.91,1.91,0,0,0,1.91,1.94,2,2,0,0,0,1.92-1.3L120.51,15h8.29l1.27,3a2.11,2.11,0,0,0,2,1.43,1.93,1.93,0,0,0,1.75-2.83L127.24,1.67A2.54,2.54,0,0,0,124.84,0h-.24a2.55,2.55,0,0,0-2.42,1.64L115.6,16.51A2.28,2.28,0,0,0,115.36,17.4Zm-18.9-.11a2,2,0,1,0,4.09,0V7.19l8.3,10.88A2.54,2.54,0,0,0,111,19.28h.14a2.06,2.06,0,0,0,2.07-2.07v-15a2,2,0,1,0-4.09,0v9.72l-8-10.5A2.57,2.57,0,0,0,99,.22h-.43a2,2,0,0,0-2.07,2.07Zm-7.78,0a2.07,2.07,0,1,0,4.14,0v-15a2.07,2.07,0,1,0-4.14,0ZM74.24,9.48V4.07h4.12c2,0,3.26.91,3.26,2.69v0c0,1.59-1.16,2.67-3.18,2.67ZM70.1,17.26a2.07,2.07,0,1,0,4.14,0V13.14h3.32l4,5.12a2.47,2.47,0,0,0,2,1.08,1.93,1.93,0,0,0,2-1.91,2.39,2.39,0,0,0-.68-1.59l-2.88-3.51A5.74,5.74,0,0,0,85.82,6.6V6.54a5.91,5.91,0,0,0-1.61-4.3A7.52,7.52,0,0,0,78.71.32H72.17A2.06,2.06,0,0,0,70.1,2.4ZM55.2,19.18H65.79a1.85,1.85,0,1,0,0-3.69H57.25v-4h7.19A1.84,1.84,0,0,0,66.3,9.7a1.86,1.86,0,0,0-1.86-1.86H57.25V4h8.4a1.84,1.84,0,0,0,1.86-1.83A1.86,1.86,0,0,0,65.65.32H55.2A2.06,2.06,0,0,0,53.13,2.4V17.1A2.06,2.06,0,0,0,55.2,19.18ZM41.15,17.26a2.08,2.08,0,1,0,4.15,0V4.15h4a1.92,1.92,0,0,0,0-3.83H37.16a1.92,1.92,0,0,0,0,3.83h4ZM21.87,19.18H32.45a1.85,1.85,0,1,0,0-3.69H23.91v-4H31.1A1.84,1.84,0,0,0,33,9.7,1.86,1.86,0,0,0,31.1,7.84H23.91V4h8.41a1.84,1.84,0,0,0,1.85-1.83A1.86,1.86,0,0,0,32.32.32H21.87A2.07,2.07,0,0,0,19.79,2.4V17.1A2.07,2.07,0,0,0,21.87,19.18ZM8.7,19.47H9a2.43,2.43,0,0,0,2.34-1.64L17.48,3.07a2.35,2.35,0,0,0,.21-.92,2,2,0,0,0-2-2,2.16,2.16,0,0,0-2,1.32L8.89,13.82,4.17,1.62A2.15,2.15,0,0,0,2.07.16,2,2,0,0,0,0,2.21a2.62,2.62,0,0,0,.24,1L6.36,17.83A2.43,2.43,0,0,0,8.7,19.47Z"/><path class="cls-3" d="M84.5,90.36c0,.14,2.65,13,1.68,14l-2.11,2.21a6.54,6.54,0,0,0-1.52,2.14,8,8,0,0,1-.48.8c-1.48,2.78-.58,8.67-.65,8.79l-2,1.6a14.14,14.14,0,0,0-1.82,2l-1.43,2.24a17.1,17.1,0,0,0-1.7,3.91,11.28,11.28,0,0,1-.37,1.47c-.57,1.52-.26,5.45-.16,7.12.07,1.15.63,2,.51,3.27-22.71,2.09-21.67-24.55-5.33-32.23a2.78,2.78,0,0,0,.78-2.11c-.17-1.21-2.33-2.41-4-1.41-5.15,2.31-8,5-11.28,9.5-5,9.81-4.36,19.29,3.15,27a24.48,24.48,0,0,0,5.57,3.82,7.33,7.33,0,0,1,1.29.55l3.25.87c3.33.64,8.12.39,11.68.41,5.36,0,10.31.33,15.68.34,2.7,0,5.4,0,8.1,0,1.52,0,2.42-.19,3.79-.27,2.8-.16,2.17-3.73.8-4.78-1.8-1.35-2.15-.52-2.48-1.49a22.28,22.28,0,0,1-.94-7,31.51,31.51,0,0,1,.13-3.83,25.35,25.35,0,0,1,.5-3.61c.31-.85.66-2.94.78-3.27.33-.94.54-2.1.88-3a17.87,17.87,0,0,0,.06-7.32c-.62-1.74.15-.57-1-3.21l0-.1-.84-1.9a7.76,7.76,0,0,0-1-2c-.66-1.24.12-1.51,1.33-3.49a12.74,12.74,0,0,0,1.53-7.12,30.42,30.42,0,0,0-.67-3.32,3.48,3.48,0,0,1-.39-1.61,7.68,7.68,0,0,1,1-3.08,3.77,3.77,0,0,0,.4-1.52,11.39,11.39,0,0,0,.16-1.81c0-3.37-3.91,0-5.87,1.06s-1.44,1.36-3.85.92a12.67,12.67,0,0,0-4.74.26,7.72,7.72,0,0,1-2.1.38c-.75,0-3.14-2-4-2.56-2.32-1.56-4-3.49-3.84,1.52.09,2.4,1.59,4.9,1.6,5.88"/><path class="cls-3" d="M131.07,141a13.3,13.3,0,0,0-1.66-1.07c-.09-.9-.13-1.58-.15-2.51S129,135.92,129,135c-.1-1.7-.16-3.46-.18-5.23s-.24-3.14-.24-5c0-10.23,1.43-20.09,1.93-30,.33-6.49.4-14-3.25-19.79a20.85,20.85,0,0,0-1.61-2.43,1.23,1.23,0,0,1-.38-1c0-.39,1.79-4.19,2-4.74s.12-.58.59-.88c2.93,8.87,8.29-4,5.17-11.76-1.18-2.33-6-10.42-9.25-9.78-.77.16-1.38,1-2.09,1-2.08.26-3.73-.87-9.69-.19-3,.34-3.29-3.46-7.84,1-5.78,5.62-13.63,22.26-1.53,23.45,2.79.16,1.41-1.29,2.36-3.91.32.15,0-.11.36.24.12.14,1.74,3.8-1.55,5.13a12,12,0,0,0-3.49,3.72c-.63,1.48-4.67,8.37-4.54,9.34.72.14,2.08.18,2.89.24a2.88,2.88,0,0,0,2.45-.69l4.55-3.15a2.34,2.34,0,0,1,2.41-.51c2.63,1,0,6-.68,7.59-1.21,2.83,1.66,7.54.52,10.88a15.9,15.9,0,0,1-2,4.27c-.59.76-1,1-.39,2.17,2.26,4.43,4.2,7.45,4,12.3-.25,5.48-3.78,8.3-3.62,15.94a40.11,40.11,0,0,0,.56,5.56c.63,4,4.43-3,4.67,7.61,2.3.22,15.44,0,18.42-.08,1.66-.07,1.42,0,2.23-1.05a3.41,3.41,0,0,0,.39-2.77A4.92,4.92,0,0,0,131.07,141Zm-7.69-.85c-.28.27-3.86.14-4.27.12,0,0,3.19-23.53,3.37-24.3a.67.67,0,0,1,.18.23C122.76,116.35,123.45,140,123.38,140.11Z"/></g></g></svg>