<svg xmlns="http://www.w3.org/2000/svg" viewBox="0 0 135.86 190.06"><defs><style>.cls-1{fill:none;stroke:#3d5da6;stroke-miterlimit:10;stroke-width:2px;fill-rule:evenodd;}.cls-2{fill:#3d5da6;}</style></defs><title>Buen propietario-Estrategias-Adultos Mayores</title><g id="Layer_2" data-name="Layer 2"><g id="Capa_1" data-name="Capa 1"><path class="cls-1" d="M4,142.23c0,.08.53,1.26.67,1.7L7,149.81c.94,2.06,1.74,3.48,2.83,5.47a68.31,68.31,0,0,0,24.93,25,65.16,65.16,0,0,0,40.59,8.34l7.28-1.1a68.37,68.37,0,0,0,12.63-4.22,67.32,67.32,0,0,0,10.7-5.94c4.74-3.23,5.4-4.41,9.08-7.54a43.39,43.39,0,0,0,4-4.34,68.21,68.21,0,0,0,6.89-9.72,69.48,69.48,0,0,0,4.14-8.33c1.71-4.33,1.79-5.45,3.08-9.36a32.79,32.79,0,0,0,.68-3.55,25.45,25.45,0,0,0,.62-3.48c.52-9.44.56-6.22.11-15.84a27.74,27.74,0,0,0-.45-3.78,61.26,61.26,0,0,0-3.5-13.36c-.4-1-.81-2-1.23-2.92l-2.76-5.56a79.81,79.81,0,0,0-6.77-9.85C115.11,74,108.27,67.88,101.9,64.4c-3.83-2.1-6.81-4-11.33-5.31-3.69-1.06-5.29-1.84-9.68-2.77l-7.21-1a89,89,0,0,0-12.27.15c-5.65.8-8.52,1-13.9,2.91A40,40,0,0,0,43,59.94C29.73,65.57,17.5,75.26,10.49,87.87A64.58,64.58,0,0,0,5.11,99.13c-1.72,4.4-1.76,5.74-2.79,9.63C1.05,113.6.71,123.3,1.25,128.06a62.63,62.63,0,0,0,1,7.34Z"/><path class="cls-2" d="M125.22,46.25c4.07,0,6.92-2.1,6.92-5.85v0c0-3.29-2.15-4.66-6-5.66-3.26-.83-4.07-1.24-4.07-2.48v-.05c0-.92.83-1.64,2.42-1.64a7.91,7.91,0,0,1,4,1.26,2,2,0,0,0,1.05.3,1.92,1.92,0,0,0,1-3.56,11,11,0,0,0-6-1.67c-3.86,0-6.6,2.27-6.6,5.69v.05c0,3.74,2.45,4.79,6.25,5.76,3.15.81,3.79,1.35,3.79,2.4v.06c0,1.1-1,1.77-2.72,1.77a8,8,0,0,1-4.82-1.69,2,2,0,0,0-1.18-.38A1.92,1.92,0,0,0,118.14,44a12.15,12.15,0,0,0,7.08,2.27M103.62,46h10.59a1.84,1.84,0,0,0,1.86-1.83,1.86,1.86,0,0,0-1.86-1.86h-8.54v-4h7.19a1.84,1.84,0,0,0,1.86-1.83,1.86,1.86,0,0,0-1.86-1.86h-7.19V30.81h8.4A1.83,1.83,0,0,0,115.93,29a1.86,1.86,0,0,0-1.86-1.86H103.62a2.06,2.06,0,0,0-2.07,2.08V43.9A2.06,2.06,0,0,0,103.62,46Zm-16.31-9.7V30.87h4.12c2,0,3.26.91,3.26,2.69v0c0,1.59-1.16,2.67-3.18,2.67Zm-4.15,7.78a2.08,2.08,0,1,0,4.15,0V39.94h3.31l4,5.12a2.47,2.47,0,0,0,2,1.08,1.93,1.93,0,0,0,2-1.91A2.43,2.43,0,0,0,98,42.64l-2.88-3.5a5.77,5.77,0,0,0,3.77-5.74v0A5.92,5.92,0,0,0,97.27,29a7.51,7.51,0,0,0-5.49-1.92H85.23a2.06,2.06,0,0,0-2.07,2.08Zm-12.6-1.58a5.73,5.73,0,0,1-5.71-5.93v0a5.63,5.63,0,0,1,5.65-5.87,5.72,5.72,0,0,1,5.71,5.92v.05A5.64,5.64,0,0,1,70.56,42.48ZM70.5,46.3a9.75,9.75,0,0,0,10-9.75v0a10,10,0,0,0-20,0v.05A9.67,9.67,0,0,0,70.5,46.3ZM49.77,44.06a2.08,2.08,0,1,0,4.15,0V38.62L60,30.41A2.58,2.58,0,0,0,60.54,29a1.92,1.92,0,0,0-2-2,2.37,2.37,0,0,0-2,1.23l-4.66,6.66-4.58-6.6a2.37,2.37,0,0,0-2-1.27,2,2,0,0,0-2.07,2,2.45,2.45,0,0,0,.51,1.48l6.09,8.26Zm-17.07-6,2.61-6.23,2.61,6.23ZM26,44.2a1.9,1.9,0,0,0,1.91,1.94,2,2,0,0,0,1.91-1.29l1.32-3.1h8.29l1.27,3a2.12,2.12,0,0,0,2,1.43,1.93,1.93,0,0,0,1.75-2.83L37.89,28.47a2.51,2.51,0,0,0-2.39-1.64h-.25a2.56,2.56,0,0,0-2.42,1.64L26.26,43.31A2.12,2.12,0,0,0,26,44.2ZM5,44.12a2,2,0,0,0,2,2,2,2,0,0,0,2.05-2V34.75l3.58,5.52a1.94,1.94,0,0,0,3.45,0l3.63-5.61v9.4a2.06,2.06,0,1,0,4.12,0v-15A2,2,0,0,0,21.79,27h-.46a2,2,0,0,0-1.86,1.05l-5,8.18-5-8.16A2.13,2.13,0,0,0,7.54,27H7.08A2.06,2.06,0,0,0,5,29.09ZM123,19.45c4.06,0,6.92-2.11,6.92-5.85v0c0-3.29-2.16-4.66-6-5.66-3.26-.83-4.07-1.24-4.07-2.48v0c0-.92.84-1.64,2.43-1.64a7.84,7.84,0,0,1,4,1.26,2,2,0,0,0,1.05.3,1.92,1.92,0,0,0,1-3.56,11,11,0,0,0-6-1.67c-3.85,0-6.6,2.27-6.6,5.69v0c0,3.74,2.45,4.79,6.25,5.76,3.15.81,3.8,1.35,3.8,2.4V14c0,1.11-1,1.78-2.72,1.78a7.93,7.93,0,0,1-4.82-1.69,2,2,0,0,0-1.19-.38,1.9,1.9,0,0,0-1.94,1.91,1.94,1.94,0,0,0,.78,1.56A12.18,12.18,0,0,0,123,19.45Zm-19.18-3.78a5.72,5.72,0,0,1-5.71-5.92V9.7a5.64,5.64,0,0,1,5.66-5.88,5.73,5.73,0,0,1,5.71,5.93V9.8A5.64,5.64,0,0,1,103.77,15.67Zm0,3.83a9.75,9.75,0,0,0,10-9.75V9.7a10,10,0,0,0-20,.05V9.8A9.66,9.66,0,0,0,103.72,19.5ZM83.39,17.26a2.08,2.08,0,1,0,4.15,0V4.15h4a1.92,1.92,0,0,0,0-3.83H79.4a1.92,1.92,0,0,0,0,3.83h4ZM66.1,17.1a2.06,2.06,0,0,0,2.07,2.08h9.75a1.89,1.89,0,1,0,0-3.78H70.25V2.24a2.08,2.08,0,1,0-4.15,0ZM54.68,19.47c5.07,0,8.27-2.8,8.27-8.51V2.24a2.08,2.08,0,1,0-4.15,0v8.88c0,3-1.53,4.53-4.06,4.53S50.67,14.06,50.67,11V2.24a2.08,2.08,0,1,0-4.15,0V11.1C46.52,16.64,49.62,19.47,54.68,19.47Zm-23.7-4V4.07h3.21a5.41,5.41,0,0,1,5.68,5.68V9.8a5.37,5.37,0,0,1-5.68,5.63ZM26.84,17.1a2.06,2.06,0,0,0,2.07,2.08h5.28c5.92,0,10-4.13,10-9.43V9.7c0-5.31-4.1-9.38-10-9.38H28.91A2.06,2.06,0,0,0,26.84,2.4ZM12.67,11.28l2.62-6.22,2.61,6.22ZM6,17.4a1.91,1.91,0,0,0,1.92,1.94A2,2,0,0,0,9.82,18L11.14,15h8.29l1.27,3a2.12,2.12,0,0,0,2,1.43,1.93,1.93,0,0,0,1.75-2.83L17.87,1.67A2.54,2.54,0,0,0,15.47,0h-.24a2.56,2.56,0,0,0-2.42,1.64L6.24,16.51A2.14,2.14,0,0,0,6,17.4Z"/><path class="cls-2" d="M116.88,145.93c0-4.21,0-8.44,0-12.65,0-5.47.19-14.18,0-19.31-.08-2.22-2-2.5-2.24.71-3,.26-7.4.07-10.49,0-1.18,0-9.1.45-10.14-.35-.48-.69,0-1.4-2.63-2.58a3.31,3.31,0,0,1-1.63-1,12.55,12.55,0,0,1-1.07-1.53c.63-1.13,2.67-1.74,3.36-3.41.82-2,.27-3.79-.06-5.78a10,10,0,0,1-.62-1.32c-.81-.17-.51-.53-1.66-1.12l-1.43-.87c-.19-.18,0,.46-.19-.22,0-.06-.07-.07-.1-.11-1.15-.17-2.35-.75-3.67-.39-4.45,1.2-1.87.89-4.48,3.62-.87.91-.84,1.53-.33,2.27a4.67,4.67,0,0,0,.37.49h0c-.37-1,.32.33,0,0-.69.75-.91.21-1.28,1.16l-.71,1.74c.42.93.75.16.61,2.08-.12,1.48-.46,1-.32,1.91.45.31,1.15.3,1.43.78-.24.53-1,.49-1.69.71-2.7.85-2.63,2.23-3.44,3.82-7.82.54-8.66-2-10.57-3.5l-2.09-1.39c-.49-.43-.33-.15-.57-.84,3.54-2,1.23-.6,2.29-4.82.84-.4,1.15-.21.57-1.43s-.28-.31-.28-1.82c-1.17-.56-1.06,0-1.46-1.25-.79-2.54-1.34-3.26-4.07-3.6-.06-.15-.12-.36-.15-.42-.28-.63,0-.17-.26-.48-1.23,0-3.11.45-3.53,1.13-3.66,1.23-4.36,4.67-2.84,8.22.76,1.75,2.11,2.93-.5,3.59a9.8,9.8,0,0,0-3.63,2.18,10.49,10.49,0,0,0-3.4,4.49l-22.57-.08c-.13-1.52.12-1.14-.68-2.18-2.36-.2-1.7,1.65-1.7,3.89,0,1.86,0,3.74,0,5.6,0,10-.39,24.61.07,33.6.61.48.66,1.31,1.84,2,.35-.43,0,.32.37-.64.44-1.16-.35-9.8.25-11.12,1.2,0,.71-.19,1,2.71.1,1,.3,2.12.37,3.14.54,7.54.31,4.32-.48,6.29l1.17-.11c.28,4.08-.54,2.61,1.77,5.1a56.92,56.92,0,0,0,11.28,9.07l6.57,3.57a56.34,56.34,0,0,0,10,3.53,17.32,17.32,0,0,1,2.55.59c1.49,0,5.49,1,8.52,1.16a67.71,67.71,0,0,0,9.45-.05,75.79,75.79,0,0,0,15.83-3.5c6.48-2.07,15.66-7.93,20.54-12.83.76-.77,2.15-1.6,2.42-2.78-1.77.24-.33.49-1.36.87-.23-.5.82-9.82,1.1-12.33.17-1.43.29-2.77.4-4.36h1.77a65,65,0,0,1,.08,8.75c-.1,1,.12.63.11,1.58s-.36,1,0,2.33c0,.17,0,.17,0,.16a1.07,1.07,0,0,0,.06.17.67.67,0,0,0,.06.15l1.76-1.44C117.34,154.92,116.85,149.16,116.88,145.93ZM21.29,124.36c-.23-4.71-.13-4.27,1.5-4.28l19.69,0a31.16,31.16,0,0,1-.95,7.7H28c-2.34,0-3.26.42-3.43-.7a5.37,5.37,0,0,0-.09-.77C24.06,124.53,23.2,124.77,21.29,124.36Zm1.9,15.39c0-1.36.36-3.28.54-4.7.3-2.52-.05-2,3-2l16.81,0c.32,1.86-.19,3.81,1.16,5.66.47.64.74.57.92,1.34C42.28,140.24,24.89,140.44,23.19,139.75Zm22.63,19.93c-.91-.57,0-.83-1.08-.55-.82.22-.2.31-1.3.61.08-1.58.26-2.13-.73-2.45a.71.71,0,0,0-.07.16l-.14.52c-.1.82.22,1.18-.09,2.15-.25.1,0,.11-.47,0a4.13,4.13,0,0,1-1.46-1c-1.15-1-1-.13-1.82.18s-.42-.11-1.55-.16c-.43.62-.27.55-.26,1.44-2,0-1.31-.67-2.65-.69-1.49,0-1,.79-2.28,1-.67-1,.27-.63-1.21-1.72a5.34,5.34,0,0,0-2-.86l.07,1.52,1.05.41a4.35,4.35,0,0,1-1.45,2.06c-.7-.12-.53-.17-1-.47-1.27-.81-.34-.06-1.37-1.28-1.26-1.49-1,.2-1.36-2.5L23.8,148a11.16,11.16,0,0,1-.29-2.19c1.66-.56,16-.25,19-.25,7.51,0,6-.84,6.25,3.28.14,2.67.89,6.09.8,8.71C45.39,159.07,47.67,159,45.82,159.68Zm16.74,2.15a1.84,1.84,0,0,1-1.71-.43l-.1-.1-.25-.36a1.65,1.65,0,0,1-.25-.61c-2,0-1.7.63-1.69-3.41l-.2-9.87a6.8,6.8,0,0,1,3-.66C62.14,148.3,62.66,159.22,62.56,161.83Zm48.42-10c-.14.91-.22,2.19-.29,3,0,.63-.16,2.54-.26,3.07-.19,1-.41,0-.39,1.2s.38,1.39-.33,2.14l-.1.1a1.63,1.63,0,0,1-1.53.59c-1.87,0-1.41-.18-2.3-1.08s.26-.11-2.48-.94c-.24.38-.17.91-.49,1.3s.07,0-.48.32c-1.38.85-1.17.92-2.25.15,0-1,.27-1,.25-2.22-1.7.25-1.77,1.83-2.84,0-3.07-.24-1.27-.83-2.68-1.53-.37-.18-.77-.34-1.93.41,0,0-.64.49-.7.55-2,1.93-.92-.13-2.24.23-.75.21-.43.71-1.58.94,0-1.31.66-1.88-.21-2.61-1,1.18.5,3.19-.83,3.27-.25-.89.09-3.19.11-4.22a14.78,14.78,0,0,1,.87-3.63c.16-.65.26-1.11.42-1.92.13-.6.33-1,.54-1.66.3-1.06.31-2.82.76-3.77l21.51.07A40.93,40.93,0,0,1,111,151.8Zm.57-11.71-18.84,0c0-1.51,1.12-3,1.45-7.06l16.61.11a16.36,16.36,0,0,1,.41,3.43c0,.58,0,1.52.09,2.06C111.38,139.72,111.59,138.88,111.55,140.09Zm3.09-.2-1.38.06c-.86-1.07-1.09-6.52-1.07-6.88a4.17,4.17,0,0,1,2.26.26C114.84,133.72,114.72,139,114.64,139.89Zm-3.51-15.15c-1,.53-.91,1.68-1.1,2.82-2.32.22-14.94.38-16.81,0l.64-7.46c2-.35,19.49-.24,20.74.21C115.29,126.17,113.18,123.66,111.13,124.74Z"/></g></g></svg>