<svg xmlns="http://www.w3.org/2000/svg" viewBox="0 0 135.86 181.32"><defs><style>.cls-1,.cls-3{fill:#3d5da6;}.cls-2{fill:none;stroke:#3d5da6;stroke-miterlimit:10;stroke-width:2px;}.cls-2,.cls-3{fill-rule:evenodd;}</style></defs><title>Buen propietario-Estrategias-Salud Ambiental</title><g id="Layer_2" data-name="Layer 2"><g id="Capa_1" data-name="Capa 1"><path class="cls-1" d="M105.38,24.58,111.09,11l5.7,13.58ZM90.8,37.93A4.16,4.16,0,0,0,95,42.16a4.43,4.43,0,0,0,4.18-2.82L102,32.58h18.11l2.77,6.47a4.6,4.6,0,0,0,4.35,3.11A4.23,4.23,0,0,0,131.08,36L116.73,3.59A5.51,5.51,0,0,0,111.5,0H111a5.59,5.59,0,0,0-5.29,3.59L91.33,36A4.71,4.71,0,0,0,90.8,37.93ZM73.28,42.4c8.88,0,15.11-4.59,15.11-12.76v-.12c0-7.17-4.7-10.17-13-12.35-7.12-1.82-8.88-2.7-8.88-5.41v-.12c0-2,1.82-3.58,5.29-3.58a17.19,17.19,0,0,1,8.65,2.76,4.34,4.34,0,0,0,2.29.65A4.2,4.2,0,0,0,84.92,3.7a23.88,23.88,0,0,0-13-3.64C63.46.06,57.46,5,57.46,12.47v.11c0,8.18,5.35,10.47,13.64,12.59,6.88,1.76,8.3,2.94,8.3,5.23v.12c0,2.41-2.24,3.88-5.94,3.88a17.39,17.39,0,0,1-10.53-3.7,4.37,4.37,0,0,0-2.59-.83,4.17,4.17,0,0,0-4.23,4.18,4.23,4.23,0,0,0,1.7,3.41A26.61,26.61,0,0,0,73.28,42.4ZM41.65,37.64a4.53,4.53,0,0,0,9.05,0V4.82a4.53,4.53,0,1,0-9.05,0ZM13.37,21.41V8.82h7c4.53,0,7.36,2.18,7.36,6.23v.12c0,3.53-2.65,6.24-7.18,6.24ZM4.31,37.64a4.53,4.53,0,0,0,9.06,0V29.46h6.88c9.23,0,16.64-4.94,16.64-14.46v-.12C36.89,6.47,31,.65,21.13.65H8.84A4.49,4.49,0,0,0,4.31,5.17Z"/><path class="cls-2" d="M4,133.49c0,.07.53,1.25.67,1.7L7,141.07c.94,2.06,1.74,3.48,2.83,5.46a68.26,68.26,0,0,0,24.93,25,65.22,65.22,0,0,0,40.59,8.33l7.28-1.09a69.9,69.9,0,0,0,12.63-4.22,67.32,67.32,0,0,0,10.7-5.94c4.74-3.23,5.4-4.41,9.08-7.55a42.21,42.21,0,0,0,4-4.33,68.31,68.31,0,0,0,6.89-9.73,69.48,69.48,0,0,0,4.14-8.33c1.71-4.32,1.79-5.44,3.08-9.36a32.33,32.33,0,0,0,.68-3.55,25.58,25.58,0,0,0,.62-3.47c.52-9.45.56-6.22.11-15.85a27.74,27.74,0,0,0-.45-3.78,61.26,61.26,0,0,0-3.5-13.36c-.4-1-.81-2-1.23-2.91l-2.76-5.56A79.91,79.91,0,0,0,119.84,71c-4.73-5.72-11.57-11.84-17.94-15.33-3.83-2.09-6.81-4-11.33-5.3-3.69-1.06-5.29-1.85-9.68-2.77l-7.21-1a89,89,0,0,0-12.27.14c-5.65.8-8.52,1-13.9,2.91A42.07,42.07,0,0,0,43,51.19C29.73,56.82,17.5,66.51,10.49,79.12A64.31,64.31,0,0,0,5.11,90.39C3.39,94.78,3.35,96.12,2.32,100c-1.27,4.83-1.61,14.53-1.07,19.29a63.09,63.09,0,0,0,1,7.35Z"/><path class="cls-3" d="M81.07,165.72c9.25-42.59-36-67.68-34.59-95.13C24.67,111,29.36,173.77,80.81,166.89c-18.53-16.74-40-20.93-34.26-62.1-2.2,46,21.35,43.73,34.52,60.93"/><path class="cls-3" d="M83.23,130.74c18.43-14.34,8.44-40.19,18.45-51-22.86,9.13-42.48,36.54-19,51.39-1.87-13.25-9.27-22.35,7.24-37.31C73.27,112,83.72,119.14,83.23,130.74Z"/></g></g></svg>