<svg xmlns="http://www.w3.org/2000/svg" viewBox="0 0 209 195.96"><defs><style>.cls-1,.cls-3{fill:#3d5da6;}.cls-2{fill:none;stroke:#3d5da6;stroke-miterlimit:10;stroke-width:2px;}.cls-2,.cls-3{fill-rule:evenodd;}</style></defs><title>Buen propietario-Estrategias-Restaurantes</title><g id="Layer_2" data-name="Layer 2"><g id="Capa_1" data-name="Capa 1"><path class="cls-1" d="M202.07,52.17c4.07,0,6.93-2.1,6.93-5.84v-.06c0-3.28-2.16-4.66-6-5.65-3.26-.84-4.07-1.24-4.07-2.48v0c0-.92.84-1.65,2.42-1.65a7.8,7.8,0,0,1,4,1.27,2,2,0,0,0,1,.29,1.9,1.9,0,0,0,1.94-1.91,1.87,1.87,0,0,0-.91-1.64,10.93,10.93,0,0,0-6-1.67c-3.85,0-6.6,2.26-6.6,5.68v.06c0,3.74,2.45,4.79,6.25,5.76,3.15.81,3.8,1.35,3.8,2.4v0c0,1.11-1,1.78-2.72,1.78a8,8,0,0,1-4.83-1.7,1.94,1.94,0,0,0-1.18-.38A1.93,1.93,0,0,0,195,49.91a12.16,12.16,0,0,0,7.08,2.26m-21.59-.27h10.58a1.84,1.84,0,0,0,1.86-1.83,1.86,1.86,0,0,0-1.86-1.86h-8.54v-4h7.19a1.83,1.83,0,0,0,1.86-1.83,1.86,1.86,0,0,0-1.86-1.86h-7.19V36.74h8.41a1.84,1.84,0,0,0,1.86-1.83,1.86,1.86,0,0,0-1.86-1.86H180.48a2.06,2.06,0,0,0-2.08,2.07V49.83A2.06,2.06,0,0,0,180.48,51.9ZM166.42,50a2.08,2.08,0,0,0,4.15,0V36.87h4a1.91,1.91,0,1,0,0-3.82H162.43a1.91,1.91,0,1,0,0,3.82h4Zm-24.59,0a2.05,2.05,0,0,0,4.1,0V39.92l8.29,10.88A2.59,2.59,0,0,0,156.38,52h.13a2.06,2.06,0,0,0,2.08-2.07v-15a2.05,2.05,0,0,0-4.1,0v9.73l-8-10.51a2.58,2.58,0,0,0-2.15-1.21h-.43A2.07,2.07,0,0,0,141.83,35Zm-14.16-6,2.61-6.22L132.89,44ZM121,50.12a1.91,1.91,0,0,0,1.91,1.94,2,2,0,0,0,1.91-1.29l1.32-3.1h8.3l1.27,3a2.1,2.1,0,0,0,2,1.42,2,2,0,0,0,2-2,2,2,0,0,0-.21-.83L132.87,34.4a2.53,2.53,0,0,0-2.4-1.65h-.24a2.57,2.57,0,0,0-2.43,1.65l-6.57,14.84A2.23,2.23,0,0,0,121,50.12ZM108,42.21V36.79h4.12c2,0,3.26.92,3.26,2.7v0c0,1.59-1.16,2.67-3.18,2.67ZM103.89,50A2.08,2.08,0,0,0,108,50V45.87h3.31l4,5.12a2.48,2.48,0,0,0,2,1.07,1.93,1.93,0,0,0,2-1.91,2.45,2.45,0,0,0-.67-1.59l-2.88-3.5a5.75,5.75,0,0,0,3.77-5.74v0A5.92,5.92,0,0,0,118,35a7.49,7.49,0,0,0-5.49-1.91H106a2.06,2.06,0,0,0-2.07,2.07ZM92.47,52.2c5.07,0,8.27-2.8,8.27-8.51V35a2.08,2.08,0,0,0-4.15,0v8.89c0,3-1.53,4.52-4.06,4.52s-4.07-1.59-4.07-4.66V35a2.08,2.08,0,0,0-4.15,0v8.86C84.31,49.37,87.41,52.2,92.47,52.2ZM70.85,44l2.61-6.22L76.07,44Zm-6.68,6.11a1.9,1.9,0,0,0,1.91,1.94A2,2,0,0,0,68,50.77l1.32-3.1h8.3l1.26,3a2.12,2.12,0,0,0,2,1.42,2,2,0,0,0,2-2,2,2,0,0,0-.21-.83L76.05,34.4a2.53,2.53,0,0,0-2.4-1.65h-.24A2.57,2.57,0,0,0,71,34.4L64.41,49.24A2.23,2.23,0,0,0,64.17,50.12ZM55.5,50a2.08,2.08,0,0,0,4.15,0V36.87h4a1.91,1.91,0,1,0,0-3.82H51.51a1.91,1.91,0,0,0,0,3.82h4ZM42.06,52.17c4.07,0,6.92-2.1,6.92-5.84v-.06c0-3.28-2.15-4.66-6-5.65-3.26-.84-4.07-1.24-4.07-2.48v0c0-.92.83-1.65,2.42-1.65a7.8,7.8,0,0,1,4,1.27,2,2,0,0,0,1,.29,1.92,1.92,0,0,0,1-3.55,10.93,10.93,0,0,0-6-1.67c-3.85,0-6.6,2.26-6.6,5.68v.06c0,3.74,2.45,4.79,6.25,5.76,3.15.81,3.79,1.35,3.79,2.4v0c0,1.11-1,1.78-2.72,1.78a8,8,0,0,1-4.82-1.7,2,2,0,0,0-1.18-.38A1.93,1.93,0,0,0,35,49.91,12.16,12.16,0,0,0,42.06,52.17ZM20.47,51.9H31.05a1.84,1.84,0,0,0,1.86-1.83,1.87,1.87,0,0,0-1.86-1.86H22.51v-4H29.7a1.83,1.83,0,0,0,1.86-1.83,1.86,1.86,0,0,0-1.86-1.86H22.51V36.74h8.41a1.84,1.84,0,0,0,1.85-1.83,1.85,1.85,0,0,0-1.85-1.86H20.47a2.06,2.06,0,0,0-2.08,2.07V49.83A2.06,2.06,0,0,0,20.47,51.9ZM4.15,42.21V36.79H8.27c2,0,3.26.92,3.26,2.7v0c0,1.59-1.16,2.67-3.18,2.67ZM0,50a2.06,2.06,0,0,0,2.07,2.07A2.06,2.06,0,0,0,4.15,50V45.87H7.46l4,5.12a2.46,2.46,0,0,0,2.05,1.07,1.93,1.93,0,0,0,2-1.91,2.45,2.45,0,0,0-.67-1.59L12,45.06a5.75,5.75,0,0,0,3.77-5.74v0A5.92,5.92,0,0,0,14.11,35a7.49,7.49,0,0,0-5.49-1.91H2.07A2.06,2.06,0,0,0,0,35.12ZM164.08,23.22a2,2,0,0,0,4.09,0V13.12L176.46,24a2.59,2.59,0,0,0,2.16,1.21h.13a2.07,2.07,0,0,0,2.08-2.08v-15a2.05,2.05,0,0,0-4.1,0v9.73l-8-10.51a2.59,2.59,0,0,0-2.16-1.21h-.43a2.06,2.06,0,0,0-2.07,2.07ZM151.34,4.66a3,3,0,0,0,2.34-.89l1.67-1.56a1.31,1.31,0,0,0,.54-1C155.89.62,154.6,0,153.6,0a1.75,1.75,0,0,0-1.53.92l-1.49,2.31a1.57,1.57,0,0,0-.26.73C150.32,4.39,150.75,4.66,151.34,4.66Zm.13,16.94a5.73,5.73,0,0,1-5.71-5.93v-.05a5.64,5.64,0,0,1,5.66-5.87,5.72,5.72,0,0,1,5.71,5.92v.06A5.64,5.64,0,0,1,151.47,21.6Zm-.05,3.82a9.75,9.75,0,0,0,10.05-9.75v-.05a10,10,0,0,0-20,.05v.06A9.65,9.65,0,0,0,151.42,25.42Zm-16.94-2.23a2.08,2.08,0,0,0,4.15,0v-15a2.08,2.08,0,0,0-4.15,0Zm-10.15,2.23A9.44,9.44,0,0,0,131,23.05a1.91,1.91,0,0,0-1.24-3.39,1.92,1.92,0,0,0-1.24.46,6.07,6.07,0,0,1-4.1,1.48c-3.23,0-5.46-2.69-5.46-5.93v-.05a5.58,5.58,0,0,1,5.46-5.87,6.17,6.17,0,0,1,3.86,1.35,2.22,2.22,0,0,0,1.24.4,2,2,0,0,0,1.23-3.66,10,10,0,0,0-6.3-1.91,9.58,9.58,0,0,0-9.83,9.74v.06A9.51,9.51,0,0,0,124.33,25.42Zm-29-2.2a2,2,0,0,0,4.09,0V13.12L107.69,24a2.58,2.58,0,0,0,2.15,1.21H110a2.06,2.06,0,0,0,2.07-2.08v-15a2,2,0,0,0-4.09,0v9.73L100,7.35A2.59,2.59,0,0,0,97.8,6.14h-.43A2.06,2.06,0,0,0,95.3,8.21Zm-7.78,0a2.08,2.08,0,0,0,4.15,0v-15a2.08,2.08,0,0,0-4.15,0Zm-12.17,0a2.07,2.07,0,1,0,4.14,0V10.07h4a1.91,1.91,0,0,0,0-3.82H71.36a1.91,1.91,0,1,0,0,3.82h4ZM61.91,25.37c4.07,0,6.92-2.1,6.92-5.84v-.06c0-3.28-2.15-4.66-6-5.65-3.26-.84-4.06-1.24-4.06-2.48v-.06c0-.91.83-1.64,2.42-1.64a7.83,7.83,0,0,1,4,1.27,2,2,0,0,0,1,.29,1.9,1.9,0,0,0,1.94-1.91,1.88,1.88,0,0,0-.92-1.64,10.91,10.91,0,0,0-6-1.67c-3.85,0-6.59,2.26-6.59,5.68v.06c0,3.74,2.45,4.79,6.24,5.76,3.16.81,3.8,1.35,3.8,2.4v.05c0,1.1-1,1.78-2.72,1.78A8,8,0,0,1,57.17,20,2,2,0,0,0,56,19.63a1.93,1.93,0,0,0-1.16,3.48A12.14,12.14,0,0,0,61.91,25.37ZM47.42,23.19a2.08,2.08,0,0,0,4.15,0v-15a2.08,2.08,0,0,0-4.15,0Zm-16-1.83V10h3.21a5.42,5.42,0,0,1,5.68,5.68v.06a5.37,5.37,0,0,1-5.68,5.63ZM27.25,23a2.06,2.06,0,0,0,2.08,2.07h5.28c5.92,0,10-4.12,10-9.43v-.05c0-5.3-4.09-9.37-10-9.37H29.33a2.06,2.06,0,0,0-2.08,2.07Z"/><path class="cls-2" d="M40.63,148.2c0,.07.53,1.25.67,1.7l2.29,5.87c.93,2.06,1.74,3.48,2.83,5.47a68.26,68.26,0,0,0,25,25,65.16,65.16,0,0,0,40.6,8.29l7.28-1.1a69.08,69.08,0,0,0,12.62-4.24,66.6,66.6,0,0,0,10.7-5.95c4.73-3.23,5.39-4.41,9.06-7.55a42.24,42.24,0,0,0,4-4.34,68.88,68.88,0,0,0,6.89-9.73,71.86,71.86,0,0,0,4.13-8.33c1.7-4.33,1.77-5.46,3.06-9.37a32.79,32.79,0,0,0,.68-3.55,25.45,25.45,0,0,0,.62-3.48c.51-9.44.55-6.22.09-15.84a29.41,29.41,0,0,0-.45-3.78,61.32,61.32,0,0,0-3.52-13.36c-.4-1-.81-2-1.23-2.91l-2.77-5.56a80.57,80.57,0,0,0-6.77-9.85c-4.74-5.71-11.59-11.83-18-15.31-3.83-2.09-6.81-4-11.34-5.29-3.68-1.06-5.29-1.84-9.68-2.76l-7.21-1a89,89,0,0,0-12.27.15c-5.65.81-8.52,1-13.9,2.93a40.7,40.7,0,0,0-4.55,1.59C66.23,71.5,54,81.21,47,93.83a63.54,63.54,0,0,0-5.37,11.27c-1.73,4.4-1.76,5.73-2.78,9.63-1.27,4.84-1.61,14.53-1.06,19.29a65.32,65.32,0,0,0,1,7.35Z"/><path class="cls-3" d="M77.22,171.56a3.51,3.51,0,0,1-.36-4.54c4.77-6.76,12.85-13.81,21.37-21.09.19-.15.57.19,1.61.62-1.84-1.93-4.28-4.45-4.91-5.08-3.92-3.89-7.39-2.11-11.58-2.33a5.6,5.6,0,0,1-3.71-1.44C74,133.64,50.52,99.46,52.33,93.38a1.11,1.11,0,0,1,1.72-.66c23,22.9,33.17,32.52,47.6,46.5.4-9.44.61-17.19,0-19.32a3.82,3.82,0,0,0-.68-1.55c-3.43-4.31-6.41-1.08-6.27-10.46a155,155,0,0,1,4.19-32.73c.1-.4.24-.31.5-.31l-1.17,29.74c-.11,2.88,2,2.55,2.12.17l1.44-29.91h.83l.12,30.05c0,.89.23,1.75,1.1,1.65.88.09,1.1-.76,1.11-1.65l0-30,.84,0,1.5,29.91c.11,2.38,2.23,2.71,2.12-.17l-1.24-29.73c.26,0,.4-.1.5.3a155,155,0,0,1,4.26,32.72c.16,9.38-2.83,6.15-6.25,10.47a3.8,3.8,0,0,0-.67,1.55c-.61,2-.45,9.6-.07,18.33,0,.52-1,1.75-1.94,2.84a222.17,222.17,0,0,0,16.67-15.75,5.64,5.64,0,0,0,1.67-3.57c.09-7.55-3.56-10.88,4.7-18.29,4.52-4,15.58-11.11,21.73-11.53,2.08-.14,4.73-.14,6.37,1.55s1.71,4.29,1.57,6.37c-.4,6.16-7.44,17.23-11.49,21.76-7.39,8.27-10.73,4.64-18.27,4.74a5.62,5.62,0,0,0-3.57,1.67,190.79,190.79,0,0,0-15.85,16.92c5.91,5.76,12.71,12.45,21.3,21,.75.75,1,1,1.21,1.87a3.7,3.7,0,0,1-3.5,4.22c-1.6.13-10.91-9.11-19.08-17.52l-3.92-3.93c0,.34,3.18,3.83,3.2,4.17.68,14.84,1.07,28.95-.87,30a4.23,4.23,0,0,1-4,0c-2-1.05-1.54-16.51-.84-32.13-6.63,7.77-13.08,15-19.29,19.36a3.37,3.37,0,0,1-3.6.32,3.94,3.94,0,0,1-.93-.67"/></g></g></svg>