<svg xmlns="http://www.w3.org/2000/svg" viewBox="0 0 199.34 181.5"><defs><style>.cls-1{fill:none;stroke:#3d5da6;stroke-miterlimit:10;stroke-width:2px;}.cls-1,.cls-3,.cls-4{fill-rule:evenodd;}.cls-2,.cls-3{fill:#3d5da6;}.cls-4{fill:#fff;}</style></defs><title>Buen propietario-Estrategias-Cosmetologia</title><g id="Layer_2" data-name="Layer 2"><g id="Capa_1" data-name="Capa 1"><path class="cls-1" d="M26.32,156l-7.06-18.86L2,146l12.15,7.78v16.79a194.43,194.43,0,0,1,23.33-11.51Z"/><path class="cls-1" d="M173,156l7.06-18.86L197.34,146l-12.16,7.78v16.79a194.43,194.43,0,0,0-23.33-11.51Z"/><path class="cls-2" d="M127.24,12.89A4.71,4.71,0,0,1,122.55,8V8a4.64,4.64,0,0,1,4.65-4.83A4.71,4.71,0,0,1,131.89,8v0a4.63,4.63,0,0,1-4.65,4.83m0,3.14a8,8,0,0,0,8.26-8V8A8.24,8.24,0,0,0,119,8v0A7.94,7.94,0,0,0,127.2,16Zm-20.35-2a1.69,1.69,0,0,0,1.7,1.71h8a1.55,1.55,0,1,0,0-3.1h-6.31V1.84a1.71,1.71,0,1,0-3.41,0Zm-13.71,0a1.7,1.7,0,0,0,1.71,1.71h8a1.55,1.55,0,0,0,0-3.1H96.55V1.84a1.71,1.71,0,1,0-3.41,0ZM80,15.77h8.7a1.52,1.52,0,0,0,1.53-1.51,1.54,1.54,0,0,0-1.53-1.53h-7V9.48h5.92A1.51,1.51,0,0,0,89.13,8a1.53,1.53,0,0,0-1.52-1.53H81.69V3.3H88.6a1.52,1.52,0,1,0,0-3H80A1.69,1.69,0,0,0,78.3,2V14.06A1.7,1.7,0,0,0,80,15.77ZM69.65,16c3.34,0,5.69-1.73,5.69-4.81v0c0-2.7-1.77-3.83-4.92-4.65-2.68-.69-3.34-1-3.34-2v0c0-.76.68-1.35,2-1.35a6.42,6.42,0,0,1,3.26,1,1.66,1.66,0,0,0,.86.24,1.57,1.57,0,0,0,1.59-1.57A1.53,1.53,0,0,0,74,1.42,9,9,0,0,0,69.11,0C66,0,63.69,1.9,63.69,4.72v0c0,3.08,2,3.94,5.14,4.74,2.59.66,3.12,1.11,3.12,2v0c0,.9-.84,1.46-2.24,1.46a6.5,6.5,0,0,1-4-1.4,1.67,1.67,0,0,0-1-.31,1.59,1.59,0,0,0-.95,2.86A10,10,0,0,0,69.65,16Z"/><path class="cls-2" d="M161.23,32.64V26.7h1.68a2.83,2.83,0,0,1,3,3v0a2.81,2.81,0,0,1-3,2.94Zm-2.17.87a1.08,1.08,0,0,0,1.09,1.09h2.76a4.94,4.94,0,0,0,5.23-4.93v0a4.91,4.91,0,0,0-5.23-4.9h-2.76a1.08,1.08,0,0,0-1.09,1.09Zm-8-3,1.37-3.25,1.36,3.25Zm-3.49,3.2a1,1,0,0,0,1,1,1.06,1.06,0,0,0,1-.67l.69-1.62h4.34l.66,1.55a1.1,1.1,0,0,0,1,.74,1,1,0,0,0,1-1,1.1,1.1,0,0,0-.11-.44l-3.44-7.75a1.31,1.31,0,0,0-1.25-.86h-.13a1.34,1.34,0,0,0-1.27.86l-3.43,7.75A1.19,1.19,0,0,0,147.6,33.67Zm-7.74-1V26.7h1.67a2.82,2.82,0,0,1,3,3v0a2.81,2.81,0,0,1-3,2.94Zm-2.17.87a1.08,1.08,0,0,0,1.08,1.09h2.76a4.94,4.94,0,0,0,5.24-4.93v0a4.92,4.92,0,0,0-5.24-4.9h-2.76a1.08,1.08,0,0,0-1.08,1.09Zm-4.63.09a1.09,1.09,0,0,0,2.17,0V25.74a1.09,1.09,0,0,0-2.17,0ZM125,29.53V26.7h2.15c1.06,0,1.71.48,1.71,1.41v0c0,.83-.61,1.39-1.66,1.39Zm-2.17,4.07a1.09,1.09,0,0,0,2.17,0V31.44h1.73l2.11,2.68a1.32,1.32,0,0,0,1.07.56,1,1,0,0,0,1-1,1.29,1.29,0,0,0-.35-.83L129,31a3,3,0,0,0,2-3v0a3.1,3.1,0,0,0-.84-2.26,3.92,3.92,0,0,0-2.87-1h-3.42a1.08,1.08,0,0,0-1.09,1.09Zm-6.53,1.15c2.64,0,4.32-1.46,4.32-4.45V25.74a1.09,1.09,0,0,0-2.17,0v4.65c0,1.56-.8,2.36-2.12,2.36s-2.13-.83-2.13-2.43V25.74a1.09,1.09,0,0,0-2.17,0v4.63C112,33.27,113.6,34.75,116.25,34.75Zm-10.41,0a6.57,6.57,0,0,0,3.45-1,1.47,1.47,0,0,0,.76-1.38V30A1.07,1.07,0,0,0,109,28.92h-2.48a1,1,0,0,0-.94.95.93.93,0,0,0,.94.93H108v1.4a3.45,3.45,0,0,1-2,.6,3,3,0,0,1-3-3.13v0a3,3,0,0,1,2.83-3.07,3.45,3.45,0,0,1,2.15.68,1.11,1.11,0,0,0,.67.22,1.06,1.06,0,0,0,.61-1.94,5.43,5.43,0,0,0-3.36-1,5.07,5.07,0,0,0-5.17,5.1v0A4.94,4.94,0,0,0,105.84,34.77ZM92.75,34.6h5.53a1,1,0,0,0,1-1,1,1,0,0,0-1-1H93.82V30.6h3.76a1,1,0,0,0,1-1,1,1,0,0,0-1-1H93.82v-2h4.39a1,1,0,0,0,1-1,1,1,0,0,0-1-1H92.75a1.08,1.08,0,0,0-1.08,1.09v7.68A1.08,1.08,0,0,0,92.75,34.6Zm-6.59.14c2.13,0,3.62-1.1,3.62-3.06v0c0-1.72-1.13-2.44-3.13-3-1.7-.44-2.12-.65-2.12-1.3v0c0-.48.44-.86,1.27-.86a4.15,4.15,0,0,1,2.07.66,1,1,0,0,0,.54.15,1,1,0,0,0,1-1,1,1,0,0,0-.48-.86,5.76,5.76,0,0,0-3.13-.87c-2,0-3.45,1.18-3.45,3v0c0,2,1.29,2.51,3.27,3,1.65.43,2,.71,2,1.26v0c0,.58-.54.93-1.43.93a4.17,4.17,0,0,1-2.52-.88,1,1,0,0,0-.62-.2,1,1,0,0,0-1,1,1,1,0,0,0,.41.82A6.43,6.43,0,0,0,86.16,34.74Zm-10.58-2a3,3,0,0,1-3-3.1v0a3,3,0,0,1,3-3.07,3,3,0,0,1,3,3.1v0A3,3,0,0,1,75.58,32.77Zm0,2a5.1,5.1,0,0,0,5.25-5.1v0a5,5,0,0,0-5.22-5.07,5.1,5.1,0,0,0-5.26,5.1v0A5.06,5.06,0,0,0,75.55,34.77ZM66.13,33.6a1.09,1.09,0,0,0,2.17,0V25.74a1.09,1.09,0,0,0-2.17,0ZM58,32.7V30.53h2.5c1.11,0,1.61.41,1.61,1.07v0c0,.73-.58,1.07-1.54,1.07Zm0-4V26.64h2.14c.91,0,1.42.37,1.42,1v0c0,.73-.61,1-1.56,1Zm-2.12,4.78A1.08,1.08,0,0,0,57,34.6h3.6c2.23,0,3.69-.9,3.69-2.71v0a2.41,2.41,0,0,0-1.84-2.43,2.28,2.28,0,0,0,1.29-2.12v0A2.25,2.25,0,0,0,63,25.62a3.55,3.55,0,0,0-2.58-.88H57a1.08,1.08,0,0,0-1.09,1.09ZM43.29,34.6h5.53a1,1,0,0,0,1-1,1,1,0,0,0-1-1H44.36V30.6h3.76a1,1,0,0,0,1-1,1,1,0,0,0-1-1H44.36v-2h4.39a1,1,0,0,0,1-1,1,1,0,0,0-1-1H43.29a1.08,1.08,0,0,0-1.08,1.09v7.68A1.08,1.08,0,0,0,43.29,34.6Zm-9.92-2V26.7H35a2.82,2.82,0,0,1,3,3v0a2.81,2.81,0,0,1-3,2.94Zm-2.17.87a1.08,1.08,0,0,0,1.08,1.09H35a4.94,4.94,0,0,0,5.24-4.93v0A4.92,4.92,0,0,0,35,24.74H32.28a1.08,1.08,0,0,0-1.08,1.09Z"/><path class="cls-1" d="M21.63,118.56q3.78-1.61,7.58-3c-.15-1.89-.23-3.79-.23-5.71a70.69,70.69,0,0,1,141.38,0c0,1.92-.07,3.82-.23,5.71q3.8,1.44,7.59,3l3.42,1.44-10.87,33.86-4.07-1.69q-4.42-1.84-8.86-3.44l1.09.39a70.7,70.7,0,0,1-117.33.28c-2.3.87-4.59,1.78-6.88,2.75l-3.94,1.68-12.2-33.78Z"/><path class="cls-3" d="M23.2,122.29q76.47-32.21,152.94,0l-8.38,26.13c-45-18.73-90.08-19.1-135.12,0Z"/><path class="cls-4" d="M157,122.14a6.62,6.62,0,0,0-8.52,4.23v0a6.57,6.57,0,0,0,4.46,8.35,6.63,6.63,0,0,0,8.52-4.24v0A6.56,6.56,0,0,0,157,122.14Zm1.64,7.48v0a3.84,3.84,0,0,1-4.88,2.63,3.89,3.89,0,0,1-2.46-5v0a3.83,3.83,0,0,1,4.87-2.63A3.89,3.89,0,0,1,158.66,129.62Z"/><path class="cls-4" d="M141.21,118.25l-3.49-.83a1.39,1.39,0,0,0-1.7,1l-2.34,9.71a1.4,1.4,0,0,0,1,1.7l3.49.84c3.92.94,7.28-1.13,8.12-4.64v0C147.18,122.53,145.12,119.2,141.21,118.25Zm2.25,7.14v0a3.66,3.66,0,0,1-4.65,2.82l-2.12-.51,1.8-7.51,2.12.51A3.68,3.68,0,0,1,143.46,125.39Z"/><path class="cls-4" d="M131.5,127.64,128.64,117a1.72,1.72,0,0,0-1.44-1.35l-.16,0a1.77,1.77,0,0,0-1.8.85l-6,9.28a1.58,1.58,0,0,0-.25.57,1.31,1.31,0,0,0,1.08,1.51,1.4,1.4,0,0,0,1.42-.67l1.21-1.94,5.57.86.54,2.13a1.43,1.43,0,0,0,1.19,1.16,1.31,1.31,0,0,0,1.47-1.71Zm-7.36-4.74,2.41-3.91,1.1,4.45Z"/><path class="cls-4" d="M112.58,125.69a1.41,1.41,0,1,0,2.81.21l.68-8.88,2.71.21a1.31,1.31,0,0,0,1.39-1.2,1.29,1.29,0,0,0-1.19-1.39l-8.21-.64a1.3,1.3,0,1,0-.21,2.59l2.7.21Z"/><path class="cls-4" d="M103.74,125.38a1.41,1.41,0,0,0,2.82,0l.14-10.21a1.41,1.41,0,0,0-2.82,0Z"/><path class="cls-4" d="M94.39,113.88l-3.58,0a1.4,1.4,0,0,0-1.4,1.42l.11,10a1.4,1.4,0,0,0,1.42,1.39l3.59,0c4,0,6.78-2.87,6.74-6.48v0C101.23,116.57,98.42,113.84,94.39,113.88Zm3.93,6.4a3.65,3.65,0,0,1-3.82,3.87l-2.18,0-.08-7.72,2.18,0a3.68,3.68,0,0,1,3.9,3.83Z"/><path class="cls-4" d="M79,127.89l7.15-.76a1.25,1.25,0,1,0-.26-2.49l-5.77.61-.28-2.68,4.86-.51a1.25,1.25,0,1,0-.26-2.49l-4.87.51-.27-2.59,5.68-.6a1.25,1.25,0,0,0,1.13-1.37,1.27,1.27,0,0,0-1.39-1.12l-7.06.74a1.41,1.41,0,0,0-1.26,1.55l1.05,9.94A1.4,1.4,0,0,0,79,127.89Z"/><path class="cls-4" d="M74.94,127.14a1.59,1.59,0,0,0-.63-1l-2.34-2a3.93,3.93,0,0,0,1.86-4.28v0a4,4,0,0,0-1.58-2.69,5.08,5.08,0,0,0-3.9-.64l-4.38.76a1.39,1.39,0,0,0-1.15,1.63l1.73,10a1.41,1.41,0,1,0,2.77-.48l-.48-2.76,2.22-.39,3.3,3a1.69,1.69,0,0,0,1.5.48A1.29,1.29,0,0,0,74.94,127.14Zm-5.72-4.49-2.81.49-.63-3.63,2.76-.48c1.35-.23,2.29.24,2.49,1.43v0C71.22,121.56,70.57,122.41,69.22,122.65Z"/><path class="cls-4" d="M57.73,131.93a6.41,6.41,0,0,0,4-2.72,1.29,1.29,0,0,0,.21-1.09,1.33,1.33,0,0,0-1.61-.92,1.3,1.3,0,0,0-.73.51,4.1,4.1,0,0,1-2.44,1.68,3.8,3.8,0,0,1-4.61-2.95v0a3.79,3.79,0,0,1,2.58-4.8,4.18,4.18,0,0,1,2.77.22,1.47,1.47,0,0,0,.88.05,1.38,1.38,0,0,0,1-1.68,1.45,1.45,0,0,0-.82-.94,6.77,6.77,0,0,0-4.47-.17,6.5,6.5,0,0,0-4.78,8.1v0A6.47,6.47,0,0,0,57.73,131.93Z"/><path class="cls-4" d="M50,132.36a1.55,1.55,0,0,0-.31-.49l-7.35-8.23a1.72,1.72,0,0,0-1.89-.57l-.16.06a1.73,1.73,0,0,0-1.22,1.56l-1.16,11a1.47,1.47,0,0,0,0,.63,1.29,1.29,0,0,0,1.64.85,1.39,1.39,0,0,0,1-1.23l.2-2.28,5.37-1.73,1.44,1.65a1.43,1.43,0,0,0,1.58.51A1.33,1.33,0,0,0,50,132.36Zm-9-1.42.4-4.57,3,3.48Z"/><path class="cls-3" d="M131.59,141.49a158.49,158.49,0,0,0-62.92-.08l-2.86,16.87,33.86-17.71,33.86,17.71-2.88-17Z"/><path class="cls-3" d="M141.28,106.79c.7.15,1.4.32,2.1.48C142.68,107.11,142,106.94,141.28,106.79Z"/><path class="cls-3" d="M55.83,107.31a187.94,187.94,0,0,1,85.44-.52l13.19-12.91L116.65,88.3l-17-34.23-17,34.23-37.8,5.58,13.19,12.91Z"/></g></g></svg>