<svg xmlns="http://www.w3.org/2000/svg" viewBox="0 0 65 65.08"><defs><style>.cls-1{fill:#3d5da6;}</style></defs><title>Buen propietario-Recomendacion-01</title><g id="Layer_2" data-name="Layer 2"><g id="Capa_1" data-name="Capa 1"><path class="cls-1" d="M4.19,42H23.06v2.1H4.19Z"/><path class="cls-1" d="M4.19,46.19H23.06v2.1H4.19Z"/><path class="cls-1" d="M4.19,50.39H23.06v2.1H4.19Z"/><path class="cls-1" d="M4.19,58.79H23.06v2.09H4.19Z"/><path class="cls-1" d="M4.19,54.59h2.1v2.1H4.19Z"/><path class="cls-1" d="M8.39,54.59h2.09v2.1H8.39Z"/><path class="cls-1" d="M12.58,54.59H23.06v2.1H12.58Z"/><path class="cls-1" d="M29.35,21H48.23v2.1H29.35Z"/><path class="cls-1" d="M29.35,25.19H48.23v2.1H29.35Z"/><path class="cls-1" d="M29.35,29.39H48.23v2.1H29.35Z"/><path class="cls-1" d="M37.74,33.59h2.1v2.1h-2.1Z"/><path class="cls-1" d="M41.94,33.59H44v2.1H41.94Z"/><path class="cls-1" d="M46.13,33.59h2.1v2.1h-2.1Z"/><path class="cls-1" d="M52.42,44.09V0H0V65.08H65v-21ZM18.87,10.5v3.15H8.68A1,1,0,0,1,7.73,13L2.69,2.1h47L44.69,13a1,1,0,0,1-.95.61H33.55V10.5ZM21,16.8V12.6H31.45v4.2ZM2.1,5.83l3.72,8.09a3.17,3.17,0,0,0,2.86,1.83H18.87V18.9h6.29V33.59h2.1V18.9h6.29V15.75H43.74a3.17,3.17,0,0,0,2.86-1.83l3.72-8.09V44.09H48.75l-3.15-4.2H32.5V63H27.26V35.69h-2.1V63H2.1Zm44,38.26H34.6V42h10ZM62.9,63H34.6V46.19H62.9Z"/><path class="cls-1" d="M52.42,54.59h8.39v2.1H52.42Z"/><path class="cls-1" d="M52.42,58.79h8.39v2.09H52.42Z"/><path class="cls-1" d="M20.14,26.29l4.47-4.48-1.7-1.71-2.77,2.77v-.71H5.66v14.5H20.14Zm-12.07,8V24.58h9.66v.71l-4.65,4.64-1.59-2.39-2,1.34,3.23,4.85,5-5v5.54Z"/></g></g></svg>