<svg xmlns="http://www.w3.org/2000/svg" viewBox="0 0 64.86 64.85"><defs><style>.cls-1{fill:#3d5da6;}.cls-2{fill:none;stroke:#3d5da6;stroke-miterlimit:10;stroke-width:5px;}</style></defs><title>Buen propietario-Recomendacion-03</title><g id="Layer_2" data-name="Layer 2"><g id="Capa_1" data-name="Capa 1"><rect class="cls-1" x="4.18" y="57.53" width="2.09" height="2.09"/><path class="cls-1" d="M11.51,59.63a3.14,3.14,0,1,0-3.14-3.14A3.15,3.15,0,0,0,11.51,59.63Zm0-4.19a1,1,0,1,1-1,1.05A1,1,0,0,1,11.51,55.44Z"/><path class="cls-1" d="M64.86,16.74V0H46V2.85l-1.66-.42a12.07,12.07,0,0,0-2.81-.34h-17a11.64,11.64,0,0,0-3.66.59L15.38,4.5a11.54,11.54,0,0,0-4.53,2.78L7.2,10.9a3.1,3.1,0,0,0-.76,3.21l.16.48a3.14,3.14,0,0,0,3,2.15h.77a3.16,3.16,0,0,0,2.23-.92h0l0,.28,0,.11a3.12,3.12,0,0,0,1,1.58H7.32V47.07h22l-4.57,3.62A7.41,7.41,0,0,1,20.1,52.3H18.83V48.12H0V64.85H18.83V62l1.66.41a11.5,11.5,0,0,0,2.81.34h17A11.68,11.68,0,0,0,44,62.17l5.5-1.82A11.62,11.62,0,0,0,54,57.57L57.65,54a3.11,3.11,0,0,0,.77-3.22l-.16-.48a3.15,3.15,0,0,0-3-2.14H54.5a3.12,3.12,0,0,0-2.23.91h0l0-.28,0-.11a3.21,3.21,0,0,0-1-1.58h6.32V17.78h-22l4.56-3.62a7.46,7.46,0,0,1,4.62-1.61H46v4.19ZM48.12,2.09H62.76V14.65H60.67V9.41H58.58v5.24H48.12ZM14.45,14l1.38-1.36a3.12,3.12,0,0,1,2.56-.91l.51.05-2,4a1.16,1.16,0,0,1-.36.4l-.21.14a1.1,1.1,0,0,1-1,.11,1.06,1.06,0,0,1-.63-.68Zm4.29,2.74L21.13,12l5.51.55a2.36,2.36,0,0,1,.45.08l2.35.58-.17.14-2.62,1.73a3.15,3.15,0,0,0-1.4,2.73H17.83A3,3,0,0,0,18.74,16.71Zm-2,46.05H2.09V50.21H4.18v5.23h2.1V50.21H16.74ZM54.5,50.21h.76a1.06,1.06,0,0,1,1,.72l.16.48a1,1,0,0,1-.25,1.07l-3.64,3.61a9.54,9.54,0,0,1-3.72,2.28l-5.5,1.82a9.56,9.56,0,0,1-3,.48h-17A9.42,9.42,0,0,1,21,60.39l-2.16-.54V54.4H20.1A9.58,9.58,0,0,0,26,52.34l7.87-6.25a.93.93,0,0,1,.41-.2L36,45.46a1.06,1.06,0,0,1,1.29.76l.18.72a1.05,1.05,0,0,1-.44,1.13L34.44,49.8a5.22,5.22,0,0,0-2.19,5.62l.33,1.32,2-.51-.33-1.32a3,3,0,0,1,0-1.37l3,.75a4.91,4.91,0,0,0,.75.13l8.25.82a5.25,5.25,0,0,0,4.24-1.5l3.24-3.22A1.07,1.07,0,0,1,54.5,50.21Zm-5.47,2a3.2,3.2,0,0,1-2.56.91l-.51,0,2-4a1,1,0,0,1,.36-.41l.21-.13a1.06,1.06,0,0,1,1.61.57l.25,1.76Zm-2.92-4.1-2.39,4.74-5.5-.55a3.54,3.54,0,0,1-.45-.08l-2.36-.58.18-.14,2.62-1.73a3.14,3.14,0,0,0,1.39-2.74H47A3.2,3.2,0,0,0,46.11,48.15Zm9.33-28.27V45H39a3.17,3.17,0,0,0-3.53-1.55l-1.72.42a3,3,0,0,0-1.2.6l-.68.53H9.41V19.88H25.82a3.16,3.16,0,0,0,2.76,1.64,3.29,3.29,0,0,0,.76-.09L31.07,21a3.21,3.21,0,0,0,1.2-.59l.67-.53ZM44.76,10.46a9.57,9.57,0,0,0-5.92,2.06L31,18.77a.93.93,0,0,1-.41.2l-1.72.43a1.06,1.06,0,0,1-1.29-.76l-.18-.73a1,1,0,0,1,.44-1.12l2.61-1.73a5.22,5.22,0,0,0,2.19-5.62l-.33-1.33-2,.51L30.58,10a3,3,0,0,1,0,1.36l-3-.74a4.83,4.83,0,0,0-.76-.13L18.6,9.62a5.25,5.25,0,0,0-4.24,1.5l-3.24,3.22a1.13,1.13,0,0,1-.76.31H9.59a1.07,1.07,0,0,1-1-.72l-.16-.48a1,1,0,0,1,.26-1.07l3.64-3.61A9.58,9.58,0,0,1,16,6.49l5.51-1.82a9.56,9.56,0,0,1,3-.48h17a9.48,9.48,0,0,1,2.31.28L46,5v5.46Z"/><rect class="cls-1" x="58.58" y="5.23" width="2.09" height="2.09"/><path class="cls-1" d="M53.35,5.23a3.14,3.14,0,1,0,3.14,3.14A3.15,3.15,0,0,0,53.35,5.23Zm0,4.18a1,1,0,1,1,1-1A1,1,0,0,1,53.35,9.41Z"/><path class="cls-1" d="M31.17,37.66h.21v1h2.09v-1h.21a2.89,2.89,0,0,0,2.93-2.84v-.6a2.89,2.89,0,0,0-2.93-2.84H31.17a.79.79,0,0,1-.83-.74V30a.79.79,0,0,1,.83-.75h2.51a.8.8,0,0,1,.84.75v.3h2.09V30a2.88,2.88,0,0,0-2.93-2.84h-.21V26.15H31.38V27.2h-.21A2.89,2.89,0,0,0,28.24,30v.6a2.9,2.9,0,0,0,2.93,2.84h2.51a.8.8,0,0,1,.84.74v.6a.8.8,0,0,1-.84.75H31.17a.79.79,0,0,1-.83-.75v-.3h-2.1v.3A2.9,2.9,0,0,0,31.17,37.66Z"/><path class="cls-1" d="M22,32.43A10.46,10.46,0,1,0,32.43,22,10.47,10.47,0,0,0,22,32.43Zm10.46-8.37a8.37,8.37,0,1,1-8.37,8.37A8.38,8.38,0,0,1,32.43,24.06Z"/><polygon class="cls-1" points="11.51 28.24 13.6 28.24 13.6 24.06 17.78 24.06 17.78 21.97 11.51 21.97 11.51 28.24"/><polygon class="cls-1" points="13.6 36.61 11.51 36.61 11.51 42.89 17.78 42.89 17.78 40.8 13.6 40.8 13.6 36.61"/><polygon class="cls-1" points="51.26 28.24 53.35 28.24 53.35 21.97 47.07 21.97 47.07 24.06 51.26 24.06 51.26 28.24"/><polygon class="cls-1" points="53.35 36.61 51.26 36.61 51.26 40.8 47.07 40.8 47.07 42.89 53.35 42.89 53.35 36.61"/><line class="cls-2" x1="25.11" y1="38.71" x2="39.23" y2="26.15"/></g></g></svg>