<svg xmlns="http://www.w3.org/2000/svg" viewBox="0 0 75 75"><defs><style>.cls-1{fill:#3d5da6;}</style></defs><title>Buen propietario-Recomendacion-05</title><g id="Layer_2" data-name="Layer 2"><g id="Capa_1" data-name="Capa 1"><path class="cls-1" d="M47.18,9.68A18.15,18.15,0,1,0,65.32,27.82,18.17,18.17,0,0,0,47.18,9.68ZM36.29,39.14V34.55a1.2,1.2,0,0,1,.92-1.17l7.18-1.8,2.79,2.79L50,31.58l7.18,1.8a1.2,1.2,0,0,1,.92,1.17v4.59a15.65,15.65,0,0,1-21.78,0ZM47.18,26.61A3.64,3.64,0,0,1,43.55,23V20.56a3.63,3.63,0,0,1,7.26,0V23A3.64,3.64,0,0,1,47.18,26.61Zm0,2.42a6.06,6.06,0,0,0,1.21-.12v.83L47.18,31,46,29.74v-.83A6,6,0,0,0,47.18,29Zm13.3,7.14V34.55A3.62,3.62,0,0,0,57.74,31L50.81,29.3V27.79A6,6,0,0,0,53.23,23V20.56a6.05,6.05,0,0,0-12.1,0V23a6,6,0,0,0,2.42,4.81V29.3L36.62,31a3.62,3.62,0,0,0-2.75,3.52v1.62a15.73,15.73,0,1,1,26.61,0Z"/><path class="cls-1" d="M75,33.65V22l-4.61-.92a25.19,25.19,0,0,0-2-4.89L71,12.27,62.73,4l-3.92,2.6a24.25,24.25,0,0,0-4.88-2L53,0H41.35l-.93,4.61a25.1,25.1,0,0,0-4.88,2L31.63,4,23.56,12.1H0V75H48.39V55.65H53L53.93,51a24,24,0,0,0,4.89-2l3.91,2.61L71,43.37l-2.6-3.91a24.49,24.49,0,0,0,2-4.88ZM46,72.58H2.42V14.52H24.88L26,16.19a23.68,23.68,0,0,0-2,4.88L19.35,22V33.65l4.62.93a23.91,23.91,0,0,0,2,4.88l-2.61,3.91,8.25,8.25L35.54,49a23.91,23.91,0,0,0,4.88,2l.93,4.62H46ZM68.25,33.24a21.71,21.71,0,0,1-2.35,5.65l-.38.66,2.34,3.52-5.44,5.44L58.9,46.16l-.65.39a21.9,21.9,0,0,1-5.66,2.34l-.74.19L51,53.23H43.33l-.83-4.15-.74-.19a21.69,21.69,0,0,1-5.65-2.34l-.66-.39-3.52,2.35-5.44-5.45,2.35-3.51-.39-.66a21.61,21.61,0,0,1-2.34-5.66l-.19-.73-4.15-.83V24l4.15-.83.19-.74a21.75,21.75,0,0,1,2.34-5.66l.39-.65-2.35-3.52,5.45-5.44,3.51,2.34.66-.38a21.3,21.3,0,0,1,5.66-2.35l.73-.19.83-4.14H51l.83,4.15.74.18A21.78,21.78,0,0,1,58.25,9.1l.65.38,3.52-2.34,5.44,5.44L65.52,16.1l.38.65a21.58,21.58,0,0,1,2.35,5.66l.19.74,4.14.83v7.69l-4.15.83Z"/><path class="cls-1" d="M46,4.84h2.42V7.26H46Z"/><path class="cls-1" d="M30.07,12.43l1.71-1.71,1.71,1.71-1.71,1.71Z"/><path class="cls-1" d="M24.19,26.61h2.42V29H24.19Z"/><path class="cls-1" d="M30.07,43.22l1.71-1.71,1.71,1.71-1.71,1.71Z"/><path class="cls-1" d="M60.86,43.22l1.71-1.71,1.71,1.71-1.71,1.71Z"/><path class="cls-1" d="M67.74,26.61h2.42V29H67.74Z"/><path class="cls-1" d="M60.86,12.43l1.71-1.71,1.71,1.71-1.71,1.71Z"/><path class="cls-1" d="M46,48.39h2.42v2.42H46Z"/><path class="cls-1" d="M4.84,16.94h12.1v2.41H4.84Z"/><path class="cls-1" d="M4.84,21.77h12.1v2.42H4.84Z"/><path class="cls-1" d="M19.35,16.94h2.42v2.41H19.35Z"/><path class="cls-1" d="M4.84,29h12.1v2.42H4.84Z"/><path class="cls-1" d="M4.84,33.87h12.1v2.42H4.84Z"/><path class="cls-1" d="M4.84,38.71h12.1v2.42H4.84Z"/><path class="cls-1" d="M19.35,38.71h2.42v2.42H19.35Z"/><path class="cls-1" d="M4.84,43.55h12.1V46H4.84Z"/><path class="cls-1" d="M19.35,43.55h2.42V46H19.35Z"/><path class="cls-1" d="M4.84,48.39h12.1v2.42H4.84Z"/><path class="cls-1" d="M4.84,58.06H21.77v2.42H4.84Z"/><path class="cls-1" d="M24.19,58.06H41.13v2.42H24.19Z"/><path class="cls-1" d="M4.84,62.9H21.77v2.42H4.84Z"/><path class="cls-1" d="M24.19,62.9H41.13v2.42H24.19Z"/><path class="cls-1" d="M19.35,48.39h2.42v2.42H19.35Z"/><path class="cls-1" d="M4.84,67.74H7.26v2.42H4.84Z"/><path class="cls-1" d="M9.68,67.74H12.1v2.42H9.68Z"/><path class="cls-1" d="M14.52,67.74h2.42v2.42H14.52Z"/><path class="cls-1" d="M24.19,67.74h2.42v2.42H24.19Z"/><path class="cls-1" d="M29,67.74h2.42v2.42H29Z"/><path class="cls-1" d="M33.87,67.74h2.42v2.42H33.87Z"/></g></g></svg>