<svg xmlns="http://www.w3.org/2000/svg" viewBox="0 0 55.45 71.62"><defs><style>.cls-1{fill:#3d5da6;}</style></defs><title>Buen propietario-Recomendacion-06</title><g id="Layer_2" data-name="Layer 2"><g id="Capa_1" data-name="Capa 1"><path class="cls-1" d="M32.34,32.34A17.33,17.33,0,1,0,49.67,49.67,17.35,17.35,0,0,0,32.34,32.34ZM22,60.48V55.14a1.15,1.15,0,0,1,1-1.14L30,53V50.34a5.69,5.69,0,0,0,4.62,0V53l7.1,1a1.16,1.16,0,0,1,1,1.14v5.34a14.94,14.94,0,0,1-20.79,0ZM35.81,45.05a3.47,3.47,0,1,1-6.93,0V42.74a3.47,3.47,0,1,1,6.93,0Zm9.24,12.59v-2.5a3.48,3.48,0,0,0-3-3.43L37,51v-2.5a5.69,5.69,0,0,0,1.16-3.43V42.74a5.78,5.78,0,1,0-11.55,0v2.31a5.75,5.75,0,0,0,1.15,3.43V51l-5.11.73a3.48,3.48,0,0,0-3,3.43v2.5a15,15,0,1,1,25.41,0Z"/><path class="cls-1" d="M39.27,20.79H50.83V23.1H39.27Z"/><path class="cls-1" d="M46.21,16.17V0H0V65.84a5.78,5.78,0,0,0,5.78,5.78H49.67a5.78,5.78,0,0,0,5.78-5.78V16.17Zm6.93,2.31v9.24H11.55V25.41H34.12l4.62-6.93ZM5.78,69.31a3.48,3.48,0,0,1-3.47-3.47V2.31H43.89V16.17H37.5L32.88,23.1H9.24v8.09H4.62V33.5H9.24v2.31H4.62v2.31H9.24v2.31H4.62v2.31H9.24v2.31H4.62v2.31H9.24v2.31H4.62V52H9.24v2.31H4.62V56.6H9.24v2.31H4.62v2.31H9.24v4.62A3.47,3.47,0,0,1,5.78,69.31Zm43.89,0H10.39a5.75,5.75,0,0,0,1.16-3.47V30H53.14V65.84A3.48,3.48,0,0,1,49.67,69.31Z"/><path class="cls-1" d="M9.24,4.62H41.58V6.93H9.24Z"/><path class="cls-1" d="M4.62,4.62H6.93V6.93H4.62Z"/><path class="cls-1" d="M4.62,9.24H37v2.31H4.62Z"/><path class="cls-1" d="M39.27,9.24h2.31v2.31H39.27Z"/><path class="cls-1" d="M4.62,13.86H31.19v2.31H4.62Z"/><path class="cls-1" d="M4.62,18.48H31.19v2.31H4.62Z"/></g></g></svg>