<svg xmlns="http://www.w3.org/2000/svg" viewBox="0 0 65 67.91"><defs><style>.cls-1{fill:#3d5da6;}</style></defs><title>Buen propietario-Recomendacion-02</title><g id="Layer_2" data-name="Layer 2"><g id="Capa_1" data-name="Capa 1"><path class="cls-1" d="M6.29,61.34h2.1v2.19H6.29Z"/><path class="cls-1" d="M6.29,65.72h2.1v2.19H6.29Z"/><path class="cls-1" d="M10.48,48.19h2.1V67.91h-2.1Z"/><path class="cls-1" d="M14.68,57h2.09v2.19H14.68Z"/><path class="cls-1" d="M14.68,61.34h2.09v6.57H14.68Z"/><path class="cls-1" d="M21,32.86h2.09v2.19H21Z"/><path class="cls-1" d="M25.16,32.86h6.29v2.19H25.16Z"/><path class="cls-1" d="M21,37.24H31.45v2.19H21Z"/><path class="cls-1" d="M4.19,39.43H14.68v2.19H4.19Z"/><path class="cls-1" d="M4.19,43.81H14.68V46H4.19Z"/><path class="cls-1" d="M56.61,61.34h2.1v2.19h-2.1Z"/><path class="cls-1" d="M56.61,65.72h2.1v2.19h-2.1Z"/><path class="cls-1" d="M52.42,48.19h2.1V67.91h-2.1Z"/><path class="cls-1" d="M48.23,57h2.09v2.19H48.23Z"/><path class="cls-1" d="M48.23,61.34h2.09v6.57H48.23Z"/><path class="cls-1" d="M50.32,39.43H60.81v2.19H50.32Z"/><path class="cls-1" d="M50.32,43.81H60.81V46H50.32Z"/><path class="cls-1" d="M48.23,6.57V0H16.77V6.57H0V50.39H6.29v8.76h2.1v-11H2.1V8.76H16.77V43.81H21v4.38H14.68v6.58h2.09V50.39H21v1.46a3.4,3.4,0,0,0,.63,2L23.9,57a1.1,1.1,0,0,1,.21.66v3.65H22v6.57H43V61.34H40.89V57.69A1.1,1.1,0,0,1,41.1,57l2.3-3.21a3.4,3.4,0,0,0,.63-2V50.39h4.2v4.38h2.09V48.19H44V43.81h4.2V8.76H62.9V48.19H56.61v11h2.1V50.39H65V6.57ZM40.89,65.72H24.11V63.53H40.89Zm1-13.87a1.17,1.17,0,0,1-.21.65l-2.31,3.22a3.35,3.35,0,0,0-.63,2v3.65H26.21V57.69a3.35,3.35,0,0,0-.63-2L23.27,52.5a1.17,1.17,0,0,1-.21-.65v-8h2.1v5.48h2.1V43.81h2.09v5.48h2.1V43.81h3.88a9.23,9.23,0,0,0-1.78,5.48h2.1a7,7,0,0,1,1.91-4.84l1.23-1.28V37.88L36,35a1.27,1.27,0,0,1-.34-.87,1.2,1.2,0,0,1,1.17-1.23H37a1.18,1.18,0,0,1,.74.27l3.84,3.21a1.12,1.12,0,0,1,.4.86Zm4.19-10.23H44V37.2a3.35,3.35,0,0,0-1.18-2.57L39,31.42a3.24,3.24,0,0,0-2-.75h-.14a3.35,3.35,0,0,0-3.27,3.42,3.53,3.53,0,0,0,1,2.42l2.18,2.28v2.83H18.87V2.19H46.13Z"/><path class="cls-1" d="M37.88,14.29l4.2-4.39-1.6-1.67-2.6,2.71v-.69H24.29v14.2H37.88ZM26.56,22.08V12.62h9.06v.69l-4.36,4.55-1.49-2.35-1.89,1.31,3,4.75,4.71-4.91v5.42Z"/><path class="cls-1" d="M16.8,15.21H3.85v14.2h13ZM10.46,26.53l4.71-4.91V27H6.11V17.58h9.06v.69l-4.35,4.55-1.5-2.35L7.43,21.78Z"/><path class="cls-1" d="M62.81,13.25l-.05-.06-2.6,2.71v-.69h-12v14.2h12V19.25l2.65-2.77Zm-4.92,5-4.35,4.55L52,20.47l-1.88,1.31,3,4.75,4.7-4.91V27h-9V17.58h9Z"/></g></g></svg>