<svg xmlns="http://www.w3.org/2000/svg" viewBox="0 0 70.62 70.62"><defs><style>.cls-1{fill:#3d5da6;}</style></defs><title>Buen propietario-Recomendacion-04</title><g id="Layer_2" data-name="Layer 2"><g id="Capa_1" data-name="Capa 1"><path class="cls-1" d="M39.72,9.11,33,2.44,29.29,5.11c-.46-.21-.92-.4-1.37-.57L27.16,0h-11l-.76,4.54c-.45.17-.91.36-1.37.57L10.24,2.44l-7.8,7.8L5.11,14c-.21.46-.4.92-.57,1.37L0,16.12v11l4.54.76c.17.45.36.91.57,1.37L2.43,33l7.81,7.81L14,38.17c.46.21.92.4,1.37.57l.76,4.54h8.94V57H6.83a6.84,6.84,0,0,0,0,13.67H70.62V9.11ZM18.05,41l-.66-4-.66-.21a15.42,15.42,0,0,1-2.33-1l-.62-.31-3.29,2.35L5.41,32.79,7.76,29.5l-.31-.62a14.4,14.4,0,0,1-1-2.33l-.22-.65-4-.67V18.05l4-.66.22-.66a14.4,14.4,0,0,1,1-2.33l.31-.62L5.41,10.49l5.08-5.08,3.29,2.35.62-.31a14.4,14.4,0,0,1,2.33-1l.66-.22.66-4h7.18l.67,4,.65.22a14.4,14.4,0,0,1,2.33,1l.62.31,3.29-2.35,3.7,3.7H27.08A13.54,13.54,0,0,0,21.64,8a13.67,13.67,0,0,0,0,27.34,13.54,13.54,0,0,0,3.42-.45V41Zm7-8.5a11.26,11.26,0,0,1-3.42.53,11.39,11.39,0,0,1,0-22.78,11.22,11.22,0,0,1,3.42.53v2.44a9.11,9.11,0,1,0,0,16.84Zm0-5a6.83,6.83,0,1,1,0-11.8ZM16,68.34H13.67V59.23H16ZM2.28,63.78a4.55,4.55,0,0,1,4.55-4.55h4.56v9.11H6.83A4.56,4.56,0,0,1,2.28,63.78Zm45.56-3.64,5.82,3.64-5.82,3.64Zm20.5,8.2H50.67L58,63.78,47,57H29.61v2.28h16v3.41H33v2.28H45.56v3.42H18.22V64.92H30.75V62.64H18.22V59.23h6.84A2.28,2.28,0,0,0,27.33,57V11.39h41Z"/><path class="cls-1" d="M29.61,16H47.84v2.27H29.61Z"/><path class="cls-1" d="M29.61,20.5H47.84v2.28H29.61Z"/><path class="cls-1" d="M29.61,25.06H47.84v2.27H29.61Z"/><path class="cls-1" d="M57,31.89h2.28v2.28H57Z"/><path class="cls-1" d="M61.5,31.89h2.28v2.28H61.5Z"/><path class="cls-1" d="M52.39,31.89h2.28v2.28H52.39Z"/><path class="cls-1" d="M29.61,36.45H66.06v2.27H29.61Z"/><path class="cls-1" d="M29.61,41H66.06v2.28H29.61Z"/><path class="cls-1" d="M29.61,45.56H66.06v2.28H29.61Z"/><path class="cls-1" d="M29.61,50.11H66.06v2.28H29.61Z"/><path class="cls-1" d="M52.39,54.67H66.06V57H52.39Z"/><path class="cls-1" d="M64.73,20.12l4.59-4.59-1.75-1.76-2.84,2.85v-.73H49.86V30.76H64.73ZM52.34,28.28V18.37h9.91v.72l-4.76,4.77L55.85,21.4l-2.06,1.37,3.31,5,5.15-5.15v5.68Z"/></g></g></svg>