<svg xmlns="http://www.w3.org/2000/svg" viewBox="0 0 86.17 101.06"><defs><style>.cls-1{fill:#3d5da6;}</style></defs><title>Sectores-Restaurantes-Requerimientos-02-Condiciones</title><g id="Layer_2" data-name="Layer 2"><g id="Capa_1" data-name="Capa 1"><polygon class="cls-1" points="18.59 24.41 15.96 24.41 15.96 28.98 5.47 28.98 5.47 19.84 13.34 19.84 13.34 17.55 2.84 17.55 2.84 31.27 18.59 31.27 18.59 24.41"/><polygon class="cls-1" points="9.02 22.46 7.16 24.07 10.71 27.17 24.77 14.93 22.91 13.32 10.71 23.94 9.02 22.46"/><path class="cls-1" d="M63.93,55.51c6.52-2.42,11.12-8.13,11.12-14.77,0-8.83-8.1-16-18.07-16-8,0-14.83,4.66-17.18,11.08H0V43.2H2.78V93.68H0v7.38H78.69l3-5.35A6.22,6.22,0,0,0,86.17,90V88.75H84.74a5.62,5.62,0,0,0,1.43-3.69V83.83H84.74a5.62,5.62,0,0,0,1.43-3.7V78.9H84.74a5.62,5.62,0,0,0,1.43-3.69V74H63.93ZM57,27.2c8.43,0,15.29,6.07,15.29,13.54S65.41,54.28,57,54.28,41.7,48.21,41.7,40.74,48.55,27.2,57,27.2Zm0,29.54a20.33,20.33,0,0,0,4.17-.44v4.14H5.56V43.2H39.15C40.5,50.86,48,56.74,57,56.74Zm4.17,6.16V74H58.37V62.9Zm-34.71,16H25v1.23a5.67,5.67,0,0,0,1.42,3.7H25v1.23a5.66,5.66,0,0,0,1.42,3.69H25V90a5.69,5.69,0,0,0,1.42,3.7H11.12V62.9H55.59V74H25v1.23A5.66,5.66,0,0,0,26.44,78.9Zm-18.1-16V93.68H5.56V62.9ZM2.78,38.28H39.15a14.24,14.24,0,0,0-.23,2.46H2.78Zm0,60.32V96.14H31.11L32.5,98.6Zm76.44-4.92H69.49v2.46h8.87L77,98.6H35.6l-1.38-2.46H66.71V93.68H32A4.18,4.18,0,0,1,28,91.21H83.15A4.17,4.17,0,0,1,79.22,93.68Zm0-4.93H32A4.19,4.19,0,0,1,28,86.29H38.92V83.83H32A4.19,4.19,0,0,1,28,81.37H83.15a4.18,4.18,0,0,1-3.93,2.46H41.7v2.46H83.15A4.18,4.18,0,0,1,79.22,88.75Zm3.93-12.31a4.18,4.18,0,0,1-3.93,2.46H32A4.19,4.19,0,0,1,28,76.44Z"/><rect class="cls-1" x="8.34" y="45.66" width="2.78" height="2.46"/><rect class="cls-1" x="13.9" y="45.66" width="2.78" height="2.46"/><rect class="cls-1" x="19.46" y="45.66" width="2.78" height="2.46"/><rect class="cls-1" x="8.34" y="50.59" width="30.58" height="2.46"/><rect class="cls-1" x="8.34" y="55.51" width="30.58" height="2.46"/><path class="cls-1" d="M84.78,64.13a4,4,0,0,1-4.17-3.69V59.21H77.83v1.23a4,4,0,0,1-4.17,3.69H72.27v2.46h1.39a4,4,0,0,1,4.17,3.7v1.23h2.78V70.29a4,4,0,0,1,4.17-3.7h1.39V64.13Zm-5.56,2.5a7,7,0,0,0-1.43-1.27,6.68,6.68,0,0,0,1.43-1.27,6.68,6.68,0,0,0,1.43,1.27A7,7,0,0,0,79.22,66.63Z"/><path class="cls-1" d="M27.8,72.75V70.29H26.41a4,4,0,0,1-4.17-3.7V65.36H19.46v1.23a4,4,0,0,1-4.17,3.7H13.9v2.46h1.39a4,4,0,0,1,4.17,3.69v1.23h2.78V76.44a4,4,0,0,1,4.17-3.69Zm-6.95,0a6.5,6.5,0,0,0-1.44-1.27,6.76,6.76,0,0,0,1.44-1.27,6.47,6.47,0,0,0,1.43,1.27A6.23,6.23,0,0,0,20.85,72.79Z"/><path class="cls-1" d="M56.92,51.82h.13c3.8,0,6.88-2.74,6.88-6.1a5.58,5.58,0,0,0-.9-3L57,33.33l-6,9.37a5.59,5.59,0,0,0-.91,3C50,49.08,53.12,51.82,56.92,51.82Z"/><rect class="cls-1" x="55.59" y="28.43" width="2.78" height="2.46"/><polygon class="cls-1" points="79.43 54.08 83.28 54.08 83.28 3.77 83.28 0 79.43 0 2.89 0 2.89 3.77 79.43 3.77 79.43 54.08"/></g></g></svg>