<svg xmlns="http://www.w3.org/2000/svg" viewBox="0 0 80.87 104.3"><defs><style>.cls-1{fill:#3d5da6;}</style></defs><title>Sectores-Restaurantes-Requerimientos-01-Documentacion</title><g id="Layer_2" data-name="Layer 2"><g id="Capa_1" data-name="Capa 1"><path class="cls-1" d="M74,17.63H39.91V29.05H74ZM71.4,26.77H42.53V19.91H71.4Z"/><path class="cls-1" d="M45.16,22.2h2.62v2.28H45.16Z"/><path class="cls-1" d="M50.41,22.2H53v2.28H50.41Z"/><path class="cls-1" d="M55.66,22.2h2.62v2.28H55.66Z"/><path class="cls-1" d="M60.9,22.2h2.63v2.28H60.9Z"/><path class="cls-1" d="M66.15,22.2h2.63v2.28H66.15Z"/><path class="cls-1" d="M50,0,22.84,23.65l-3.78-3.29L14.92,24l7.92,6.89L54.13,3.6Z"/><path class="cls-1" d="M8.09,93.73h4v3.52h-4Z"/><path class="cls-1" d="M16.17,93.73h4v3.52h-4Z"/><path class="cls-1" d="M24.26,93.73h4v3.52h-4Z"/><path class="cls-1" d="M8.09,83.17H32.35v3.52H8.09Z"/><path class="cls-1" d="M8.09,76.13H32.35v3.52H8.09Z"/><path class="cls-1" d="M8.09,69.08H32.35V72.6H8.09Z"/><path class="cls-1" d="M8.09,62H32.35v3.52H8.09Z"/><path class="cls-1" d="M46.12,51.31H70.38v3.52H46.12Z"/><path class="cls-1" d="M46.12,44.26H70.38v3.53H46.12Z"/><path class="cls-1" d="M46.12,37.22H70.38v3.52H46.12Z"/><path class="cls-1" d="M8.09,56.07H32.25v2.78H8.09Z"/><polygon class="cls-1" points="76.83 10.98 76.83 14.5 76.83 44.87 76.83 100.78 4.04 100.78 4.04 44.87 4.04 14.5 4.04 10.98 0 10.98 0 104.3 80.87 104.3 80.87 10.98 76.83 10.98"/><path class="cls-1" d="M52.51,92.16h1.72v1.49H52.51Z"/><path class="cls-1" d="M52.51,95.15h1.72v1.49H52.51Z"/><path class="cls-1" d="M52.51,98.14h1.72v1.49H52.51Z"/><path class="cls-1" d="M60.24,92.91h4.29V94.4H60.24Z"/><path class="cls-1" d="M76.54,92.05a5.49,5.49,0,0,0-4.75-5.12l-3-.55V68.7a4.06,4.06,0,0,0,1.51.29A3.43,3.43,0,0,0,74,65.83a6.25,6.25,0,0,0-1.64-4.16,16.86,16.86,0,0,0-12.64-5.38,38,38,0,0,0-14.06,2.65l-.34.13a4.59,4.59,0,0,0-3.07,4.16A4.24,4.24,0,0,0,43.27,66l1.52,1.76V86.38l-3,.55a5.48,5.48,0,0,0-4.75,5.12v5.34h1.71v5.23H74.83V97.39h1.71Zm-12-6.47v-.4a2.06,2.06,0,0,0-1.72-1.92V81.05a7.14,7.14,0,0,0,2.54-4.66,4.65,4.65,0,0,0,1.75-.69V86.06Zm-7.73-.53-4.29-1.61V82.18a9.64,9.64,0,0,0,8.59,0v1.26ZM48.22,74.83a2.15,2.15,0,0,1,0-4.21ZM48.91,69h0a4.57,4.57,0,0,0-2.4.75V68A38.6,38.6,0,0,1,56.8,66.75,38.7,38.7,0,0,1,67.1,68v1.73A4.57,4.57,0,0,0,64.7,69h0a54.32,54.32,0,0,0-7.9-.77A54.29,54.29,0,0,0,48.91,69Zm16.48,1.61a2.15,2.15,0,0,1,0,4.21Zm-15.45-.26a51.18,51.18,0,0,1,6.86-.62,51.36,51.36,0,0,1,6.87.62v5.36c0,3.29-3.08,6-6.87,6s-6.86-2.69-6.86-6Zm-6-7.13A3.09,3.09,0,0,1,46,60.43l.34-.13a36.11,36.11,0,0,1,13.35-2.52A15,15,0,0,1,71,62.59a4.88,4.88,0,0,1,1.27,3.24,1.81,1.81,0,0,1-1.92,1.67,2.14,2.14,0,0,1-.86-.18l-1.12-.49-.07,0A27.25,27.25,0,0,0,64.79,66a6.78,6.78,0,0,1,2.06-3.16l-1.21-1a8.09,8.09,0,0,0-2.53,3.89l0,.05c-.84-.12-1.78-.22-2.8-.3a6.08,6.08,0,0,1,1.23-3.07l.29-.38-1.43-.83-.29.38a7.58,7.58,0,0,0-1.53,3.81c-.57,0-1.15,0-1.76,0s-1.19,0-1.75,0a7.54,7.54,0,0,0-1.53-3.81l-.29-.38-1.43.83.29.38a6.08,6.08,0,0,1,1.23,3.07c-1,.08-2,.18-2.8.3l0-.05A8.17,8.17,0,0,0,48,61.74l-1.21,1A6.78,6.78,0,0,1,48.82,66a28.92,28.92,0,0,0-2.86.66l-1.32-1.53A2.84,2.84,0,0,1,43.93,63.23ZM46.51,75.7a4.65,4.65,0,0,0,1.75.69,7.1,7.1,0,0,0,2.54,4.66v2.21a2.05,2.05,0,0,0-1.72,1.92v.4l-2.57.48ZM38.78,92.05a3.93,3.93,0,0,1,3.4-3.66l8.62-1.61v-1.6a.58.58,0,0,1,.79-.45l3.5,1.3v2.58l-6,1.49v11H46.51V99.4l-.91-1.18a3.74,3.74,0,0,1,0-4.65A4.29,4.29,0,0,0,46.51,91v-1H44.79v1a2.88,2.88,0,0,1-.62,1.78,5.16,5.16,0,0,0-1.1,3.15H38.78Zm1.72,5.34h2.81a5.59,5.59,0,0,0,.86,1.66l.62.81v1.27H40.5Zm32.61,3.74H68.82V99.86l.62-.81a5.59,5.59,0,0,0,.86-1.66h2.81Zm1.72-5.24h-4.3a5.15,5.15,0,0,0-1.09-3.15A2.88,2.88,0,0,1,68.82,91v-1H67.1v1A4.29,4.29,0,0,0,68,93.57a3.74,3.74,0,0,1,0,4.65L67.1,99.4v1.73H50.8v-9.9l6-1.5V86.67L62,84.73a.57.57,0,0,1,.79.45v1.6l8.62,1.61a3.93,3.93,0,0,1,3.4,3.66Z"/><path class="cls-1" d="M12,33.65,8.67,54.41h2.81l4.36-1.92,3.27,1.92H21.7L23,44.09l1.31,10.32H26.9l3.27-1.92,4.35,1.92h2.82l-.1-.6h0L35,39.88h7.13l.73-2.08H34.65l-.34-2.08h9.25l.73-2.07H34l-.35-2.17a11.55,11.55,0,0,0,3.54-8.21c0-6.87-6.35-12.46-14.16-12.46S8.85,16.4,8.85,23.27a11.55,11.55,0,0,0,3.54,8.21L12,33.65Zm12.28,2a16.27,16.27,0,0,0,2.32-.38l1.55,8.9,2.33-.32L28.9,34.58a14.84,14.84,0,0,0,2.62-1.38l3.07,18.92L30,50.1l-3.6,2.11ZM11.21,23.27c0-5.73,5.29-10.38,11.79-10.38s11.8,4.65,11.8,10.38S29.51,33.65,23,33.65,11.21,29,11.21,23.27Zm.21,28.84L14.49,33.2a14.84,14.84,0,0,0,2.62,1.38l-1.62,9.29,2.33.32,1.55-8.9a16.27,16.27,0,0,0,2.32.38L19.6,52.21,16,50.1Z"/><rect class="cls-1" x="48.62" y="10.81" width="32.25" height="3.77"/></g></g></svg>