<svg xmlns="http://www.w3.org/2000/svg" viewBox="0 0 95.84 98.86"><defs><style>.cls-1{fill:#3d5da6;}</style></defs><title>Sectores-Restaurantes-Requerimientos-04-Materias</title><g id="Layer_2" data-name="Layer 2"><g id="Capa_1" data-name="Capa 1"><path class="cls-1" d="M93.79,82.07H71.54a1.4,1.4,0,1,1,0-2.77H92.2V72.38c0-.95-3.31-3-7-4.25a1.5,1.5,0,0,1-.88-.77l-9.14-19.9H58.82a2.89,2.89,0,0,0-3.18,2.43,1.93,1.93,0,0,0,0,.34V80.69a1.61,1.61,0,0,1-3.18,0V50.23c-.1-3,2.58-5.45,6-5.54H76.31a1.6,1.6,0,0,1,1.47.87l9.29,20.23c2.59,1,8.31,3.45,8.31,6.59v8.31A1.5,1.5,0,0,1,93.79,82.07Z"/><path class="cls-1" d="M84.26,88.05H81.08a1.39,1.39,0,1,1,0-2.76h3.18A4.35,4.35,0,0,0,89,81.55a2.94,2.94,0,0,0,0-.42,1.5,1.5,0,0,1,1.59-1.38h0a1.49,1.49,0,0,1,1.58,1.38c.16,3.69-3.13,6.79-7.36,6.92A5.61,5.61,0,0,1,84.26,88.05Z"/><path class="cls-1" d="M14.31,87.61H1.59A1.5,1.5,0,0,1,0,86.23V80.69A1.5,1.5,0,0,1,1.59,79.3H54.05a1.4,1.4,0,1,1,0,2.77H3.18v2.77H14.31a1.4,1.4,0,1,1,0,2.77Z"/><path class="cls-1" d="M23.85,98.69c-6.15,0-11.13-4.34-11.13-9.69s5-9.7,11.13-9.7S35,83.64,35,89,30,98.68,23.85,98.69Zm0-16.62c-4.39,0-8,3.1-8,6.93s3.56,6.92,8,6.92,7.94-3.1,7.94-6.92S28.23,82.08,23.85,82.07Z"/><path class="cls-1" d="M71.54,98.69c-6.15,0-11.13-4.34-11.13-9.69s5-9.7,11.13-9.7S82.67,83.64,82.67,89,77.68,98.68,71.54,98.69Zm0-16.62c-4.39,0-8,3.1-8,6.93s3.56,6.92,8,6.92,7.95-3.1,7.95-6.92S75.93,82.08,71.54,82.07Z"/><path class="cls-1" d="M62,87.61H33.38a1.4,1.4,0,1,1,0-2.77H62a1.4,1.4,0,1,1,0,2.77Z"/><path class="cls-1" d="M23.85,93.15c-2.64,0-4.77-1.86-4.77-4.15s2.13-4.16,4.77-4.16S28.61,86.7,28.61,89,26.48,93.15,23.85,93.15Zm0-5.54A1.4,1.4,0,1,0,25.44,89,1.5,1.5,0,0,0,23.85,87.61Z"/><path class="cls-1" d="M71.54,93.15c-2.64,0-4.77-1.86-4.77-4.15s2.13-4.16,4.77-4.16S76.31,86.7,76.31,89,74.17,93.15,71.54,93.15Zm0-5.54A1.4,1.4,0,1,0,73.13,89,1.5,1.5,0,0,0,71.54,87.61Z"/><path class="cls-1" d="M54.05,59.92H47.69a1.4,1.4,0,1,1,0-2.77h6.36a1.4,1.4,0,1,1,0,2.77Z"/><path class="cls-1" d="M54.05,65.46H47.69a1.4,1.4,0,1,1,0-2.77h6.36a1.4,1.4,0,1,1,0,2.77Z"/><path class="cls-1" d="M54.05,71H47.69a1.4,1.4,0,1,1,0-2.77h6.36a1.4,1.4,0,1,1,0,2.77Z"/><path class="cls-1" d="M54.05,76.54H47.69a1.4,1.4,0,1,1,0-2.77h6.36a1.4,1.4,0,1,1,0,2.77Z"/><path class="cls-1" d="M85.84,68.23H60.41a1.5,1.5,0,0,1-1.59-1.39V63.26l-5.89-5.13a1.25,1.25,0,0,1,0-2,1.75,1.75,0,0,1,2.2,0l6.36,5.53a1.3,1.3,0,0,1,.47,1v2.77H85.84a1.4,1.4,0,1,1,0,2.77Z"/><path class="cls-1" d="M60.41,77.92a1.5,1.5,0,0,1-1.59-1.38v-9.7a1.61,1.61,0,0,1,3.18,0v9.7A1.5,1.5,0,0,1,60.41,77.92Z"/><polygon class="cls-1" points="94.92 0 9.28 0.6 9.35 9 13.64 9 13.59 4.3 90.67 3.76 91.23 62.96 91.53 95.13 91.56 98.86 95.84 98.83 94.92 0"/><path class="cls-1" d="M27.77,31.5a1.54,1.54,0,0,0-1.28-.65h0a1.54,1.54,0,0,0-1.28.65L23,34.7a3.37,3.37,0,0,0-.14,3.68,4,4,0,0,0,3.28,1.95h.61a4.06,4.06,0,0,0,3.29-1.95,3.37,3.37,0,0,0-.14-3.67l-2.17-3.2Zm.37,6a1.84,1.84,0,0,1-1.5.91h-.31a1.83,1.83,0,0,1-1.5-.9,1.61,1.61,0,0,1,.06-1.76l1.6-2.35,1.59,2.35a1.63,1.63,0,0,1,.07,1.76ZM11.21,15a2.85,2.85,0,0,0-2.83,2.1H5.08a2.77,2.77,0,0,0-2.9,2.6h0v1.67a2.76,2.76,0,0,0,2.9,2.6h3.3A2.85,2.85,0,0,0,11.21,26h6.42a2.83,2.83,0,0,0,2.84-2.1h2.18v.7A2.57,2.57,0,0,0,21,27v.3a2.76,2.76,0,0,0,2.9,2.6H29.1A2.77,2.77,0,0,0,32,27.29V27a2.6,2.6,0,0,0-1.69-2.35v-5a2.76,2.76,0,0,0-2.9-2.6h-7A2.84,2.84,0,0,0,17.62,15h-.26v-.62h.77a2.77,2.77,0,0,0,2.9-2.6,2.76,2.76,0,0,0-2.9-2.6H10.81a2.75,2.75,0,0,0-2.9,2.6,2.76,2.76,0,0,0,2.9,2.6h.76V15Zm1.45-2.58H10.81a.65.65,0,1,1,0-1.3h7.32a.65.65,0,1,1,0,1.3H16.28a1,1,0,0,0-1.09,1V16a1,1,0,0,0,1.09,1h1.35a.69.69,0,0,1,.72.65v.48a1,1,0,0,0,1.09,1h8a.69.69,0,0,1,.72.65v5.72a1,1,0,0,0,1,1,.69.69,0,0,1,.67.65v.3a.69.69,0,0,1-.73.65H23.87a.69.69,0,0,1-.72-.65V27a.68.68,0,0,1,.67-.65,1,1,0,0,0,1-1V23a1,1,0,0,0-1.09-1h-4.3a1,1,0,0,0-1.09,1v.48a.69.69,0,0,1-.73.65H11.21a.69.69,0,0,1-.72-.65V23A1,1,0,0,0,9.4,22H5.05a.69.69,0,0,1-.73-.65V19.67A.69.69,0,0,1,5.05,19H9.4a1,1,0,0,0,1.09-1v-.47a.69.69,0,0,1,.72-.65h1.45a1,1,0,0,0,1.09-1V13.37a1,1,0,0,0-1.09-1h0Z"/><path class="cls-1" d="M39.89,49.38a3.3,3.3,0,0,0,3.49-3.05,2.74,2.74,0,0,0-.71-1.82,2.79,2.79,0,0,0,.71-1.83,3.29,3.29,0,0,0-3.49-3,3.81,3.81,0,0,0-2.1.62,3.81,3.81,0,0,0-2.1-.62,3.29,3.29,0,0,0-3.49,3,3.07,3.07,0,0,0,2.1,2.79L31.85,47.6l-.13-.11a5,5,0,0,0-6.82.42l0,0A5.12,5.12,0,0,0,22,45.45a4,4,0,0,0-1.41-3,5.34,5.34,0,0,0-4.05-1.21,5.16,5.16,0,0,0-3.86-1.64,5.16,5.16,0,0,0-3.86,1.64,5.33,5.33,0,0,0-4,1.21,4,4,0,0,0-1.41,3c-1.7.61-3.26,2.06-3.26,3.93a4.1,4.1,0,0,0,1.54,2.88,3.87,3.87,0,0,0,1.29,4,4.91,4.91,0,0,0,1.55.91,1.79,1.79,0,0,1,1.21,1.65v4H2.14A2,2,0,0,0,.05,64.59a1.88,1.88,0,0,0,1.57,1.76L4.4,73.63a6.28,6.28,0,0,0,6,3.75H33.06a6.28,6.28,0,0,0,6-3.75l2.78-7.28a1.88,1.88,0,0,0,1.57-1.76,2,2,0,0,0-2.09-1.82H39.85a8.19,8.19,0,0,0-6.11-6.87l.23-.16a3.82,3.82,0,0,0,1.72-3.13,3.77,3.77,0,0,0-1.35-2.83l-.1-.1,2.45-2.13A3.55,3.55,0,0,0,39.89,49.38ZM5,56a3.25,3.25,0,0,1-1.1-.64A2.76,2.76,0,0,1,3,52.27l.15-.37-.34-.27a3.28,3.28,0,0,1-1.4-2.25c0-1.45,1.43-2.59,2.77-2.92l.56-.15-.06-.5a2.84,2.84,0,0,1,1-2.46,3.83,3.83,0,0,1,3.23-.81l.48.09.26-.36a3.63,3.63,0,0,1,3-1.42,3.63,3.63,0,0,1,2.95,1.42l.26.36.48-.09a3.84,3.84,0,0,1,3.23.81,2.81,2.81,0,0,1,1,2.46l-.05.5.56.15c1.34.33,2.77,1.47,2.77,2.92a3.28,3.28,0,0,1-1.4,2.25l-.34.27.14.37a2.74,2.74,0,0,1-.82,3.13,3.45,3.45,0,0,1-1.1.64,3,3,0,0,0-2.05,2.51,5.58,5.58,0,0,0-.72,0,6.46,6.46,0,0,0-1.4.16V55.54l.62-2.15,4.68-2.91-.81-1-3.35,2.08.94-3.26L16.84,48l-2.09,7.31,0,3.84a5.51,5.51,0,0,0-1.4,1V47.55h-1.4V62.77h-1.4V55.46L8.41,48l-1.35.3L8,51.57,4.65,49.49l-.81,1,4.68,2.91.61,2.15v7.23H7v-4A3,3,0,0,0,5,56Zm12.55,3.68a4.07,4.07,0,0,1,4.13,3.05H13.39A4.07,4.07,0,0,1,17.52,59.72ZM6,73.72H7V75A4.18,4.18,0,0,1,6,73.72Zm27.64,0H35V75.8a5.75,5.75,0,0,1-1.39.32Zm-1.4,2.44H30.8V73.72h1.4Zm-2.8,0H28V73.72H29.4Zm-2.79,0h-1.4V73.72h1.4Zm-2.8,0h-1.4V73.72h1.4Zm-2.79,0h-1.4V73.72H21Zm-2.8,0h-1.4V73.72h1.4Zm-2.8,0H14V73.72h1.39Zm-2.79,0h-1.4V73.72h1.4Zm-2.8,0a5.94,5.94,0,0,1-1.4-.32V73.72h1.4ZM36.39,75V73.72h1.08A4.18,4.18,0,0,1,36.39,75Zm1.6-2.5H5.44L3.11,66.42H40.32Zm4-7.92a.65.65,0,0,1-.69.61H2.14a.65.65,0,0,1-.69-.61A.66.66,0,0,1,2.14,64H41.29A.66.66,0,0,1,42,64.59ZM23.15,62.77a6.05,6.05,0,0,1,1.08-2.85L27.3,61l3.5-1.22L34.29,61l3.08-1.07a6,6,0,0,1,1.08,2.85Zm13.36-3.86-2.22.77L30.8,58.46l-3.5,1.22-2.21-.77a8.43,8.43,0,0,1,11.42,0Zm-3.42-4.12-.37.26L29.2,52l-1,.86,3,2.63-.43,0a10,10,0,0,0-1.65.14L27.8,54.42l-1,.86.8.7a9.38,9.38,0,0,0-1.49.63l-1.12-1-1,.86.94.82a8.09,8.09,0,0,0-2.73,3.45,5.46,5.46,0,0,0-2.61-1.9v0a1.77,1.77,0,0,1,1.21-1.65,4.91,4.91,0,0,0,1.55-.91,3.86,3.86,0,0,0,1.28-4,4.19,4.19,0,0,0,1.53-2.66l.83-1a3.43,3.43,0,0,1,4.71-.29l2.63,2.29a2.55,2.55,0,0,1-.27,4.15Zm-.25-6.33,3.76-3.27a3.35,3.35,0,0,0,1.19-2.51h-1.4a2.21,2.21,0,0,1-.78,1.65l-.18.15a1.92,1.92,0,0,1-1.83-1.8,2,2,0,0,1,2.09-1.83,2.17,2.17,0,0,1,1.57.64l.53.52.53-.52a2.19,2.19,0,0,1,1.57-.64A2,2,0,0,1,42,42.68a1.7,1.7,0,0,1-.72,1.37l-.6.46.6.46A1.69,1.69,0,0,1,42,46.33a2,2,0,0,1-2.09,1.83,2,2,0,0,1-2.07-1.6l.18-.15a2.85,2.85,0,0,1,1.89-.69V44.51a4.42,4.42,0,0,0-2.88,1l-3.76,3.27Z"/><path class="cls-1" d="M18.92,67.64h5.59v1.21H18.92Z"/><path class="cls-1" d="M18.92,70.07h5.59v1.22H18.92Z"/><path class="cls-1" d="M13.33,67.64h1.4v3.65h-1.4Z"/><path class="cls-1" d="M16.12,67.64h1.4v3.65h-1.4Z"/><path class="cls-1" d="M31.5,67.64h5.59v1.21H31.5Z"/><path class="cls-1" d="M31.5,70.07h5.59v1.22H31.5Z"/><path class="cls-1" d="M25.91,67.64h1.4v3.65h-1.4Z"/><path class="cls-1" d="M28.7,67.64h1.4v3.65H28.7Z"/><path class="cls-1" d="M6.34,67.64h5.59v1.21H6.34Z"/><path class="cls-1" d="M6.34,70.07h5.59v1.22H6.34Z"/><path class="cls-1" d="M38.18,22.14h25.7v3.73H38.18Z"/><path class="cls-1" d="M38.18,15.93h25.7v3.73H38.18Z"/><path class="cls-1" d="M38.18,27.47h25.7V31.2H38.18Z"/><path class="cls-1" d="M47,33.69H63.88v3.73H47Z"/><path class="cls-1" d="M47,39H63.88v3.73H47Z"/><path class="cls-1" d="M38.18,10.6h25.7v3.73H38.18Z"/><polygon class="cls-1" points="78.01 13.94 76.26 13.94 76.26 17.2 69.27 17.2 69.27 10.69 74.52 10.69 74.52 9.06 67.52 9.06 67.52 18.82 78.01 18.82 78.01 13.94"/><polygon class="cls-1" points="71.64 12.55 70.4 13.71 72.77 15.91 82.13 7.2 80.89 6.05 72.77 13.61 71.64 12.55"/><polygon class="cls-1" points="78.01 25.88 76.26 25.88 76.26 29.13 69.27 29.13 69.27 22.63 74.52 22.63 74.52 21 67.52 21 67.52 30.76 78.01 30.76 78.01 25.88"/><polygon class="cls-1" points="71.64 24.49 70.4 25.64 72.77 27.84 82.13 19.13 80.89 17.98 72.77 25.54 71.64 24.49"/><polygon class="cls-1" points="78.01 38.31 76.26 38.31 76.26 41.56 69.27 41.56 69.27 35.06 74.52 35.06 74.52 33.43 67.52 33.43 67.52 43.19 78.01 43.19 78.01 38.31"/><polygon class="cls-1" points="71.64 36.92 70.4 38.07 72.77 40.27 82.13 31.57 80.89 30.41 72.77 37.97 71.64 36.92"/></g></g></svg>