<svg xmlns="http://www.w3.org/2000/svg" viewBox="0 0 86.95 100.19"><defs><style>.cls-1{fill:#3d5da6;}</style></defs><title>Sectores-Restaurantes-Requerimientos-03-Personal</title><g id="Layer_2" data-name="Layer 2"><g id="Capa_1" data-name="Capa 1"><path class="cls-1" d="M8.09,89.63h4v3.52h-4Z"/><path class="cls-1" d="M16.17,89.63h4v3.52h-4Z"/><path class="cls-1" d="M24.26,89.63h4v3.52h-4Z"/><path class="cls-1" d="M8.09,38.82H32.35v3.52H8.09Z"/><path class="cls-1" d="M8.09,44.69H32.35v3.52H8.09Z"/><polygon class="cls-1" points="76.83 38.15 76.83 40.77 76.83 96.67 4.04 96.67 4.04 40.77 4.04 10.4 4.04 6.88 0 6.88 0 100.19 80.87 100.19 80.87 38.15 76.83 38.15"/><path class="cls-1" d="M84.23,6.52a2.91,2.91,0,0,0-1.36.33V4.15a2.56,2.56,0,0,0-2.72-2.37,3,3,0,0,0-1.39.34A2.6,2.6,0,0,0,76.07,0a2.56,2.56,0,0,0-2.72,2.37V2.7A3.11,3.11,0,0,0,72,2.37c-.12,0-.24,0-.35,0a2.81,2.81,0,0,0-2.37-1.21,3,3,0,0,0-1.52.4A2.72,2.72,0,0,0,65.18,0a2.56,2.56,0,0,0-2.72,2.37V2.7a3,3,0,0,0-1.36-.33,2.56,2.56,0,0,0-2.72,2.37V5.93H51.57V7.11h6.81V10.4A3.07,3.07,0,0,0,57,10.07a2.58,2.58,0,0,0-2.73,2.37H44.77v1.19h9.52v4.74H50.21v1.18h4.08v1.78a11.38,11.38,0,0,0,1.53,6.07c.26.51.52,1,.77,1.63H44.77v1.19H57a20.78,20.78,0,0,1,.69,5.92v.6H82.87v-.6c0-4.87.94-6.24,1.94-7.69S87,25.35,87,20.15V8.89A2.56,2.56,0,0,0,84.23,6.52Zm-25.18,29c-.07-4.87-1.09-6.87-2-8.63a10.47,10.47,0,0,1-1.4-5.59V12.44a1.37,1.37,0,0,1,2.72,0V19h1.36V4.74a1.37,1.37,0,0,1,2.72,0V15.41h1.36v-13a1.37,1.37,0,0,1,2.72,0V8.89H67.9V3.56a1.28,1.28,0,0,1,1.36-1.19,1.41,1.41,0,0,1,1.09.48,2.32,2.32,0,0,0-1.09,1.89V10.4a3,3,0,0,0-1.36-.33,2.57,2.57,0,0,0-2.72,2.37v8.89A11.48,11.48,0,0,0,66.7,27.4c.89,1.74,1.8,3.54,1.88,8.15Zm26.54-15.4c0,4.87-.94,6.24-1.94,7.69s-2.06,3-2.14,7.71H69.94c-.08-4.87-1.09-6.87-2-8.63a10.37,10.37,0,0,1-1.41-5.59V12.44a1.37,1.37,0,0,1,2.72,0V19h1.36V4.74a1.38,1.38,0,0,1,2.73,0V15.41h1.36v-13a1.37,1.37,0,0,1,2.72,0v13h1.36V4.15a1.37,1.37,0,0,1,2.72,0V15.41h1.36V8.89a1.37,1.37,0,0,1,2.72,0Z"/><rect class="cls-1" x="78.79" y="33.18" width="1.36" height="1.19"/><rect class="cls-1" x="76.07" y="33.18" width="1.36" height="1.19"/><rect class="cls-1" x="44.77" y="20.74" width="6.8" height="1.19"/><rect class="cls-1" x="44.77" y="26.66" width="3.4" height="1.19"/><rect class="cls-1" x="47.49" y="18.37" width="1.36" height="1.19"/><rect class="cls-1" x="44.77" y="5.93" width="4.76" height="1.19"/><path class="cls-1" d="M23.27,24.79a17.3,17.3,0,0,0-7.95,1.91l.54.79a16.08,16.08,0,0,1,7.41-1.79A2.47,2.47,0,0,1,25.89,28a2.47,2.47,0,0,1-2.62,2.28,16.08,16.08,0,0,1-7.41-1.79l-.54.79a17.31,17.31,0,0,0,8,1.92A3.46,3.46,0,0,0,26.94,28,3.45,3.45,0,0,0,23.27,24.79Z"/><path class="cls-1" d="M23.27,28.44a13.86,13.86,0,0,1-4.87-.88L18,28.4a15,15,0,0,0,5.28,1Z"/><path class="cls-1" d="M36.49,17.38l-2-2.93a1.49,1.49,0,0,0-1.24-.61,1.56,1.56,0,0,0-1.14.49,7.7,7.7,0,0,0-1.13-3,9.34,9.34,0,0,0-4.45-3.58L22.85,6.32l-.09.61a19.87,19.87,0,0,1-2,6l-.27.52a7.55,7.55,0,0,0-.32.72,12.66,12.66,0,0,0-3.6-1.59,13.2,13.2,0,0,0-4.34-.43l-5.47.37.53.92a13.38,13.38,0,0,1,1.68,5,8.06,8.06,0,0,0,5.84,6.47l-.54.26L10.88,26.9a1.18,1.18,0,0,0,0,2.16l3.37,1.76a19.47,19.47,0,0,0,9,2.18A5.55,5.55,0,0,0,29,28.63a6.19,6.19,0,0,0,4.25,1.63c3.18,0,5.76-2.25,5.76-5A13.8,13.8,0,0,0,36.49,17.38Zm-14.8-4.07a20.83,20.83,0,0,0,2-5.65l2.38.94a8.36,8.36,0,0,1,4,3.2,6.76,6.76,0,0,1,1.08,3.65v.21h0L30,17.38a13.93,13.93,0,0,0-2.38,6.14l-1-1.76a5.25,5.25,0,0,1-.64-2l.17-.35a20.87,20.87,0,0,1,3.35-4.86L28.63,14a21.34,21.34,0,0,0-2.21,2.85l.18-.55a6.72,6.72,0,0,0,.34-2.12A6.87,6.87,0,0,0,26,10.73l-.68-1.2-.94.4.69,1.2A6.09,6.09,0,0,1,25.6,16a6.25,6.25,0,0,0-2.25-2L23,13.9l-.54.78.33.18a5,5,0,0,1,2.35,2.51l0,.09a5.46,5.46,0,0,0-.29,1.79,5.87,5.87,0,0,0,.79,2.92l1,1.75a6.07,6.07,0,0,0-2.56-.9l-.9-.79a7,7,0,0,1-2.52-5.3,6.6,6.6,0,0,1,.77-3.11Zm-11.7,5a14,14,0,0,0-1.62-5l3.92-.27a12,12,0,0,1,4,.39,11.3,11.3,0,0,1,3.58,1.67,7.29,7.29,0,0,0-.22,1.81,7.21,7.21,0,0,0,.5,2.65c-.36-.32-.74-.64-1.12-.95h0l-.5-.72a5.58,5.58,0,0,1-1-3.15H16.46a6.31,6.31,0,0,0,.5,2.42,25.65,25.65,0,0,0-6.08-2.85l-.36.86a23.76,23.76,0,0,1,8.13,4.43,11.38,11.38,0,0,0-5.5.18l.34.87a10.1,10.1,0,0,1,5.89.09l.81.27,2,2a19.47,19.47,0,0,0-6,1.27A7.28,7.28,0,0,1,10,18.31ZM28,28c0,2.27-2.11,4.11-4.72,4.11A18.34,18.34,0,0,1,14.79,30l-3.37-1.76a.32.32,0,0,1,0-.6l3.37-1.76a18.34,18.34,0,0,1,8.48-2.05,4.77,4.77,0,0,1,4.36,2.54,4.23,4.23,0,0,0,.24.68A3.24,3.24,0,0,1,28,28Zm5.24,1.37a4.8,4.8,0,0,1-4.36-2.53,3.91,3.91,0,0,0-.24-.68,3.83,3.83,0,0,1-.12-.9,13,13,0,0,1,2.36-7.39l2-2.93a.43.43,0,0,1,.68,0l2,2.93A13,13,0,0,1,38,25.24C38,27.51,35.83,29.35,33.23,29.35Z"/><path class="cls-1" d="M34.7,18.32l-.9.47a11.37,11.37,0,0,1,2.05,6.45,2.65,2.65,0,0,1-5.24,0,11.37,11.37,0,0,1,2-6.45l-.9-.47a12.16,12.16,0,0,0-2.2,6.92,3.47,3.47,0,0,0,3.67,3.2,3.47,3.47,0,0,0,3.67-3.2A12.16,12.16,0,0,0,34.7,18.32Z"/><path class="cls-1" d="M32.71,25.24a9.47,9.47,0,0,1,1-4.24l-1-.36a10.2,10.2,0,0,0-1.09,4.6Z"/><polygon class="cls-1" points="18.26 56.23 16.61 56.23 16.61 59.3 10 59.3 10 53.16 14.96 53.16 14.96 51.62 8.35 51.62 8.35 60.84 18.26 60.84 18.26 56.23"/><polygon class="cls-1" points="12.24 54.92 11.07 56.01 13.3 58.08 22.14 49.86 20.98 48.78 13.3 55.91 12.24 54.92"/><polygon class="cls-1" points="18.26 67.5 16.61 67.5 16.61 70.57 10 70.57 10 64.43 14.96 64.43 14.96 62.89 8.35 62.89 8.35 72.11 18.26 72.11 18.26 67.5"/><polygon class="cls-1" points="12.24 66.19 11.07 67.27 13.3 69.35 22.14 61.13 20.98 60.05 13.3 67.18 12.24 66.19"/><polygon class="cls-1" points="18.26 79.24 16.61 79.24 16.61 82.31 10 82.31 10 76.17 14.96 76.17 14.96 74.63 8.35 74.63 8.35 83.84 18.26 83.84 18.26 79.24"/><polygon class="cls-1" points="12.24 77.93 11.07 79.01 13.3 81.09 22.14 72.87 20.98 71.78 13.3 78.92 12.24 77.93"/><path class="cls-1" d="M69.31,81.59,59,78.6V76.78a9.88,9.88,0,0,0,4.62-5.51,4.64,4.64,0,0,0,4.45-4.33V53.66a5.64,5.64,0,0,0,2-5,6.68,6.68,0,0,0-5.87-5.36,7.78,7.78,0,0,0-5.84,1.47,10.16,10.16,0,0,0-10.79,0,7.79,7.79,0,0,0-5.84-1.47,6.67,6.67,0,0,0-5.87,5.36,5.64,5.64,0,0,0,2,5V66.94a4.64,4.64,0,0,0,4.45,4.33,9.9,9.9,0,0,0,4.63,5.51V78.6l-10.3,3a6.28,6.28,0,0,0-4.83,5.83V97.68H74.14V87.42A6.29,6.29,0,0,0,69.31,81.59ZM66,95.92H63V90.65h2.38ZM40.49,90.65h2.38v5.27H39.94Zm4.39,0h4v5.27h-4Zm6.06,0h4v5.27h-4Zm6.05,0h4v5.27H57ZM44.08,88.9l1.3-6.26,3.32,5L53,84l4.26,3.7,3.32-5,1.3,6.26Zm15.46-8.29-2.77,4.22-2.31-2,3.74-2.6Zm6.53-19v1.78a5.64,5.64,0,0,0-2-.81v-1ZM64,69.42c0-.24,0-.48,0-.73V64.46a2.53,2.53,0,0,1,0,5ZM37.86,48.86A4.74,4.74,0,0,1,42,45a5.49,5.49,0,0,1,4.68,1.5l.68.7.77-.62a7.84,7.84,0,0,1,9.57,0l.77.62.68-.7A5.48,5.48,0,0,1,63.87,45a4.75,4.75,0,0,1,4.18,3.83,4,4,0,0,1-1.65,3.77l-.33.27v3.49H45.89v1.76H66.07v1.76H39.84V58.15h4V56.39h-4V52.9l-.33-.27A4,4,0,0,1,37.86,48.86Zm4,13.77a5.64,5.64,0,0,0-2,.81V61.66h2Zm-2,4.31a2.7,2.7,0,0,1,2-2.48v4.23c0,.25,0,.49,0,.73A2.69,2.69,0,0,1,39.84,66.94Zm4,1.75v-7H62v7C62,73.05,58,76.6,53,76.6S43.88,73.05,43.88,68.69ZM53,78.35a12.4,12.4,0,0,0,4-.67v1.13l-4,2.81-4-2.81V77.68A12.39,12.39,0,0,0,53,78.35Zm-5.24,1.87,3.73,2.6-2.3,2-2.77-4.22Zm-13.92,7.2a4.49,4.49,0,0,1,3.45-4.16l6.35-1.85L42,88.9H40.67l.18-1.68-2-.16-.93,8.86H33.79Zm38.33,8.5H68l-.93-8.86-2,.16.18,1.68H63.88l-1.56-7.49,6.35,1.85a4.49,4.49,0,0,1,3.45,4.16Z"/></g></g></svg>