<svg xmlns="http://www.w3.org/2000/svg" xmlns:xlink="http://www.w3.org/1999/xlink" viewBox="0 0 188 188"><defs><style>.cls-1{fill:url(#Degradado_sin_nombre_18);}.cls-2{fill:url(#Degradado_sin_nombre_18-2);}.cls-3{fill:url(#Degradado_sin_nombre_18-3);}.cls-4{fill:#3d5da6;}</style><linearGradient id="Degradado_sin_nombre_18" x1="145.55" y1="128.87" x2="188" y2="128.87" gradientUnits="userSpaceOnUse"><stop offset="0.03" stop-color="#e67d23"/><stop offset="1" stop-color="#fbb03b"/></linearGradient><linearGradient id="Degradado_sin_nombre_18-2" x1="181.94" y1="60.65" y2="60.65" xlink:href="#Degradado_sin_nombre_18"/><linearGradient id="Degradado_sin_nombre_18-3" x1="181.94" y1="48.52" y2="48.52" xlink:href="#Degradado_sin_nombre_18"/></defs><title>Registrate-Registrate</title><g id="Layer_2" data-name="Layer 2"><g id="Capa_1" data-name="Capa 1"><path class="cls-1" d="M181.94,100.06H169.81a6.07,6.07,0,0,0-6.07,6.07v18.44a21.23,21.23,0,0,0-18.19,21v21.22a21.23,21.23,0,1,0,42.45,0V145.55a21.24,21.24,0,0,0-18.19-21V106.13h12.13a6.07,6.07,0,0,0,6.06-6.07V69.74h-6.06Zm-30.33,66.71V154.65h12.13v27A15.2,15.2,0,0,1,151.61,166.77Zm18.2,14.86v-27h12.13v12.12A15.2,15.2,0,0,1,169.81,181.63Zm12.13-36.08v3H151.61v-3a15.17,15.17,0,0,1,30.33,0Z"/><path class="cls-2" d="M181.94,57.61H188v6.07h-6.06Z"/><path class="cls-3" d="M181.94,45.48H188v6.07h-6.06Z"/><path class="cls-4" d="M0,0V132.87l11.56,2.32a60.64,60.64,0,0,0,5.07,12.24l-6.54,9.81,20.67,20.67,9.81-6.54a60.41,60.41,0,0,0,12.24,5.07L55.13,188H84.36l2.31-11.56a60.41,60.41,0,0,0,12.24-5.07l9.81,6.54,20.67-20.67-6.54-9.81a60.41,60.41,0,0,0,5.07-12.24l11.56-2.32V115.23H97V42.45H12.13v72.78H6.06V30.32H181.94v9.1H188V0ZM54.58,84.9a9.11,9.11,0,0,1-9.1-9.09V69.74a9.1,9.1,0,0,1,18.2,0v6.07A9.11,9.11,0,0,1,54.58,84.9Zm0,6.07a15.12,15.12,0,0,0,3-.31v2.08l-3,3-3-3V90.66A15.12,15.12,0,0,0,54.58,91Zm-6.95,6.44,6.95,6.94,7-6.94,12.91,3.69a6.08,6.08,0,0,1,4.4,5.83v8.3H30.32v-8.3a6.08,6.08,0,0,1,4.4-5.83Zm49.22,23.88a27.28,27.28,0,0,1-54.22,0ZM18.19,48.52H91v66.71H84.9v-8.3a12.18,12.18,0,0,0-8.79-11.67L63.68,91.71V87.86a15.09,15.09,0,0,0,6.06-12V69.74a15.16,15.16,0,0,0-30.32,0v6.07a15.09,15.09,0,0,0,6.06,12v3.85L33.05,95.26a12.19,12.19,0,0,0-8.79,11.67v8.3H18.19Zm6.22,72.77A45.41,45.41,0,0,0,99.5,152.61l-4-4.58a39.34,39.34,0,0,1-65-26.74h6.06a33.34,33.34,0,0,0,66.4,0H109A39.4,39.4,0,0,1,99.51,144l4.58,4a45.53,45.53,0,0,0,11-26.73h18.33v6.61L123,130l-.47,1.85A54.53,54.53,0,0,1,116.68,146l-1,1.64,5.87,8.82L108,170.11l-8.82-5.88-1.64,1a54,54,0,0,1-14.18,5.87l-1.85.48-2.07,10.39H60.1L58,171.54l-1.85-.47A54.53,54.53,0,0,1,42,165.2l-1.64-1-8.82,5.88L17.9,156.46l5.87-8.82-1-1.64a54.25,54.25,0,0,1-5.87-14.18L16.46,130,6.06,127.9v-6.61Zm-18.35-97V6.06H181.94v18.2Z"/><path class="cls-4" d="M103.1,51.55h6.06v6.06H103.1Z"/><path class="cls-4" d="M115.23,51.55h60.64v6.06H115.23Z"/><path class="cls-4" d="M103.1,63.68h72.77v6.06H103.1Z"/><path class="cls-4" d="M103.1,75.81h72.77v6.06H103.1Z"/><path class="cls-4" d="M103.1,87.94h6.06V94H103.1Z"/><path class="cls-4" d="M115.23,87.94h6.06V94h-6.06Z"/><path class="cls-4" d="M127.35,87.94h48.52V94H127.35Z"/><path class="cls-4" d="M103.1,100.06h54.58v6.07H103.1Z"/></g></g></svg>