<svg xmlns="http://www.w3.org/2000/svg" xmlns:xlink="http://www.w3.org/1999/xlink" viewBox="0 0 212.11 229.04"><defs><style>.cls-1{fill:#3d5da6;}.cls-2{fill:url(#Degradado_sin_nombre_18);}.cls-3{fill:url(#Degradado_sin_nombre_18-2);}.cls-4{fill:url(#Degradado_sin_nombre_18-3);}.cls-5{fill:url(#Degradado_sin_nombre_18-4);}.cls-6{fill:url(#Degradado_sin_nombre_18-5);}.cls-7{fill:url(#Degradado_sin_nombre_18-6);}.cls-8{fill:url(#Degradado_sin_nombre_18-7);}.cls-9{fill:url(#Degradado_sin_nombre_18-8);}.cls-10{fill:url(#Degradado_sin_nombre_18-9);}.cls-11{fill:url(#Degradado_sin_nombre_18-10);}</style><linearGradient id="Degradado_sin_nombre_18" x1="195.28" y1="13.5" x2="202.46" y2="13.5" gradientUnits="userSpaceOnUse"><stop offset="0.03" stop-color="#e67d23"/><stop offset="1" stop-color="#fbb03b"/></linearGradient><linearGradient id="Degradado_sin_nombre_18-2" x1="184.29" y1="7.52" x2="191.06" y2="7.52" xlink:href="#Degradado_sin_nombre_18"/><linearGradient id="Degradado_sin_nombre_18-3" x1="172.49" y1="3.83" x2="178.57" y2="3.83" xlink:href="#Degradado_sin_nombre_18"/><linearGradient id="Degradado_sin_nombre_18-4" x1="193.98" y1="16.83" x2="212.11" y2="16.83" xlink:href="#Degradado_sin_nombre_18"/><linearGradient id="Degradado_sin_nombre_18-5" x1="117.11" y1="10.88" x2="165.49" y2="10.88" xlink:href="#Degradado_sin_nombre_18"/><linearGradient id="Degradado_sin_nombre_18-6" x1="125.75" y1="109.85" x2="132.93" y2="109.85" xlink:href="#Degradado_sin_nombre_18"/><linearGradient id="Degradado_sin_nombre_18-7" x1="137.15" y1="115.83" x2="143.92" y2="115.83" xlink:href="#Degradado_sin_nombre_18"/><linearGradient id="Degradado_sin_nombre_18-8" x1="149.64" y1="119.52" x2="155.72" y2="119.52" xlink:href="#Degradado_sin_nombre_18"/><linearGradient id="Degradado_sin_nombre_18-9" x1="116.11" y1="106.52" x2="134.23" y2="106.52" xlink:href="#Degradado_sin_nombre_18"/><linearGradient id="Degradado_sin_nombre_18-10" x1="162.72" y1="112.47" x2="211.11" y2="112.47" xlink:href="#Degradado_sin_nombre_18"/></defs><title>Registrate-Establecimientos</title><g id="Layer_2" data-name="Layer 2"><g id="Capa_1" data-name="Capa 1"><path class="cls-1" d="M200,123.48a4.39,4.39,0,0,0-4.47,4.32v19H119V147H9l0-.21H8.93v-104a3.42,3.42,0,0,1,3.48-3.35H105.2a4.33,4.33,0,1,0,0-8.65H12.41A12.22,12.22,0,0,0,0,42.88V171.17a12.22,12.22,0,0,0,12.41,12H80.34v20c-11.26,1.11-20.08,10.35-20.08,21.55A4.4,4.4,0,0,0,64.72,229h75a4.4,4.4,0,0,0,4.46-4.33c0-11.2-8.82-20.44-20.08-21.55v-20H192a12.22,12.22,0,0,0,12.41-12V127.8A4.39,4.39,0,0,0,200,123.48Zm-65.49,96.9H70a13.42,13.42,0,0,1,12.66-8.68h39.22A13.43,13.43,0,0,1,134.49,220.38ZM89.27,203.05V183.17h25.9v19.88Zm106.24-31.88a3.42,3.42,0,0,1-3.48,3.35H12.41a3.42,3.42,0,0,1-3.48-3.35V155.48H195.51Z"/><path class="cls-1" d="M200.87,54.87V51.31a.86.86,0,0,0,0-.16v0l0-.13v0l0-.12s0,0,0,0a.54.54,0,0,0-.05-.11h0L193,35.49V29.64a1.64,1.64,0,0,0-1.71-1.55H128.36a1.64,1.64,0,0,0-1.71,1.55v5.85l-7.71,15.18h0a.54.54,0,0,0,0,.11s0,0,0,0l0,.12v0l0,.13v0a.86.86,0,0,0,0,.16v3.56c0,4.26,3.4,7.8,7.86,8.53V86.92H120.5a1.56,1.56,0,1,0,0,3.1h78.66a1.56,1.56,0,1,0,0-3.1H193V63.4C197.47,62.67,200.87,59.13,200.87,54.87Zm-4.38-5.1H184.73L181,37.38h9.24Zm-27.09,1.4L168,37.38h9.41l3.77,12.39h-6.4a1.55,1.55,0,1,0,0,3.09h6.94v2c0,3.08-2.76,5.58-6.16,5.58a5.89,5.89,0,0,1-6.15-5.58V51.31S169.4,51.22,169.4,51.17Zm-39.33-20h59.52v3.09H130.07Zm30,18.58h-6.22l1.26-12.39h9.46l1.43,14v3.49c0,3.08-2.77,5.58-6.16,5.58s-6.16-2.5-6.16-5.58v-2h6.39a1.55,1.55,0,1,0,0-3.09Zm-10.88,3.09h1.07v2a5.89,5.89,0,0,1-6.15,5.58c-3.4,0-6.16-2.5-6.16-5.58V51.52l4.31-14.14h9.41L150.4,49.77h-1.22a1.55,1.55,0,1,0,0,3.09Zm-27,2v-2h4.63a1.55,1.55,0,1,0,0-3.09h-3.67l6.29-12.39h9.24L134.58,50.9a1.45,1.45,0,0,0-.06.41v3.56c0,3.08-2.76,5.58-6.16,5.58A5.89,5.89,0,0,1,122.21,54.87Zm25,22h-1.71a1.55,1.55,0,1,0,0,3.09h1.71v7H136.91v-17h10.27Zm42.41,10.06h-39V68.34a1.64,1.64,0,0,0-1.71-1.55H135.2a1.64,1.64,0,0,0-1.71,1.55V86.92h-3.42V63.4a9.68,9.68,0,0,0,6.16-3.59,10.16,10.16,0,0,0,15.73,0,10.17,10.17,0,0,0,15.74,0,10.16,10.16,0,0,0,15.73,0,9.68,9.68,0,0,0,6.16,3.59Zm1.71-26.47c-3.4,0-6.16-2.5-6.16-5.58v-2h12.31v2A5.89,5.89,0,0,1,191.3,60.45Z"/><path class="cls-1" d="M184.46,66.79H155.73A1.64,1.64,0,0,0,154,68.34V82.28a1.63,1.63,0,0,0,1.71,1.54h28.73a1.63,1.63,0,0,0,1.71-1.54V68.34s0-.1,0-.15a.13.13,0,0,1,0-.06s0-.06,0-.09a.14.14,0,0,0,0-.07.24.24,0,0,0,0-.08l0-.07s0,0,0-.07l0-.06a.3.3,0,0,0,0-.08l0-.06a.18.18,0,0,1-.05-.07l0-.06-.05-.06-.1-.1h0v0l-.11-.08-.07-.05-.07,0-.07,0-.07,0-.08,0-.07,0-.08,0-.08,0-.08,0-.08,0h-.33Zm-27,13.94V69.89h13.21l-.73.67a1.44,1.44,0,0,0,0,2.19,1.8,1.8,0,0,0,1.21.45,1.78,1.78,0,0,0,1.21-.46l3.15-2.85h4.84l-12,10.84Zm25.31,0h-9.56l9.56-8.65Z"/><path class="cls-1" d="M166,74.15l-.75.67a1.46,1.46,0,0,0,0,2.19,1.85,1.85,0,0,0,1.21.46,1.81,1.81,0,0,0,1.21-.46l.75-.67a1.46,1.46,0,0,0,0-2.19A1.83,1.83,0,0,0,166,74.15Z"/><path class="cls-2" d="M195.28,14.22l2.88-4.31,4.3,2.88-2.88,4.3Z"/><path class="cls-3" d="M184.29,8.92l2-4.78,4.79,2-2,4.79Z"/><path class="cls-4" d="M172.49,5.87l1-5.08,5.07,1-1,5.08Z"/><path class="cls-5" d="M212.11,7.77h-5.18v13H194V25.9h18.13Z"/><path class="cls-6" d="M162.9,5.18h2.59V0H162.9a67.08,67.08,0,0,0-45.79,18l3.52,3.8A61.93,61.93,0,0,1,162.9,5.18Z"/><path class="cls-7" d="M132.93,109.14l-2.87,4.3-4.31-2.87,2.88-4.31Z"/><path class="cls-8" d="M143.92,114.43l-2,4.78-4.79-2,2-4.78Z"/><path class="cls-9" d="M155.72,117.48l-1,5.08-5.07-1,1-5.08Z"/><path class="cls-10" d="M116.11,115.58h5.18v-13h12.94V97.45H116.11Z"/><path class="cls-11" d="M165.31,118.17h-2.59v5.18h2.59a67.12,67.12,0,0,0,45.8-18l-3.53-3.79A62,62,0,0,1,165.31,118.17Z"/><path class="cls-1" d="M40.51,59.45l7-7L44.83,49.8l-4.32,4.32V53H17.88V75.64H40.51ZM21.65,71.87V56.79H36.74v1.1l-7.25,7.25L27,61.4l-3.14,2.09,5,7.57,7.84-7.84v8.65Z"/><path class="cls-1" d="M40.51,90.85l7-7-2.67-2.67-4.32,4.33V84.41H17.88V107H40.51ZM21.65,103.27V88.18H36.74v1.11l-7.25,7.25L27,92.79l-3.14,2.1,5,7.57,7.84-7.84v8.65Z"/><path class="cls-1" d="M40.51,121.85l7-7-2.67-2.67-4.32,4.33v-1.11H17.88V138H40.51ZM21.65,134.27V119.18H36.74v1.11l-7.25,7.25L27,123.79l-3.14,2.1,5,7.57,7.84-7.84v8.65Z"/><path class="cls-1" d="M51.19,50.47h5.48V56H51.19Z"/><path class="cls-1" d="M62.15,50.47H95V56H62.15Z"/><path class="cls-1" d="M51.19,61.43h5.48v5.48H51.19Z"/><path class="cls-1" d="M62.15,61.43H95v5.48H62.15Z"/><path class="cls-1" d="M51.19,72.39h5.48v5.48H51.19Z"/><path class="cls-1" d="M62.15,72.39H95v5.48H62.15Z"/><path class="cls-1" d="M51.19,88.47h5.48V94H51.19Z"/><path class="cls-1" d="M62.15,88.47H95V94H62.15Z"/><path class="cls-1" d="M51.19,99.43h5.48v5.48H51.19Z"/><path class="cls-1" d="M62.15,99.43H95v5.48H62.15Z"/><path class="cls-1" d="M51.19,118.47h5.48V124H51.19Z"/><path class="cls-1" d="M62.15,118.47H95V124H62.15Z"/><path class="cls-1" d="M51.19,129.43h5.48v5.48H51.19Z"/><path class="cls-1" d="M62.15,129.43H95v5.48H62.15Z"/></g></g></svg>