<svg xmlns="http://www.w3.org/2000/svg" viewBox="0 0 21.82 20"><defs><style>.cls-1{fill:#fff;}</style></defs><title>Registrate-icono ver lista</title><g id="Layer_2" data-name="Layer 2"><g id="Capa_1" data-name="Capa 1"><path class="cls-1" d="M0,2.73V.91A.91.91,0,0,1,.26.26.91.91,0,0,1,.91,0H2.73a.88.88,0,0,1,.64.26.88.88,0,0,1,.27.65V2.73a.86.86,0,0,1-.27.63.83.83,0,0,1-.64.28H.91a.85.85,0,0,1-.65-.28A.89.89,0,0,1,0,2.73ZM0,8.18V6.36a.88.88,0,0,1,.26-.64.88.88,0,0,1,.65-.27H2.73a.85.85,0,0,1,.64.27.85.85,0,0,1,.27.64V8.18a.89.89,0,0,1-.27.64.85.85,0,0,1-.64.27H.91a.88.88,0,0,1-.65-.27A.92.92,0,0,1,0,8.18Zm0,5.46V11.82a.91.91,0,0,1,.26-.65.91.91,0,0,1,.65-.26H2.73a.9.9,0,0,1,.91.91v1.82a.86.86,0,0,1-.27.63.86.86,0,0,1-.64.28H.91a.88.88,0,0,1-.65-.28A.89.89,0,0,1,0,13.64Zm0,5.45V17.27a.88.88,0,0,1,.26-.64.88.88,0,0,1,.65-.27H2.73a.85.85,0,0,1,.64.27.85.85,0,0,1,.27.64v1.82a.89.89,0,0,1-.27.64.85.85,0,0,1-.64.27H.91a.88.88,0,0,1-.65-.27A.92.92,0,0,1,0,19.09ZM5.45,2.73V.91A.88.88,0,0,1,5.72.26.88.88,0,0,1,6.36,0H20.91a.88.88,0,0,1,.64.26.88.88,0,0,1,.27.65V2.73a.86.86,0,0,1-.27.63.83.83,0,0,1-.64.28H6.36a.83.83,0,0,1-.64-.28A.86.86,0,0,1,5.45,2.73Zm0,5.45V6.36a.92.92,0,0,1,.91-.91H20.91a.92.92,0,0,1,.91.91V8.18a.89.89,0,0,1-.27.64.85.85,0,0,1-.64.27H6.36a.85.85,0,0,1-.64-.27A.89.89,0,0,1,5.45,8.18Zm0,5.46V11.82a.9.9,0,0,1,.91-.91H20.91a.9.9,0,0,1,.91.91v1.82a.94.94,0,0,1-.91.91H6.36a.94.94,0,0,1-.91-.91Zm0,5.45V17.27a.92.92,0,0,1,.91-.91H20.91a.92.92,0,0,1,.91.91v1.82a.89.89,0,0,1-.27.64.85.85,0,0,1-.64.27H6.36a.85.85,0,0,1-.64-.27A.89.89,0,0,1,5.45,19.09Z"/></g></g></svg>