<svg xmlns="http://www.w3.org/2000/svg" xmlns:xlink="http://www.w3.org/1999/xlink" viewBox="0 0 162.89 219"><defs><style>.cls-1{fill:#009fe3;}.cls-2{fill:#3d5da6;}.cls-3{fill:none;stroke:#3d5da6;stroke-linecap:round;stroke-linejoin:round;stroke-width:8px;}.cls-4{fill:url(#Degradado_sin_nombre_18);}.cls-5{fill:url(#Degradado_sin_nombre_18-2);}.cls-6{fill:url(#Degradado_sin_nombre_18-3);}</style><linearGradient id="Degradado_sin_nombre_18" x1="1831.62" y1="-648.43" x2="1836.04" y2="-648.43" gradientTransform="translate(-970.61 -1481.89) rotate(76.54)" gradientUnits="userSpaceOnUse"><stop offset="0.03" stop-color="#e67d23"/><stop offset="1" stop-color="#fbb03b"/></linearGradient><linearGradient id="Degradado_sin_nombre_18-2" x1="1810.84" y1="-645.59" x2="1823.33" y2="-645.59" xlink:href="#Degradado_sin_nombre_18"/><linearGradient id="Degradado_sin_nombre_18-3" x1="1845.65" y1="-642.45" x2="1858.14" y2="-642.45" xlink:href="#Degradado_sin_nombre_18"/></defs><title>Registrate-Tatuadores</title><g id="Layer_2" data-name="Layer 2"><g id="Capa_1" data-name="Capa 1"><polyline class="cls-1" points="75.48 67.31 162.69 51.42 162.89 90.42 75.48 90.42 75.48 72.34"/><path class="cls-2" d="M75.53,0V11.62H63.91V0H40.67V11.62H23.24V29.05H40.67V61H17.43V49.39H11.62V61H0V78.44H11.62V90.06h5.81V78.44H40.67v5.81H34.86v55.19a8.72,8.72,0,0,0,5.81,8.19v19.16l7.51,7.52h1.21v5.81H55.2v-5.81h1.2l7.51-7.52V147.63a8.72,8.72,0,0,0,5.81-8.19V84.25H63.91V78.44H75.53V90.06h87.16V0ZM11.62,72.63H5.81V66.82h5.81ZM46.48,5.81H58.1v5.81H46.48ZM58.1,164.39,54,168.5h-3.4l-4.11-4.11V148.16H58.1Zm5.81-51.09H58.1v5.81h5.81v20.33a2.9,2.9,0,0,1-2.9,2.91H43.58a2.91,2.91,0,0,1-2.91-2.91V119.11H52.29V113.3H40.67v-5.81H63.91Zm0-11.62H40.67V90.06H63.91ZM46.48,84.25V78.44H58.1v5.81ZM75.53,72.63H17.43V66.82h58.1ZM46.48,61v-32H58.1V61Zm29.05,0H63.91v-32H75.53Zm0-37.77H29.05V17.43H75.53Zm32-17.43h23.24V17.43H107.49Zm23.24,17.43a11.62,11.62,0,1,1-23.24,0Zm26.15,61H81.34V5.81h20.34V23.24a17.43,17.43,0,1,0,34.86,0V5.81h20.34Z"/><rect class="cls-2" x="145.25" y="72.63" width="5.81" height="5.81"/><polyline class="cls-3" points="49.49 180.12 66.58 189.37 49.49 203.61 66.58 215"/><path class="cls-4" d="M92.68,147l1,4.3-12.71,3L80,150Z"/><path class="cls-5" d="M81.72,128.23l3.72,2.32-6.8,11.27-3.73-2.32Z"/><path class="cls-6" d="M80.78,164.25l11.16,7L89.68,175l-11.17-7Z"/></g></g></svg>