<svg xmlns="http://www.w3.org/2000/svg" xmlns:xlink="http://www.w3.org/1999/xlink" viewBox="0 0 245.38 150"><defs><style>.cls-1{fill:#3d5da6;}.cls-2{fill:url(#Degradado_sin_nombre_18);}.cls-3{fill:url(#Degradado_sin_nombre_18-2);}.cls-4{fill:url(#Degradado_sin_nombre_18-3);}</style><linearGradient id="Degradado_sin_nombre_18" x1="210.25" y1="86.76" x2="220.79" y2="86.76" gradientUnits="userSpaceOnUse"><stop offset="0.03" stop-color="#e67d23"/><stop offset="1" stop-color="#fbb03b"/></linearGradient><linearGradient id="Degradado_sin_nombre_18-2" x1="89.35" y1="73.96" x2="98.79" y2="73.96" xlink:href="#Degradado_sin_nombre_18"/><linearGradient id="Degradado_sin_nombre_18-3" x1="32.67" y1="20.38" x2="60.48" y2="20.38" xlink:href="#Degradado_sin_nombre_18"/></defs><title>Registrate-Vehiculos</title><g id="Layer_2" data-name="Layer 2"><g id="Capa_1" data-name="Capa 1"><path class="cls-1" d="M241.87,107.84H192.68a3.52,3.52,0,0,1,0-7h45.68V83.25c0-2.43-7.33-7.57-15.36-10.8a3.48,3.48,0,0,1-2-2L200.84,20H164.58a6.61,6.61,0,0,0-7,6.17,6,6,0,0,0,0,.85v77.3a3.52,3.52,0,0,1-7,0V27a13.65,13.65,0,0,1,13.25-14h39.45a3.52,3.52,0,0,1,3.27,2.21L227,66.51c5.72,2.44,18.36,8.76,18.36,16.74v21.08A3.51,3.51,0,0,1,241.87,107.84Z"/><path class="cls-1" d="M220.79,121.89h-7a3.51,3.51,0,1,1,0-7h7a10,10,0,0,0,10.54-9.48,9.73,9.73,0,0,0,0-1.08,3.52,3.52,0,0,1,3.51-3.5h0a3.51,3.51,0,0,1,3.5,3.52,16.94,16.94,0,0,1-16.29,17.56C221.64,121.91,221.22,121.91,220.79,121.89Z"/><path class="cls-1" d="M66.2,121.89H38.1a3.51,3.51,0,0,1-3.52-3.51v-14a3.52,3.52,0,0,1,3.52-3.52H154a3.52,3.52,0,0,1,0,7H41.61v7H66.2a3.51,3.51,0,1,1,0,7Z"/><path class="cls-1" d="M87.28,150a24.6,24.6,0,1,1,24.6-24.59A24.59,24.59,0,0,1,87.28,150Zm0-42.16a17.57,17.57,0,1,0,17.57,17.57A17.56,17.56,0,0,0,87.28,107.84Z"/><path class="cls-1" d="M192.68,150a24.6,24.6,0,1,1,24.6-24.59A24.59,24.59,0,0,1,192.68,150Zm0-42.16a17.57,17.57,0,1,0,17.57,17.57A17.56,17.56,0,0,0,192.68,107.84Z"/><path class="cls-1" d="M171.6,121.89H108.36a3.51,3.51,0,0,1,0-7H171.6a3.51,3.51,0,1,1,0,7Z"/><path class="cls-1" d="M87.28,136a10.54,10.54,0,1,1,10.54-10.54A10.54,10.54,0,0,1,87.28,136Zm0-14.06a3.52,3.52,0,1,0,3.52,3.52A3.52,3.52,0,0,0,87.28,121.89Z"/><path class="cls-1" d="M192.68,136a10.54,10.54,0,1,1,10.54-10.54A10.54,10.54,0,0,1,192.68,136Zm0-14.06a3.52,3.52,0,1,0,3.52,3.52A3.52,3.52,0,0,0,192.68,121.89Z"/><path class="cls-1" d="M154,51.63H140a3.52,3.52,0,0,1,0-7H154a3.52,3.52,0,0,1,0,7Z"/><path class="cls-1" d="M154,65.68H140a3.52,3.52,0,0,1,0-7H154a3.52,3.52,0,0,1,0,7Z"/><path class="cls-1" d="M154,79.73H140a3.51,3.51,0,1,1,0-7H154a3.51,3.51,0,1,1,0,7Z"/><path class="cls-1" d="M154,93.79H140a3.52,3.52,0,0,1,0-7H154a3.52,3.52,0,0,1,0,7Z"/><path class="cls-1" d="M224.3,72.71H168.09a3.52,3.52,0,0,1-3.51-3.52V60.11l-13-13a3.51,3.51,0,0,1,5-5l14,14.05a3.5,3.5,0,0,1,1,2.48v7h52.7a3.52,3.52,0,1,1,0,7Z"/><path class="cls-1" d="M168.09,97.3a3.51,3.51,0,0,1-3.51-3.51V69.19a3.51,3.51,0,0,1,7,0v24.6A3.51,3.51,0,0,1,168.09,97.3Z"/><path class="cls-2" d="M217.28,90.27h-3.52a3.51,3.51,0,1,1,0-7h3.52a3.51,3.51,0,0,1,0,7Z"/><path class="cls-1" d="M10.54,9.47h-7a3.52,3.52,0,0,1,0-7h7a3.52,3.52,0,0,1,0,7Z"/><path class="cls-3" d="M94.07,83.4a4.72,4.72,0,0,0,4.72-4.72V69.24a4.72,4.72,0,0,0-9.44,0v9.44A4.73,4.73,0,0,0,94.07,83.4ZM92.5,69.24a1.58,1.58,0,1,1,3.15,0v3.14H92.5Zm0,6.29h3.15v3.15a1.58,1.58,0,0,1-3.15,0Z"/><path class="cls-1" d="M79.91,74A14.17,14.17,0,1,0,94.07,59.8,14.17,14.17,0,0,0,79.91,74Zm14.16-11a11,11,0,1,1-11,11A11,11,0,0,1,94.07,62.94Z"/><path class="cls-1" d="M114.3,50.92l-2.92-1.17V47.21h-3.14v4.67l4.9,2a4.69,4.69,0,0,1,3,4.38V59.8h-11v3.14h11V85h-11v3.15h11v3.15A3.15,3.15,0,0,1,113,94.41H75.19A3.15,3.15,0,0,1,72,91.27V88.12h11V85H72v-22h11V59.8H72V58.22a4.7,4.7,0,0,1,3-4.38l4.9-2V47.21H76.76v2.54l-2.92,1.17a7.83,7.83,0,0,0-4.94,7.3V91.27a6.29,6.29,0,0,0,6.29,6.29H113a6.29,6.29,0,0,0,6.29-6.29v-33A7.82,7.82,0,0,0,114.3,50.92Z"/><path class="cls-1" d="M72,33v6.3a4.73,4.73,0,0,0,4.72,4.72h34.62a4.72,4.72,0,0,0,4.72-4.72V33a4.72,4.72,0,0,0-4.72-4.72H76.76A4.73,4.73,0,0,0,72,33ZM113,33v6.3a1.57,1.57,0,0,1-1.58,1.57H76.76a1.57,1.57,0,0,1-1.57-1.57V33a1.58,1.58,0,0,1,1.57-1.57h34.62A1.58,1.58,0,0,1,113,33Z"/><rect class="cls-1" x="87.78" y="22.03" width="3.15" height="3.15"/><path class="cls-1" d="M24.84,3.15H72V18.88H90.93V16.66L74.27,0H21.69V97.56H65.75V94.41H24.84ZM75.19,5.37,85.55,15.74H75.19Z"/><path class="cls-1" d="M59.46,6.29H28V37.77H59.46ZM56.31,34.62H31.13V9.44H56.31Z"/><rect class="cls-1" x="27.98" y="44.06" width="3.15" height="3.15"/><rect class="cls-1" x="34.28" y="44.06" width="31.47" height="3.15"/><rect class="cls-1" x="27.98" y="50.35" width="37.77" height="3.15"/><rect class="cls-1" x="27.98" y="66.09" width="37.77" height="3.15"/><rect class="cls-1" x="27.98" y="72.38" width="37.77" height="3.15"/><rect class="cls-1" x="62.6" y="78.68" width="3.15" height="3.15"/><rect class="cls-1" x="27.98" y="78.68" width="31.47" height="3.15"/><path class="cls-1" d="M140,2.44H92.42v7h44.05v94.86a3.52,3.52,0,0,0,7,0V6A3.52,3.52,0,0,0,140,2.44Z"/><path class="cls-4" d="M53.91,17.31l6.57-6.56L58,8.25l-4.06,4.06v-1H32.67V32.52H53.91ZM36.21,29V14.81H50.37v1l-6.81,6.81-2.34-3.52-2.95,2L43,28.21l7.35-7.35V29Z"/></g></g></svg>