<svg xmlns="http://www.w3.org/2000/svg" viewBox="0 0 204.46 73.37"><defs><style>.cls-1{fill:#fff;}</style></defs><title>HomeLogo footer@1x</title><g id="Capa_2" data-name="Capa 2"><g id="Capa_1-2" data-name="Capa 1"><rect class="cls-1" x="88.44" width="1.47" height="73.36"/><path class="cls-1" d="M109.06,33.75c.91,0,1.45-.32,1.45-1v0c0-.63-.47-1-1.52-1h-2.38v2.05ZM108.51,30c.91,0,1.48-.3,1.48-1v0c0-.61-.48-1-1.35-1h-2v2Zm-3.9-2.75a1,1,0,0,1,1-1H109a3.33,3.33,0,0,1,2.44.83,2.12,2.12,0,0,1,.64,1.58v0a2.17,2.17,0,0,1-1.23,2,2.28,2.28,0,0,1,1.76,2.3v0c0,1.71-1.39,2.56-3.5,2.56h-3.42a1,1,0,0,1-1-1Z"/><path class="cls-1" d="M123.69,29.45v0A3.74,3.74,0,0,0,120,25.55a3.68,3.68,0,0,0-3.69,3.83v0A3.74,3.74,0,0,0,120,33.28a3.68,3.68,0,0,0,3.69-3.83m-10.23,0v0a6.53,6.53,0,0,1,13.05,0v0a6.53,6.53,0,0,1-13.05,0"/><path class="cls-1" d="M127.83,27.86v-.05a8,8,0,0,1,8.12-8,8.63,8.63,0,0,1,5.29,1.5,1.72,1.72,0,0,1,.7,1.38,1.68,1.68,0,0,1-1.68,1.68,1.71,1.71,0,0,1-1-.35,5.38,5.38,0,0,0-3.39-1.07,4.65,4.65,0,0,0-4.44,4.83v0a4.64,4.64,0,0,0,4.69,4.91,5.52,5.52,0,0,0,3.21-.92V29.58H137a1.47,1.47,0,0,1-1.49-1.46A1.49,1.49,0,0,1,137,26.64h3.89a1.69,1.69,0,0,1,1.7,1.7V32.1a2.29,2.29,0,0,1-1.19,2.17A10.26,10.26,0,0,1,136,35.82a7.75,7.75,0,0,1-8.14-8"/><path class="cls-1" d="M159.35,26.13v-.05a5.76,5.76,0,0,0-5.75-6,5.66,5.66,0,0,0-5.68,5.9v.06a5.75,5.75,0,0,0,5.74,6,5.67,5.67,0,0,0,5.69-5.9m-15.79,0v-.05a9.81,9.81,0,0,1,10.1-9.81,9.71,9.71,0,0,1,10,9.75v.06a10.07,10.07,0,0,1-20.14.05"/><path class="cls-1" d="M168.68,17.46h-4.8a2.3,2.3,0,1,1,0-4.6h14.59a2.3,2.3,0,1,1,0,4.6h-4.8V33.25a2.5,2.5,0,1,1-5,0Z"/><path class="cls-1" d="M189.3,5.61a2.19,2.19,0,0,1,.38-1l2.1-3.28A2.5,2.5,0,0,1,194,0c1.41,0,3.24.88,3.24,1.76a1.91,1.91,0,0,1-.76,1.37l-2.37,2.21a4.25,4.25,0,0,1-3.32,1.26c-.83,0-1.45-.38-1.45-1m5.27,18.77-3.7-8.81-3.7,8.81Zm-16.52,7.4,9.31-21a3.63,3.63,0,0,1,3.43-2.33h.35a3.58,3.58,0,0,1,3.39,2.33l9.31,21a2.86,2.86,0,0,1,.3,1.18,2.78,2.78,0,0,1-2.78,2.82,3,3,0,0,1-2.82-2l-1.8-4.19H185L183.12,34a2.86,2.86,0,0,1-2.7,1.83A2.7,2.7,0,0,1,177.71,33a3.13,3.13,0,0,1,.34-1.26"/><path class="cls-1" d="M104.6,41.5a2.16,2.16,0,0,1,2.17-2.18h.48a2.25,2.25,0,0,1,2,1.13L114.48,49l5.28-8.59a2.15,2.15,0,0,1,1.95-1.1h.48a2.16,2.16,0,0,1,2.18,2.18V57.2a2.17,2.17,0,1,1-4.33,0V47.34l-3.81,5.88a2,2,0,0,1-3.61,0l-3.76-5.79v9.82a2.12,2.12,0,0,1-2.15,2.12,2.09,2.09,0,0,1-2.11-2.12Z"/><path class="cls-1" d="M129.11,57V41.61a2.15,2.15,0,0,1,2.17-2.17h11a1.94,1.94,0,1,1,0,3.87h-8.81v4H141a2,2,0,0,1,1.95,1.95A1.93,1.93,0,0,1,141,51.18h-7.54v4.15h8.95a2,2,0,0,1,2,2,1.93,1.93,0,0,1-2,1.92h-11.1A2.16,2.16,0,0,1,129.11,57"/><path class="cls-1" d="M147.3,57.76a2.18,2.18,0,0,1-.82-1.66A2.06,2.06,0,0,1,148.54,54a2,2,0,0,1,1.3.45,4.16,4.16,0,0,0,2.62,1c1.7,0,2.71-1,2.71-3.28V41.44a2.18,2.18,0,0,1,4.35,0V52.37a7.17,7.17,0,0,1-1.86,5.28,7.07,7.07,0,0,1-5.14,1.84,8.35,8.35,0,0,1-5.22-1.73"/><path class="cls-1" d="M179.55,49.38v-.06a6,6,0,0,0-6-6.22,5.92,5.92,0,0,0-5.93,6.16v.06a6,6,0,0,0,6,6.21,5.91,5.91,0,0,0,5.93-6.15m-16.47,0v-.06A10.23,10.23,0,0,1,173.62,39.1a10.12,10.12,0,0,1,10.47,10.16v.06a10.51,10.51,0,0,1-21,.06"/><path class="cls-1" d="M196.72,49c2.12,0,3.33-1.13,3.33-2.8v-.06c0-1.86-1.3-2.82-3.42-2.82h-4.32V49ZM188,41.61a2.17,2.17,0,0,1,2.18-2.18H197a7.88,7.88,0,0,1,5.76,2,6.21,6.21,0,0,1,1.7,4.52V46a6,6,0,0,1-4,6l3,3.67a2.52,2.52,0,0,1,.71,1.67,2,2,0,0,1-2.06,2A2.61,2.61,0,0,1,200,58.24l-4.23-5.36h-3.48V57.2a2.18,2.18,0,0,1-4.35,0Z"/><path class="cls-1" d="M108.65,68.09a1.6,1.6,0,0,0,1.8-1.56v0c0-1-.71-1.56-1.84-1.56h-1.75v3.15ZM104.59,64a1.13,1.13,0,0,1,1.14-1.13h3.07c2.46,0,3.94,1.45,3.94,3.56v0c0,2.39-1.85,3.62-4.16,3.62h-1.72v2.05a1.14,1.14,0,0,1-2.27,0Z"/><path class="cls-1" d="M119.48,68.88l-1.43-3.4-1.43,3.4Zm-6.37,2.85,3.59-8.1a1.39,1.39,0,0,1,1.32-.9h.13a1.38,1.38,0,0,1,1.31.9l3.59,8.1a1.21,1.21,0,0,1,.12.46,1.08,1.08,0,0,1-1.08,1.09A1.14,1.14,0,0,1,121,72.5l-.7-1.62h-4.52l-.72,1.69a1.13,1.13,0,0,1-1,.71,1,1,0,0,1-1-1.06,1.33,1.33,0,0,1,.13-.49"/><path class="cls-1" d="M129.51,67.9c1.1,0,1.73-.59,1.73-1.46v0c0-1-.68-1.47-1.78-1.47h-2.25v3ZM125,64a1.12,1.12,0,0,1,1.13-1.13h3.57a4.07,4.07,0,0,1,3,1,3.21,3.21,0,0,1,.89,2.35v0a3.13,3.13,0,0,1-2.06,3.13l1.57,1.92a1.31,1.31,0,0,1,.37.86,1.06,1.06,0,0,1-1.08,1,1.37,1.37,0,0,1-1.12-.59L129,69.9h-1.81v2.25a1.13,1.13,0,0,1-2.26,0Z"/><path class="cls-1" d="M141.37,68.88,140,65.48l-1.43,3.4ZM135,71.73l3.59-8.1a1.41,1.41,0,0,1,1.33-.9h.13a1.38,1.38,0,0,1,1.31.9l3.59,8.1a1.18,1.18,0,0,1,.11.46A1.08,1.08,0,0,1,144,73.28a1.16,1.16,0,0,1-1.09-.78l-.69-1.62h-4.53L137,72.57a1.11,1.11,0,0,1-1,.71,1,1,0,0,1-1-1.06,1.33,1.33,0,0,1,.13-.49"/><path class="cls-1" d="M153.65,65h-2.18a1,1,0,1,1,0-2.08h6.62a1,1,0,0,1,0,2.08h-2.17v7.17a1.14,1.14,0,0,1-2.27,0Z"/><path class="cls-1" d="M168.46,68.07v0a3.13,3.13,0,0,0-3.12-3.23,3.08,3.08,0,0,0-3.09,3.2v0a3.13,3.13,0,0,0,3.12,3.24,3.08,3.08,0,0,0,3.09-3.21m-8.57,0v0a5.47,5.47,0,0,1,10.94,0v0a5.33,5.33,0,0,1-5.49,5.33,5.27,5.27,0,0,1-5.45-5.3"/><path class="cls-1" d="M176.85,71.15A2.94,2.94,0,0,0,180,68.07v0a3,3,0,0,0-3.11-3.1h-1.74v6.21Zm-4-7.12A1.12,1.12,0,0,1,174,62.9h2.88A5.13,5.13,0,0,1,182.32,68v0a5.15,5.15,0,0,1-5.47,5.15H174a1.12,1.12,0,0,1-1.13-1.13Z"/><path class="cls-1" d="M192.46,68.07v0a3.13,3.13,0,0,0-3.12-3.23,3.08,3.08,0,0,0-3.09,3.2v0a3.13,3.13,0,0,0,3.12,3.24,3.08,3.08,0,0,0,3.09-3.21m-8.58,0v0a5.33,5.33,0,0,1,5.49-5.32A5.27,5.27,0,0,1,194.82,68v0a5.47,5.47,0,0,1-10.94,0"/><path class="cls-1" d="M196.56,72.1a1.06,1.06,0,0,1-.43-.85,1,1,0,0,1,1.06-1,1.11,1.11,0,0,1,.65.21,4.36,4.36,0,0,0,2.63.93c.93,0,1.49-.37,1.49-1v0c0-.58-.36-.87-2.08-1.31-2.07-.53-3.41-1.1-3.41-3.15v0c0-1.87,1.5-3.1,3.61-3.1a6,6,0,0,1,3.26.91,1,1,0,0,1-.56,1.94,1.08,1.08,0,0,1-.57-.16,4.31,4.31,0,0,0-2.17-.69c-.86,0-1.32.4-1.32.9v0c0,.67.44.89,2.22,1.35,2.09.54,3.27,1.29,3.27,3.09v0c0,2-1.56,3.2-3.78,3.2a6.7,6.7,0,0,1-3.87-1.24"/><path class="cls-1" d="M4,60.68,3.1,58.37l-.85,2.31Zm2.33,2.48H4.91l-.54-1.43H1.86l-.52,1.43H0L2.44,56.9H3.78Z"/><polygon class="cls-1" points="6.63 63.16 6.63 56.95 7.89 56.95 7.89 62.1 11.03 62.1 11.03 63.16 6.63 63.16"/><path class="cls-1" d="M15.58,60.84l1.22.4a2.81,2.81,0,0,1-.94,1.53,2.68,2.68,0,0,1-1.66.49,2.68,2.68,0,0,1-2-.85,3.22,3.22,0,0,1-.81-2.33,3.4,3.4,0,0,1,.81-2.42,2.77,2.77,0,0,1,2.12-.87,2.65,2.65,0,0,1,1.88.68,2.62,2.62,0,0,1,.63,1.16l-1.25.3a1.24,1.24,0,0,0-.46-.77,1.32,1.32,0,0,0-.85-.28,1.42,1.42,0,0,0-1.14.5A2.4,2.4,0,0,0,12.64,60a2.66,2.66,0,0,0,.43,1.69,1.39,1.39,0,0,0,1.11.5,1.28,1.28,0,0,0,.87-.32,1.89,1.89,0,0,0,.53-1"/><path class="cls-1" d="M20.83,60.68,20,58.37l-.84,2.31Zm2.33,2.48H21.79l-.55-1.43h-2.5l-.52,1.43H16.88l2.44-6.26h1.34Z"/><polygon class="cls-1" points="23.5 63.16 23.5 56.95 24.77 56.95 24.77 62.1 27.91 62.1 27.91 63.16 23.5 63.16"/><path class="cls-1" d="M29.7,58V62.1h.95a2.81,2.81,0,0,0,.76-.07,1,1,0,0,0,.51-.25,1.39,1.39,0,0,0,.33-.61A4.2,4.2,0,0,0,32.38,60a3.91,3.91,0,0,0-.13-1.11,1.36,1.36,0,0,0-.36-.61,1.18,1.18,0,0,0-.58-.29,5.81,5.81,0,0,0-1-.06ZM28.44,56.9h2.3a4.56,4.56,0,0,1,1.2.12,2.08,2.08,0,0,1,.94.57,2.92,2.92,0,0,1,.6,1,4.9,4.9,0,0,1,.21,1.49,4,4,0,0,1-.2,1.33,2.73,2.73,0,0,1-.67,1.11,2.23,2.23,0,0,1-.89.5,4.11,4.11,0,0,1-1.11.13H28.44Z"/><path class="cls-1" d="M34.35,56.9h1.27v6.26H34.35Zm.32-.58.59-1.27H36.6l-1.17,1.27Z"/><path class="cls-1" d="M39.78,60.68l-.87-2.31-.84,2.31Zm2.32,2.48H40.73l-.55-1.43h-2.5l-.52,1.43H35.81l2.45-6.26H39.6Z"/><polygon class="cls-1" points="44.13 63.16 44.13 56.9 46.02 56.9 47.15 61.17 48.27 56.9 50.17 56.9 50.17 63.16 49 63.16 48.99 58.23 47.75 63.16 46.53 63.16 45.3 58.23 45.3 63.16 44.13 63.16"/><path class="cls-1" d="M54.38,60.68l-.86-2.31-.85,2.31Zm2.33,2.48H55.33l-.54-1.43H52.28l-.52,1.43H50.42l2.43-6.26h1.36Z"/><polygon class="cls-1" points="57.85 63.16 57.85 60.52 55.56 56.9 57.04 56.9 58.52 59.38 59.96 56.9 61.42 56.9 59.12 60.53 59.12 63.16 57.85 63.16"/><path class="cls-1" d="M62.72,60a2.4,2.4,0,0,0,.49,1.61,1.63,1.63,0,0,0,1.25.54,1.56,1.56,0,0,0,1.23-.54A2.35,2.35,0,0,0,66.18,60a2.33,2.33,0,0,0-.47-1.61,1.6,1.6,0,0,0-1.25-.52,1.63,1.63,0,0,0-1.26.53A2.36,2.36,0,0,0,62.72,60m-1.3,0a4.19,4.19,0,0,1,.28-1.61,3,3,0,0,1,.58-.85,2.5,2.5,0,0,1,.81-.57,3.54,3.54,0,0,1,1.35-.24,3,3,0,0,1,2.22.85,3.88,3.88,0,0,1,0,4.76,3.31,3.31,0,0,1-4.43,0,3.21,3.21,0,0,1-.82-2.34"/><path class="cls-1" d="M69.38,59.55h.94a4.86,4.86,0,0,0,1.13-.08.6.6,0,0,0,.35-.27A.76.76,0,0,0,71.29,58c-.1,0-.41,0-.92,0h-1Zm-1.27,3.61V56.9h2.66a4.33,4.33,0,0,1,1.46.17,1.38,1.38,0,0,1,.73.6,1.81,1.81,0,0,1,.27,1,1.65,1.65,0,0,1-.41,1.16,2,2,0,0,1-1.23.58,2.59,2.59,0,0,1,.67.52,6.7,6.7,0,0,1,.72,1l.77,1.22H72.23l-.9-1.36c-.33-.49-.56-.79-.67-.92a1.16,1.16,0,0,0-.38-.27,2.5,2.5,0,0,0-.64-.06h-.26v2.61Z"/><rect class="cls-1" x="60.68" y="72.1" width="1.18" height="1.18"/><path class="cls-1" d="M5.26,68.15v4.07h.93a3.26,3.26,0,0,0,.75-.06,1.12,1.12,0,0,0,.5-.25,1.39,1.39,0,0,0,.33-.6,4.15,4.15,0,0,0,.12-1.12,3.76,3.76,0,0,0-.12-1.09,1.52,1.52,0,0,0-.36-.6,1.15,1.15,0,0,0-.57-.29,6.61,6.61,0,0,0-1-.06ZM4,67.11H6.28a4.44,4.44,0,0,1,1.18.12,2.16,2.16,0,0,1,.92.57,2.59,2.59,0,0,1,.59,1,4.38,4.38,0,0,1,.2,1.45A4.19,4.19,0,0,1,9,71.55a2.87,2.87,0,0,1-.66,1.09,2.2,2.2,0,0,1-.88.49,3.63,3.63,0,0,1-1.1.13H4Z"/><polygon class="cls-1" points="9.87 73.27 9.87 67.11 14.43 67.11 14.43 68.15 11.12 68.15 11.12 69.52 14.19 69.52 14.19 70.56 11.12 70.56 11.12 72.22 14.55 72.22 14.55 73.27 9.87 73.27"/><path class="cls-1" d="M18.52,70.58v1.64h1.14a5,5,0,0,0,.86,0,.77.77,0,0,0,.45-.24.75.75,0,0,0,.18-.52A.77.77,0,0,0,21,71a.84.84,0,0,0-.39-.29,4.79,4.79,0,0,0-1.1-.08Zm0-2.45v1.42h.81c.48,0,.78,0,.9,0a.83.83,0,0,0,.5-.22.74.74,0,0,0,0-.94.66.66,0,0,0-.46-.21,10.17,10.17,0,0,0-1.06,0Zm-1.25-1h2.47a7.14,7.14,0,0,1,1.08.06,1.58,1.58,0,0,1,.64.26,1.45,1.45,0,0,1,.47.51,1.33,1.33,0,0,1,.19.71,1.39,1.39,0,0,1-.23.8,1.44,1.44,0,0,1-.63.54,1.64,1.64,0,0,1,.86.56,1.42,1.42,0,0,1,.3.93,1.78,1.78,0,0,1-.19.81,1.68,1.68,0,0,1-.53.64,1.72,1.72,0,0,1-.84.29c-.2,0-.71,0-1.5,0H17.27Z"/><path class="cls-1" d="M24.14,70.18a2.3,2.3,0,0,0,.48,1.58,1.57,1.57,0,0,0,1.23.54,1.59,1.59,0,0,0,1.22-.53,2.4,2.4,0,0,0,.47-1.61,2.3,2.3,0,0,0-.46-1.57,1.56,1.56,0,0,0-1.23-.52,1.59,1.59,0,0,0-1.24.53,2.31,2.31,0,0,0-.47,1.58m-1.28,0a4.05,4.05,0,0,1,.27-1.57,3.28,3.28,0,0,1,.58-.85,2.49,2.49,0,0,1,.8-.55A3.4,3.4,0,0,1,25.84,67a2.88,2.88,0,0,1,2.17.84,3.24,3.24,0,0,1,.81,2.35A3.14,3.14,0,0,1,28,72.52a2.82,2.82,0,0,1-2.16.85,2.88,2.88,0,0,1-2.18-.84,3.19,3.19,0,0,1-.81-2.31"/><path class="cls-1" d="M32.3,71V70H35v2.44a3.65,3.65,0,0,1-1.14.67,4.12,4.12,0,0,1-1.5.29A3.37,3.37,0,0,1,30.66,73a2.56,2.56,0,0,1-1.08-1.15,3.93,3.93,0,0,1-.36-1.64,3.49,3.49,0,0,1,.41-1.71,2.73,2.73,0,0,1,1.18-1.15,3.21,3.21,0,0,1,1.47-.3,3,3,0,0,1,1.79.48,2.17,2.17,0,0,1,.83,1.32l-1.24.24a1.3,1.3,0,0,0-.49-.72,1.47,1.47,0,0,0-.89-.26,1.66,1.66,0,0,0-1.29.52,2.11,2.11,0,0,0-.48,1.53A2.35,2.35,0,0,0,31,71.75a1.62,1.62,0,0,0,1.28.55,2.16,2.16,0,0,0,.78-.15,2.53,2.53,0,0,0,.67-.37V71Z"/><path class="cls-1" d="M36.79,70.18a2.3,2.3,0,0,0,.48,1.58,1.59,1.59,0,0,0,1.23.54,1.6,1.6,0,0,0,1.22-.53,2.35,2.35,0,0,0,.47-1.61,2.3,2.3,0,0,0-.45-1.57,1.73,1.73,0,0,0-2.48,0,2.31,2.31,0,0,0-.47,1.58m-1.28,0a3.87,3.87,0,0,1,.28-1.57,3,3,0,0,1,.57-.85,2.61,2.61,0,0,1,.8-.55A3.4,3.4,0,0,1,38.49,67a2.9,2.9,0,0,1,2.17.84,3.79,3.79,0,0,1,0,4.67,2.84,2.84,0,0,1-2.17.85,2.88,2.88,0,0,1-2.18-.84,3.19,3.19,0,0,1-.81-2.31"/><polygon class="cls-1" points="43.48 73.27 43.48 68.15 41.65 68.15 41.65 67.11 46.54 67.11 46.54 68.15 44.72 68.15 44.72 73.27 43.48 73.27"/><path class="cls-1" d="M49,66.55l.57-1.26h1.32l-1.14,1.26Zm1.28,4.27-.85-2.28-.82,2.28Zm2.29,2.44H51.18l-.54-1.4H48.18l-.51,1.4H46.35l2.4-6.15h1.32Z"/><path class="cls-1" d="M56.09,68.15v4.07H57a3.32,3.32,0,0,0,.75-.06,1.22,1.22,0,0,0,.51-.25,1.39,1.39,0,0,0,.32-.6,3.78,3.78,0,0,0,.12-1.12,3.44,3.44,0,0,0-.12-1.09,1.42,1.42,0,0,0-.36-.6,1.19,1.19,0,0,0-.57-.29,6.55,6.55,0,0,0-1-.06Zm-1.24-1h2.27a4.36,4.36,0,0,1,1.17.12,2.14,2.14,0,0,1,.93.57,2.7,2.7,0,0,1,.58,1,4.38,4.38,0,0,1,.2,1.45,3.91,3.91,0,0,1-.18,1.31,2.75,2.75,0,0,1-.66,1.09,2.16,2.16,0,0,1-.87.49,3.72,3.72,0,0,1-1.1.13H54.85Z"/><path class="cls-1" d="M66.67,71l1.19.38A2.78,2.78,0,0,1,67,72.88a2.68,2.68,0,0,1-1.64.49,2.63,2.63,0,0,1-2-.84,3.19,3.19,0,0,1-.79-2.29,3.34,3.34,0,0,1,.79-2.38A2.73,2.73,0,0,1,65.39,67a2.58,2.58,0,0,1,1.84.68,2.41,2.41,0,0,1,.63,1.13l-1.23.3a1.4,1.4,0,0,0-.46-.76,1.33,1.33,0,0,0-.84-.28,1.4,1.4,0,0,0-1.12.49,2.44,2.44,0,0,0-.42,1.59,2.51,2.51,0,0,0,.42,1.66,1.35,1.35,0,0,0,1.09.49,1.27,1.27,0,0,0,.85-.31,1.9,1.9,0,0,0,.52-1"/><rect class="cls-1" x="68.56" y="72.12" width="1.18" height="1.18"/><path class="cls-1" d="M24.68,29.51c.12.16.73-.22.68-.38s-.06-1,.5-1.08v-.21s-.84,0-1,.54c0,0-.67-.71-.84-.65s.17,1,.17,1c-.56-.1-.83.65-.83.65l.1.11a.8.8,0,0,1,1.23,0"/><path class="cls-1" d="M31.52,35.29a2.68,2.68,0,0,0-.62,1.89,2.17,2.17,0,0,0,1.68-.81,2.29,2.29,0,0,0,.62-1.84,2.49,2.49,0,0,0-1.68.76"/><path class="cls-1" d="M49.27,28.75s.34-.91.17-1-.84.65-.84.65c-.17-.54-1-.54-1-.54v.21c.56.06.67.81.5,1.08s.56.54.67.38a.81.81,0,0,1,1.24,0l.11-.11s-.27-.75-.84-.65"/><path class="cls-1" d="M41.93,35.29a2.48,2.48,0,0,0-1.67-.76,2.25,2.25,0,0,0,.61,1.84,2.17,2.17,0,0,0,1.68.81,2.68,2.68,0,0,0-.62-1.89"/><path class="cls-1" d="M48.09,31.89c-.67,1-1.46,1.19-2,.86s-.67-1.08,0-2,1.57-1.45,2.07-1.18.51,1.35-.11,2.32M35.92,14.39a.51.51,0,0,1-.56-.48.52.52,0,0,1,.56-.54.51.51,0,0,1,.51.54.49.49,0,0,1-.51.48m-8.6,18.36c-.5.33-1.29.11-2-.86s-.62-2.06-.11-2.32,1.45.21,2.07,1.18.5,1.73,0,2m20.94-3.29a2.44,2.44,0,0,0-3.35.37,2.27,2.27,0,0,0,1,3c-.82.07-1.9-1.06-1.9-1.06-.47.87.39,1.36,1.06,1.6l-.26.2c-.64-.16-.87.14-.87.14s-1.51-1.55-2.55-2.62l.92-.18c-.67-1.56-2.48-1.9-3.71-2.84-.93-.71.11-1,.36-.78a3.69,3.69,0,0,0,4.37.59,4.62,4.62,0,0,1-2.41-2.38,5.19,5.19,0,0,0,5.93-.26c-2.23.37-4-1.73-4-1.73A6.71,6.71,0,0,0,48.74,22c-1.28.1-4.47-1.25-4.47-1.25,5.09-.16,5.54-3.78,5.6-3.78-1.41.92-5.16.49-5.16.49,5.33-1.89,4.93-6.26,4.93-6.26-1.13,1.67-6.27,3.29-6.27,3.29a3.45,3.45,0,0,0-2.52,3.13,1.24,1.24,0,0,1-1.22,1.08c-1.38,0-1.36-2-1.36-2.92,0-1.4-.05-3-1.06-3h-2c-.37,0-1,0-1.25.27-.52.6-.44,2.2-.21,1.88a2.46,2.46,0,0,1,1.29,0c.65.19.17,2.21.17,2.65A1.22,1.22,0,0,1,34,18.71a1.25,1.25,0,0,1-1.23-1.08,3.45,3.45,0,0,0-2.46-3.13S25,12.88,23.89,11.21c0,0-.4,4.42,5,6.37,0,0-3.8.32-5.21-.6.06,0,.73,3.78,5.83,3.95,0,0-3.36,1.13-4.59,1a6.5,6.5,0,0,0,6,1.94,5.72,5.72,0,0,1-4.21,1.41,5.2,5.2,0,0,0,5.94.37,4.4,4.4,0,0,1-2.35,2.27,3.76,3.76,0,0,0,4.42-.59c.3-.33,1.26.05.3.78-1.28,1-3.1,1.22-3.88,2.84l.94.18c-1.06,1.07-2.47,2.59-2.63,2.62,0,0-.2-.28-.79-.16l-.24-.18c.67-.24,1.53-.73,1.06-1.6,0,0-1.07,1.13-1.9,1.06a2.27,2.27,0,0,0,1-3,2.45,2.45,0,0,0-3.36-.37,2.37,2.37,0,0,0-1.12,3.13,2.34,2.34,0,0,0,3.18.43,3.51,3.51,0,0,1-1.89,1.14s.69,1.32,2.22-.44c.09.06.16.13.24.19-.41.32-.58.88-.24,1.11,0,0-.17.86.84.81a.78.78,0,0,0,1.06.25A12.47,12.47,0,0,1,29.89,39l1.29.06a9.75,9.75,0,0,0-1.18-4,.42.42,0,0,0,.1-.64,35.71,35.71,0,0,1,3.19-2.07l.17.88a3.74,3.74,0,0,1,1.95-1.3,5.37,5.37,0,0,0-1,4.32s.22-.7,1.35-.81c0,0-1.58,1.89.94,5.57,2.52-3.68,1.07-5.57,1.07-5.57a1.61,1.61,0,0,1,1.4.81A5.45,5.45,0,0,0,38,31.91a3.6,3.6,0,0,1,2,1.33l.17-.9c1.35.84,3.22,2,3.19,2.09-.21.23-.08.48.12.65a10.23,10.23,0,0,0-1.18,4L43.55,39A13.42,13.42,0,0,1,44,36.1a.81.81,0,0,0,1-.27c1,.05.85-.81.85-.81.32-.23.17-.76-.25-1.08a2.21,2.21,0,0,1,.29-.22c1.52,1.76,2.21.44,2.21.44A3.54,3.54,0,0,1,46.2,33a2.36,2.36,0,0,0,3.19-.43,2.37,2.37,0,0,0-1.13-3.13"/><polygon class="cls-1" points="37.94 12.29 39.06 10.56 37.32 11.21 36.7 9.64 36.03 11.21 34.24 10.56 35.42 12.29 37.94 12.29"/><path class="cls-1" d="M20,25.08C20,24,19.37,23.2,18.81,23.25s-.89.92-.84,2,.62,1.56,1.12,1.51,1-.65.95-1.68"/><path class="cls-1" d="M54.77,38.86c-.45-.27-1.34.16-2,1s-.5,1.63,0,1.9,1.18,0,1.79-.81.62-1.84.17-2.11"/><path class="cls-1" d="M43.6,6c0-.49-.57-1-1.63-1.09s-2,.54-2,1,.89,1,1.95,1,1.74-.42,1.69-1"/><path class="cls-1" d="M20.92,39.89c-.62-.87-1.51-1.3-2-1s-.45,1.24.16,2.1,1.35,1.09,1.8.82.56-1,0-1.89"/><path class="cls-1" d="M34.44,45.18c-1.12-.16-2.07.1-2.18.59s.61,1.19,1.68,1.4,1.79-.16,1.9-.69-.34-1.08-1.4-1.3"/><path class="cls-1" d="M57.24,29.78a2.24,2.24,0,0,1-1.59.6,5.3,5.3,0,0,1-.25,3.24l-.89-.7c1.33-2.68-.54-3.63-.42-5.32-1.91.41-1.71-.84-1.71-.84a3.14,3.14,0,0,0,2,.1,2.13,2.13,0,0,1-2.15-2,2.37,2.37,0,0,1,2.63-1.73,2.25,2.25,0,0,1,2.29,2.05,2.24,2.24,0,0,1-2.46,1.69c.6.49,2.07.26,2.07.26-.17,1-1.39.74-2,.52,0,.36,0,.73.49,1.69a3.38,3.38,0,0,1,.22.52,1.69,1.69,0,0,1,.57-.95,2.16,2.16,0,0,1,1.73-.59,1.73,1.73,0,0,1-.57,1.45M56.4,38.7a.69.69,0,0,0-1.12,0c-.06.11-.68-.27-.63-.38a.7.7,0,0,0-.44-1l0-.16s.73,0,.9.49c0,0,.62-.65.79-.54s-.23.92-.23.92c.56-.12.84.59.84.59Zm-.57,2.91a2.23,2.23,0,0,1-3,.38,3.15,3.15,0,0,0,1.73,1.08s-.64,1.1-1.92-.3c-.59.85-1.53,1.09-2.35,1.71a2,2,0,0,1,.74,0,2.39,2.39,0,0,1,1.68.75,2.06,2.06,0,0,1-1.62.59,2.54,2.54,0,0,1-1.48-.59A4.26,4.26,0,0,0,49,46.74l-1.18.06a5.82,5.82,0,0,1,2.79-3.35c1-.48,1.27-.73,1.46-1.06-.62-.17-1.79-.64-1.29-1.54,0,0,1,1,1.78.95A2.05,2.05,0,0,1,51.75,39a2.27,2.27,0,0,1,3.08-.27,2.15,2.15,0,0,1,1,2.86M36.68,43.24c-2.81-1.76-5.48-2.11-8.72-2.11a5.64,5.64,0,0,1-5.74-5.73l0-26.51c3.54,1.89,11.29.62,14.67-1.14,3.43,1.78,11.09,3,14.67,1.14l0,26.51a6,6,0,0,1-6.14,5.73,15.18,15.18,0,0,0-8.68,2.11m5.48,4.2a4.25,4.25,0,0,0-1.61-.65,2.15,2.15,0,0,1-.62,1.41,2.1,2.1,0,0,1-1.57.7A2.82,2.82,0,0,1,39,47.17a2.07,2.07,0,0,1,.58-.4c-1,.11-1.88.58-2.9.39.12,1.85-1.16,1.47-1.16,1.47a3,3,0,0,0,.42-1.92,2.11,2.11,0,0,1-2.32,1.76,2.27,2.27,0,0,1-1.46-2.7,2.22,2.22,0,0,1,2.41-1.94A2.17,2.17,0,0,1,36,46.37c.57-.5.52-1.84.52-1.84,1.05.28.59,1.38.29,1.92a3.33,3.33,0,0,0,1.78-.19,6.32,6.32,0,0,1,4.48.43ZM31.8,46c-.33-.06-.95.27-.83.81H30.8s-.28-.65.17-1c0,0-.9-.38-.85-.55s1-.1,1-.1c-.28-.49.28-1,.28-1l.17.11a.7.7,0,0,0,.39,1c.16.06,0,.7-.12.65m-7.08.75a4.19,4.19,0,0,0-.64-1.56,2.74,2.74,0,0,1-1.48.59A2,2,0,0,1,21,45.18a2.32,2.32,0,0,1,1.68-.75,2,2,0,0,1,.74,0c-.81-.62-1.76-.86-2.33-1.71-1.29,1.4-1.94.3-1.94.3a3.12,3.12,0,0,0,1.77-1.13,2.2,2.2,0,0,1-3-.33,2.17,2.17,0,0,1,1-2.86A2.27,2.27,0,0,1,22,39a2,2,0,0,1-.88,2.78c.78.07,1.83-.95,1.83-.95.51.9-.67,1.37-1.28,1.54.19.33.5.58,1.45,1.06a5.81,5.81,0,0,1,2.8,3.35Zm-7.45-8-.11-.11s.28-.71.84-.59c0,0-.39-.81-.22-.92s.78.54.78.54c.17-.49.9-.49.9-.49l.06.16a.74.74,0,0,0-.51,1c.11.11-.5.49-.56.38a.75.75,0,0,0-1.18,0M16,28.33a2.12,2.12,0,0,1,1.68.59,1.45,1.45,0,0,1,.58.95,4.71,4.71,0,0,1,.21-.52c.45-1,.54-1.33.49-1.69-.61.22-1.84.52-2-.52,0,0,1.46.23,2.07-.26a2.26,2.26,0,0,1-2.47-1.69,2.25,2.25,0,0,1,2.3-2.05,2.37,2.37,0,0,1,2.63,1.73,2.15,2.15,0,0,1-2.15,2,3.33,3.33,0,0,0,2.09-.1s.15,1.24-1.75.85c.16,1.68-1.71,2.63-.43,5.31l-.9.7a5.64,5.64,0,0,1-.23-3.24,2.25,2.25,0,0,1-1.61-.6A1.54,1.54,0,0,1,16,28.33m4.15-6.27-.06.16a.68.68,0,0,0-.9.6c0,.16-.67.21-.72.05a.78.78,0,0,0-1-.54l-.05-.16s.55-.44,1-.11c0,0,.11-.86.28-.86s.45.81.45.81c.33-.33,1,0,1,0M18.85,7.32a2.18,2.18,0,0,1,2.3,2,2.32,2.32,0,0,1-2.4,1.73,3.48,3.48,0,0,0,2,.21c-.16,1.05-1.39.75-2,.53-.05.36,0,.73.49,1.69a5.58,5.58,0,0,1,.11,4.26l-.89-.69a4.32,4.32,0,0,0,.45-1.65A2.48,2.48,0,0,1,17.34,15a1.81,1.81,0,0,1-.9-1.35,2.85,2.85,0,0,1,1.85.32,2.53,2.53,0,0,1,.51.46c-.27-1-.87-1.7-.77-2.69-1.9.4-1.75-.84-1.75-.84a3.55,3.55,0,0,0,2,.13,2.17,2.17,0,0,1-2.06-2,2.3,2.3,0,0,1,2.63-1.68m-.28-1.18s.28-.87.44-.82.28.87.28.87c.46-.32,1,.16,1,.16l-.05.11a.77.77,0,0,0-1,.54c0,.16-.73.11-.73,0s-.39-.81-.89-.6l-.06-.16s.67-.37,1-.05m5.09.27a4.45,4.45,0,0,0,1.74.3,2.24,2.24,0,0,1,.27-1.55,1.91,1.91,0,0,1,1.35-1A2.22,2.22,0,0,1,26.79,6a1.78,1.78,0,0,1-.45.57c1-.31,1.68-1,2.69-1-.5-1.79.79-1.75.79-1.75a3.06,3.06,0,0,0,.05,2A2.07,2.07,0,0,1,31.72,3.6a2.17,2.17,0,0,1,2,2.32,2.1,2.1,0,0,1-1.85,2.37,2.15,2.15,0,0,1-2-2.2c-.46.62-.12,2-.12,2-1,0-.84-1.28-.7-1.87a4,4,0,0,0-1.65.62,6.24,6.24,0,0,1-4.42.5ZM34.07,5.6c.28,0,.84-.44.56-.92l.17-.06s.45.6.11,1c0,0,1,.16,1,.32s-.89.32-.89.32c.34.38-.06,1-.06,1h-.16a.79.79,0,0,0-.68-1c-.16,0-.16-.64,0-.64m4.65,0c-.33-.38.11-1,.11-1l.17.06c-.28.48.28.92.57.92s.16.64,0,.64a.78.78,0,0,0-.68,1h-.17s-.39-.6,0-1c0,0-.9-.16-.9-.32s.95-.32.95-.32m3.19-2a2.06,2.06,0,0,1,1.85,2.19,2.94,2.94,0,0,0,.05-2s1.3,0,.8,1.75c1,0,1.7.68,2.68,1A2.31,2.31,0,0,1,46.84,6a2.21,2.21,0,0,1-.22-1.79,1.9,1.9,0,0,1,1.34,1,2.31,2.31,0,0,1,.28,1.55A4.4,4.4,0,0,0,50,6.41l.68.92a6.27,6.27,0,0,1-4.43-.5,4,4,0,0,0-1.64-.62c.13.59.32,1.83-.71,1.87,0,0,.34-1.37-.11-2a2.16,2.16,0,0,1-2,2.2A2.1,2.1,0,0,1,39.9,5.92a2.16,2.16,0,0,1,2-2.32M56.36,22.17l-.07.16a.77.77,0,0,0-1,.54c0,.16-.73.11-.73-.05a.67.67,0,0,0-.89-.6l-.06-.16s.68-.38,1,0c0,0,.29-.87.45-.81s.29.86.29.86c.44-.33,1,.11,1,.11M54.87,7.32A2.29,2.29,0,0,1,57.5,9a2.17,2.17,0,0,1-2,2,3.56,3.56,0,0,0,2-.13s.15,1.25-1.77.84c.07,1-.56,1.76-.81,2.76a2.6,2.6,0,0,1,.56-.53,2.87,2.87,0,0,1,1.86-.32,2,2,0,0,1-.9,1.35,2.52,2.52,0,0,1-1.6.41,4.26,4.26,0,0,0,.48,1.65l-.9.69a5.41,5.41,0,0,1,.11-4.26c.46-1,.54-1.33.49-1.69-.61.22-1.83.52-2-.53a3.48,3.48,0,0,0,2-.21,2.32,2.32,0,0,1-2.4-1.73,2.17,2.17,0,0,1,2.3-2m-.45-1.13s.12-.87.29-.87.44.82.44.82c.34-.32,1,.05,1,.05l0,.16a.68.68,0,0,0-.91.6c0,.16-.72.21-.72,0a.77.77,0,0,0-1-.54l0-.11s.56-.48,1-.16M36.72.05a23.76,23.76,0,0,1-22,0V39.44a8.75,8.75,0,0,0,8.9,8.65c4.77,0,9,.67,13.1,3.29,4.1-2.58,8.3-3.29,13.06-3.29a8.79,8.79,0,0,0,8.95-8.65V0a23.84,23.84,0,0,1-22,.05"/><path class="cls-1" d="M18.57,10.89c.5,0,1.06-.49,1.12-1.51s-.34-2-.84-2-1.17.75-1.23,1.83.39,1.63.95,1.68"/><path class="cls-1" d="M55.16,10.89c.49-.05,1-.65,1-1.68s-.68-1.89-1.24-1.83-.94.92-.89,2,.61,1.56,1.18,1.51"/><path class="cls-1" d="M31.72,7c1.06-.06,1.91-.49,2-1s-.9-1-2-1S30,5.49,30,6s.56,1,1.68,1"/><path class="cls-1" d="M55.79,25.25c.06-1.08-.39-1.95-.89-2s-1.18.75-1.23,1.83.44,1.62.94,1.68,1.13-.49,1.18-1.51"/></g></g></svg>