<svg xmlns="http://www.w3.org/2000/svg" viewBox="0 0 264.74 95"><defs><style>.cls-1{fill:#fff;}</style></defs><title>HomeLogo Alcaldia@1x</title><g id="Capa_2" data-name="Capa 2"><g id="Capa_1-2" data-name="Capa 1"><rect class="cls-1" x="114.51" width="1.9" height="95"/><path class="cls-1" d="M141.21,43.71c1.18,0,1.89-.42,1.89-1.32v0c0-.82-.61-1.32-2-1.32h-3.08v2.67Zm-.7-4.88c1.17,0,1.91-.38,1.91-1.28v0c0-.8-.62-1.25-1.74-1.25h-2.63v2.56Zm-5-3.56a1.31,1.31,0,0,1,1.33-1.33h4.29A4.37,4.37,0,0,1,144.24,35a2.79,2.79,0,0,1,.83,2.06v0a2.81,2.81,0,0,1-1.59,2.61,3,3,0,0,1,2.26,3v0c0,2.21-1.79,3.32-4.53,3.32h-4.42a1.32,1.32,0,0,1-1.33-1.33Z"/><path class="cls-1" d="M160.16,38.13v0a4.83,4.83,0,0,0-4.82-5A4.76,4.76,0,0,0,150.57,38v.05a4.84,4.84,0,0,0,4.82,5,4.76,4.76,0,0,0,4.77-5m-13.25,0v0a8.23,8.23,0,0,1,8.48-8.23A8.15,8.15,0,0,1,163.82,38v.05a8.46,8.46,0,0,1-16.91,0"/><path class="cls-1" d="M165.52,36.07V36A10.29,10.29,0,0,1,176,25.64a11.11,11.11,0,0,1,6.85,1.95,2.21,2.21,0,0,1,.92,1.78,2.19,2.19,0,0,1-3.53,1.71,7,7,0,0,0-4.38-1.37A6,6,0,0,0,170.13,36V36a6,6,0,0,0,6.08,6.36,7.06,7.06,0,0,0,4.15-1.2V38.3h-3a1.9,1.9,0,0,1-1.92-1.89,1.92,1.92,0,0,1,1.92-1.92h5a2.2,2.2,0,0,1,2.21,2.21v4.87a3,3,0,0,1-1.55,2.81,13.36,13.36,0,0,1-7,2c-6.24,0-10.54-4.38-10.54-10.31"/><path class="cls-1" d="M206.33,33.83v-.07a7.45,7.45,0,0,0-7.43-7.71,7.34,7.34,0,0,0-7.37,7.64v.07A7.46,7.46,0,0,0,199,41.48a7.35,7.35,0,0,0,7.36-7.65m-20.44,0v-.07A12.69,12.69,0,0,1,199,21.07c7.57,0,13,5.64,13,12.62v.07a12.69,12.69,0,0,1-13.07,12.7c-7.58,0-13-5.65-13-12.63"/><path class="cls-1" d="M218.42,22.61h-6.21a3,3,0,0,1,0-6H231.1a3,3,0,1,1,0,6h-6.22V43.06a3.23,3.23,0,1,1-6.46,0Z"/><path class="cls-1" d="M245.12,7.26a2.76,2.76,0,0,1,.5-1.33l2.71-4.25A3.24,3.24,0,0,1,251.15,0c1.83,0,4.2,1.14,4.2,2.27a2.44,2.44,0,0,1-1,1.78L251.3,6.92A5.53,5.53,0,0,1,247,8.55c-1.08,0-1.88-.5-1.88-1.29m6.82,24.31-4.79-11.41-4.79,11.41Zm-21.39,9.58,12-27.22a4.72,4.72,0,0,1,4.45-3h.45a4.64,4.64,0,0,1,4.39,3l12.05,27.22a3.67,3.67,0,0,1,.4,1.53,3.6,3.6,0,0,1-3.6,3.66,3.87,3.87,0,0,1-3.66-2.62l-2.33-5.44H239.54L237.12,44a3.74,3.74,0,0,1-3.5,2.37,3.51,3.51,0,0,1-3.51-3.56,4,4,0,0,1,.44-1.63"/><path class="cls-1" d="M135.44,53.73a2.79,2.79,0,0,1,2.81-2.81h.63a2.91,2.91,0,0,1,2.56,1.46l6.8,11.08,6.84-11.12a2.75,2.75,0,0,1,2.52-1.42h.62A2.8,2.8,0,0,1,161,53.73V74.06a2.8,2.8,0,1,1-5.6,0V61.3l-4.93,7.61a2.65,2.65,0,0,1-4.69,0L141,61.41V74.14a2.75,2.75,0,0,1-2.78,2.74,2.72,2.72,0,0,1-2.74-2.74Z"/><path class="cls-1" d="M167.18,73.84v-20A2.8,2.8,0,0,1,170,51.06h14.18a2.54,2.54,0,0,1,2.53,2.52,2.5,2.5,0,0,1-2.53,2.49H172.77v5.2h9.77a2.52,2.52,0,0,1,2.52,2.52,2.5,2.5,0,0,1-2.52,2.49h-9.77v5.37h11.6a2.52,2.52,0,0,1,2.52,2.52,2.5,2.5,0,0,1-2.52,2.49H170a2.79,2.79,0,0,1-2.82-2.82"/><path class="cls-1" d="M190.73,74.8a2.85,2.85,0,0,1-1.06-2.16,2.67,2.67,0,0,1,2.67-2.71,2.52,2.52,0,0,1,1.68.59,5.4,5.4,0,0,0,3.4,1.28c2.19,0,3.51-1.28,3.51-4.24V53.66a2.82,2.82,0,1,1,5.63,0V67.81a9.28,9.28,0,0,1-2.41,6.84A9.15,9.15,0,0,1,197.5,77a10.86,10.86,0,0,1-6.77-2.23"/><path class="cls-1" d="M232.49,63.93v-.07a7.77,7.77,0,0,0-7.75-8,7.65,7.65,0,0,0-7.68,8v.07a7.78,7.78,0,0,0,7.75,8,7.66,7.66,0,0,0,7.68-8m-21.32,0v-.07a13.24,13.24,0,0,1,13.64-13.24c7.9,0,13.57,5.89,13.57,13.17v.07A13.24,13.24,0,0,1,224.74,77.1c-7.9,0-13.57-5.89-13.57-13.17"/><path class="cls-1" d="M254.72,63.5c2.75,0,4.32-1.47,4.32-3.63V59.8c0-2.41-1.68-3.65-4.43-3.65H249V63.5Zm-11.33-9.62a2.8,2.8,0,0,1,2.81-2.82h8.89c3.25,0,5.78.92,7.46,2.6a8.07,8.07,0,0,1,2.19,5.85v.07a7.81,7.81,0,0,1-5.12,7.79l3.92,4.75a3.28,3.28,0,0,1,.91,2.16,2.63,2.63,0,0,1-2.67,2.6A3.37,3.37,0,0,1,259,75.42l-5.48-7H249v5.59a2.82,2.82,0,1,1-5.63,0Z"/><path class="cls-1" d="M140.69,88.16a2.06,2.06,0,0,0,2.32-2v0c0-1.32-.91-2-2.38-2h-2.26v4.07Zm-5.25-5.25a1.46,1.46,0,0,1,1.46-1.47h4c3.18,0,5.1,1.89,5.1,4.61v0c0,3.08-2.4,4.68-5.38,4.68h-2.23v2.65a1.47,1.47,0,1,1-2.93,0Z"/><path class="cls-1" d="M154.71,89.19l-1.85-4.4L151,89.19Zm-8.25,3.7,4.65-10.5a1.81,1.81,0,0,1,1.71-1.16H153a1.8,1.8,0,0,1,1.7,1.16l4.64,10.5a1.36,1.36,0,0,1-1.23,2,1.48,1.48,0,0,1-1.41-1l-.9-2.1h-5.86L149,94a1.46,1.46,0,0,1-1.36.92,1.35,1.35,0,0,1-1.35-1.37,1.6,1.6,0,0,1,.17-.63"/><path class="cls-1" d="M167.69,87.92c1.43,0,2.25-.77,2.25-1.89v0c0-1.25-.88-1.9-2.3-1.9h-2.92v3.83Zm-5.9-5a1.46,1.46,0,0,1,1.47-1.47h4.62a5.31,5.31,0,0,1,3.89,1.36,4.17,4.17,0,0,1,1.14,3v0a4.07,4.07,0,0,1-2.66,4.05l2,2.48a1.69,1.69,0,0,1,.48,1.12,1.37,1.37,0,0,1-1.39,1.36,1.75,1.75,0,0,1-1.45-.77l-2.86-3.61h-2.34v2.91a1.47,1.47,0,1,1-2.93,0Z"/><path class="cls-1" d="M183.06,89.19l-1.85-4.4-1.84,4.4Zm-8.25,3.7,4.65-10.5a1.83,1.83,0,0,1,1.72-1.16h.17A1.78,1.78,0,0,1,183,82.39l4.65,10.5a1.51,1.51,0,0,1,.15.59,1.39,1.39,0,0,1-1.39,1.41,1.49,1.49,0,0,1-1.41-1l-.9-2.1h-5.86L177.35,94a1.45,1.45,0,0,1-1.35.92,1.35,1.35,0,0,1-1.36-1.37,1.6,1.6,0,0,1,.17-.63"/><path class="cls-1" d="M199,84.15h-2.82a1.36,1.36,0,0,1,0-2.71h8.57a1.36,1.36,0,0,1,0,2.71h-2.82v9.27a1.47,1.47,0,0,1-2.93,0Z"/><path class="cls-1" d="M218.13,88.14v0a4,4,0,0,0-4-4.19,4,4,0,0,0-4,4.15v0a4,4,0,0,0,4,4.19,4,4,0,0,0,4-4.16m-11.1,0v0a7.09,7.09,0,0,1,14.17,0v0a7.09,7.09,0,0,1-14.17,0"/><path class="cls-1" d="M229,92.13a3.8,3.8,0,0,0,4-4v0a3.83,3.83,0,0,0-4-4h-2.26v8Zm-5.2-9.22a1.46,1.46,0,0,1,1.47-1.47H229c4.19,0,7.09,2.88,7.09,6.63v0c0,3.75-2.9,6.66-7.09,6.66h-3.73a1.46,1.46,0,0,1-1.47-1.47Z"/><path class="cls-1" d="M249.21,88.14v0a4.05,4.05,0,0,0-4-4.19,4,4,0,0,0-4,4.15v0a4.06,4.06,0,0,0,4,4.19,4,4,0,0,0,4-4.16m-11.1,0v0a7.08,7.08,0,0,1,14.16,0v0a7.08,7.08,0,0,1-14.16,0"/><path class="cls-1" d="M254.52,93.36a1.37,1.37,0,0,1,.82-2.46,1.44,1.44,0,0,1,.84.27,5.63,5.63,0,0,0,3.4,1.2c1.2,0,1.93-.47,1.93-1.26v0c0-.75-.46-1.13-2.69-1.7-2.68-.68-4.41-1.42-4.41-4.07v0c0-2.42,1.94-4,4.66-4a7.76,7.76,0,0,1,4.23,1.18,1.35,1.35,0,0,1-.73,2.51,1.44,1.44,0,0,1-.74-.2,5.55,5.55,0,0,0-2.8-.9c-1.12,0-1.71.52-1.71,1.16v0c0,.88.57,1.16,2.87,1.75,2.71.71,4.23,1.68,4.23,4v0c0,2.65-2,4.13-4.89,4.13a8.58,8.58,0,0,1-5-1.6"/><path class="cls-1" d="M5.12,78.57,4,75.58l-1.09,3Zm3,3.21H6.36l-.7-1.84H2.41l-.67,1.84H0l3.16-8.1H4.9Z"/><polygon class="cls-1" points="8.58 81.78 8.58 73.75 10.22 73.75 10.22 80.41 14.28 80.41 14.28 81.78 8.58 81.78"/><path class="cls-1" d="M20.17,78.79l1.58.5a3.52,3.52,0,0,1-1.21,2,3.42,3.42,0,0,1-2.15.65,3.51,3.51,0,0,1-2.66-1.1,4.22,4.22,0,0,1-1-3,4.41,4.41,0,0,1,1-3.14,3.62,3.62,0,0,1,2.75-1.12,3.38,3.38,0,0,1,2.43.88,3.23,3.23,0,0,1,.82,1.49l-1.62.39a1.64,1.64,0,0,0-.6-1,1.66,1.66,0,0,0-1.1-.37,1.88,1.88,0,0,0-1.48.65,3.17,3.17,0,0,0-.56,2.09,3.41,3.41,0,0,0,.56,2.19,1.79,1.79,0,0,0,1.44.65,1.62,1.62,0,0,0,1.12-.42,2.43,2.43,0,0,0,.68-1.31"/><path class="cls-1" d="M27,78.57l-1.11-3-1.09,3Zm3,3.21H28.21l-.71-1.84H24.26l-.67,1.84H21.85L25,73.68h1.74Z"/><polygon class="cls-1" points="30.43 81.78 30.43 73.75 32.07 73.75 32.07 80.41 36.13 80.41 36.13 81.78 30.43 81.78"/><path class="cls-1" d="M38.46,75.06v5.35h1.22a3.83,3.83,0,0,0,1-.09,1.28,1.28,0,0,0,.66-.32,1.78,1.78,0,0,0,.43-.79,5.22,5.22,0,0,0,.17-1.48,4.87,4.87,0,0,0-.17-1.44,2,2,0,0,0-.46-.79,1.76,1.76,0,0,0-.76-.38,9.56,9.56,0,0,0-1.34-.06Zm-1.64-1.38h3a6.09,6.09,0,0,1,1.55.15,2.64,2.64,0,0,1,1.21.75,3.4,3.4,0,0,1,.78,1.3,6,6,0,0,1,.27,1.92,5.22,5.22,0,0,1-.25,1.73A3.5,3.5,0,0,1,42.5,81a2.78,2.78,0,0,1-1.15.65,5.14,5.14,0,0,1-1.45.17H36.82Z"/><path class="cls-1" d="M44.48,73.68h1.64v8.1H44.48Zm.41-.75.76-1.65h1.74l-1.51,1.65Z"/><path class="cls-1" d="M51.51,78.57l-1.13-3-1.09,3Zm3,3.21H52.73L52,79.94H48.79l-.67,1.84H46.38l3.16-8.1h1.74Z"/><polygon class="cls-1" points="57.14 81.78 57.14 73.68 59.59 73.68 61.05 79.21 62.51 73.68 64.96 73.68 64.96 81.78 63.45 81.78 63.44 75.4 61.83 81.78 60.25 81.78 58.66 75.4 58.65 81.78 57.14 81.78"/><path class="cls-1" d="M70.42,78.57l-1.12-3-1.1,3Zm3,3.21H71.65l-.71-1.84H67.7L67,81.78H65.29l3.15-8.1h1.75Z"/><polygon class="cls-1" points="74.91 81.78 74.91 78.37 71.94 73.68 73.86 73.68 75.77 76.89 77.64 73.68 79.53 73.68 76.55 78.38 76.55 81.78 74.91 81.78"/><path class="cls-1" d="M81.22,77.73a3,3,0,0,0,.63,2.08,2.09,2.09,0,0,0,1.62.71,2.05,2.05,0,0,0,1.6-.71,3.06,3.06,0,0,0,.63-2.11,3,3,0,0,0-.61-2.07,2.08,2.08,0,0,0-1.62-.69,2.13,2.13,0,0,0-1.64.7,3.05,3.05,0,0,0-.61,2.09m-1.69,0a5.46,5.46,0,0,1,.36-2.08,4.28,4.28,0,0,1,.75-1.1,3.34,3.34,0,0,1,1.06-.74,4.52,4.52,0,0,1,1.75-.32,3.83,3.83,0,0,1,2.87,1.11,4.28,4.28,0,0,1,1.06,3.09,4.23,4.23,0,0,1-1.06,3.07,3.77,3.77,0,0,1-2.85,1.11,3.85,3.85,0,0,1-2.88-1.1,4.2,4.2,0,0,1-1.06-3"/><path class="cls-1" d="M89.84,77.11h1.21a6.44,6.44,0,0,0,1.46-.1.93.93,0,0,0,.47-.35,1.05,1.05,0,0,0,.16-.6,1,1,0,0,0-.22-.67,1,1,0,0,0-.61-.31c-.13,0-.53,0-1.19,0H89.84ZM88.2,81.78v-8.1h3.44a5.79,5.79,0,0,1,1.89.22,1.78,1.78,0,0,1,.94.77A2.34,2.34,0,0,1,94.83,76a2.16,2.16,0,0,1-.54,1.5,2.49,2.49,0,0,1-1.59.75,3.6,3.6,0,0,1,.87.68,8,8,0,0,1,.93,1.31l1,1.58h-2L92.36,80a11.66,11.66,0,0,0-.87-1.19,1.42,1.42,0,0,0-.48-.34,2.92,2.92,0,0,0-.84-.09h-.33v3.38Z"/><rect class="cls-1" x="78.58" y="93.36" width="1.53" height="1.53"/><path class="cls-1" d="M6.81,88.25v5.26H8a4.6,4.6,0,0,0,1-.07,1.62,1.62,0,0,0,.64-.33,1.69,1.69,0,0,0,.43-.77,5.14,5.14,0,0,0,.16-1.45,4.73,4.73,0,0,0-.16-1.42,1.82,1.82,0,0,0-.46-.77,1.4,1.4,0,0,0-.75-.37,7.17,7.17,0,0,0-1.32-.08ZM5.19,86.9h3a5.93,5.93,0,0,1,1.52.15,2.79,2.79,0,0,1,1.2.74,3.43,3.43,0,0,1,.75,1.29A5.62,5.62,0,0,1,11.88,91a5.55,5.55,0,0,1-.24,1.69,3.54,3.54,0,0,1-.86,1.41,2.87,2.87,0,0,1-1.13.64,4.91,4.91,0,0,1-1.42.17h-3Z"/><polygon class="cls-1" points="12.78 94.87 12.78 86.9 18.68 86.9 18.68 88.25 14.39 88.25 14.39 90.01 18.38 90.01 18.38 91.36 14.39 91.36 14.39 93.51 18.84 93.51 18.84 94.87 12.78 94.87"/><path class="cls-1" d="M24,91.39v2.12h1.48a6.45,6.45,0,0,0,1.11-.05,1,1,0,0,0,.59-.31,1,1,0,0,0,.22-.67,1.13,1.13,0,0,0-.17-.62,1.1,1.1,0,0,0-.5-.36,5.49,5.49,0,0,0-1.44-.11Zm0-3.17v1.84H25c.62,0,1,0,1.16,0a1,1,0,0,0,.65-.28.81.81,0,0,0,.24-.62.84.84,0,0,0-.21-.6.87.87,0,0,0-.6-.27,11.9,11.9,0,0,0-1.37,0ZM22.36,86.9h3.2A9.55,9.55,0,0,1,27,87a2.16,2.16,0,0,1,.83.33,2,2,0,0,1,.61.66,1.95,1.95,0,0,1,0,2,1.93,1.93,0,0,1-.82.7,2.14,2.14,0,0,1,1.11.72,1.87,1.87,0,0,1,.4,1.2,2.22,2.22,0,0,1-.26,1.06,2.11,2.11,0,0,1-.68.82,2.22,2.22,0,0,1-1.09.38c-.26,0-.91,0-1.94.06H22.36Z"/><path class="cls-1" d="M31.26,90.88a3,3,0,0,0,.62,2,2.15,2.15,0,0,0,3.17,0,3,3,0,0,0,.62-2.08,2.92,2.92,0,0,0-.61-2,2,2,0,0,0-1.59-.68,2.08,2.08,0,0,0-1.6.68,3,3,0,0,0-.61,2.06m-1.66.05a5.14,5.14,0,0,1,.36-2,3.71,3.71,0,0,1,.75-1.1,3.12,3.12,0,0,1,1-.71,4.31,4.31,0,0,1,1.71-.32,3.69,3.69,0,0,1,2.81,1.1,4.17,4.17,0,0,1,1.06,3,4.11,4.11,0,0,1-1,3A3.68,3.68,0,0,1,33.47,95a3.75,3.75,0,0,1-2.82-1.08,4.13,4.13,0,0,1-1-3"/><path class="cls-1" d="M41.82,92V90.6h3.47v3.17a4.45,4.45,0,0,1-1.47.86,5.22,5.22,0,0,1-1.94.37,4.21,4.21,0,0,1-2.17-.53A3.31,3.31,0,0,1,38.31,93a4.91,4.91,0,0,1-.47-2.12,4.65,4.65,0,0,1,.52-2.21,3.55,3.55,0,0,1,1.53-1.49,4.19,4.19,0,0,1,1.91-.4,3.82,3.82,0,0,1,2.31.63,2.74,2.74,0,0,1,1.07,1.71l-1.59.31a1.69,1.69,0,0,0-.63-.93,2,2,0,0,0-1.16-.34,2.18,2.18,0,0,0-1.67.67,2.79,2.79,0,0,0-.63,2,3.09,3.09,0,0,0,.63,2.12,2.08,2.08,0,0,0,1.65.71,2.74,2.74,0,0,0,1-.19,3.58,3.58,0,0,0,.87-.48V92Z"/><path class="cls-1" d="M47.64,90.88a3,3,0,0,0,.62,2,2,2,0,0,0,1.59.7,2.08,2.08,0,0,0,1.59-.69,3,3,0,0,0,.6-2.08,3,3,0,0,0-.59-2,2,2,0,0,0-1.6-.68,2.08,2.08,0,0,0-1.6.68,3,3,0,0,0-.61,2.06M46,90.93a5.14,5.14,0,0,1,.36-2,3.87,3.87,0,0,1,.74-1.1,3.38,3.38,0,0,1,1-.71,4.33,4.33,0,0,1,1.72-.32,3.75,3.75,0,0,1,2.81,1.1,4.9,4.9,0,0,1,0,6A3.7,3.7,0,0,1,49.85,95,3.74,3.74,0,0,1,47,93.92a4.13,4.13,0,0,1-1.05-3"/><polygon class="cls-1" points="56.3 94.87 56.3 88.25 53.93 88.25 53.93 86.9 60.27 86.9 60.27 88.25 57.91 88.25 57.91 94.87 56.3 94.87"/><path class="cls-1" d="M63.39,86.17l.75-1.62h1.71l-1.49,1.62Zm1.67,5.53L64,88.76,62.89,91.7Zm3,3.17H66.27l-.7-1.82H62.38l-.65,1.82H60l3.1-8h1.71Z"/><path class="cls-1" d="M72.63,88.25v5.26h1.2a4.6,4.6,0,0,0,1-.07,1.67,1.67,0,0,0,.65-.33,1.79,1.79,0,0,0,.42-.77A5.14,5.14,0,0,0,76,90.89a4.73,4.73,0,0,0-.16-1.42,1.74,1.74,0,0,0-.47-.77,1.38,1.38,0,0,0-.73-.37,7.32,7.32,0,0,0-1.32-.08ZM71,86.9H74a5.88,5.88,0,0,1,1.52.15,2.73,2.73,0,0,1,1.2.74,3.45,3.45,0,0,1,.76,1.29A5.69,5.69,0,0,1,77.7,91a5.25,5.25,0,0,1-.24,1.69,3.54,3.54,0,0,1-.86,1.41,2.82,2.82,0,0,1-1.12.64,5.08,5.08,0,0,1-1.43.17H71Z"/><path class="cls-1" d="M86.32,91.92l1.56.5a3.6,3.6,0,0,1-1.19,2,3.49,3.49,0,0,1-2.12.63A3.45,3.45,0,0,1,82,93.92a4.15,4.15,0,0,1-1-3,4.31,4.31,0,0,1,1-3.08,3.49,3.49,0,0,1,2.7-1.11,3.32,3.32,0,0,1,2.38.87,3.06,3.06,0,0,1,.81,1.47l-1.59.38a1.65,1.65,0,0,0-1.67-1.34,1.8,1.8,0,0,0-1.45.64,3.1,3.1,0,0,0-.55,2.06A3.28,3.28,0,0,0,83.14,93a1.75,1.75,0,0,0,1.41.64,1.62,1.62,0,0,0,1.11-.41,2.39,2.39,0,0,0,.66-1.29"/><rect class="cls-1" x="88.77" y="93.38" width="1.53" height="1.52"/><path class="cls-1" d="M32,38.21c.15.21.95-.28.88-.49-.22-.35-.08-1.33.65-1.4V36s-1.09,0-1.31.7c0,0-.86-.91-1.08-.83s.22,1.32.22,1.32c-.73-.14-1.09.84-1.09.84l.14.14a1,1,0,0,1,1.59,0"/><path class="cls-1" d="M40.81,45.7A3.44,3.44,0,0,0,40,48.14a2.82,2.82,0,0,0,2.17-1,3,3,0,0,0,.8-2.37,3.26,3.26,0,0,0-2.18,1"/><path class="cls-1" d="M63.8,37.23s.44-1.18.21-1.32-1.08.83-1.08.83c-.22-.69-1.31-.69-1.31-.69v.27c.73.07.87,1,.65,1.4-.06.22.72.7.87.49a1.06,1.06,0,0,1,1.6,0l.15-.14s-.36-1-1.09-.84"/><path class="cls-1" d="M54.3,45.7a3.28,3.28,0,0,0-2.17-1,2.9,2.9,0,0,0,.8,2.37,2.79,2.79,0,0,0,2.17,1,3.45,3.45,0,0,0-.8-2.44"/><path class="cls-1" d="M62.27,41.29c-.87,1.26-1.89,1.54-2.53,1.12s-.87-1.4,0-2.59,2-1.88,2.68-1.54.65,1.75-.15,3M46.51,18.63a.65.65,0,0,1-.72-.62.67.67,0,0,1,.72-.7.66.66,0,0,1,.66.7.63.63,0,0,1-.66.62M35.37,42.41c-.65.42-1.66.14-2.53-1.12s-.8-2.66-.15-3,1.88.28,2.68,1.54.66,2.24,0,2.59m27.12-4.26c-1.59-1-3.55-.78-4.34.48s-.2,2.9,1.29,3.89c-1.07.09-2.46-1.37-2.46-1.37-.61,1.13.5,1.76,1.37,2.07-.12.08-.23.17-.34.26-.83-.21-1.13.19-1.13.19s-2-2-3.3-3.4l1.2-.24c-.88-2-3.22-2.45-4.81-3.67-1.2-.92.14-1.32.46-1a4.77,4.77,0,0,0,5.66.78A6,6,0,0,1,53,33a6.71,6.71,0,0,0,7.67-.35c-2.89.49-5.14-2.24-5.14-2.24a8.72,8.72,0,0,0,7.61-1.95c-1.67.13-5.8-1.61-5.8-1.61,6.6-.21,7.18-4.9,7.25-4.9-1.82,1.19-6.67.63-6.67.63,6.89-2.44,6.38-8.11,6.38-8.11-1.46,2.17-8.12,4.27-8.12,4.27a4.44,4.44,0,0,0-3.26,4,1.62,1.62,0,0,1-1.59,1.4c-1.78,0-1.75-2.57-1.75-3.78,0-1.82-.07-3.91-1.38-3.91h-2.6c-.48,0-1.29-.05-1.62.35-.68.79-.57,2.86-.27,2.44a3.21,3.21,0,0,1,1.67,0c.84.24.22,2.86.22,3.43A1.58,1.58,0,0,1,44,24.23a1.63,1.63,0,0,1-1.6-1.4,4.45,4.45,0,0,0-3.18-4s-6.82-2.1-8.27-4.27c0,0-.51,5.73,6.45,8.25,0,0-4.92.42-6.74-.77.07,0,.94,4.9,7.54,5.11,0,0-4.35,1.47-5.94,1.25A8.41,8.41,0,0,0,40,30.87s-2.54,2.31-5.44,1.82a6.74,6.74,0,0,0,7.69.49,5.71,5.71,0,0,1-3,2.94,4.85,4.85,0,0,0,5.72-.78c.38-.42,1.63.07.38,1-1.65,1.27-4,1.57-5,3.67l1.22.24c-1.37,1.39-3.2,3.35-3.4,3.4,0,0-.26-.38-1-.21-.11-.08-.2-.17-.31-.24.87-.31,2-.94,1.37-2.07,0,0-1.39,1.46-2.46,1.37,1.48-1,2.07-2.66,1.3-3.89s-2.76-1.47-4.35-.48-2.25,2.79-1.45,4.05,2.51,1.45,4.12.56a4.52,4.52,0,0,1-2.45,1.47s.89,1.72,2.87-.57l.32.24c-.54.42-.76,1.14-.32,1.45,0,0-.21,1.12,1.09,1a1,1,0,0,0,1.37.32,16.41,16.41,0,0,1,.54,3.81l1.67.07a12.75,12.75,0,0,0-1.53-5.18.54.54,0,0,0,.12-.83,48.08,48.08,0,0,1,4.13-2.67L43.33,43a4.81,4.81,0,0,1,2.52-1.68A7,7,0,0,0,44.49,47s.28-.91,1.74-1.06c0,0-2,2.45,1.23,7.21,3.26-4.76,1.38-7.21,1.38-7.21A2.08,2.08,0,0,1,50.65,47a7.08,7.08,0,0,0-1.45-5.64A4.64,4.64,0,0,1,51.74,43L52,41.88a47.77,47.77,0,0,1,4.12,2.7c-.27.3-.1.62.16.84a13.17,13.17,0,0,0-1.52,5.17l1.66-.07a17.79,17.79,0,0,1,.53-3.78,1,1,0,0,0,1.34-.35c1.3.08,1.09-1,1.09-1,.43-.3.23-1-.31-1.41l.36-.28c2,2.29,2.87.57,2.87.57a4.56,4.56,0,0,1-2.45-1.47c1.61.89,3.36.64,4.13-.56s.14-3.08-1.46-4.05"/><polygon class="cls-1" points="49.13 15.91 50.58 13.67 48.33 14.51 47.52 12.49 46.66 14.51 44.34 13.67 45.86 15.91 49.13 15.91"/><path class="cls-1" d="M26,32.48c-.07-1.4-.87-2.44-1.59-2.38s-1.16,1.2-1.09,2.59.8,2,1.45,2S26,33.81,26,32.48"/><path class="cls-1" d="M70.92,50.32c-.58-.35-1.74.21-2.54,1.33s-.65,2.1,0,2.44,1.52.08,2.32-1,.8-2.39.22-2.73"/><path class="cls-1" d="M56.45,7.74c0-.64-.73-1.33-2.1-1.4s-2.61.7-2.61,1.33S52.9,8.92,54.27,9s2.25-.55,2.18-1.25"/><path class="cls-1" d="M27.08,51.65c-.8-1.12-1.95-1.68-2.53-1.33s-.58,1.6.21,2.72,1.75,1.41,2.32,1.05.73-1.32,0-2.44"/><path class="cls-1" d="M44.6,58.5c-1.46-.21-2.68.14-2.83.77s.8,1.54,2.17,1.81,2.32-.2,2.46-.9-.43-1.4-1.8-1.68"/><path class="cls-1" d="M74.12,38.57a2.89,2.89,0,0,1-2.06.77,6.88,6.88,0,0,1-.33,4.19l-1.15-.91c1.73-3.47-.7-4.7-.54-6.88-2.47.53-2.21-1.09-2.21-1.09a4,4,0,0,0,2.63.13,2.76,2.76,0,0,1-2.78-2.58c.15-1.33,1.66-2.31,3.41-2.24s3,1.33,3,2.66-1.53,2.22-3.19,2.18c.79.64,2.69.34,2.69.34-.22,1.35-1.8,1-2.6.68A3.91,3.91,0,0,0,71.6,38a6.54,6.54,0,0,1,.28.66,2.14,2.14,0,0,1,.73-1.22,2.8,2.8,0,0,1,2.24-.77,2.25,2.25,0,0,1-.73,1.89M73,50.11a.9.9,0,0,0-1.45,0c-.08.14-.88-.35-.81-.49a.92.92,0,0,0-.58-1.34l.07-.2s.94,0,1.17.63c0,0,.8-.84,1-.7s-.29,1.19-.29,1.19c.72-.14,1.09.77,1.09.77Zm-.73,3.78a2.91,2.91,0,0,1-3.84.48,4.09,4.09,0,0,0,2.24,1.4s-.83,1.42-2.49-.39c-.76,1.1-2,1.41-3,2.22a2.76,2.76,0,0,1,1-.08,3.12,3.12,0,0,1,2.18,1,2.68,2.68,0,0,1-2.1.77,3.42,3.42,0,0,1-1.92-.76,5.28,5.28,0,0,0-.83,2l-1.53.06a7.58,7.58,0,0,1,3.62-4.33c1.24-.62,1.64-.94,1.88-1.36-.79-.24-2.31-.84-1.66-2,0,0,1.3,1.26,2.31,1.22-1.33-.92-1.84-2.52-1.07-3.59s2.53-1.26,4-.35,2,2.59,1.3,3.71M47.5,56c-3.64-2.29-7.1-2.74-11.3-2.74a7.3,7.3,0,0,1-7.42-7.42l0-34.33c4.57,2.44,14.61.8,19-1.48,4.44,2.31,14.36,3.89,19,1.48l0,34.33c0,4.08-3.65,7.42-8,7.42S51.12,53.74,47.5,56m7.1,5.43a5.57,5.57,0,0,0-2.1-.84,2.93,2.93,0,0,1-2.83,2.74,3.7,3.7,0,0,1,.8-2.25,2.88,2.88,0,0,1,.76-.53c-1.34.16-2.44.77-3.75.51C47.62,63.46,46,63,46,63a3.85,3.85,0,0,0,.54-2.49,2.73,2.73,0,0,1-3,2.28,2.92,2.92,0,0,1-1.88-3.49,2.87,2.87,0,0,1,3.12-2.52A2.82,2.82,0,0,1,46.6,60c.73-.64.68-2.38.68-2.38,1.36.37.76,1.79.37,2.49A4.34,4.34,0,0,0,50,59.9a8.19,8.19,0,0,1,5.8.56ZM41.18,59.55c-.43-.08-1.23.35-1.08,1h-.22s-.36-.83.22-1.25c0,0-1.16-.49-1.1-.7s1.24-.14,1.24-.14c-.36-.63.37-1.26.37-1.26l.21.14c-.43.56.15,1.26.51,1.33s0,.91-.15.84m-9.17,1a5.44,5.44,0,0,0-.83-2,3.7,3.7,0,0,1-1.92.76,2.6,2.6,0,0,1-2.11-.77,3,3,0,0,1,2.18-1,2.92,2.92,0,0,1,1,.07c-1-.8-2.27-1.11-3-2.21-1.66,1.81-2.5.39-2.5.39a4,4,0,0,0,2.29-1.47,2.86,2.86,0,0,1-3.89-.41c-.72-1.12-.14-2.8,1.31-3.71s3.26-.77,4,.35.26,2.66-1.13,3.59c1,.09,2.36-1.22,2.36-1.22.66,1.16-.86,1.76-1.65,2,.24.42.64.74,1.87,1.36a7.57,7.57,0,0,1,3.63,4.33ZM22.36,50.11,22.22,50s.37-.91,1.09-.77c0,0-.51-1.05-.29-1.19s1,.7,1,.7c.21-.63,1.16-.63,1.16-.63l.07.2a1,1,0,0,0-.65,1.34c.14.14-.65.63-.73.49a1,1,0,0,0-1.53,0m-1.7-13.43a2.74,2.74,0,0,1,2.17.77,1.91,1.91,0,0,1,.76,1.23,3.87,3.87,0,0,1,.26-.67,4,4,0,0,0,.64-2.19c-.8.28-2.38.67-2.6-.68,0,0,1.9.3,2.68-.34-1.64,0-3.05-.91-3.19-2.18s1.23-2.52,3-2.66,3.26.91,3.4,2.24A2.77,2.77,0,0,1,25,34.78a4.33,4.33,0,0,0,2.72-.13s.19,1.61-2.27,1.1c.21,2.17-2.22,3.41-.55,6.87l-1.17.91a7.23,7.23,0,0,1-.3-4.19,3,3,0,0,1-2.09-.77,2,2,0,0,1-.65-1.89M26,28.57l-.07.21a.87.87,0,0,0-1.17.76c0,.22-.86.28-.93.08a1,1,0,0,0-1.3-.7l-.07-.21s.72-.57,1.29-.14c0,0,.15-1.12.37-1.12s.58,1,.58,1c.43-.41,1.3.08,1.3.08M24.41,9.48c1.73.07,3.05,1.26,3,2.59s-1.5,2.19-3.1,2.24a4.59,4.59,0,0,0,2.59.27c-.21,1.36-1.8,1-2.59.68-.07.47,0,1,.64,2.2A7.3,7.3,0,0,1,25.06,23l-1.16-.91a5.51,5.51,0,0,0,.58-2.13,3.15,3.15,0,0,1-2-.53,2.32,2.32,0,0,1-1.17-1.75,3.64,3.64,0,0,1,2.39.42,3.18,3.18,0,0,1,.66.59c-.35-1.25-1.12-2.2-1-3.48-2.47.52-2.28-1.09-2.28-1.09a4.61,4.61,0,0,0,2.6.17A2.81,2.81,0,0,1,21,11.65c.14-1.33,1.67-2.31,3.41-2.17M24,8s.37-1.12.58-1S25,8,25,8c.59-.43,1.31.21,1.31.21l-.07.13a1,1,0,0,0-1.3.7c-.07.22-1,.14-1-.07a.89.89,0,0,0-1.16-.76L22.74,8S23.61,7.53,24,8m6.59.34a5.63,5.63,0,0,0,2.25.4,3.07,3.07,0,0,1,.36-2A2.47,2.47,0,0,1,35,5.43a2.85,2.85,0,0,1-.3,2.31,2.22,2.22,0,0,1-.58.74c1.27-.4,2.18-1.23,3.48-1.28-.64-2.32,1-2.27,1-2.27a3.92,3.92,0,0,0,.07,2.57,2.68,2.68,0,0,1,2.4-2.84,2.82,2.82,0,0,1,2.61,3,2.73,2.73,0,0,1-2.4,3.07,2.78,2.78,0,0,1-2.6-2.85c-.59.8-.15,2.57-.15,2.57-1.33-.05-1.1-1.65-.91-2.41a5.12,5.12,0,0,0-2.14.8,8.16,8.16,0,0,1-5.72.64Zm13.49-1c.36,0,1.08-.57.72-1.19L45.06,6s.58.76.14,1.26c0,0,1.24.21,1.24.42s-1.15.41-1.15.41c.43.49-.09,1.26-.09,1.26H45a1,1,0,0,0-.87-1.26c-.21,0-.21-.83,0-.83m6,0c-.43-.5.14-1.26.14-1.26l.22.07c-.36.62.36,1.19.73,1.19.21,0,.21.83,0,.83a1,1,0,0,0-.87,1.26h-.22s-.51-.77-.07-1.26c0,0-1.16-.2-1.16-.41s1.23-.42,1.23-.42m4.13-2.59A2.66,2.66,0,0,1,56.66,7.5a3.8,3.8,0,0,0,.07-2.57s1.68,0,1,2.27c1.3,0,2.21.88,3.48,1.28a2.71,2.71,0,0,1-.59-.74,2.84,2.84,0,0,1-.28-2.31A2.47,2.47,0,0,1,62.1,6.68a3,3,0,0,1,.36,2,5.58,5.58,0,0,0,2.25-.4l.87,1.2a8.19,8.19,0,0,1-5.73-.64,5.09,5.09,0,0,0-2.13-.8c.18.76.42,2.36-.91,2.41,0,0,.44-1.77-.15-2.57a2.78,2.78,0,0,1-2.6,2.85,2.72,2.72,0,0,1-2.39-3.07,2.81,2.81,0,0,1,2.6-3M73,28.71l-.08.21a1,1,0,0,0-1.29.7c0,.2-.95.14-.95-.08a.86.86,0,0,0-1.16-.76l-.07-.21s.87-.49,1.3-.08c0,0,.37-1.11.58-1s.37,1.12.37,1.12c.57-.43,1.3.14,1.3.14M71.05,9.48c1.74-.14,3.27.84,3.41,2.17a2.81,2.81,0,0,1-2.66,2.62,4.58,4.58,0,0,0,2.59-.17s.2,1.62-2.3,1.09c.1,1.31-.72,2.28-1,3.57a3.21,3.21,0,0,1,.73-.68,3.66,3.66,0,0,1,2.4-.42A2.6,2.6,0,0,1,73,19.41a3.23,3.23,0,0,1-2.08.53,5.53,5.53,0,0,0,.62,2.13L70.4,23a7,7,0,0,1,.15-5.52,4,4,0,0,0,.63-2.2c-.79.29-2.38.68-2.59-.68a4.59,4.59,0,0,0,2.59-.27c-1.6,0-3-1-3.1-2.24s1.23-2.52,3-2.59M70.46,8s.16-1.12.38-1.12.58,1,.58,1c.43-.42,1.3.07,1.3.07l-.07.21A.88.88,0,0,0,71.48,9c0,.21-.93.29-.93.07a1,1,0,0,0-1.31-.7l-.07-.13s.73-.64,1.29-.21M47.55.07A30.81,30.81,0,0,1,19.06,0V51.06A11.33,11.33,0,0,0,30.59,62.28c6.17,0,11.66.85,17,4.25,5.31-3.34,10.74-4.25,16.91-4.25A11.39,11.39,0,0,0,76.05,51.06V0a30.89,30.89,0,0,1-28.5.07"/><path class="cls-1" d="M24.05,14.1c.65.07,1.37-.63,1.45-2s-.44-2.51-1.09-2.59-1.52,1-1.6,2.38.51,2.1,1.24,2.17"/><path class="cls-1" d="M71.42,14.1c.64-.07,1.3-.84,1.23-2.17s-.87-2.45-1.6-2.38-1.22,1.19-1.15,2.59.79,2,1.52,2"/><path class="cls-1" d="M41.08,9c1.37-.07,2.47-.63,2.54-1.33S42.45,6.33,41,6.33,38.9,7.1,38.9,7.74,39.63,9.07,41.08,9"/><path class="cls-1" d="M72.24,32.69c.08-1.39-.5-2.51-1.15-2.59s-1.52,1-1.6,2.38.58,2.1,1.23,2.17,1.45-.63,1.52-2"/></g></g></svg>