<svg xmlns="http://www.w3.org/2000/svg" xmlns:xlink="http://www.w3.org/1999/xlink" viewBox="0 0 245 245"><defs><style>.cls-1{fill:#009fe3;}.cls-2{fill:#3d5da6;}.cls-3{fill:url(#Degradado_sin_nombre_18);}.cls-4{fill:url(#Degradado_sin_nombre_18-2);}.cls-5{fill:url(#Degradado_sin_nombre_18-3);}</style><linearGradient id="Degradado_sin_nombre_18" x1="199.09" y1="206.09" x2="231.94" y2="206.09" gradientUnits="userSpaceOnUse"><stop offset="0.03" stop-color="#e67d23"/><stop offset="1" stop-color="#fbb03b"/></linearGradient><linearGradient id="Degradado_sin_nombre_18-2" x1="177.68" y1="177.27" x2="217.77" y2="177.27" xlink:href="#Degradado_sin_nombre_18"/><linearGradient id="Degradado_sin_nombre_18-3" x1="165.16" y1="205.13" x2="197.48" y2="205.13" xlink:href="#Degradado_sin_nombre_18"/></defs><title>InformeIcono Bolsas suero @1x</title><g id="Capa_2" data-name="Capa 2"><g id="Contenidos"><path class="cls-1" d="M7.9,146.36l102.75-9.84.38,17.64s3,11.69-17.79,11.81h-73S2,167.92,7.9,146.36Z"/><path class="cls-2" d="M233.8,167.09,201.53,129V114.6h15.81V90.89H201.53V71.13a19.78,19.78,0,0,0-19.76-19.76H154.11a19.79,19.79,0,0,0-19.76,19.76V225.24A11.86,11.86,0,0,1,122.5,237.1H75.08a11.87,11.87,0,0,1-11.85-11.86V213.39a7.92,7.92,0,0,0,7.9-7.91v-15.8h4a11.87,11.87,0,0,0,11.86-11.86v-3.95H98.79a19.78,19.78,0,0,0,19.76-19.76V35.56A19.78,19.78,0,0,0,98.79,15.81H93.33L85.43,0H33.12l-7.9,15.81H19.76A19.77,19.77,0,0,0,0,35.56V154.11a19.78,19.78,0,0,0,19.76,19.76H31.61v3.95a11.87,11.87,0,0,0,11.86,11.86h4v15.8a7.91,7.91,0,0,0,7.9,7.91v11.85A19.78,19.78,0,0,0,75.08,245H122.5a19.78,19.78,0,0,0,19.76-19.76V71.13a11.87,11.87,0,0,1,11.85-11.86h27.66a11.87,11.87,0,0,1,11.86,11.86V90.89H177.82V114.6h15.81V129l-32.27,38.13a47.42,47.42,0,1,0,72.44,0ZM38,7.9H80.54l3.95,7.91H34.06ZM7.9,154.11V35.56A11.87,11.87,0,0,1,19.76,23.71h79a11.87,11.87,0,0,1,11.86,11.85V154.11A11.87,11.87,0,0,1,98.79,166H47.42V150.16H71.13v-7.9H47.42V126.45H63.23v-7.9H47.42V102.74H71.13v-7.9H47.42V79H63.23v-7.9H47.42V55.32H71.13v-7.9H47.42V31.61h-7.9V166H19.76A11.87,11.87,0,0,1,7.9,154.11Zm31.62,23.71v-3.95H79v3.95a4,4,0,0,1-4,4H43.47A4,4,0,0,1,39.52,177.82Zm23.71,11.86v15.8H55.32v-15.8Zm122.5-90.89h23.71v7.9H185.73ZM197.5,237.1a39.43,39.43,0,0,1-30.11-64.9l30.19-35.68,30.19,35.68a39.43,39.43,0,0,1-30.27,64.9Z"/><path class="cls-3" d="M210.3,227.5v-6.35h12l9.63-16.87-9.88-19.59-17,5.61,4.57,8.43-10.56,14Zm9.6-37.63,6.57,13-9.36.67-5.87-10.84Zm-9.6,10.07,2.14,4-2.14.15Zm15,7.28-5.53,9.7H207.63l-3.2-4.24,3.16-4.19Z"/><path class="cls-4" d="M196.49,182.56l17.7,2.92,3.58-21.3-5.1,5.06-5.57-7.36H189.89l-12.21,19.35,11.53,11.43ZM205,166.11l6.68,8.82-1,5.68-6.62-1.09.48-.47-9.23-12.94Zm-21.85,14.51,8.13-12.89,5.32,7.45-7.89,10.95Z"/><path class="cls-5" d="M184.06,189.11l-18.79,3.11,4,3.94-4.09,8.12,9.72,16.87h22.6V204.21h-9.07Zm-14.06,15,4.45-8.82-.29-.29,6.84-1.13,2.12,7.36-.33-.18L175.7,214Zm23.21,12.77H179l4.63-8.47h9.59Z"/></g></g></svg>