<svg xmlns="http://www.w3.org/2000/svg" xmlns:xlink="http://www.w3.org/1999/xlink" viewBox="0 0 229 229"><defs><style>.cls-1{fill:url(#Degradado_sin_nombre_18);}.cls-2{fill:#3d5da6;}.cls-3{fill:url(#Degradado_sin_nombre_18-2);}.cls-4{fill:url(#Degradado_sin_nombre_18-3);}.cls-5{fill:url(#Degradado_sin_nombre_18-4);}</style><linearGradient id="Degradado_sin_nombre_18" x1="18.47" y1="177.29" x2="84.95" y2="177.29" gradientUnits="userSpaceOnUse"><stop offset="0.03" stop-color="#e67d23"/><stop offset="1" stop-color="#fbb03b"/></linearGradient><linearGradient id="Degradado_sin_nombre_18-2" x1="62.79" y1="73.87" x2="70.18" y2="73.87" xlink:href="#Degradado_sin_nombre_18"/><linearGradient id="Degradado_sin_nombre_18-3" x1="136.66" y1="125.58" x2="144.05" y2="125.58" xlink:href="#Degradado_sin_nombre_18"/><linearGradient id="Degradado_sin_nombre_18-4" x1="136.66" y1="140.35" x2="144.05" y2="140.35" xlink:href="#Degradado_sin_nombre_18"/></defs><title>InformeIcono registro informacion@1x</title><g id="Capa_2" data-name="Capa 2"><g id="Contenidos"><path class="cls-1" d="M36.94,210.53H66.48V192.06H85V162.52H66.48V144.05H36.94v18.47H18.47v29.54H36.94ZM25.85,184.68V169.9H44.32V151.44H59.1V169.9H77.56v14.78H59.1v18.47H44.32V184.68Z"/><path class="cls-2" d="M51.71,133a44.23,44.23,0,0,1,23.86,7l4-6.22A51.71,51.71,0,0,0,8.13,205.13l6.22-4A44.33,44.33,0,0,1,51.71,133Z"/><path class="cls-2" d="M103.42,177.29a51.21,51.21,0,0,0-10.94-31.82L86.65,150A43.85,43.85,0,0,1,96,177.29a44.33,44.33,0,0,1-72.65,34.09l-4.72,5.68a51.71,51.71,0,0,0,84.76-39.77Z"/><path class="cls-2" d="M158.82,22.16H144.05V14.77A14.79,14.79,0,0,0,129.27,0H99.73A14.79,14.79,0,0,0,85,14.77v7.39H70.18V51.71h88.64ZM92.34,14.77a7.39,7.39,0,0,1,7.39-7.38h29.54a7.39,7.39,0,0,1,7.39,7.38v7.39H92.34Zm59.1,29.55H77.56V29.55h73.88Z"/><rect class="cls-2" x="110.81" y="11.08" width="7.39" height="7.39"/><rect class="cls-2" x="84.95" y="33.24" width="7.39" height="7.39"/><rect class="cls-2" x="136.66" y="33.24" width="7.39" height="7.39"/><polygon class="cls-2" points="103.42 214.23 180.98 214.23 180.98 177.29 173.6 177.29 173.6 206.84 103.42 206.84 103.42 214.23"/><polygon class="cls-2" points="173.6 70.18 180.98 70.18 180.98 44.32 166.21 44.32 166.21 51.71 173.6 51.71 173.6 70.18"/><polygon class="cls-2" points="188.37 221.61 84.95 221.61 84.95 229 195.76 229 195.76 147.74 188.37 147.74 188.37 221.61"/><polygon class="cls-2" points="188.37 44.32 195.76 44.32 195.76 29.55 166.21 29.55 166.21 36.94 188.37 36.94 188.37 44.32"/><polygon class="cls-2" points="62.79 44.32 48.02 44.32 48.02 118.19 55.4 118.19 55.4 51.71 62.79 51.71 62.79 44.32"/><polygon class="cls-2" points="40.63 36.94 62.79 36.94 62.79 29.55 33.24 29.55 33.24 118.19 40.63 118.19 40.63 36.94"/><path class="cls-2" d="M229,52.71V52a15.11,15.11,0,0,0-28.62-6.75L138.26,169.53a15.14,15.14,0,0,0-1.6,6.76V177a15,15,0,0,0,3.63,9.71l-4.46,7.13,6.27,3.92,4.19-6.72a15,15,0,0,0,19-7.29L218.09,78.09l.78.39a4.94,4.94,0,0,1,2.21,6.65l-13.86,27.72a12,12,0,0,0,5.35,16l3.31-6.61a4.58,4.58,0,0,1-2-6.13L227.7,88.43a12.47,12.47,0,0,0,1.3-5.52,12.27,12.27,0,0,0-6.83-11l-.78-.39,6-12A15.14,15.14,0,0,0,229,52.71Zm-70.33,127.7A7.72,7.72,0,0,1,144.05,177v-.67a7.77,7.77,0,0,1,.81-3.45l39.26-78.5,14.07,7Zm62.94-127.7a7.77,7.77,0,0,1-.81,3.45L201.49,94.77l-14.08-7L207,48.6A7.71,7.71,0,0,1,221.61,52v.67Z"/><rect class="cls-3" x="62.79" y="70.18" width="7.39" height="7.39"/><rect class="cls-2" x="77.56" y="70.18" width="88.65" height="7.39"/><rect class="cls-2" x="62.79" y="84.95" width="103.42" height="7.39"/><rect class="cls-2" x="62.79" y="99.73" width="44.32" height="7.39"/><rect class="cls-2" x="121.89" y="99.73" width="44.32" height="7.39"/><rect class="cls-2" x="99.73" y="121.89" width="29.55" height="7.39"/><rect class="cls-2" x="99.73" y="136.66" width="29.55" height="7.39"/><rect class="cls-4" x="136.66" y="121.89" width="7.39" height="7.39"/><rect class="cls-5" x="136.66" y="136.66" width="7.39" height="7.39"/></g></g></svg>