<svg xmlns="http://www.w3.org/2000/svg" xmlns:xlink="http://www.w3.org/1999/xlink" viewBox="0 0 280 226"><defs><style>.cls-1{fill:#3d5da6;}.cls-2{fill:url(#Degradado_sin_nombre_18);}</style><linearGradient id="Degradado_sin_nombre_18" x1="212.9" y1="128" x2="253.16" y2="128" gradientUnits="userSpaceOnUse"><stop offset="0.03" stop-color="#e67d23"/><stop offset="1" stop-color="#fbb03b"/></linearGradient></defs><title>InformeIcono Residuos hospitalarios@1x</title><g id="Capa_2" data-name="Capa 2"><g id="Contenidos"><path class="cls-1" d="M0,203.23V225H59V203.23H44.25V188.71H55.31V94.35H40.56V79.84H33.19v-29H25.81v29H18.44V94.35H3.69v94.36H14.75v14.52Zm51.63,14.51H7.38v-7.26H51.63ZM25.81,87.1h7.38v7.25H25.81ZM11.06,101.61H47.94v7.26H29.5v7.26H47.94v7.26H36.88v7.26H47.94v7.25H29.5v7.26H47.94v7.26H36.88v7.26H47.94v7.26H29.5v7.25H47.94v7.26H11.06Zm11.07,87.1H36.88v14.52H22.13Z"/><path class="cls-1" d="M29.5,43.34,42.15,22.6a14.41,14.41,0,0,0,2.1-7.47v-.61a14.75,14.75,0,0,0-29.5,0v.61a14.38,14.38,0,0,0,2.1,7.47ZM22.13,14.52a7.38,7.38,0,0,1,14.75,0v.61a7.11,7.11,0,0,1-1.06,3.73L29.5,29.24,23.18,18.86a7.1,7.1,0,0,1-1.05-3.73Z"/><path class="cls-1" d="M169.29,89.5H95.48a6.87,6.87,0,0,0-6.71,7v98a6.87,6.87,0,0,0,6.71,7h73.81a6.87,6.87,0,0,0,6.71-7v-98A6.87,6.87,0,0,0,169.29,89.5Zm-73.81,105v-98h73.81v98Z"/><path class="cls-1" d="M102.19,131.5h60.39v-28H102.19Zm26.84-7h-6.71v-14H129Zm6.71-14h6.71v14h-6.71Zm20.13,14h-6.71v-14h6.71Zm-47-14h6.71v14H108.9Z"/><path class="cls-1" d="M102.19,138.5h60.39v7H102.19Z"/><path class="cls-1" d="M135.74,152.5h26.84v7H135.74Z"/><path class="cls-1" d="M102.19,152.5H129v7H102.19Z"/><path class="cls-1" d="M102.19,166.5h60.39v7H102.19Z"/><path class="cls-1" d="M102.19,180.5h60.39v7H102.19Z"/><path class="cls-1" d="M271.8,107.42,233,48.3l-38.77,59.12c-.53.81-1,1.63-1.49,2.46v-14a27.81,27.81,0,0,0-7.69-19.37,20.76,20.76,0,0,1-5.73-14.43V51h3.36V23c0-7.72-6-14-13.42-14s-13.42,6.28-13.42,14V51h3.36V68.5H142.45V9H122.32V68.5H105.55V58h6.71V37h-6.71V30h6.71V23H78.71v7h6.71v7H78.71V58h6.71v4.1a20.7,20.7,0,0,1-5.73,14.43A27.81,27.81,0,0,0,72,95.9V198.6C72,213.71,83.78,226,98.27,226h68.24c14.48,0,26.26-12.29,26.26-27.4V160.15C201,174.41,215.91,184,233,184h.11C259,184,280,162.05,280,135.06A50.26,50.26,0,0,0,271.8,107.42ZM162.58,23A6.72,6.72,0,1,1,176,23V44H162.58ZM92.13,30h6.71v7H92.13ZM85.42,44h20.13v7H85.42ZM186.06,198.6c0,11.25-8.77,20.4-19.55,20.4H98.27c-10.79,0-19.56-9.15-19.56-20.4V95.9a20.7,20.7,0,0,1,5.73-14.43A27.81,27.81,0,0,0,92.13,62.1V58h6.71V75.5H129V16h6.71V75.5h30.2V51h6.71V62.1a27.81,27.81,0,0,0,7.69,19.37,20.75,20.75,0,0,1,5.72,14.43Zm47-21.6H233c-22.17,0-40.21-18.82-40.21-41.94a43,43,0,0,1,7-23.69L233,60.7l33.24,50.67a43.11,43.11,0,0,1,7,23.69C273.29,158.18,255.26,177,233.09,177Z"/><path class="cls-1" d="M266.37,131.11l-6.67.78a30.45,30.45,0,0,1,.17,3.17c0,15.41-12,27.94-26.89,27.94l.11,7c18.46,0,33.49-15.68,33.49-34.94A36.91,36.91,0,0,0,266.37,131.11Z"/><path class="cls-1" d="M264.64,123.32a35.28,35.28,0,0,0-3.92-8l-5.53,4a28.34,28.34,0,0,1,3.13,6.4Z"/><path class="cls-2" d="M243.1,138.5h10.06v-21H243.1V107H223v10.5H212.9v21H223V149H243.1Zm-6.71,3.5h-6.71V131.5H219.61v-7h10.07V114h6.71v10.5h10.06v7H236.39Z"/></g></g></svg>