<svg xmlns="http://www.w3.org/2000/svg" xmlns:xlink="http://www.w3.org/1999/xlink" viewBox="0 0 267.57 205.28"><defs><style>.cls-1{fill:#3d5da6;}.cls-2{fill:none;stroke:#3d5da6;stroke-miterlimit:10;stroke-width:6px;}.cls-3{fill:url(#Degradado_sin_nombre_18);}.cls-4{fill:url(#Degradado_sin_nombre_18-2);}.cls-5{fill:url(#Degradado_sin_nombre_18-3);}.cls-6{fill:url(#Degradado_sin_nombre_18-4);}</style><linearGradient id="Degradado_sin_nombre_18" x1="221.55" y1="25.76" x2="235.32" y2="25.76" gradientUnits="userSpaceOnUse"><stop offset="0.03" stop-color="#e67d23"/><stop offset="1" stop-color="#fbb03b"/></linearGradient><linearGradient id="Degradado_sin_nombre_18-2" x1="202.34" y1="33.16" x2="217.55" y2="33.16" xlink:href="#Degradado_sin_nombre_18"/><linearGradient id="Degradado_sin_nombre_18-3" x1="239.32" y1="33.16" x2="254.53" y2="33.16" xlink:href="#Degradado_sin_nombre_18"/><linearGradient id="Degradado_sin_nombre_18-4" x1="207.78" y1="52.35" x2="249.08" y2="52.35" xlink:href="#Degradado_sin_nombre_18"/></defs><title>InformeIcono Veterinaria@1x</title><g id="Capa_2" data-name="Capa 2"><g id="Contenidos"><path class="cls-1" d="M144.6,102.89H38.9a3.69,3.69,0,0,0-3.66,3.71v75.19a3.68,3.68,0,0,0,3.66,3.7H144.6a3.69,3.69,0,0,0,3.67-3.7V106.6A3.69,3.69,0,0,0,144.6,102.89Zm-3.66,75.19H42.56V110.3h98.38Z"/><path class="cls-1" d="M238.56,197.87H234.4V101a58.61,58.61,0,0,1-6.1.32c-.41,0-.82,0-1.23,0v96.59H214.82V106.6a3.69,3.69,0,0,0-3.66-3.71h-47a3.69,3.69,0,0,0-3.66,3.71v91.27H23V91.62a33.48,33.48,0,0,0,11,1.86A34,34,0,0,0,64.35,74.62a33.83,33.83,0,0,0,60.68,0,33.78,33.78,0,0,0,57.62,5,58.73,58.73,0,0,1-4.54-6.4A26.58,26.58,0,0,1,129,62.81h44.17A57.36,57.36,0,0,1,171,55.4H35a3.71,3.71,0,0,0,0,7.41H60.42a26.63,26.63,0,0,1-52.84,0H19.32a3.71,3.71,0,0,0,0-7.41H10L35.91,9.53a4.17,4.17,0,0,1,3.62-2.12H181.65A58.62,58.62,0,0,1,188.41,0H39.53a11.49,11.49,0,0,0-10,5.85L.48,57.27A3.8,3.8,0,0,0,0,59.11,34.47,34.47,0,0,0,15.66,88V197.87H11.49a3.71,3.71,0,0,0,0,7.41H238.56a3.71,3.71,0,0,0,0-7.41ZM121.11,62.81a26.63,26.63,0,0,1-52.84,0ZM207.5,197.87H167.84V185.49H207.5Zm0-19.79H167.84V110.3H207.5Z"/><ellipse class="cls-2" cx="227.53" cy="44.51" rx="37.05" ry="36.89"/><path class="cls-3" d="M228.43,33.74c3.8,0,6.89-3.58,6.89-8s-3.09-8-6.89-8-6.88,3.57-6.88,8S224.64,33.74,228.43,33.74Zm0-13.3c2.28,0,4.13,2.39,4.13,5.32s-1.85,5.32-4.13,5.32-4.13-2.39-4.13-5.32S226.15,20.44,228.43,20.44Z"/><path class="cls-4" d="M215.78,38.8a6,6,0,0,0,1.72-5.12,8.76,8.76,0,0,0-2.7-5.22c-3.22-3.11-8-3.53-10.71-.94s-2.24,7.23,1,10.34a9.12,9.12,0,0,0,6.24,2.63A6.31,6.31,0,0,0,215.78,38.8ZM206,29.4a3.59,3.59,0,0,1,2.53-.94,6.38,6.38,0,0,1,4.29,1.88,6.15,6.15,0,0,1,1.9,3.63,3.43,3.43,0,0,1-.93,3c-1.61,1.55-4.67,1.13-6.82-.94S204.43,31,206,29.4Z"/><path class="cls-5" d="M245.55,40.5a9.14,9.14,0,0,0,6.25-2.64c3.22-3.11,3.65-7.75,1-10.34s-7.49-2.17-10.71.94a8.69,8.69,0,0,0-2.69,5.22,6,6,0,0,0,1.72,5.12A6.32,6.32,0,0,0,245.55,40.5ZM242.1,34A6.11,6.11,0,0,1,244,30.34a6.35,6.35,0,0,1,4.29-1.88,3.56,3.56,0,0,1,2.52.94c1.61,1.55,1.18,4.51-1,6.58s-5.21,2.49-6.82.94A3.46,3.46,0,0,1,242.1,34Z"/><path class="cls-6" d="M247.91,63.77l.07.07,1-2.84a7.91,7.91,0,0,0,.15-1.55V56.33c0-11-9.26-19.93-20.65-19.93s-20.65,8.94-20.65,19.93v3.12A9,9,0,0,0,217,68.3a9.24,9.24,0,0,0,6.48-2.6l1.28-1.23a5.4,5.4,0,0,1,7.45,0l1.28,1.23a9.34,9.34,0,0,0,14.47-1.93ZM234.1,62.59a8.22,8.22,0,0,0-11.34,0l-1.28,1.23A6.48,6.48,0,0,1,217,65.64a6.32,6.32,0,0,1-6.42-6.19V56.33c0-9.52,8-17.28,17.9-17.28A17.85,17.85,0,0,1,245.64,51.6c.29.15.69,6.89.69,6.89s-.41,3.25-.51,3.27l0,0a6.42,6.42,0,0,1-5.93,3.86,6.51,6.51,0,0,1-4.54-1.82Z"/><path class="cls-1" d="M84.91,137.14a1,1,0,1,1-1-1A1,1,0,0,1,84.91,137.14Z"/><path class="cls-1" d="M96.91,137.14a1,1,0,1,1-1-1A1,1,0,0,1,96.91,137.14Z"/><path class="cls-1" d="M124.81,133.14a3.12,3.12,0,0,0-2.21.92l-.89.89a29.83,29.83,0,0,0-8.78,21.21,8,8,0,0,1-7,7.93v-1.52a14.29,14.29,0,0,0-4.16-10.11l1-.65a7.17,7.17,0,0,0,2.71-3.38,28,28,0,0,1,4,1.62l.89-1.79a28.58,28.58,0,0,0-4.49-1.79,6,6,0,0,0,0-.61,7.23,7.23,0,0,0-1.43-4.29l-.53-.7a25.44,25.44,0,0,1,6-.72v-2a27.46,27.46,0,0,0-6,.68v-.68a13.45,13.45,0,0,0-.22-2.39,22.58,22.58,0,0,0,5.22-14.44V120l-2.77.35A23.66,23.66,0,0,0,94.75,125a13.9,13.9,0,0,0-9.68,0,23.66,23.66,0,0,0-11.4-4.66L70.9,120v1.32a22.58,22.58,0,0,0,5.22,14.44,13.45,13.45,0,0,0-.22,2.39v.68a27.53,27.53,0,0,0-6-.68v2a25.44,25.44,0,0,1,6,.72l-.53.7a7.23,7.23,0,0,0-1.43,4.29c0,.21,0,.41,0,.61a28.86,28.86,0,0,0-4.48,1.79l.89,1.79a28,28,0,0,1,4-1.62,7.17,7.17,0,0,0,2.71,3.38l1,.65a14.29,14.29,0,0,0-4.16,10.11v9.36a2.63,2.63,0,0,1-1.45,2.35,4.57,4.57,0,0,0-2.55,4.13v.76a2,2,0,0,0,2,2h11a3,3,0,0,0,3-3v-1h8v1a3,3,0,0,0,3,3h11a2,2,0,0,0,2-2v-.76a4.57,4.57,0,0,0-2.55-4.13,2.63,2.63,0,0,1-1.45-2.35v-1.81a14,14,0,0,0,13-14,23,23,0,0,1,6.78-16.38l1.31-1.31a3.1,3.1,0,0,0,.92-2.2A3.13,3.13,0,0,0,124.81,133.14Zm-4.51,6.53L122,141c-.45.59-.86,1.19-1.25,1.81l-1.71-1.28Q119.64,140.57,120.3,139.67Zm-5.09,12.49h2c-.11.66-.18,1.32-.24,2h-2C115.05,153.49,115.12,152.82,115.21,152.16Zm-11.29,10.41v1.59h-4a1,1,0,1,1,0-2h4C103.9,162.3,103.92,162.43,103.92,162.57Zm-2.29-12.42-1.28.84a17.84,17.84,0,0,1-1.94,1.13,8.84,8.84,0,0,0,.29-4.92,27.91,27.91,0,0,1,4.8.69A5.25,5.25,0,0,1,101.63,150.15ZM84.29,153.3a6.94,6.94,0,0,1,2.08-10.18l.08.33A3.56,3.56,0,0,0,88.91,146v3.15a1,1,0,0,1-2,0h-2a3,3,0,0,0,5,2.22,2.94,2.94,0,0,0,2,.79,3,3,0,0,0,3-3h-2a1,1,0,0,1-2,0V146a3.58,3.58,0,0,0,2.46-2.55l.08-.33a7,7,0,0,1,3.46,6,6.88,6.88,0,0,1-1.37,4.14,18.71,18.71,0,0,1-5.63.87A19,19,0,0,1,84.29,153.3Zm5.62-9.15A1.57,1.57,0,0,1,88.39,143l-.15-.61a6.75,6.75,0,0,1,3.34,0l-.15.61A1.57,1.57,0,0,1,89.91,144.15Zm13-1.38a5.24,5.24,0,0,1,1,3.09v.07a29.82,29.82,0,0,0-5.94-.76,9.83,9.83,0,0,0-1-1.51l.3-.17a25.09,25.09,0,0,1,4.59-2v0Zm-2.28-13.65a22,22,0,0,1,5.69-2.85,20.63,20.63,0,0,1-3.25,7.06A13.94,13.94,0,0,0,100.61,129.12Zm5.79-6.79.5-.06c0,.59-.09,1.19-.16,1.77a24.09,24.09,0,0,0-7.55,3.64A14.27,14.27,0,0,0,96.82,126,21.73,21.73,0,0,1,106.4,122.33Zm-33,0A21.73,21.73,0,0,1,83,126a14.27,14.27,0,0,0-2.37,1.71A24.09,24.09,0,0,0,73.08,124c-.08-.58-.13-1.18-.16-1.77Zm.1,3.94a22,22,0,0,1,5.69,2.85,13.94,13.94,0,0,0-2.44,4.21A20.63,20.63,0,0,1,73.52,126.27Zm4.38,11.88a12,12,0,0,1,7-10.91v5.9h2v-6.61a11.93,11.93,0,0,1,2-.34v6.95h2v-6.95a13,13,0,0,1,2,.34v6.61h2v-5.9a12,12,0,0,1,7,10.91v1.21a27.2,27.2,0,0,0-5.58,2.39l-.74.43a9,9,0,0,0-11.38,0l-.74-.43a27.2,27.2,0,0,0-5.58-2.39Zm-2,7.71a5.24,5.24,0,0,1,1-3.09l1-1.29v0a25.09,25.09,0,0,1,4.59,2l.3.17a9.83,9.83,0,0,0-1,1.51,30.57,30.57,0,0,0-5.94.76Zm.42,2a27.91,27.91,0,0,1,4.8-.69,8.84,8.84,0,0,0,.29,4.92A17.84,17.84,0,0,1,79.47,151l-1.28-.84A5.25,5.25,0,0,1,76.32,147.89Zm.4,10.27H80.9a1,1,0,0,1,0,2H76.15A11.43,11.43,0,0,1,76.72,158.16Zm7.19,13h-3a1,1,0,0,1,0-2h3c0,.09,0,.19,0,.29Zm2,4v-5.71a4.35,4.35,0,0,1,4-4.3,4,4,0,0,1,4,4v6Zm10-4h3a1,1,0,0,1,0,2h-3Zm10.56,4.9a2.58,2.58,0,0,1,1.45,2.34v.76h-11a1,1,0,0,1-1-1v-3h3a3,3,0,0,0,0-6h-3a6,6,0,0,0-6-6h0a6.4,6.4,0,0,0-5.5,4H80.9a3,3,0,0,0,0,6h3v5a1,1,0,0,1-1,1h-11v-.76a2.59,2.59,0,0,1,1.44-2.34,4.61,4.61,0,0,0,2.56-4.14v-9.36c0-.14,0-.27,0-.41h5a3,3,0,1,0,0-6H77.7a11.82,11.82,0,0,1,2.14-2.6,20.8,20.8,0,0,0,20.14,0,12.2,12.2,0,0,1,3.69,6.6H99.92a3,3,0,1,0,0,6h4v5.76A4.62,4.62,0,0,0,106.47,176.07Zm-.55-10a9.78,9.78,0,0,0,3.44-1l1.11,1.68a11.89,11.89,0,0,1-4.55,1.33Zm6.24-.39-1.11-1.67a9.34,9.34,0,0,0,1.22-1.13l1.42,1.42A12.55,12.55,0,0,1,112.16,165.72Zm2.78-3-1.45-1.45a10,10,0,0,0,1.44-5.15h2A12,12,0,0,1,114.94,162.76Zm2.71-12.61h-2.07a27.78,27.78,0,0,1,2.49-6.9l1.7,1.28A25.09,25.09,0,0,0,117.65,150.15Zm8-13.09-1.31,1.31c-.35.34-.67.69-1,1.06l-1.76-1.33c.5-.59,1-1.18,1.59-1.73l.89-.9a1.11,1.11,0,0,1,.79-.33,1.14,1.14,0,0,1,1.13,1.13A1.11,1.11,0,0,1,125.61,137.06Z"/></g></g></svg>