<svg id="Capa_1" data-name="Capa 1" xmlns="http://www.w3.org/2000/svg" viewBox="0 0 194.5 74.1"><defs><style>.cls-1{fill:#fff;}</style></defs><title>logo-blanco</title><rect class="cls-1" x="84.45" y="2.92" width="1.36" height="68.14"/><path class="cls-1" d="M103.64,34.23c.87,0,1.36-.29,1.36-1h0c0-.58-.39-1-1.46-1h-2.23v1.94Zm-.58-3.49c.87,0,1.35-.29,1.35-.87h0c0-.58-.48-.87-1.26-.87h-1.84v1.84Zm-3.59-2.52a.92.92,0,0,1,1-1h3.1a2.69,2.69,0,0,1,2.23.78,2.13,2.13,0,0,1,.58,1.45h0a1.88,1.88,0,0,1-1.16,1.84,2.2,2.2,0,0,1,1.65,2.14h0c0,1.55-1.26,2.42-3.2,2.42h-3.2a.92.92,0,0,1-1-1Z"/><path class="cls-1" d="M117.21,30.26h0a3.47,3.47,0,0,0-3.39-3.59h-.1a3.43,3.43,0,0,0-3.39,3.39v.2h0a3.47,3.47,0,0,0,3.39,3.59h.1a3.44,3.44,0,0,0,3.39-3.4c-.1-.09-.1-.09,0-.19m-9.6,0h0a6.11,6.11,0,1,1,12.22,0h0a6.11,6.11,0,0,1-12.22,0"/><path class="cls-1" d="M121,28.8h0a7.36,7.36,0,0,1,7.27-7.46h.19a8.13,8.13,0,0,1,5,1.36,1.67,1.67,0,0,1,.68,1.26,1.53,1.53,0,0,1-1.56,1.55h0a1.65,1.65,0,0,1-1-.29,5.23,5.23,0,0,0-3.2-1,4.3,4.3,0,0,0-4.07,4.46h0a4.26,4.26,0,0,0,4.07,4.55h.29a5.45,5.45,0,0,0,3-.87v-2h-2.13a1.46,1.46,0,0,1-1.45-1.26h0a1.32,1.32,0,0,1,1.35-1.36H133a1.53,1.53,0,0,1,1.55,1.55h0v3.49a2.08,2.08,0,0,1-1.07,2,9.48,9.48,0,0,1-5,1.46,7.18,7.18,0,0,1-7.56-6.79,1.83,1.83,0,0,0,.1-.68"/><path class="cls-1" d="M150.36,27.16h0a5.39,5.39,0,0,0-5.14-5.53H145a5.36,5.36,0,0,0-5.33,5.24v.29h0a5.38,5.38,0,0,0,5.13,5.52h.2a5.29,5.29,0,0,0,5.33-5.23v-.29m-14.73,0h0a9.35,9.35,0,1,1,18.7-.1v.1a9.35,9.35,0,1,1-18.7,0"/><path class="cls-1" d="M159,19.11h-4.46a2.24,2.24,0,0,1-2-2.32,2.28,2.28,0,0,1,2-2H168.1a2.16,2.16,0,0,1,2.32,2,2.11,2.11,0,0,1-2,2.32h-4.75V33.75a2.33,2.33,0,0,1-4.65,0Z"/><path class="cls-1" d="M178.18,8.16a1.68,1.68,0,0,1,.39-1l1.94-3.1a2.16,2.16,0,0,1,2-1.17c1.36,0,3,.78,3,1.65a1.67,1.67,0,0,1-.68,1.26l-2.23,2A4,4,0,0,1,179.54,9c-.88,0-1.46-.29-1.36-.87m4.75,17.35-3.3-8.14-3.49,8.24Zm-15.32,6.88,8.63-19.58a3.25,3.25,0,0,1,3.2-2.13h.29a3.6,3.6,0,0,1,3.2,2.13l8.63,19.58a2.27,2.27,0,0,1,.29,1.07,2.52,2.52,0,0,1-2.52,2.61h0a2.83,2.83,0,0,1-2.62-1.84l-1.65-3.87H174.2l-1.74,4.07a2.67,2.67,0,0,1-2.52,1.64,2.5,2.5,0,0,1-2.52-2.52v-.09a2.66,2.66,0,0,1,.29-1.17"/><path class="cls-1" d="M99.47,41.5a2,2,0,0,1,2-2H102a2.05,2.05,0,0,1,1.84,1.06l4.85,7.95,4.94-7.95a2.08,2.08,0,0,1,1.84-1.06H116a2,2,0,0,1,2,2h0V56.14a2,2,0,0,1-4.07,0h0V46.93l-3.49,5.43a2,2,0,0,1-2.61.68,2.32,2.32,0,0,1-.68-.68l-3.49-5.43V56A1.94,1.94,0,0,1,101.7,58h-.1A1.94,1.94,0,0,1,99.67,56Z"/><path class="cls-1" d="M122.25,56V41.6a2,2,0,0,1,2-2h10.17a1.84,1.84,0,0,1,1.84,1.85,1.76,1.76,0,0,1-1.84,1.74h-8.14v3.68h7a1.84,1.84,0,0,1,1.84,1.85,1.76,1.76,0,0,1-1.84,1.74h-7V54.3h8.34a1.83,1.83,0,0,1,1.84,1.84,1.76,1.76,0,0,1-1.84,1.74H124.38A1.88,1.88,0,0,1,122.25,56h0"/><path class="cls-1" d="M139.12,56.62a2,2,0,0,1-.78-1.55,2,2,0,0,1,3.2-1.55,3.73,3.73,0,0,0,2.42.87c1.55,0,2.52-.87,2.52-3v-10a2,2,0,1,1,4.07,0V51.58a6.62,6.62,0,0,1-1.74,5A6.33,6.33,0,0,1,144,58.17a8.45,8.45,0,0,1-4.84-1.55"/><path class="cls-1" d="M169.07,48.77h0a5.7,5.7,0,0,0-5.33-5.91h-.2A5.5,5.5,0,0,0,158,48.29v.39a5.55,5.55,0,0,0,5.33,5.81h.19a5.5,5.5,0,0,0,5.53-5.43v-.29m-15.32,0h0a9.75,9.75,0,0,1,19.49-.09v.09a9.77,9.77,0,0,1-10.18,9.4,10,10,0,0,1-9.31-9.4"/><path class="cls-1" d="M185.06,48.48c1.94,0,3.1-1.06,3.1-2.62v-.09c0-1.75-1.26-2.62-3.2-2.62h-4v5.33Zm-8.14-6.88a2,2,0,0,1,2-2h6.4a7.66,7.66,0,0,1,5.33,1.85,5.56,5.56,0,0,1,1.55,4.16v.1a5.63,5.63,0,0,1-3.68,5.62l2.81,3.4a2.25,2.25,0,0,1,.68,1.55,1.87,1.87,0,0,1-1.94,1.84h0a2.52,2.52,0,0,1-2-1.07l-4-4.94h-3.2v4a2,2,0,1,1-4.07,0Z"/><path class="cls-1" d="M103.25,66.22A1.5,1.5,0,0,0,104.9,65v-.19h0c0-1-.68-1.46-1.75-1.46h-1.64v2.91Zm-3.78-3.78a1.08,1.08,0,0,1,1.07-1.07h2.81c2.23,0,3.68,1.36,3.68,3.3h0c0,2.23-1.74,3.39-3.88,3.39h-1.64V70a1.07,1.07,0,0,1-2.14.19V70Z"/><path class="cls-1" d="M113.24,66.9l-1.36-3.2-1.36,3.2Zm-5.92,2.62,3.3-7.57a1.38,1.38,0,0,1,1.26-.87h.1a1.26,1.26,0,0,1,1.26.87l3.29,7.57a.55.55,0,0,1,.1.38.92.92,0,0,1-1,1,.94.94,0,0,1-1-.77L114,68.55h-4.17l-.68,1.55a1.18,1.18,0,0,1-1,.68.91.91,0,0,1-1-1,.45.45,0,0,0,.09-.29"/><path class="cls-1" d="M122.64,66c1.06,0,1.65-.59,1.65-1.36h0c0-.87-.68-1.36-1.65-1.36h-2.13V66Zm-4.27-3.59a1.08,1.08,0,0,1,1.07-1.07h3.29a3.76,3.76,0,0,1,2.82,1,3.08,3.08,0,0,1,.87,2.23h0a2.84,2.84,0,0,1-1.94,2.91l1.45,1.74a2,2,0,0,1,.39.78.92.92,0,0,1-1,1,1.32,1.32,0,0,1-1.06-.58l-2-2.62h-1.74V69.9a1.07,1.07,0,0,1-2.14.2V62.44Z"/><path class="cls-1" d="M133.59,66.9l-1.36-3.2-1.35,3.2Zm-5.91,2.62L131,62a1.39,1.39,0,0,1,1.26-.87h.1a1.25,1.25,0,0,1,1.26.87l3.3,7.57a.6.6,0,0,1,.09.38.91.91,0,0,1-1,1,1,1,0,0,1-1-.77l-.67-1.55H130.2l-.68,1.55a1.18,1.18,0,0,1-1,.68.92.92,0,0,1-1-1,.43.43,0,0,0,.1-.29"/><path class="cls-1" d="M145,63.31h-2a1,1,0,0,1,0-1.94h6.11a1,1,0,0,1,0,1.94h-2V70a1.07,1.07,0,0,1-2.13,0Z"/><path class="cls-1" d="M158.79,66.22h0a2.84,2.84,0,0,0-2.81-3h-.1a2.85,2.85,0,0,0-2.9,2.9v.1h0a2.84,2.84,0,0,0,2.81,3h.09a3.05,3.05,0,0,0,2.91-3h0m-7.95,0h0a5.1,5.1,0,0,1,10.18,0h0a5.1,5.1,0,0,1-10.18,0"/><path class="cls-1" d="M166.55,69a2.79,2.79,0,0,0,2.91-2.52v-.29h0a2.73,2.73,0,0,0-2.53-2.91h-2V69Zm-3.69-6.59a1.08,1.08,0,0,1,1.07-1.07h2.71a4.71,4.71,0,0,1,5,4.46v.29h0a4.75,4.75,0,0,1-4.75,4.75h-3a1.08,1.08,0,0,1-1.07-1.06h0Z"/><path class="cls-1" d="M181.09,66.22h0a2.85,2.85,0,0,0-2.81-3h-.1a2.85,2.85,0,0,0-2.91,2.9v.1h0a2.84,2.84,0,0,0,2.81,3h.1a3,3,0,0,0,2.91-3h0m-8,0h0a5.1,5.1,0,0,1,10.18,0h0a5.1,5.1,0,0,1-10.18,0"/><path class="cls-1" d="M184.87,69.9a.87.87,0,0,1-.39-.77.92.92,0,0,1,1-1,1.47,1.47,0,0,1,.58.19,3.73,3.73,0,0,0,2.42.87c.88,0,1.36-.29,1.36-.87h0c0-.58-.29-.77-1.94-1.26-1.94-.48-3.2-1.06-3.2-2.91h0c0-1.74,1.36-2.9,3.4-2.9a5.45,5.45,0,0,1,3,.87,1.07,1.07,0,0,1,.39,1.36,1,1,0,0,1-.87.48,1.51,1.51,0,0,1-.59-.19,4.61,4.61,0,0,0-2-.68c-.78,0-1.26.39-1.26.87h0c0,.68.39.87,2,1.26,1.94.49,3,1.16,3,2.91h0c0,1.94-1.45,3-3.49,3a6.81,6.81,0,0,1-3.39-1.26"/><path class="cls-1" d="M8.07,61.57H6.81l-.49-1.36H4l-.48,1.36H2.25l2.23-5.82H5.74ZM5.93,59.34l-.77-2.23-.78,2.13Z"/><polygon class="cls-1" points="8.45 61.57 8.45 55.85 9.62 55.85 9.62 60.6 12.53 60.6 12.53 61.57 8.45 61.57"/><path class="cls-1" d="M16.4,59.43l1.17.39a2.32,2.32,0,0,1-.88,1.46,2.92,2.92,0,0,1-1.55.48A2.74,2.74,0,0,1,13.2,61a3.44,3.44,0,0,1-.77-2.14,2.78,2.78,0,0,1,.77-2.23,2.74,2.74,0,0,1,1.94-.77,2.33,2.33,0,0,1,1.75.68,2.36,2.36,0,0,1,.58,1.06l-1.17.29c-.09-.29-.19-.58-.38-.67a1.1,1.1,0,0,0-.78-.3,1.55,1.55,0,0,0-1.06.49,3.28,3.28,0,0,0,0,3.1,1.55,1.55,0,0,0,1.06.49,1.1,1.1,0,0,0,.78-.3c.19-.58.38-.87.48-1.26"/><path class="cls-1" d="M23.38,61.57H22.12l-.48-1.26H19.31l-.48,1.35H17.57l2.22-5.81h1.26Zm-2.13-2.23-.78-2.13-.77,2.13Z"/><polygon class="cls-1" points="23.86 61.57 23.86 55.85 25.03 55.85 25.03 60.6 27.94 60.6 27.94 61.57 23.86 61.57"/><path class="cls-1" d="M28.42,55.75h2.13a4.63,4.63,0,0,1,1.17.1,1.75,1.75,0,0,1,.87.58,2,2,0,0,1,.58,1,6.28,6.28,0,0,1,.19,1.36A5.57,5.57,0,0,1,33.17,60a2.36,2.36,0,0,1-.58,1.06,2.08,2.08,0,0,1-.78.49,3.85,3.85,0,0,1-1.06.09H28.42Zm1.16,1V60.6h.88a1.63,1.63,0,0,0,.68-.1.54.54,0,0,0,.48-.29.85.85,0,0,0,.29-.58,3.88,3.88,0,0,0,.1-1.07,3.78,3.78,0,0,0-.1-1.06l-.29-.59L31,56.62c-.29,0-.68-.09-1-.09Z"/><path class="cls-1" d="M34.14,55.27l.58-1.17H36l-1.16,1.17Zm-.29.58H35v5.81H33.85Z"/><path class="cls-1" d="M41.41,61.57H40.05l-.48-1.36H37.24l-.48,1.36H35.59l2.23-5.82h1.26Zm-2.23-2.23-.77-2.13-.78,2.13Z"/><polygon class="cls-1" points="44.12 61.57 44.12 55.75 45.87 55.75 46.94 59.73 48 55.75 49.75 55.75 49.75 61.57 48.68 61.57 48.58 57.01 47.52 61.57 46.35 61.57 45.19 57.01 45.19 61.57 44.12 61.57"/><path class="cls-1" d="M56.05,61.57H54.79l-.49-1.36H52l-.49,1.36H50.23l2.23-5.82h1.26Zm-2.23-2.23L53,57.21l-.77,2.13Z"/><polygon class="cls-1" points="56.73 61.57 56.73 59.14 54.59 55.75 55.95 55.75 57.31 58.08 58.66 55.75 60.02 55.75 57.89 59.14 57.89 61.57 56.73 61.57"/><path class="cls-1" d="M59.54,58.76a4.21,4.21,0,0,1,.29-1.55,1.43,1.43,0,0,1,.58-.78,2,2,0,0,1,.77-.48,2.8,2.8,0,0,1,1.26-.2,2.94,2.94,0,0,1,2,.78,3.78,3.78,0,0,1,0,4.46,2.37,2.37,0,0,1-2,.77,3,3,0,0,1-2-.77,2.65,2.65,0,0,1-.87-2.23m1.16,0a1.93,1.93,0,0,0,.48,1.45,1.65,1.65,0,0,0,2.33,0A2.69,2.69,0,0,0,64,58.66a2.26,2.26,0,0,0-.48-1.55,1.63,1.63,0,0,0-2.33,0,2.56,2.56,0,0,0-.48,1.65"/><path class="cls-1" d="M65.55,61.57V55.75h2.52a3.17,3.17,0,0,1,1.35.2,1.27,1.27,0,0,1,.68.58,1.59,1.59,0,0,1,.29,1A1.42,1.42,0,0,1,70,58.56a2.13,2.13,0,0,1-1.16.58,1.33,1.33,0,0,1,.58.49,3.38,3.38,0,0,1,.68,1l.68,1.16H69.33l-.88-1.26-.58-.87a1.16,1.16,0,0,0-.39-.29c-.19,0-.38-.1-.58-.1h-.29v2.42Zm1.16-3.3h.87a3.88,3.88,0,0,0,1.07-.1.31.31,0,0,0,.29-.29.55.55,0,0,0,.1-.38c0-.39-.2-.68-.59-.68H66.71Z"/><rect class="cls-1" x="59.05" y="69.9" width="1.07" height="1.07"/><path class="cls-1" d="M6.42,65.25H8.55a3.54,3.54,0,0,1,1.07.1,3.77,3.77,0,0,1,.87.48,2,2,0,0,1,.58,1,5.58,5.58,0,0,1,.19,1.36,5.49,5.49,0,0,1-.19,1.26,2,2,0,0,1-.58,1,2.06,2.06,0,0,1-.78.48,3.47,3.47,0,0,1-1.06.1H6.42Zm1.16,1V70h.87a1.59,1.59,0,0,0,.68-.1c.2,0,.29-.09.49-.19s.29-.39.29-.58A4.3,4.3,0,0,0,10,68.06a3.55,3.55,0,0,0-.09-1l-.29-.58A3.46,3.46,0,0,0,9,66.22c-.3,0-.68-.1-1-.1Z"/><polygon class="cls-1" points="11.55 70.97 11.55 65.25 15.82 65.25 15.82 66.22 12.72 66.22 12.72 67.48 15.63 67.48 15.63 68.45 12.72 68.45 12.72 70 15.92 70 15.92 70.97 11.55 70.97"/><path class="cls-1" d="M18.73,65.25h2.32a3.17,3.17,0,0,1,1,.1,1.36,1.36,0,0,1,.59.19c.19.1.29.29.48.49a1.3,1.3,0,0,1-.48,1.84c-.1,0-.1.09-.2.09a2.3,2.3,0,0,1,.78.49,1.59,1.59,0,0,1,.29.87,2.25,2.25,0,0,1-.2.78,1.43,1.43,0,0,1-.48.58A1.12,1.12,0,0,1,22,71H18.73Zm1.16,1v1.36h1.65c.19,0,.29-.1.48-.2a.71.71,0,0,0,.2-.48c0-.2,0-.29-.1-.39a.73.73,0,0,0-.48-.19h-1Zm0,2.33V70.1h1.84a.5.5,0,0,0,.39-.2.7.7,0,0,0,.19-.48.73.73,0,0,0-.48-.68,3.54,3.54,0,0,0-1.07-.1Z"/><path class="cls-1" d="M24,68.16a4,4,0,0,1,.29-1.46,2,2,0,0,1,.49-.77,2.16,2.16,0,0,1,.77-.49,2.72,2.72,0,0,1,1.26-.19,3.1,3.1,0,0,1,2,.78,3.63,3.63,0,0,1,0,4.36,2.58,2.58,0,0,1-2,.77,3.14,3.14,0,0,1-2-.77A2.93,2.93,0,0,1,24,68.16m1.17,0a2,2,0,0,0,.48,1.45,1.52,1.52,0,0,0,2.13.1l.1-.1a2.62,2.62,0,0,0,.48-1.45,2.54,2.54,0,0,0-.38-1.46,1.65,1.65,0,0,0-2.33,0,1.68,1.68,0,0,0-.48,1.46"/><path class="cls-1" d="M32.78,68.93V68H35.3v2.23a2.38,2.38,0,0,1-1.06.59,3.54,3.54,0,0,1-1.36.29,2.84,2.84,0,0,1-1.55-.39,2.51,2.51,0,0,1-1-1.07A4.12,4.12,0,0,1,30,68.06a2.87,2.87,0,0,1,.39-1.55,2.31,2.31,0,0,1,1.07-1.07,3.11,3.11,0,0,1,1.35-.29,2.53,2.53,0,0,1,1.65.49,2,2,0,0,1,.68,1.26L34,67.09a1.17,1.17,0,0,0-.49-.68,1.54,1.54,0,0,0-2,.2,2.39,2.39,0,0,0-.49,1.45,2.27,2.27,0,0,0,.49,1.55,1.4,1.4,0,0,0,1.16.49,2.2,2.2,0,0,0,.77-.2l.59-.29v-.68Z"/><path class="cls-1" d="M35.79,68.16a3.8,3.8,0,0,1,.29-1.46,2.15,2.15,0,0,1,.48-.77,2.3,2.3,0,0,1,.78-.49,2.7,2.7,0,0,1,1.26-.19,3.1,3.1,0,0,1,2,.78,3.63,3.63,0,0,1,0,4.36,2.56,2.56,0,0,1-2,.77,3.15,3.15,0,0,1-2-.77,3.93,3.93,0,0,1-.77-2.23m1.16,0a2,2,0,0,0,.49,1.45,1.59,1.59,0,0,0,1.16.49,1.78,1.78,0,0,0,1.16-.49,2.63,2.63,0,0,0,.49-1.45,2.54,2.54,0,0,0-.39-1.46,1.49,1.49,0,0,0-2.23,0h0A1.86,1.86,0,0,0,37,68.16"/><polygon class="cls-1" points="43.06 70.97 43.06 66.22 41.41 66.22 41.41 65.25 45.87 65.25 45.87 66.22 44.22 66.22 44.22 70.97 43.06 70.97"/><path class="cls-1" d="M51.1,71H49.84l-.48-1.26H47L46.55,71H45.29l2.23-5.72h1.26ZM49,68.74l-.77-2.13-.78,2.13Zm-1.16-4,.48-1.17h1.26l-1.06,1.17Z"/><path class="cls-1" d="M54.3,65.25h2.13a3.54,3.54,0,0,1,1.07.1,3.77,3.77,0,0,1,.87.48,3.13,3.13,0,0,1,.58,1,6.38,6.38,0,0,1,.2,1.36,5.51,5.51,0,0,1-.2,1.26,2,2,0,0,1-.58,1,2,2,0,0,1-.77.48,3.54,3.54,0,0,1-1.07.1H54.4V65.25Zm1.07,1V70h.87a1.63,1.63,0,0,0,.68-.1,1,1,0,0,0,.48-.19c.1-.19.29-.39.29-.58a3.88,3.88,0,0,0,.1-1.07,3.2,3.2,0,0,0-.1-1l-.29-.58c-.19-.1-.29-.19-.48-.29s-.68-.1-1-.1Z"/><path class="cls-1" d="M64.09,68.93l1.16.39a1.85,1.85,0,0,1-.87,1.36A2.76,2.76,0,0,1,61,70.39a3.42,3.42,0,0,1-.78-2.13A2.9,2.9,0,0,1,61,66a2.33,2.33,0,0,1,1.94-.78,2.87,2.87,0,0,1,1.74.58,2.25,2.25,0,0,1,.58,1.07l-1.16.29a1.15,1.15,0,0,0-1.16-1,1.56,1.56,0,0,0-1.07.48,2,2,0,0,0-.39,1.46,2.25,2.25,0,0,0,.39,1.55,1.2,1.2,0,0,0,1,.48,1.1,1.1,0,0,0,.78-.29,1.78,1.78,0,0,0,.48-1"/><rect class="cls-1" x="65.45" y="69.9" width="1.07" height="1.07"/><path class="cls-1" d="M28.62,33.94c.58-.19,1.45-.68,1-1.45,0,0-1,1.06-1.74,1a2.09,2.09,0,0,0,1-2.81,2.27,2.27,0,0,0-3.1-.39,2.24,2.24,0,0,0-1.07,2.91,2.13,2.13,0,0,0,2.91.38,4,4,0,0,1-1.75,1.07s.68,1.26,2-.39c2.52,1.75,1.94,4,2.13,5l1.17.09c-.1-.77-.1-3.68-2.52-5.33m-1-.58c-.49.29-1.17.1-1.85-.78s-.58-1.93-.09-2.13,1.35.2,1.94,1.07.48,1.55,0,1.84"/><path class="cls-1" d="M25.22,30.36c.1.19.68-.2.58-.39s0-1,.49-1v-.2s-.78,0-1,.49c0,0-.58-.68-.78-.58s.2,1,.2,1c-.49-.1-.78.58-.78.58l.1.1a.76.76,0,0,1,1.07-.1c0,.1,0,.1.09.1"/><path class="cls-1" d="M47.13,30.26a2.3,2.3,0,0,0-3.2.39,2.09,2.09,0,0,0,1,2.81c-.78.09-1.75-1-1.75-1-.48.77.39,1.26,1,1.45-2.42,1.65-2.42,4.56-2.61,5.33l1.16-.09c.19-1-.29-3.2,2.13-5,1.46,1.65,2,.39,2,.39a3.27,3.27,0,0,1-1.75-1.07,1.93,1.93,0,1,0,2.43-3,1.46,1.46,0,0,0-.39-.29m-.2,2.32c-.58.88-1.35,1.07-1.84.78s-.58-1,0-1.84,1.46-1.36,1.94-1.07.49,1.26-.1,2.13"/><path class="cls-1" d="M31.52,35.69a2.93,2.93,0,0,0-.58,1.74,2,2,0,0,0,1.55-.77,2.26,2.26,0,0,0,.58-1.75,3,3,0,0,0-1.55.78"/><path class="cls-1" d="M48,29.68s.29-.88.2-1-.78.58-.78.58c-.19-.49-1-.49-1-.49V29c.48.1.68.77.48,1s.49.48.68.39a.76.76,0,0,1,1.07-.1l.1.1.09-.1c-.09-.1-.29-.78-.87-.58"/><path class="cls-1" d="M41.22,35.69A2.28,2.28,0,0,0,39.67,35a2.34,2.34,0,0,0,2.13,2.52,3,3,0,0,0-.58-1.84"/><path class="cls-1" d="M35.11,15.82a.46.46,0,0,1,.48-.49h.1a.47.47,0,0,1,.49.49h0a.46.46,0,0,1-.49.48h0a.54.54,0,0,1-.58-.48h0m2.42-1.46,1.07-1.65L37,13.3l-.58-1.46-.58,1.46-1.65-.59,1.16,1.65ZM38.11,29c-.87-.68.1-1,.3-.78a3.51,3.51,0,0,0,4.07.58,4.14,4.14,0,0,1-2.23-2.22,4.82,4.82,0,0,0,5.52-.3c-2,.39-3.68-1.64-3.68-1.64a6.18,6.18,0,0,0,5.43-1.46c-1.17.1-4.17-1.16-4.17-1.16,4.75-.19,5.14-3.49,5.23-3.49-1.26.87-4.75.48-4.75.48,5-1.74,4.56-5.81,4.56-5.81-1.07,1.55-5.82,3.1-5.82,3.1a3.2,3.2,0,0,0-2.32,2.91,1.16,1.16,0,0,1-1.17,1c-1.26,0-1.26-1.84-1.26-2.72,0-1.26,0-2.81-1-2.81H34.92c-.3,0-1,0-1.17.29-.48.59-.39,2-.19,1.75a2.28,2.28,0,0,1,1.16,0c.58.19.2,2,.2,2.42a1.18,1.18,0,0,1-1.17,1.07,1.15,1.15,0,0,1-1.16-1,3.21,3.21,0,0,0-2.33-2.91s-4.84-1.45-5.91-3.1c0,0-.39,4.07,4.65,5.91,0,0-3.49.29-4.84-.58,0,0,.67,3.49,5.42,3.68,0,0-3.1,1.07-4.26.88a6,6,0,0,0,5.52,1.84A4.74,4.74,0,0,1,27,26.19a5,5,0,0,0,5.52.39,4.36,4.36,0,0,1-2.23,2.13,3.39,3.39,0,0,0,4.07-.58c.29-.29,1.17.09.29.77-1.16.87-2.9,1.16-3.58,2.62l.87.19c-1,1-2.33,2.43-2.42,2.43s-.29-.49-1.26.09c-.49.29-.78.88-.39,1.17,0,0-.19.77.78.77a.77.77,0,0,0,1.16.2c.77-.49,0-.39-.2-.59s0-.09,0-.09c.39-.1.88-.49.49-.78a32.05,32.05,0,0,1,3-1.94l.2.78a3.38,3.38,0,0,1,1.84-1.17,5,5,0,0,0-1,4s.19-.68,1.26-.78c0,0-1.45,1.75.87,5.14,2.33-3.39,1-5.14,1-5.14a1.29,1.29,0,0,1,1.26.78,4.8,4.8,0,0,0-1.06-4.07,3.05,3.05,0,0,1,1.84,1.26l.19-.87a31.22,31.22,0,0,1,2.91,1.93c-.29.39.19.78.48.78,0,0,.1-.1.1.1s-.87,0-.19.58a.68.68,0,0,0,1.06-.1.1.1,0,0,1,.1-.1c1,.1.78-.77.78-.77.38-.29.09-.87-.49-1.16-1-.49-1.26-.1-1.26-.1l-2.42-2.42.87-.2c-.48-1.26-2.23-1.55-3.3-2.42"/><path class="cls-1" d="M31.62,9.42c1-.1,1.84-.49,1.84-1s-.87-1-1.84-1-1.45.48-1.45,1S30.65,9.52,31.62,9.42Z"/><path class="cls-1" d="M34.33,44.9c-1.06-.1-1.93.19-2,.58s.58,1.06,1.55,1.26,1.65-.2,1.74-.68S35.4,45,34.33,44.9Z"/><path class="cls-1" d="M41.12,7.48c-1.07,0-1.94.48-1.84,1s.87,1,1.84,1,1.54-.58,1.55-1v0C42.66,8.06,42.18,7.48,41.12,7.48Z"/><path class="cls-1" d="M20.86,26.28a1.56,1.56,0,0,0-1.16-1.64c-.49,0-.87.87-.78,1.84.1.77.58,1.36,1.07,1.36S20.86,27.25,20.86,26.28Z"/><path class="cls-1" d="M18.63,11.45c-.1,1,.39,1.56.87,1.56s1-.49,1.07-1.46-.29-1.84-.78-1.84S18.73,10.48,18.63,11.45Z"/><path class="cls-1" d="M21.64,40c-.59-.77-1.46-1.16-1.85-1s-.38,1.07.2,1.94,1.26,1.07,1.65.78S22.22,40.73,21.64,40Z"/><path class="cls-1" d="M36.37,2.92a22.36,22.36,0,0,1-20.45,0V39.66a8,8,0,0,0,8.24,8c4.46,0,8.43.68,12.21,3.1,3.78-2.42,7.66-3.1,12.12-3.1a8.15,8.15,0,0,0,8.33-8V2.92A22.36,22.36,0,0,1,36.37,2.92ZM52.75,8.74s.29-.87.39-.87.39.77.39.77c.29-.38,1,0,1,0l-.1.2h-.2c-.38,0-.67.19-.67.58,0,.1-.68.19-.68,0a.71.71,0,0,0-1-.39l-.1-.1S52.36,8.45,52.75,8.74Zm.49,1h0a2.11,2.11,0,0,1,2.52,1.55,2,2,0,0,1-1.94,1.84A3,3,0,0,0,55.66,13s.1,1.16-1.65.77c0,.87-.58,1.55-.77,2.52a1.11,1.11,0,0,1,.48-.48,2.77,2.77,0,0,1,1.74-.29,1.89,1.89,0,0,1-.87,1.26,2.53,2.53,0,0,1-1.45.38,4.2,4.2,0,0,0,.48,1.55l-.87.68a5.16,5.16,0,0,1,.1-4,2.81,2.81,0,0,0,.48-1.55c-.58.19-1.65.48-1.84-.49a3,3,0,0,0,1.84-.19,2.3,2.3,0,0,1-2.23-1.65A2,2,0,0,1,53.24,9.71ZM52.07,23.47v-.19s.68-.29,1,0c0,0,.2-.78.39-.78s.29.78.29.78a.91.91,0,0,1,1,.1l-.1.19H54.5a.85.85,0,0,0-.88.58c0,.2-.68.1-.77-.09v-.2A.68.68,0,0,0,52.07,23.47ZM38.31,8.16c-.29-.29.1-.87.1-.87h.19c-.29.48.29.87.48.87a.11.11,0,0,1,.09.07.17.17,0,0,0,0-.07A2,2,0,0,1,41,6a1.87,1.87,0,0,1,1.75,2,3,3,0,0,0,0-1.84s1.26,0,.77,1.65a11,11,0,0,1,2.52,1,2.39,2.39,0,0,1-.39-.49,2,2,0,0,1-.19-1.65,1.85,1.85,0,0,1,1.26,1,2.57,2.57,0,0,1,.19,1.46,4.57,4.57,0,0,0,1.65-.29l.68.87A5.26,5.26,0,0,1,45,9a4.4,4.4,0,0,0-1.55-.58c.09.58.29,1.74-.68,1.74a3,3,0,0,0-.1-1.84v.09h0a2,2,0,0,1-1.84,1.93h-.1a1.89,1.89,0,0,1-1.57-1.72s0,.07-.08.07H39a.7.7,0,0,0-.49.87h-.19s-.39-.48-.1-.87c0,0-.77-.19-.77-.29S38.31,8.16,38.31,8.16ZM34,8.16c.2,0,.78-.39.49-.87h.19s.39.48.1.87c0,0,.87.19.87.29s-.77.29-.77.29c.29.29-.1.87-.1.87h-.2V9.52A.75.75,0,0,0,34,8.74C33.75,8.74,33.85,8.16,34,8.16Zm-9.88.77a4.73,4.73,0,0,0,1.64.29,1.94,1.94,0,0,1,.29-1.45,1.74,1.74,0,0,1,1.27-.87,2.19,2.19,0,0,1-.2,1.74,1.68,1.68,0,0,1-.39.49c1-.29,1.55-1,2.52-1-.38-1.65.78-1.65.78-1.65a3,3,0,0,0,0,1.84,1.93,1.93,0,0,1,1.74-2,2,2,0,0,1,1.85,2.13v.1a2,2,0,0,1-1.75,2.13A2.12,2.12,0,0,1,30,8.55a3,3,0,0,0-.09,1.84c-1,0-.78-1.17-.68-1.75a4.33,4.33,0,0,0-1.55.58,5.44,5.44,0,0,1-4.08.49Zm-5.53-.38s.68-.29,1,0c0,0,.19-.78.39-.78s.29.78.29.78c.48-.29,1,.19,1,.19l-.1.1h-.1a.85.85,0,0,0-.87.58c-.09.19-.68.19-.68,0-.09-.39-.48-.87-.87-.68ZM17.37,13.1a3.83,3.83,0,0,0,1.84.1,2,2,0,0,1-1.84-1.94,2.14,2.14,0,0,1,2.42-1.55,2,2,0,0,1,2.14,1.84A2.1,2.1,0,0,1,19.7,13.2a3,3,0,0,0,1.84.19c-.1,1-1.26.68-1.84.49-.1.39,0,.68.48,1.74a5.18,5.18,0,0,1,.1,4l-.87-.68a4.16,4.16,0,0,0,.38-1.55A2.53,2.53,0,0,1,18.34,17a1.9,1.9,0,0,1-.87-1.26,2.66,2.66,0,0,1,1.74.29,1,1,0,0,1,.49.39c-.2-1-.78-1.65-.68-2.52C17.27,14.27,17.37,13.1,17.37,13.1Zm.87,10.57v-.2s.59-.38,1-.09c0,0,.2-.78.29-.78s.39.78.39.78c.39-.39,1,0,1,0v.19a.35.35,0,0,1-.29-.1c-.39,0-.68.2-.68.59,0,.19-.68.29-.68.09v-.09A.7.7,0,0,0,18.24,23.67ZM17,29.19a2.22,2.22,0,0,1,1.55.58,1.43,1.43,0,0,1,.59.88c.09-.2.09-.29.19-.49a2.81,2.81,0,0,0,.48-1.55c-.58.19-1.64.49-1.84-.48a3.18,3.18,0,0,0,1.94-.29,2.15,2.15,0,0,1-2.33-1.56,2.12,2.12,0,0,1,2.14-1.93A2.26,2.26,0,0,1,22.22,26a2,2,0,0,1-2,1.85,3.34,3.34,0,0,0,1.94-.1s.1,1.16-1.65.77c.2,1.55-1.55,2.43-.38,4.95l-.88.68a5.31,5.31,0,0,1-.29-3,2.13,2.13,0,0,1-1.45-.58A1.44,1.44,0,0,1,17,29.19Zm1.17,9.7-.1-.1s.29-.68.78-.58c0,0-.39-.78-.2-.88s.78.49.78.49c.19-.49.87-.49.87-.49l.1.2c-.1.1-.1.1-.2.1a.64.64,0,0,0-.29.87c.1.09-.48.48-.48.39s-.1-.1-.29-.1A.64.64,0,0,0,18.15,38.89ZM25,46.16a4.69,4.69,0,0,0-.58-1.46,1.92,1.92,0,0,1-1.36.58,2.19,2.19,0,0,1-1.55-.58A2.28,2.28,0,0,1,23.09,44a1.63,1.63,0,0,1,.68.1c-.68-.58-1.65-.78-2.13-1.55-1.26,1.36-1.85.29-1.85.29a3.22,3.22,0,0,0,1.65-1.07,2,2,0,0,1-2.81-.29,2,2,0,0,1,1-2.61,2.12,2.12,0,0,1,2.91.29,1.9,1.9,0,0,1-.78,2.61c.78.1,1.75-.87,1.75-.87.48.87-.58,1.26-1.17,1.45.2.3.49.49,1.36,1a4.08,4.08,0,0,1,2.42,2.82Zm6.69-.59c-.29,0-.88.29-.78.78h-.19s-.2-.58.19-.87c0,0-.77-.39-.77-.49s.87-.09.87-.09c-.2-.39.29-.88.29-.88l.19.1c-.29.39.1.87.39,1S31.91,45.67,31.72,45.57Zm9.59,1.55a3.28,3.28,0,0,0-1.45-.58,2.1,2.1,0,0,1-2,1.94,2.65,2.65,0,0,1,.59-1.65,1.81,1.81,0,0,1,.58-.38c-1,.09-1.75.58-2.72.38.1,1.75-1.06,1.36-1.06,1.36a2.7,2.7,0,0,0,.38-1.74,1.87,1.87,0,0,1-2.13,1.64,2.09,2.09,0,0,1-1.36-2.52,2.06,2.06,0,0,1,2.23-1.84,2.06,2.06,0,0,1,1.36,2.33,3.11,3.11,0,0,0,.49-1.75c1,.29.58,1.26.29,1.75a3,3,0,0,0,1.64-.2,5.42,5.42,0,0,1,4.08.59Zm-4.94-4.07c-2.62-1.64-5.14-1.94-8.14-1.94H28a5.27,5.27,0,0,1-5.13-5.33l-.1-24.62c3.29,1.75,10.47.58,13.67-1.06,3.2,1.64,10.37,2.81,13.66,1.06V35.78a5.64,5.64,0,0,1-5.72,5.33A13.84,13.84,0,0,0,36.37,43.05Zm17.54-1.26a2,2,0,0,1-2.71.39,3.22,3.22,0,0,0,1.65,1s-.58,1-1.75-.29c-.58.78-1.45,1-2.13,1.55a1.61,1.61,0,0,1,.68-.1,2.65,2.65,0,0,1,1.45.78,1.94,1.94,0,0,1-1.45.58,3.44,3.44,0,0,1-1.36-.58,4.64,4.64,0,0,0-.58,1.45H46.64a5.57,5.57,0,0,1,2.62-3.1,2.87,2.87,0,0,0,1.36-1C50,42.28,49,41.89,49.46,41a3.46,3.46,0,0,0,1.64.87,2,2,0,0,1-.77-2.62A2.13,2.13,0,0,1,53.24,39,1.91,1.91,0,0,1,53.91,41.79Zm.78-3-.19.1-.1-.1a.54.54,0,0,0-.87.1c-.1.09-.59-.3-.59-.39s.1-.1.1-.2a.6.6,0,0,0-.48-.77v-.2s.68,0,.87.49c0,0,.68-.58.77-.49s-.19.88-.19.88C54.59,38.11,54.79,38.79,54.69,38.79Zm.68-8.14a2,2,0,0,1-1.46.58,5.27,5.27,0,0,1-.29,3l-.77-.68c1.26-2.52-.49-3.39-.39-4.94-1.74.39-1.55-.77-1.55-.77a2.63,2.63,0,0,0,1.94.09,2,2,0,0,1-2-1.84,2.35,2.35,0,0,1,4.56.29A2.22,2.22,0,0,1,53,27.93c.58.49,1.94.29,1.94.29-.1,1-1.26.68-1.84.49a4.19,4.19,0,0,0,.48,1.55c.1.19.1.29.2.48a1,1,0,0,1,.48-.87A1.87,1.87,0,0,1,56,29.29,1.92,1.92,0,0,1,55.37,30.65Z"/><path class="cls-1" d="M52.07,26.19c-.09,1,.39,1.35.87,1.45s1-.39,1.07-1.36-.19-1.84-.77-1.84S52.07,25.22,52.07,26.19Z"/><path class="cls-1" d="M52.36,11.65c.1,1,.68,1.45,1.17,1.36s1-.49.87-1.56-.68-1.74-1.16-1.74h0C52.75,9.81,52.27,10.68,52.36,11.65Z"/><path class="cls-1" d="M53.14,39.08c-.39-.19-1.26.19-1.84,1s-.39,1.55,0,1.74,1.06,0,1.64-.77S53.53,39.27,53.14,39.08Z"/></svg>