<svg xmlns="http://www.w3.org/2000/svg" xmlns:xlink="http://www.w3.org/1999/xlink" viewBox="0 0 202 276.55"><defs><style>.cls-1{fill:#3d5da6;}.cls-2{fill:url(#Degradado_sin_nombre_18);}.cls-3{fill:url(#Degradado_sin_nombre_18-2);}</style><linearGradient id="Degradado_sin_nombre_18" x1="112.1" y1="232.57" x2="162.69" y2="232.57" gradientUnits="userSpaceOnUse"><stop offset="0.03" stop-color="#e67d23"/><stop offset="1" stop-color="#fbb03b"/></linearGradient><linearGradient id="Degradado_sin_nombre_18-2" x1="125.98" y1="217.19" x2="182.53" y2="217.19" xlink:href="#Degradado_sin_nombre_18"/></defs><title>CarnicosQue debohacer@1x</title><g id="Capa_2" data-name="Capa 2"><g id="Capa_1-2" data-name="Capa 1"><polygon class="cls-1" points="191.9 8.9 191.9 19 191.9 106.11 191.9 266.45 10.1 266.45 10.1 106.11 10.1 19 10.1 8.9 0 8.9 0 276.55 202 276.55 202 8.9 191.9 8.9"/><path class="cls-1" d="M194.56,13H145.9a3.83,3.83,0,0,0,0,7.66h44.84v7.66H119.1V22.09A13,13,0,0,0,102.65,9.54,13,13,0,0,0,90.11,0H72.84a13,13,0,0,0-13,13H6.23A3.84,3.84,0,0,0,2.4,16.84V32.15A3.83,3.83,0,0,0,6.23,36h15v1.38a3.83,3.83,0,1,0,7.65,0V36H59.82v8.84A13,13,0,0,0,63.63,54a13,13,0,0,0-3.81,9.18V90.76a13,13,0,0,0,3.9,9.27,13,13,0,0,0-3.9,9.27v27.56a13,13,0,0,0,3.9,9.28,13,13,0,0,0-3.9,9.27V183a13,13,0,0,0,25.85,2.17,3.83,3.83,0,1,0-7.55-1.27,5.36,5.36,0,0,1-10.64-.9V155.41a5.36,5.36,0,0,1,10.64-.9,3.83,3.83,0,1,0,7.55-1.26,13,13,0,0,0-3.7-7.13,13,13,0,0,0,3.88-9.26V109.3A13,13,0,0,0,82,100a13,13,0,0,0,3.89-9.27V63.19A13,13,0,0,0,82.05,54a13,13,0,0,0,3.8-9.19V36h7.22V49.65a13,13,0,0,0,3.87,9.24,13,13,0,0,0-3.87,9.25V95.7a13,13,0,0,0,26,0V68.14a13,13,0,0,0-3.86-9.25,13,13,0,0,0,3.86-9.24V36h41v3.66a3.83,3.83,0,0,0,7.66,0V36h26.79a3.82,3.82,0,0,0,3.83-3.83V16.84A3.83,3.83,0,0,0,194.56,13Zm-83.11,9.08V49.65a5.36,5.36,0,0,1-10.72,0V22.09a5.36,5.36,0,0,1,10.72,0ZM72.84,7.66H90.11a5.36,5.36,0,1,1,0,10.71H72.84a5.36,5.36,0,1,1,0-10.71ZM78.2,63.19V90.76a5.36,5.36,0,0,1-10.72,0V63.19a5.36,5.36,0,0,1,10.72,0Zm-5.36,40.75a5.37,5.37,0,0,1,5.36,5.36v27.56a5.36,5.36,0,0,1-10.72,0V109.3A5.37,5.37,0,0,1,72.84,103.94ZM78.2,44.82a5.36,5.36,0,0,1-10.72,0V36H78.2ZM10.06,28.33V20.67H62.32A13,13,0,0,0,72.84,26H90.11a13.1,13.1,0,0,0,3-.34v2.64ZM111.45,95.7a5.36,5.36,0,0,1-10.72,0V68.14a5.36,5.36,0,0,1,10.72,0Z"/><path class="cls-1" d="M174.62,68.37a7.29,7.29,0,0,0-6.85-7.27V56.27a3.83,3.83,0,0,0-7.66,0V61.1a7.3,7.3,0,0,0-6.85,7.27V88.06a93.08,93.08,0,0,0-23.77,62.23v9.56h0c0,11.67,15.13,20.82,34.45,20.82s34.45-9.15,34.45-20.82h0v-9.57a93.1,93.1,0,0,0-23.77-62.23ZM160.91,85.71v-17H167v17Zm3,87.31c-15.79,0-26.79-6.93-26.79-13.15h0c0-6.23,11-13.15,26.79-13.15s26.8,6.93,26.8,13.15S179.73,173,163.94,173Zm26.71-26.44c-6.26-4.63-15.82-7.53-26.71-7.53s-20.44,2.9-26.71,7.53a85.4,85.4,0,0,1,21.56-53.21H169.1A85.39,85.39,0,0,1,190.65,146.58Z"/><path class="cls-1" d="M165.47,153.12h-2.8a3.83,3.83,0,1,0,0,7.65h2.8a3.83,3.83,0,1,0,0-7.65Z"/><path class="cls-1" d="M28.91,55.45V51.68a3.83,3.83,0,1,0-7.65,0v3.77A22.72,22.72,0,0,0,2.4,77.8v64.69a22.69,22.69,0,0,0,45.37,0V77.8A22.72,22.72,0,0,0,28.91,55.45ZM10.06,138.67V124.76H40.11v13.91Zm30.05-57V95.54h-30V81.63Zm-30,21.56H40.11V117.1h-30Zm15-40.41A15,15,0,0,1,39.61,74h-29A15,15,0,0,1,25.09,62.78Zm0,94.74a15,15,0,0,1-14.53-11.2H39.61A15,15,0,0,1,25.09,157.52Z"/><path class="cls-1" d="M130.59,20.67a3.83,3.83,0,0,0,0-7.66,3.83,3.83,0,0,0-2.71,6.54A3.88,3.88,0,0,0,130.59,20.67Z"/><path class="cls-1" d="M82,165.36a3.84,3.84,0,1,0,2.71,1.13A3.82,3.82,0,0,0,82,165.36Z"/><path class="cls-2" d="M154.26,249.43H120.53V215.7h25.3v-8.43H112.1v50.59h50.59V232.57h-8.43Z"/><path class="cls-3" d="M131.94,225.37l-6,6,11.42,11.41,45.13-45.13-6-6L137.4,230.82Z"/><rect class="cls-1" x="21.64" y="206.81" width="79.36" height="8.42"/><rect class="cls-1" x="21.64" y="221.24" width="79.36" height="8.42"/><rect class="cls-1" x="21.64" y="235.67" width="79.36" height="8.42"/><rect class="cls-1" x="34.87" y="250.1" width="52.9" height="8.42"/><rect class="cls-1" x="21.64" y="250.1" width="52.9" height="8.42"/></g></g></svg>