<svg xmlns="http://www.w3.org/2000/svg" viewBox="0 0 247 283"><defs><style>.cls-1{fill:#3d5da6;}</style></defs><title>CarnicosRequeriemientos 3@1x</title><g id="Capa_2" data-name="Capa 2"><g id="Capa_1-2" data-name="Capa 1"><rect class="cls-1" x="32.64" y="34.26" width="79.36" height="8.42"/><rect class="cls-1" x="32.64" y="48.69" width="79.36" height="8.42"/><rect class="cls-1" x="32.64" y="63.12" width="79.36" height="8.42"/><path class="cls-1" d="M33.37,270.2a3.58,3.58,0,1,0,0-7.16H29.68a3.58,3.58,0,1,0,0,7.16Z"/><path class="cls-1" d="M151.23,270.2a3.58,3.58,0,1,0,0-7.16h-3.68a3.58,3.58,0,1,0,0,7.16Z"/><path class="cls-1" d="M243.32,198.56h-38l-19.31-47a11,11,0,0,0-10.27-6.76H154.92v-36a10.65,10.65,0,0,0-4.15-8.39L137.1,89.84a11.36,11.36,0,0,0-6.86-2.33H37.05A10.9,10.9,0,0,0,26,98.25V234.41a7.09,7.09,0,0,0,5.37,6.89l11.56,3.58a3.78,3.78,0,0,0,1.11.17l11.78,0A20.7,20.7,0,0,0,61.14,263h-13a3.59,3.59,0,1,0,0,7.17H77.57a22.25,22.25,0,0,0,16.9-7.57,20.92,20.92,0,0,0,4.87-17.45h74.32a20.77,20.77,0,0,0-.33,3.52A21.1,21.1,0,0,0,179,263H166a3.59,3.59,0,1,0,0,7.17h29.46a22.27,22.27,0,0,0,16.91-7.58,21,21,0,0,0,4.87-17.48h11.63a3.78,3.78,0,0,0,1.11-.17L241,241.48a7.28,7.28,0,0,0,6-7.1V202.14A3.63,3.63,0,0,0,243.32,198.56Zm-3.69,7.16,0,7.16h-7.34v-7.16Zm-84.71-39.4H184.1l13.26,32.24H154.92Zm24.21-12.08,2,4.91H154.92V152h20.79A3.67,3.67,0,0,1,179.13,154.24ZM33.37,198.56l7.36,5.37v7.16l-7.36,5.38ZM77.57,263A14.34,14.34,0,1,1,92.3,248.65,14.54,14.54,0,0,1,77.57,263Zm0-35.82A22.26,22.26,0,0,0,58.41,238l-13.79-.06-11.25-3.49v-9l11.78-8.59a7.14,7.14,0,0,0,3-5.74v-7.16a7.12,7.12,0,0,0-3-5.73l-11.78-8.6V98.25a3.63,3.63,0,0,1,3.68-3.58h93.19a3.9,3.9,0,0,1,2.3.79l13.63,10.6a3.56,3.56,0,0,1,1.38,2.8v93.28a3.25,3.25,0,0,0,.18,1.07l6.59,20a3.66,3.66,0,0,0,.21.51,3.5,3.5,0,0,1,.37,1.59V238H96.72A22.24,22.24,0,0,0,77.57,227.16ZM195.43,263a14.34,14.34,0,1,1,14.74-14.33A14.53,14.53,0,0,1,195.43,263ZM239,234.59l-10.72,3.33H214.55a22.36,22.36,0,0,0-38.27,0h-14V225.32a10.49,10.49,0,0,0-1-4.53l-5-15.07H224.9v7.16a7.27,7.27,0,0,0,7.37,7.17h7.31l-.05,14.41A2.65,2.65,0,0,0,239,234.59Z"/><path class="cls-1" d="M187,274H9V10l96.33-.43L225.67,9h2.83a4.5,4.5,0,0,0,0-9h-2.86l-7.36,0L192.64.16,115.73.5,4.48,1A4.51,4.51,0,0,0,0,5.5v273A4.51,4.51,0,0,0,4.5,283H187Z"/><path class="cls-1" d="M53.91,107a2.48,2.48,0,0,0-2.38,2.57V215.62a2.48,2.48,0,0,0,2.38,2.57h83.71a2.48,2.48,0,0,0,2.38-2.57v-106a2.48,2.48,0,0,0-2.38-2.57Zm28.31,70.7H72.39A6.3,6.3,0,0,1,68.1,176a7.65,7.65,0,0,1-.91-9.85h0a6.46,6.46,0,0,1,4.46-2.69,18.46,18.46,0,0,0,8.93-3.78,8.68,8.68,0,0,1,5.27-1.84h.05c5,0,9.11,4.38,9.18,9.8a10.29,10.29,0,0,1-2.64,7.12,8.78,8.78,0,0,1-6.54,3Zm21.33,0H96.39a15.77,15.77,0,0,0,3.45-10.16,16.09,16.09,0,0,0-1.18-5.84,21,21,0,0,0,3.25-2,8.63,8.63,0,0,1,5.26-1.84h0c5,0,9.12,4.38,9.19,9.8a10.34,10.34,0,0,1-2.65,7.12,8.78,8.78,0,0,1-6.54,3Zm19.54-3a8.88,8.88,0,0,1-5.31,2.87,16,16,0,0,0,0-19.7,9.73,9.73,0,0,1,8,9.71A10.33,10.33,0,0,1,123.09,174.74Zm-6.53-22.07H108l-.24,0-.51,0h-.07a13.14,13.14,0,0,0-8,2.79A14.88,14.88,0,0,1,96,157.35a13.42,13.42,0,0,0-10.06-4.68h-.08a13.16,13.16,0,0,0-8,2.79,13.87,13.87,0,0,1-6.71,2.86A11.16,11.16,0,0,0,63.45,163h0a13.2,13.2,0,0,0-.3,14.75H56.29V147.5h79v30.2H127a15.77,15.77,0,0,0,3.46-10.16C130.38,159.33,124.14,152.67,116.56,152.67ZM67.7,137.72A4.29,4.29,0,1,1,72,142.35,4.48,4.48,0,0,1,67.7,137.72Zm32.87-4.64a4.65,4.65,0,1,1-4.28,4.64A4.48,4.48,0,0,1,100.57,133.08Zm15.26,9.27h-7.31a10.49,10.49,0,0,0,0-9.27h7.31a4.65,4.65,0,0,1,0,9.27Zm-28.58,0H79.94a10.49,10.49,0,0,0,0-9.27h7.31a4.65,4.65,0,0,1,0,9.27Zm48-30.2v30.2H123.79a10.35,10.35,0,0,0,1.08-4.63c0-5.4-4.05-9.79-9-9.79H100.57a8.71,8.71,0,0,0-6.66,3.18,8.73,8.73,0,0,0-6.66-3.18H72c-5,0-9,4.39-9,9.79A10.35,10.35,0,0,0,64,142.35H56.29v-30.2ZM65.8,199.87V197.4a1.79,1.79,0,0,1,1.71-1.86H86.66a1.78,1.78,0,0,1,1.71,1.86v2.47a1.78,1.78,0,0,1-1.71,1.85H67.51A1.79,1.79,0,0,1,65.8,199.87Zm60,12.39a2.92,2.92,0,0,1-2.84.66,18.63,18.63,0,0,1-3.08-1.26h0a19.38,19.38,0,0,1-7.08-6.46,6.2,6.2,0,0,0-.44-.69,19.57,19.57,0,0,1-1.12-2.13,3.6,3.6,0,0,1,.07-3.17,3.12,3.12,0,0,1,2.45-1.73H114a3.15,3.15,0,0,1,2.83,1.94,12.77,12.77,0,0,0,7.72,7,3.34,3.34,0,0,1,2.32,3A3.49,3.49,0,0,1,125.77,212.26Zm-18.94-5.9a3.27,3.27,0,0,1,1.69,1.23c.06.1.12.2.19.3a3.67,3.67,0,0,1,.44,1.44,3.55,3.55,0,0,1-1.12,2.93,2.93,2.93,0,0,1-2.84.66,18.28,18.28,0,0,1-3.08-1.26h0a19.62,19.62,0,0,1-8.65-9.28,3.57,3.57,0,0,1,.08-3.17A3.1,3.1,0,0,1,96,197.48h.29a3.16,3.16,0,0,1,2.84,1.94A12.74,12.74,0,0,0,106.83,206.36Zm-11.47,6.69H92.9a7.64,7.64,0,0,0,.23-1.86v-.4A25,25,0,0,0,95.36,213.05Zm-27.85,0a1.8,1.8,0,0,1-1.71-1.86v-2.47a1.79,1.79,0,0,1,1.71-1.85H86.66a1.78,1.78,0,0,1,1.71,1.85v2.47a1.79,1.79,0,0,1-1.71,1.86Zm63.49,0a9.12,9.12,0,0,0,.63-4.19,8.38,8.38,0,0,0-5.76-7.46,7.78,7.78,0,0,1-4.75-4.27,7.78,7.78,0,0,0-7.82-4.77,7.9,7.9,0,0,0-6.17,4.33,9.13,9.13,0,0,0-1,3.75,8,8,0,0,1-2.77-3.31,7.77,7.77,0,0,0-7.82-4.77,7.41,7.41,0,0,0-3.45,1.26,6.35,6.35,0,0,0-5.44-3.22H67.51a6.76,6.76,0,0,0-6.47,7v2.47a7.27,7.27,0,0,0,1.47,4.42A7.3,7.3,0,0,0,61,208.72v2.47a7.13,7.13,0,0,0,.24,1.86h-5v-30.2h79v30.2Z"/><path class="cls-1" d="M208.5,83.79a3.31,3.31,0,0,0-3.5,3.08V103c-4.08,1.27-7,4.69-7,8.7,0,5.1,4.72,9.24,10.51,9.24S219,116.8,219,111.7c0-4-2.93-7.43-7-8.7V86.87A3.31,3.31,0,0,0,208.5,83.79Zm0,31a3.11,3.11,0,1,1,3.5-3.08A3.31,3.31,0,0,1,208.5,114.78Z"/><path class="cls-1" d="M226,43.56c0-8.49-7.85-15.4-17.5-15.4S191,35.07,191,43.56V96.71c-5.52,5-8,11.9-6.62,18.8,1.74,8.74,9.86,15.9,19.76,17.41a28.57,28.57,0,0,0,4.32.33c13.66,0,24.55-9.69,24.55-21.55a20.28,20.28,0,0,0-7-15Zm-20.67,83.29c-7-1.07-12.83-6.17-14.06-12.4-1.06-5.34,1-10.49,5.57-14.14A2.93,2.93,0,0,0,198,98V43.56c0-5.1,4.72-9.24,10.51-9.24S219,38.46,219,43.56V53h-3.5a3.11,3.11,0,1,0,0,6.16H219v6.15h-3.5a3.11,3.11,0,1,0,0,6.16H219v6.16h-3.5a3.11,3.11,0,1,0,0,6.16H219v6.15h-3.5a3.11,3.11,0,1,0,0,6.16H219V98a2.91,2.91,0,0,0,1.16,2.29A14.49,14.49,0,0,1,226,111.7C226,121,216.56,128.57,205.33,126.85Z"/><path class="cls-1" d="M179.33,57.51l5.45-5.45a4.21,4.21,0,1,0-6-6l-7.2,7.19h-3.19a12.7,12.7,0,0,0-7.71-7.7v-3.2l7.2-7.19a4.22,4.22,0,0,0-6-6l-5.45,5.45-5.45-5.45a4.22,4.22,0,1,0-6,6l7.19,7.19v3.2a12.71,12.71,0,0,0-7.7,7.7h-3.2L134.2,46.1a4.22,4.22,0,1,0-6,6l5.46,5.45L128.23,63a4.22,4.22,0,1,0,6,6l7.19-7.2h3.2a12.7,12.7,0,0,0,7.7,7.71v3.19l-7.19,7.2a4.21,4.21,0,1,0,6,6l5.45-5.45L162,85.78a4.21,4.21,0,0,0,6-6l-7.2-7.2V69.43a12.69,12.69,0,0,0,7.71-7.71h3.19l7.2,7.2a4.21,4.21,0,1,0,6-6Zm-22.82,4.21a4.22,4.22,0,1,1,4.21-4.21A4.22,4.22,0,0,1,156.51,61.72Z"/></g></g></svg>