<svg xmlns="http://www.w3.org/2000/svg" viewBox="0 0 222 275.9"><defs><style>.cls-1{fill:#3d5da6;}.cls-2{fill:none;stroke:#3d5da6;stroke-linecap:round;stroke-linejoin:round;stroke-width:9px;}</style></defs><title>CarnicosRequerimientos 1@1x</title><g id="Capa_2" data-name="Capa 2"><g id="Capa_1-2" data-name="Capa 1"><path class="cls-1" d="M166.26,57.78H132.53V24.06h25.3V15.63H124.1V66.22h50.59V40.92h-8.43Z"/><path class="cls-1" d="M143.94,33.73l-6,6L149.4,51.1,194.53,6l-6-6L149.4,39.18Z"/><path class="cls-1" d="M22.84,72.5a4.31,4.31,0,0,0-4.31,4.31V254.36a4.31,4.31,0,0,0,4.31,4.31H174.53a4.31,4.31,0,0,0,4.31-4.31V76.81a4.31,4.31,0,0,0-4.31-4.31Zm51.3,118.36H56.33A12,12,0,0,1,48.55,188a12.09,12.09,0,0,1-1.64-16.48h0A11.88,11.88,0,0,1,55,167a34.89,34.89,0,0,0,16.19-6.33,16.48,16.48,0,0,1,9.54-3.07h.1a16.64,16.64,0,1,1,0,33.27Zm38.65,0h-13a25.17,25.17,0,0,0,4.12-26.78,37.34,37.34,0,0,0,5.88-3.42,16.56,16.56,0,0,1,9.55-3.07h.09a16.64,16.64,0,0,1,0,33.28Zm35.4-5a16.44,16.44,0,0,1-9.61,4.8,25.16,25.16,0,0,0,0-33,16.63,16.63,0,0,1,9.65,28.17ZM136.37,149H120.81a3.39,3.39,0,0,0-.45,0l-.91,0h-.14a25.07,25.07,0,0,0-14.49,4.67A27.6,27.6,0,0,1,99,156.79,25.22,25.22,0,0,0,80.81,149h-.14a25.1,25.1,0,0,0-14.5,4.67A26.22,26.22,0,0,1,54,158.42a20.44,20.44,0,0,0-13.86,7.75h0a20.68,20.68,0,0,0-.55,24.69H27.15V140.3H170.22v50.56H155.34a25,25,0,0,0,6.26-17A25.32,25.32,0,0,0,136.37,149Zm-88.54-25a7.76,7.76,0,1,1,7.76,7.75A7.77,7.77,0,0,1,47.83,123.93Zm59.56-7.76a7.76,7.76,0,1,1-7.76,7.76A7.77,7.77,0,0,1,107.39,116.17Zm27.66,15.51H121.81a16.4,16.4,0,0,0,0-15.51h13.24a7.76,7.76,0,1,1,0,15.51Zm-51.8,0H70a16.32,16.32,0,0,0,0-15.51H83.25a7.76,7.76,0,1,1,0,15.51Zm87-50.56v50.56H149.47a16.36,16.36,0,0,0-14.42-24.13H107.39a16.34,16.34,0,0,0-12.07,5.32,16.31,16.31,0,0,0-12.07-5.32H55.59a16.38,16.38,0,0,0-14.42,24.13h-14V81.12ZM44.39,228v-4.13a3.11,3.11,0,0,1,3.1-3.11h34.7a3.11,3.11,0,0,1,3.1,3.11V228a3.11,3.11,0,0,1-3.1,3.11H47.49A3.11,3.11,0,0,1,44.39,228Zm108.67,20.74a5.56,5.56,0,0,1-5.15,1.11,33.3,33.3,0,0,1-5.58-2.11h0a34.15,34.15,0,0,1-12.82-10.8,13.52,13.52,0,0,0-.81-1.17,32,32,0,0,1-2-3.56,5.69,5.69,0,0,1,4.57-8.2l.52,0a5.73,5.73,0,0,1,5.14,3.25,22.47,22.47,0,0,0,14,11.62,5.74,5.74,0,0,1,4.21,5A5.64,5.64,0,0,1,153.06,248.72Zm-34.33-9.87a5.82,5.82,0,0,1,3.06,2.06c.11.17.23.33.35.5a5.72,5.72,0,0,1,.79,2.41,5.69,5.69,0,0,1-7.17,6,33,33,0,0,1-5.58-2.11h0A34.05,34.05,0,0,1,94.51,232.2,5.7,5.7,0,0,1,99.08,224l.53,0a5.71,5.71,0,0,1,5.13,3.25A22.54,22.54,0,0,0,118.73,238.85ZM98,250.05H93.49a11.79,11.79,0,0,0,.42-3.11v-.67A45.28,45.28,0,0,0,98,250.05Zm-50.47,0a3.11,3.11,0,0,1-3.1-3.11v-4.13a3.11,3.11,0,0,1,3.1-3.11h34.7a3.11,3.11,0,0,1,3.1,3.11v4.13a3.11,3.11,0,0,1-3.1,3.11Zm115,0a14.3,14.3,0,0,0-9.31-19.5,13.85,13.85,0,0,1-8.61-7.16,14.3,14.3,0,0,0-27.14,5.55,13.71,13.71,0,0,1-5-5.55,14.28,14.28,0,0,0-20.42-5.87,11.74,11.74,0,0,0-9.86-5.4H47.49a11.74,11.74,0,0,0-11.72,11.73V228a11.67,11.67,0,0,0,2.65,7.42,11.63,11.63,0,0,0-2.65,7.41v4.13a11.79,11.79,0,0,0,.42,3.11h-9V199.48H170.22v50.57Z"/><path class="cls-1" d="M118.28,169.92a4.31,4.31,0,0,0,0,8.62,4.31,4.31,0,1,0,0-8.62Z"/><path class="cls-1" d="M79.64,169.92a4.3,4.3,0,1,0,3,1.26A4.32,4.32,0,0,0,79.64,169.92Z"/><path class="cls-1" d="M193.06,131.68a4.3,4.3,0,1,0,3.05,1.26A4.37,4.37,0,0,0,193.06,131.68Z"/><path class="cls-1" d="M202.5,89.79a2.63,2.63,0,0,0-2.79,2.45v12.83a7.51,7.51,0,0,0-5.57,6.93c0,4.06,3.75,7.36,8.36,7.36s8.36-3.3,8.36-7.36a7.5,7.5,0,0,0-5.58-6.93V92.24A2.62,2.62,0,0,0,202.5,89.79Zm0,24.66a2.47,2.47,0,1,1,2.78-2.45A2.63,2.63,0,0,1,202.5,114.45Z"/><path class="cls-1" d="M216.43,57.77c0-6.76-6.25-12.25-13.93-12.25S188.57,51,188.57,57.77v42.31a15.8,15.8,0,0,0-5.27,15c1.38,6.95,7.85,12.65,15.72,13.85a22.23,22.23,0,0,0,3.44.26c10.87,0,19.54-7.71,19.54-17.15a16.14,16.14,0,0,0-5.57-11.92ZM200,124.06c-5.61-.85-10.21-4.91-11.19-9.87a11.26,11.26,0,0,1,4.43-11.25,2.33,2.33,0,0,0,.92-1.82V57.77c0-4.05,3.75-7.35,8.36-7.35s8.36,3.3,8.36,7.35v7.51h-2.79a2.47,2.47,0,1,0,0,4.9h2.79v4.91h-2.79a2.47,2.47,0,1,0,0,4.9h2.79v4.9h-2.79a2.47,2.47,0,1,0,0,4.9h2.79v4.9h-2.79a2.47,2.47,0,1,0,0,4.9h2.79v1.53a2.33,2.33,0,0,0,.92,1.82,11.49,11.49,0,0,1,4.65,9.06C216.43,119.4,208.92,125.43,200,124.06Z"/><path class="cls-1" d="M193.06,149a4.31,4.31,0,0,0-4.31,4.31v114H8.62V63.88H120.31a42.25,42.25,0,0,1-1.76-8.62H4.31A4.31,4.31,0,0,0,0,59.57v212a4.31,4.31,0,0,0,4.31,4.31H193.06a4.31,4.31,0,0,0,4.31-4.31V153.28A4.31,4.31,0,0,0,193.06,149Z"/><polyline class="cls-2" points="5.5 48.4 5.5 10.4 107.5 10.4"/></g></g></svg>