<svg xmlns="http://www.w3.org/2000/svg" viewBox="0 0 236 283"><defs><style>.cls-1{fill:#3d5da6;}</style></defs><title>CarnicosRequerimientos 2@1x</title><g id="Capa_2" data-name="Capa 2"><g id="Capa_1-2" data-name="Capa 1"><path class="cls-1" d="M7.5,9h2.82l120.34.54L231.48,10l0-4.5H227V274H12V117.5a4.5,4.5,0,0,0-9,0v161A4.51,4.51,0,0,0,7.5,283h224a4.51,4.51,0,0,0,4.5-4.5V5.5A4.51,4.51,0,0,0,231.52,1L120.27.5,43.36.16,17.72,0,10.36,0H7.5a4.5,4.5,0,0,0,0,9Z"/><path class="cls-1" d="M19.5,66.88a2.64,2.64,0,0,0-2.79,2.45V82.17a7.5,7.5,0,0,0-5.57,6.93c0,4.05,3.75,7.35,8.36,7.35s8.35-3.3,8.35-7.35a7.5,7.5,0,0,0-5.57-6.93V69.33A2.64,2.64,0,0,0,19.5,66.88Zm0,24.67a2.47,2.47,0,1,1,0-4.9,2.47,2.47,0,1,1,0,4.9Z"/><path class="cls-1" d="M33.43,34.87c0-6.76-6.25-12.26-13.93-12.26S5.57,28.11,5.57,34.87v42.3a15.79,15.79,0,0,0-5.27,15C1.68,99.09,8.14,104.78,16,106a23.54,23.54,0,0,0,3.44.26C30.33,106.25,39,98.54,39,89.1a16.16,16.16,0,0,0-5.57-11.93ZM17,101.16c-5.6-.86-10.2-4.92-11.19-9.87A11.31,11.31,0,0,1,10.22,80a2.33,2.33,0,0,0,.92-1.82V34.87c0-4.06,3.75-7.35,8.36-7.35s8.35,3.29,8.35,7.35v7.51H25.07a2.47,2.47,0,1,0,0,4.9h2.78v4.9H25.07a2.47,2.47,0,1,0,0,4.9h2.78V62H25.07a2.47,2.47,0,1,0,0,4.9h2.78v4.9H25.07a2.48,2.48,0,1,0,0,4.91h2.78v1.52A2.33,2.33,0,0,0,28.77,80a11.53,11.53,0,0,1,4.66,9.07C33.43,96.5,25.91,102.53,17,101.16Z"/><path class="cls-1" d="M135.14,118.34A18.23,18.23,0,0,1,124,114.55l-3.47-2.7a9.78,9.78,0,0,0,3-4.86,7.8,7.8,0,0,0-.54-4.48,6.83,6.83,0,0,1-.56-2.88,1.7,1.7,0,0,0-.69-1.47,2,2,0,0,0-1.66-.32,12.73,12.73,0,0,0-8.5,6.5,12.06,12.06,0,0,0-1,2.79c-.76,0-1.6-.1-2.22-.1H86.83a1.75,1.75,0,1,0,0,3.5H92.4v6.84H84.58A27.07,27.07,0,0,1,67,111a20,20,0,0,1,4.2-.44H72a1.75,1.75,0,1,0,0-3.5h-.75a24.07,24.07,0,0,0-9.61,2l-.25.11a22.64,22.64,0,0,0-10.28,9.11,5.27,5.27,0,0,1-4.31-1.35,3.33,3.33,0,0,1,0-4.91,2.7,2.7,0,0,1,3.64,0,1.92,1.92,0,0,0,2.62,0,1.68,1.68,0,0,0,0-2.48,6.57,6.57,0,0,0-8.89,0,6.72,6.72,0,0,0,0,9.87,9,9,0,0,0,5.28,2.38,20.54,20.54,0,0,0-1.24,7,20.79,20.79,0,0,0,4.15,12.45,1.15,1.15,0,0,0,.19.26l.09.11,0,0,.13.17c3,4.1,5.42,17.76,6.08,22.68A1.83,1.83,0,0,0,60.7,166H71.5a1.88,1.88,0,0,0,1.55-.79,1.68,1.68,0,0,0,.16-1.65,20,20,0,0,0-2.61-4.45l1.64-8.6H83.75a1.75,1.75,0,1,0,0-3.5H72.91l.51-2.73a38.83,38.83,0,0,0,.48-11.37H74a29.81,29.81,0,0,1,14.41,3.74l9.38,5.24a7.24,7.24,0,0,0-.23,1.81v3.16s0,0,0,0V147s0,.06,0,.1a.08.08,0,0,0,0,0,31.35,31.35,0,0,0,1.54,5.77,94,94,0,0,1,3.06,11.65A1.82,1.82,0,0,0,104,166H115.2a1.91,1.91,0,0,0,1.55-.79,1.68,1.68,0,0,0,.16-1.65,19.16,19.16,0,0,0-2.76-4.61v-12a21.13,21.13,0,0,0,7.87-9.49,18.26,18.26,0,0,0,14-8l.73-1.17a1.68,1.68,0,0,0,.26-.89v-7.31A1.8,1.8,0,0,0,135.14,118.34Zm-39-7.81h9.16V112a28.17,28.17,0,0,0,.51,5.37H96.11ZM61.62,113l2.6,3.89.42.64-2.48,3.65A13.8,13.8,0,0,1,52,127.06,18.23,18.23,0,0,1,61.62,113ZM52,130.57A17.55,17.55,0,0,0,65.29,123l1.35-2a36,36,0,0,1,3.26,10s0,.08,0,.12a1.74,1.74,0,0,0,.13.64,35.35,35.35,0,0,1-.25,11.87l-.59,3.13h0l0,.22h-6l-4.54-1.32a22.16,22.16,0,0,0-2.78-5.94l0,0-.11-.15,0-.05,0,0-.06-.06a.43.43,0,0,1,0-.07A17.47,17.47,0,0,1,52,130.57ZM62.32,162.5c-.38-2.55-1.26-7.81-2.56-12.8l2.54.74a2,2,0,0,0,.54.07h5.63l-1.7,8.87a1.73,1.73,0,0,0,.8,1.77,6.35,6.35,0,0,1,1,1.35ZM74,129.41h-.65a39.61,39.61,0,0,0-4.93-12.73h0c-.09-.16-.19-.32-.29-.48a31.14,31.14,0,0,0,16.44,4.69H92.4v.93a28.42,28.42,0,0,0,4.76,15.66l-6.85-3.83A33.55,33.55,0,0,0,74,129.41Zm31.52,33.09a85,85,0,0,0-2.91-10.75,27.94,27.94,0,0,1-1.36-5v-3a4.59,4.59,0,0,1,9.16,0v16a1.73,1.73,0,0,0,.83,1.46,6.08,6.08,0,0,1,1,1.35Zm8.51-20a8.19,8.19,0,0,0-8.19-6.59,8.56,8.56,0,0,0-4.47,1.25,25.11,25.11,0,0,1-5.28-15.32v-.93h10.57a30.21,30.21,0,0,0,11.77,15.56A16.29,16.29,0,0,1,114.05,142.47Zm19.24-15.54-.42.66A14.53,14.53,0,0,1,121.18,134a26.78,26.78,0,0,1-11.28-15.19.83.83,0,0,0-.06-.21A25.74,25.74,0,0,1,109,112v-1.45c1,0,2.39.17,2.93.22a1.92,1.92,0,0,0,1.43-.42,1.75,1.75,0,0,0,.63-1.29,8.58,8.58,0,0,1,5-7.07,16.17,16.17,0,0,0,.51,1.64,4.66,4.66,0,0,1,.41,2.74c-.29,1.53-2.09,3.15-2.85,3.84-.6.54-1.1,1-1.07,1.83a1.72,1.72,0,0,0,.68,1.3l5,3.91a21.94,21.94,0,0,0,11.68,4.51v5.17Z"/><path class="cls-1" d="M91.17,147a1.93,1.93,0,0,0-1.31.51,1.67,1.67,0,0,0,0,2.48,1.94,1.94,0,0,0,2.62,0,1.69,1.69,0,0,0,0-2.48A2,2,0,0,0,91.17,147Z"/><path class="cls-1" d="M79.41,110.53a1.93,1.93,0,0,0,1.31-.51,1.69,1.69,0,0,0,0-2.48,1.94,1.94,0,0,0-2.62,0,1.67,1.67,0,0,0,0,2.48A1.93,1.93,0,0,0,79.41,110.53Z"/><rect class="cls-1" x="145" y="102" width="62" height="7"/><rect class="cls-1" x="145" y="114" width="62" height="7"/><rect class="cls-1" x="145" y="126" width="62" height="7"/><rect class="cls-1" x="145" y="184" width="62" height="7"/><rect class="cls-1" x="145" y="196" width="62" height="7"/><rect class="cls-1" x="145" y="208" width="62" height="7"/><path class="cls-1" d="M116.6,192a1.16,1.16,0,0,0,1.16-1.16V189a1.16,1.16,0,0,0-2.31,0v1.92A1.16,1.16,0,0,0,116.6,192Z"/><path class="cls-1" d="M50.68,206.06a25.76,25.76,0,0,0,3,3.74,3.86,3.86,0,0,0-2.74,4.71,13.16,13.16,0,0,0,4.26,6.66c-1.31,2.42-2.34,4.67-3.12,6.52A4.55,4.55,0,0,0,56.93,234a42.81,42.81,0,0,0,6.57-1.54,37.57,37.57,0,0,0,17.92,10.4c0,.16,2.1,4.6,2.1,4.6a10.78,10.78,0,0,0-2.47,1.6,3.31,3.31,0,0,0-1.14,2.4,3.25,3.25,0,0,0,1,2.43,3.54,3.54,0,0,0,4.78.35,3.72,3.72,0,0,1,4.71,0,3.44,3.44,0,0,0,2.2.8,3.64,3.64,0,0,0,2.42-.8,3.72,3.72,0,0,1,4.71,0,3.44,3.44,0,0,0,2.21.8,3.47,3.47,0,0,0,3.46-3.8,3.43,3.43,0,0,0-1.25-2.34,10.61,10.61,0,0,0-3.95-2.06l-1-2.38c7.92-.79,13.9-4.43,17.8-10.85a1.16,1.16,0,1,0-2-1.2c-4,6.57-10.45,9.9-19.21,9.9a61.13,61.13,0,0,1-7.16-.42L88,240.39a3.51,3.51,0,0,0-3.2-2.07,3.47,3.47,0,0,0-3.22,2.12,35.19,35.19,0,0,1-15.65-8.88c1.16-.44,2.11-.86,2.8-1.19l.66,2.63a3.64,3.64,0,0,0,3.52,2.77c4.8,0,11.8-4.54,13.78-6.39l.25.94a3.64,3.64,0,0,0,4.4,2.62c8.35-2,13.58-5.95,15.54-11.76a14.67,14.67,0,0,0-.17-9.72,15.32,15.32,0,0,0-6.16-7.57,27.63,27.63,0,0,0-7-3.13,81.62,81.62,0,0,0,7-7.28c4.38-4.93,8.51-9.59,13.07-9.49a12.69,12.69,0,0,1,9.32,4.73,9.71,9.71,0,0,0-4.25,9.54h0c0,.17,3.39,17.51-1.82,30.32a1.16,1.16,0,0,0,.64,1.51,1.22,1.22,0,0,0,1.51-.64c1.58-3.89,3.4-10.69,3-20.95,0-1.07-.09-2.1-.16-3.05a6.76,6.76,0,0,0,4.67-1.9c.65-.71,1.57-2.53.28-5.35a3.57,3.57,0,0,0,1.68-1.56,3.65,3.65,0,0,0,.1-3.34,28.1,28.1,0,0,0-2.72-4.57c.26-1.53.57-5.79-3-8.44a3.38,3.38,0,0,1-.9-1,7.38,7.38,0,0,0-4.84-3.21,3.06,3.06,0,0,0-3.79,3.44,11.76,11.76,0,0,1,.09,2.14c-5.55,0-10,5-14.67,10.28a66.28,66.28,0,0,1-8.1,8.14,29.42,29.42,0,0,0-8.28-.28,1.16,1.16,0,0,0,.24,2.3,25.79,25.79,0,0,1,16.62,3.74,12.53,12.53,0,0,1,5.36,14.59c-1.68,5-6.35,8.46-13.87,10.25a1.34,1.34,0,0,1-1.63-1c-.37-1.41-.83-2.91-.85-3a1.16,1.16,0,0,0-2-.33s-3.72,5-13.08,7a1.34,1.34,0,0,1-1.56-1l-1-4a1.13,1.13,0,0,0-.66-.78,1.2,1.2,0,0,0-1,0,40.05,40.05,0,0,1-12.33,4,2.24,2.24,0,0,1-2.41-3.08A64.6,64.6,0,0,1,62.57,214c4.63-5.88,9.77-9.59,15.28-11a1.16,1.16,0,0,0-.59-2.24,25.18,25.18,0,0,0-6.46,2.72l-15.64-3.72a4.16,4.16,0,0,0-4.39,1.66A4.06,4.06,0,0,0,50.68,206.06Zm71-2.91c-.18-1.77-.38-3.18-.53-4.11l3.24-.38a3.1,3.1,0,0,1,.51,3.27C124.19,203.28,122,203.11,121.71,203.15Zm2.67-12.6a25,25,0,0,1,2.17,3.75,1.32,1.32,0,0,1,0,1.22,1.34,1.34,0,0,1-1,.69l-4.6.53A7.39,7.39,0,0,1,124.38,190.55Zm-8.29-8.62c-.15-1.06-.29-2-.41-2.76a.75.75,0,0,1,.24-.67.76.76,0,0,1,.7-.17,5.27,5.27,0,0,1,3.42,2.15,5.84,5.84,0,0,0,1.51,1.67,5.53,5.53,0,0,1,2.15,4A15,15,0,0,0,116.09,181.93ZM90.83,246.79l-1.12-2.51c.64.07,1.28.12,1.93.16l1.25,2.95-.2.1A11.27,11.27,0,0,0,90.83,246.79Zm5.19,4.4A3.64,3.64,0,0,0,95,249a1.17,1.17,0,0,0,.49-1.46l-1.29-3c.52,0,2.21,0,2.52,0l1.56,3.67a1.13,1.13,0,0,0,.82.68,8.38,8.38,0,0,1,3.56,1.72,1.23,1.23,0,0,1,.15,1.62,1.14,1.14,0,0,1-1.63.16A6,6,0,0,0,96,251.19Zm-10.57-2.05a1.16,1.16,0,0,0,.69-1.59l-2.43-5.23a1.1,1.1,0,0,1,1.07-1.69,1.21,1.21,0,0,1,1.08.7L89,248.25a1.14,1.14,0,0,0,.82.66,8.28,8.28,0,0,1,3.46,1.65,1.22,1.22,0,0,1,.27,1.67,1.16,1.16,0,0,1-1.65.18,6,6,0,0,0-7.65,0,1.24,1.24,0,0,1-1.69-.22.9.9,0,0,1,.06-1.43A8.13,8.13,0,0,1,85.45,249.14Zm-32-36.65a1.49,1.49,0,0,1,1.38-.47l1.51.25a24.85,24.85,0,0,0,3.07,2c-1.15,1.6-2.19,3.21-3.12,4.79a10.61,10.61,0,0,1-3.18-5.21A1.49,1.49,0,0,1,53.48,212.49Zm-.82-9.74a1.84,1.84,0,0,1,2-.74l13.54,3.23a39.77,39.77,0,0,0-7.31,7.22,23,23,0,0,1-8.23-7.66A1.79,1.79,0,0,1,52.66,202.75Z"/><path class="cls-1" d="M145.47,229.7a1.65,1.65,0,0,1,1.63-1.64H151a1.64,1.64,0,0,1,0,3.27H147.1A1.64,1.64,0,0,1,145.47,229.7Z"/><path class="cls-1" d="M155.47,233.27l4.44-3.64c2-1.59,2.71-2.46,2.71-3.76a1.91,1.91,0,0,0-2.1-2A3.3,3.3,0,0,0,158,225.2a1.58,1.58,0,0,1-2.73-1.07,1.7,1.7,0,0,1,.41-1.07,6.12,6.12,0,0,1,5.09-2.3c3.24,0,5.39,1.89,5.39,4.82v0c0,2.61-1.34,3.91-4.11,6.06l-2.55,2h5.45a1.5,1.5,0,0,1,1.5,1.5,1.47,1.47,0,0,1-1.5,1.47h-8.49a1.65,1.65,0,0,1-1.86-1.63A2.18,2.18,0,0,1,155.47,233.27Z"/><path class="cls-1" d="M168.33,224.23v0a5.24,5.24,0,0,1,5.42-5.2,5.19,5.19,0,0,1,5.38,5.16v0a5.4,5.4,0,0,1-10.8,0Zm8,0v0a2.66,2.66,0,0,0-2.63-2.76,2.56,2.56,0,0,0-2.59,2.72v0a2.65,2.65,0,0,0,2.63,2.75A2.55,2.55,0,0,0,176.34,224.23Z"/><path class="cls-1" d="M145.33,149a1.64,1.64,0,0,1,1.64-1.63h3.89a1.63,1.63,0,0,1,0,3.26H147A1.65,1.65,0,0,1,145.33,149Z"/><path class="cls-1" d="M156.78,143.51l-1.2.32a3.21,3.21,0,0,1-.61.09,1.5,1.5,0,0,1-.35-2.95l2.21-.65a6.11,6.11,0,0,1,1.61-.29h0a1.7,1.7,0,0,1,1.7,1.7v12.6a1.7,1.7,0,1,1-3.4,0Z"/><path class="cls-1" d="M163.25,151.61v-.05a3.81,3.81,0,0,1,2.52-3.78,3.72,3.72,0,0,1-2-3.42v0c0-2.39,2.19-4.29,5.5-4.29s5.5,1.88,5.5,4.29v0a3.71,3.71,0,0,1-2,3.42c1.59.83,2.53,1.84,2.53,3.69v.05c0,2.9-2.57,4.6-6,4.6S163.25,154.33,163.25,151.61Zm8.74-.27v-.05c0-1.2-1.14-1.92-2.71-1.92s-2.7.72-2.7,1.92v.05c0,1.07,1,1.94,2.7,1.94S172,152.43,172,151.34Zm-.47-6.6v0a2,2,0,0,0-2.24-1.83c-1.41,0-2.23.85-2.23,1.81v0a2.26,2.26,0,0,0,4.47,0Z"/><path class="cls-1" d="M177.12,143.51v0a5.4,5.4,0,0,1,10.8,0v0a5.24,5.24,0,0,1-5.42,5.2A5.19,5.19,0,0,1,177.12,143.51Zm8,0v0a2.65,2.65,0,0,0-2.62-2.76,2.56,2.56,0,0,0-2.59,2.72v0a2.65,2.65,0,0,0,2.62,2.76A2.56,2.56,0,0,0,185.12,143.51Z"/><path class="cls-1" d="M105.74,51l5.91-5.91a4.57,4.57,0,0,0-6.46-6.47l-7.8,7.81H93.92a13.78,13.78,0,0,0-8.35-8.36V34.63l7.8-7.81a4.57,4.57,0,0,0-6.47-6.46L81,26.27l-5.91-5.91a4.57,4.57,0,1,0-6.46,6.46l7.8,7.81v3.46a13.78,13.78,0,0,0-8.35,8.36H64.6l-7.8-7.81a4.57,4.57,0,1,0-6.46,6.47L56.25,51l-5.91,5.91a4.57,4.57,0,0,0,6.46,6.46l7.8-7.8h3.47a13.76,13.76,0,0,0,8.35,8.35v3.47l-7.8,7.8a4.57,4.57,0,0,0,6.47,6.47L81,75.77l5.91,5.91a4.57,4.57,0,0,0,6.46-6.47l-7.8-7.8V63.94a13.76,13.76,0,0,0,8.35-8.35h3.47l7.8,7.8a4.57,4.57,0,0,0,6.46-6.46ZM81,55.59A4.57,4.57,0,1,1,85.57,51,4.58,4.58,0,0,1,81,55.59Z"/><path class="cls-1" d="M188.25,79.88H154.53V46.16h25.29V37.72H146.1V88.31h50.59V63h-8.44Z"/><path class="cls-1" d="M165.94,55.82l-6,6,11.41,11.41,45.14-45.13-6-6L171.39,61.27Z"/><line class="cls-1" x1="28" y1="121" x2="28" y2="260"/><path class="cls-1" d="M23,121V260a5,5,0,0,0,10,0V121a5,5,0,0,0-10,0"/></g></g></svg>