<svg id="Capa_1" data-name="Capa 1" xmlns="http://www.w3.org/2000/svg" viewBox="0 0 185.59 63.08"><defs><style>.cls-1{fill:#64cd4e;}.cls-2{fill:#64952f;}.cls-3{fill:#fff;}.cls-4{fill:#ffbf29;}.cls-5{fill:#e6a929;}.cls-6{fill:#ff61b8;}.cls-7{fill:#d55293;}.cls-8{fill:#ff484e;}.cls-9{fill:#b0484e;}</style></defs><title>logo</title><path class="cls-1" d="M159,44.33l6.61.14v-.56l-.75-5.72s-.24-1.92-.24-1.95-.11-2.74-.11-2.74l.34-.09,1.44.1,1.56-.14,1.66-.47,1.52-.79.22-.6V30.22l.42-1.16.15-1.72s.29-1.14.3-1.19.41-1,.41-1l.67-1.47,1.57-1.14L177,21.8s-.28-.8-.33-.87-.65-1.25-.65-1.25l-1.44-.78-1.37.26-1.09,1-1.29,2.58L170.19,24l-.14,1.74-.13,1-.46.2-.66-.87-.58-.86-.53-3.87-.54-3.44,0-3.74-.31-4.28-.42-1.82-.79-.28h-1.63l-.82-.23.19-1.12-.78-.11-1.18.09-1.31.17-1,.73L159.26,9l-.09,1.09-.59-.21-.71.11-.56.63-.53,1.16-.11,4.89.38,5.32L157,27.35l.27,4.47.89,1.52.63.64.08,6Z"/><path class="cls-2" d="M158.45,44.62l.86-.44c0-.66,0-1.33,0-2,0-2.84-.1-5.66-.18-8.5V33.4l-.27-.1a2,2,0,0,1-1.06-.8,1.42,1.42,0,0,1-.2-.6c0-.26,0-.53-.06-.8-.06-1.08-.08-2.17-.08-3.26l-.09-6.59-.08-6.57V11.81c0-.12,0-.24,0-.36a1.46,1.46,0,0,1,.57-1.09,1,1,0,0,1,.52-.13.84.84,0,0,1,.26.07l.12.07.09.06.32.31.43,11.69-.24,0a7,7,0,0,0-.92.52l1,.13c.32-.06.64-.11,1-.15.65-.09,1.3-.16,1.95-.2s1.31-.07,2-.07c.33,0,.65,0,1,0s.66-.17,1-.29c-.32-.14-.65-.25-1-.36h-1.58l-.5-13.79h.07l.57-.09.55-.06a5.57,5.57,0,0,1,1.08,0,1.6,1.6,0,0,1,.43.1.36.36,0,0,1,.21.19.39.39,0,0,1,0,.09l0,.08v.13a.51.51,0,0,1,0,.13c0,.18.05.38.07.57.18,1.52.31,3.07.4,4.61s.18,3.11.29,4.66l.18,2.32.09,1.17c0,.19,0,.4.07.6s.07.39.1.59a21.2,21.2,0,0,0,.6,2.31,8.07,8.07,0,0,0,.44,1.14c0,.1.11.19.17.29a1.24,1.24,0,0,0,.27.32.69.69,0,0,0,.3.16.47.47,0,0,0,.16,0,.33.33,0,0,0,.17,0,.85.85,0,0,0,.17-.06l.15-.1c.05,0,.07-.07.11-.1a.49.49,0,0,0,.07-.11,1.87,1.87,0,0,0,.22-.72c0-.21,0-.42.06-.61s0-.39,0-.56a3.61,3.61,0,0,1,.11-.51,20.2,20.2,0,0,1,.71-2.16,10.35,10.35,0,0,1,1-2l.15-.21.16-.17a4.36,4.36,0,0,1,.4-.35,2.77,2.77,0,0,1,.89-.45,1.69,1.69,0,0,1,.92,0,2.14,2.14,0,0,1,.44.18,1.84,1.84,0,0,1,.36.28,4.51,4.51,0,0,1,.85,1.45,7.36,7.36,0,0,0-2.48,1.41A8.69,8.69,0,0,0,172.8,24a7.51,7.51,0,0,0-.47.68c-.07.12-.15.23-.22.36s-.14.27-.19.4a9.52,9.52,0,0,0-.46,1.59c-.11.53-.19,1.06-.26,1.59-.12,1-.2,2-.24,3.05a1.83,1.83,0,0,1-.47.32,5.63,5.63,0,0,1-.79.29,13.45,13.45,0,0,1-1.72.38c-.58.09-1.18.17-1.77.22s-1.2.11-1.79.14L164,33l0,.45,1.06,11.26.82-.42-1-10.48c.46,0,.92-.06,1.38-.11.61-.06,1.22-.13,1.83-.23a15,15,0,0,0,1.83-.4,7.49,7.49,0,0,0,.92-.35,3.57,3.57,0,0,0,.45-.27,1.6,1.6,0,0,0,.43-.46l.06-.08v-.12c0-1,.12-2.08.25-3.1.06-.51.14-1,.24-1.52a8,8,0,0,1,.42-1.44c0-.11.1-.2.15-.31a3.58,3.58,0,0,1,.18-.32c.14-.21.28-.41.43-.61a8.12,8.12,0,0,1,1-1.09,6.46,6.46,0,0,1,2.59-1.36l.45-.11-.14-.43a9,9,0,0,0-.48-1.15,4.84,4.84,0,0,0-.73-1.05,2.48,2.48,0,0,0-.56-.44,2.7,2.7,0,0,0-.63-.26,2.55,2.55,0,0,0-1.37,0,3.54,3.54,0,0,0-1.18.59c-.18.13-.33.27-.49.41l-.23.26-.19.26a11.86,11.86,0,0,0-1.08,2.17,21.37,21.37,0,0,0-.75,2.26,3.71,3.71,0,0,0-.12.63c0,.21,0,.41-.05.6s0,.38,0,.55a1.58,1.58,0,0,1-.05.25l-.12-.21a8.67,8.67,0,0,1-.4-1,20.85,20.85,0,0,1-.56-2.2c0-.19-.07-.38-.1-.56s0-.36-.06-.55l-.1-1.16-.17-2.32c-.11-1.55-.22-3.08-.29-4.64s-.23-3.11-.4-4.66c0-.2-.05-.39-.08-.59a1,1,0,0,0,0-.16V8.46a.64.64,0,0,1,0-.09s0-.09,0-.13l0-.06L167,8a1.09,1.09,0,0,0-.28-.36,1.24,1.24,0,0,0-.35-.23,2.71,2.71,0,0,0-.69-.18,7.45,7.45,0,0,0-1.25,0l-.6.07-.12,0V6.6l0-.29-.23-.13-.11,0-.07,0-.14,0-.26,0a2.83,2.83,0,0,0-.5,0,7.32,7.32,0,0,0-.94,0,5,5,0,0,0-1.89.48,2.05,2.05,0,0,0-.45.34,1.58,1.58,0,0,0-.34.5c0,.09-.07.2-.09.24s0,.06,0,.11a.17.17,0,0,0,0,.07V7.9c0,.17,0,.31,0,.47,0,.35,0,.7,0,1l-.23,0a2.05,2.05,0,0,0-.55.05,1.78,1.78,0,0,0-1.19,1,3.14,3.14,0,0,0-.28.92c0,.15,0,.31,0,.46v2.89l.08,6.58.09,6.58c0,1.1,0,2.2.08,3.31,0,.28,0,.55.07.84a2.27,2.27,0,0,0,.31.95A2.89,2.89,0,0,0,158.26,34q.13,4.09.18,8.2C158.45,43,158.44,43.81,158.45,44.62Zm1.19-33.45,0-1.07V10l-.08-2.25a.4.4,0,0,1,0-.13.94.94,0,0,1,.42-.42,4.06,4.06,0,0,1,1.55-.37,5.81,5.81,0,0,1,.83,0,1.67,1.67,0,0,1,.39,0h.06v.31h0l.54,14.86-1,.06c-.66,0-1.33.11-2,.2l-.32,0Z"/><path class="cls-3" d="M165.53,26.79a3,3,0,0,0-1.49-2.1,3.13,3.13,0,0,0-1.39-.39,2.77,2.77,0,0,0-2.09,4.95,1.94,1.94,0,0,1,.4,1.24l.06.78a.22.22,0,0,0,.24.2l2.83-.21a.22.22,0,0,0,.2-.22v-.29c0-.26.25-.48.71-.44s.78-.12.79-.45c0-.1-.06-1-.06-1l.38-.12a.22.22,0,0,0,.08-.38c-.53-.46-.62-.69-.63-.74-.09-.24,0-.57,0-.82Zm-.95-.23a.26.26,0,0,1-.19.12,0,0,0,0,0,0,0c0,.07.06.28-.31.39a1.38,1.38,0,0,0-.66.54.74.74,0,0,1-.38.22.76.76,0,0,0-.4.2,3,3,0,0,0-.26.84,0,0,0,0,1,0,0h-.18a0,0,0,0,1,0,0l-.12-.4s-.85.11-.94-.26c0,0,0,0,0,0a.4.4,0,0,1-.49-.09.4.4,0,0,1-.09-.34,0,0,0,0,0,0,0c-.08,0-.35-.15-.35-.63s.25-.58.21-.63a.37.37,0,0,1,.16-.54,0,0,0,0,0,0,0v-.1a.6.6,0,0,1,.78-.49s0,0,0,0a.31.31,0,0,1,.13-.18.4.4,0,0,1,.32,0h0a.47.47,0,0,1,.33-.15.46.46,0,0,1,.35.1h0a.54.54,0,0,1,.38-.07.51.51,0,0,1,.23.18s0,0,0,0a.71.71,0,0,1,.44,0,.42.42,0,0,1,.27.22h0a.4.4,0,0,1,.22.05c.13.09.12.17.11.21s0,0,0,0a.74.74,0,0,1,.33.28.57.57,0,0,1,.05.57Zm0,0"/><path class="cls-4" d="M108.32,21.63l.84,1.42s.5.88.51.93.43,1.16.43,1.16l.34,1.73L111,28l.14,1.32.28.57,1.63.64,1.73.3,1.59,0,1.44-.25.36.05s.17,2.75.17,2.78,0,2,0,2l-.24,2.41.22,2,.06,2.07.08.77s-.35,2.54-.33,2.64,0,.48.08.92l7-2.28-.1-.8-.47-6.59L124,30.49l.57-.71.74-1.64-.19-4.55-.63-5.44-.18-5.42L123.7,7.8,123,6.68l-.64-.58-.72,0-.58.28-.21-1.09-.08-1.68-1.07-.63-1.35,0-1.19,0-.78.19.31,1.11-.81.32-1.65.17-.77.36L113.27,7l.14,4.36.44,3.79-.19,3.53-.12,4-.49.93-.58.95-.49-.15-.24-1-.32-1.74-.76-1.19-1.57-2.47L107.87,17l-1.41-.12-1.37.95s-.47,1.25-.52,1.33-.25.91-.25.91l2.3.56Z"/><path class="cls-5" d="M107,21.48a7.17,7.17,0,0,1,1.14,1c.18.19.34.38.5.58a3,3,0,0,1,.23.3l.18.3a8.84,8.84,0,0,1,.57,1.41c.16.49.29,1,.41,1.51.24,1,.43,2.07.58,3.11v.12l.07.08a1.44,1.44,0,0,0,.48.42,3.6,3.6,0,0,0,.49.23,6.79,6.79,0,0,0,1,.25,15.61,15.61,0,0,0,1.89.21c.63,0,1.26.05,1.88.05l1.41,0,0,8.21c0,1.44,0,2.88,0,4.33l.05,2.77.79-.26v-.37c0-.71,0-1.42,0-2.15,0-1.44,0-2.88,0-4.33l0-8.66v-.46l-.46,0c-.6,0-1.22.05-1.82.05s-1.22,0-1.83,0a14.91,14.91,0,0,1-1.78-.2,5.18,5.18,0,0,1-.82-.22,1.51,1.51,0,0,1-.51-.27c-.14-1-.33-2-.57-3.06-.13-.53-.26-1.05-.43-1.58a9.27,9.27,0,0,0-.63-1.56c-.07-.13-.16-.25-.24-.38s-.17-.23-.25-.34-.36-.43-.55-.64a7.91,7.91,0,0,0-1.28-1.1,7.39,7.39,0,0,0-2.66-1.17,4.79,4.79,0,0,1,.71-1.55,1.47,1.47,0,0,1,.33-.33,2.22,2.22,0,0,1,.43-.23,1.73,1.73,0,0,1,.93-.1,2.65,2.65,0,0,1,.94.36c.16.09.3.2.45.3l.18.17.17.19a10.6,10.6,0,0,1,1.21,1.92,20,20,0,0,1,1,2.11,2.87,2.87,0,0,1,.16.5c0,.17.07.37.1.56s.07.4.13.62a2.17,2.17,0,0,0,.29.7l.09.1a.58.58,0,0,0,.12.1l.16.08.18,0h.17l.17,0a.71.71,0,0,0,.28-.19,1.46,1.46,0,0,0,.24-.35l.14-.32a9.36,9.36,0,0,0,.33-1.2,21.71,21.71,0,0,0,.36-2.4c0-.2,0-.4,0-.61s0-.42,0-.61l0-1.19L114,15.86c-.05-1.58-.1-3.17-.2-4.74s-.09-3.15-.08-4.71c0-.2,0-.39,0-.58a.61.61,0,0,1,0-.14V5.56a.31.31,0,0,1,0-.08.41.41,0,0,1,0-.1.34.34,0,0,1,.19-.21,1.44,1.44,0,0,1,.43-.15,4.8,4.8,0,0,1,1.09-.11h.57l.57,0h.08l.94,14-.58.05-1,.11c-.32.14-.64.3-1,.47.35.09.69.12,1,.18l1-.11c.66-.07,1.32-.11,2-.13s1.33,0,2,0c.34,0,.67,0,1,0s.68-.14,1-.24a6.13,6.13,0,0,0-1-.42h-.25L121.14,7l.3-.34a.38.38,0,0,1,.09-.08l.11-.08a.87.87,0,0,1,.25-.1.92.92,0,0,1,.54.08,1.53,1.53,0,0,1,.7,1c0,.12,0,.24.06.36l0,.41.09.83.17,1.66.62,6.66.61,6.67c.11,1.1.2,2.21.25,3.31,0,.27,0,.55,0,.81a1.52,1.52,0,0,1-.14.63,2.16,2.16,0,0,1-1,.93l-.27.13,0,.29q.31,4.31.71,8.61c.14,1.44.28,2.87.44,4.31,0,.28.07.57.11.86l.85-.28-.09-.68c-.16-1.43-.3-2.86-.44-4.29q-.37-4.15-.68-8.31a2.83,2.83,0,0,0,1.12-1.2,2.27,2.27,0,0,0,.22-1c0-.3,0-.58,0-.86-.06-1.13-.15-2.25-.26-3.36L125,17.38l-.62-6.67-.17-1.66-.09-.84,0-.42a3.69,3.69,0,0,0-.08-.46,2.93,2.93,0,0,0-.38-.9,1.81,1.81,0,0,0-1.31-.88,2.11,2.11,0,0,0-.56,0l-.22.06-.06-1.06c0-.15,0-.31,0-.47a.59.59,0,0,1,0-.14v0a.41.41,0,0,0,0-.07.25.25,0,0,0,0-.1,1.45,1.45,0,0,0-.11-.24,1.78,1.78,0,0,0-.39-.47,2,2,0,0,0-.5-.29,5,5,0,0,0-1.95-.29,8.05,8.05,0,0,0-1,.07,3,3,0,0,0-.49.1l-.26.08-.13.06-.08,0-.1.06-.22.15.06.29c0,.06,0,.17,0,.27l0,.31V4h-.73a6.33,6.33,0,0,0-1.27.14,2.21,2.21,0,0,0-.67.25,1.19,1.19,0,0,0-.34.26,1.1,1.1,0,0,0-.24.4c0,.07,0,.13,0,.18l0,.06s0,.09,0,.13a.41.41,0,0,0,0,.1v.24c0,.21,0,.41,0,.61,0,1.59,0,3.17.09,4.76s.15,3.14.2,4.72l.06,2.37,0,1.18c0,.2,0,.38,0,.57s0,.37,0,.57a21.58,21.58,0,0,1-.33,2.28,9.9,9.9,0,0,1-.3,1.08,1.12,1.12,0,0,1-.1.22,1.49,1.49,0,0,1-.07-.25,4.29,4.29,0,0,1-.11-.54c0-.2-.07-.39-.11-.61a4.52,4.52,0,0,0-.2-.62,21.89,21.89,0,0,0-1-2.21,11.91,11.91,0,0,0-1.32-2.08l-.22-.24-.26-.24a5.07,5.07,0,0,0-.54-.36,3.31,3.31,0,0,0-1.25-.47,2.54,2.54,0,0,0-1.39.15,2.46,2.46,0,0,0-.62.33,2.42,2.42,0,0,0-.51.5,4.75,4.75,0,0,0-.63,1.14,8.42,8.42,0,0,0-.36,1.21l-.1.45.47.07A6.45,6.45,0,0,1,107,21.48ZM117.1,3.82h0l0-.32v0l.06,0a2.26,2.26,0,0,1,.39-.07,5.83,5.83,0,0,1,.84-.06,4.12,4.12,0,0,1,1.61.21.93.93,0,0,1,.47.39l.06.12.15,2.28v.09l.08,1.08.76,11.37h-.33c-.68,0-1.35,0-2,0l-1,.05Z"/><path class="cls-3" d="M123,21a.4.4,0,0,0-.3-.15.45.45,0,0,0-.32.09l-1.19,1a.44.44,0,0,0-.06.64.45.45,0,0,0,.3.16.43.43,0,0,0,.32-.11l1.2-1a.47.47,0,0,0,.16-.31A.46.46,0,0,0,123,21Z"/><path class="cls-3" d="M117.41,25.28a.41.41,0,0,0-.32.09l-.62.52-1.56,1.3a.43.43,0,0,0-.16.31.41.41,0,0,0,.1.32.48.48,0,0,0,.31.17.43.43,0,0,0,.32-.11l2.18-1.82a.41.41,0,0,0,.16-.3.42.42,0,0,0-.1-.33A.44.44,0,0,0,117.41,25.28Z"/><path class="cls-3" d="M119,23.68a.56.56,0,0,1,.13.41.31.31,0,0,0,.07.25.35.35,0,0,0,.23.12.32.32,0,0,0,.25-.07.35.35,0,0,0,.12-.24,1.35,1.35,0,0,0-.06-.49,1.2,1.2,0,0,0-.22-.42,1.35,1.35,0,0,0-.37-.3,1.24,1.24,0,0,0-.47-.15,1.35,1.35,0,0,0-.49.06,1.15,1.15,0,0,0-.72.6,1.23,1.23,0,0,0-.14.47.38.38,0,0,0,.07.26.35.35,0,0,0,.23.12.36.36,0,0,0,.25-.08A.35.35,0,0,0,118,24a.53.53,0,0,1,.2-.38.56.56,0,0,1,.8.08Z"/><path class="cls-3" d="M120.5,22.38a2.39,2.39,0,0,0-.74-.6,2.41,2.41,0,0,0-1.92-.18,2.42,2.42,0,0,0-.83.46,2.57,2.57,0,0,0-.6.74,2.52,2.52,0,0,0-.29.94.38.38,0,0,0,.1.3.37.37,0,0,0,.27.15.35.35,0,0,0,.29-.1.37.37,0,0,0,.15-.27,1.58,1.58,0,0,1,.19-.64,1.67,1.67,0,0,1,.41-.5,1.64,1.64,0,0,1,1.22-.38,1.71,1.71,0,0,1,.63.19,2,2,0,0,1,.5.41,1.72,1.72,0,0,1,.3.57,1.62,1.62,0,0,1,.07.66,1.26,1.26,0,0,1,0,.28,1.14,1.14,0,0,1-.09.26l-.11.16-.15.2-.16.2-.13.15-.09.09-.18.17c-.05.07-.11.14-.16.22a2.08,2.08,0,0,0-.13.3,1.44,1.44,0,0,0-.07.4c0,.19,0,.37,0,.53a1.44,1.44,0,0,1,0,.34v.05l0,.08a.23.23,0,0,1-.07.07l-.16,0a.88.88,0,0,1-.29,0,.39.39,0,0,0-.3.11.27.27,0,0,0-.09.12.28.28,0,0,0,0,.15.43.43,0,0,0,.1.29.34.34,0,0,0,.26.14h0a1.42,1.42,0,0,0,.91-.17,1.06,1.06,0,0,0,.47-.66,2.08,2.08,0,0,0,.07-.36c0-.15,0-.38.06-.7a.51.51,0,0,1,.08-.32,1.25,1.25,0,0,1,.2-.23l.06,0,0-.05.21-.25.22-.27c.07-.1.15-.21.22-.33a.09.09,0,0,0,0-.06,2.29,2.29,0,0,0,.23-.84,2.35,2.35,0,0,0-.1-1A2.62,2.62,0,0,0,120.5,22.38Z"/><path class="cls-6" d="M81.66,17.64,82,23.31,82.7,28l1.06,1.53.72.62.58,6.3.77,6.81.1,1.82h7.48c0-.45-.09-.87-.09-.92s-.84-2.64-.84-2.64l-.06-.8-.33-2.12-.15-2.1-.71-2.42s-.4-2-.4-2-.35-2.88-.35-2.88l.36-.12h1.51L94,28.74l1.71-.63,1.54-1,.18-.64-.1-1.37.35-1.25V22.06l.22-1.27c0-.05.35-1,.35-1l.59-1.61,1.55-1.33,2.24-1s-.36-.82-.42-.89-.78-1.26-.78-1.26L99.83,13l-1.42.4-1.06,1.17-1.14,2.82-.55,1.36v1.84l0,1.07-.48.25L94.36,21l-.67-.85-.88-4L92,12.54l-.27-3.95L91,4.12l-.59-1.89L89.56,2l-1.71.15L87,2l.1-1.19L86.24.73,85,.92l-1.38.29-1,.85.23,1.73V4.94l-.64-.17-.73.17L81,5.66l-.47,1.26.29,5.16Z"/><path class="cls-7" d="M80.18,7.42l.06.87L80.39,10,81,17l.64,6.91q.13,1.74.36,3.48c0,.29.09.58.14.88a2.34,2.34,0,0,0,.42,1,2.9,2.9,0,0,0,1.37,1q.47,4.31.86,8.62c.14,1.48.26,3,.37,4.45,0,.6.07,1.2.1,1.8h.91c0-.62-.07-1.24-.11-1.86-.1-1.5-.23-3-.36-4.48-.27-3-.57-5.95-.9-8.92l0-.3-.3-.09a2.1,2.1,0,0,1-1.18-.76,1.73,1.73,0,0,1-.26-.61c0-.27-.09-.56-.13-.84-.15-1.13-.26-2.28-.36-3.43l-.63-6.92L81.29,10l-.14-1.73-.06-.86,0-.43c0-.13,0-.25,0-.38a1.54,1.54,0,0,1,.51-1.19.84.84,0,0,1,.54-.18.65.65,0,0,1,.27.05.42.42,0,0,1,.14.06l.1.06.37.3L84.4,17.91l-.25.06a7.71,7.71,0,0,0-.92.61c.37,0,.73,0,1.09.06s.67-.17,1-.24c.67-.14,1.35-.27,2-.37s1.37-.19,2-.24l1-.07c.34-.13.68-.23,1-.38a9.82,9.82,0,0,0-1.06-.3l-1,.07-.61.06L87.09,2.69l.08,0,.58-.13.58-.11a5.55,5.55,0,0,1,1.13-.09,1.61,1.61,0,0,1,.47.07.36.36,0,0,1,.23.18.36.36,0,0,1,0,.09.28.28,0,0,1,0,.08v0l0,.05V2.9a.65.65,0,0,1,0,.13l.12.59c.31,1.6.58,3.22.8,4.83s.45,3.25.69,4.87l.38,2.43.2,1.22c0,.2.07.42.12.63s.1.41.16.62a22.84,22.84,0,0,0,.81,2.37,10.48,10.48,0,0,0,.57,1.17,2.51,2.51,0,0,0,.2.29,1.15,1.15,0,0,0,.31.32.79.79,0,0,0,.33.14h.17l.18,0,.17-.07.15-.12a.53.53,0,0,0,.1-.12.52.52,0,0,0,.07-.12,1.93,1.93,0,0,0,.17-.78,4.73,4.73,0,0,0,0-.65V20c0-.17,0-.35.07-.54a21.55,21.55,0,0,1,.57-2.34A12.09,12.09,0,0,1,97.54,15l.15-.23.15-.2a4.89,4.89,0,0,1,.4-.39,2.69,2.69,0,0,1,.89-.55,1.79,1.79,0,0,1,1-.07,2.54,2.54,0,0,1,.49.15A2.28,2.28,0,0,1,101,14a5,5,0,0,1,1,1.45,7.76,7.76,0,0,0-2.5,1.7,8.34,8.34,0,0,0-1.09,1.36c-.16.25-.31.5-.45.76s-.13.25-.19.4a3.83,3.83,0,0,0-.17.43,9.8,9.8,0,0,0-.35,1.71c-.08.57-.11,1.13-.14,1.7,0,1.08,0,2.14,0,3.22a1.53,1.53,0,0,1-.46.38,6,6,0,0,1-.81.37,14.16,14.16,0,0,1-1.78.54c-.6.15-1.22.28-1.85.39s-1.25.21-1.87.29l-.47.06.08.47L91.53,38c.28,1.47.51,3,.8,4.42.13.74.29,1.47.44,2.19l.08.42h.84l-.46-2.77c-.25-1.48-.54-2.95-.8-4.42l-1.51-8.39c.48-.07,1-.14,1.44-.23.64-.11,1.28-.24,1.91-.4a14.6,14.6,0,0,0,1.89-.57,6.14,6.14,0,0,0,.94-.44,3.19,3.19,0,0,0,.46-.32A1.85,1.85,0,0,0,98,27l0-.09v-.13c0-1.08,0-2.19,0-3.28,0-.54.07-1.09.14-1.62a8.51,8.51,0,0,1,.32-1.55c0-.12.09-.22.13-.34a3.7,3.7,0,0,1,.17-.35c.12-.23.26-.46.4-.68a7.67,7.67,0,0,1,1-1.23,6.69,6.69,0,0,1,2.61-1.64l.46-.16L103,15.5a9.2,9.2,0,0,0-.6-1.17,5,5,0,0,0-.86-1.05,2.57,2.57,0,0,0-.62-.41,2.7,2.7,0,0,0-.68-.22,2.74,2.74,0,0,0-1.45.1,3.75,3.75,0,0,0-1.19.72,5.44,5.44,0,0,0-.48.48l-.22.28-.18.3a11.62,11.62,0,0,0-1,2.37,19.75,19.75,0,0,0-.6,2.44,4.34,4.34,0,0,0-.09.67c0,.23,0,.44,0,.64s0,.39,0,.58l0,.27a1.1,1.1,0,0,1-.14-.21,8.36,8.36,0,0,1-.51-1A22.68,22.68,0,0,1,93.66,18c0-.19-.1-.38-.14-.57s-.08-.38-.12-.58l-.19-1.21-.38-2.43c-.25-1.62-.49-3.23-.69-4.86s-.5-3.25-.81-4.87c0-.21-.08-.41-.13-.62a1.24,1.24,0,0,0,0-.16l0-.08a.93.93,0,0,0,0-.1l0-.13,0-.06A1,1,0,0,0,91,2.13a1.22,1.22,0,0,0-.32-.36,1.25,1.25,0,0,0-.39-.21,2.57,2.57,0,0,0-.74-.13,6.36,6.36,0,0,0-1.32.1c-.21,0-.41.08-.62.12l-.12,0,0-.17,0-.32a1.4,1.4,0,0,1,0-.28V.61L87.1.49,87,.45l-.08,0-.15,0-.28,0a3,3,0,0,0-.52,0,6.38,6.38,0,0,0-1,.11A5.25,5.25,0,0,0,83,1.12a2.28,2.28,0,0,0-.44.39,1.64,1.64,0,0,0-.32.56c0,.1-.06.22-.07.26s0,.06,0,.11V2.7c0,.18,0,.33,0,.49,0,.37.09.74.14,1.1l-.24,0a1.84,1.84,0,0,0-.57.09,1.92,1.92,0,0,0-.51.27,2.12,2.12,0,0,0-.67.88,3.13,3.13,0,0,0-.21,1c0,.16,0,.33,0,.49Zm2.93-5.06a1,1,0,0,1,.41-.48,4.37,4.37,0,0,1,1.6-.53,8.58,8.58,0,0,1,.87-.1h.48l0,.33h0l1.8,15.61-1,.14c-.7.1-1.39.23-2.08.37l-.34.08L83.49,6.06l-.13-1.12V4.85l-.27-2.36A1.3,1.3,0,0,1,83.11,2.36Z"/><path class="cls-3" d="M88,25.81a1.84,1.84,0,0,1-1-3.38l-.18-1a2.74,2.74,0,0,0-1.6,2.5A2.77,2.77,0,0,0,90,25.9l-.41-1a1.82,1.82,0,0,1-1.59.93Zm0,0"/><path class="cls-3" d="M91.77,26,90.5,22.82a.51.51,0,0,0-.5-.39H88.64l-.1-.5H90a.51.51,0,0,0,.52-.51A.52.52,0,0,0,90,20.9H88.34l-.08-.44,0-.05a1,1,0,0,0,.28-.69,1,1,0,1,0-1.4.92l.06,0L87.71,23v0l0,.05v0h0l0,0v0l0,0v0l0,0h0l0,0h0l0,0h0l0,0h1.73l1.16,3a.51.51,0,0,0,.48.32.58.58,0,0,0,.19,0,.52.52,0,0,0,.29-.67Zm0,0"/><path class="cls-8" d="M56.81,39.81l.65,2,.51,2,.22.64c2.31-.17,4.61-.21,6.91-.34l-.18-.5L63,37.16l-1.86-5.94.41-.83.38-1.8L60.77,24.1,59,18.81,57.6,13.43,55.9,8.65l-.9-1-.76-.44-.73.13L53,7.75l-.44-1L52.1,5.05l-1.2-.39-1.36.25-1.18.3-.74.36.55,1-.73.49-1.61.53-.69.52.18,1.94,1.09,4.32,1.26,3.68.58,3.57.74,4-.28,1-.38,1.08-.52-.05-.46-.95-.69-1.66-1-1L43.53,22l-1.41-.66-1.44.18-1.17,1.25s-.19,1.35-.22,1.44a8.7,8.7,0,0,0,0,1l2.41.06,1.92.62L44.71,27s.69.77.72.82l.68,1.06.71,1.66.79,1L48,32.85l.41.51,1.76.28L52,33.57l1.59-.37L55,32.63l.37,0,.78,2.74s.4,2,.4,2Z"/><path class="cls-9" d="M57.57,44.34l.54.14.41,0c-.25-1.13-.51-2.25-.76-3.38l-1.92-8.63-.1-.46-.46.12c-.59.17-1.2.32-1.81.45s-1.21.26-1.82.36a16.54,16.54,0,0,1-1.82.19,6.12,6.12,0,0,1-.87,0,1.55,1.55,0,0,1-.57-.16c-.37-1-.78-2-1.23-2.93-.25-.5-.49-1-.78-1.48a8.71,8.71,0,0,0-1-1.42c-.09-.11-.21-.22-.32-.33s-.22-.19-.32-.29-.46-.35-.69-.51a8.6,8.6,0,0,0-1.52-.83,7.59,7.59,0,0,0-2.91-.58A5,5,0,0,1,40,22.82a1.89,1.89,0,0,1,.26-.39,1.66,1.66,0,0,1,.38-.32,1.74,1.74,0,0,1,.91-.31,2.62,2.62,0,0,1,1,.16,3.59,3.59,0,0,1,.51.2l.21.12.22.16a10.56,10.56,0,0,1,1.62,1.65A21.71,21.71,0,0,1,46.56,26a3.88,3.88,0,0,1,.27.46c.07.17.15.35.22.54s.16.39.26.59a1.93,1.93,0,0,0,.45.64l.11.08.14.07.18.05h.19a.53.53,0,0,0,.17,0l.15-.07a.85.85,0,0,0,.25-.26,2,2,0,0,0,.16-.4,2.33,2.33,0,0,0,.06-.35A7.85,7.85,0,0,0,49.24,26a20.35,20.35,0,0,0-.16-2.47L49,23c0-.21-.09-.43-.13-.62l-.29-1.18L48,18.8c-.39-1.57-.79-3.14-1.23-4.69S46,11,45.65,9.43c0-.2-.08-.39-.11-.58l0-.14V8.59h0s0-.06,0-.09V8.38a.4.4,0,0,1,.15-.24,1.52,1.52,0,0,1,.4-.25,5.49,5.49,0,0,1,1.06-.35l.57-.12.58-.1h.08l4,13.77-.57.18c-.33.1-.66.22-1,.33a9.37,9.37,0,0,0-.85.68c.37,0,.72,0,1.07-.05l1-.32c.64-.22,1.3-.4,2-.57s1.33-.31,2-.44l1-.17c.32-.15.64-.29,1-.46a6.74,6.74,0,0,0-1.07-.21l-.25,0L53.19,8.43,53.41,8l.06-.1.1-.1a.65.65,0,0,1,.23-.15.89.89,0,0,1,.56,0,1.54,1.54,0,0,1,.92.88c.06.12.09.23.14.35l.14.4.27.8.53,1.62,2.06,6.52,2.06,6.52c.35,1.08.69,2.16,1,3.25.07.27.14.54.2.8a1.47,1.47,0,0,1,0,.66,2.13,2.13,0,0,1-.78,1.14l-.23.19.08.28c.84,2.83,1.69,5.64,2.58,8.44.45,1.41.9,2.81,1.38,4.2,0,.16.11.31.16.46.31,0,.62,0,.93-.06l-.25-.69c-.47-1.38-.92-2.78-1.37-4.18-.85-2.7-1.68-5.42-2.49-8.14a2.91,2.91,0,0,0,.86-1.44,2.28,2.28,0,0,0,0-1c-.06-.3-.13-.57-.21-.85-.29-1.12-.63-2.21-1-3.3l-2-6.51-2.07-6.52-.53-1.63L56.4,9l-.14-.41c0-.14-.11-.3-.18-.45a3.07,3.07,0,0,0-.57-.81,2,2,0,0,0-.94-.54,1.77,1.77,0,0,0-.56,0,1.9,1.9,0,0,0-.56.13L53.24,7c-.09-.35-.18-.69-.29-1,0-.16-.08-.3-.14-.47a1.12,1.12,0,0,0-.05-.13l0,0a.21.21,0,0,0,0-.07.47.47,0,0,0-.06-.1s-.09-.13-.16-.21a1.66,1.66,0,0,0-.5-.38,2,2,0,0,0-.56-.19,5.11,5.11,0,0,0-2,.14,6.83,6.83,0,0,0-1,.28A4.84,4.84,0,0,0,48,5a1.49,1.49,0,0,0-.24.14l-.12.08-.07.05-.08.09-.19.2.12.28a1.86,1.86,0,0,1,.08.25l.09.31,0,.16-.13,0-.61.13a6.58,6.58,0,0,0-1.23.41,2.51,2.51,0,0,0-.62.4,1.38,1.38,0,0,0-.28.34,1.2,1.2,0,0,0-.15.45c0,.07,0,.14,0,.19v.06a.66.66,0,0,0,0,.14.28.28,0,0,0,0,.1v.08l0,.16c0,.21.07.41.11.61.34,1.59.71,3.16,1.13,4.73s.83,3.11,1.22,4.67l.58,2.35L48,22.53c0,.2.08.38.11.57a5.4,5.4,0,0,1,.09.58A20.61,20.61,0,0,1,48.35,26a8.35,8.35,0,0,1-.06,1.14,1.84,1.84,0,0,1,0,.25,2.6,2.6,0,0,1-.13-.24c-.08-.16-.15-.34-.23-.52s-.15-.37-.24-.58a5.21,5.21,0,0,0-.33-.58,22.56,22.56,0,0,0-1.47-2,12,12,0,0,0-1.77-1.79l-.28-.2-.31-.17a4.6,4.6,0,0,0-.61-.25,3.59,3.59,0,0,0-1.36-.2,2.62,2.62,0,0,0-1.35.45,3.37,3.37,0,0,0-.54.46,2.83,2.83,0,0,0-.4.62,4.68,4.68,0,0,0-.38,1.28,7.8,7.8,0,0,0-.1,1.28v.47l.48,0a6.58,6.58,0,0,1,3,.5,7.49,7.49,0,0,1,1.36.74c.21.14.42.3.62.46s.21.17.29.26a3.13,3.13,0,0,1,.25.26,8.7,8.7,0,0,1,.87,1.28c.27.45.51.94.74,1.42.46,1,.88,2,1.25,3l0,.11.09.07a1.69,1.69,0,0,0,.57.31,3.49,3.49,0,0,0,.54.12,6.93,6.93,0,0,0,1,0,15.55,15.55,0,0,0,1.94-.2c.63-.1,1.26-.23,1.88-.36.47-.11.93-.22,1.4-.35l1.82,8.18C57.12,42.29,57.34,43.31,57.57,44.34ZM48.41,5.75a2.54,2.54,0,0,1,.38-.16,6.71,6.71,0,0,1,.83-.25,4.49,4.49,0,0,1,1.64-.13,1,1,0,0,1,.56.28l.08.11.65,2.25,0,.08L52.88,9l3.24,11.18-.33.06c-.68.13-1.36.28-2,.45l-1,.27L48.45,6.11h0l-.09-.32h0Z"/><path class="cls-3" d="M58.21,24.33l-.87.9a5,5,0,0,0-2.5-.66,5.29,5.29,0,0,0-3.08,1.16,7,7,0,0,0-1.17,1.13l-.15.2.16.19a7.09,7.09,0,0,0,1.2,1.08,5.91,5.91,0,0,0,1.73.85l-.21.21.49.48.51-.52.66-.7L56.57,27l.36-.38.56-.58.44-.46.77-.79ZM56,26.66a1.12,1.12,0,0,0-1.87-.48l.57.61-.85-.12a1.14,1.14,0,0,0-.05.33,1.12,1.12,0,0,0,.85,1.06l-.43.44a1.69,1.69,0,0,1-1-1.49,1.54,1.54,0,0,1,0-.43l-.39,0a1.91,1.91,0,0,0,0,.48,2.09,2.09,0,0,0,.69,1.51,5.24,5.24,0,0,1-1.32-.69,6.21,6.21,0,0,1-.93-.79,7.3,7.3,0,0,1,.9-.82,5.11,5.11,0,0,1,1.3-.74l.26.29a1.68,1.68,0,0,1,2.68.45Zm.71-.74a1.91,1.91,0,0,0-.4-.49,3.87,3.87,0,0,1,.62.27Z"/><path d="M38.12,38.34a2.3,2.3,0,0,1-.75,1.82,2.55,2.55,0,0,1-1.77.67,2.51,2.51,0,0,1-1.76-.67,2.58,2.58,0,0,1,0-3.64,2.56,2.56,0,0,1,1.76-.67,2.6,2.6,0,0,1,1.77.67A2.3,2.3,0,0,1,38.12,38.34Zm-.4,19.16H33.51V42.64h4.21Z"/><path d="M46,54.48a4.16,4.16,0,0,0,1.63-.23.87.87,0,0,0,.49-.87,1.07,1.07,0,0,0-.63-.89,11,11,0,0,0-1.89-.86,18.13,18.13,0,0,1-1.79-.77,5.19,5.19,0,0,1-1.38-1,3.85,3.85,0,0,1-.87-1.31,4.82,4.82,0,0,1-.31-1.84,4,4,0,0,1,1.55-3.3A6.78,6.78,0,0,1,47,42.24a13.74,13.74,0,0,1,2.6.24,11.84,11.84,0,0,1,2,.53l-.74,3.27a15.1,15.1,0,0,0-1.59-.45,8.83,8.83,0,0,0-1.94-.2q-2,0-2,1.11a1.06,1.06,0,0,0,.09.45.91.91,0,0,0,.34.38,6.12,6.12,0,0,0,.69.4c.29.14.66.3,1.11.47a16.72,16.72,0,0,1,2.29,1,5.44,5.44,0,0,1,1.43,1.07A3.5,3.5,0,0,1,52,51.81a5.71,5.71,0,0,1,.21,1.63,3.75,3.75,0,0,1-1.66,3.33,8.24,8.24,0,0,1-4.67,1.13,13.33,13.33,0,0,1-3.3-.34A12.69,12.69,0,0,1,40.8,57l.71-3.42a13,13,0,0,0,2.2.67A10.81,10.81,0,0,0,46,54.48Z"/><path d="M54.68,50.07a8.75,8.75,0,0,1,.52-3,7.14,7.14,0,0,1,3.92-4.17,8,8,0,0,1,3.22-.62,10.44,10.44,0,0,1,2.17.21,11.08,11.08,0,0,1,1.93.61l-.88,3.36a10.51,10.51,0,0,0-1.3-.39,7,7,0,0,0-1.58-.17A3.36,3.36,0,0,0,59.89,47a4.78,4.78,0,0,0-.92,3,4.92,4.92,0,0,0,.87,3.11,3.61,3.61,0,0,0,3,1.1,9.73,9.73,0,0,0,1.64-.14,6.69,6.69,0,0,0,1.61-.45l.59,3.45a10.36,10.36,0,0,1-1.84.53,12.09,12.09,0,0,1-2.43.23,9.05,9.05,0,0,1-3.5-.61,6.28,6.28,0,0,1-3.8-4.12A10.33,10.33,0,0,1,54.68,50.07Z"/><path d="M74.15,42.24a9.52,9.52,0,0,1,3.11.43,4.76,4.76,0,0,1,2,1.21,4.41,4.41,0,0,1,1.06,1.92,9.45,9.45,0,0,1,.31,2.52v8.76c-.6.13-1.44.29-2.51.47a25.47,25.47,0,0,1-3.9.26,12.47,12.47,0,0,1-2.62-.25,5.84,5.84,0,0,1-2-.83,3.84,3.84,0,0,1-1.3-1.52,5.21,5.21,0,0,1-.45-2.28,4.33,4.33,0,0,1,.52-2.21,4.11,4.11,0,0,1,1.4-1.44,6.38,6.38,0,0,1,2-.78,11.28,11.28,0,0,1,2.35-.24c.54,0,1,0,1.45.07a6.19,6.19,0,0,1,1,.19v-.4a2.28,2.28,0,0,0-.65-1.72,3.1,3.1,0,0,0-2.26-.65,14.9,14.9,0,0,0-2.12.15,9.41,9.41,0,0,0-1.81.44L69.21,43c.24-.08.55-.16.91-.24s.77-.16,1.21-.23l1.37-.17C73.18,42.27,73.66,42.24,74.15,42.24Zm.34,12.32c.42,0,.81,0,1.19,0a7.72,7.72,0,0,0,.9-.09V51.26a7.25,7.25,0,0,0-.76-.12c-.34,0-.65,0-.93,0a7.92,7.92,0,0,0-1.12.07,3.1,3.1,0,0,0-.92.27,1.61,1.61,0,0,0-.62.53,1.52,1.52,0,0,0-.23.85,1.43,1.43,0,0,0,.67,1.37A3.6,3.6,0,0,0,74.49,54.56Z"/><path d="M98.26,50.07a11,11,0,0,1-.42,3.14,7.17,7.17,0,0,1-1.25,2.43,5.55,5.55,0,0,1-2,1.58,6.54,6.54,0,0,1-2.8.57,7.72,7.72,0,0,1-1.64-.17,9,9,0,0,1-1.47-.48v5.59H84.44V43.15c.38-.12.81-.22,1.3-.33s1-.19,1.54-.27,1.08-.13,1.64-.18,1.09-.07,1.6-.07a9,9,0,0,1,3.27.55,6.9,6.9,0,0,1,2.43,1.55,6.73,6.73,0,0,1,1.52,2.45A9.34,9.34,0,0,1,98.26,50.07Zm-4.3.11a5.11,5.11,0,0,0-.87-3.12,3,3,0,0,0-2.6-1.17c-.38,0-.73,0-1,0s-.58.06-.79.1v7.6a3.84,3.84,0,0,0,1,.43,5.12,5.12,0,0,0,1.29.16C93,54.22,94,52.88,94,50.18Z"/><path d="M106.85,42.24a9.56,9.56,0,0,1,3.11.43,4.76,4.76,0,0,1,2,1.21A4.41,4.41,0,0,1,113,45.8a9.45,9.45,0,0,1,.31,2.52v8.76c-.6.13-1.44.29-2.51.47a25.47,25.47,0,0,1-3.9.26,12.4,12.4,0,0,1-2.62-.25,5.84,5.84,0,0,1-2-.83,3.84,3.84,0,0,1-1.3-1.52,5.21,5.21,0,0,1-.45-2.28,4.33,4.33,0,0,1,.52-2.21,4.11,4.11,0,0,1,1.4-1.44,6.38,6.38,0,0,1,2-.78,11.19,11.19,0,0,1,2.34-.24c.55,0,1,0,1.46.07a6.19,6.19,0,0,1,1,.19v-.4a2.28,2.28,0,0,0-.65-1.72,3.12,3.12,0,0,0-2.26-.65,14.9,14.9,0,0,0-2.12.15,9.41,9.41,0,0,0-1.81.44L101.91,43c.24-.08.55-.16.91-.24s.77-.16,1.2-.23l1.38-.17C105.88,42.27,106.36,42.24,106.85,42.24Zm.34,12.32c.41,0,.81,0,1.19,0a7.72,7.72,0,0,0,.9-.09V51.26a7.25,7.25,0,0,0-.76-.12c-.34,0-.65,0-.93,0a7.92,7.92,0,0,0-1.12.07,3.1,3.1,0,0,0-.92.27,1.61,1.61,0,0,0-.62.53,1.52,1.52,0,0,0-.23.85,1.43,1.43,0,0,0,.67,1.37A3.6,3.6,0,0,0,107.19,54.56Z"/><path d="M116.43,50.07a8.75,8.75,0,0,1,.53-3,7,7,0,0,1,1.51-2.48,7.28,7.28,0,0,1,2.4-1.69,8,8,0,0,1,3.22-.62,10.54,10.54,0,0,1,2.18.21,10.72,10.72,0,0,1,1.92.61l-.88,3.36A10,10,0,0,0,126,46a7,7,0,0,0-1.58-.17A3.34,3.34,0,0,0,121.65,47a4.72,4.72,0,0,0-.92,3,5,5,0,0,0,.86,3.11,3.63,3.63,0,0,0,3,1.1,9.64,9.64,0,0,0,1.64-.14,6.69,6.69,0,0,0,1.61-.45l.59,3.45a10.49,10.49,0,0,1-1.83.53,12.23,12.23,0,0,1-2.43.23,9.07,9.07,0,0,1-3.51-.61,6.46,6.46,0,0,1-2.41-1.65,6.34,6.34,0,0,1-1.39-2.47A10.65,10.65,0,0,1,116.43,50.07Z"/><path d="M135.88,38.34a2.3,2.3,0,0,1-.75,1.82,2.67,2.67,0,0,1-3.54,0,2.61,2.61,0,0,1,0-3.64,2.67,2.67,0,0,1,3.54,0A2.3,2.3,0,0,1,135.88,38.34Zm-.4,19.16h-4.21V42.64h4.21Z"/><path d="M152.55,57c-.38.12-.81.22-1.3.33s-1,.19-1.54.27-1.08.13-1.64.18-1.09.07-1.59.07a9.28,9.28,0,0,1-3.28-.54,6.48,6.48,0,0,1-2.43-1.54,6.57,6.57,0,0,1-1.52-2.43,9.46,9.46,0,0,1-.52-3.2,11,11,0,0,1,.45-3.27,7.17,7.17,0,0,1,1.3-2.47,5.63,5.63,0,0,1,2.08-1.56,7.11,7.11,0,0,1,2.81-.53,6.24,6.24,0,0,1,1.57.17,8,8,0,0,1,1.4.48V36.25l4.21-.68ZM143,50a5.16,5.16,0,0,0,.87,3.13,3,3,0,0,0,2.6,1.19c.38,0,.73,0,1.05,0s.58-.06.79-.1V46.48a3.55,3.55,0,0,0-1-.42,4.71,4.71,0,0,0-1.29-.17C144,45.89,143,47.24,143,50Z"/><path d="M161.85,42.24a9.56,9.56,0,0,1,3.11.43,4.76,4.76,0,0,1,2,1.21A4.52,4.52,0,0,1,168,45.8a9.45,9.45,0,0,1,.31,2.52v8.76c-.6.13-1.44.29-2.51.47a25.47,25.47,0,0,1-3.9.26,12.4,12.4,0,0,1-2.62-.25,5.84,5.84,0,0,1-2-.83,3.84,3.84,0,0,1-1.3-1.52,5.21,5.21,0,0,1-.45-2.28,4.33,4.33,0,0,1,.52-2.21,4.11,4.11,0,0,1,1.4-1.44,6.29,6.29,0,0,1,2-.78,11.19,11.19,0,0,1,2.34-.24c.55,0,1,0,1.46.07a6.19,6.19,0,0,1,1,.19v-.4a2.32,2.32,0,0,0-.65-1.72,3.12,3.12,0,0,0-2.26-.65,14.9,14.9,0,0,0-2.12.15,9.41,9.41,0,0,0-1.81.44L156.9,43c.25-.08.56-.16.92-.24s.77-.16,1.2-.23l1.37-.17C160.88,42.27,161.36,42.24,161.85,42.24Zm.34,12.32c.41,0,.81,0,1.19,0a8,8,0,0,0,.9-.09V51.26a7.25,7.25,0,0,0-.76-.12c-.34,0-.65,0-.94,0a7.87,7.87,0,0,0-1.11.07,3,3,0,0,0-.92.27,1.61,1.61,0,0,0-.62.53,1.52,1.52,0,0,0-.23.85,1.43,1.43,0,0,0,.67,1.37A3.6,3.6,0,0,0,162.19,54.56Z"/><path d="M185.25,57c-.38.12-.81.22-1.3.33s-1,.19-1.54.27-1.08.13-1.64.18-1.09.07-1.59.07a9.28,9.28,0,0,1-3.28-.54,6.48,6.48,0,0,1-2.43-1.54A6.57,6.57,0,0,1,172,53.36a9.46,9.46,0,0,1-.52-3.2,11,11,0,0,1,.45-3.27,7.17,7.17,0,0,1,1.3-2.47,5.63,5.63,0,0,1,2.08-1.56,7.11,7.11,0,0,1,2.81-.53,6.24,6.24,0,0,1,1.57.17A8,8,0,0,1,181,43V36.25l4.21-.68ZM175.73,50a5.16,5.16,0,0,0,.87,3.13,3,3,0,0,0,2.6,1.19c.38,0,.73,0,1.05,0s.58-.06.79-.1V46.48a3.55,3.55,0,0,0-1-.42,4.66,4.66,0,0,0-1.29-.17C176.73,45.89,175.73,47.24,175.73,50Z"/><path d="M29.64,40.75a19.58,19.58,0,0,1-1.35,7.58,14,14,0,0,1-3.84,5.36,16.39,16.39,0,0,1-6.06,3.19,28.35,28.35,0,0,1-8,1.06c-1.35,0-2.93-.06-4.73-.17a38.89,38.89,0,0,1-5.32-.7V24.48a44.22,44.22,0,0,1,5.44-.66c1.88-.11,3.5-.17,4.85-.17a29.53,29.53,0,0,1,7.8,1,16.17,16.17,0,0,1,6,3A13.63,13.63,0,0,1,28.29,33,20.18,20.18,0,0,1,29.64,40.75ZM7.87,51.37c.35,0,.76.06,1.23.07s1,0,1.66,0q5.65,0,8.38-2.85t2.73-7.87q0-5.26-2.61-8T11,30.08l-1.59,0c-.55,0-1.06.06-1.54.12Z"/></svg>