<svg id="Capa_1" data-name="Capa 1" xmlns="http://www.w3.org/2000/svg" xmlns:xlink="http://www.w3.org/1999/xlink" viewBox="0 0 1920 200"><defs><style>.cls-1{fill:url(#Degradado_sin_nombre_10);}.cls-2{fill:#1f5427;}.cls-2,.cls-3{opacity:0.5;}.cls-4{fill:#2ea8e0;}.cls-5{fill:#43afe4;}.cls-6{fill:#56b4e6;}.cls-7{opacity:0.6;}.cls-8{fill:#62b7e7;}.cls-9{fill:#51b3e5;}.cls-10{fill:#5db4e6;}.cls-11{fill:#875d3b;}.cls-12{fill:#936540;}.cls-13{fill:#207632;}.cls-14{fill:#fff;opacity:0.1;}.cls-15{fill:#61b02f;}.cls-16{fill:#84bc43;}.cls-17{fill:#6fb02d;}.cls-18{fill:#5ca631;}.cls-19{fill:#54686a;}</style><linearGradient id="Degradado_sin_nombre_10" x1="960" y1="200" x2="960" gradientUnits="userSpaceOnUse"><stop offset="0" stop-color="#56c3f1"/><stop offset="1" stop-color="#fff"/></linearGradient></defs><title>background</title><g id="_Grupo_" data-name="&lt;Grupo&gt;"><rect id="_Trazado_" data-name="&lt;Trazado&gt;" class="cls-1" width="1920" height="200"/></g><circle id="_Trazado_2" data-name="&lt;Trazado&gt;" class="cls-2" cx="1070.63" cy="195.75" r="1.18"/><g id="_Grupo_2" data-name="&lt;Grupo&gt;" class="cls-3"><rect id="_Trazado_3" data-name="&lt;Trazado&gt;" class="cls-4" x="978.26" y="105.29" width="42.74" height="88.2"/><polygon id="_Trazado_4" data-name="&lt;Trazado&gt;" class="cls-5" points="975.3 78.7 975.3 74.76 956.12 74.76 956.12 83.45 952.21 84.42 952.21 193.51 979.2 193.51 979.2 77.73 975.3 78.7"/><polygon id="_Trazado_5" data-name="&lt;Trazado&gt;" class="cls-6" points="864.1 55.4 859.08 55.4 859.08 50.71 824.27 50.71 824.27 55.4 819.25 55.4 819.25 65.32 822.83 65.32 822.83 181.37 860.52 181.37 860.52 65.32 864.1 65.32 864.1 55.4"/><rect id="_Trazado_6" data-name="&lt;Trazado&gt;" class="cls-4" x="876.8" y="78.02" width="51.88" height="116.98"/><polygon id="_Trazado_7" data-name="&lt;Trazado&gt;" class="cls-4" points="845.62 91.39 802.41 104.45 802.41 195 845.62 195 845.62 91.39"/><rect id="_Trazado_8" data-name="&lt;Trazado&gt;" class="cls-4" x="832.26" y="87.71" width="1.75" height="11.34"/><rect id="_Trazado_9" data-name="&lt;Trazado&gt;" class="cls-4" x="827.95" y="87.22" width="1.75" height="13.67"/><rect id="_Trazado_10" data-name="&lt;Trazado&gt;" class="cls-5" x="764.52" y="69.74" width="43.21" height="125.26"/><polygon id="_Trazado_11" data-name="&lt;Trazado&gt;" class="cls-5" points="867.43 82.58 849.63 101.15 849.63 191.7 867.43 191.7 885.23 191.7 885.23 101.15 867.43 82.58"/><polygon id="_Trazado_12" data-name="&lt;Trazado&gt;" class="cls-6" points="771.52 120.81 715.03 120.81 715.03 130.72 721.38 130.72 721.38 194.48 765.17 194.48 765.17 130.72 771.52 130.72 771.52 120.81"/><polygon id="_Trazado_13" data-name="&lt;Trazado&gt;" class="cls-6" points="737.11 123.57 721.17 123.57 721.17 113.47 737.11 118.52 737.11 123.57"/><polygon id="_Trazado_14" data-name="&lt;Trazado&gt;" class="cls-5" points="801.82 73.76 771.56 73.76 771.56 64.58 801.82 59.8 801.82 73.76"/><polygon id="_Trazado_15" data-name="&lt;Trazado&gt;" class="cls-6" points="853.42 121.88 853.42 116.04 835.35 116.04 835.35 121.88 831.6 121.88 831.6 185.82 857.17 185.82 857.17 121.88 853.42 121.88"/><polygon id="_Trazado_16" data-name="&lt;Trazado&gt;" class="cls-6" points="957.28 193.51 918.61 193.51 918.61 109.7 957.28 117.65 957.28 193.51"/><rect id="_Trazado_17" data-name="&lt;Trazado&gt;" class="cls-6" x="932.1" y="107.55" width="19.68" height="14.83"/><g id="_Grupo_3" data-name="&lt;Grupo&gt;" class="cls-7"><rect id="_Trazado_18" data-name="&lt;Trazado&gt;" class="cls-8" x="924.93" y="123.69" width="3.19" height="2.91"/><rect id="_Trazado_19" data-name="&lt;Trazado&gt;" class="cls-8" x="924.93" y="129.46" width="3.19" height="2.91"/><rect id="_Trazado_20" data-name="&lt;Trazado&gt;" class="cls-8" x="930.38" y="123.69" width="3.2" height="2.91"/><rect id="_Trazado_21" data-name="&lt;Trazado&gt;" class="cls-8" x="930.38" y="135.22" width="3.2" height="2.91"/><rect id="_Trazado_22" data-name="&lt;Trazado&gt;" class="cls-8" x="935.89" y="146.34" width="3.19" height="2.91"/><rect id="_Trazado_23" data-name="&lt;Trazado&gt;" class="cls-8" x="941.33" y="146.34" width="3.2" height="2.91"/><rect id="_Trazado_24" data-name="&lt;Trazado&gt;" class="cls-8" x="941.33" y="152.1" width="3.2" height="2.91"/><rect id="_Trazado_25" data-name="&lt;Trazado&gt;" class="cls-8" x="946.78" y="140.57" width="3.2" height="2.91"/><rect id="_Trazado_26" data-name="&lt;Trazado&gt;" class="cls-8" x="955.77" y="88.45" width="2.45" height="1.5"/><rect id="_Trazado_27" data-name="&lt;Trazado&gt;" class="cls-8" x="961.52" y="88.45" width="2.45" height="1.5"/><rect id="_Trazado_28" data-name="&lt;Trazado&gt;" class="cls-8" x="961.52" y="93.3" width="2.45" height="1.5"/><rect id="_Trazado_29" data-name="&lt;Trazado&gt;" class="cls-9" x="887.41" y="88.81" width="4.04" height="2.22"/><rect id="_Trazado_30" data-name="&lt;Trazado&gt;" class="cls-9" x="901.83" y="88.81" width="4.04" height="2.22"/><rect id="_Trazado_31" data-name="&lt;Trazado&gt;" class="cls-9" x="908.1" y="88.81" width="4.04" height="2.22"/><rect id="_Trazado_32" data-name="&lt;Trazado&gt;" class="cls-9" x="895.35" y="97.94" width="4.04" height="2.22"/><rect id="_Trazado_33" data-name="&lt;Trazado&gt;" class="cls-9" x="813.54" y="110.45" width="4.04" height="2.22"/><rect id="_Trazado_34" data-name="&lt;Trazado&gt;" class="cls-9" x="813.54" y="142.08" width="4.04" height="2.22"/><rect id="_Trazado_35" data-name="&lt;Trazado&gt;" class="cls-9" x="820.44" y="110.45" width="4.04" height="2.22"/><rect id="_Trazado_36" data-name="&lt;Trazado&gt;" class="cls-9" x="813.54" y="116.04" width="4.04" height="2.22"/><rect id="_Trazado_37" data-name="&lt;Trazado&gt;" class="cls-9" x="820.44" y="116.04" width="4.04" height="2.22"/><rect id="_Trazado_38" data-name="&lt;Trazado&gt;" class="cls-9" x="813.54" y="121.63" width="4.04" height="2.22"/><rect id="_Trazado_39" data-name="&lt;Trazado&gt;" class="cls-9" x="820.44" y="132.17" width="4.04" height="2.22"/><rect id="_Trazado_40" data-name="&lt;Trazado&gt;" class="cls-9" x="820.44" y="137.16" width="4.04" height="2.22"/><rect id="_Trazado_41" data-name="&lt;Trazado&gt;" class="cls-9" x="820.44" y="153.29" width="4.04" height="2.22"/><rect id="_Trazado_42" data-name="&lt;Trazado&gt;" class="cls-9" x="827.33" y="110.45" width="4.04" height="2.22"/><rect id="_Trazado_43" data-name="&lt;Trazado&gt;" class="cls-9" x="834.23" y="110.45" width="4.04" height="2.22"/><rect id="_Trazado_44" data-name="&lt;Trazado&gt;" class="cls-9" x="910.12" y="99.78" width="4.04" height="2.22"/><rect id="_Trazado_45" data-name="&lt;Trazado&gt;" class="cls-9" x="893.33" y="114.93" width="4.04" height="2.22"/><rect id="_Trazado_46" data-name="&lt;Trazado&gt;" class="cls-9" x="916.26" y="88.81" width="4.04" height="2.22"/><rect id="_Trazado_47" data-name="&lt;Trazado&gt;" class="cls-9" x="916.26" y="82.58" width="4.04" height="2.22"/><rect id="_Trazado_48" data-name="&lt;Trazado&gt;" class="cls-9" x="910.12" y="82.58" width="4.04" height="2.22"/><rect id="_Trazado_49" data-name="&lt;Trazado&gt;" class="cls-8" x="961.52" y="113.01" width="2.45" height="1.5"/><rect id="_Trazado_50" data-name="&lt;Trazado&gt;" class="cls-8" x="967.26" y="88.45" width="2.45" height="1.5"/><rect id="_Trazado_51" data-name="&lt;Trazado&gt;" class="cls-8" x="966.52" y="107.55" width="2.45" height="1.5"/><rect id="_Trazado_52" data-name="&lt;Trazado&gt;" class="cls-8" x="966.52" y="103.13" width="2.45" height="1.5"/><rect id="_Trazado_53" data-name="&lt;Trazado&gt;" class="cls-8" x="972.03" y="103.13" width="2.45" height="1.5"/><rect id="_Trazado_54" data-name="&lt;Trazado&gt;" class="cls-8" x="935.82" y="129.46" width="3.2" height="2.91"/><rect id="_Trazado_55" data-name="&lt;Trazado&gt;" class="cls-10" x="853.64" y="106.09" width="3.52" height="2.91"/><rect id="_Trazado_56" data-name="&lt;Trazado&gt;" class="cls-10" x="858.86" y="106.09" width="3.52" height="2.91"/><rect id="_Trazado_57" data-name="&lt;Trazado&gt;" class="cls-10" x="858.86" y="111.55" width="3.52" height="2.91"/><rect id="_Trazado_58" data-name="&lt;Trazado&gt;" class="cls-10" x="864.08" y="106.09" width="3.52" height="2.91"/><rect id="_Trazado_59" data-name="&lt;Trazado&gt;" class="cls-10" x="773.59" y="82.23" width="3.52" height="2.91"/><rect id="_Trazado_60" data-name="&lt;Trazado&gt;" class="cls-10" x="771.44" y="100.54" width="3.52" height="2.91"/><rect id="_Trazado_61" data-name="&lt;Trazado&gt;" class="cls-10" x="782.02" y="82.23" width="3.52" height="2.91"/><rect id="_Trazado_62" data-name="&lt;Trazado&gt;" class="cls-10" x="782.02" y="88.5" width="3.52" height="2.91"/><rect id="_Trazado_63" data-name="&lt;Trazado&gt;" class="cls-10" x="793.88" y="108.25" width="3.52" height="2.91"/><rect id="_Trazado_64" data-name="&lt;Trazado&gt;" class="cls-10" x="782.02" y="94.77" width="3.52" height="2.91"/><rect id="_Trazado_65" data-name="&lt;Trazado&gt;" class="cls-10" x="782.02" y="101.04" width="3.52" height="2.91"/><rect id="_Trazado_66" data-name="&lt;Trazado&gt;" class="cls-10" x="790.45" y="82.23" width="3.52" height="2.91"/><rect id="_Trazado_67" data-name="&lt;Trazado&gt;" class="cls-10" x="790.45" y="91.84" width="3.52" height="2.91"/><rect id="_Trazado_68" data-name="&lt;Trazado&gt;" class="cls-10" x="800.06" y="76.56" width="3.52" height="2.91"/><rect id="_Trazado_69" data-name="&lt;Trazado&gt;" class="cls-10" x="868.25" y="126.94" width="3.52" height="2.91"/><rect id="_Trazado_70" data-name="&lt;Trazado&gt;" class="cls-10" x="873.46" y="121.47" width="3.52" height="2.91"/><rect id="_Trazado_71" data-name="&lt;Trazado&gt;" class="cls-10" x="874.35" y="134.32" width="3.52" height="2.91"/><rect id="_Trazado_72" data-name="&lt;Trazado&gt;" class="cls-8" x="834.67" y="128" width="4.44" height="2.91"/><rect id="_Trazado_73" data-name="&lt;Trazado&gt;" class="cls-8" x="724.93" y="127.99" width="3.85" height="1.88"/><rect id="_Trazado_74" data-name="&lt;Trazado&gt;" class="cls-8" x="731.39" y="127.99" width="3.85" height="1.88"/><rect id="_Trazado_75" data-name="&lt;Trazado&gt;" class="cls-8" x="724.93" y="138.65" width="3.85" height="1.88"/><rect id="_Trazado_76" data-name="&lt;Trazado&gt;" class="cls-8" x="731.39" y="152.09" width="3.85" height="1.88"/><rect id="_Trazado_77" data-name="&lt;Trazado&gt;" class="cls-8" x="737.84" y="127.99" width="3.85" height="1.88"/><rect id="_Trazado_78" data-name="&lt;Trazado&gt;" class="cls-8" x="737.84" y="134.28" width="3.85" height="1.88"/><rect id="_Trazado_79" data-name="&lt;Trazado&gt;" class="cls-8" x="757.01" y="128.52" width="3.85" height="1.88"/><rect id="_Trazado_80" data-name="&lt;Trazado&gt;" class="cls-8" x="747.58" y="136.29" width="3.85" height="1.88"/><rect id="_Trazado_81" data-name="&lt;Trazado&gt;" class="cls-8" x="749.05" y="127.99" width="3.85" height="1.88"/><rect id="_Trazado_82" data-name="&lt;Trazado&gt;" class="cls-8" x="730.44" y="142.54" width="3.85" height="1.88"/><rect id="_Trazado_83" data-name="&lt;Trazado&gt;" class="cls-8" x="844.8" y="128" width="4.44" height="2.91"/><rect id="_Trazado_84" data-name="&lt;Trazado&gt;" class="cls-8" x="843.86" y="140.57" width="4.44" height="2.91"/><rect id="_Trazado_85" data-name="&lt;Trazado&gt;" class="cls-8" x="836.89" y="149.47" width="4.44" height="2.91"/><rect id="_Trazado_86" data-name="&lt;Trazado&gt;" class="cls-8" x="843.86" y="147.79" width="4.44" height="2.91"/><rect id="_Trazado_87" data-name="&lt;Trazado&gt;" class="cls-8" x="835.2" y="134.72" width="4.44" height="2.91"/><rect id="_Trazado_88" data-name="&lt;Trazado&gt;" class="cls-8" x="843.86" y="134.72" width="4.44" height="2.91"/><rect id="_Trazado_89" data-name="&lt;Trazado&gt;" class="cls-8" x="827.48" y="58.35" width="6.75" height="2.91"/><rect id="_Trazado_90" data-name="&lt;Trazado&gt;" class="cls-8" x="836.27" y="58.35" width="6.75" height="2.91"/><rect id="_Trazado_91" data-name="&lt;Trazado&gt;" class="cls-8" x="836.27" y="82.23" width="6.75" height="2.91"/><rect id="_Trazado_92" data-name="&lt;Trazado&gt;" class="cls-8" x="836.27" y="70.79" width="6.75" height="2.91"/><rect id="_Trazado_93" data-name="&lt;Trazado&gt;" class="cls-8" x="826.32" y="70.79" width="6.75" height="2.91"/><rect id="_Trazado_94" data-name="&lt;Trazado&gt;" class="cls-8" x="845.86" y="75.81" width="6.75" height="2.91"/><rect id="_Trazado_95" data-name="&lt;Trazado&gt;" class="cls-8" x="835.76" y="75.81" width="6.75" height="2.91"/><rect id="_Trazado_96" data-name="&lt;Trazado&gt;" class="cls-8" x="845.86" y="58.35" width="6.75" height="2.91"/><rect id="_Trazado_97" data-name="&lt;Trazado&gt;" class="cls-8" x="844.8" y="64.17" width="6.75" height="2.91"/><rect id="_Trazado_98" data-name="&lt;Trazado&gt;" class="cls-8" x="935.82" y="135.22" width="3.2" height="2.91"/></g><g id="_Grupo_4" data-name="&lt;Grupo&gt;" class="cls-7"><rect id="_Trazado_99" data-name="&lt;Trazado&gt;" class="cls-9" x="996.9" y="111.7" width="4.04" height="2.22"/><rect id="_Trazado_100" data-name="&lt;Trazado&gt;" class="cls-9" x="1004.04" y="111.7" width="4.04" height="2.22"/><rect id="_Trazado_101" data-name="&lt;Trazado&gt;" class="cls-9" x="1004.04" y="116.98" width="4.04" height="2.22"/><rect id="_Trazado_102" data-name="&lt;Trazado&gt;" class="cls-9" x="1011.18" y="111.7" width="4.04" height="2.22"/><rect id="_Trazado_103" data-name="&lt;Trazado&gt;" class="cls-9" x="1011.18" y="124.47" width="4.04" height="2.22"/><rect id="_Trazado_104" data-name="&lt;Trazado&gt;" class="cls-9" x="1011.18" y="129.31" width="4.04" height="2.22"/><rect id="_Trazado_105" data-name="&lt;Trazado&gt;" class="cls-9" x="996.2" y="125.79" width="4.04" height="2.22"/></g><rect id="_Trazado_106" data-name="&lt;Trazado&gt;" class="cls-4" x="998.68" y="99.81" width="18.16" height="7.45"/></g><g id="_Grupo_5" data-name="&lt;Grupo&gt;" class="cls-3"><rect id="_Trazado_107" data-name="&lt;Trazado&gt;" class="cls-4" x="1257.08" y="105.29" width="42.74" height="88.2"/><polygon id="_Trazado_108" data-name="&lt;Trazado&gt;" class="cls-5" points="1254.12 78.7 1254.12 74.76 1234.94 74.76 1234.94 83.45 1231.04 84.42 1231.04 193.51 1258.02 193.51 1258.02 77.73 1254.12 78.7"/><polygon id="_Trazado_109" data-name="&lt;Trazado&gt;" class="cls-6" points="1142.93 55.4 1137.9 55.4 1137.9 50.71 1103.09 50.71 1103.09 55.4 1098.07 55.4 1098.07 65.32 1101.65 65.32 1101.65 181.37 1139.35 181.37 1139.35 65.32 1142.93 65.32 1142.93 55.4"/><rect id="_Trazado_110" data-name="&lt;Trazado&gt;" class="cls-4" x="1155.63" y="78.02" width="51.88" height="116.98"/><polygon id="_Trazado_111" data-name="&lt;Trazado&gt;" class="cls-4" points="1124.44 91.39 1081.23 104.45 1081.23 195 1124.44 195 1124.44 91.39"/><rect id="_Trazado_112" data-name="&lt;Trazado&gt;" class="cls-4" x="1111.08" y="87.71" width="1.75" height="11.34"/><rect id="_Trazado_113" data-name="&lt;Trazado&gt;" class="cls-4" x="1106.77" y="87.22" width="1.75" height="13.67"/><rect id="_Trazado_114" data-name="&lt;Trazado&gt;" class="cls-5" x="1043.34" y="69.74" width="43.21" height="125.26"/><polygon id="_Trazado_115" data-name="&lt;Trazado&gt;" class="cls-5" points="1146.25 82.58 1128.45 101.15 1128.45 191.7 1146.25 191.7 1164.05 191.7 1164.05 101.15 1146.25 82.58"/><polygon id="_Trazado_116" data-name="&lt;Trazado&gt;" class="cls-6" points="1050.35 120.81 993.86 120.81 993.86 130.72 1000.2 130.72 1000.2 194.48 1044 194.48 1044 130.72 1050.35 130.72 1050.35 120.81"/><polygon id="_Trazado_117" data-name="&lt;Trazado&gt;" class="cls-6" points="1015.93 123.57 999.99 123.57 999.99 113.47 1015.93 118.52 1015.93 123.57"/><polygon id="_Trazado_118" data-name="&lt;Trazado&gt;" class="cls-5" points="1080.65 73.76 1050.38 73.76 1050.38 64.58 1080.65 59.8 1080.65 73.76"/><polygon id="_Trazado_119" data-name="&lt;Trazado&gt;" class="cls-6" points="1132.24 121.88 1132.24 116.04 1114.18 116.04 1114.18 121.88 1110.43 121.88 1110.43 185.82 1135.99 185.82 1135.99 121.88 1132.24 121.88"/><polygon id="_Trazado_120" data-name="&lt;Trazado&gt;" class="cls-6" points="1236.1 193.51 1197.43 193.51 1197.43 109.7 1236.1 117.65 1236.1 193.51"/><rect id="_Trazado_121" data-name="&lt;Trazado&gt;" class="cls-6" x="1210.92" y="107.55" width="19.68" height="14.83"/><g id="_Grupo_6" data-name="&lt;Grupo&gt;" class="cls-7"><rect id="_Trazado_122" data-name="&lt;Trazado&gt;" class="cls-8" x="1203.75" y="123.69" width="3.19" height="2.91"/><rect id="_Trazado_123" data-name="&lt;Trazado&gt;" class="cls-8" x="1203.75" y="129.46" width="3.19" height="2.91"/><rect id="_Trazado_124" data-name="&lt;Trazado&gt;" class="cls-8" x="1209.2" y="123.69" width="3.2" height="2.91"/><rect id="_Trazado_125" data-name="&lt;Trazado&gt;" class="cls-8" x="1209.2" y="135.22" width="3.2" height="2.91"/><rect id="_Trazado_126" data-name="&lt;Trazado&gt;" class="cls-8" x="1214.71" y="146.34" width="3.19" height="2.91"/><rect id="_Trazado_127" data-name="&lt;Trazado&gt;" class="cls-8" x="1220.15" y="146.34" width="3.2" height="2.91"/><rect id="_Trazado_128" data-name="&lt;Trazado&gt;" class="cls-8" x="1220.15" y="152.1" width="3.2" height="2.91"/><rect id="_Trazado_129" data-name="&lt;Trazado&gt;" class="cls-8" x="1225.6" y="140.57" width="3.2" height="2.91"/><rect id="_Trazado_130" data-name="&lt;Trazado&gt;" class="cls-8" x="1234.59" y="88.45" width="2.45" height="1.5"/><rect id="_Trazado_131" data-name="&lt;Trazado&gt;" class="cls-8" x="1240.34" y="88.45" width="2.45" height="1.5"/><rect id="_Trazado_132" data-name="&lt;Trazado&gt;" class="cls-8" x="1240.34" y="93.3" width="2.45" height="1.5"/><rect id="_Trazado_133" data-name="&lt;Trazado&gt;" class="cls-9" x="1166.23" y="88.81" width="4.04" height="2.22"/><rect id="_Trazado_134" data-name="&lt;Trazado&gt;" class="cls-9" x="1180.66" y="88.81" width="4.04" height="2.22"/><rect id="_Trazado_135" data-name="&lt;Trazado&gt;" class="cls-9" x="1186.92" y="88.81" width="4.04" height="2.22"/><rect id="_Trazado_136" data-name="&lt;Trazado&gt;" class="cls-9" x="1174.17" y="97.94" width="4.04" height="2.22"/><rect id="_Trazado_137" data-name="&lt;Trazado&gt;" class="cls-9" x="1092.37" y="110.45" width="4.04" height="2.22"/><rect id="_Trazado_138" data-name="&lt;Trazado&gt;" class="cls-9" x="1092.37" y="142.08" width="4.04" height="2.22"/><rect id="_Trazado_139" data-name="&lt;Trazado&gt;" class="cls-9" x="1099.26" y="110.45" width="4.04" height="2.22"/><rect id="_Trazado_140" data-name="&lt;Trazado&gt;" class="cls-9" x="1092.37" y="116.04" width="4.04" height="2.22"/><rect id="_Trazado_141" data-name="&lt;Trazado&gt;" class="cls-9" x="1099.26" y="116.04" width="4.04" height="2.22"/><rect id="_Trazado_142" data-name="&lt;Trazado&gt;" class="cls-9" x="1092.37" y="121.63" width="4.04" height="2.22"/><rect id="_Trazado_143" data-name="&lt;Trazado&gt;" class="cls-9" x="1099.26" y="132.17" width="4.04" height="2.22"/><rect id="_Trazado_144" data-name="&lt;Trazado&gt;" class="cls-9" x="1099.26" y="137.16" width="4.04" height="2.22"/><rect id="_Trazado_145" data-name="&lt;Trazado&gt;" class="cls-9" x="1099.26" y="153.29" width="4.04" height="2.22"/><rect id="_Trazado_146" data-name="&lt;Trazado&gt;" class="cls-9" x="1106.16" y="110.45" width="4.04" height="2.22"/><rect id="_Trazado_147" data-name="&lt;Trazado&gt;" class="cls-9" x="1113.05" y="110.45" width="4.04" height="2.22"/><rect id="_Trazado_148" data-name="&lt;Trazado&gt;" class="cls-9" x="1188.94" y="99.78" width="4.04" height="2.22"/><rect id="_Trazado_149" data-name="&lt;Trazado&gt;" class="cls-9" x="1172.15" y="114.93" width="4.04" height="2.22"/><rect id="_Trazado_150" data-name="&lt;Trazado&gt;" class="cls-9" x="1195.08" y="88.81" width="4.04" height="2.22"/><rect id="_Trazado_151" data-name="&lt;Trazado&gt;" class="cls-9" x="1195.08" y="82.58" width="4.04" height="2.22"/><rect id="_Trazado_152" data-name="&lt;Trazado&gt;" class="cls-9" x="1188.94" y="82.58" width="4.04" height="2.22"/><rect id="_Trazado_153" data-name="&lt;Trazado&gt;" class="cls-8" x="1240.34" y="113.01" width="2.45" height="1.5"/><rect id="_Trazado_154" data-name="&lt;Trazado&gt;" class="cls-8" x="1246.09" y="88.45" width="2.45" height="1.5"/><rect id="_Trazado_155" data-name="&lt;Trazado&gt;" class="cls-8" x="1245.35" y="107.55" width="2.45" height="1.5"/><rect id="_Trazado_156" data-name="&lt;Trazado&gt;" class="cls-8" x="1245.35" y="103.13" width="2.45" height="1.5"/><rect id="_Trazado_157" data-name="&lt;Trazado&gt;" class="cls-8" x="1250.85" y="103.13" width="2.45" height="1.5"/><rect id="_Trazado_158" data-name="&lt;Trazado&gt;" class="cls-8" x="1214.64" y="129.46" width="3.2" height="2.91"/><rect id="_Trazado_159" data-name="&lt;Trazado&gt;" class="cls-10" x="1132.47" y="106.09" width="3.52" height="2.91"/><rect id="_Trazado_160" data-name="&lt;Trazado&gt;" class="cls-10" x="1137.68" y="106.09" width="3.52" height="2.91"/><rect id="_Trazado_161" data-name="&lt;Trazado&gt;" class="cls-10" x="1137.68" y="111.55" width="3.52" height="2.91"/><rect id="_Trazado_162" data-name="&lt;Trazado&gt;" class="cls-10" x="1142.9" y="106.09" width="3.52" height="2.91"/><rect id="_Trazado_163" data-name="&lt;Trazado&gt;" class="cls-10" x="1052.42" y="82.23" width="3.52" height="2.91"/><rect id="_Trazado_164" data-name="&lt;Trazado&gt;" class="cls-10" x="1050.26" y="100.54" width="3.52" height="2.91"/><rect id="_Trazado_165" data-name="&lt;Trazado&gt;" class="cls-10" x="1060.84" y="82.23" width="3.52" height="2.91"/><rect id="_Trazado_166" data-name="&lt;Trazado&gt;" class="cls-10" x="1060.84" y="88.5" width="3.52" height="2.91"/><rect id="_Trazado_167" data-name="&lt;Trazado&gt;" class="cls-10" x="1072.71" y="108.25" width="3.52" height="2.91"/><rect id="_Trazado_168" data-name="&lt;Trazado&gt;" class="cls-10" x="1060.84" y="94.77" width="3.52" height="2.91"/><rect id="_Trazado_169" data-name="&lt;Trazado&gt;" class="cls-10" x="1060.84" y="101.04" width="3.52" height="2.91"/><rect id="_Trazado_170" data-name="&lt;Trazado&gt;" class="cls-10" x="1069.27" y="82.23" width="3.52" height="2.91"/><rect id="_Trazado_171" data-name="&lt;Trazado&gt;" class="cls-10" x="1069.27" y="91.84" width="3.52" height="2.91"/><rect id="_Trazado_172" data-name="&lt;Trazado&gt;" class="cls-10" x="1078.89" y="76.56" width="3.52" height="2.91"/><rect id="_Trazado_173" data-name="&lt;Trazado&gt;" class="cls-10" x="1147.07" y="126.94" width="3.52" height="2.91"/><rect id="_Trazado_174" data-name="&lt;Trazado&gt;" class="cls-10" x="1152.29" y="121.47" width="3.52" height="2.91"/><rect id="_Trazado_175" data-name="&lt;Trazado&gt;" class="cls-10" x="1153.17" y="134.32" width="3.52" height="2.91"/><rect id="_Trazado_176" data-name="&lt;Trazado&gt;" class="cls-8" x="1113.5" y="128" width="4.44" height="2.91"/><rect id="_Trazado_177" data-name="&lt;Trazado&gt;" class="cls-8" x="1003.76" y="127.99" width="3.85" height="1.88"/><rect id="_Trazado_178" data-name="&lt;Trazado&gt;" class="cls-8" x="1010.21" y="127.99" width="3.85" height="1.88"/><rect id="_Trazado_179" data-name="&lt;Trazado&gt;" class="cls-8" x="1003.76" y="138.65" width="3.85" height="1.88"/><rect id="_Trazado_180" data-name="&lt;Trazado&gt;" class="cls-8" x="1010.21" y="152.09" width="3.85" height="1.88"/><rect id="_Trazado_181" data-name="&lt;Trazado&gt;" class="cls-8" x="1016.67" y="127.99" width="3.85" height="1.88"/><rect id="_Trazado_182" data-name="&lt;Trazado&gt;" class="cls-8" x="1016.67" y="134.28" width="3.85" height="1.88"/><rect id="_Trazado_183" data-name="&lt;Trazado&gt;" class="cls-8" x="1035.83" y="128.52" width="3.85" height="1.88"/><rect id="_Trazado_184" data-name="&lt;Trazado&gt;" class="cls-8" x="1026.41" y="136.29" width="3.85" height="1.88"/><rect id="_Trazado_185" data-name="&lt;Trazado&gt;" class="cls-8" x="1027.88" y="127.99" width="3.85" height="1.88"/><rect id="_Trazado_186" data-name="&lt;Trazado&gt;" class="cls-8" x="1009.27" y="142.54" width="3.85" height="1.88"/><rect id="_Trazado_187" data-name="&lt;Trazado&gt;" class="cls-8" x="1123.62" y="128" width="4.44" height="2.91"/><rect id="_Trazado_188" data-name="&lt;Trazado&gt;" class="cls-8" x="1122.68" y="140.57" width="4.44" height="2.91"/><rect id="_Trazado_189" data-name="&lt;Trazado&gt;" class="cls-8" x="1115.72" y="149.47" width="4.44" height="2.91"/><rect id="_Trazado_190" data-name="&lt;Trazado&gt;" class="cls-8" x="1122.68" y="147.79" width="4.44" height="2.91"/><rect id="_Trazado_191" data-name="&lt;Trazado&gt;" class="cls-8" x="1114.03" y="134.72" width="4.44" height="2.91"/><rect id="_Trazado_192" data-name="&lt;Trazado&gt;" class="cls-8" x="1122.68" y="134.72" width="4.44" height="2.91"/><rect id="_Trazado_193" data-name="&lt;Trazado&gt;" class="cls-8" x="1106.3" y="58.35" width="6.75" height="2.91"/><rect id="_Trazado_194" data-name="&lt;Trazado&gt;" class="cls-8" x="1115.09" y="58.35" width="6.75" height="2.91"/><rect id="_Trazado_195" data-name="&lt;Trazado&gt;" class="cls-8" x="1115.09" y="82.23" width="6.75" height="2.91"/><rect id="_Trazado_196" data-name="&lt;Trazado&gt;" class="cls-8" x="1115.09" y="70.79" width="6.75" height="2.91"/><rect id="_Trazado_197" data-name="&lt;Trazado&gt;" class="cls-8" x="1105.14" y="70.79" width="6.75" height="2.91"/><rect id="_Trazado_198" data-name="&lt;Trazado&gt;" class="cls-8" x="1124.69" y="75.81" width="6.75" height="2.91"/><rect id="_Trazado_199" data-name="&lt;Trazado&gt;" class="cls-8" x="1114.58" y="75.81" width="6.75" height="2.91"/><rect id="_Trazado_200" data-name="&lt;Trazado&gt;" class="cls-8" x="1124.69" y="58.35" width="6.75" height="2.91"/><rect id="_Trazado_201" data-name="&lt;Trazado&gt;" class="cls-8" x="1123.62" y="64.17" width="6.75" height="2.91"/><rect id="_Trazado_202" data-name="&lt;Trazado&gt;" class="cls-8" x="1214.64" y="135.22" width="3.2" height="2.91"/></g><g id="_Grupo_7" data-name="&lt;Grupo&gt;" class="cls-7"><rect id="_Trazado_203" data-name="&lt;Trazado&gt;" class="cls-9" x="1275.72" y="111.7" width="4.04" height="2.22"/><rect id="_Trazado_204" data-name="&lt;Trazado&gt;" class="cls-9" x="1282.86" y="111.7" width="4.04" height="2.22"/><rect id="_Trazado_205" data-name="&lt;Trazado&gt;" class="cls-9" x="1282.86" y="116.98" width="4.04" height="2.22"/><rect id="_Trazado_206" data-name="&lt;Trazado&gt;" class="cls-9" x="1290" y="111.7" width="4.04" height="2.22"/><rect id="_Trazado_207" data-name="&lt;Trazado&gt;" class="cls-9" x="1290" y="124.47" width="4.04" height="2.22"/><rect id="_Trazado_208" data-name="&lt;Trazado&gt;" class="cls-9" x="1290" y="129.31" width="4.04" height="2.22"/><rect id="_Trazado_209" data-name="&lt;Trazado&gt;" class="cls-9" x="1275.03" y="125.79" width="4.04" height="2.22"/></g><rect id="_Trazado_210" data-name="&lt;Trazado&gt;" class="cls-4" x="1277.5" y="99.81" width="18.16" height="7.45"/></g><g id="_Grupo_8" data-name="&lt;Grupo&gt;"><g id="_Grupo_9" data-name="&lt;Grupo&gt;"><rect id="_Trazado_211" data-name="&lt;Trazado&gt;" class="cls-11" x="983.21" y="157.02" width="2.4" height="11.79"/><rect id="_Trazado_212" data-name="&lt;Trazado&gt;" class="cls-12" x="983.21" y="157.02" width="1.2" height="11.79"/></g><path id="_Trazado_213" data-name="&lt;Trazado&gt;" class="cls-13" d="M984.41,120s-9.72,21.59-9.24,29.71,9.24,9.2,9.24,9.2,8.76-1.09,9.24-9.2S984.41,120,984.41,120Z"/><path id="_Trazado_214" data-name="&lt;Trazado&gt;" class="cls-14" d="M975.17,149.69a9.28,9.28,0,0,0,1.2,4.15,10.15,10.15,0,0,0,2.61.94s8.76-1.45,9.24-12.3c.22-5.06-1.77-14-4-22.16C983,123.09,974.73,142.17,975.17,149.69Z"/></g><g id="_Grupo_10" data-name="&lt;Grupo&gt;"><g id="_Grupo_11" data-name="&lt;Grupo&gt;"><rect id="_Trazado_215" data-name="&lt;Trazado&gt;" class="cls-11" x="748.35" y="155.6" width="3.05" height="14.95"/><rect id="_Trazado_216" data-name="&lt;Trazado&gt;" class="cls-12" x="748.35" y="155.6" width="1.52" height="14.95"/></g><path id="_Trazado_217" data-name="&lt;Trazado&gt;" class="cls-13" d="M749.87,108.64S737.55,136,738.15,146.31,749.87,158,749.87,158s11.11-1.38,11.72-11.67S749.87,108.64,749.87,108.64Z"/><path id="_Trazado_218" data-name="&lt;Trazado&gt;" class="cls-14" d="M738.15,146.31a11.77,11.77,0,0,0,1.52,5.26,12.88,12.88,0,0,0,3.31,1.19s11.11-1.84,11.72-15.6c.28-6.41-2.24-17.78-5-28.09C748.13,112.58,737.59,136.77,738.15,146.31Z"/></g><g id="_Grupo_12" data-name="&lt;Grupo&gt;"><g id="_Grupo_13" data-name="&lt;Grupo&gt;"><rect id="_Trazado_219" data-name="&lt;Trazado&gt;" class="cls-11" x="786.6" y="166.53" width="2.78" height="13.66"/><rect id="_Trazado_220" data-name="&lt;Trazado&gt;" class="cls-12" x="786.6" y="166.53" width="1.39" height="13.66"/></g><path id="_Trazado_221" data-name="&lt;Trazado&gt;" class="cls-15" d="M788,123.63s-11.26,25-10.7,34.4S788,168.69,788,168.69s10.15-1.26,10.7-10.66S788,123.63,788,123.63Z"/><path id="_Trazado_222" data-name="&lt;Trazado&gt;" class="cls-14" d="M777.28,158a10.75,10.75,0,0,0,1.38,4.81,11.77,11.77,0,0,0,3,1.09s10.15-1.68,10.7-14.24c.26-5.85-2-16.24-4.58-25.66C786.39,127.24,776.77,149.33,777.28,158Z"/></g><g id="_Grupo_14" data-name="&lt;Grupo&gt;"><g id="_Grupo_15" data-name="&lt;Grupo&gt;"><rect id="_Trazado_223" data-name="&lt;Trazado&gt;" class="cls-11" x="906.82" y="159.04" width="2.57" height="14.68"/><rect id="_Trazado_224" data-name="&lt;Trazado&gt;" class="cls-12" x="906.82" y="159.04" width="1.28" height="14.68"/></g><path id="_Trazado_225" data-name="&lt;Trazado&gt;" class="cls-15" d="M908.1,119.43s-10.4,23.09-9.89,31.77S908.1,161,908.1,161s9.37-1.16,9.88-9.84S908.1,119.43,908.1,119.43Z"/><path id="_Trazado_226" data-name="&lt;Trazado&gt;" class="cls-14" d="M898.22,151.2a9.93,9.93,0,0,0,1.28,4.44,10.86,10.86,0,0,0,2.79,1s9.37-1.55,9.88-13.16c.24-5.41-1.89-15-4.23-23.69C906.63,122.76,897.74,143.16,898.22,151.2Z"/></g><g id="_Grupo_16" data-name="&lt;Grupo&gt;"><g id="_Grupo_17" data-name="&lt;Grupo&gt;"><rect id="_Trazado_227" data-name="&lt;Trazado&gt;" class="cls-11" x="863.78" y="153.76" width="3.67" height="15.29"/><rect id="_Trazado_228" data-name="&lt;Trazado&gt;" class="cls-12" x="863.78" y="153.76" width="1.83" height="15.29"/></g><path id="_Trazado_229" data-name="&lt;Trazado&gt;" class="cls-15" d="M865.61,97.19s-14.85,33-14.12,45.38,14.12,14.06,14.12,14.06S879,155,879.73,142.56,865.61,97.19,865.61,97.19Z"/><path id="_Trazado_230" data-name="&lt;Trazado&gt;" class="cls-14" d="M851.49,142.56a14.18,14.18,0,0,0,1.83,6.34,15.54,15.54,0,0,0,4,1.43s13.39-2.22,14.12-18.79c.34-7.72-2.7-21.42-6-33.84C863.5,101.94,850.81,131.08,851.49,142.56Z"/></g><g id="_Grupo_18" data-name="&lt;Grupo&gt;"><g id="_Grupo_19" data-name="&lt;Grupo&gt;"><rect id="_Trazado_231" data-name="&lt;Trazado&gt;" class="cls-11" x="875.45" y="151.91" width="2.53" height="14.45"/><rect id="_Trazado_232" data-name="&lt;Trazado&gt;" class="cls-12" x="875.45" y="151.91" width="1.27" height="14.45"/></g><path id="_Trazado_233" data-name="&lt;Trazado&gt;" class="cls-13" d="M876.72,112.86s-10.25,22.76-9.74,31.32,9.74,9.7,9.74,9.7,9.24-1.14,9.74-9.7S876.72,112.86,876.72,112.86Z"/><path id="_Trazado_234" data-name="&lt;Trazado&gt;" class="cls-14" d="M867,144.18a9.79,9.79,0,0,0,1.26,4.38,10.7,10.7,0,0,0,2.75,1s9.24-1.53,9.74-13c.24-5.33-1.86-14.78-4.17-23.36C875.26,116.14,866.5,136.25,867,144.18Z"/></g><g id="_Grupo_20" data-name="&lt;Grupo&gt;"><g id="_Grupo_21" data-name="&lt;Grupo&gt;"><rect id="_Trazado_235" data-name="&lt;Trazado&gt;" class="cls-11" x="836.08" y="156.11" width="1.86" height="10.61"/><rect id="_Trazado_236" data-name="&lt;Trazado&gt;" class="cls-12" x="836.08" y="156.11" width="0.93" height="10.61"/></g><path id="_Trazado_237" data-name="&lt;Trazado&gt;" class="cls-13" d="M837,127.42s-7.53,16.72-7.16,23,7.16,7.13,7.16,7.13,6.79-.84,7.16-7.13S837,127.42,837,127.42Z"/><path id="_Trazado_238" data-name="&lt;Trazado&gt;" class="cls-14" d="M829.85,150.43a7.19,7.19,0,0,0,.93,3.22,7.87,7.87,0,0,0,2,.73s6.79-1.12,7.16-9.53c.17-3.92-1.37-10.86-3.07-17.16C835.94,129.83,829.5,144.61,829.85,150.43Z"/></g><g id="_Grupo_22" data-name="&lt;Grupo&gt;"><g id="_Grupo_23" data-name="&lt;Grupo&gt;"><rect id="_Trazado_239" data-name="&lt;Trazado&gt;" class="cls-11" x="1027.4" y="164.29" width="1.86" height="10.61"/><rect id="_Trazado_240" data-name="&lt;Trazado&gt;" class="cls-12" x="1027.4" y="164.29" width="0.93" height="10.61"/></g><path id="_Trazado_241" data-name="&lt;Trazado&gt;" class="cls-15" d="M1028.33,135.61s-7.53,16.72-7.16,23,7.16,7.13,7.16,7.13,6.79-.84,7.16-7.13S1028.33,135.61,1028.33,135.61Z"/><path id="_Trazado_242" data-name="&lt;Trazado&gt;" class="cls-14" d="M1021.17,158.61a7.19,7.19,0,0,0,.93,3.22,7.87,7.87,0,0,0,2,.73s6.79-1.12,7.16-9.53c.17-3.92-1.37-10.86-3.07-17.16C1027.26,138,1020.83,152.79,1021.17,158.61Z"/></g><g id="_Grupo_24" data-name="&lt;Grupo&gt;"><g id="_Grupo_25" data-name="&lt;Grupo&gt;"><rect id="_Trazado_243" data-name="&lt;Trazado&gt;" class="cls-11" x="956.58" y="159.69" width="1.44" height="8.19"/><rect id="_Trazado_244" data-name="&lt;Trazado&gt;" class="cls-12" x="956.58" y="159.69" width="0.72" height="8.19"/></g><path id="_Trazado_245" data-name="&lt;Trazado&gt;" class="cls-13" d="M957.3,137.54s-5.81,12.91-5.53,17.76,5.53,5.5,5.53,5.5,5.24-.65,5.53-5.5S957.3,137.54,957.3,137.54Z"/><path id="_Trazado_246" data-name="&lt;Trazado&gt;" class="cls-14" d="M951.77,155.3a5.55,5.55,0,0,0,.71,2.48,6.08,6.08,0,0,0,1.56.56s5.24-.87,5.53-7.35c.13-3-1.06-8.38-2.37-13.25C956.47,139.4,951.51,150.81,951.77,155.3Z"/></g><g id="_Grupo_26" data-name="&lt;Grupo&gt;"><g id="_Grupo_27" data-name="&lt;Grupo&gt;"><rect id="_Trazado_247" data-name="&lt;Trazado&gt;" class="cls-11" x="768.02" y="167.61" width="1.58" height="9"/><rect id="_Trazado_248" data-name="&lt;Trazado&gt;" class="cls-12" x="768.02" y="167.61" width="0.79" height="9"/></g><path id="_Trazado_249" data-name="&lt;Trazado&gt;" class="cls-13" d="M768.81,143.3s-6.38,14.17-6.07,19.5,6.07,6,6.07,6,5.75-.71,6.07-6S768.81,143.3,768.81,143.3Z"/><path id="_Trazado_250" data-name="&lt;Trazado&gt;" class="cls-14" d="M762.74,162.79a6.1,6.1,0,0,0,.78,2.73,6.69,6.69,0,0,0,1.71.62s5.75-1,6.07-8.07c.15-3.32-1.16-9.2-2.6-14.54C767.9,145.34,762.45,157.86,762.74,162.79Z"/></g><g id="_Grupo_28" data-name="&lt;Grupo&gt;"><g id="_Grupo_29" data-name="&lt;Grupo&gt;"><rect id="_Trazado_251" data-name="&lt;Trazado&gt;" class="cls-11" x="930.58" y="157.03" width="3.05" height="14.95"/><rect id="_Trazado_252" data-name="&lt;Trazado&gt;" class="cls-12" x="930.58" y="157.03" width="1.52" height="14.95"/></g><path id="_Trazado_253" data-name="&lt;Trazado&gt;" class="cls-13" d="M932.1,110.07s-12.33,27.38-11.72,37.67,11.72,11.67,11.72,11.67,11.11-1.38,11.72-11.67S932.1,110.07,932.1,110.07Z"/><path id="_Trazado_254" data-name="&lt;Trazado&gt;" class="cls-14" d="M920.38,147.74a11.77,11.77,0,0,0,1.52,5.26,12.88,12.88,0,0,0,3.31,1.19s11.11-1.84,11.72-15.6c.28-6.41-2.24-17.78-5-28.09C930.35,114,919.81,138.2,920.38,147.74Z"/></g><g id="_Grupo_30" data-name="&lt;Grupo&gt;"><g id="_Grupo_31" data-name="&lt;Grupo&gt;"><rect id="_Trazado_255" data-name="&lt;Trazado&gt;" class="cls-11" x="1162.66" y="157.92" width="2.78" height="13.66"/><rect id="_Trazado_256" data-name="&lt;Trazado&gt;" class="cls-12" x="1162.66" y="157.92" width="1.39" height="13.66"/></g><path id="_Trazado_257" data-name="&lt;Trazado&gt;" class="cls-15" d="M1164.05,115s-11.26,25-10.7,34.4,10.7,10.66,10.7,10.66,10.15-1.26,10.7-10.66S1164.05,115,1164.05,115Z"/><path id="_Trazado_258" data-name="&lt;Trazado&gt;" class="cls-14" d="M1153.35,149.43a10.75,10.75,0,0,0,1.38,4.81,11.77,11.77,0,0,0,3,1.09s10.15-1.68,10.7-14.24c.26-5.85-2-16.24-4.58-25.66C1162.45,118.63,1152.83,140.72,1153.35,149.43Z"/></g><g id="_Grupo_32" data-name="&lt;Grupo&gt;"><g id="_Grupo_33" data-name="&lt;Grupo&gt;"><rect id="_Trazado_259" data-name="&lt;Trazado&gt;" class="cls-11" x="1127.83" y="167.54" width="1.86" height="10.61"/><rect id="_Trazado_260" data-name="&lt;Trazado&gt;" class="cls-12" x="1127.83" y="167.54" width="0.93" height="10.61"/></g><path id="_Trazado_261" data-name="&lt;Trazado&gt;" class="cls-13" d="M1128.76,138.85s-7.53,16.72-7.16,23,7.16,7.13,7.16,7.13,6.79-.84,7.16-7.13S1128.76,138.85,1128.76,138.85Z"/><path id="_Trazado_262" data-name="&lt;Trazado&gt;" class="cls-14" d="M1121.6,161.86a7.19,7.19,0,0,0,.93,3.22,7.87,7.87,0,0,0,2,.73s6.79-1.12,7.16-9.53c.17-3.92-1.37-10.86-3.07-17.16C1127.69,141.26,1121.26,156,1121.6,161.86Z"/></g><g id="_Grupo_34" data-name="&lt;Grupo&gt;"><g id="_Grupo_35" data-name="&lt;Grupo&gt;"><rect id="_Trazado_263" data-name="&lt;Trazado&gt;" class="cls-11" x="1194.29" y="157.07" width="1.58" height="9"/><rect id="_Trazado_264" data-name="&lt;Trazado&gt;" class="cls-12" x="1194.29" y="157.07" width="0.79" height="9"/></g><path id="_Trazado_265" data-name="&lt;Trazado&gt;" class="cls-13" d="M1195.08,132.76s-6.38,14.17-6.07,19.5,6.07,6,6.07,6,5.75-.71,6.07-6S1195.08,132.76,1195.08,132.76Z"/><path id="_Trazado_266" data-name="&lt;Trazado&gt;" class="cls-14" d="M1189,152.26a6.1,6.1,0,0,0,.78,2.73,6.69,6.69,0,0,0,1.71.62s5.75-1,6.07-8.07c.15-3.32-1.16-9.2-2.6-14.54C1194.17,134.8,1188.72,147.33,1189,152.26Z"/></g><path id="_Trazado_267" data-name="&lt;Trazado&gt;" class="cls-16" d="M454.32,189.53H620.59s-40-27.73-71.93-27.73S454.32,189.53,454.32,189.53Z"/><path id="_Trazado_268" data-name="&lt;Trazado&gt;" class="cls-17" d="M680.28,162.34c-7.07-.14-88.72-1.15-132.43,27.66H812.71C769,161.2,687.35,162.2,680.28,162.34Z"/><path id="_Trazado_269" data-name="&lt;Trazado&gt;" class="cls-18" d="M554.08,189.53S483.14,163.88,443,163.42C346.45,162.31,340.29,190,340.29,190l54-.47h159.8Z"/><path id="_Trazado_270" data-name="&lt;Trazado&gt;" class="cls-16" d="M873.32,199.53h166.27s-40-27.73-71.93-27.73S873.32,199.53,873.32,199.53Z"/><path id="_Trazado_271" data-name="&lt;Trazado&gt;" class="cls-18" d="M973.08,189.53S902.14,163.88,862,163.42C765.45,162.31,759.29,190,759.29,190l54-.47h159.8Z"/><path id="_Trazado_272" data-name="&lt;Trazado&gt;" class="cls-16" d="M988.32,189.53h166.27s-40-27.73-71.93-27.73S988.32,189.53,988.32,189.53Z"/><path id="_Trazado_273" data-name="&lt;Trazado&gt;" class="cls-18" d="M1088.08,189.53S1017.14,163.88,977,163.42C880.45,162.31,874.29,190,874.29,190l54-.47h159.8Z"/><path id="_Trazado_274" data-name="&lt;Trazado&gt;" class="cls-16" d="M1221.32,189.53h166.27s-40-27.73-71.93-27.73S1221.32,189.53,1221.32,189.53Z"/><path id="_Trazado_275" data-name="&lt;Trazado&gt;" class="cls-17" d="M1447.28,162.34c-7.07-.14-88.72-1.15-132.43,27.66h264.86C1536,161.2,1454.35,162.2,1447.28,162.34Z"/><path id="_Trazado_276" data-name="&lt;Trazado&gt;" class="cls-18" d="M1321.08,189.53s-70.94-25.65-111.12-26.11c-96.52-1.11-102.68,26.58-102.68,26.58l54-.47h159.8Z"/><path id="_Trazado_277" data-name="&lt;Trazado&gt;" class="cls-19" d="M147.29,188.6h1621.5c15.07,0,19.17,11.4,19.17,11.4H132S136.58,188.6,147.29,188.6Z"/></svg>