<svg id="Capa_1" data-name="Capa 1" xmlns="http://www.w3.org/2000/svg" viewBox="0 0 295 115"><defs><style>.cls-1{fill:#fff;}</style></defs><title>logo-alcaldia</title><path class="cls-1" d="M152.54,44.8a1.4,1.4,0,0,1,1.41-1.41h4.53a4.61,4.61,0,0,1,3.34,1.13,2.93,2.93,0,0,1,.88,2.18v0A3,3,0,0,1,161,49.5a3.13,3.13,0,0,1,2.39,3.14v0c0,2.34-1.9,3.51-4.79,3.51h-4.68a1.4,1.4,0,0,1-1.41-1.41Zm5.34,3.77c1.24,0,2-.4,2-1.35v0c0-.84-.66-1.32-1.85-1.32h-2.78v2.71Zm.75,5.16c1.24,0,2-.44,2-1.39v0c0-.86-.64-1.39-2.08-1.39h-3.25v2.82Z"/><path class="cls-1" d="M164.65,47.83v0a8.94,8.94,0,0,1,17.87,0v0a8.94,8.94,0,0,1-17.87,0Zm14,0v0a5.11,5.11,0,0,0-5.09-5.29,5,5,0,0,0-5,5.24v0a5.11,5.11,0,0,0,5.09,5.28A5,5,0,0,0,178.66,47.83Z"/><path class="cls-1" d="M184.32,45.65v-.06a10.88,10.88,0,0,1,11.12-11,11.74,11.74,0,0,1,7.24,2.06,2.33,2.33,0,0,1,1,1.88,2.31,2.31,0,0,1-3.73,1.82,7.42,7.42,0,0,0-4.63-1.46,6.37,6.37,0,0,0-6.09,6.6v.06c0,3.88,2.67,6.73,6.42,6.73A7.45,7.45,0,0,0,200,51V48h-3.15a2,2,0,0,1-2-2,2,2,0,0,1,2-2h5.33a2.31,2.31,0,0,1,2.33,2.33v5.15a3.15,3.15,0,0,1-1.63,3,14.11,14.11,0,0,1-7.42,2.12C188.87,56.56,184.32,51.92,184.32,45.65Z"/><path class="cls-1" d="M205.85,43.29v-.07a13.43,13.43,0,0,1,13.83-13.43c8,0,13.76,6,13.76,13.35v.08a13.42,13.42,0,0,1-13.83,13.42C211.6,56.64,205.85,50.67,205.85,43.29Zm21.62,0v-.07a7.89,7.89,0,0,0-7.86-8.16,7.76,7.76,0,0,0-7.79,8.08v.08a7.89,7.89,0,0,0,7.86,8.16A7.76,7.76,0,0,0,227.47,43.29Z"/><path class="cls-1" d="M240.25,31.42h-6.57a3.15,3.15,0,1,1,0-6.3h20a3.15,3.15,0,1,1,0,6.3h-6.57V53a3.42,3.42,0,1,1-6.84,0Z"/><path class="cls-1" d="M253.08,51l12.74-28.78a5,5,0,0,1,4.7-3.19H271a4.9,4.9,0,0,1,4.65,3.19L288.39,51a3.91,3.91,0,0,1,.42,1.62A3.81,3.81,0,0,1,285,56.51a4.1,4.1,0,0,1-3.87-2.77L278.67,48H262.59L260,54a4,4,0,0,1-3.71,2.51,3.7,3.7,0,0,1-3.71-3.76A4.25,4.25,0,0,1,253.08,51ZM275.7,40.89l-5.06-12.07-5.07,12.07Zm-7.21-25.7a2.93,2.93,0,0,1,.52-1.41l2.87-4.49a3.4,3.4,0,0,1,3-1.78c1.93,0,4.44,1.2,4.44,2.4a2.58,2.58,0,0,1-1,1.88l-3.24,3a5.83,5.83,0,0,1-4.54,1.72C269.33,16.55,268.49,16,268.49,15.19Z"/><path class="cls-1" d="M152.52,64.33a3,3,0,0,1,3-3h.66a3.06,3.06,0,0,1,2.71,1.55l7.19,11.71,7.23-11.75a2.91,2.91,0,0,1,2.67-1.51h.66a3,3,0,0,1,3,3v21.5a3,3,0,1,1-5.91,0V72.33l-5.22,8a2.78,2.78,0,0,1-4.95,0l-5.14-7.93V85.9a2.9,2.9,0,0,1-2.94,2.9,2.87,2.87,0,0,1-2.9-2.9Z"/><path class="cls-1" d="M186.08,85.59V64.48a3,3,0,0,1,3-3h15a2.67,2.67,0,0,1,2.67,2.67,2.64,2.64,0,0,1-2.67,2.63H192v5.49h10.32A2.67,2.67,0,0,1,205,75a2.64,2.64,0,0,1-2.67,2.63H192v5.68h12.25a2.67,2.67,0,0,1,2.67,2.67,2.64,2.64,0,0,1-2.67,2.63H189.05A3,3,0,0,1,186.08,85.59Z"/><path class="cls-1" d="M211,86.6a3,3,0,0,1-1.12-2.28,2.82,2.82,0,0,1,2.82-2.86,2.7,2.7,0,0,1,1.78.62,5.71,5.71,0,0,0,3.6,1.35c2.32,0,3.71-1.35,3.71-4.48V64.25a3,3,0,1,1,6,0v15c0,3.21-.93,5.61-2.55,7.23a9.68,9.68,0,0,1-7,2.51A11.46,11.46,0,0,1,211,86.6Z"/><path class="cls-1" d="M232.59,75.11V75c0-7.7,6.07-14,14.42-14S261.36,67.26,261.36,75V75c0,7.7-6.07,14-14.42,14S232.59,82.81,232.59,75.11Zm22.54,0V75a8.22,8.22,0,0,0-8.2-8.51A8.1,8.1,0,0,0,238.82,75V75a8.22,8.22,0,0,0,8.2,8.5A8.09,8.09,0,0,0,255.13,75.11Z"/><path class="cls-1" d="M266.65,64.48a3,3,0,0,1,3-3H279c3.44,0,6.11,1,7.88,2.75a8.49,8.49,0,0,1,2.32,6.19v.08a8.26,8.26,0,0,1-5.41,8.23l4.14,5a3.46,3.46,0,0,1,1,2.28,2.77,2.77,0,0,1-2.82,2.75,3.56,3.56,0,0,1-2.94-1.54l-5.8-7.35h-4.76v5.92a3,3,0,0,1-6,0Zm12,10.17c2.9,0,4.56-1.55,4.56-3.83v-.08c0-2.55-1.78-3.87-4.68-3.87h-5.92v7.77Z"/><path class="cls-1" d="M152.52,95.17a1.54,1.54,0,0,1,1.55-1.55h4.21c3.36,0,5.4,2,5.4,4.87v0c0,3.26-2.54,4.95-5.7,4.95h-2.35v2.8a1.55,1.55,0,1,1-3.1,0Zm5.56,5.56a2.18,2.18,0,0,0,2.46-2.13v0c0-1.39-1-2.13-2.52-2.13h-2.4v4.31Z"/><path class="cls-1" d="M164.17,105.72l4.91-11.09a1.92,1.92,0,0,1,1.81-1.23h.18a1.89,1.89,0,0,1,1.79,1.23l4.91,11.09a1.52,1.52,0,0,1,.16.63,1.47,1.47,0,0,1-1.47,1.49,1.58,1.58,0,0,1-1.49-1.07l-.94-2.22h-6.2l-1,2.32a1.52,1.52,0,0,1-1.43,1,1.43,1.43,0,0,1-1.43-1.45A1.64,1.64,0,0,1,164.17,105.72Zm8.72-3.9-2-4.65-2,4.65Z"/><path class="cls-1" d="M180.38,95.17a1.54,1.54,0,0,1,1.55-1.55h4.89a5.61,5.61,0,0,1,4.11,1.43,4.42,4.42,0,0,1,1.21,3.22v0a4.3,4.3,0,0,1-2.82,4.29l2.15,2.62a1.8,1.8,0,0,1,.5,1.18,1.45,1.45,0,0,1-1.47,1.43A1.85,1.85,0,0,1,189,107l-3-3.82h-2.48v3.08a1.55,1.55,0,1,1-3.1,0Zm6.24,5.3c1.51,0,2.38-.8,2.38-2v0c0-1.33-.93-2-2.44-2h-3.08v4Z"/><path class="cls-1" d="M194.15,105.72l4.91-11.09a1.92,1.92,0,0,1,1.81-1.23h.18a1.89,1.89,0,0,1,1.79,1.23l4.91,11.09a1.52,1.52,0,0,1,.16.63,1.47,1.47,0,0,1-1.47,1.49,1.58,1.58,0,0,1-1.49-1.07l-.95-2.22h-6.2l-1,2.32a1.52,1.52,0,0,1-1.43,1,1.43,1.43,0,0,1-1.43-1.45A1.64,1.64,0,0,1,194.15,105.72Zm8.72-3.9-2-4.65-2,4.65Z"/><path class="cls-1" d="M219.68,96.48h-3a1.43,1.43,0,0,1,0-2.86h9.06a1.43,1.43,0,1,1,0,2.86h-3v9.81a1.55,1.55,0,1,1-3.1,0Z"/><path class="cls-1" d="M228.21,100.71v0a7.49,7.49,0,0,1,15,0v0a7.49,7.49,0,0,1-15,0Zm11.74,0v0a4.28,4.28,0,0,0-4.27-4.43,4.21,4.21,0,0,0-4.23,4.39v0a4.28,4.28,0,0,0,4.27,4.43A4.21,4.21,0,0,0,240,100.71Z"/><path class="cls-1" d="M245.95,95.17a1.54,1.54,0,0,1,1.55-1.55h3.95c4.43,0,7.49,3,7.49,7v0c0,4-3.06,7-7.49,7H247.5a1.54,1.54,0,0,1-1.55-1.55Zm5.5,9.75a4,4,0,0,0,4.25-4.21v0a4,4,0,0,0-4.25-4.25h-2.4v8.5Z"/><path class="cls-1" d="M261.07,100.71v0a7.49,7.49,0,0,1,15,0v0a7.49,7.49,0,0,1-15,0Zm11.74,0v0a4.28,4.28,0,0,0-4.27-4.43,4.22,4.22,0,0,0-4.23,4.39v0a4.28,4.28,0,0,0,4.27,4.43A4.21,4.21,0,0,0,272.81,100.71Z"/><path class="cls-1" d="M278.42,106.23a1.45,1.45,0,0,1-.58-1.17,1.43,1.43,0,0,1,1.45-1.43,1.48,1.48,0,0,1,.89.28,6,6,0,0,0,3.6,1.27c1.27,0,2-.5,2-1.33v0c0-.79-.48-1.19-2.84-1.79-2.84-.73-4.67-1.51-4.67-4.31v0c0-2.56,2.05-4.25,4.93-4.25a8.19,8.19,0,0,1,4.47,1.25,1.41,1.41,0,0,1,.68,1.23,1.43,1.43,0,0,1-1.45,1.43,1.49,1.49,0,0,1-.78-.22,5.86,5.86,0,0,0-3-.95c-1.19,0-1.81.54-1.81,1.23v0c0,.93.61,1.23,3,1.85,2.86.75,4.47,1.77,4.47,4.23v0c0,2.8-2.13,4.37-5.17,4.37A9.11,9.11,0,0,1,278.42,106.23Z"/><rect class="cls-1" x="128.16" y="7.31" width="1.8" height="100.52"/><path class="cls-1" d="M14.35,93.24H12.47l-.74-1.94H8.3L7.6,93.24H5.77L9.09,84.7h1.83Zm-3.18-3.39L10,86.7,8.84,89.85Z"/><polygon class="cls-1" points="14.81 93.24 14.81 84.77 16.54 84.77 16.54 91.79 20.82 91.79 20.82 93.24 14.81 93.24"/><path class="cls-1" d="M27,90.08l1.67.54a3.81,3.81,0,0,1-1.28,2.09,3.67,3.67,0,0,1-2.27.68,3.68,3.68,0,0,1-2.8-1.16A4.43,4.43,0,0,1,21.25,89a4.63,4.63,0,0,1,1.1-3.31,3.78,3.78,0,0,1,2.9-1.18,3.55,3.55,0,0,1,2.55.93,3.42,3.42,0,0,1,.87,1.58l-1.71.4a1.73,1.73,0,0,0-.63-1A1.79,1.79,0,0,0,25.17,86a2,2,0,0,0-1.55.69,3.32,3.32,0,0,0-.59,2.2,3.57,3.57,0,0,0,.59,2.31,1.89,1.89,0,0,0,1.51.69,1.73,1.73,0,0,0,1.19-.44A2.61,2.61,0,0,0,27,90.08"/><path class="cls-1" d="M37.38,93.24H35.5l-.75-1.94H31.34l-.71,1.94H28.8l3.33-8.54H34ZM34.2,89.85,33,86.7l-1.15,3.15Z"/><polygon class="cls-1" points="37.84 93.24 37.84 84.77 39.56 84.77 39.56 91.79 43.85 91.79 43.85 93.24 37.84 93.24"/><path class="cls-1" d="M44.58,84.7h3.15a6.07,6.07,0,0,1,1.63.16,2.81,2.81,0,0,1,1.28.79A3.78,3.78,0,0,1,51.46,87a6.48,6.48,0,0,1,.28,2,5.62,5.62,0,0,1-.26,1.82,3.79,3.79,0,0,1-.91,1.51,3,3,0,0,1-1.22.68,5.31,5.31,0,0,1-1.53.18H44.58Zm1.73,1.45v5.64h1.29a4.29,4.29,0,0,0,1-.09,1.46,1.46,0,0,0,.7-.35,1.89,1.89,0,0,0,.45-.83A5.87,5.87,0,0,0,50,89a5.41,5.41,0,0,0-.17-1.52,2.07,2.07,0,0,0-.49-.83,1.82,1.82,0,0,0-.8-.4,9.43,9.43,0,0,0-1.42-.07Z"/><path class="cls-1" d="M53.08,83.91l.8-1.74h1.84l-1.6,1.74Zm-.43.79h1.72v8.54H52.65Z"/><path class="cls-1" d="M63.23,93.24H61.35L60.6,91.3H57.19l-.71,1.94H54.65L58,84.7h1.84Zm-3.17-3.39L58.87,86.7l-1.15,3.15Z"/><polygon class="cls-1" points="65.99 93.24 65.99 84.7 68.57 84.7 70.11 90.53 71.65 84.7 74.24 84.7 74.24 93.24 72.64 93.24 72.63 86.52 70.93 93.24 69.27 93.24 67.59 86.52 67.58 93.24 65.99 93.24"/><path class="cls-1" d="M83.16,93.24H81.29l-.75-1.94H77.12l-.71,1.94H74.58L77.9,84.7h1.84ZM80,89.85,78.8,86.7l-1.16,3.15Z"/><polygon class="cls-1" points="84.72 93.24 84.72 89.64 81.59 84.7 83.61 84.7 85.63 88.08 87.61 84.7 89.59 84.7 86.45 89.65 86.45 93.24 84.72 93.24"/><path class="cls-1" d="M89.59,89A5.62,5.62,0,0,1,90,86.83a4.22,4.22,0,0,1,.79-1.16,3.36,3.36,0,0,1,1.11-.77,4.68,4.68,0,0,1,1.84-.34,4,4,0,0,1,3,1.17,5.27,5.27,0,0,1,0,6.49,4,4,0,0,1-3,1.17,4,4,0,0,1-3-1.16A4.42,4.42,0,0,1,89.59,89M91.37,89a3.2,3.2,0,0,0,.67,2.2,2.19,2.19,0,0,0,1.71.75,2.15,2.15,0,0,0,1.68-.75,3.23,3.23,0,0,0,.66-2.22,3.19,3.19,0,0,0-.64-2.19A2.2,2.2,0,0,0,93.74,86a2.22,2.22,0,0,0-1.73.73A3.24,3.24,0,0,0,91.37,89Z"/><path class="cls-1" d="M98.73,93.24V84.7h3.63a6.17,6.17,0,0,1,2,.23,1.91,1.91,0,0,1,1,.82,2.45,2.45,0,0,1,.38,1.35,2.3,2.3,0,0,1-.56,1.58,2.7,2.7,0,0,1-1.68.79,4,4,0,0,1,.91.72,8.83,8.83,0,0,1,1,1.38l1.05,1.67h-2.07l-1.24-1.86c-.44-.67-.75-1.08-.91-1.26a1.57,1.57,0,0,0-.52-.36,3.36,3.36,0,0,0-.88-.09h-.35v3.56Zm1.73-4.93h1.27a7.15,7.15,0,0,0,1.54-.1.92.92,0,0,0,.49-.37,1.09,1.09,0,0,0,.17-.64,1,1,0,0,0-.23-.7,1,1,0,0,0-.64-.33c-.13,0-.55,0-1.25,0h-1.35Z"/><rect class="cls-1" x="88.59" y="105.44" width="1.61" height="1.61"/><path class="cls-1" d="M11.24,98.63h3.1a6.24,6.24,0,0,1,1.6.16,2.9,2.9,0,0,1,1.27.78,3.61,3.61,0,0,1,.8,1.36,6,6,0,0,1,.28,2A5.63,5.63,0,0,1,18,104.7a3.74,3.74,0,0,1-.89,1.48,2.93,2.93,0,0,1-1.2.67,4.91,4.91,0,0,1-1.5.18h-3.2Zm1.7,1.43v5.55h1.27a4.83,4.83,0,0,0,1-.08,1.6,1.6,0,0,0,.69-.35,1.84,1.84,0,0,0,.44-.81,5.42,5.42,0,0,0,.17-1.53,4.92,4.92,0,0,0-.17-1.49,2,2,0,0,0-.48-.82,1.6,1.6,0,0,0-.78-.39,7.94,7.94,0,0,0-1.4-.08Z"/><polygon class="cls-1" points="19.23 107.03 19.23 98.63 25.46 98.63 25.46 100.06 20.94 100.06 20.94 101.91 25.14 101.91 25.14 103.34 20.94 103.34 20.94 105.6 25.62 105.6 25.62 107.03 19.23 107.03"/><path class="cls-1" d="M29.33,98.64H32.7a10,10,0,0,1,1.48.08,2.25,2.25,0,0,1,.87.34,2.14,2.14,0,0,1,.65.7,1.91,1.91,0,0,1,.25,1,1.93,1.93,0,0,1-.31,1.08,2,2,0,0,1-.86.74,2.22,2.22,0,0,1,1.17.76,2,2,0,0,1,.42,1.27,2.47,2.47,0,0,1-.27,1.11,2.34,2.34,0,0,1-.72.86,2.42,2.42,0,0,1-1.15.4q-.42,0-2,.06H29.33ZM31,100V102h1.11c.66,0,1.07,0,1.23,0a1.09,1.09,0,0,0,.68-.3.87.87,0,0,0,.25-.65.86.86,0,0,0-.85-.92c-.17,0-.65,0-1.45,0Zm0,3.34v2.24H32.6a7.86,7.86,0,0,0,1.17-.05,1.08,1.08,0,0,0,.62-.33,1,1,0,0,0,.24-.71,1.1,1.1,0,0,0-.18-.64,1.06,1.06,0,0,0-.53-.38,5.84,5.84,0,0,0-1.51-.12Z"/><path class="cls-1" d="M37,102.88a5.47,5.47,0,0,1,.38-2.15,4.38,4.38,0,0,1,.79-1.16,3.21,3.21,0,0,1,1.09-.75A4.53,4.53,0,0,1,41,98.49a3.91,3.91,0,0,1,3,1.16A5.15,5.15,0,0,1,44,106a3.89,3.89,0,0,1-3,1.15,4,4,0,0,1-3-1.14A4.33,4.33,0,0,1,37,102.88m1.75-.06a3.11,3.11,0,0,0,.66,2.15,2.27,2.27,0,0,0,3.34,0,3.21,3.21,0,0,0,.65-2.19,3.12,3.12,0,0,0-.63-2.15A2.13,2.13,0,0,0,41,99.94a2.17,2.17,0,0,0-1.69.72A3.15,3.15,0,0,0,38.71,102.82Z"/><path class="cls-1" d="M49.85,104v-1.43H53.5v3.34a4.82,4.82,0,0,1-1.55.91,5.61,5.61,0,0,1-2,.39,4.5,4.5,0,0,1-2.29-.56A3.47,3.47,0,0,1,46.14,105a5.2,5.2,0,0,1-.5-2.23,4.82,4.82,0,0,1,.56-2.33,3.71,3.71,0,0,1,1.61-1.57,4.35,4.35,0,0,1,2-.42,4.07,4.07,0,0,1,2.44.65A3,3,0,0,1,53.39,101l-1.68.32a1.78,1.78,0,0,0-.67-1,2,2,0,0,0-1.22-.36,2.29,2.29,0,0,0-1.76.71,3,3,0,0,0-.66,2.09,3.25,3.25,0,0,0,.66,2.23,2.21,2.21,0,0,0,1.74.75,2.92,2.92,0,0,0,1.06-.21,3.52,3.52,0,0,0,.92-.51v-1Z"/><path class="cls-1" d="M54.23,102.88a5.33,5.33,0,0,1,.38-2.15,4.11,4.11,0,0,1,.78-1.16,3.38,3.38,0,0,1,1.09-.75,4.6,4.6,0,0,1,1.82-.34,4,4,0,0,1,3,1.16,5.16,5.16,0,0,1,0,6.37,4.42,4.42,0,0,1-5.94,0,4.35,4.35,0,0,1-1.11-3.15m1.75-.06a3.12,3.12,0,0,0,.65,2.15,2.14,2.14,0,0,0,1.67.74A2.18,2.18,0,0,0,60,105a3.19,3.19,0,0,0,.64-2.19,3.14,3.14,0,0,0-.62-2.15,2.35,2.35,0,0,0-3.38,0A3.15,3.15,0,0,0,56,102.82Z"/><polygon class="cls-1" points="65.11 107.03 65.11 100.06 62.61 100.06 62.61 98.63 69.29 98.63 69.29 100.06 66.81 100.06 66.81 107.03 65.11 107.03"/><path class="cls-1" d="M77.46,107H75.61l-.73-1.92H71.52L70.83,107H69l3.27-8.4h1.8Zm-3.13-3.34-1.16-3.1L72,103.7Zm-1.75-5.83.79-1.71h1.8l-1.56,1.71Z"/><path class="cls-1" d="M80.62,98.63h3.11a6.24,6.24,0,0,1,1.6.16,2.87,2.87,0,0,1,1.26.78,3.62,3.62,0,0,1,.8,1.36,6,6,0,0,1,.27,2,5.55,5.55,0,0,1-.25,1.79,3.84,3.84,0,0,1-.9,1.48,2.9,2.9,0,0,1-1.19.67,5,5,0,0,1-1.5.18h-3.2Zm1.7,1.43v5.55h1.27a4.85,4.85,0,0,0,1-.08,1.6,1.6,0,0,0,.69-.35,1.81,1.81,0,0,0,.44-.81,5.47,5.47,0,0,0,.17-1.53,5,5,0,0,0-.17-1.49,1.9,1.9,0,0,0-.49-.82,1.59,1.59,0,0,0-.77-.39,8,8,0,0,0-1.39-.08Z"/><path class="cls-1" d="M96.75,103.93l1.64.52a3.78,3.78,0,0,1-1.25,2.05,4,4,0,0,1-5-.47,4.34,4.34,0,0,1-1.08-3.13,4.56,4.56,0,0,1,1.09-3.25A3.69,3.69,0,0,1,95,98.49a3.51,3.51,0,0,1,2.51.92,3.3,3.3,0,0,1,.86,1.55l-1.68.4a1.75,1.75,0,0,0-1.76-1.41,1.91,1.91,0,0,0-1.53.67,3.27,3.27,0,0,0-.58,2.17A3.44,3.44,0,0,0,93.4,105a1.83,1.83,0,0,0,1.49.68,1.7,1.7,0,0,0,1.17-.43,2.53,2.53,0,0,0,.7-1.36"/><rect class="cls-1" x="99.33" y="105.47" width="1.61" height="1.61"/><path class="cls-1" d="M39.46,47.32c.15.22,1-.29.92-.52-.23-.37-.08-1.4.69-1.47V45s-1.15,0-1.38.73c0,0-.91-1-1.14-.88s.23,1.39.23,1.39c-.77-.14-1.14.89-1.14.89l.14.15A1.1,1.1,0,0,1,39.46,47.32Z"/><path class="cls-1" d="M48.78,55.21a3.63,3.63,0,0,0-.84,2.58,3,3,0,0,0,2.29-1.11,3.14,3.14,0,0,0,.84-2.5A3.42,3.42,0,0,0,48.78,55.21Z"/><path class="cls-1" d="M73,46.28s.46-1.25.23-1.39-1.14.88-1.14.88C71.86,45,70.71,45,70.71,45v.29c.77.07.92,1.11.69,1.47-.07.22.76.73.92.52a1.1,1.1,0,0,1,1.68,0l.16-.15S73.78,46.14,73,46.28Z"/><path class="cls-1" d="M63,55.21a3.43,3.43,0,0,0-2.29-1,3.08,3.08,0,0,0,.85,2.5,2.94,2.94,0,0,0,2.29,1.11A3.62,3.62,0,0,0,63,55.21Z"/><path class="cls-1" d="M71.63,47.24c-1.68-1-3.74-.81-4.58.51s-.2,3.05,1.37,4.1c-1.13.1-2.6-1.44-2.6-1.44-.64,1.19.53,1.86,1.45,2.18-.13.08-.24.18-.36.27-.87-.22-1.18.2-1.18.2-.15-.05-2.07-2.12-3.49-3.59l1.26-.25c-.92-2.12-3.4-2.59-5.07-3.87-1.27-1,.15-1.39.49-1.07a5,5,0,0,0,6,.82,6.32,6.32,0,0,1-3.29-3.25,7.09,7.09,0,0,0,8.09-.36c-3,.52-5.43-2.36-5.43-2.36a9.18,9.18,0,0,0,8-2.06c-1.75.14-6.11-1.7-6.11-1.7,7-.22,7.57-5.16,7.64-5.16-1.92,1.25-7,.66-7,.66,7.26-2.58,6.72-8.54,6.72-8.54C72,24.62,65,26.83,65,26.83a4.69,4.69,0,0,0-3.44,4.27,1.7,1.7,0,0,1-1.67,1.48c-1.88,0-1.85-2.7-1.85-4,0-1.92-.07-4.12-1.45-4.12H53.8c-.5,0-1.35-.06-1.7.37-.71.83-.6,3-.28,2.57a3.26,3.26,0,0,1,1.75,0c.89.25.23,3,.23,3.61a1.65,1.65,0,0,1-1.68,1.54,1.71,1.71,0,0,1-1.68-1.48,4.7,4.7,0,0,0-3.36-4.27s-7.19-2.21-8.71-4.49c0,0-.54,6,6.79,8.69,0,0-5.19.44-7.1-.82.08,0,1,5.16,7.95,5.39,0,0-4.59,1.55-6.26,1.32a8.87,8.87,0,0,0,8.17,2.66S45.24,42,42.18,41.5a7.1,7.1,0,0,0,8.11.52,6,6,0,0,1-3.21,3.1,5.13,5.13,0,0,0,6-.82c.4-.45,1.71.07.4,1.07-1.74,1.33-4.23,1.66-5.29,3.87l1.28.25c-1.44,1.46-3.38,3.53-3.58,3.58,0,0-.28-.4-1.09-.23-.11-.08-.21-.17-.33-.25.92-.32,2.09-1,1.45-2.18,0,0-1.46,1.54-2.59,1.44,1.56-1,2.18-2.81,1.37-4.1s-2.91-1.55-4.58-.51-2.37,2.95-1.53,4.27S41.27,53,43,52.1a4.81,4.81,0,0,1-2.59,1.55s.94,1.81,3-.6c.12.08.22.17.33.25-.57.44-.79,1.2-.33,1.52,0,0-.23,1.18,1.14,1.1a1.07,1.07,0,0,0,1.45.34,17.34,17.34,0,0,1,.56,4l1.76.07a13.44,13.44,0,0,0-1.61-5.46.57.57,0,0,0,.13-.87,50,50,0,0,1,4.35-2.82l.24,1.19a5,5,0,0,1,2.65-1.76,7.33,7.33,0,0,0-1.43,5.89s.3-1,1.84-1.11c0,0-2.15,2.58,1.29,7.6,3.44-5,1.46-7.6,1.46-7.6a2.18,2.18,0,0,1,1.91,1.11,7.46,7.46,0,0,0-1.53-5.94A4.92,4.92,0,0,1,60.3,52.4l.24-1.22c1.84,1.14,4.39,2.75,4.35,2.85-.29.31-.11.65.17.89a13.8,13.8,0,0,0-1.61,5.45l1.76-.07a18,18,0,0,1,.55-4,1.11,1.11,0,0,0,1.41-.37c1.37.07,1.15-1.1,1.15-1.1.45-.31.24-1-.33-1.48.12-.1.24-.2.38-.3,2.08,2.41,3,.6,3,.6a4.8,4.8,0,0,1-2.58-1.55c1.69.94,3.54.68,4.34-.59S73.32,48.28,71.63,47.24ZM43,51.74c-.68.45-1.76.15-2.67-1.17s-.84-2.8-.15-3.17,2,.29,2.83,1.62S43.74,51.37,43,51.74ZM54.79,26.68A.69.69,0,0,1,54,26a.71.71,0,0,1,.76-.74.69.69,0,0,1,.69.74A.67.67,0,0,1,54.79,26.68ZM71.4,50.56c-.91,1.32-2,1.62-2.67,1.17s-.91-1.47,0-2.72,2.14-2,2.82-1.62S72.24,49.23,71.4,50.56Z"/><polygon class="cls-1" points="57.55 23.81 59.07 21.45 56.71 22.34 55.86 20.2 54.95 22.34 52.5 21.45 54.11 23.81 57.55 23.81"/><path class="cls-1" d="M33.12,41.27c-.08-1.47-.92-2.58-1.68-2.5S30.21,40,30.29,41.5s.84,2.14,1.53,2.07S33.19,42.68,33.12,41.27Z"/><path class="cls-1" d="M80.51,60.08c-.61-.37-1.83.22-2.67,1.4s-.69,2.21,0,2.58,1.6.08,2.44-1.11S81.13,60.44,80.51,60.08Z"/><path class="cls-1" d="M65.27,15.2c0-.67-.77-1.4-2.22-1.48s-2.75.74-2.75,1.4,1.22,1.33,2.66,1.4S65.34,15.93,65.27,15.2Z"/><path class="cls-1" d="M34.31,61.48c-.84-1.18-2.06-1.77-2.67-1.4s-.61,1.7.23,2.88,1.84,1.47,2.45,1.11S35.08,62.66,34.31,61.48Z"/><path class="cls-1" d="M52.77,68.7c-1.53-.22-2.82.15-3,.81s.84,1.62,2.3,1.91,2.45-.22,2.6-1S54.22,69,52.77,68.7Z"/><path class="cls-1" d="M55.89,7.11a32.45,32.45,0,0,1-30-.07V60.86A11.94,11.94,0,0,0,38,72.68c6.51,0,12.29.9,17.88,4.48,5.59-3.52,11.32-4.48,17.82-4.48A12,12,0,0,0,85.92,60.86V7A32.52,32.52,0,0,1,55.89,7.11ZM80,15.49s.16-1.18.4-1.18.61,1.11.61,1.11c.45-.44,1.37.07,1.37.07l-.08.22a.92.92,0,0,0-1.23.81c0,.22-1,.29-1,.07a1.05,1.05,0,0,0-1.37-.74l-.08-.15S79.44,15,80,15.49ZM80.66,17c1.83-.15,3.44.89,3.59,2.28s-1.14,2.51-2.81,2.77a4.77,4.77,0,0,0,2.73-.19s.21,1.71-2.42,1.15c.11,1.38-.77,2.4-1.1,3.77a3.21,3.21,0,0,1,.77-.72,3.81,3.81,0,0,1,2.53-.44,2.74,2.74,0,0,1-1.22,1.85,3.44,3.44,0,0,1-2.18.56,5.71,5.71,0,0,0,.65,2.24l-1.23,1a7.38,7.38,0,0,1,.16-5.82c.62-1.31.74-1.82.66-2.31-.83.3-2.5.71-2.72-.72a4.84,4.84,0,0,0,2.73-.29c-1.7,0-3.12-1-3.28-2.36S78.82,17.11,80.66,17Zm2,20.26-.09.22a1,1,0,0,0-1.36.74c0,.22-1,.15-1-.08A.92.92,0,0,0,79,37.37l-.08-.22s.92-.51,1.37-.07c0,0,.4-1.18.62-1.1s.38,1.18.38,1.18C81.91,36.71,82.68,37.3,82.68,37.3ZM63,11.95a2.81,2.81,0,0,1,2.53,3,4,4,0,0,0,.07-2.7s1.76-.06,1.08,2.38c1.37.05,2.33.93,3.67,1.35a2.7,2.7,0,0,1-.62-.79,3,3,0,0,1-.3-2.43,2.59,2.59,0,0,1,1.83,1.32,3.11,3.11,0,0,1,.38,2.12A6.21,6.21,0,0,0,74,15.78L74.89,17a8.56,8.56,0,0,1-6-.67,5.37,5.37,0,0,0-2.25-.85c.19.8.44,2.49-1,2.55,0,0,.47-1.86-.16-2.71a2.94,2.94,0,0,1-2.74,3c-1.45,0-2.59-1.47-2.52-3.24A3,3,0,0,1,63,11.95Zm-4.35,2.73c-.46-.52.15-1.33.15-1.33l.23.08c-.38.66.38,1.25.77,1.25.22,0,.22.88,0,.88a1.07,1.07,0,0,0-.92,1.33h-.23s-.54-.81-.08-1.33c0,0-1.23-.22-1.23-.44S58.62,14.68,58.62,14.68Zm-6.35,0c.39,0,1.14-.59.76-1.25l.23-.08s.62.81.15,1.33c0,0,1.31.22,1.31.44s-1.22.44-1.22.44c.46.52-.09,1.33-.09,1.33h-.22a1.07,1.07,0,0,0-.92-1.33C52,15.56,52,14.68,52.27,14.68ZM38.05,15.78a6.24,6.24,0,0,0,2.37.42,3.13,3.13,0,0,1,.38-2.12,2.56,2.56,0,0,1,1.83-1.32,3,3,0,0,1-.31,2.43,2.45,2.45,0,0,1-.61.79c1.34-.42,2.29-1.3,3.67-1.35-.68-2.45,1.08-2.38,1.08-2.38a4.11,4.11,0,0,0,.07,2.7,2.82,2.82,0,0,1,2.52-3,3,3,0,0,1,2.76,3.17c.07,1.77-1.08,3.24-2.52,3.24a2.94,2.94,0,0,1-2.75-3c-.62.84-.15,2.71-.15,2.71-1.4-.05-1.16-1.75-1-2.55a5.39,5.39,0,0,0-2.25.85,8.54,8.54,0,0,1-6,.67Zm-6.94-.37s.38-1.18.61-1.11.38,1.18.38,1.18c.62-.44,1.38.22,1.38.22l-.08.15a1,1,0,0,0-1.37.74c-.07.22-1,.15-1-.07s-.53-1.11-1.22-.81l-.08-.22S30.65,15,31.11,15.42ZM31.49,17c1.83.08,3.21,1.33,3.13,2.73S33,22.07,31.36,22.12a4.84,4.84,0,0,0,2.74.29c-.23,1.43-1.9,1-2.73.72-.07.5,0,1,.67,2.31a7.69,7.69,0,0,1,.15,5.82L31,30.3a5.69,5.69,0,0,0,.61-2.24,3.38,3.38,0,0,1-2.14-.56,2.45,2.45,0,0,1-1.22-1.85,3.81,3.81,0,0,1,2.52.44,3.3,3.3,0,0,1,.69.63c-.36-1.33-1.18-2.33-1-3.67C27.78,23.6,28,21.9,28,21.9a4.77,4.77,0,0,0,2.73.19c-1.67-.26-2.89-1.45-2.81-2.76S29.66,16.89,31.49,17Zm1.7,20.11-.07.22a.92.92,0,0,0-1.23.81c0,.22-.91.3-1,.08a1.05,1.05,0,0,0-1.38-.74l-.07-.22s.76-.59,1.37-.15c0,0,.16-1.18.39-1.18s.61,1.1.61,1.1C32.28,36.64,33.19,37.15,33.19,37.15ZM27.54,45.7a2.88,2.88,0,0,1,2.29.82,2,2,0,0,1,.8,1.29,4.51,4.51,0,0,1,.28-.71c.62-1.31.73-1.82.66-2.31-.84.3-2.5.71-2.73-.71,0,0,2,.32,2.83-.36-1.74,0-3.22-1-3.37-2.3s1.3-2.65,3.14-2.81,3.44,1,3.59,2.37-1.21,2.56-2.94,2.71A4.57,4.57,0,0,0,35,43.56s.2,1.7-2.39,1.15c.22,2.3-2.34,3.6-.58,7.25l-1.23,1a7.56,7.56,0,0,1-.32-4.42,3.11,3.11,0,0,1-2.21-.81A2.13,2.13,0,0,1,27.54,45.7Zm1.8,14.15-.15-.14s.38-1,1.14-.81c0,0-.53-1.1-.31-1.25s1.07.73,1.07.73c.23-.66,1.23-.66,1.23-.66l.08.22a1,1,0,0,0-.69,1.41c.15.14-.69.66-.76.51A1,1,0,0,0,29.34,59.85Zm10.17,11a5.73,5.73,0,0,0-.88-2.13,3.83,3.83,0,0,1-2,.81,2.71,2.71,0,0,1-2.22-.81,3.18,3.18,0,0,1,2.29-1,2.94,2.94,0,0,1,1,.07c-1.1-.85-2.4-1.17-3.18-2.33-1.76,1.9-2.64.41-2.64.41a4.21,4.21,0,0,0,2.41-1.55,3,3,0,0,1-4.09-.44c-.76-1.17-.16-2.95,1.38-3.9s3.43-.81,4.21.37.27,2.81-1.2,3.79c1.06.1,2.5-1.28,2.5-1.28.69,1.22-.91,1.86-1.75,2.1.25.45.68.78,2,1.44a8,8,0,0,1,3.82,4.57Zm9.66-1c-.45-.08-1.29.37-1.14,1.1H47.8s-.38-.88.22-1.32c0,0-1.22-.52-1.15-.74s1.3-.15,1.3-.15c-.38-.66.38-1.32.38-1.32l.23.15c-.46.59.15,1.32.54,1.4C49.56,69,49.33,69.88,49.17,69.81Zm14.14,2a6,6,0,0,0-2.21-.9,3.09,3.09,0,0,1-3,2.89A3.91,3.91,0,0,1,59,71.42a2.89,2.89,0,0,1,.8-.55c-1.41.16-2.57.8-4,.54.16,2.52-1.58,2-1.58,2a4.15,4.15,0,0,0,.57-2.62,2.88,2.88,0,0,1-3.18,2.4,3.08,3.08,0,0,1-2-3.68c.38-1.77,1.83-2.95,3.29-2.65a3,3,0,0,1,2,3.46c.77-.68.72-2.51.72-2.51,1.43.39.8,1.89.39,2.62a4.56,4.56,0,0,0,2.43-.26,8.63,8.63,0,0,1,6.11.58Zm-7.48-5.73c-3.84-2.41-7.48-2.89-11.91-2.89a7.7,7.7,0,0,1-7.82-7.81l0-36.19c4.82,2.58,15.4.85,20-1.56,4.67,2.43,15.13,4.1,20,1.56l0,36.19c0,4.3-3.85,7.81-8.38,7.81S59.65,63.68,55.83,66.06ZM82,63.84a3.06,3.06,0,0,1-4,.51,4.35,4.35,0,0,0,2.36,1.48s-.87,1.49-2.62-.41c-.8,1.16-2.09,1.48-3.21,2.33a3,3,0,0,1,1-.08,3.31,3.31,0,0,1,2.29,1,2.81,2.81,0,0,1-2.21.81,3.58,3.58,0,0,1-2-.8,5.67,5.67,0,0,0-.88,2.13L71,70.91a8,8,0,0,1,3.82-4.57c1.3-.66,1.72-1,2-1.44-.84-.24-2.44-.88-1.75-2.1,0,0,1.37,1.33,2.43,1.29-1.4-1-1.94-2.66-1.13-3.79s2.67-1.33,4.21-.37S82.74,62.66,82,63.84Zm.77-4a1,1,0,0,0-1.53,0c-.08.16-.92-.37-.85-.51a1,1,0,0,0-.6-1.41l.07-.22s1,0,1.22.66c0,0,.84-.88,1.07-.73s-.31,1.25-.31,1.25c.76-.15,1.15.81,1.15.81ZM83.9,47.69a3.07,3.07,0,0,1-2.18.81,7.29,7.29,0,0,1-.35,4.42l-1.22-1c1.83-3.66-.73-5-.58-7.25-2.6.55-2.32-1.15-2.32-1.15A4.26,4.26,0,0,0,80,43.7c-1.74-.15-3-1.36-2.94-2.71s1.76-2.44,3.6-2.37,3.2,1.41,3.13,2.81-1.62,2.34-3.37,2.3c.83.68,2.83.36,2.83.36-.23,1.43-1.89,1-2.73.71-.07.5.05,1,.68,2.31a6.84,6.84,0,0,1,.3.7,2.25,2.25,0,0,1,.77-1.29,3,3,0,0,1,2.36-.82A2.38,2.38,0,0,1,83.9,47.69Z"/><path class="cls-1" d="M31.11,21.9c.69.08,1.45-.66,1.53-2.06s-.46-2.65-1.15-2.73-1.6,1-1.68,2.5S30.34,21.83,31.11,21.9Z"/><path class="cls-1" d="M81,21.9c.68-.07,1.37-.88,1.3-2.28s-.92-2.58-1.68-2.5-1.29,1.25-1.22,2.73S80.27,22,81,21.9Z"/><path class="cls-1" d="M49.06,16.52c1.45-.07,2.6-.66,2.68-1.4s-1.23-1.4-2.75-1.4-2.21.81-2.21,1.48S47.53,16.59,49.06,16.52Z"/><path class="cls-1" d="M81.91,41.5c.08-1.47-.54-2.65-1.21-2.73s-1.61,1-1.69,2.5.61,2.21,1.29,2.29S81.84,42.89,81.91,41.5Z"/></svg>