<svg id="Capa_1" data-name="Capa 1" xmlns="http://www.w3.org/2000/svg" viewBox="0 0 250 89"><defs><style>.cls-1{fill:#00a7a1;}.cls-2{fill:#2e8acb;}</style></defs><title>logo-secretaria</title><path class="cls-1" d="M23.7,30.41a7.14,7.14,0,0,0,3.94-.92,3.31,3.31,0,0,0,1.41-3,4,4,0,0,0-.45-2,4.25,4.25,0,0,0-1.2-1.35,7.88,7.88,0,0,0-1.72-.94l-2-.82a23.93,23.93,0,0,1-2.41-1.09A8.23,8.23,0,0,1,19.42,19a4.78,4.78,0,0,1-1.14-1.61,5.33,5.33,0,0,1-.39-2.12,5,5,0,0,1,1.84-4.22,8.15,8.15,0,0,1,5.13-1.44,11.77,11.77,0,0,1,1.72.13,13.23,13.23,0,0,1,1.58.33,12,12,0,0,1,1.34.45,5.4,5.4,0,0,1,1,.53l-.75,1.78a7.56,7.56,0,0,0-2.2-1,10,10,0,0,0-2.8-.37,8.23,8.23,0,0,0-1.89.2,4.12,4.12,0,0,0-1.48.66,3.25,3.25,0,0,0-1,1.14A3.53,3.53,0,0,0,20,15.15a3.48,3.48,0,0,0,.38,1.69,3.65,3.65,0,0,0,1,1.19,8.33,8.33,0,0,0,1.58.91q.91.41,2,.84,1.28.53,2.42,1.06a8.73,8.73,0,0,1,2,1.25,5.33,5.33,0,0,1,1.34,1.75,5.78,5.78,0,0,1,.5,2.53,5.07,5.07,0,0,1-2,4.41,9.34,9.34,0,0,1-5.55,1.47,15.31,15.31,0,0,1-2.28-.16,14.61,14.61,0,0,1-1.84-.39,10.74,10.74,0,0,1-1.37-.48,8.36,8.36,0,0,1-.87-.44L18,28.94q.31.19.84.44a10.79,10.79,0,0,0,1.25.48,11.61,11.61,0,0,0,1.63.39A11.77,11.77,0,0,0,23.7,30.41Z"/><path class="cls-1" d="M35.2,31.78V10.12H47.7V12H37.33V19.5h9.25v1.81H37.33v8.63H48.51v1.84Z"/><path class="cls-1" d="M61,32.25a10,10,0,0,1-3.89-.75A8.84,8.84,0,0,1,54,29.31a10.35,10.35,0,0,1-2.09-3.55,14.1,14.1,0,0,1-.77-4.83A13.14,13.14,0,0,1,52,16.11a10.72,10.72,0,0,1,2.2-3.55,9.1,9.1,0,0,1,3.19-2.17,10,10,0,0,1,3.78-.73,14.46,14.46,0,0,1,2.22.16,12,12,0,0,1,3,.86,5.61,5.61,0,0,1,.81.42l-.69,1.84a12.44,12.44,0,0,0-2-.92,9.74,9.74,0,0,0-6.53.23,7,7,0,0,0-2.55,1.94,8.4,8.4,0,0,0-1.55,3A13.24,13.24,0,0,0,53.39,21a13.64,13.64,0,0,0,.52,3.89,8.33,8.33,0,0,0,1.52,3,6.69,6.69,0,0,0,2.45,1.88,8,8,0,0,0,3.33.66A13,13,0,0,0,64.66,30a9.92,9.92,0,0,0,2.11-.8L67.36,31a3.6,3.6,0,0,1-.75.36,14,14,0,0,1-1.34.42,14.76,14.76,0,0,1-1.87.36A18.22,18.22,0,0,1,61,32.25Z"/><path class="cls-1" d="M85.48,16.62a5.49,5.49,0,0,1-1.28,3.84,7.26,7.26,0,0,1-3.37,2q.5.63,1.3,1.69t1.64,2.33q.84,1.27,1.66,2.64a27,27,0,0,1,1.38,2.63H84.52q-.66-1.25-1.42-2.5t-1.56-2.42q-.8-1.17-1.55-2.17l-1.31-1.75q-1,.09-2,.09h-3.5v8.75H71V10.53a15.23,15.23,0,0,1,2.64-.45q1.52-.14,2.8-.14,4.47,0,6.73,1.69A5.84,5.84,0,0,1,85.48,16.62Zm-8.75-4.84q-1.19,0-2.08.08L73.17,12v9.22h2.94a26.15,26.15,0,0,0,2.78-.14,6.65,6.65,0,0,0,2.28-.62,3.73,3.73,0,0,0,1.53-1.39,4.66,4.66,0,0,0,.56-2.47,4.56,4.56,0,0,0-.56-2.37,4.27,4.27,0,0,0-1.47-1.48A6,6,0,0,0,79.16,12,14.18,14.18,0,0,0,76.73,11.78Z"/><path class="cls-1" d="M90.36,31.78V10.12h12.5V12H92.48V19.5h9.25v1.81H92.48v8.63h11.19v1.84Z"/><path class="cls-1" d="M121.45,10.12V12h-6.94V31.78h-2.13V12h-6.94V10.12Z"/><path class="cls-1" d="M137.8,31.78q-.62-1.6-1.14-3.07t-1-2.87H125.08q-.54,1.4-1.06,2.88t-1.1,3.06H120.7q1.23-3.38,2.33-6.3T125.19,20q1.05-2.61,2.1-5t2.19-4.82h1.88q1.15,2.41,2.17,4.81t2.09,5q1.06,2.6,2.15,5.53t2.39,6.3Zm-7.45-19.22q-1.18,2.7-2.29,5.48t-2.31,6H135q-1.2-3.22-2.34-6T130.34,12.56Z"/><path class="cls-1" d="M157.67,16.62a5.49,5.49,0,0,1-1.28,3.84,7.26,7.26,0,0,1-3.37,2q.5.63,1.3,1.69T156,26.51q.84,1.27,1.66,2.64A26.85,26.85,0,0,1,159,31.78H156.7q-.66-1.25-1.42-2.5t-1.56-2.42q-.8-1.17-1.55-2.17l-1.31-1.75q-1,.09-2,.09h-3.5v8.75h-2.12V10.53a15.23,15.23,0,0,1,2.64-.45q1.52-.14,2.8-.14,4.47,0,6.73,1.69A5.84,5.84,0,0,1,157.67,16.62Zm-8.75-4.84q-1.19,0-2.08.08l-1.48.14v9.22h2.94a26.14,26.14,0,0,0,2.78-.14,6.65,6.65,0,0,0,2.28-.62,3.73,3.73,0,0,0,1.53-1.39,4.66,4.66,0,0,0,.56-2.47,4.56,4.56,0,0,0-.56-2.37,4.26,4.26,0,0,0-1.47-1.48,6,6,0,0,0-2.08-.75A14.18,14.18,0,0,0,148.92,11.78Z"/><path class="cls-1" d="M168,4.34l-5.34,4.34-1-1.19,4.94-4.75Zm-5.41,5.78h2.13V31.78h-2.12Z"/><path class="cls-1" d="M184.89,31.78q-.62-1.6-1.14-3.07t-1-2.87H172.18q-.54,1.4-1.06,2.88T170,31.78H167.8q1.23-3.38,2.33-6.3T172.28,20q1.05-2.61,2.09-5t2.19-4.82h1.87q1.15,2.41,2.17,4.81t2.09,5q1.06,2.6,2.15,5.53t2.39,6.3Zm-7.45-19.22q-1.18,2.7-2.29,5.48t-2.31,6h9.24q-1.2-3.22-2.34-6T177.44,12.56Z"/><path class="cls-1" d="M214.64,20.94a12.34,12.34,0,0,1-.87,4.84,9.31,9.31,0,0,1-2.45,3.44,10.39,10.39,0,0,1-3.77,2.06,16,16,0,0,1-4.81.69q-1.31,0-2.75-.14a16.84,16.84,0,0,1-2.53-.42V10.53a14.41,14.41,0,0,1,2.53-.45q1.44-.14,2.75-.14a16,16,0,0,1,4.81.69,10.4,10.4,0,0,1,3.77,2.06,9.31,9.31,0,0,1,2.45,3.44A12.26,12.26,0,0,1,214.64,20.94Zm-15.06,9,1,.13a22.58,22.58,0,0,0,2.45.09,11.89,11.89,0,0,0,4.09-.64A7.94,7.94,0,0,0,210,27.66a7.51,7.51,0,0,0,1.78-2.89,11.59,11.59,0,0,0,.59-3.83,11.45,11.45,0,0,0-.59-3.81A7.53,7.53,0,0,0,210,14.25a8,8,0,0,0-2.94-1.83,11.9,11.9,0,0,0-4.09-.64,22.58,22.58,0,0,0-2.45.09l-1,.13Z"/><path class="cls-1" d="M219.39,31.78V10.12h12.5V12H221.52V19.5h9.25v1.81h-9.25v8.63H232.7v1.84Z"/><path class="cls-2" d="M30.4,77.1a15.46,15.46,0,0,0,3.75-.38,6.88,6.88,0,0,0,2.37-1,3.46,3.46,0,0,0,1.24-1.55,5.52,5.52,0,0,0,.34-2,4.61,4.61,0,0,0-2.2-3.89,31.51,31.51,0,0,0-7.57-3.34Q26,64.09,23.65,63a17.21,17.21,0,0,1-4.2-2.68,12.81,12.81,0,0,1-3-3.92,12.28,12.28,0,0,1-1.17-5.61,13.9,13.9,0,0,1,1.24-6A12.72,12.72,0,0,1,20,40.34a16.06,16.06,0,0,1,5.51-2.86,24.72,24.72,0,0,1,7.3-1,29.17,29.17,0,0,1,14.11,3.3l-3.1,8.47a29.44,29.44,0,0,0-4.44-1.82,19.27,19.27,0,0,0-5.88-.79q-3.86,0-5.54,1.07A3.6,3.6,0,0,0,26.27,50a3.77,3.77,0,0,0,.62,2.2,6,6,0,0,0,1.76,1.62,15.4,15.4,0,0,0,2.62,1.31q1.48.58,3.27,1.2Q38.24,57.69,41,59a17.31,17.31,0,0,1,4.58,3.13,11.36,11.36,0,0,1,2.72,4.2,16.88,16.88,0,0,1,.9,5.85q0,6.68-4.68,10.36T30.4,86.25a39.14,39.14,0,0,1-5.71-.38,37.13,37.13,0,0,1-4.51-.93,25.79,25.79,0,0,1-3.37-1.17,25,25,0,0,1-2.37-1.17l3-8.53a26.93,26.93,0,0,0,5.27,2.1A27.28,27.28,0,0,0,30.4,77.1Z"/><path class="cls-2" d="M89.45,85.29q-.8-2.49-1.71-5.11L85.91,75H67.28L65.47,80.2q-.91,2.62-1.69,5.09H52.63Q55.32,77.58,57.74,71t4.73-12.32q2.31-5.78,4.56-11t4.66-10.15H81.86q2.35,5,4.63,10.15t4.6,11Q93.41,64.5,95.83,71t5.12,14.25ZM76.55,48.4q-.36,1-1.05,2.83t-1.58,4.13q-.88,2.34-2,5.16t-2.22,5.91H83.36q-1.09-3.1-2.12-5.93t-1.95-5.17L77.67,51.2Q77,49.41,76.55,48.4Z"/><path class="cls-2" d="M138.94,76.07v9.22H107.07V37.59h10.74V76.07Z"/><path class="cls-2" d="M163.78,86.25a24,24,0,0,1-8.67-1.41,16.14,16.14,0,0,1-6-3.92,15.68,15.68,0,0,1-3.51-6,24.61,24.61,0,0,1-1.13-7.67V37.59h10.74V66.36a16.15,16.15,0,0,0,.65,4.92,9,9,0,0,0,1.79,3.3,6.38,6.38,0,0,0,2.75,1.82,10.9,10.9,0,0,0,3.54.55,8.68,8.68,0,0,0,6.37-2.41q2.44-2.41,2.44-8.19V37.59h10.74V67.25A24.25,24.25,0,0,1,182.3,75a15.77,15.77,0,0,1-3.58,6,16,16,0,0,1-6.12,3.89A25.4,25.4,0,0,1,163.78,86.25Z"/><path class="cls-2" d="M235.57,61.41a27.89,27.89,0,0,1-1.93,10.81,20,20,0,0,1-5.47,7.64,23.34,23.34,0,0,1-8.64,4.54,40.08,40.08,0,0,1-11.43,1.51q-2.89,0-6.75-.24a55.32,55.32,0,0,1-7.57-1V38.21a63.75,63.75,0,0,1,7.74-.93q4-.24,6.92-.24a41.81,41.81,0,0,1,11.12,1.38,22.77,22.77,0,0,1,8.57,4.34,19.29,19.29,0,0,1,5.51,7.57A28.7,28.7,0,0,1,235.57,61.41Zm-31,15.14q.76.07,1.75.1t2.38,0q8.05,0,11.94-4.06t3.89-11.22q0-7.5-3.72-11.36T209,46.19q-1.1,0-2.27,0a21.59,21.59,0,0,0-2.2.17Z"/></svg>