<svg id="Capa_1" data-name="Capa 1" xmlns="http://www.w3.org/2000/svg" viewBox="0 0 200 84.25"><defs><style>.cls-1{fill:#264467;}.cls-2{fill:#61abeb;}.cls-3{fill:#2f5397;}.cls-4{fill:#f2d231;}.cls-5{fill:#c82329;}.cls-6{font-size:7.97px;font-family:ArialMT, Arial;}.cls-7{letter-spacing:-0.07em;}.cls-8{letter-spacing:-0.06em;}</style></defs><title>logo-alcaldia-positivo</title><rect class="cls-1" x="86.8" y="1" width="1.4" height="70.3"/><path class="cls-2" d="M106.6,33.3c.9,0,1.4-.3,1.4-1h0c0-.6-.4-1-1.5-1h-2.3v2Zm-.6-3.6c.9,0,1.4-.3,1.4-.9h0c0-.6-.5-.9-1.3-.9h-1.9v1.9Zm-3.7-2.6a.94.94,0,0,1,1-1h3.2a2.74,2.74,0,0,1,2.3.8,2.2,2.2,0,0,1,.6,1.5h0a2,2,0,0,1-1.2,1.9,2.25,2.25,0,0,1,1.7,2.2h0c0,1.6-1.3,2.5-3.3,2.5h-3.3a.94.94,0,0,1-1-1Z"/><path class="cls-2" d="M120.6,29.2h0a3.58,3.58,0,0,0-3.5-3.7H117a3.54,3.54,0,0,0-3.5,3.5v.2h0a3.58,3.58,0,0,0,3.5,3.7h.1a3.54,3.54,0,0,0,3.5-3.5c-.1-.1-.1-.1,0-.2m-9.9,0h0a6.3,6.3,0,1,1,12.6,0h0a6.3,6.3,0,1,1-12.6,0"/><path class="cls-2" d="M124.5,27.7h0A7.6,7.6,0,0,1,132,20h.2a8.39,8.39,0,0,1,5.1,1.4,1.71,1.71,0,0,1,.7,1.3,1.58,1.58,0,0,1-1.6,1.6h0a1.69,1.69,0,0,1-1-.3,5.38,5.38,0,0,0-3.3-1,4.44,4.44,0,0,0-4.2,4.6h0a4.41,4.41,0,0,0,4.2,4.7h.3a5.61,5.61,0,0,0,3.1-.9V29.3h-2.2a1.51,1.51,0,0,1-1.5-1.3h0a1.37,1.37,0,0,1,1.4-1.4h3.7a1.58,1.58,0,0,1,1.6,1.6h0v3.6a2.17,2.17,0,0,1-1.1,2.1,9.8,9.8,0,0,1-5.2,1.5,7.4,7.4,0,0,1-7.8-7,2,2,0,0,0,.1-.7"/><path class="cls-2" d="M154.8,26h0a5.55,5.55,0,0,0-5.3-5.7h-.2a5.53,5.53,0,0,0-5.5,5.4V26h0a5.55,5.55,0,0,0,5.3,5.7h.2a5.46,5.46,0,0,0,5.5-5.4V26m-15.2,0h0a9.65,9.65,0,0,1,19.3-.1V26a9.65,9.65,0,1,1-19.3,0"/><path class="cls-2" d="M163.7,17.7h-4.6a2.32,2.32,0,0,1-2.1-2.4,2.34,2.34,0,0,1,2.1-2.1h14a2.24,2.24,0,0,1,2.4,2.1,2.18,2.18,0,0,1-2.1,2.4h-4.9V32.8a2.4,2.4,0,0,1-4.8,0Z"/><path class="cls-2" d="M183.5,6.4a1.78,1.78,0,0,1,.4-1l2-3.2A2.25,2.25,0,0,1,188,1c1.4,0,3.1.8,3.1,1.7a1.71,1.71,0,0,1-.7,1.3l-2.3,2.1a4.14,4.14,0,0,1-3.2,1.2c-.9,0-1.5-.3-1.4-.9m4.9,17.9L185,15.9l-3.6,8.5Zm-15.8,7.1,8.9-20.2A3.37,3.37,0,0,1,184.8,9h.3a3.72,3.72,0,0,1,3.3,2.2l8.9,20.2a2.28,2.28,0,0,1,.3,1.1,2.61,2.61,0,0,1-2.6,2.7h0a2.93,2.93,0,0,1-2.7-1.9l-1.7-4H179.4l-1.8,4.2a2.76,2.76,0,0,1-2.6,1.7,2.58,2.58,0,0,1-2.6-2.6v-.1a2.66,2.66,0,0,1,.3-1.2"/><path class="cls-1" d="M102.3,40.8a2.11,2.11,0,0,1,2.1-2.1h.5a2.14,2.14,0,0,1,1.9,1.1l5,8.2,5.1-8.2a2.14,2.14,0,0,1,1.9-1.1h.5a2.11,2.11,0,0,1,2.1,2.1h0V55.9a2.1,2.1,0,0,1-4.2,0h0V46.4L113.6,52a2.08,2.08,0,0,1-2.7.7,2.34,2.34,0,0,1-.7-.7l-3.6-5.6v9.4a2,2,0,0,1-2,2h-.1a2,2,0,0,1-2-2Z"/><path class="cls-1" d="M125.8,55.7V40.9a2.11,2.11,0,0,1,2.1-2.1h10.5a1.9,1.9,0,0,1,1.9,1.9,1.82,1.82,0,0,1-1.9,1.8H130v3.8h7.2a1.9,1.9,0,0,1,1.9,1.9,1.82,1.82,0,0,1-1.9,1.8H130v4h8.6a1.9,1.9,0,0,1,1.9,1.9,1.82,1.82,0,0,1-1.9,1.8H128a2,2,0,0,1-2.2-2h0"/><path class="cls-1" d="M143.2,56.4a2.09,2.09,0,0,1-.8-1.6,2.07,2.07,0,0,1,3.3-1.6,3.84,3.84,0,0,0,2.5.9c1.6,0,2.6-.9,2.6-3.1V40.7a2.1,2.1,0,1,1,4.2,0V51.2a6.84,6.84,0,0,1-1.8,5.1,6.53,6.53,0,0,1-5,1.7,8.75,8.75,0,0,1-5-1.6"/><path class="cls-1" d="M174.1,48.3h0a5.88,5.88,0,0,0-5.5-6.1h-.2a5.68,5.68,0,0,0-5.7,5.6v.4a5.73,5.73,0,0,0,5.5,6h.2a5.68,5.68,0,0,0,5.7-5.6v-.3m-15.8,0h0a10.06,10.06,0,0,1,20.1-.1v.1A10.08,10.08,0,0,1,167.9,58a10.34,10.34,0,0,1-9.6-9.7"/><path class="cls-1" d="M190.6,48c2,0,3.2-1.1,3.2-2.7v-.1c0-1.8-1.3-2.7-3.3-2.7h-4.1V48Zm-8.4-7.1a2.11,2.11,0,0,1,2.1-2.1h6.6a7.87,7.87,0,0,1,5.5,1.9A5.79,5.79,0,0,1,198,45v.1a5.82,5.82,0,0,1-3.8,5.8l2.9,3.5a2.36,2.36,0,0,1,.7,1.6,1.92,1.92,0,0,1-2,1.9h0a2.61,2.61,0,0,1-2.1-1.1l-4.1-5.1h-3.3v4.1a2.1,2.1,0,1,1-4.2,0Z"/><path class="cls-1" d="M106.2,66.3a1.55,1.55,0,0,0,1.7-1.3v-.2h0c0-1-.7-1.5-1.8-1.5h-1.7v3Zm-3.9-3.9a1.11,1.11,0,0,1,1.1-1.1h2.9c2.3,0,3.8,1.4,3.8,3.4h0c0,2.3-1.8,3.5-4,3.5h-1.7v2a1.1,1.1,0,1,1-2.2.2v-.2Z"/><path class="cls-1" d="M116.5,67l-1.4-3.3L113.7,67Zm-6.1,2.7,3.4-7.8a1.42,1.42,0,0,1,1.3-.9h.1a1.29,1.29,0,0,1,1.3.9l3.4,7.8a.6.6,0,0,1,.1.4.94.94,0,0,1-1,1,1,1,0,0,1-1-.8l-.7-1.6H113l-.7,1.6a1.2,1.2,0,0,1-1,.7.94.94,0,0,1-1-1,.44.44,0,0,0,.1-.3"/><path class="cls-1" d="M126.2,66.1c1.1,0,1.7-.6,1.7-1.4h0c0-.9-.7-1.4-1.7-1.4H124v2.8Zm-4.4-3.7a1.11,1.11,0,0,1,1.1-1.1h3.4a3.83,3.83,0,0,1,2.9,1,3.17,3.17,0,0,1,.9,2.3h0a2.92,2.92,0,0,1-2,3l1.5,1.8a2,2,0,0,1,.4.8.94.94,0,0,1-1,1,1.38,1.38,0,0,1-1.1-.6l-2.1-2.7H124v2.2a1.1,1.1,0,1,1-2.2.2V62.4Z"/><path class="cls-1" d="M137.5,67l-1.4-3.3L134.7,67Zm-6.1,2.7,3.4-7.8a1.42,1.42,0,0,1,1.3-.9h.1a1.29,1.29,0,0,1,1.3.9l3.4,7.8a.6.6,0,0,1,.1.4.94.94,0,0,1-1,1,1,1,0,0,1-1-.8l-.7-1.6H134l-.7,1.6a1.2,1.2,0,0,1-1,.7.94.94,0,0,1-1-1,.44.44,0,0,0,.1-.3"/><path class="cls-1" d="M149.3,63.3h-2.1a1,1,0,0,1,0-2h6.3a1,1,0,0,1,0,2h-2.1v6.9a1.19,1.19,0,0,1-1.2,1,1.17,1.17,0,0,1-1-1Z"/><path class="cls-1" d="M163.5,66.3h0a3,3,0,0,0-2.9-3.1h-.1a3,3,0,0,0-3,3v.1h0a3,3,0,0,0,2.9,3.1h.1a3.17,3.17,0,0,0,3-3.1h0m-8.2,0h0a5.26,5.26,0,0,1,10.5,0h0a5.26,5.26,0,0,1-10.5,0"/><path class="cls-1" d="M171.5,69.2a2.87,2.87,0,0,0,3-2.6v-.3h0a2.81,2.81,0,0,0-2.6-3h-2.1v5.9Zm-3.8-6.8a1.11,1.11,0,0,1,1.1-1.1h2.8a4.86,4.86,0,0,1,5.2,4.6v.3h0a4.91,4.91,0,0,1-4.9,4.9h-3.1a1.11,1.11,0,0,1-1.1-1.1h0Z"/><path class="cls-1" d="M186.5,66.3h0a3,3,0,0,0-2.9-3.1h-.1a3,3,0,0,0-3,3v.1h0a3,3,0,0,0,2.9,3.1h.1a3.1,3.1,0,0,0,3-3.1h0m-8.2,0h0a5.26,5.26,0,0,1,10.5,0h0a5.26,5.26,0,0,1-10.5,0"/><path class="cls-1" d="M190.4,70.1a.91.91,0,0,1-.4-.8.94.94,0,0,1,1-1,1.42,1.42,0,0,1,.6.2,3.84,3.84,0,0,0,2.5.9c.9,0,1.4-.3,1.4-.9h0c0-.6-.3-.8-2-1.3-2-.5-3.3-1.1-3.3-3h0c0-1.8,1.4-3,3.5-3a5.61,5.61,0,0,1,3.1.9,1.11,1.11,0,0,1,.4,1.4,1.05,1.05,0,0,1-.9.5,1.42,1.42,0,0,1-.6-.2,4.76,4.76,0,0,0-2.1-.7c-.8,0-1.3.4-1.3.9h0c0,.7.4.9,2.1,1.3,2,.5,3.1,1.2,3.1,3h0c0,2-1.5,3.1-3.6,3.1a7.19,7.19,0,0,1-3.5-1.3"/><path d="M8,61.5H6.7l-.5-1.4H3.8l-.5,1.4H2l2.3-6H5.6ZM5.8,59.2,5,56.9l-.8,2.2Z"/><polygon points="8.4 61.5 8.4 55.6 9.6 55.6 9.6 60.5 12.6 60.5 12.6 61.5 8.4 61.5"/><path d="M16.6,59.3l1.2.4a2.37,2.37,0,0,1-.9,1.5,3,3,0,0,1-1.6.5,2.79,2.79,0,0,1-2-.8,3.49,3.49,0,0,1-.8-2.2,2.86,2.86,0,0,1,.8-2.3,2.79,2.79,0,0,1,2-.8,2.41,2.41,0,0,1,1.8.7,2.38,2.38,0,0,1,.6,1.1l-1.2.3c-.1-.3-.2-.6-.4-.7a1.14,1.14,0,0,0-.8-.3,1.61,1.61,0,0,0-1.1.5,3.4,3.4,0,0,0,0,3.2,1.61,1.61,0,0,0,1.1.5,1.14,1.14,0,0,0,.8-.3c.2-.6.4-.9.5-1.3"/><path d="M23.8,61.5H22.5L22,60.2H19.6l-.5,1.4H17.8l2.3-6h1.3Zm-2.2-2.3L20.8,57,20,59.2Z"/><polygon points="24.3 61.5 24.3 55.6 25.5 55.6 25.5 60.5 28.5 60.5 28.5 61.5 24.3 61.5"/><path d="M29,55.5h2.2a4.87,4.87,0,0,1,1.2.1,1.8,1.8,0,0,1,.9.6,2.07,2.07,0,0,1,.6,1,6.75,6.75,0,0,1,.2,1.4,5.85,5.85,0,0,1-.2,1.3,2.38,2.38,0,0,1-.6,1.1,2.18,2.18,0,0,1-.8.5,3.75,3.75,0,0,1-1.1.1H29Zm1.2,1v4h.9a1.7,1.7,0,0,0,.7-.1.55.55,0,0,0,.5-.3.86.86,0,0,0,.3-.6,6.1,6.1,0,0,0,0-2.2l-.3-.6-.6-.3c-.3,0-.7-.1-1-.1Z"/><path d="M34.9,55l.6-1.2h1.3L35.6,55Zm-.3.6h1.2v6H34.6Z"/><path d="M42.4,61.5H41l-.5-1.4H38.1l-.5,1.4H36.4l2.3-6H40Zm-2.3-2.3L39.3,57l-.8,2.2Z"/><polygon points="45.2 61.5 45.2 55.5 47 55.5 48.1 59.6 49.2 55.5 51 55.5 51 61.5 49.9 61.5 49.8 56.8 48.7 61.5 47.5 61.5 46.3 56.8 46.3 61.5 45.2 61.5"/><path d="M57.5,61.5H56.2l-.5-1.4H53.3l-.5,1.4H51.5l2.3-6h1.3Zm-2.3-2.3L54.4,57l-.8,2.2Z"/><polygon points="58.2 61.5 58.2 59 56 55.5 57.4 55.5 58.8 57.9 60.2 55.5 61.6 55.5 59.4 59 59.4 61.5 58.2 61.5"/><path d="M61.1,58.6a4.53,4.53,0,0,1,.3-1.6,1.56,1.56,0,0,1,.6-.8,2.18,2.18,0,0,1,.8-.5,3,3,0,0,1,1.3-.2,3,3,0,0,1,2.1.8,3.9,3.9,0,0,1,0,4.6,2.46,2.46,0,0,1-2.1.8,3,3,0,0,1-2.1-.8,2.74,2.74,0,0,1-.9-2.3m1.2,0a2,2,0,0,0,.5,1.5,1.69,1.69,0,0,0,2.4,0,2.77,2.77,0,0,0,.5-1.6,2.35,2.35,0,0,0-.5-1.6,1.69,1.69,0,0,0-2.4,0,2.62,2.62,0,0,0-.5,1.7"/><path d="M67.3,61.5v-6h2.6a3.4,3.4,0,0,1,1.4.2,1.34,1.34,0,0,1,.7.6,1.69,1.69,0,0,1,.3,1,1.5,1.5,0,0,1-.4,1.1,2.28,2.28,0,0,1-1.2.6,1.47,1.47,0,0,1,.6.5,3.59,3.59,0,0,1,.7,1l.7,1.2H71.2l-.9-1.3-.6-.9a1.38,1.38,0,0,0-.4-.3c-.2,0-.4-.1-.6-.1h-.3v2.5Zm1.2-3.4h.9a4.1,4.1,0,0,0,1.1-.1.32.32,0,0,0,.3-.3.6.6,0,0,0,.1-.4c0-.4-.2-.7-.6-.7H68.5Z"/><rect x="60.6" y="70.1" width="1.1" height="1.1"/><path d="M6.3,65.3H8.5a3.75,3.75,0,0,1,1.1.1,4.05,4.05,0,0,1,.9.5,2.07,2.07,0,0,1,.6,1,4.65,4.65,0,0,1,0,2.7,2.07,2.07,0,0,1-.6,1,2.18,2.18,0,0,1-.8.5,3.75,3.75,0,0,1-1.1.1H6.3Zm1.2,1v3.9h.9a1.7,1.7,0,0,0,.7-.1c.2,0,.3-.1.5-.2s.3-.4.3-.6a4.1,4.1,0,0,0,.1-1.1,3.4,3.4,0,0,0-.1-1l-.3-.6a3.33,3.33,0,0,0-.6-.3c-.3,0-.7-.1-1-.1Z"/><polygon points="11.6 71.2 11.6 65.3 16 65.3 16 66.3 12.8 66.3 12.8 67.6 15.8 67.6 15.8 68.6 12.8 68.6 12.8 70.2 16.1 70.2 16.1 71.2 11.6 71.2"/><path d="M19,65.3h2.4a3.4,3.4,0,0,1,1,.1,1.42,1.42,0,0,1,.6.2c.2.1.3.3.5.5A1.34,1.34,0,0,1,23,68c-.1,0-.1.1-.2.1a2.18,2.18,0,0,1,.8.5,1.61,1.61,0,0,1,.3.9,2.35,2.35,0,0,1-.2.8,1.47,1.47,0,0,1-.5.6,1.14,1.14,0,0,1-.8.3H19Zm1.2,1v1.4h1.7c.2,0,.3-.1.5-.2a.76.76,0,0,0,.2-.5c0-.2,0-.3-.1-.4a.76.76,0,0,0-.5-.2H21Zm0,2.4v1.6h1.9a.52.52,0,0,0,.4-.2.76.76,0,0,0,.2-.5.75.75,0,0,0-.5-.7,3.75,3.75,0,0,0-1.1-.1Z"/><path d="M24.4,68.3a4,4,0,0,1,.3-1.5A2.1,2.1,0,0,1,26,65.5a2.74,2.74,0,0,1,1.3-.2,3.23,3.23,0,0,1,2.1.8,3.75,3.75,0,0,1,0,4.5,2.65,2.65,0,0,1-2.1.8,3.23,3.23,0,0,1-2.1-.8,3,3,0,0,1-.8-2.3m1.2,0a2.1,2.1,0,0,0,.5,1.5,1.57,1.57,0,0,0,2.2.1l.1-.1a2.69,2.69,0,0,0,.5-1.5,2.6,2.6,0,0,0-.4-1.5,1.69,1.69,0,0,0-2.4,0,1.74,1.74,0,0,0-.5,1.5"/><path d="M33.5,69.1v-1h2.6v2.3A2.38,2.38,0,0,1,35,71a3.53,3.53,0,0,1-1.4.3,2.93,2.93,0,0,1-1.6-.4,2.66,2.66,0,0,1-1-1.1,4.19,4.19,0,0,1-.4-1.6,2.93,2.93,0,0,1,.4-1.6,2.35,2.35,0,0,1,1.1-1.1,3.19,3.19,0,0,1,1.4-.3,2.62,2.62,0,0,1,1.7.5,2.09,2.09,0,0,1,.7,1.3l-1.2.2a1.16,1.16,0,0,0-.5-.7,1.61,1.61,0,0,0-.9-.3,1.66,1.66,0,0,0-1.2.5,2.46,2.46,0,0,0-.5,1.5,2.35,2.35,0,0,0,.5,1.6,1.46,1.46,0,0,0,1.2.5,2.35,2.35,0,0,0,.8-.2l.6-.3v-.7Z"/><path d="M36.6,68.3a4,4,0,0,1,.3-1.5,2.1,2.1,0,0,1,1.3-1.3,2.74,2.74,0,0,1,1.3-.2,3.23,3.23,0,0,1,2.1.8,3.75,3.75,0,0,1,0,4.5,2.65,2.65,0,0,1-2.1.8,3.23,3.23,0,0,1-2.1-.8,4,4,0,0,1-.8-2.3m1.2,0a2.1,2.1,0,0,0,.5,1.5,1.66,1.66,0,0,0,1.2.5,1.85,1.85,0,0,0,1.2-.5,2.69,2.69,0,0,0,.5-1.5,2.6,2.6,0,0,0-.4-1.5,1.52,1.52,0,0,0-2.3,0h0a1.93,1.93,0,0,0-.7,1.5"/><polygon points="44.1 71.2 44.1 66.3 42.4 66.3 42.4 65.3 47 65.3 47 66.3 45.3 66.3 45.3 71.2 44.1 71.2"/><path d="M52.4,71.2H51.1l-.5-1.3H48.2l-.5,1.3H46.4l2.3-5.9H50Zm-2.2-2.3-.8-2.2-.8,2.2ZM49,64.8l.5-1.2h1.3l-1.1,1.2Z"/><path d="M55.7,65.3h2.2a3.75,3.75,0,0,1,1.1.1,4.05,4.05,0,0,1,.9.5,3.33,3.33,0,0,1,.6,1,6.75,6.75,0,0,1,.2,1.4,5.85,5.85,0,0,1-.2,1.3,2.07,2.07,0,0,1-.6,1,2.18,2.18,0,0,1-.8.5,3.75,3.75,0,0,1-1.1.1H55.8V65.3Zm1.1,1v3.9h.9a1.7,1.7,0,0,0,.7-.1c.2,0,.3-.1.5-.2s.3-.4.3-.6a4.1,4.1,0,0,0,.1-1.1,3.4,3.4,0,0,0-.1-1l-.3-.6c-.2-.1-.3-.2-.5-.3s-.7-.1-1-.1Z"/><path d="M65.8,69.1l1.2.4a1.94,1.94,0,0,1-.9,1.4,2.85,2.85,0,0,1-3.5-.3,3.49,3.49,0,0,1-.8-2.2,3,3,0,0,1,.8-2.3,2.44,2.44,0,0,1,2-.8,3,3,0,0,1,1.8.6A2.38,2.38,0,0,1,67,67l-1.2.3a1.19,1.19,0,0,0-1.2-1,1.61,1.61,0,0,0-1.1.5,2,2,0,0,0-.4,1.5,2.28,2.28,0,0,0,.4,1.6,1.23,1.23,0,0,0,1,.5,1.14,1.14,0,0,0,.8-.3,1.87,1.87,0,0,0,.5-1"/><rect x="67.2" y="70.1" width="1.1" height="1.1"/><path class="cls-3" d="M16.1,1A23.1,23.1,0,0,0,37.2,1,23.1,23.1,0,0,0,58.3,1V38.8a8.41,8.41,0,0,1-8.6,8.3h0c-4.6,0-8.6.7-12.5,3.2-3.9-2.5-8-3.2-12.6-3.2a8.3,8.3,0,0,1-8.5-8.2V1Z"/><path class="cls-4" d="M23.3,34.9a5.44,5.44,0,0,0,5.3,5.5h.2c3.1,0,5.7.3,8.4,2a14.24,14.24,0,0,1,8.3-2,5.83,5.83,0,0,0,5.9-5.5V9.5c-3.4,1.8-10.8.6-14.1-1.1C34,10.1,26.6,11.3,23.2,9.5"/><path class="cls-5" d="M29.2,33c.6-.2,1.5-.7,1-1.5,0,0-1,1.1-1.8,1a2.16,2.16,0,0,0,1-2.9,2.35,2.35,0,0,0-3.2-.4,2.31,2.31,0,0,0-1.1,3,2.2,2.2,0,0,0,3,.4,4.18,4.18,0,0,1-1.8,1.1s.7,1.3,2.1-.4c2.6,1.8,2,4.1,2.2,5.1l1.2.1c-.1-.8-.1-3.8-2.6-5.5m-1-.6c-.5.3-1.2.1-1.9-.8s-.6-2-.1-2.2,1.4.2,2,1.1.5,1.6,0,1.9"/><path class="cls-5" d="M25.7,29.3c.1.2.7-.2.6-.4s0-1,.5-1v-.2s-.8,0-1,.5c0,0-.6-.7-.8-.6s.2,1,.2,1c-.5-.1-.8.6-.8.6l.1.1a.79.79,0,0,1,1.1-.1c0,.1,0,.1.1.1"/><path class="cls-5" d="M48.3,29.2a2.37,2.37,0,0,0-3.3.4,2.16,2.16,0,0,0,1,2.9c-.8.1-1.8-1-1.8-1-.5.8.4,1.3,1,1.5-2.5,1.7-2.5,4.7-2.7,5.5l1.2-.1c.2-1-.3-3.3,2.2-5.1,1.5,1.7,2.1.4,2.1.4a3.41,3.41,0,0,1-1.8-1.1,2,2,0,1,0,2.5-3.1,1.38,1.38,0,0,0-.4-.3m-.2,2.4c-.6.9-1.4,1.1-1.9.8s-.6-1,0-1.9,1.5-1.4,2-1.1.5,1.3-.1,2.2"/><path class="cls-5" d="M32.2,34.8a3,3,0,0,0-.6,1.8,2.09,2.09,0,0,0,1.6-.8,2.33,2.33,0,0,0,.6-1.8,3,3,0,0,0-1.6.8"/><path class="cls-5" d="M49.2,28.6s.3-.9.2-1-.8.6-.8.6c-.2-.5-1-.5-1-.5v.2c.5.1.7.8.5,1s.5.5.7.4a.79.79,0,0,1,1.1-.1l.1.1.1-.1c-.1-.1-.3-.8-.9-.6"/><path class="cls-5" d="M42.2,34.8a2.36,2.36,0,0,0-1.6-.7,2.41,2.41,0,0,0,2.2,2.6,3.08,3.08,0,0,0-.6-1.9"/><path d="M35.9,14.3a.47.47,0,0,1,.5-.5h.1a.47.47,0,0,1,.5.5h0a.47.47,0,0,1-.5.5h0a.56.56,0,0,1-.6-.5h0m2.5-1.5,1.1-1.7-1.7.6-.6-1.5-.6,1.5-1.7-.6,1.2,1.7ZM39,27.9c-.9-.7.1-1,.3-.8a3.63,3.63,0,0,0,4.2.6,4.32,4.32,0,0,1-2.3-2.3,5,5,0,0,0,5.7-.3c-2.1.4-3.8-1.7-3.8-1.7a6.35,6.35,0,0,0,5.6-1.5c-1.2.1-4.3-1.2-4.3-1.2,4.9-.2,5.3-3.6,5.4-3.6-1.3.9-4.9.5-4.9.5,5.1-1.8,4.7-6,4.7-6-1.1,1.6-6,3.2-6,3.2a3.31,3.31,0,0,0-2.4,3,1.19,1.19,0,0,1-1.2,1c-1.3,0-1.3-1.9-1.3-2.8,0-1.3,0-2.9-1-2.9h-2c-.3,0-1,0-1.2.3-.5.6-.4,2.1-.2,1.8a2.44,2.44,0,0,1,1.2,0c.6.2.2,2.1.2,2.5a1.2,1.2,0,0,1-1.2,1.1,1.19,1.19,0,0,1-1.2-1,3.31,3.31,0,0,0-2.4-3s-5-1.5-6.1-3.2c0,0-.4,4.2,4.8,6.1,0,0-3.6.3-5-.6,0,0,.7,3.6,5.6,3.8,0,0-3.2,1.1-4.4.9a6.16,6.16,0,0,0,5.7,1.9,4.9,4.9,0,0,1-4,1.3,5.15,5.15,0,0,0,5.7.4,4.48,4.48,0,0,1-2.3,2.2,3.48,3.48,0,0,0,4.2-.6c.3-.3,1.2.1.3.8-1.2.9-3,1.2-3.7,2.7l.9.2c-1,1-2.4,2.5-2.5,2.5s-.3-.5-1.3.1c-.5.3-.8.9-.4,1.2,0,0-.2.8.8.8a.8.8,0,0,0,1.2.2c.8-.5,0-.4-.2-.6s0-.1,0-.1c.4-.1.9-.5.5-.8a32.84,32.84,0,0,1,3.1-2l.2.8a3.47,3.47,0,0,1,1.9-1.2,5.12,5.12,0,0,0-1,4.1s.2-.7,1.3-.8c0,0-1.5,1.8.9,5.3,2.4-3.5,1-5.3,1-5.3a1.34,1.34,0,0,1,1.3.8,5,5,0,0,0-1.1-4.2,3.14,3.14,0,0,1,1.9,1.3l.2-.9a31.27,31.27,0,0,1,3,2c-.3.4.2.8.5.8,0,0,.1-.1.1.1s-.9,0-.2.6a.71.71,0,0,0,1.1-.1.1.1,0,0,1,.1-.1c1,.1.8-.8.8-.8.4-.3.1-.9-.5-1.2-1-.5-1.3-.1-1.3-.1l-2.5-2.5.9-.2c-.5-1.3-2.3-1.6-3.4-2.5"/><path class="cls-4" d="M19.5,11.6a4.08,4.08,0,0,1-1.9-.1s-.1,1.2,1.7.8c-.1.9.5,1.6.7,2.6a1,1,0,0,0-.5-.4,2.78,2.78,0,0,0-1.8-.3,2,2,0,0,0,.9,1.3,2.6,2.6,0,0,0,1.5.4,4.19,4.19,0,0,1-.4,1.6l.9.7a5.3,5.3,0,0,0-.1-4.1c-.5-1.1-.6-1.4-.5-1.8.6.2,1.8.5,1.9-.5a3.13,3.13,0,0,1-1.9-.2,2.16,2.16,0,0,0,2.3-1.7A2.1,2.1,0,0,0,20.1,8h0a2.21,2.21,0,0,0-2.5,1.6,2.06,2.06,0,0,0,1.9,2M20.1,8c.5,0,.9.9.8,1.9s-.6,1.5-1.1,1.5-1-.6-.9-1.6S19.6,8,20.1,8"/><path class="cls-4" d="M39.1,7c-.3.4.1.9.1.9h.2a.72.72,0,0,1,.5-.9H40c.2,0,.2-.6,0-.6s-.8-.4-.5-.9h-.2s-.4.6-.1.9c0,0-.9.2-.9.3s.8.3.8.3"/><path class="cls-4" d="M19.8,7.7c0,.2.6.2.7,0a.87.87,0,0,1,.9-.6h.1l.1-.1s-.5-.5-1-.2c0,0-.1-.8-.3-.8s-.4.8-.4.8c-.3-.3-1,0-1,0V7c.4-.2.8.3.9.7"/><path class="cls-4" d="M54.2,7.7c0,.2.7.1.7,0,0-.4.3-.6.7-.6h.2l.1-.2s-.7-.4-1,0c0,0-.3-.8-.4-.8s-.4.9-.4.9c-.4-.3-1,.2-1,.2l.1.1a.73.73,0,0,1,1,.4h0"/><path class="cls-4" d="M55,22.9a.87.87,0,0,1,.9-.6H56l.1-.2a.93.93,0,0,0-1-.1s-.1-.8-.3-.8-.4.8-.4.8c-.3-.3-1,0-1,0v.2a.68.68,0,0,1,.8.4v.2c.1.2.8.3.8.1"/><path class="cls-4" d="M54.7,11.6a3.13,3.13,0,0,1-1.9.2c.2,1,1.3.7,1.9.5a2.88,2.88,0,0,1-.5,1.6,5.3,5.3,0,0,0-.1,4.1l.9-.7a4.28,4.28,0,0,1-.5-1.6,2.6,2.6,0,0,0,1.5-.4,2,2,0,0,0,.9-1.3,2.89,2.89,0,0,0-1.8.3,1.21,1.21,0,0,0-.5.5c.2-1,.8-1.7.8-2.6,1.8.4,1.7-.8,1.7-.8a3.1,3.1,0,0,1-1.9.1,2.06,2.06,0,0,0,2-1.9A2.18,2.18,0,0,0,54.6,8a2.1,2.1,0,0,0-2.2,1.9,2.37,2.37,0,0,0,2.3,1.7M54.6,8c.5,0,1.1.7,1.2,1.8s-.4,1.5-.9,1.6S53.8,11,53.7,10s.4-1.9.9-2"/><path class="cls-4" d="M21.2,22.3v-.2s-.6-.4-1,0c0,0-.3-.8-.4-.8s-.3.8-.3.8c-.4-.3-1,.1-1,.1v.2a.73.73,0,0,1,1,.4v.1c0,.2.7.1.7-.1,0-.4.3-.6.7-.6a.37.37,0,0,0,.3.1"/><path class="cls-4" d="M34.7,7a.77.77,0,0,1,.7.8v.1h.2s.4-.6.1-.9c0,0,.8-.2.8-.3s-.9-.3-.9-.3c.3-.4-.1-.9-.1-.9h-.2c.3.5-.3.9-.5.9s-.3.6-.1.6"/><path class="cls-4" d="M19.5,33.2l.9-.7c-1.2-2.6.6-3.5.4-5.1,1.8.4,1.7-.8,1.7-.8a3.38,3.38,0,0,1-2,.1,2.08,2.08,0,0,0,2.1-1.9A2.33,2.33,0,0,0,20,23.1a2.19,2.19,0,0,0-2.2,2,2.19,2.19,0,0,0,2.4,1.6,3.24,3.24,0,0,1-2,.3c.2,1,1.3.7,1.9.5a2.88,2.88,0,0,1-.5,1.6c-.1.2-.1.3-.2.5a1.46,1.46,0,0,0-.6-.9,2.27,2.27,0,0,0-1.6-.6,1.47,1.47,0,0,0,.5,1.4,2.2,2.2,0,0,0,1.5.6,5.35,5.35,0,0,0,.3,3.1m-.3-7.9c-.1-1,.3-1.9.8-1.9a1.61,1.61,0,0,1,1.2,1.7c0,1-.4,1.6-.9,1.6s-1-.6-1.1-1.4"/><path class="cls-4" d="M19.7,38.1c0,.1.6-.3.5-.4a.66.66,0,0,1,.3-.9c.1,0,.1,0,.2-.1l-.1-.2s-.7,0-.9.5c0,0-.6-.6-.8-.5s.2.9.2.9c-.5-.1-.8.6-.8.6l.1.1a.67.67,0,0,1,1-.1c.2,0,.3,0,.3.1"/><path class="cls-4" d="M55.4,37.4s.3-.8.2-.9-.8.5-.8.5c-.2-.5-.9-.5-.9-.5v.2a.62.62,0,0,1,.5.8c0,.1,0,.1-.1.2s.5.5.6.4a.56.56,0,0,1,.9-.1l.1.1.2-.1c.1,0-.1-.7-.7-.6"/><path class="cls-4" d="M50.5,8l-.7-.9a4.67,4.67,0,0,1-1.7.3,2.62,2.62,0,0,0-.2-1.5,1.89,1.89,0,0,0-1.3-1,2,2,0,0,0,.2,1.7,2.18,2.18,0,0,0,.4.5,11.66,11.66,0,0,0-2.6-1c.5-1.7-.8-1.7-.8-1.7a3.08,3.08,0,0,1,0,1.9A1.93,1.93,0,0,0,42,4.2a2.1,2.1,0,0,0-1.9,2.2h0a2,2,0,0,0,1.6,2.3h.1a2,2,0,0,0,1.9-2.1,3.16,3.16,0,0,1,.1,1.9c1,0,.8-1.2.7-1.8a4.42,4.42,0,0,1,1.6.6,5.44,5.44,0,0,0,4.4.7m-8.4-.3c-1,0-1.8-.5-1.9-1s.8-1,1.9-1,1.6.6,1.6,1-.5,1-1.6,1"/><path class="cls-4" d="M57.4,28.2a1.92,1.92,0,0,0-1.7.6,1.05,1.05,0,0,0-.5.9c-.1-.2-.1-.3-.2-.5a4.22,4.22,0,0,1-.5-1.6c.6.2,1.8.5,1.9-.5a3.24,3.24,0,0,1-2-.3,2.3,2.3,0,0,0,2.4-1.6,2.42,2.42,0,0,0-4.7-.3,2,2,0,0,0,2.1,1.9,2.74,2.74,0,0,1-2-.1s-.2,1.2,1.6.8c-.1,1.6,1.7,2.5.4,5.1l.8.7a5.53,5.53,0,0,0,.3-3.1,2,2,0,0,0,1.5-.6,2,2,0,0,0,.6-1.4m-4-3.2c0-1,.6-1.8,1.2-1.8s.9.9.8,1.9-.6,1.5-1.1,1.4-1-.5-.9-1.5"/><path class="cls-4" d="M54.6,38.2a2.19,2.19,0,0,0-3,.3,2.09,2.09,0,0,0,.8,2.7,3.62,3.62,0,0,1-1.7-.9c-.5.9.6,1.3,1.2,1.5a2.87,2.87,0,0,1-1.4,1A5.7,5.7,0,0,0,47.8,46h1.1a4.71,4.71,0,0,1,.6-1.5,3.51,3.51,0,0,0,1.4.6,2,2,0,0,0,1.5-.6,2.75,2.75,0,0,0-1.5-.8,1.7,1.7,0,0,0-.7.1c.7-.6,1.6-.8,2.2-1.6,1.2,1.3,1.8.3,1.8.3a3.35,3.35,0,0,1-1.7-1,2,2,0,0,0,2.8-.4,2,2,0,0,0-.7-2.9m-.3,2.1c-.6.8-1.3,1-1.7.8s-.6-1,0-1.8,1.5-1.2,1.9-1,.4,1.2-.2,2"/><path class="cls-4" d="M24.1,42.7c-.9-.5-1.2-.7-1.4-1,.6-.2,1.7-.6,1.2-1.5,0,0-1,1-1.8.9a2,2,0,0,0,.8-2.7,2.19,2.19,0,0,0-3-.3,2,2,0,0,0-1,2.7,2.06,2.06,0,0,0,2.9.3,3.37,3.37,0,0,1-1.7,1.1s.6,1.1,1.9-.3c.5.8,1.5,1,2.2,1.6a1.7,1.7,0,0,0-.7-.1,2.36,2.36,0,0,0-1.6.7,2.27,2.27,0,0,0,1.6.6,2,2,0,0,0,1.4-.6,4.71,4.71,0,0,1,.6,1.5h1.1a4.21,4.21,0,0,0-2.5-2.9M22,41c-.4.3-1.1.1-1.7-.8s-.6-1.8-.2-2,1.3.2,1.9,1,.4,1.6,0,1.8"/><path class="cls-4" d="M32.6,9a2,2,0,0,0,1.8-2.2V6.7a2.1,2.1,0,0,0-1.9-2.2h0a2,2,0,0,0-1.8,2.1,3.08,3.08,0,0,1,0-1.9s-1.2,0-.8,1.7c-1,0-1.6.7-2.6,1a1.76,1.76,0,0,0,.4-.5,2.25,2.25,0,0,0,.2-1.8,1.76,1.76,0,0,0-1.3.9,2,2,0,0,0-.3,1.5,5.08,5.08,0,0,1-1.7-.3L24,8a5.61,5.61,0,0,0,4.2-.5,4.42,4.42,0,0,1,1.6-.6c-.1.6-.3,1.8.7,1.8a3.16,3.16,0,0,1,.1-1.9,2.18,2.18,0,0,0,2,2.2M30.8,6.7c0-.5.5-1,1.5-1s1.9.5,1.9,1-.9.9-1.9,1-1.6-.4-1.5-1"/><path class="cls-4" d="M39,45.3a3.21,3.21,0,0,1-1.7.2c.3-.5.7-1.5-.3-1.8a3.21,3.21,0,0,1-.5,1.8,2.11,2.11,0,0,0-1.4-2.4A2.12,2.12,0,0,0,32.8,45a2.15,2.15,0,0,0,1.4,2.6,1.94,1.94,0,0,0,2.2-1.7,2.83,2.83,0,0,1-.4,1.8s1.2.4,1.1-1.4c1,.2,1.8-.3,2.8-.4a2.09,2.09,0,0,0-.6.4,2.72,2.72,0,0,0-.6,1.7,2.16,2.16,0,0,0,2.1-2,3.39,3.39,0,0,1,1.5.6l.9-.7a5.58,5.58,0,0,0-4.2-.6m-2.6.2c-.1.5-.8.9-1.8.7s-1.7-.9-1.6-1.3,1-.7,2.1-.6,1.4.8,1.3,1.2"/><path class="cls-4" d="M32.6,44.5c-.3-.1-.7-.6-.4-1l-.2-.1s-.5.5-.3.9c0,0-.9,0-.9.1s.8.5.8.5c-.4.3-.2.9-.2.9h.2c-.1-.5.5-.8.8-.8s.4-.5.2-.5"/><text class="cls-6" transform="translate(54.04 83.1)">SECRE<tspan class="cls-7" x="27.44" y="0">T</tspan><tspan x="31.72" y="0">ARI</tspan><tspan class="cls-8" x="44.99" y="0">A</tspan><tspan x="49.87" y="0" xml:space="preserve"> DE SALUD</tspan></text></svg>