<svg id="Capa_1" data-name="Capa 1" xmlns="http://www.w3.org/2000/svg" xmlns:xlink="http://www.w3.org/1999/xlink" viewBox="0 0 60 60"><defs><style>.cls-1{fill:none;}.cls-2{clip-path:url(#clip-path);}.cls-3{fill:#e7eced;}.cls-4{fill:#2e8acb;}</style><clipPath id="clip-path"><rect class="cls-1" x="1.5" y="0.86" width="57" height="58.27"/></clipPath></defs><title>user</title><g class="cls-2"><path class="cls-3" d="M21.26,45.71l-8.39,4.58a7.7,7.7,0,0,0-1.35,1,28.11,28.11,0,0,0,36.11.09,7.45,7.45,0,0,0-1.48-1l-9-4.49a3.43,3.43,0,0,1-1.9-3.07V39.27a12.42,12.42,0,0,0,.85-1.09,20.61,20.61,0,0,0,2.79-5.63,2.82,2.82,0,0,0,2-2.68V26.1A2.8,2.8,0,0,0,40,24V18.56S41.1,10.1,29.63,10.1s-10.35,8.46-10.35,8.46V24a2.81,2.81,0,0,0-.94,2.09v3.76a2.84,2.84,0,0,0,1.3,2.37,18.69,18.69,0,0,0,3.4,7v3.44a3.43,3.43,0,0,1-1.79,3Zm0,0"/><path class="cls-4" d="M30.11,1.61A28.11,28.11,0,0,0,11.53,51.24a8,8,0,0,1,1.33-.95l8.4-4.58a3.43,3.43,0,0,0,1.78-3V39.27a18.69,18.69,0,0,1-3.4-7,2.81,2.81,0,0,1-1.3-2.36V26.09A2.82,2.82,0,0,1,19.28,24V18.56S18.16,10.1,29.63,10.1,40,18.56,40,18.56V24a2.81,2.81,0,0,1,.94,2.08v3.77a2.83,2.83,0,0,1-2,2.68,20.76,20.76,0,0,1-2.79,5.63c-.31.44-.6.8-.85,1.09v3.52a3.43,3.43,0,0,0,1.89,3.07l9,4.49a7.34,7.34,0,0,1,1.47,1A28.12,28.12,0,0,0,30.11,1.61Zm0,0"/></g></svg>