<svg xmlns="http://www.w3.org/2000/svg" xmlns:xlink="http://www.w3.org/1999/xlink" viewBox="0 0 231.1 268"><defs><style>.cls-1{fill:#3d5da6;}.cls-2{fill:url(#Degradado_sin_nombre_18);}.cls-3{fill:url(#Degradado_sin_nombre_18-2);}.cls-4{fill:url(#Degradado_sin_nombre_18-3);}.cls-5{fill:url(#Degradado_sin_nombre_18-4);}</style><linearGradient id="Degradado_sin_nombre_18" x1="14.91" y1="205.59" x2="164.01" y2="205.59" gradientUnits="userSpaceOnUse"><stop offset="0.03" stop-color="#e67d23"/><stop offset="1" stop-color="#fbb03b"/></linearGradient><linearGradient id="Degradado_sin_nombre_18-2" x1="29.82" y1="220.27" x2="164.01" y2="220.27" xlink:href="#Degradado_sin_nombre_18"/><linearGradient id="Degradado_sin_nombre_18-3" x1="14.91" y1="234.96" x2="164.01" y2="234.96" xlink:href="#Degradado_sin_nombre_18"/><linearGradient id="Degradado_sin_nombre_18-4" x1="34.94" y1="58.92" x2="105.62" y2="58.92" xlink:href="#Degradado_sin_nombre_18"/></defs><title>AutorregulaIcono convepto sanitario @1x</title><g id="Capa_2" data-name="Capa 2"><g id="Contenidos"><path class="cls-1" d="M231.1,148.88l-46.27-40.69,18.64-17.28a16.43,16.43,0,0,0,5.27-12c0-9.09-7.51-16.49-17.12-16.49A16.81,16.81,0,0,0,180,67l-1.08,1V40.38H0V268H178.92V176.05l52.18,45ZM83.85,172.21l9.68,9.54L80,185.56Zm16.84,6.21L87.32,165.25l5.1-4.84a13.06,13.06,0,0,0,10.08,4.8h12.1Zm-8.91-33.35a6.6,6.6,0,0,1-2.32-4.93,6.7,6.7,0,0,1,2-4.75l31.37-30.89A18.68,18.68,0,0,1,136,99.12h10.21l-42.52,40.39H102.5A13.1,13.1,0,0,0,91.78,145.07Zm77.47-57.62,13.13,12.93-42.21,39.13H114.43Zm15.93-15.13A9.55,9.55,0,0,1,192,69.75a9.23,9.23,0,0,1,9.28,9.15,9.1,9.1,0,0,1-2.92,6.66l-10.55,9.78-13.19-13ZM171.46,260.66H7.45V47.73h164V75.14L153.94,91.78H136a26.13,26.13,0,0,0-18.45,7.53L86.18,130.2A13.88,13.88,0,0,0,82,140.14a14,14,0,0,0,7.47,12.3c0,.19,0,.35,0,.53L78.69,163.25l-9.57,33,33.44-9.41,22.78-21.63h41l5.13,4.42Zm52.19-55.82-54.51-47H102.5a5.51,5.51,0,1,1,0-11h40.62l36.26-33.61,44.27,38.93Z"/><rect class="cls-1" x="14.91" y="187.23" width="44.73" height="7.34"/><rect class="cls-2" x="14.91" y="201.92" width="149.1" height="7.34"/><rect class="cls-3" x="29.82" y="216.6" width="134.19" height="7.34"/><rect class="cls-1" x="14.91" y="216.6" width="7.45" height="7.34"/><rect class="cls-4" x="14.91" y="231.29" width="149.1" height="7.34"/><rect class="cls-1" x="156.55" y="245.97" width="7.45" height="7.34"/><rect class="cls-1" x="14.91" y="245.97" width="134.19" height="7.34"/><rect class="cls-1" x="104.37" y="55.07" width="59.64" height="7.34"/><rect class="cls-1" x="104.37" y="69.75" width="59.64" height="7.34"/><path class="cls-1" d="M89.46,95.91H85.27a30.9,30.9,0,0,1-2.49,12.15,31.73,31.73,0,0,1-29.2,19.06,32.13,32.13,0,0,1-12.33-2.45,31.72,31.72,0,0,1-13.94-11.31,30.84,30.84,0,0,1-2.92-29.59A31.44,31.44,0,0,1,35.87,70a32,32,0,0,1,44,8.44,30.79,30.79,0,0,1,5.41,17.44h8.38A38.81,38.81,0,0,0,90.5,80.55,39.68,39.68,0,0,0,76,63.19,40.4,40.4,0,0,0,20.36,73.84a39,39,0,0,0-3.7,37.43,39.7,39.7,0,0,0,14.52,17.36A40.41,40.41,0,0,0,86.81,118a38.89,38.89,0,0,0,6.84-22.07Z"/><path class="cls-5" d="M35.66,93.76l14,21.92a4.69,4.69,0,0,0,8.22-.62L105.24,6.4a4.56,4.56,0,0,0-2.44-6,4.69,4.69,0,0,0-6.12,2.41L52.81,103.4,43.55,88.88a4.7,4.7,0,0,0-6.42-1.44,4.54,4.54,0,0,0-1.47,6.32Z"/></g></g></svg>