<svg xmlns="http://www.w3.org/2000/svg" xmlns:xlink="http://www.w3.org/1999/xlink" viewBox="0 0 229.74 364.07"><defs><style>.cls-1{fill:#3d5da6;}.cls-2{fill:url(#Degradado_sin_nombre_18);}.cls-3{fill:url(#Degradado_sin_nombre_18-2);}.cls-4{fill:url(#Degradado_sin_nombre_18-3);}.cls-5{fill:url(#Degradado_sin_nombre_18-4);}.cls-6{fill:url(#Degradado_sin_nombre_18-5);}.cls-7{fill:url(#Degradado_sin_nombre_18-6);}</style><linearGradient id="Degradado_sin_nombre_18" x1="58.33" y1="166.85" x2="79.12" y2="166.85" gradientUnits="userSpaceOnUse"><stop offset="0.03" stop-color="#e67d23"/><stop offset="1" stop-color="#fbb03b"/></linearGradient><linearGradient id="Degradado_sin_nombre_18-2" x1="58.33" y1="206.45" x2="79.12" y2="206.45" xlink:href="#Degradado_sin_nombre_18"/><linearGradient id="Degradado_sin_nombre_18-3" x1="58.33" y1="186.65" x2="79.12" y2="186.65" xlink:href="#Degradado_sin_nombre_18"/><linearGradient id="Degradado_sin_nombre_18-4" x1="108.84" y1="12.13" x2="117.03" y2="12.13" xlink:href="#Degradado_sin_nombre_18"/><linearGradient id="Degradado_sin_nombre_18-5" x1="49.16" y1="33.45" x2="72.35" y2="33.45" xlink:href="#Degradado_sin_nombre_18"/><linearGradient id="Degradado_sin_nombre_18-6" x1="153.52" y1="33.45" x2="176.71" y2="33.45" xlink:href="#Degradado_sin_nombre_18"/></defs><title>Autorregulaicono visita inspeccion  @1x</title><g id="Capa_2" data-name="Capa 2"><g id="Contenidos"><path class="cls-1" d="M148.22,356.76V330.63a10.67,10.67,0,0,1,1-4.45L161.44,299a18,18,0,0,0,1.6-7.43v-7.86h48.17V155.76H185.28V137.49H144.52a33.44,33.44,0,0,0-29.65,17.83,33.44,33.44,0,0,0-29.64-17.83H44.47v18.27H18.53V283.67H66.7v7.18A18.16,18.16,0,0,0,69,299.72L83.83,326a10.9,10.9,0,0,1,1.4,5.32v25.45H0v7.31H229.74v-7.31ZM203.8,163.07V276.36H126V280a11.06,11.06,0,0,1-11.12,11,10.68,10.68,0,0,1-1.37-.17,47.19,47.19,0,0,0-12-21.76h83.78v-106ZM51.88,144.8H85.23a25.79,25.79,0,0,1,25.94,25.58v29.24h7.41V170.38a25.79,25.79,0,0,1,25.94-25.58h33.34V261.74H118.58V206.93h-7.41v54.81H96.34V243.47a22.11,22.11,0,0,0-22.23-21.93,7.37,7.37,0,0,0-7.41,7.31v32.89H51.88ZM25.94,276.36V163.07H44.47v106H66.7v7.31Zm49.57,19.81a10.9,10.9,0,0,1-1.4-5.32v-62a14.74,14.74,0,0,1,14.82,14.62v23.44l6.52,6.43a39.89,39.89,0,0,1,12,28.6h7.41c0-1.23-.09-2.44-.18-3.66h.18A18.48,18.48,0,0,0,133,283.67h22.61v7.86a10.63,10.63,0,0,1-1,4.45L142.41,323.2a17.91,17.91,0,0,0-1.27,4.33H92.2a18.16,18.16,0,0,0-1.89-5.09Zm17.13,53.28H126v-7.31H92.64v-7.3h48.17v7.3H133.4v7.31h7.41v7.31H92.64Z"/><path class="cls-1" d="M144.52,232.51h7.41v7.31h-7.41Z"/><path class="cls-1" d="M159.34,232.51h7.41v7.31h-7.41Z"/><path class="cls-1" d="M129.69,232.51h7.41v7.31h-7.41Z"/><path class="cls-1" d="M126,247.13h44.46v7.31H126Z"/><path class="cls-1" d="M126,217.89h44.46v7.31H126Z"/><path class="cls-1" d="M126.05,191.93l44.46.76-.12,7.3-44.46-.75Z"/><path class="cls-1" d="M126,177.69h44.46V185H126Z"/><path class="cls-1" d="M126,163.07h44.46v7.31H126Z"/><path class="cls-1" d="M96.57,104.59A2.7,2.7,0,0,1,98,107v11.14c0,9.46,8.08,17.16,18,17.16s18-7.7,18-17.16V107a2.76,2.76,0,0,1,1.44-2.42,37,37,0,0,0,19.59-32.2,36,36,0,0,0-12-26.81A39.82,39.82,0,0,0,114.4,35.23C94.12,36,77.32,52.37,77,71.69,76.71,85.22,84.22,97.83,96.57,104.59Zm7.43,7.82h24v5.72H104Zm3-28.6h-3A2.86,2.86,0,1,1,107,81Zm12,22.88h-6V89.53h6Zm-3,22.88a12.08,12.08,0,0,1-10.34-5.72h20.69A12.1,12.1,0,0,1,116,129.57Zm-1.37-88.63c.46,0,.92,0,1.38,0a33.66,33.66,0,0,1,22.88,8.76,30.5,30.5,0,0,1,10.16,22.69,31.28,31.28,0,0,1-16.58,27.24,8.46,8.46,0,0,0-4.41,7.08h-3V89.53h3A8.59,8.59,0,1,0,119,81v2.86h-6V81a9,9,0,1,0-9,8.58h3v17.16h-3a8.39,8.39,0,0,0-4.38-7.06A31.19,31.19,0,0,1,83,71.8C83.28,55.44,97.49,41.6,114.64,40.94ZM125,83.81V81a3,3,0,1,1,3,2.86Z"/><path class="cls-2" d="M74.22,164.59l4.9-4.84-1.87-1.85-3,3v-.76H58.33V175.8H74.22ZM61,173.19V162.74h10.6v.77l-5.09,5-1.76-2.6-2.2,1.45,3.55,5.25,5.5-5.43v6Z"/><path class="cls-3" d="M74.22,204.18l4.9-4.84-1.87-1.84-3,3v-.76H58.33V215.4H74.22ZM61,212.79V202.34h10.6v.76l-5.09,5-1.76-2.59L62.52,207l3.55,5.24,5.5-5.42v6Z"/><path class="cls-4" d="M74.22,184.39l4.9-4.85-1.87-1.84-3,3v-.76H58.33V195.6H74.22ZM61,193V182.54h10.6v.76l-5.09,5-1.76-2.6-2.2,1.45,3.55,5.24,5.5-5.42v6Z"/><path class="cls-5" d="M108.84,0H117V24.26h-8.19Z"/><path class="cls-6" d="M49.16,27.73,55,22,72.35,39.16l-5.8,5.72Z"/><path class="cls-7" d="M153.52,39.16,170.91,22l5.8,5.72-17.4,17.15Z"/></g></g></svg>