<svg xmlns="http://www.w3.org/2000/svg" xmlns:xlink="http://www.w3.org/1999/xlink" viewBox="0 0 252 256.1"><defs><style>.cls-1{fill:#3d5da6;}.cls-2{fill:url(#Degradado_sin_nombre_18);}</style><linearGradient id="Degradado_sin_nombre_18" x1="153.96" y1="219.91" x2="171.8" y2="219.91" gradientUnits="userSpaceOnUse"><stop offset="0.03" stop-color="#e67d23"/><stop offset="1" stop-color="#fbb03b"/></linearGradient></defs><title>DrogueriaQuedebo hacer@1x</title><g id="Capa_2" data-name="Capa 2"><g id="Capa_1-2" data-name="Capa 1"><path class="cls-1" d="M65,95H12.19a4.1,4.1,0,0,1-4.06-4.13V66.09H56.9V57.83H8.13V33a4.1,4.1,0,0,1,4.06-4.13H65V20.65H12.19A12.31,12.31,0,0,0,0,33V90.87a12.31,12.31,0,0,0,12.19,12.4H65Z"/><path class="cls-1" d="M239.81,20.65H187v8.26h52.84A4.1,4.1,0,0,1,243.87,33V57.83H195.1v8.26h48.77V90.87A4.1,4.1,0,0,1,239.81,95H187v8.27h52.84A12.31,12.31,0,0,0,252,90.87V33A12.31,12.31,0,0,0,239.81,20.65Z"/><path class="cls-1" d="M227.61,247.84H105.68V140.44H32.52v107.4H24.39V111.53H16.26V256.1H235.74V111.53h-8.13Zm-130.06,0H40.65V148.7h56.9Z"/><rect class="cls-1" x="48.77" y="194.14" width="8.13" height="8.26"/><path class="cls-1" d="M126,123.92c33.62,0,61-27.8,61-62S159.62,0,126,0,65,27.79,65,62,92.38,123.92,126,123.92ZM126,8.26c29.13,0,52.84,24.09,52.84,53.7s-23.71,53.7-52.84,53.7S73.16,91.57,73.16,62,96.87,8.26,126,8.26Z"/><path class="cls-1" d="M109.54,103.27a23.84,23.84,0,0,0,17.1-7.2L159.56,62.6a24.65,24.65,0,0,0-17.1-41.95,23.84,23.84,0,0,0-17.1,7.2L92.44,61.31a24.66,24.66,0,0,0,17.1,42ZM98.19,67.15l15.62-15.87L131.26,69,137,63.17,119.55,45.44l11.56-11.75a15.82,15.82,0,0,1,11.35-4.78,16.37,16.37,0,0,1,11.35,27.86L120.89,90.23A15.81,15.81,0,0,1,109.54,95,16.36,16.36,0,0,1,98.19,67.15Z"/><polygon class="cls-1" points="216.44 239.06 216.44 234.91 117.38 234.91 117.38 148.2 212.35 148.2 212.35 239.06 216.44 239.06 216.44 234.91 216.44 239.06 220.52 239.06 220.52 139.91 109.22 139.91 109.22 243.21 220.52 243.21 220.52 239.06 216.44 239.06"/><path class="cls-1" d="M176.26,219.91a13.38,13.38,0,0,1-24.09,8l-2.38,1.79a16.36,16.36,0,0,0,29.45-9.82,16.54,16.54,0,0,0-.75-4.9l-2.84.89A13.22,13.22,0,0,1,176.26,219.91Z"/><path class="cls-1" d="M116.78,199.1V208h6v32.71H203V208H209V199.1ZM206,205H177.75v3h22.3v29.74H125.7V208H148v-3H119.75v-3H206Z"/><path class="cls-1" d="M147.88,226.45l2.73-1.19a13.26,13.26,0,0,1-1.12-5.35,13.39,13.39,0,0,1,24.1-8L176,210.1a16.36,16.36,0,0,0-28.08,16.35Z"/><path class="cls-2" d="M158.42,211v4.46H154v8.92h4.46v4.47h8.92v-4.47h4.46v-8.92h-4.46V211Zm10.41,7.44v3h-4.46v4.46h-3V221.4h-4.46v-3h4.46V214h3v4.46Z"/><path class="cls-1" d="M147.51,188.31a4.47,4.47,0,0,1,3.2-3.74l5.15-1.47,1.63,6.51,3.9-2.61v9.12h3V187l3.9,2.61,1.63-6.51,5.15,1.47a4.48,4.48,0,0,1,3.2,3.74l1,8,2.95-.36-1-8a7.43,7.43,0,0,0-4.94-6.08V169.67a4.07,4.07,0,0,0,.43-.4,4.49,4.49,0,0,0,1-3.63,4.26,4.26,0,0,0-1.43-2.51V159a6,6,0,0,0-5.14-5.9,11.49,11.49,0,0,0-9.14-4.51A12.5,12.5,0,0,0,149.49,161v2.1a4.33,4.33,0,0,0-1.42,2.52,4.49,4.49,0,0,0,1,3.63,4.07,4.07,0,0,0,.43.4v12.19a7.41,7.41,0,0,0-4.94,6.08l-1,8,2.95.36Zm25.78-17.47V181l-3-.85v-.37h-3v1.31l-.93,3.72-3.53-2.35-3.53,2.35-.93-3.72v-1.31h-3v.37l-3,.85v-10.5a5.94,5.94,0,0,0,1.74,4.21l3.34,3.33a5.86,5.86,0,0,0,4.2,1.74H164a5.88,5.88,0,0,0,4.2-1.74l3.34-3.33a5.94,5.94,0,0,0,1.74-4.21v.36Zm-17.85-.36v-5.59h3.23a11.57,11.57,0,0,0,7.18-2.47,11.48,11.48,0,0,0,4.46,2.11v5.95a3,3,0,0,1-.87,2.11l-3.33,3.33a3,3,0,0,1-2.11.87h-2.25a3,3,0,0,1-2.1-.87l-3.34-3.34A2.94,2.94,0,0,1,155.44,170.48Zm19.31-4.36a1.44,1.44,0,0,1-.33,1.22,1.47,1.47,0,0,1-1.13.53v-3A1.57,1.57,0,0,1,174.75,166.12ZM152.47,161a9.53,9.53,0,0,1,9.51-9.51,8.52,8.52,0,0,1,7.1,3.8l.44.66h.79a3,3,0,0,1,3,3v3l-.26,0a8.62,8.62,0,0,1-6.13-2.54l-1.05-1-1,1a8.6,8.6,0,0,1-6.13,2.54h-6.2V161Zm-1.47,5.1a1.59,1.59,0,0,1,1.47-1.2v3a1.45,1.45,0,0,1-1.13-.53A1.49,1.49,0,0,1,151,166.12Z"/></g></g></svg>