<svg xmlns="http://www.w3.org/2000/svg" viewBox="0 0 181 235.19"><defs><style>.cls-1{fill:#3d5da6;}</style></defs><title>DrogueriaRequerimiento1@1x</title><g id="Capa_2" data-name="Capa 2"><g id="Capa_1-2" data-name="Capa 1"><polygon class="cls-1" points="172.33 139.81 181 139.81 181 9.75 181 0 172.33 0 0 0 0 9.75 172.33 9.75 172.33 139.81"/><path class="cls-1" d="M115.23,102A6.7,6.7,0,0,1,120,96.34l7.72-2.2,2.44,9.76,5.86-3.91v13.68h4.47V100l5.85,3.9,2.45-9.76,7.72,2.21a6.7,6.7,0,0,1,4.81,5.61l1.5,12,4.42-.55-1.5-12a11.13,11.13,0,0,0-7.4-9.13V74a5.91,5.91,0,0,0,.63-.6,6.69,6.69,0,0,0,1.51-5.44,6.45,6.45,0,0,0-2.14-3.77V57.89A9,9,0,0,0,150.66,49a17.25,17.25,0,0,0-13.72-6.77A18.75,18.75,0,0,0,118.21,61v3.15a6.53,6.53,0,0,0-2.14,3.79,6.69,6.69,0,0,0,1.51,5.44,6.06,6.06,0,0,0,.64.6V92.27a11.11,11.11,0,0,0-7.41,9.12l-1.5,12,4.43.55Zm38.68-26.21V91l-4.46-1.28v-.55H145v2l-1.4,5.59-5.3-3.53L133,96.67l-1.4-5.59v-2h-4.46v.55L122.68,91V75.2a8.86,8.86,0,0,0,2.61,6.31l5,5a8.86,8.86,0,0,0,6.32,2.61H140a8.86,8.86,0,0,0,6.31-2.61l5-5a8.9,8.9,0,0,0,2.61-6.31v.54Zm-26.77-.54V66.81H132a17.33,17.33,0,0,0,10.78-3.71,17.14,17.14,0,0,0,6.69,3.16V75.2a4.39,4.39,0,0,1-1.31,3.15l-5,5a4.43,4.43,0,0,1-3.16,1.3H136.6a4.39,4.39,0,0,1-3.15-1.31l-5-5A4.42,4.42,0,0,1,127.14,75.2Zm29-6.55a2.23,2.23,0,0,1-2.2,2.62V66.85A2.37,2.37,0,0,1,156.11,68.65ZM122.68,61a14.28,14.28,0,0,1,14.26-14.27,12.76,12.76,0,0,1,10.65,5.7l.67,1h1.19a4.46,4.46,0,0,1,4.46,4.46v4.49c-.13,0-.25,0-.38,0a12.93,12.93,0,0,1-9.2-3.81L142.76,57l-1.58,1.58a12.91,12.91,0,0,1-9.2,3.81h-9.07l-.23,0V61Zm-2.2,7.65a2.36,2.36,0,0,1,2.2-1.8v4.42a2.21,2.21,0,0,1-1.7-.78A2.25,2.25,0,0,1,120.48,68.65Z"/><path class="cls-1" d="M118.56,213.48a7.24,7.24,0,0,0,7.23-7.24V191.77a7.24,7.24,0,1,0-14.47,0v14.47A7.25,7.25,0,0,0,118.56,213.48Zm-2.42-21.71a2.42,2.42,0,0,1,4.83,0v4.82h-4.83Zm0,9.65H121v4.82a2.42,2.42,0,1,1-4.83,0Z"/><path class="cls-1" d="M96.85,199a21.71,21.71,0,1,0,21.71-21.72A21.73,21.73,0,0,0,96.85,199Zm21.71-16.89A16.89,16.89,0,1,1,101.67,199,16.9,16.9,0,0,1,118.56,182.12Z"/><path class="cls-1" d="M149.57,163.68l-4.48-1.79V158h-4.82v7.17l7.51,3a7.2,7.2,0,0,1,4.55,6.72v2.41H135.44v4.83h16.89v33.77H135.44v4.83h16.89v4.82a4.83,4.83,0,0,1-4.82,4.83H89.61a4.84,4.84,0,0,1-4.83-4.83v-4.82h16.89v-4.83H84.78V182.12h16.89v-4.83H84.78v-2.41a7.21,7.21,0,0,1,4.55-6.72l7.52-3V158H92v3.9l-4.48,1.79A12,12,0,0,0,80,174.88v50.66a9.66,9.66,0,0,0,9.65,9.65h57.9a9.66,9.66,0,0,0,9.65-9.65V174.88A12,12,0,0,0,149.57,163.68Z"/><path class="cls-1" d="M84.78,136.28v9.65A7.25,7.25,0,0,0,92,153.17h53.07a7.25,7.25,0,0,0,7.24-7.24v-9.65a7.24,7.24,0,0,0-7.24-7.23H92A7.24,7.24,0,0,0,84.78,136.28Zm62.73,0v9.65a2.42,2.42,0,0,1-2.42,2.42H92a2.42,2.42,0,0,1-2.41-2.42v-9.65A2.41,2.41,0,0,1,92,133.87h53.07A2.41,2.41,0,0,1,147.51,136.28Z"/><rect class="cls-1" x="108.91" y="119.4" width="4.82" height="4.82"/><path class="cls-1" d="M12.41,90.45H84.78v24.12h29v-3.41L88.19,85.62H7.59V235.19H75.13v-4.82H12.41Zm77.2,3.41,15.89,15.89H89.61Z"/><path class="cls-1" d="M34.12,133.87H48.6v-7.24h7.23V112.16H48.6v-7.24H34.12v7.24H26.89v14.47h7.23Zm-2.41-12.06V117H39v-7.23h4.82V117H51v4.83H43.77v7.24H39v-7.24Z"/><path class="cls-1" d="M65.48,95.27H17.24v48.25H65.48ZM60.66,138.7H22.06V100.1h38.6Z"/><rect class="cls-1" x="17.24" y="153.17" width="4.82" height="4.82"/><rect class="cls-1" x="26.89" y="153.17" width="48.25" height="4.82"/><rect class="cls-1" x="17.24" y="162.82" width="57.9" height="4.82"/><rect class="cls-1" x="70.31" y="206.24" width="4.82" height="4.82"/><rect class="cls-1" x="17.24" y="186.94" width="57.9" height="4.82"/><rect class="cls-1" x="17.24" y="196.59" width="57.9" height="4.82"/><rect class="cls-1" x="17.24" y="206.24" width="48.25" height="4.82"/><path class="cls-1" d="M58.44,13,29,42.47l-4.1-4.1L20.4,42.85,29,51.44l34-33.95Z"/><path class="cls-1" d="M17.27,54.92,13.61,80.78h3.06l4.72-2.38,3.55,2.38h2.81l1.41-12.85,1.42,12.85h2.81l3.54-2.38,4.73,2.38h3.06L44.61,80h0L42.16,62.68h7.73l.79-2.59H41.79l-.36-2.58h10l.79-2.59H41.06l-.38-2.7A15.42,15.42,0,1,0,13.8,42a15.49,15.49,0,0,0,3.85,10.23l-.38,2.7Zm13.32,2.51A14.82,14.82,0,0,0,33.1,57l1.69,11.08,2.53-.39L35.56,56.08a15.46,15.46,0,0,0,2.84-1.72l3.33,23.57-5-2.52L32.85,78ZM16.36,42a12.8,12.8,0,1,1,12.8,12.93A12.88,12.88,0,0,1,16.36,42Zm.24,35.93,3.33-23.56a15.46,15.46,0,0,0,2.84,1.72L21,67.65l2.53.4L25.22,57a15.12,15.12,0,0,0,2.52.46L25.47,78l-3.89-2.63Z"/><rect class="cls-1" x="56.25" y="35.21" width="57.9" height="4.82"/><rect class="cls-1" x="56.25" y="44.86" width="57.9" height="4.82"/><rect class="cls-1" x="56.25" y="54.51" width="48.25" height="4.82"/></g></g></svg>