<svg xmlns="http://www.w3.org/2000/svg" viewBox="0 0 209 253.85"><defs><style>.cls-1{fill:#3d5da6;}.cls-2{fill:none;stroke:#3d5da6;stroke-linecap:round;stroke-linejoin:round;stroke-width:5px;}</style></defs><title>DrogueriaRequerimiento 2@1x</title><g id="Capa_2" data-name="Capa 2"><g id="Capa_1-2" data-name="Capa 1"><path class="cls-1" d="M167.74,245.78H8.07V9l86.41-.39,108-.48H205A4,4,0,1,0,205,0h-2.57L195.8,0l-23,.1-69,.31L4,.9a4,4,0,0,0-4,4V249.81a4,4,0,0,0,4,4h163.7Z"/><path class="cls-1" d="M201,122.85h0v-105A4.15,4.15,0,0,0,199.88,15a3.81,3.81,0,0,0-2.71-1.17H19.83A3.81,3.81,0,0,0,17.12,15,4.15,4.15,0,0,0,16,17.85v159a4.15,4.15,0,0,0,1.12,2.83,3.81,3.81,0,0,0,2.71,1.17H197.17a3.81,3.81,0,0,0,2.71-1.17,4.15,4.15,0,0,0,1.12-2.83v-54Zm-7.67-101v97H23.67v-48H177a4,4,0,0,0,0-8H23.67v-41Zm-169.66,105H193.33v46H23.67Z"/><path class="cls-1" d="M39.4,97.15v2.1H37.3v4.2h2.1v2.1h4.2v-2.1h2.1v-4.2H43.6v-2.1Zm4.9,3.5v1.4H42.2v2.1H40.8v-2.1H38.7v-1.4h2.1v-2.1h1.4v2.1Z"/><path class="cls-1" d="M36.84,104.46a5.6,5.6,0,0,1,4.66-8.71A5.56,5.56,0,0,1,45,97l.88-1.08a7,7,0,0,0-10.22,9.33Z"/><path class="cls-1" d="M41.5,107A5.62,5.62,0,0,1,38,105.71l-.88,1.09a7,7,0,0,0,10.22-9.34l-1.16.78A5.6,5.6,0,0,1,41.5,107Z"/><path class="cls-1" d="M35.9,81.75H47.1a1.4,1.4,0,0,0,1.4-1.4v-3.5a1.4,1.4,0,0,0-1.4-1.4H35.9a1.4,1.4,0,0,0-1.4,1.4v3.5A1.4,1.4,0,0,0,35.9,81.75Zm0-4.9H47.1v3.5H35.9Z"/><path class="cls-1" d="M50.45,86.84l-4.05-2V83.15H45v2.53l4.83,2.42a1.38,1.38,0,0,1,.77,1.25v2.2H32.4v-2.2a1.38,1.38,0,0,1,.77-1.25L37.47,86H40.8v-1.4H38v-1.4H36.6v1.67l-4.05,2A2.79,2.79,0,0,0,31,89.35v29.5H52V89.35A2.79,2.79,0,0,0,50.45,86.84ZM33.8,117.45H32.4v-1.4h1.4Zm2.8,0H35.2v-1.4h1.4Zm2.8,0H38v-1.4h1.4Zm2.8,0H40.8v-1.4h1.4Zm2.8,0H43.6v-1.4H45Zm2.8,0H46.4v-1.4h1.4Zm2.8,0H49.2v-1.4h1.4Zm0-2.8H32.4v-3.5H50.6Zm0-4.9H32.4V93H50.6Z"/><rect class="cls-1" x="42.2" y="84.55" width="1.4" height="1.4"/><path class="cls-1" d="M64.4,97.15v2.1H62.3v4.2h2.1v2.1h4.2v-2.1h2.1v-4.2H68.6v-2.1Zm4.9,3.5v1.4H67.2v2.1H65.8v-2.1H63.7v-1.4h2.1v-2.1h1.4v2.1Z"/><path class="cls-1" d="M61.84,104.46a5.6,5.6,0,0,1,4.66-8.71A5.56,5.56,0,0,1,70,97l.88-1.08a7,7,0,0,0-10.22,9.33Z"/><path class="cls-1" d="M66.5,107A5.62,5.62,0,0,1,63,105.71l-.88,1.09a7,7,0,0,0,10.22-9.34l-1.16.78A5.6,5.6,0,0,1,66.5,107Z"/><path class="cls-1" d="M60.9,81.75H72.1a1.4,1.4,0,0,0,1.4-1.4v-3.5a1.4,1.4,0,0,0-1.4-1.4H60.9a1.4,1.4,0,0,0-1.4,1.4v3.5A1.4,1.4,0,0,0,60.9,81.75Zm0-4.9H72.1v3.5H60.9Z"/><path class="cls-1" d="M75.45,86.84l-4-2V83.15H70v2.53l4.83,2.42a1.38,1.38,0,0,1,.77,1.25v2.2H57.4v-2.2a1.38,1.38,0,0,1,.77-1.25L62.47,86H65.8v-1.4H63v-1.4H61.6v1.67l-4.05,2A2.79,2.79,0,0,0,56,89.35v29.5H77V89.35A2.79,2.79,0,0,0,75.45,86.84ZM58.8,117.45H57.4v-1.4h1.4Zm2.8,0H60.2v-1.4h1.4Zm2.8,0H63v-1.4h1.4Zm2.8,0H65.8v-1.4h1.4Zm2.8,0H68.6v-1.4H70Zm2.8,0H71.4v-1.4h1.4Zm2.8,0H74.2v-1.4h1.4Zm0-2.8H57.4v-3.5H75.6Zm0-4.9H57.4V93H75.6Z"/><rect class="cls-1" x="67.2" y="84.55" width="1.4" height="1.4"/><path class="cls-1" d="M89.4,97.15v2.1H87.3v4.2h2.1v2.1h4.2v-2.1h2.1v-4.2H93.6v-2.1Zm4.9,3.5v1.4H92.2v2.1H90.8v-2.1H88.7v-1.4h2.1v-2.1h1.4v2.1Z"/><path class="cls-1" d="M86.84,104.46a5.6,5.6,0,0,1,4.66-8.71A5.56,5.56,0,0,1,95,97l.88-1.08a7,7,0,0,0-10.22,9.33Z"/><path class="cls-1" d="M91.5,107A5.62,5.62,0,0,1,88,105.71l-.88,1.09a7,7,0,0,0,10.22-9.34l-1.16.78A5.6,5.6,0,0,1,91.5,107Z"/><path class="cls-1" d="M85.9,81.75H97.1a1.4,1.4,0,0,0,1.4-1.4v-3.5a1.4,1.4,0,0,0-1.4-1.4H85.9a1.4,1.4,0,0,0-1.4,1.4v3.5A1.4,1.4,0,0,0,85.9,81.75Zm0-4.9H97.1v3.5H85.9Z"/><path class="cls-1" d="M100.45,86.84l-4-2V83.15H95v2.53l4.83,2.42a1.38,1.38,0,0,1,.77,1.25v2.2H82.4v-2.2a1.38,1.38,0,0,1,.77-1.25L87.47,86H90.8v-1.4H88v-1.4H86.6v1.67l-4,2A2.79,2.79,0,0,0,81,89.35v29.5h21V89.35A2.79,2.79,0,0,0,100.45,86.84ZM83.8,117.45H82.4v-1.4h1.4Zm2.8,0H85.2v-1.4h1.4Zm2.8,0H88v-1.4h1.4Zm2.8,0H90.8v-1.4h1.4Zm2.8,0H93.6v-1.4H95Zm2.8,0H96.4v-1.4h1.4Zm2.8,0H99.2v-1.4h1.4Zm0-2.8H82.4v-3.5h18.2Zm0-4.9H82.4V93h18.2Z"/><rect class="cls-1" x="92.2" y="84.55" width="1.4" height="1.4"/><path class="cls-1" d="M172.68,163.16v-1.89h1.81V157.5h-1.81v-1.89h-3.62v1.89h-1.81v3.77h1.81v1.89ZM168.46,160v-1.26h1.8v-1.88h1.21v1.88h1.81V160h-1.81v1.89h-1.21V160Z"/><path class="cls-1" d="M170.87,154.35a4.67,4.67,0,0,1,3,1.12l.76-1a5.92,5.92,0,0,0-3.79-1.4,6.17,6.17,0,0,0-6,6.29,6.52,6.52,0,0,0,1,3.5l1-.7a5.19,5.19,0,0,1-.81-2.8A4.94,4.94,0,0,1,170.87,154.35Z"/><path class="cls-1" d="M174.88,156.59a5.16,5.16,0,0,1,.81,2.79,4.93,4.93,0,0,1-4.82,5,4.7,4.7,0,0,1-3-1.11l-.76,1a5.89,5.89,0,0,0,3.79,1.39,6.17,6.17,0,0,0,6-6.29,6.38,6.38,0,0,0-1-3.49Z"/><polygon class="cls-1" points="167.25 143.66 171.47 143.66 171.47 142.4 167.42 142.4 168.93 136.11 169.06 136.11 169.06 141.14 170.26 141.14 170.26 136.11 171.47 136.11 171.47 141.14 172.68 141.14 172.68 136.11 172.81 136.11 174.49 143.1 174.49 144.91 175.69 144.91 175.69 143.03 173.75 134.85 167.99 134.85 166.06 142.87 166.04 144.91 167.25 144.91 167.25 143.66"/><path class="cls-1" d="M179.31,169.37V150.73a2.54,2.54,0,0,0-.71-1.78l-2.66-2.78H165.79L163.13,149a2.57,2.57,0,0,0-.7,1.78v18.64l-.56,2.31a2,2,0,0,0-.05.42,1.73,1.73,0,0,0,1.68,1.75h14.74a1.72,1.72,0,0,0,1.67-1.75,1.51,1.51,0,0,0,0-.42Zm-13-21.94h9.15l1.81,1.89H164.48Zm-2.66,3.3a.77.77,0,0,1,0-.15h14.44s0,.1,0,.15v18.09H163.61Zm14.61,21.86H163.5a.48.48,0,0,1-.47-.49.49.49,0,0,1,0-.12l.46-1.9h14.75l.44,1.9a.5.5,0,0,1,0,.12A.49.49,0,0,1,178.24,172.59Z"/><path class="cls-1" d="M138.45,163.16v-1.89h1.89V157.5h-1.89v-1.89h-3.77v1.89h-1.89v3.77h1.89v1.89Zm-4.4-3.15v-1.26h1.89v-1.88h1.25v1.88h1.89V160h-1.89v1.89h-1.25V160Z"/><path class="cls-1" d="M136.56,154.35a5,5,0,0,1,3.17,1.12l.79-1a6.29,6.29,0,0,0-9.19,8.39l1-.7a5,5,0,0,1-.85-2.8A5,5,0,0,1,136.56,154.35Z"/><path class="cls-1" d="M140.75,156.59a5,5,0,0,1-7.35,6.71l-.79,1a6.29,6.29,0,0,0,10.24-4.9,6.25,6.25,0,0,0-1-3.49Z"/><polygon class="cls-1" points="132.79 143.66 137.19 143.66 137.19 142.4 132.97 142.4 134.54 136.11 134.68 136.11 134.68 141.14 135.94 141.14 135.94 136.11 137.19 136.11 137.19 141.14 138.45 141.14 138.45 136.11 138.59 136.11 140.34 143.1 140.34 144.91 141.6 144.91 141.6 143.03 139.57 134.85 133.56 134.85 131.55 142.87 131.53 144.91 132.79 144.91 132.79 143.66"/><path class="cls-1" d="M145.37,169.37V150.73a2.48,2.48,0,0,0-.74-1.78l-2.77-2.78H131.27L128.5,149a2.48,2.48,0,0,0-.74,1.78v18.64l-.58,2.31a2,2,0,0,0-.05.42,1.75,1.75,0,0,0,1.75,1.75h15.37A1.76,1.76,0,0,0,146,172.1a2,2,0,0,0-.05-.42Zm-13.58-21.94h9.55l1.88,1.89H129.91Zm-2.77,3.3a.76.76,0,0,1,0-.15H144.1s0,.1,0,.15v18.09H129Zm15.23,21.86H128.88a.51.51,0,0,1-.48-.61l.48-1.9h15.39l.46,1.9a.51.51,0,0,1-.48.61Z"/><path class="cls-1" d="M153.51,164.16v-1.89h1.8V158.5h-1.8v-1.89h-3.62v1.89h-1.81v3.77h1.81v1.89ZM149.28,161v-1.26h1.81v-1.88h1.21v1.88h1.81V161H152.3v1.89h-1.21V161Z"/><path class="cls-1" d="M151.7,155.35a4.67,4.67,0,0,1,3,1.12l.76-1a5.92,5.92,0,0,0-3.79-1.4,6.17,6.17,0,0,0-6,6.29,6.52,6.52,0,0,0,1,3.5l1-.7a5.19,5.19,0,0,1-.81-2.8A4.94,4.94,0,0,1,151.7,155.35Z"/><path class="cls-1" d="M155.71,157.59a5.16,5.16,0,0,1,.81,2.79,4.93,4.93,0,0,1-4.82,5,4.7,4.7,0,0,1-3-1.11l-.76,1a5.87,5.87,0,0,0,3.79,1.39,6.17,6.17,0,0,0,6-6.29,6.47,6.47,0,0,0-1-3.49Z"/><polygon class="cls-1" points="148.08 144.66 152.3 144.66 152.3 143.4 148.25 143.4 149.76 137.11 149.89 137.11 149.89 142.14 151.09 142.14 151.09 137.11 152.3 137.11 152.3 142.14 153.5 142.14 153.5 137.11 153.64 137.11 155.31 144.1 155.31 145.91 156.52 145.91 156.52 144.03 154.58 135.85 148.81 135.85 146.89 143.87 146.87 145.91 148.08 145.91 148.08 144.66"/><path class="cls-1" d="M160.14,170.37V151.73a2.54,2.54,0,0,0-.71-1.78l-2.66-2.78H146.62L144,150a2.57,2.57,0,0,0-.7,1.78v18.64l-.56,2.31a2,2,0,0,0,0,.42,1.72,1.72,0,0,0,1.68,1.75h14.73a1.72,1.72,0,0,0,1.68-1.75,2,2,0,0,0-.05-.42Zm-13-21.94h9.15l1.81,1.89H145.31Zm-2.66,3.3a.77.77,0,0,1,0-.15h14.44s0,.1,0,.15v18.09H144.44Zm14.6,21.86H144.33a.48.48,0,0,1-.47-.49.49.49,0,0,1,0-.12l.46-1.9h14.75l.44,1.9a.5.5,0,0,1,0,.12A.49.49,0,0,1,159.06,173.59Z"/><path class="cls-1" d="M117.45,163.16v-1.89h1.89V157.5h-1.89v-1.89h-3.77v1.89h-1.89v3.77h1.89v1.89Zm-4.4-3.15v-1.26h1.89v-1.88h1.25v1.88h1.89V160h-1.89v1.89h-1.25V160Z"/><path class="cls-1" d="M115.56,154.35a5,5,0,0,1,3.17,1.12l.79-1a6.29,6.29,0,0,0-9.19,8.39l1-.7a5,5,0,0,1-.85-2.8A5,5,0,0,1,115.56,154.35Z"/><path class="cls-1" d="M119.75,156.59a5,5,0,0,1-7.35,6.71l-.79,1a6.29,6.29,0,0,0,10.24-4.9,6.25,6.25,0,0,0-1-3.49Z"/><polygon class="cls-1" points="111.79 143.66 116.19 143.66 116.19 142.4 111.97 142.4 113.54 136.11 113.68 136.11 113.68 141.14 114.94 141.14 114.94 136.11 116.19 136.11 116.19 141.14 117.45 141.14 117.45 136.11 117.59 136.11 119.34 143.1 119.34 144.91 120.6 144.91 120.6 143.03 118.57 134.85 112.56 134.85 110.55 142.87 110.53 144.91 111.79 144.91 111.79 143.66"/><path class="cls-1" d="M124.37,169.37V150.73a2.48,2.48,0,0,0-.74-1.78l-2.77-2.78H110.27L107.5,149a2.48,2.48,0,0,0-.74,1.78v18.64l-.58,2.31a2,2,0,0,0-.05.42,1.75,1.75,0,0,0,1.75,1.75h15.37A1.76,1.76,0,0,0,125,172.1a2,2,0,0,0,0-.42Zm-13.58-21.94h9.55l1.88,1.89H108.91Zm-2.77,3.3a.76.76,0,0,1,0-.15H123.1s0,.1,0,.15v18.09H108Zm15.23,21.86H107.88a.51.51,0,0,1-.48-.61l.48-1.9h15.39l.46,1.9a.51.51,0,0,1-.48.61Z"/><path class="cls-1" d="M153,82V75.85H127.81V82l-3,4.26v5.18h1.48V87.2h28.2V90H127.81v1.42h26.71v27h-23v1.42H156V86.28ZM127,85.79l2.32-3.34V77.27h22.26v5.18l2.32,3.34Z"/><rect class="cls-1" x="130.77" y="81.53" width="1.48" height="1.42"/><rect class="cls-1" x="133.74" y="81.53" width="1.48" height="1.42"/><rect class="cls-1" x="136.71" y="81.53" width="1.48" height="1.42"/><rect class="cls-1" x="139.68" y="81.53" width="1.48" height="1.42"/><rect class="cls-1" x="142.65" y="81.53" width="1.48" height="1.42"/><rect class="cls-1" x="145.61" y="81.53" width="1.48" height="1.42"/><rect class="cls-1" x="148.58" y="81.53" width="1.48" height="1.42"/><path class="cls-1" d="M140.42,95a8,8,0,0,0-8.16,7.81,7.49,7.49,0,0,0,.68,3.12l1.36-.57a6.07,6.07,0,0,1-.56-2.55,6.55,6.55,0,0,1,6.68-6.39A6.71,6.71,0,0,1,145.76,99l1.19-.86A8.24,8.24,0,0,0,140.42,95Z"/><path class="cls-1" d="M135.08,106.65l-1.19.85a8.21,8.21,0,0,0,6.53,3.12,8,8,0,0,0,8.16-7.8,7.39,7.39,0,0,0-.37-2.34l-1.42.42a6.22,6.22,0,0,1,.31,1.92,6.54,6.54,0,0,1-6.68,6.38A6.73,6.73,0,0,1,135.08,106.65Z"/><path class="cls-1" d="M138.19,98.56v2.13H136V105h2.22v2.13h4.46V105h2.22v-4.26h-2.22V98.56Zm5.2,3.55v1.42h-2.23v2.13h-1.48v-2.13h-2.23v-1.42h2.23V100h1.48v2.13Z"/><rect class="cls-1" x="132.26" y="112.04" width="20.77" height="1.42"/><path class="cls-1" d="M120.39,105.18l-2.38,3a2.78,2.78,0,0,0-.59,1.7,3,3,0,0,0,5.93,0,2.78,2.78,0,0,0-.59-1.7Zm0,6.15a1.45,1.45,0,0,1-1.49-1.42,1.42,1.42,0,0,1,.3-.85l1.19-1.51,1.18,1.51a1.36,1.36,0,0,1,.3.85A1.45,1.45,0,0,1,120.39,111.33Z"/><path class="cls-1" d="M120.39,102.82a6.39,6.39,0,1,0,6.67,6.38A6.54,6.54,0,0,0,120.39,102.82Zm0,11.35a5,5,0,1,1,5.19-5A5.09,5.09,0,0,1,120.39,114.17Z"/><path class="cls-1" d="M115.19,95a.73.73,0,0,1,.75-.71h.74v2.84h1.48V94.3h1.49v2.84h1.48V94.3h1.48v2.84h1.49V94.3h.74a.73.73,0,0,1,.74.71v2.13h1.48V95a2.18,2.18,0,0,0-2.22-2.13h-1.49V90.16a3,3,0,0,0-2.8-3,3,3,0,0,0-2.21.77,2.84,2.84,0,0,0-.92,2.06v2.84h-1.48A2.19,2.19,0,0,0,113.71,95v2.13h1.48Zm3.71-5a1.38,1.38,0,0,1,.47-1,1.49,1.49,0,0,1,1.1-.38,1.53,1.53,0,0,1,1.4,1.53v2.72h-3Z"/><path class="cls-1" d="M129,100l-2.44-1.4H114.25L111.8,100A3.55,3.55,0,0,0,110,103V116.3a3.63,3.63,0,0,0,3.71,3.55h13.35a3.63,3.63,0,0,0,3.71-3.55V103A3.55,3.55,0,0,0,129,100Zm.32,16.34a2.18,2.18,0,0,1-2.23,2.13H113.71a2.18,2.18,0,0,1-2.23-2.13V103a2.13,2.13,0,0,1,1.08-1.83l2.1-1.2h11.46l2.09,1.2a2.11,2.11,0,0,1,1.08,1.83Z"/><path class="cls-1" d="M73.39,150.85H86.16a1.43,1.43,0,0,0,1.42-1.42V148a1.43,1.43,0,0,0-1.42-1.42H73.39A1.42,1.42,0,0,0,72,148v1.42A1.42,1.42,0,0,0,73.39,150.85Zm0-2.84H86.16v1.42H73.39Z"/><path class="cls-1" d="M87.28,154.38l-1.83-1.09v-1H84v1.82l2.52,1.51a2.15,2.15,0,0,1,1,1.83v1.23H73.39v1.42H87.58v10.64a.71.71,0,0,1-.71.71H72.68a.71.71,0,0,1-.71-.71v-2.13H86.16v-1.42H72v-9.74a2.13,2.13,0,0,1,1-1.83l2.52-1.51v-1.82H74.1v1l-1.83,1.09a3.58,3.58,0,0,0-1.72,3.05v13.29a2.13,2.13,0,0,0,2.13,2.13H86.87A2.14,2.14,0,0,0,89,170.72V157.43A3.58,3.58,0,0,0,87.28,154.38Z"/><rect class="cls-1" x="77.65" y="161.5" width="4.26" height="1.42"/><rect class="cls-1" x="77.65" y="164.33" width="4.26" height="1.42"/><path class="cls-1" d="M71.26,137.37V136a1.42,1.42,0,0,0-1.42-1.42h-.71v-4.26a1.43,1.43,0,0,0-1.42-1.42h-7.1a1.43,1.43,0,0,0-1.42,1.42v4.26h-.71A1.42,1.42,0,0,0,57.06,136v1.42a1.43,1.43,0,0,0,1.42,1.42H69.84A1.43,1.43,0,0,0,71.26,137.37Zm-10.65-7.1h7.1v4.26h-7.1Zm-2.13,7.1V136H69.84v1.42Z"/><path class="cls-1" d="M67.71,148.72H64.87v1.42h2.84v1.42H64.87V153h2.84v1.42H64.87v1.42h2.84v1.42H64.87v1.42h2.84v1.42H64.87v1.42h2.84v9.93h-7.1V140.2H59.19v31.23a1.43,1.43,0,0,0,1.42,1.42h7.1a1.43,1.43,0,0,0,1.42-1.42V140.2H67.71Z"/><polygon class="cls-1" points="66.29 147.3 66.29 145.88 62.03 145.88 62.03 164.33 66.29 164.33 66.29 162.91 63.45 162.91 63.45 147.3 66.29 147.3"/><path class="cls-1" d="M56.05,150.12l-.88-.52a2,2,0,0,1-.94-1.67,2,2,0,0,1,.2-.87l.89-1.77a2.16,2.16,0,0,0,.13-1.58l-2.47-8a1.64,1.64,0,0,0-1.59-1.18,1.66,1.66,0,0,0-1.6,1.18l-2.46,8a2.11,2.11,0,0,0,.13,1.58l.88,1.77a1.89,1.89,0,0,1,.21.87,2,2,0,0,1-.95,1.67l-.88.52a3.58,3.58,0,0,0-1.72,3v17.55a2.14,2.14,0,0,0,2.13,2.13h8.52a2.13,2.13,0,0,0,2.12-2.13V153.17A3.58,3.58,0,0,0,56.05,150.12Zm.3,20.6a.7.7,0,0,1-.7.71H47.13a.71.71,0,0,1-.71-.71V153.17a2.15,2.15,0,0,1,1-1.83l.88-.53A3.37,3.37,0,0,0,50,147.93a3.46,3.46,0,0,0-.36-1.51l-.88-1.77a.72.72,0,0,1,0-.52l2.47-8a.25.25,0,0,1,.24-.17.26.26,0,0,1,.24.17l2.46,8a.72.72,0,0,1,0,.52l-.89,1.77a3.45,3.45,0,0,0-.35,1.51,3.37,3.37,0,0,0,1.63,2.88l.88.53a2.13,2.13,0,0,1,1,1.83Z"/><rect class="cls-1" x="49.97" y="154.4" width="4.97" height="1.42"/><rect class="cls-1" x="52.1" y="157.24" width="2.84" height="1.42"/><rect class="cls-1" x="49.97" y="160.08" width="4.97" height="1.42"/><rect class="cls-1" x="52.1" y="162.91" width="2.84" height="1.42"/><rect class="cls-1" x="49.97" y="165.75" width="4.97" height="1.42"/><rect class="cls-2" x="17.92" y="185.85" width="181.17" height="50"/><line class="cls-2" x1="87.5" y1="211.35" x2="132.5" y2="211.35"/><path class="cls-1" d="M171.28,60.92V42.44a3.92,3.92,0,0,0-2.08-3.52l-.93-.48V34.21A2.31,2.31,0,0,0,166,31.85H155.47a2.31,2.31,0,0,0-2.26,2.36v4.23l-.93.48a3.92,3.92,0,0,0-2.08,3.52V60.92a2.31,2.31,0,0,0,2.26,2.36H169A2.31,2.31,0,0,0,171.28,60.92ZM154.72,34.21a.76.76,0,0,1,.75-.79H166a.77.77,0,0,1,.76.79V35H154.72Zm12.05,2.35v1.58h-1.51V36.56Zm-3,0v1.58h-2.26V36.56Zm-3.76,0v1.58h-2.26V36.56Zm-5.27,0h1.5v1.58h-1.5Zm15.06,24.36a.77.77,0,0,1-.75.79H152.46a.77.77,0,0,1-.76-.79V42.44A2.36,2.36,0,0,1,153,40.33l1.19-.62h13.2l1.19.62a2.36,2.36,0,0,1,1.25,2.11Z"/><path class="cls-1" d="M153.21,57.78h15.06V43.64H153.21Zm1.51-12.57h12.05v11H154.72Z"/><rect class="cls-1" x="156.22" y="49.92" width="3.77" height="1.57"/><rect class="cls-1" x="161.49" y="49.92" width="3.77" height="1.57"/><rect class="cls-1" x="156.22" y="46.78" width="9.04" height="1.57"/><rect class="cls-1" x="156.22" y="53.06" width="9.04" height="1.57"/><path class="cls-1" d="M151,60.92V42.44a3.91,3.91,0,0,0-2.17-3.52l-1-.48V34.21a2.36,2.36,0,0,0-2.36-2.36h-11a2.36,2.36,0,0,0-2.36,2.36v4.23l-1,.48A3.91,3.91,0,0,0,129,42.44V60.92a2.36,2.36,0,0,0,2.36,2.36h17.28A2.36,2.36,0,0,0,151,60.92ZM133.71,34.21a.79.79,0,0,1,.79-.79h11a.79.79,0,0,1,.79.79V35H133.71Zm12.58,2.35v1.58h-1.58V36.56Zm-3.15,0v1.58h-2.35V36.56Zm-3.93,0v1.58h-2.35V36.56Zm-5.5,0h1.58v1.58h-1.58Zm15.72,24.36a.79.79,0,0,1-.79.79H131.36a.79.79,0,0,1-.79-.79V42.44a2.35,2.35,0,0,1,1.3-2.11l1.24-.62h13.78l1.24.62a2.35,2.35,0,0,1,1.3,2.11Z"/><path class="cls-1" d="M132.14,57.78h15.72V43.64H132.14Zm1.57-12.57h12.58v11H133.71Z"/><rect class="cls-1" x="135.29" y="49.92" width="3.93" height="1.57"/><rect class="cls-1" x="140.79" y="49.92" width="3.93" height="1.57"/><rect class="cls-1" x="135.29" y="46.78" width="9.43" height="1.57"/><rect class="cls-1" x="135.29" y="53.06" width="9.43" height="1.57"/><path class="cls-1" d="M125,60.92V42.44a3.91,3.91,0,0,0-2.17-3.52l-1-.48V34.21a2.36,2.36,0,0,0-2.36-2.36h-11a2.36,2.36,0,0,0-2.36,2.36v4.23l-1,.48A3.91,3.91,0,0,0,103,42.44V60.92a2.36,2.36,0,0,0,2.36,2.36h17.28A2.36,2.36,0,0,0,125,60.92ZM107.71,34.21a.79.79,0,0,1,.79-.79h11a.79.79,0,0,1,.79.79V35H107.71Zm12.58,2.35v1.58h-1.58V36.56Zm-3.15,0v1.58h-2.35V36.56Zm-3.93,0v1.58h-2.35V36.56Zm-5.5,0h1.58v1.58h-1.58Zm15.72,24.36a.79.79,0,0,1-.79.79H105.36a.79.79,0,0,1-.79-.79V42.44a2.35,2.35,0,0,1,1.3-2.11l1.24-.62h13.78l1.24.62a2.35,2.35,0,0,1,1.3,2.11Z"/><path class="cls-1" d="M106.14,57.78h15.72V43.64H106.14Zm1.57-12.57h12.58v11H107.71Z"/><rect class="cls-1" x="109.29" y="49.92" width="3.93" height="1.57"/><rect class="cls-1" x="114.79" y="49.92" width="3.93" height="1.57"/><rect class="cls-1" x="109.29" y="46.78" width="9.43" height="1.57"/><rect class="cls-1" x="109.29" y="53.06" width="9.43" height="1.57"/><path class="cls-1" d="M70,60.92V42.44a3.91,3.91,0,0,0-2.17-3.52l-1-.48V34.21a2.36,2.36,0,0,0-2.36-2.36h-11a2.36,2.36,0,0,0-2.36,2.36v4.23l-1,.48A3.91,3.91,0,0,0,48,42.44V60.92a2.36,2.36,0,0,0,2.36,2.36H67.64A2.36,2.36,0,0,0,70,60.92ZM52.71,34.21a.79.79,0,0,1,.79-.79h11a.79.79,0,0,1,.79.79V35H52.71Zm12.58,2.35v1.58H63.71V36.56Zm-3.15,0v1.58H59.79V36.56Zm-3.93,0v1.58H55.86V36.56Zm-5.5,0h1.58v1.58H52.71ZM68.43,60.92a.79.79,0,0,1-.79.79H50.36a.79.79,0,0,1-.79-.79V42.44a2.35,2.35,0,0,1,1.3-2.11l1.24-.62H65.89l1.24.62a2.35,2.35,0,0,1,1.3,2.11Z"/><path class="cls-1" d="M51.14,57.78H66.86V43.64H51.14Zm1.57-12.57H65.29v11H52.71Z"/><rect class="cls-1" x="54.29" y="49.92" width="3.93" height="1.57"/><rect class="cls-1" x="59.79" y="49.92" width="3.93" height="1.57"/><rect class="cls-1" x="54.29" y="46.78" width="9.43" height="1.57"/><rect class="cls-1" x="54.29" y="53.06" width="9.43" height="1.57"/></g></g></svg>