<svg xmlns="http://www.w3.org/2000/svg" viewBox="0 0 168 252"><defs><style>.cls-1{fill:#3d5da6;}</style></defs><title>DrogueriaRequerimiento 3@1x</title><g id="Capa_2" data-name="Capa 2"><g id="Capa_1-2" data-name="Capa 1"><path class="cls-1" d="M7,225.74a12,12,0,0,0,11.94,11.94H47.58v9.55H38V252H124v-4.77h-9.55v-9.55h28.64A12,12,0,0,0,155,225.74v-7.16H7Zm102.65,21.49H52.35v-9.55h57.3ZM11.77,223.35H150.23v2.39a7.17,7.17,0,0,1-7.17,7.16H18.94a7.17,7.17,0,0,1-7.17-7.16Z"/><rect class="cls-1" x="7" y="204.26" width="4.77" height="9.55"/><path class="cls-1" d="M11.77,139.81a7.17,7.17,0,0,1,7.17-7.16H26.1v-4.78H18.94A12,12,0,0,0,7,139.81V147h4.77Z"/><path class="cls-1" d="M143.06,127.87H135.9v4.78h7.16a7.17,7.17,0,0,1,7.17,7.16V147H155v-7.16A12,12,0,0,0,143.06,127.87Z"/><rect class="cls-1" x="150.23" y="204.26" width="4.77" height="9.55"/><path class="cls-1" d="M131.13,104H30.87v23.87H131.13Zm-4.78,19.1H35.65V108.77h90.7Z"/><rect class="cls-1" x="40.42" y="113.55" width="4.77" height="4.77"/><rect class="cls-1" x="49.97" y="113.55" width="4.77" height="4.77"/><rect class="cls-1" x="59.52" y="113.55" width="4.77" height="4.77"/><rect class="cls-1" x="30.87" y="132.65" width="4.77" height="14.32"/><polygon class="cls-1" points="30.87 204.26 30.87 213.81 131.13 213.81 131.13 204.26 126.36 204.26 126.36 209.03 35.65 209.03 35.65 204.26 30.87 204.26"/><rect class="cls-1" x="126.35" y="132.65" width="4.77" height="14.32"/><path class="cls-1" d="M54.74,151.74H7v47.74H54.74Zm-4.77,43H11.77V156.52H50Z"/><path class="cls-1" d="M107.26,199.48H155V151.74H107.26Zm4.77-43h38.2v38.19H112Z"/><path class="cls-1" d="M30.87,189.94a14.33,14.33,0,1,0-14.32-14.33A14.34,14.34,0,0,0,30.87,189.94Zm0-23.88a9.56,9.56,0,0,1,9.55,9.55,9.41,9.41,0,0,1-1.35,4.82l-13-13A9.42,9.42,0,0,1,30.87,166.06Zm-8.19,4.73,13,13a9.41,9.41,0,0,1-4.82,1.35,9.56,9.56,0,0,1-9.55-9.55A9.45,9.45,0,0,1,22.68,170.79Z"/><path class="cls-1" d="M130,161.58A9.14,9.14,0,1,0,117.1,174.5l15.14,15.15a9.14,9.14,0,1,0,12.92-12.93Zm-9.55,9.55a4.43,4.43,0,0,1-1.28-3.09,4.38,4.38,0,0,1,7.46-3.09l5.88,5.89L126.35,177Zm18.23,16.42a4.37,4.37,0,0,1-3.09-1.28l-5.88-5.88,6.17-6.18,5.89,5.89a4.37,4.37,0,0,1-3.09,7.45Z"/><rect class="cls-1" x="59.52" y="137.42" width="19.1" height="4.77"/><rect class="cls-1" x="83.39" y="137.42" width="19.1" height="4.77"/><rect class="cls-1" x="59.52" y="146.97" width="42.97" height="4.77"/><rect class="cls-1" x="61.9" y="180.39" width="40.58" height="4.77"/><rect class="cls-1" x="61.9" y="189.94" width="4.77" height="4.77"/><rect class="cls-1" x="71.45" y="189.94" width="31.03" height="4.77"/><rect class="cls-1" x="97.71" y="156.52" width="4.77" height="4.77"/><rect class="cls-1" x="59.52" y="156.52" width="33.42" height="4.77"/><polygon class="cls-1" points="8.4 127.66 8.4 122.26 8.4 7.25 159.6 7.25 159.6 122.26 159.6 184.75 159.6 192 168 192 168 0 0 0 0 127.66 8.4 127.66"/><path class="cls-1" d="M97.1,26.46l8.65-9L102.45,14,97.1,19.56V18.13h-28V47.4h28ZM73.75,42.52V23H92.43v1.43l-9,9.38L80.37,29l-3.89,2.71,6.25,9.79,9.7-10.13V42.52Z"/><rect class="cls-1" x="125.46" y="88.2" width="8.68" height="8.68"/><rect class="cls-1" x="30" y="53.49" width="104.13" height="8.68"/><rect class="cls-1" x="30" y="70.84" width="104.13" height="8.68"/><rect class="cls-1" x="30" y="88.2" width="86.78" height="8.68"/></g></g></svg>