<svg xmlns="http://www.w3.org/2000/svg" viewBox="0 0 204 252.15"><defs><style>.cls-1{fill:#3d5da6;}</style></defs><title>DrogueriaRequerimiento 4@1x</title><g id="Capa_2" data-name="Capa 2"><g id="Capa_1-2" data-name="Capa 1"><polygon class="cls-1" points="9.14 112.33 0.47 112.33 0.47 242.4 0.47 252.15 9.14 252.15 181.47 252.15 181.47 242.4 9.14 242.4 9.14 112.33"/><path class="cls-1" d="M107.73,213.05a19.34,19.34,0,0,1-34.81,11.6l-3.44,2.58A23.64,23.64,0,0,0,112,213.05,23.78,23.78,0,0,0,111,206l-4.1,1.28A19.56,19.56,0,0,1,107.73,213.05Z"/><path class="cls-1" d="M21.78,183v12.89h8.6v47.27h116V195.86H155V183Zm128.92,8.6H109.88v4.29h32.23v43H34.67v-43H66.9v-4.29H26.08v-4.3H150.7Z"/><path class="cls-1" d="M66.72,222.5l3.94-1.72a19.12,19.12,0,0,1-1.61-7.73,19.34,19.34,0,0,1,34.81-11.6l3.44-2.58A23.64,23.64,0,0,0,66.72,222.5Z"/><path class="cls-1" d="M81.94,200.16v6.45H75.5V219.5h6.44v6.44h12.9V219.5h6.44V206.61H94.84v-6.45ZM97,210.9v4.3H90.54v6.45h-4.3V215.2H79.8v-4.3h6.44v-6.44h4.3v6.44Z"/><path class="cls-1" d="M66.18,167.39a6.44,6.44,0,0,1,4.63-5.4l7.44-2.13,2.35,9.4,5.64-3.76v13.17h4.3V165.5l5.64,3.76,2.35-9.4L106,162a6.44,6.44,0,0,1,4.63,5.4L112,178.94l4.27-.54-1.45-11.54a10.71,10.71,0,0,0-7.13-8.79V140.46a6.72,6.72,0,0,0,.61-.58,6.46,6.46,0,0,0,1.45-5.24,6.18,6.18,0,0,0-2.06-3.64v-6a8.61,8.61,0,0,0-7.43-8.52,16.58,16.58,0,0,0-13.21-6.52,18.05,18.05,0,0,0-18,18v3A6.25,6.25,0,0,0,67,134.63a6.44,6.44,0,0,0,1.45,5.24,5.58,5.58,0,0,0,.61.58v17.62a10.71,10.71,0,0,0-7.13,8.78L60.48,178.4l4.26.54Zm37.25-25.24v14.64l-4.3-1.22V155H94.84v1.88l-1.35,5.38-5.1-3.4-5.1,3.4-1.35-5.38V155H77.65v.53l-4.3,1.22V141.62a8.51,8.51,0,0,0,2.52,6.08l4.82,4.82A8.54,8.54,0,0,0,86.76,155H90a8.58,8.58,0,0,0,6.08-2.52l4.82-4.82a8.54,8.54,0,0,0,2.51-6.08Zm-25.78-.53v-8.07h4.66A16.71,16.71,0,0,0,92.69,130,16.51,16.51,0,0,0,99.13,133v8.6a4.27,4.27,0,0,1-1.26,3l-4.81,4.81a4.27,4.27,0,0,1-3,1.26H86.76a4.27,4.27,0,0,1-3-1.26l-4.82-4.82A4.26,4.26,0,0,1,77.65,141.62Zm27.9-6.3a2.13,2.13,0,0,1-.48,1.77,2.16,2.16,0,0,1-1.64.76v-4.26A2.28,2.28,0,0,1,105.55,135.32ZM73.35,128a13.76,13.76,0,0,1,13.74-13.74,12.3,12.3,0,0,1,10.26,5.49l.63,1h1.15a4.31,4.31,0,0,1,4.3,4.3v4.33c-.12,0-.24,0-.37,0a12.41,12.41,0,0,1-8.85-3.67l-1.52-1.51-1.52,1.51a12.43,12.43,0,0,1-8.86,3.67H73.58l-.23,0Zm-2.12,7.37a2.27,2.27,0,0,1,2.12-1.73v4.26a2.16,2.16,0,0,1-1.64-.76A2.2,2.2,0,0,1,71.23,135.32Z"/><path class="cls-1" d="M162.06,44.88h-8.83V40.46a8.84,8.84,0,0,0-8.83-8.83H126.74a8.84,8.84,0,0,0-8.83,8.83v4.42h-8.83V62.54h53Zm-39.74-4.42a4.42,4.42,0,0,1,4.42-4.41H144.4a4.42,4.42,0,0,1,4.41,4.41v4.42H122.32Zm35.32,17.66H113.49V49.29h44.15Z"/><rect class="cls-1" x="133.36" y="38.25" width="4.42" height="4.42"/><rect class="cls-1" x="117.91" y="51.5" width="4.42" height="4.42"/><rect class="cls-1" x="148.81" y="51.5" width="4.42" height="4.42"/><polygon class="cls-1" points="128.94 159.67 175.3 159.67 175.3 137.59 170.89 137.59 170.89 155.25 128.94 155.25 128.94 159.67"/><polygon class="cls-1" points="170.89 73.58 175.3 73.58 175.3 58.12 166.47 58.12 166.47 62.54 170.89 62.54 170.89 73.58"/><polygon class="cls-1" points="179.72 164.09 117.91 164.09 117.91 168.5 184.13 168.5 184.13 119.93 179.72 119.93 179.72 164.09"/><polygon class="cls-1" points="179.72 58.12 184.13 58.12 184.13 49.29 166.47 49.29 166.47 53.71 179.72 53.71 179.72 58.12"/><polygon class="cls-1" points="104.66 58.12 95.83 58.12 95.83 102.27 100.25 102.27 100.25 62.54 104.66 62.54 104.66 58.12"/><polygon class="cls-1" points="91.42 53.71 104.66 53.71 104.66 49.29 87 49.29 87 102.27 91.42 102.27 91.42 53.71"/><path class="cls-1" d="M204,63.14v-.4a9,9,0,0,0-17.1-4L149.77,133a9,9,0,0,0-1,4v.4a9,9,0,0,0,2.17,5.8l-2.66,4.26,3.74,2.34,2.51-4a9,9,0,0,0,11.35-4.36L197.48,78.3l.47.24a2.92,2.92,0,0,1,1.63,2.64,3.05,3.05,0,0,1-.31,1.33L191,99.08a7.15,7.15,0,0,0,3.2,9.58l2-4a2.72,2.72,0,0,1-1.22-3.66l8.28-16.56a7.49,7.49,0,0,0,.78-3.31,7.31,7.31,0,0,0-4.08-6.59l-.46-.24,3.59-7.18A9.11,9.11,0,0,0,204,63.14Zm-42,76.32a4.61,4.61,0,0,1-8.74-2.06V137a4.63,4.63,0,0,1,.48-2.07L177.17,88l8.42,4.21Zm37.61-76.32a4.61,4.61,0,0,1-.48,2.06L187.56,88.28l-8.41-4.21,11.69-23.39a4.61,4.61,0,0,1,8.74,2.06Z"/><rect class="cls-1" x="104.66" y="73.58" width="4.42" height="4.42"/><rect class="cls-1" x="113.49" y="73.58" width="52.98" height="4.42"/><rect class="cls-1" x="104.66" y="82.41" width="61.81" height="4.42"/><rect class="cls-1" x="104.66" y="91.24" width="26.49" height="4.42"/><rect class="cls-1" x="139.98" y="91.24" width="26.49" height="4.42"/><rect class="cls-1" x="126.74" y="104.48" width="17.66" height="4.42"/><rect class="cls-1" x="126.74" y="113.31" width="17.66" height="4.42"/><rect class="cls-1" x="148.81" y="104.48" width="4.42" height="4.42"/><rect class="cls-1" x="148.81" y="113.31" width="4.42" height="4.42"/><polyline class="cls-1" points="0 109 80 109 80 100 0 100"/><path class="cls-1" d="M12.4,74.8v2.1H10.3v4.2h2.1v2.1h4.2V81.1h2.1V76.9H16.6V74.8Zm4.9,3.5v1.4H15.2v2.1H13.8V79.7H11.7V78.3h2.1V76.2h1.4v2.1Z"/><path class="cls-1" d="M9.84,82.11A5.6,5.6,0,0,1,14.5,73.4,5.56,5.56,0,0,1,18,74.64l.88-1.08A7,7,0,0,0,8.68,82.89Z"/><path class="cls-1" d="M14.5,84.6A5.62,5.62,0,0,1,11,83.36l-.88,1.09a7,7,0,0,0,10.22-9.34l-1.16.78A5.6,5.6,0,0,1,14.5,84.6Z"/><path class="cls-1" d="M8.9,59.4H20.1A1.4,1.4,0,0,0,21.5,58V54.5a1.4,1.4,0,0,0-1.4-1.4H8.9a1.4,1.4,0,0,0-1.4,1.4V58A1.4,1.4,0,0,0,8.9,59.4Zm0-4.9H20.1V58H8.9Z"/><path class="cls-1" d="M23.45,64.49l-4.05-2V60.8H18v2.53l4.83,2.42A1.38,1.38,0,0,1,23.6,67v2.2H5.4V67a1.38,1.38,0,0,1,.77-1.25l4.3-2.15H13.8V62.2H11V60.8H9.6v1.67l-4,2A2.79,2.79,0,0,0,4,67V96.5H25V67A2.79,2.79,0,0,0,23.45,64.49ZM6.8,95.1H5.4V93.7H6.8Zm2.8,0H8.2V93.7H9.6Zm2.8,0H11V93.7h1.4Zm2.8,0H13.8V93.7h1.4Zm2.8,0H16.6V93.7H18Zm2.8,0H19.4V93.7h1.4Zm2.8,0H22.2V93.7h1.4Zm0-2.8H5.4V88.8H23.6Zm0-4.9H5.4V70.6H23.6Z"/><rect class="cls-1" x="15.2" y="62.2" width="1.4" height="1.4"/><path class="cls-1" d="M37.4,74.8v2.1H35.3v4.2h2.1v2.1h4.2V81.1h2.1V76.9H41.6V74.8Zm4.9,3.5v1.4H40.2v2.1H38.8V79.7H36.7V78.3h2.1V76.2h1.4v2.1Z"/><path class="cls-1" d="M34.84,82.11A5.6,5.6,0,0,1,39.5,73.4,5.56,5.56,0,0,1,43,74.64l.88-1.08a7,7,0,0,0-10.22,9.33Z"/><path class="cls-1" d="M39.5,84.6A5.62,5.62,0,0,1,36,83.36l-.88,1.09a7,7,0,0,0,10.22-9.34l-1.16.78A5.6,5.6,0,0,1,39.5,84.6Z"/><path class="cls-1" d="M33.9,59.4H45.1A1.4,1.4,0,0,0,46.5,58V54.5a1.4,1.4,0,0,0-1.4-1.4H33.9a1.4,1.4,0,0,0-1.4,1.4V58A1.4,1.4,0,0,0,33.9,59.4Zm0-4.9H45.1V58H33.9Z"/><path class="cls-1" d="M48.45,64.49l-4.05-2V60.8H43v2.53l4.83,2.42A1.38,1.38,0,0,1,48.6,67v2.2H30.4V67a1.38,1.38,0,0,1,.77-1.25l4.3-2.15H38.8V62.2H36V60.8H34.6v1.67l-4.05,2A2.79,2.79,0,0,0,29,67V96.5H50V67A2.79,2.79,0,0,0,48.45,64.49ZM31.8,95.1H30.4V93.7h1.4Zm2.8,0H33.2V93.7h1.4Zm2.8,0H36V93.7h1.4Zm2.8,0H38.8V93.7h1.4Zm2.8,0H41.6V93.7H43Zm2.8,0H44.4V93.7h1.4Zm2.8,0H47.2V93.7h1.4Zm0-2.8H30.4V88.8H48.6Zm0-4.9H30.4V70.6H48.6Z"/><rect class="cls-1" x="40.2" y="62.2" width="1.4" height="1.4"/><polygon class="cls-1" points="185.5 40.5 185.5 0 4 0 4 9 176.5 9 176.5 40.5 185.5 40.5"/></g></g></svg>