<svg xmlns="http://www.w3.org/2000/svg" viewBox="0 0 271 253.85"><defs><style>.cls-1{fill:#3d5da6;}</style></defs><title>DrogueriaRequerimiento5@1x</title><g id="Capa_2" data-name="Capa 2"><g id="Capa_1-2" data-name="Capa 1"><path class="cls-1" d="M132.83,130.63l-4.16-4.16a1.39,1.39,0,0,0-2,0l-1.09,1.1-23-23,1.1-1.1a1.39,1.39,0,0,0,0-2L99.17,97,102,94.1a6,6,0,0,0,1,.1h3.82a5.55,5.55,0,0,0,5.54-5.54V84.84a5.48,5.48,0,0,0-1.62-3.92L92.48,62.57a5.51,5.51,0,0,0-3.92-1.63H84.74a5.55,5.55,0,0,0-5.54,5.55v3.82a6,6,0,0,0,.1,1L57.74,92.92a5.19,5.19,0,0,0-1.05-.11H52.87a5.55,5.55,0,0,0-5.54,5.55v3.82A5.52,5.52,0,0,0,49,106.09L67.3,124.44a5.51,5.51,0,0,0,3.92,1.63H75a5.55,5.55,0,0,0,5.54-5.55V116.7a5.16,5.16,0,0,0-.1-1l2.88-2.88,4.56,4.57a1.37,1.37,0,0,0,1,.4,1.38,1.38,0,0,0,1-.4l1.1-1.1,23,23-1.1,1.1a1.39,1.39,0,0,0,0,2l4.16,4.15a1.36,1.36,0,0,0,2,0l13.86-13.85A1.39,1.39,0,0,0,132.83,130.63ZM83.36,108.87,64.53,90l11.9-11.89L95.25,97ZM82,66.49a2.77,2.77,0,0,1,2.77-2.77h3.82a2.72,2.72,0,0,1,2,.81l18.35,18.35a2.74,2.74,0,0,1,.81,2v3.82a2.78,2.78,0,0,1-2.77,2.77h-3.82a2.76,2.76,0,0,1-2-.81L82.78,72.27a2.78,2.78,0,0,1-.81-2Zm-1.15,7.74L99.17,92.57c.08.08.18.14.26.22L97.21,95,78.39,76.19,80.61,74A2.78,2.78,0,0,0,80.82,74.23Zm-3,46.29A2.78,2.78,0,0,1,75,123.3H71.22a2.75,2.75,0,0,1-2-.82L50.91,104.14a2.78,2.78,0,0,1-.81-2V98.36a2.78,2.78,0,0,1,2.77-2.78h3.82a2.73,2.73,0,0,1,2,.82L77,114.74a2.74,2.74,0,0,1,.81,2ZM79,112.78,60.61,94.44c-.08-.08-.17-.14-.26-.22L62.57,92,81.4,110.83l-2.22,2.22C79.1,113,79,112.86,79,112.78Zm6.35-2,11.9-11.9,3.58,3.58L88.9,114.41Zm7.63,3.46,7.74-7.74,23,23-7.74,7.74Zm25,29.22-2.19-2.2,11.89-11.9,2.2,2.2Z"/><path class="cls-1" d="M167.74,245.78H8.07V9l86.41-.39,108-.48H205A4,4,0,1,0,205,0h-2.57L195.8,0l-23,.1-69,.31L4,.9a4,4,0,0,0-4,4V249.81a4,4,0,0,0,4,4h163.7Z"/><path class="cls-1" d="M172,126.85h9.58v-101H172Zm3.19-97.74h3.2v94.48h-3.2Z"/><path class="cls-1" d="M227.89,32.37a42.19,42.19,0,0,0-22.55,6.51H184.77v3.26h16.06a43.37,43.37,0,0,0-6.4,6.52h-9.66v3.25h7.29a44.61,44.61,0,0,0,0,48.88h-7.29V104h9.66a43.37,43.37,0,0,0,6.4,6.52H184.77v3.26h20.57a42.19,42.19,0,0,0,22.55,6.51c23.77,0,43.11-19.73,43.11-44S251.66,32.37,227.89,32.37Zm0,84.71c-22,0-39.92-18.27-39.92-40.73s17.91-40.73,39.92-40.73,39.92,18.27,39.92,40.73S249.9,117.08,227.89,117.08Z"/><path class="cls-1" d="M261.42,76.35c0,1-.05,2-.15,3.11l3.18.29c.11-1.19.16-2.31.16-3.4Z"/><path class="cls-1" d="M227.89,110.56v3.26A36.91,36.91,0,0,0,264,83.16l-3.14-.59A33.7,33.7,0,0,1,227.89,110.56Z"/><path class="cls-1" d="M227.89,42.14V38.88a36.9,36.9,0,0,0-36.11,30.66l3.14.59A33.69,33.69,0,0,1,227.89,42.14Z"/><path class="cls-1" d="M191.16,76.35h3.19c0-1,.05-2,.15-3.11L191.32,73C191.21,74.14,191.16,75.26,191.16,76.35Z"/><path class="cls-1" d="M157.32,229.76H23.68V36H157.32V66.05H164V29.3H17V236.44H164V112.83h-6.68Z"/><path class="cls-1" d="M113.89,49.35V42.67H30.36v127H144v6.68H43.73V183H150.64V162.94H37.05V49.35Z"/><path class="cls-1" d="M137.27,82.76V42.67h-16.7v6.68h10V82.76Z"/><path class="cls-1" d="M30.36,176.3h6.69V183H30.36Z"/><path class="cls-1" d="M30.36,189.67H137.27v6.68H30.36Z"/><path class="cls-1" d="M144,189.67h6.69v6.68H144Z"/><path class="cls-1" d="M30.36,203h93.55v6.68H30.36Z"/><path class="cls-1" d="M144,203h6.69v6.68H144Z"/><path class="cls-1" d="M130.59,216.4h6.68v6.68h-6.68Z"/><path class="cls-1" d="M130.59,203h6.68v6.68h-6.68Z"/><path class="cls-1" d="M117.23,216.4h6.68v6.68h-6.68Z"/><path class="cls-1" d="M144,216.4h6.69v6.68H144Z"/><path class="cls-1" d="M220.94,65.51V72H214.5V84.85h6.44v6.44h12.9V84.85h6.44V72h-6.44V65.51Zm15,10.74v4.3h-6.44V87h-4.3V80.55H218.8v-4.3h6.44V69.81h4.3v6.44Z"/></g></g></svg>