<svg id="Capa_1" data-name="Capa 1" xmlns="http://www.w3.org/2000/svg" viewBox="0 0 295 115"><defs><style>.cls-1{fill:#003e66;}.cls-2{fill:#009ee2;}.cls-3,.cls-7{fill:#1d1d1b;}.cls-4{fill:#004993;}.cls-4,.cls-5,.cls-6,.cls-7{fill-rule:evenodd;}.cls-5,.cls-8{fill:#ffd400;}.cls-6{fill:#e10714;}</style></defs><title>logo-alcaldia-positivo</title><rect class="cls-1" x="127.91" y="7.41" width="1.79" height="100.32"/><path class="cls-2" d="M152.81,44.83a1.39,1.39,0,0,1,1.41-1.4h4.52a4.61,4.61,0,0,1,3.34,1.13,2.93,2.93,0,0,1,.88,2.17v0a3,3,0,0,1-1.68,2.76,3.12,3.12,0,0,1,2.39,3.14v0c0,2.34-1.9,3.5-4.78,3.5h-4.67a1.39,1.39,0,0,1-1.41-1.4Zm5.33,3.76c1.24,0,2-.4,2-1.35v0c0-.84-.66-1.31-1.84-1.31h-2.77v2.7Zm.75,5.14c1.24,0,2-.44,2-1.39v0c0-.86-.64-1.39-2.08-1.39h-3.25v2.81Z"/><path class="cls-2" d="M164.9,47.85v0a8.92,8.92,0,0,1,17.84,0v0a8.92,8.92,0,0,1-17.84,0Zm14,0v0a5.1,5.1,0,0,0-5.08-5.28,5,5,0,0,0-5,5.23v0a5.1,5.1,0,0,0,5.08,5.27A5,5,0,0,0,178.88,47.85Z"/><path class="cls-2" d="M184.53,45.67v-.06a10.86,10.86,0,0,1,11.09-10.94,11.73,11.73,0,0,1,7.23,2.06,2.33,2.33,0,0,1,1,1.87,2.3,2.3,0,0,1-2.3,2.3,2.27,2.27,0,0,1-1.42-.48A7.4,7.4,0,0,0,195.47,39a6.36,6.36,0,0,0-6.08,6.59v.06c0,3.87,2.66,6.71,6.41,6.71a7.43,7.43,0,0,0,4.38-1.27V48H197a2,2,0,0,1-2-2,2,2,0,0,1,2-2h5.32a2.31,2.31,0,0,1,2.33,2.33v5.14a3.15,3.15,0,0,1-1.63,3,14.08,14.08,0,0,1-7.41,2.12C189.06,56.56,184.53,51.93,184.53,45.67Z"/><path class="cls-2" d="M206,43.32v-.07a13.39,13.39,0,0,1,13.8-13.4c8,0,13.73,6,13.73,13.32v.07a13.4,13.4,0,0,1-13.8,13.4C211.76,56.64,206,50.68,206,43.32Zm21.57,0v-.07a7.87,7.87,0,0,0-7.85-8.14A7.75,7.75,0,0,0,212,43.17v.07a7.87,7.87,0,0,0,7.85,8.14A7.75,7.75,0,0,0,227.6,43.32Z"/><path class="cls-2" d="M240.35,31.47h-6.56a3.15,3.15,0,0,1,0-6.29h19.94a3.15,3.15,0,1,1,0,6.29h-6.56V53a3.41,3.41,0,0,1-6.82,0Z"/><path class="cls-2" d="M253.15,51l12.72-28.72a5,5,0,0,1,4.69-3.18H271a4.89,4.89,0,0,1,4.64,3.18L288.39,51a3.93,3.93,0,0,1,.42,1.62A3.8,3.8,0,0,1,285,56.51a4.09,4.09,0,0,1-3.86-2.76L278.69,48H262.64l-2.55,6a3.94,3.94,0,0,1-3.7,2.5,3.69,3.69,0,0,1-3.7-3.75A4.24,4.24,0,0,1,253.15,51Zm22.57-10.11-5.06-12-5.06,12Zm-7.19-25.64a2.89,2.89,0,0,1,.52-1.41l2.87-4.48a3.4,3.4,0,0,1,3-1.77c1.93,0,4.43,1.2,4.43,2.4a2.58,2.58,0,0,1-1,1.88l-3.23,3a5.82,5.82,0,0,1-4.53,1.72C269.36,16.63,268.53,16.11,268.53,15.28Z"/><path class="cls-1" d="M152.79,64.31a3,3,0,0,1,3-3h.66a3.05,3.05,0,0,1,2.7,1.54l7.18,11.69,7.22-11.73a2.91,2.91,0,0,1,2.66-1.5h.66a3,3,0,0,1,3,3V85.76a3,3,0,1,1-5.9,0V72.3l-5.21,8a2.78,2.78,0,0,1-4.94,0l-5.13-7.91V85.84a2.9,2.9,0,0,1-2.93,2.89,2.86,2.86,0,0,1-2.89-2.89Z"/><path class="cls-1" d="M186.28,85.53V64.47a3,3,0,0,1,3-3h15a2.67,2.67,0,0,1,2.66,2.66,2.64,2.64,0,0,1-2.66,2.62h-12v5.48h10.3a2.67,2.67,0,0,1,2.66,2.66,2.63,2.63,0,0,1-2.66,2.62h-10.3v5.67h12.23a2.67,2.67,0,0,1,2.66,2.66,2.63,2.63,0,0,1-2.66,2.62H189.26A3,3,0,0,1,186.28,85.53Z"/><path class="cls-1" d="M211.13,86.54A3,3,0,0,1,210,84.26a2.82,2.82,0,0,1,2.82-2.86,2.69,2.69,0,0,1,1.78.62,5.7,5.7,0,0,0,3.59,1.35c2.32,0,3.71-1.35,3.71-4.48V64.23a3,3,0,0,1,5.94,0V79.17c0,3.2-.93,5.6-2.55,7.22a9.65,9.65,0,0,1-7,2.51A11.43,11.43,0,0,1,211.13,86.54Z"/><path class="cls-1" d="M232.7,75.08V75c0-7.68,6.06-14,14.39-14s14.32,6.21,14.32,13.89V75c0,7.68-6.06,14-14.39,14S232.7,82.75,232.7,75.08Zm22.5,0V75A8.21,8.21,0,0,0,247,66.51a8.08,8.08,0,0,0-8.1,8.41V75a8.21,8.21,0,0,0,8.18,8.49A8.08,8.08,0,0,0,255.2,75.08Z"/><path class="cls-1" d="M266.7,64.47a3,3,0,0,1,3-3H279c3.44,0,6.1,1,7.87,2.74a8.48,8.48,0,0,1,2.32,6.17v.08a8.25,8.25,0,0,1-5.4,8.22l4.13,5a3.47,3.47,0,0,1,1,2.28,2.76,2.76,0,0,1-2.82,2.74,3.56,3.56,0,0,1-2.93-1.54l-5.79-7.33h-4.75v5.9a3,3,0,0,1-5.94,0Zm12,10.15c2.89,0,4.56-1.54,4.56-3.82v-.08c0-2.55-1.78-3.86-4.67-3.86h-5.9v7.76Z"/><path class="cls-1" d="M152.79,95.1a1.53,1.53,0,0,1,1.55-1.55h4.2c3.35,0,5.38,2,5.38,4.86v0c0,3.25-2.53,4.94-5.69,4.94h-2.35v2.79a1.55,1.55,0,0,1-3.09,0Zm5.54,5.55a2.18,2.18,0,0,0,2.45-2.13v0c0-1.39-1-2.13-2.51-2.13h-2.39v4.3Z"/><path class="cls-1" d="M164.42,105.63l4.9-11.07a1.91,1.91,0,0,1,1.81-1.23h.18a1.89,1.89,0,0,1,1.79,1.23l4.9,11.07a1.51,1.51,0,0,1,.16.62,1.47,1.47,0,0,1-1.47,1.49,1.57,1.57,0,0,1-1.49-1.06l-.95-2.21h-6.19l-1,2.31a1.52,1.52,0,0,1-1.43,1,1.42,1.42,0,0,1-1.43-1.45A1.62,1.62,0,0,1,164.42,105.63Zm8.7-3.9-1.95-4.64-1.95,4.64Z"/><path class="cls-1" d="M180.6,95.1a1.53,1.53,0,0,1,1.55-1.55H187a5.61,5.61,0,0,1,4.1,1.43,4.42,4.42,0,0,1,1.21,3.22v0a4.29,4.29,0,0,1-2.81,4.28l2.15,2.61a1.81,1.81,0,0,1,.5,1.18,1.44,1.44,0,0,1-1.47,1.43,1.85,1.85,0,0,1-1.53-.8l-3-3.82h-2.47v3.07a1.55,1.55,0,0,1-3.09,0Zm6.23,5.28c1.51,0,2.37-.8,2.37-2v0c0-1.33-.92-2-2.43-2h-3.07v4Z"/><path class="cls-1" d="M194.34,105.63l4.9-11.07A1.91,1.91,0,0,1,201,93.33h.18A1.89,1.89,0,0,1,203,94.56l4.9,11.07a1.5,1.5,0,0,1,.16.62,1.47,1.47,0,0,1-1.47,1.49,1.57,1.57,0,0,1-1.48-1.06l-.95-2.21H198l-1,2.31a1.52,1.52,0,0,1-1.43,1,1.42,1.42,0,0,1-1.43-1.45A1.62,1.62,0,0,1,194.34,105.63Zm8.7-3.9-1.95-4.64-1.95,4.64Z"/><path class="cls-1" d="M219.82,96.4h-3a1.43,1.43,0,1,1,0-2.85h9a1.43,1.43,0,1,1,0,2.85h-3v9.79a1.55,1.55,0,0,1-3.09,0Z"/><path class="cls-1" d="M228.33,100.62v0a7.48,7.48,0,0,1,14.95,0v0a7.48,7.48,0,0,1-14.95,0Zm11.71,0v0a4.27,4.27,0,0,0-4.26-4.42,4.21,4.21,0,0,0-4.22,4.38v0a4.27,4.27,0,0,0,4.26,4.42A4.2,4.2,0,0,0,240,100.62Z"/><path class="cls-1" d="M246,95.1a1.53,1.53,0,0,1,1.55-1.55h3.94c4.42,0,7.47,3,7.47,7v0c0,4-3.05,7-7.47,7h-3.94a1.54,1.54,0,0,1-1.55-1.55Zm5.49,9.73a4,4,0,0,0,4.24-4.2v0a4,4,0,0,0-4.24-4.24h-2.39v8.48Z"/><path class="cls-1" d="M261.12,100.62v0a7.48,7.48,0,0,1,14.95,0v0a7.48,7.48,0,0,1-14.95,0Zm11.71,0v0a4.27,4.27,0,0,0-4.26-4.42,4.21,4.21,0,0,0-4.22,4.38v0a4.27,4.27,0,0,0,4.26,4.42A4.21,4.21,0,0,0,272.84,100.62Z"/><path class="cls-1" d="M278.44,106.13a1.45,1.45,0,0,1-.58-1.17,1.42,1.42,0,0,1,1.45-1.43,1.5,1.5,0,0,1,.88.28,5.93,5.93,0,0,0,3.6,1.27c1.27,0,2-.5,2-1.33v0c0-.78-.48-1.19-2.83-1.79-2.83-.72-4.66-1.51-4.66-4.3v0c0-2.55,2-4.24,4.92-4.24a8.17,8.17,0,0,1,4.46,1.25,1.43,1.43,0,0,1-.76,2.65,1.49,1.49,0,0,1-.78-.22,5.85,5.85,0,0,0-3-.94c-1.18,0-1.81.54-1.81,1.23v0c0,.92.6,1.23,3,1.85,2.85.74,4.46,1.77,4.46,4.22v0c0,2.79-2.13,4.36-5.16,4.36A9.08,9.08,0,0,1,278.44,106.13Z"/><path class="cls-3" d="M14.33,93.17H12.45l-.74-1.94H8.3l-.71,1.94H5.77l3.32-8.53h1.83Zm-3.17-3.39L10,86.63,8.83,89.78Z"/><polygon class="cls-3" points="14.79 93.16 14.79 84.71 16.51 84.71 16.51 91.72 20.79 91.72 20.79 93.16 14.79 93.16"/><path class="cls-3" d="M27,90l1.67.54a3.82,3.82,0,0,1-1.27,2.08,3.67,3.67,0,0,1-2.27.67,3.67,3.67,0,0,1-2.79-1.15A4.44,4.44,0,0,1,21.21,89a4.64,4.64,0,0,1,1.1-3.3,3.79,3.79,0,0,1,2.89-1.18,3.55,3.55,0,0,1,2.55.93A3.46,3.46,0,0,1,28.63,87l-1.71.41a1.76,1.76,0,0,0-.63-1A1.78,1.78,0,0,0,25.13,86a2,2,0,0,0-1.55.68,3.33,3.33,0,0,0-.59,2.2,3.55,3.55,0,0,0,.59,2.3,1.9,1.9,0,0,0,1.51.69,1.72,1.72,0,0,0,1.18-.44A2.57,2.57,0,0,0,27,90"/><path class="cls-3" d="M37.32,93.17H35.44l-.75-1.94H31.29l-.71,1.94H28.75l3.32-8.53H33.9Zm-3.17-3.39L33,86.63l-1.15,3.14Z"/><polygon class="cls-3" points="37.77 93.16 37.77 84.71 39.49 84.71 39.49 91.72 43.77 91.72 43.77 93.16 37.77 93.16"/><path class="cls-3" d="M44.5,84.64h3.14a6.29,6.29,0,0,1,1.63.16,2.82,2.82,0,0,1,1.28.79A3.66,3.66,0,0,1,51.37,87a6.34,6.34,0,0,1,.28,2,5.63,5.63,0,0,1-.26,1.82,3.79,3.79,0,0,1-.91,1.51,2.92,2.92,0,0,1-1.21.68,5.12,5.12,0,0,1-1.52.18H44.5Zm1.72,1.45v5.64H47.5a4.47,4.47,0,0,0,1-.08,1.56,1.56,0,0,0,.7-.35,1.9,1.9,0,0,0,.45-.82,5.89,5.89,0,0,0,.17-1.56,5.37,5.37,0,0,0-.17-1.52,2,2,0,0,0-.49-.83,1.79,1.79,0,0,0-.8-.4A8.74,8.74,0,0,0,47,86.08Z"/><path class="cls-3" d="M53,83.86l.8-1.74h1.83L54,83.86Zm-.43.78h1.72v8.52H52.56Z"/><path class="cls-3" d="M63.11,93.17H61.24l-.74-1.94H57.08l-.71,1.94H54.55l3.32-8.53H59.7Zm-3.17-3.39-1.18-3.14-1.15,3.14Z"/><polygon class="cls-3" points="65.86 93.16 65.86 84.64 68.44 84.64 69.98 90.46 71.52 84.64 74.1 84.64 74.1 93.16 72.5 93.16 72.5 86.45 70.8 93.16 69.14 93.16 67.47 86.45 67.46 93.16 65.86 93.16"/><path class="cls-3" d="M83,93.17H81.14l-.75-1.94H77l-.71,1.94H74.44l3.32-8.53H79.6Zm-3.17-3.39-1.18-3.14L77.5,89.78Z"/><polygon class="cls-3" points="84.56 93.16 84.56 89.58 81.44 84.64 83.45 84.64 85.47 88.02 87.44 84.64 89.42 84.64 86.28 89.59 86.28 93.16 84.56 93.16"/><path class="cls-3" d="M89.42,89a5.46,5.46,0,0,1,.39-2.18,4,4,0,0,1,.79-1.16,3.32,3.32,0,0,1,1.11-.78,4.65,4.65,0,0,1,1.84-.34,4,4,0,0,1,3,1.17,5.26,5.26,0,0,1,0,6.48,4,4,0,0,1-3,1.16,4,4,0,0,1-3-1.15A4.44,4.44,0,0,1,89.42,89m1.78-.06a3.16,3.16,0,0,0,.67,2.19,2.29,2.29,0,0,0,3.38,0,3.22,3.22,0,0,0,.66-2.22,3.17,3.17,0,0,0-.64-2.19,2.39,2.39,0,0,0-3.42,0A3.19,3.19,0,0,0,91.19,88.9Z"/><path class="cls-3" d="M98.54,93.16V84.64h3.62a6.09,6.09,0,0,1,2,.23,1.88,1.88,0,0,1,1,.81,2.45,2.45,0,0,1,.38,1.35,2.29,2.29,0,0,1-.56,1.58,2.7,2.7,0,0,1-1.68.78,3.93,3.93,0,0,1,.91.72,8.5,8.5,0,0,1,1,1.38l1.05,1.66h-2.07l-1.23-1.86a15.38,15.38,0,0,0-.91-1.25,1.48,1.48,0,0,0-.51-.35,3.16,3.16,0,0,0-.87-.09h-.35v3.56Zm1.73-4.92h1.27a6.92,6.92,0,0,0,1.54-.1.91.91,0,0,0,.49-.37,1.13,1.13,0,0,0,.17-.64,1,1,0,0,0-.23-.69,1,1,0,0,0-.64-.33c-.13,0-.55,0-1.25,0h-1.34Z"/><rect class="cls-3" x="88.42" y="105.34" width="1.6" height="1.61"/><path class="cls-3" d="M11.23,98.55h3.09a6,6,0,0,1,1.6.16,2.87,2.87,0,0,1,1.27.77,3.64,3.64,0,0,1,.8,1.36,6.05,6.05,0,0,1,.27,2A5.55,5.55,0,0,1,18,104.6a3.75,3.75,0,0,1-.89,1.48,3,3,0,0,1-1.2.67,4.91,4.91,0,0,1-1.49.18H11.23ZM12.92,100v5.54h1.27a4.85,4.85,0,0,0,1-.08,1.6,1.6,0,0,0,.68-.35,1.79,1.79,0,0,0,.45-.8,5.45,5.45,0,0,0,.17-1.54,4.94,4.94,0,0,0-.17-1.49,1.94,1.94,0,0,0-.48-.81,1.6,1.6,0,0,0-.78-.39,8,8,0,0,0-1.39-.08Z"/><polygon class="cls-3" points="19.2 106.93 19.2 98.55 25.42 98.55 25.42 99.97 20.91 99.97 20.91 101.82 25.1 101.82 25.1 103.24 20.91 103.24 20.91 105.51 25.58 105.51 25.58 106.93 19.2 106.93"/><path class="cls-3" d="M29.29,98.55h3.35a9.71,9.71,0,0,1,1.48.08A2.17,2.17,0,0,1,35,99a2.14,2.14,0,0,1,.64.69,1.91,1.91,0,0,1,.25,1,2,2,0,0,1-1.17,1.82,2.25,2.25,0,0,1,1.17.76,2,2,0,0,1,.42,1.27,2.44,2.44,0,0,1-.27,1.11,2.33,2.33,0,0,1-.72.86,2.54,2.54,0,0,1-1.14.4c-.28,0-1,0-2,0H29.29ZM31,99.94v1.94h1.1c.66,0,1.06,0,1.23,0a1.16,1.16,0,0,0,.68-.3.89.89,0,0,0,.25-.65,1,1,0,0,0-.21-.63,1,1,0,0,0-.64-.29c-.17,0-.65,0-1.44,0Zm0,3.33v2.23h1.56a7.7,7.7,0,0,0,1.16,0,1.1,1.1,0,0,0,.62-.33,1,1,0,0,0,.24-.71,1.08,1.08,0,0,0-.18-.64,1.05,1.05,0,0,0-.53-.38,5.78,5.78,0,0,0-1.5-.12Z"/><path class="cls-3" d="M36.9,102.79a5.47,5.47,0,0,1,.38-2.15,4.18,4.18,0,0,1,.79-1.15,3.21,3.21,0,0,1,1.08-.75,4.5,4.5,0,0,1,1.8-.34,3.9,3.9,0,0,1,3,1.15,5.13,5.13,0,0,1,0,6.36,3.91,3.91,0,0,1-3,1.15,4,4,0,0,1-3-1.14,4.32,4.32,0,0,1-1.11-3.15m1.75-.05a3.12,3.12,0,0,0,.66,2.15,2.26,2.26,0,0,0,3.33,0,3.23,3.23,0,0,0,.65-2.19,3.15,3.15,0,0,0-.63-2.14,2.34,2.34,0,0,0-3.36,0A3.16,3.16,0,0,0,38.65,102.73Z"/><path class="cls-3" d="M49.76,103.86v-1.42h3.65v3.33a4.74,4.74,0,0,1-1.54.91,5.66,5.66,0,0,1-2,.39,4.5,4.5,0,0,1-2.29-.56,3.49,3.49,0,0,1-1.47-1.57,5.17,5.17,0,0,1-.49-2.23,4.79,4.79,0,0,1,.55-2.32,3.69,3.69,0,0,1,1.6-1.56,4.34,4.34,0,0,1,2-.42,4.07,4.07,0,0,1,2.44.65,3,3,0,0,1,1.12,1.81l-1.68.32a1.79,1.79,0,0,0-.66-1,2,2,0,0,0-1.22-.36,2.28,2.28,0,0,0-1.76.7,3,3,0,0,0-.66,2.09,3.25,3.25,0,0,0,.66,2.23,2.2,2.2,0,0,0,1.73.75,3,3,0,0,0,1.07-.21,3.49,3.49,0,0,0,.91-.5v-1Z"/><path class="cls-3" d="M54.13,102.79a5.24,5.24,0,0,1,.38-2.15,4,4,0,0,1,.78-1.15,3.28,3.28,0,0,1,1.08-.75,4.54,4.54,0,0,1,1.81-.34,4,4,0,0,1,3,1.15,5.15,5.15,0,0,1,0,6.36,3.92,3.92,0,0,1-3,1.15,4,4,0,0,1-3-1.14,4.35,4.35,0,0,1-1.1-3.15m1.75-.05a3.11,3.11,0,0,0,.65,2.15,2.13,2.13,0,0,0,1.67.74,2.17,2.17,0,0,0,1.67-.73,3.21,3.21,0,0,0,.64-2.19,3.16,3.16,0,0,0-.62-2.14,2.18,2.18,0,0,0-1.69-.71,2.16,2.16,0,0,0-1.68.72A3.15,3.15,0,0,0,55.88,102.73Z"/><polygon class="cls-3" points="64.98 106.93 64.98 99.97 62.5 99.97 62.5 98.55 69.16 98.55 69.16 99.97 66.68 99.97 66.68 106.93 64.98 106.93"/><path class="cls-3" d="M77.31,106.93H75.47L74.74,105H71.39l-.69,1.91H68.9l3.26-8.38H74Zm-3.12-3.33L73,100.5l-1.12,3.1Zm-1.75-5.82.79-1.71H75l-1.56,1.71Z"/><path class="cls-3" d="M80.46,98.55h3.1a6,6,0,0,1,1.59.16,2.86,2.86,0,0,1,1.26.77,3.72,3.72,0,0,1,.8,1.36,6.14,6.14,0,0,1,.27,2,5.49,5.49,0,0,1-.25,1.79,3.72,3.72,0,0,1-.9,1.48,2.87,2.87,0,0,1-1.19.67,5,5,0,0,1-1.5.18H80.46Zm1.7,1.42v5.54h1.26a4.85,4.85,0,0,0,1-.08,1.64,1.64,0,0,0,.69-.35,1.84,1.84,0,0,0,.44-.8,5.54,5.54,0,0,0,.17-1.54,5,5,0,0,0-.17-1.49,1.86,1.86,0,0,0-.49-.81,1.58,1.58,0,0,0-.78-.39,7.93,7.93,0,0,0-1.39-.08Z"/><path class="cls-3" d="M96.57,103.83l1.63.52A3.77,3.77,0,0,1,97,106.4a3.95,3.95,0,0,1-5-.47,4.36,4.36,0,0,1-1.08-3.13A4.53,4.53,0,0,1,92,99.57a3.69,3.69,0,0,1,2.84-1.16,3.49,3.49,0,0,1,2.5.91,3.25,3.25,0,0,1,.86,1.54l-1.67.4a1.74,1.74,0,0,0-1.76-1.41,1.9,1.9,0,0,0-1.52.67,3.24,3.24,0,0,0-.58,2.17,3.47,3.47,0,0,0,.57,2.26,1.84,1.84,0,0,0,1.48.67,1.69,1.69,0,0,0,1.16-.43,2.48,2.48,0,0,0,.7-1.36"/><rect class="cls-3" x="99.14" y="105.37" width="1.61" height="1.6"/><path class="cls-4" d="M25.81,7.14a32.4,32.4,0,0,0,30,.07,32.46,32.46,0,0,0,30-.07V60.85A12,12,0,0,1,73.57,72.65c-6.48,0-12.2,1-17.78,4.47-5.58-3.57-11.36-4.47-17.85-4.47A11.91,11.91,0,0,1,25.81,60.85Z"/><path class="cls-5" d="M36,55.36a7.68,7.68,0,0,0,7.81,7.8c4.42,0,8.05.48,11.89,2.88,3.81-2.38,7.42-2.88,11.81-2.88s8.37-3.51,8.37-7.8l0-36.11c-4.87,2.53-15.31.87-20-1.56-4.61,2.4-15.17,4.13-20,1.56"/><path class="cls-6" d="M60.59,54.18a3.1,3.1,0,0,0,.84,2.5,2.93,2.93,0,0,0,2.28,1.1,3.62,3.62,0,0,0-.84-2.57,3.42,3.42,0,0,0-2.28-1m11.59-6.84a1.11,1.11,0,0,1,1.68,0l.15-.14s-.37-1-1.14-.89c0,0,.46-1.24.23-1.39s-1.14.88-1.14.88c-.24-.73-1.39-.73-1.39-.73v.29c.77.07.92,1.1.69,1.47C71.19,47,72,47.55,72.19,47.33Zm-.92,3.24c.84-1.33.84-2.79.15-3.16s-2,.29-2.82,1.62-.69,2.35,0,2.72S70.35,51.89,71.26,50.57ZM51,54.18a3.13,3.13,0,0,1-.83,2.5,3,3,0,0,1-2.29,1.1,3.63,3.63,0,0,1,.84-2.57A3.4,3.4,0,0,1,51,54.18ZM39.39,47.33a1.11,1.11,0,0,0-1.68,0l-.14-.14s.38-1,1.14-.89c0,0-.46-1.24-.23-1.39s1.14.88,1.14.88c.23-.73,1.38-.73,1.38-.73v.29c-.76.07-.91,1.1-.69,1.47C40.38,47,39.54,47.55,39.39,47.33Zm.91,3.24c-.84-1.33-.84-2.79-.15-3.16s2,.29,2.82,1.62.69,2.35,0,2.72S41.22,51.89,40.3,50.57Zm6.18,9.71c-.3-1.45.5-4.66-3.15-7.21-2.09,2.4-3,.6-3,.6a4.78,4.78,0,0,0,2.58-1.55c-1.69.94-3.53.67-4.33-.59s-.15-3.24,1.53-4.26,3.73-.81,4.57.52.19,3-1.37,4.09c1.13.1,2.59-1.44,2.59-1.44.64,1.19-.53,1.85-1.44,2.17C48,55,48,59.3,48.24,60.35Zm18.6,0c.3-1.45-.5-4.66,3.16-7.21,2.08,2.4,3,.6,3,.6a4.78,4.78,0,0,1-2.57-1.55c1.69.94,3.53.67,4.33-.59s.16-3.24-1.53-4.26-3.74-.81-4.57.52-.21,3,1.37,4.09c-1.13.1-2.6-1.44-2.6-1.44-.64,1.19.53,1.85,1.44,2.17-3.57,2.44-3.58,6.7-3.81,7.75Z"/><path class="cls-7" d="M53.93,26.08a.71.71,0,0,1,.76-.74.69.69,0,0,1,.69.74.67.67,0,0,1-.69.66.69.69,0,0,1-.76-.66m3.51-2.21L59,21.52l-2.37.89-.84-2.13-.91,2.13-2.44-.89L54,23.88Zm.88,21.51c-1.26-1,.15-1.39.49-1.07a5,5,0,0,0,6,.82,6.32,6.32,0,0,1-3.28-3.24,7.07,7.07,0,0,0,8.08-.36c-3,.52-5.42-2.35-5.42-2.35a9.16,9.16,0,0,0,8-2.06c-1.75.14-6.1-1.69-6.1-1.69,6.94-.22,7.55-5.15,7.62-5.15-1.91,1.25-7,.66-7,.66,7.25-2.57,6.71-8.53,6.71-8.53-1.54,2.28-8.54,4.48-8.54,4.48a4.67,4.67,0,0,0-3.44,4.26,1.7,1.7,0,0,1-1.67,1.47c-1.87,0-1.84-2.7-1.84-4,0-1.91-.07-4.11-1.45-4.11H53.71c-.5,0-1.35-.05-1.7.37-.71.82-.6,3-.28,2.56a3.3,3.3,0,0,1,1.75,0c.89.26.23,3,.23,3.61A1.65,1.65,0,0,1,52,32.63a1.71,1.71,0,0,1-1.68-1.47A4.69,4.69,0,0,0,47,26.89s-7.17-2.21-8.69-4.48c0,0-.54,6,6.78,8.67,0,0-5.18.44-7.09-.81.08,0,1,5.15,7.93,5.37,0,0-4.58,1.54-6.25,1.32a8.86,8.86,0,0,0,8.16,2.65S45.16,42,42.11,41.53A7.09,7.09,0,0,0,50.2,42,6,6,0,0,1,47,45.13a5.13,5.13,0,0,0,6-.82c.41-.45,1.71.07.41,1.07-1.75,1.33-4.23,1.65-5.29,3.86l1.29.25C48,51,46,53,45.85,53.07c0,0-.45-.66-1.91.07-.77.37-1.14,1.32-.61,1.69,0,0-.23,1.18,1.14,1.1,0,0,.54,1,1.68.22s-.08-.51-.23-.81.08-.14.08-.14c.53-.08,1.22-.67.76-1.18a49.59,49.59,0,0,1,4.34-2.81l.24,1.19A5.05,5.05,0,0,1,54,50.65a7.33,7.33,0,0,0-1.43,5.89s.3-1,1.83-1.11c0,0-2.14,2.58,1.29,7.58,3.43-5,1.45-7.58,1.45-7.58A2.17,2.17,0,0,1,59,56.54a7.45,7.45,0,0,0-1.52-5.93,4.87,4.87,0,0,1,2.67,1.81l.24-1.22c1.84,1.14,4.38,2.74,4.34,2.84-.46.51.3,1.1.75,1.18,0,0,.16-.08.08.14s-1.3.07-.23.81A1.12,1.12,0,0,0,67,55.94c1.37.08,1.15-1.1,1.15-1.1.53-.37.15-1.32-.69-1.69-1.45-.73-1.9-.07-1.9-.07-.15-.05-2.06-2.12-3.48-3.58l1.26-.25C62.46,47.13,60,46.67,58.32,45.38Z"/><path class="cls-8" d="M30.66,22.15A4.79,4.79,0,0,1,27.93,22s-.2,1.69,2.39,1.15c-.13,1.34.69,2.34,1,3.66a3.29,3.29,0,0,0-.69-.62,3.81,3.81,0,0,0-2.51-.44,2.45,2.45,0,0,0,1.22,1.84,3.4,3.4,0,0,0,2.14.55,5.7,5.7,0,0,1-.61,2.24l1.22,1A7.68,7.68,0,0,0,32,25.5c-.62-1.31-.75-1.81-.67-2.31.83.3,2.5.72,2.73-.71a4.85,4.85,0,0,1-2.74-.29c1.69,0,3.13-1,3.27-2.35s-1.3-2.65-3.13-2.72S28,18,27.85,19.4,29,21.9,30.66,22.15Zm.78-5c.69.08,1.22,1.25,1.14,2.72S31.74,22,31.06,22s-1.37-.89-1.3-2.29S30.68,17.12,31.44,17.19Z"/><path class="cls-8" d="M58.43,15.64c-.46.51.08,1.33.08,1.33h.22a1.07,1.07,0,0,1,.92-1.33c.22,0,.22-.88,0-.88-.39,0-1.15-.59-.77-1.25l-.24-.08s-.61.81-.14,1.33c0,0-1.3.22-1.3.44S58.43,15.64,58.43,15.64Z"/><path class="cls-8" d="M31,16.6c0,.22.92.29,1,.07a1.05,1.05,0,0,1,1.37-.74l.08-.14s-.76-.67-1.37-.22c0,0-.15-1.17-.38-1.17s-.61,1.1-.61,1.1c-.46-.44-1.37.07-1.37.07l.08.22A.94.94,0,0,1,31,16.6Z"/><path class="cls-8" d="M80,16.67c0,.23,1,.15,1-.07a.92.92,0,0,1,1.23-.81l.08-.22s-.92-.51-1.37-.07c0,0-.38-1.18-.61-1.1s-.39,1.17-.39,1.17c-.6-.44-1.37.22-1.37.22l.08.14A1.05,1.05,0,0,1,80,16.67Z"/><path class="cls-8" d="M81.07,38.29a1,1,0,0,1,1.37-.74l.09-.22s-.77-.59-1.38-.15c0,0-.15-1.17-.39-1.17s-.61,1.1-.61,1.1c-.45-.44-1.36.08-1.36.08l.08.22a.91.91,0,0,1,1.21.81C80.08,38.44,81.07,38.51,81.07,38.29Z"/><path class="cls-8" d="M80.65,22.19a4.84,4.84,0,0,1-2.73.29c.22,1.42,1.89,1,2.72.71.07.5,0,1-.67,2.31a7.37,7.37,0,0,0-.15,5.81l1.22-1a5.87,5.87,0,0,1-.65-2.24,3.45,3.45,0,0,0,2.18-.55,2.74,2.74,0,0,0,1.21-1.84,3.81,3.81,0,0,0-2.52.44,3.12,3.12,0,0,0-.77.72c.33-1.37,1.21-2.38,1.1-3.76C84.23,23.67,84,22,84,22a4.79,4.79,0,0,1-2.73.18c1.67-.26,2.87-1.44,2.8-2.76S82.33,17,80.51,17.12s-3.2,1.32-3.13,2.72S79,22.15,80.65,22.19Zm-.14-5c.76-.07,1.6,1,1.68,2.5s-.62,2.21-1.3,2.29-1.53-.66-1.6-2.06S79.82,17.26,80.51,17.19Z"/><path class="cls-8" d="M33.06,37.41l.07-.22s-.91-.51-1.37-.08c0,0-.38-1.18-.61-1.1s-.38,1.17-.38,1.17c-.61-.44-1.37.15-1.37.15l.07.22a1.06,1.06,0,0,1,1.37.74c.07.22,1,.15,1-.08A.91.91,0,0,1,33.06,37.41Z"/><path class="cls-8" d="M52.18,15.64A1.06,1.06,0,0,1,53.09,17h.22s.54-.81.08-1.33c0,0,1.21-.22,1.21-.44s-1.3-.44-1.3-.44c.46-.52-.15-1.33-.15-1.33l-.23.08c.38.66-.37,1.25-.76,1.25C52,14.76,52,15.64,52.18,15.64Z"/><path class="cls-8" d="M30.7,52.93l1.22-1c-1.76-3.65.8-4.94.58-7.23,2.59.54,2.39-1.15,2.39-1.15a4.6,4.6,0,0,1-2.86.13c1.73-.15,3-1.36,2.93-2.7s-1.76-2.43-3.58-2.36-3.2,1.4-3.13,2.8,1.62,2.34,3.36,2.29c-.82.67-2.82.35-2.82.35.23,1.42,1.89,1,2.73.71.07.5-.05,1-.67,2.3a5.31,5.31,0,0,0-.28.71,2,2,0,0,0-.79-1.3,2.89,2.89,0,0,0-2.29-.81,2.11,2.11,0,0,0,.69,2,3.09,3.09,0,0,0,2.2.81A7.5,7.5,0,0,0,30.7,52.93Zm-.46-11.4c-.08-1.47.46-2.65,1.14-2.72s1.6,1,1.68,2.5-.53,2.21-1.3,2.29S30.32,42.92,30.24,41.53Z"/><path class="cls-8" d="M30.9,59.85c.07.15.91-.36.76-.51a1,1,0,0,1,.69-1.4l-.08-.22s-1,0-1.22.66c0,0-.84-.88-1.07-.73s.3,1.25.3,1.25c-.76-.15-1.14.81-1.14.81l.15.14A1,1,0,0,1,30.9,59.85Z"/><path class="cls-8" d="M81.66,58.9s.47-1.1.31-1.25-1.06.73-1.06.73c-.24-.66-1.22-.66-1.22-.66l-.08.22a1,1,0,0,1,.61,1.4c-.08.15.76.67.84.51a1,1,0,0,1,1.53,0l.23-.14S82.42,58.74,81.66,58.9Z"/><path class="cls-8" d="M74.75,17.12l-.92-1.25a6.21,6.21,0,0,1-2.36.42,3.14,3.14,0,0,0-.38-2.12,2.58,2.58,0,0,0-1.83-1.32,3,3,0,0,0,.3,2.43,2.7,2.7,0,0,0,.62.79c-1.34-.42-2.29-1.3-3.66-1.35.68-2.44-1.08-2.38-1.08-2.38a4.06,4.06,0,0,1-.07,2.7,2.81,2.81,0,0,0-2.52-3,3,3,0,0,0-2.74,3.16C60,17,61.17,18.44,62.63,18.44a2.93,2.93,0,0,0,2.74-3c.62.84.15,2.7.15,2.7,1.41-.06,1.15-1.74,1-2.54a5.38,5.38,0,0,1,2.25.85A8.57,8.57,0,0,0,74.75,17.12Zm-11.9-.52c-1.44-.07-2.59-.66-2.66-1.4s1.22-1.4,2.74-1.4,2.22.81,2.22,1.47S64.38,16.67,62.85,16.6Z"/><path class="cls-8" d="M84.5,45.72a3,3,0,0,0-2.36.81,2.22,2.22,0,0,0-.77,1.29,6.8,6.8,0,0,0-.3-.7c-.62-1.31-.74-1.81-.68-2.3.84.3,2.5.71,2.73-.71,0,0-2,.32-2.82-.35,1.73,0,3.21-1,3.36-2.29s-1.3-2.65-3.12-2.8S77.11,39.61,77,41s1.2,2.55,2.93,2.7a4.29,4.29,0,0,1-2.77-.13s-.28,1.7,2.32,1.14C79.28,47,81.83,48.32,80,52l1.21,1a7.25,7.25,0,0,0,.35-4.4,3.11,3.11,0,0,0,2.17-.81A2.38,2.38,0,0,0,84.5,45.72Zm-5.64-4.41c.07-1.47.91-2.57,1.68-2.5s1.29,1.25,1.21,2.72-.83,2.13-1.6,2.06S78.79,42.71,78.86,41.31Z"/><path class="cls-8" d="M80.45,59.92c-1.53-1-3.44-.81-4.2.37S76,63.1,77.38,64.08c-1.06,0-2.43-1.29-2.43-1.29-.69,1.22.91,1.85,1.75,2.09-.26.45-.68.78-2,1.44a8,8,0,0,0-3.81,4.56l1.6-.07a5.62,5.62,0,0,1,.88-2.12,3.64,3.64,0,0,0,2,.8,2.82,2.82,0,0,0,2.21-.81,3.31,3.31,0,0,0-2.29-1,2.91,2.91,0,0,0-1,.08c1.11-.85,2.4-1.17,3.2-2.32,1.75,1.9,2.62.41,2.62.41a4.35,4.35,0,0,1-2.36-1.48,3,3,0,0,0,4-.51C82.58,62.65,82,60.88,80.45,59.92Zm-.32,3c-.84,1.18-1.83,1.47-2.44,1.1s-.84-1.39,0-2.57,2.06-1.76,2.67-1.4S81,61.76,80.13,62.94Z"/><path class="cls-8" d="M37.23,66.32c-1.29-.65-1.72-1-2-1.44.83-.24,2.43-.88,1.74-2.09,0,0-1.43,1.38-2.49,1.28,1.47-1,2-2.64,1.2-3.78S33,59,31.51,59.92s-2.14,2.73-1.37,3.9a3,3,0,0,0,4.08.44,4.22,4.22,0,0,1-2.4,1.55s.87,1.49,2.63-.41c.78,1.15,2.08,1.47,3.18,2.32a2.92,2.92,0,0,0-1-.08,3.18,3.18,0,0,0-2.29,1,2.72,2.72,0,0,0,2.21.81,3.87,3.87,0,0,0,2-.81,5.65,5.65,0,0,1,.88,2.13l1.6.07A7.94,7.94,0,0,0,37.23,66.32Zm-3-2.28c-.61.37-1.6.08-2.44-1.1s-.84-2.51-.23-2.87,1.83.22,2.67,1.4S34.86,63.68,34.25,64Z"/><path class="cls-8" d="M49.2,18.44c1.45,0,2.59-1.47,2.52-3.24A3,3,0,0,0,49,12a2.82,2.82,0,0,0-2.52,3,4.13,4.13,0,0,1-.07-2.7s-1.75-.06-1.07,2.38c-1.37.05-2.32.93-3.66,1.35a2.56,2.56,0,0,0,.61-.79,3,3,0,0,0,.31-2.43,2.54,2.54,0,0,0-1.83,1.32,3.12,3.12,0,0,0-.38,2.12A6.27,6.27,0,0,1,38,15.87l-.91,1.25a8.56,8.56,0,0,0,6-.67,5.37,5.37,0,0,1,2.25-.85c-.2.8-.44,2.48,1,2.54,0,0-.46-1.86.15-2.7A2.93,2.93,0,0,0,49.2,18.44Zm-2.52-3.16c0-.67.76-1.39,2.21-1.47s2.75.74,2.75,1.4S50.42,16.53,49,16.6,46.6,16,46.69,15.28Z"/><path class="cls-8" d="M58.32,70.15a4.58,4.58,0,0,1-2.43.26c.4-.74,1-2.23-.39-2.62,0,0,.06,1.82-.72,2.5a3,3,0,0,0-2-3.46c-1.45-.3-2.9.89-3.28,2.65a3.08,3.08,0,0,0,2,3.67,2.87,2.87,0,0,0,3.17-2.4,4.12,4.12,0,0,1-.57,2.62s1.74.51,1.58-2c1.38.26,2.54-.38,3.95-.54a2.91,2.91,0,0,0-.79.55A3.89,3.89,0,0,0,58,73.75a3.1,3.1,0,0,0,3-2.88,6,6,0,0,1,2.2.9l1.22-1A8.6,8.6,0,0,0,58.32,70.15Zm-3.74.3c-.15.73-1.15,1.25-2.59.95s-2.44-1.24-2.29-1.91,1.45-1,3-.81S54.73,69.78,54.58,70.44Z"/><path class="cls-8" d="M49.24,68.9c-.38-.08-1-.81-.53-1.4l-.23-.15s-.76.66-.38,1.32c0,0-1.22,0-1.3.14s1.15.74,1.15.74c-.61.44-.23,1.32-.23,1.32h.23c-.15-.73.69-1.18,1.14-1.1C49.24,69.85,49.47,69,49.24,68.9Z"/></svg>