<svg xmlns="http://www.w3.org/2000/svg" xmlns:xlink="http://www.w3.org/1999/xlink" viewBox="0 0 300 300"><defs><style>.cls-1{fill:#3d5da6;}.cls-2{fill:url(#Degradado_sin_nombre_18);}</style><linearGradient id="Degradado_sin_nombre_18" x1="114.98" y1="57.5" x2="184.99" y2="57.5" gradientUnits="userSpaceOnUse"><stop offset="0.03" stop-color="#e67d23"/><stop offset="1" stop-color="#fbb03b"/></linearGradient></defs><title>SalonesQue debo hacer@1x</title><g id="Capa_2" data-name="Capa 2"><g id="Capa_1-2" data-name="Capa 1"><path class="cls-1" d="M25.75,140a30.32,30.32,0,0,0,4.25-.35V285a15,15,0,0,0,15,15H255a15,15,0,0,0,15-15V139.65a30.32,30.32,0,0,0,4.25.35A25.09,25.09,0,0,0,300,115.7a9.33,9.33,0,0,0-.06-1.18,5.2,5.2,0,0,0-.14-.88h0L284.55,46.17a39.8,39.8,0,0,0-39-31.17h-56a59.65,59.65,0,0,0-79.11,0h-56a39.79,39.79,0,0,0-39,31.17l-14,61.54A22.52,22.52,0,0,0,.19,113.6v.09l-.06.25v.16c0,.13,0,.27,0,.4v0A7.67,7.67,0,0,0,0,115.7,25.09,25.09,0,0,0,25.75,140ZM65,290V180h70V290Zm195-5a5,5,0,0,1-5,5H145V180a10,10,0,0,0-10-10H65a10,10,0,0,0-10,10V290H45a5,5,0,0,1-5-5V136.5a30.83,30.83,0,0,0,9.29-6.92,25.69,25.69,0,0,0,40.67.89,25.78,25.78,0,0,0,40.08,0,25.63,25.63,0,0,0,39.92,0,25.78,25.78,0,0,0,40.08,0,25.69,25.69,0,0,0,40.67-.89A31,31,0,0,0,260,136.5ZM125,114.5v.5a1.79,1.79,0,0,1,.06.7,15.12,15.12,0,0,1-30.12,1v-1L98.74,91A60.39,60.39,0,0,0,125,114.5ZM201.3,91l3.77,24.21a4.34,4.34,0,0,0,0,.51,15.13,15.13,0,0,1-30.12,1v-1c0-.12,0-.22,0-.33A3.82,3.82,0,0,0,175,115v-.5A60.4,60.4,0,0,0,201.3,91Zm-66.06,27.12a58,58,0,0,0,29.48,0,15.08,15.08,0,0,1-29.48,0ZM274.79,48.38l15.14,66.85a2.54,2.54,0,0,0,.07.47A15.09,15.09,0,0,1,274.25,130c-8.4,0-18.6-6.23-19.21-13.41v-.89a5,5,0,0,0-.28-2.26L239.88,48.88a5,5,0,1,0-9.75,2.24l14.92,64.64A14.53,14.53,0,0,1,230,130a14.36,14.36,0,0,1-15-13.28v-1a4.3,4.3,0,0,0-.05-.61,4.84,4.84,0,0,0,0-.85l-6.45-41.42A59.45,59.45,0,0,0,198.64,25h46.89A29.84,29.84,0,0,1,274.79,48.38ZM200,60a50,50,0,1,1-50-50A50,50,0,0,1,200,60ZM25.21,48.38A29.84,29.84,0,0,1,54.47,25h46.9a59.36,59.36,0,0,0-10,47.86l-6.2,40.35a4.46,4.46,0,0,0-.27,2.5A14.3,14.3,0,0,1,70,130a14.63,14.63,0,0,1-15.08-13.36c0-.31,0-.62,0-.94a.94.94,0,0,1,0-.29L69.89,51.14a5,5,0,0,0-9.74-2.27l-15,64.5a4.62,4.62,0,0,0-.2,2.36C45,123.4,34.39,130,25.75,130A15.14,15.14,0,0,1,10,116a3.35,3.35,0,0,0,.08-.54l1.3-5.66v-.08Z"/><path class="cls-1" d="M240,170H170a10,10,0,0,0-10,10v60a10,10,0,0,0,10,10h70a10,10,0,0,0,10-10V180A10,10,0,0,0,240,170Zm-30,70V220a5,5,0,0,0-10,0v20H170V215h20a5,5,0,0,0,0-10H170V180h30v20a5,5,0,0,0,10,0V180h30v25H220a5,5,0,0,0,0,10h20v25Z"/><path class="cls-1" d="M125,235a5,5,0,1,1-5-5A5,5,0,0,1,125,235Z"/><path class="cls-2" d="M135,95a19.87,19.87,0,0,0,15-6.91,19.93,19.93,0,1,0,17.31-32.86L156.6,44.53,169,28a5,5,0,1,0-8-6L150,36.66,139,22a5,5,0,0,0-8,6l12.4,16.53-10.71,10.7A19.95,19.95,0,0,0,135,95Zm40-20a10,10,0,1,1-10-10A10,10,0,0,1,175,75ZM144.54,57.53,150,52.07l5.46,5.46A20.11,20.11,0,0,0,150,61.91,20.11,20.11,0,0,0,144.54,57.53ZM135,65a10,10,0,1,1-10,10A10,10,0,0,1,135,65Z"/></g></g></svg>