<svg xmlns="http://www.w3.org/2000/svg" viewBox="0 0 188 250"><defs><style>.cls-1{fill:#3d5da6;}</style></defs><title>SalonesRecomendacion 1@1x</title><g id="Capa_2" data-name="Capa 2"><g id="Capa_1-2" data-name="Capa 1"><g id="Page-1"><path id="Shape" class="cls-1" d="M33.66,28.78h16a2.62,2.62,0,1,0,0-5.23h-16a2.62,2.62,0,1,0,0,5.23Z"/><path class="cls-1" d="M62.9,28.78H86.81a2.62,2.62,0,1,0,0-5.23H62.9a2.62,2.62,0,1,0,0,5.23Z"/><path class="cls-1" d="M33.66,57.56h85.05a2.62,2.62,0,1,0,0-5.23h-85a2.62,2.62,0,1,0,0,5.23Z"/><path class="cls-1" d="M33.66,68H70.87a2.62,2.62,0,1,0,0-5.23H33.66a2.62,2.62,0,1,0,0,5.23Z"/><path class="cls-1" d="M33.66,89H70.87a2.62,2.62,0,1,0,0-5.23H33.66a2.62,2.62,0,1,0,0,5.23Z"/><path class="cls-1" d="M33.66,109.88H70.87a2.62,2.62,0,1,0,0-5.23H33.66a2.62,2.62,0,1,0,0,5.23Z"/><path class="cls-1" d="M33.66,130.81H70.87a2.62,2.62,0,1,0,0-5.23H33.66a2.62,2.62,0,1,0,0,5.23Z"/><path class="cls-1" d="M175.58,76.21l-30.3-12.88V7.85a7.91,7.91,0,0,0-8-7.85h-101a7.91,7.91,0,0,0-8,7.85v2.62H25.69a7.91,7.91,0,0,0-8,7.84V149.13a7.92,7.92,0,0,0,8,7.85h101a8,8,0,0,0,5.7-2.39l2.18,1.52a4.82,4.82,0,0,0,5.5,0l25.71-18a26.52,26.52,0,0,0,11.4-21.65V78.61A2.62,2.62,0,0,0,175.58,76.21ZM33.66,7.85a2.64,2.64,0,0,1,2.66-2.62h101A2.64,2.64,0,0,1,140,7.85V61.07l-1.6-.68a2.64,2.64,0,0,0-2.1,0l-1.6.68V44.48c0-.06,0-.12,0-.17a2.88,2.88,0,0,0-.13-.65c0-.06,0-.12,0-.18s0,0-.06-.09a2.32,2.32,0,0,0-.53-.76L102,11.23a2.6,2.6,0,0,0-.78-.52l-.09-.06-.18,0a2.41,2.41,0,0,0-.66-.12l-.18,0H33.66Zm69.1,11.55,22.82,22.46H105.42a2.64,2.64,0,0,1-2.66-2.62Zm23.92,132.34h-101A2.64,2.64,0,0,1,23,149.13V18.31a2.64,2.64,0,0,1,2.66-2.61H97.45V39.24a7.9,7.9,0,0,0,8,7.85h23.92V63.33L120.78,67a2.53,2.53,0,0,0,.58-1.57,2.64,2.64,0,0,0-2.65-2.62H81.5a2.62,2.62,0,1,0,0,5.23h36.8L106,73.26H33.66a2.62,2.62,0,1,0,0,5.23h63.8s0,.08,0,.12v5.11h-16a2.62,2.62,0,1,0,0,5.23h16v5.24H33.66a2.62,2.62,0,1,0,0,5.23H97.45v5.23h-16a2.62,2.62,0,1,0,0,5.23h16v5.24H33.66a2.62,2.62,0,1,0,0,5.23H97.78a25.59,25.59,0,0,0,1.34,5.23H81.5a2.62,2.62,0,1,0,0,5.23h20.31a26.57,26.57,0,0,0,4.46,5.24H33.66a2.62,2.62,0,1,0,0,5.23h79.73l14.48,10.15A2.73,2.73,0,0,1,126.68,151.74Zm45.18-35.29a21.31,21.31,0,0,1-9.17,17.38l-25.38,17.79-25.38-17.79a21.31,21.31,0,0,1-9.17-17.38V80.34l4.81-2,.05,0,29.69-12.64,34.55,14.69Z"/><path class="cls-1" d="M136.25,71.79l-26.58,11.3a2.6,2.6,0,0,0-1.59,2.4v31A16.07,16.07,0,0,0,115,129.57l20.76,14.55a2.71,2.71,0,0,0,3.08,0l20.76-14.55a16.07,16.07,0,0,0,6.93-13.12v-31a2.62,2.62,0,0,0-1.59-2.4l-26.58-11.3A2.69,2.69,0,0,0,136.25,71.79Zm25,15.43v29.23a10.89,10.89,0,0,1-4.7,8.87l-19.22,13.45L118.09,125.3a10.85,10.85,0,0,1-4.7-8.85V87.21L137.31,77Z"/><path class="cls-1" d="M123,110.41a2.72,2.72,0,0,0-2.64-.32,2.66,2.66,0,0,0-1.6,2.1,2.6,2.6,0,0,0,1,2.4l10.63,7.85a2.68,2.68,0,0,0,3.67-.46l21.26-26.16a2.59,2.59,0,0,0-.41-3.68,2.69,2.69,0,0,0-3.74.41l-19.65,24.19Z"/></g><polygon class="cls-1" points="178.6 183.14 178.6 240.91 9.4 240.91 9.4 96.6 9.4 18.2 9.4 9.11 0 9.11 0 250 188 250 188 183.14 178.6 183.14"/><path class="cls-1" d="M57.89,183.63H53.53v8.58H36.09V175H49.17v-4.29H31.73v25.76H57.89Z"/><path class="cls-1" d="M65.07,162.79l-20.26,20L42,180l-3.08,3,5.9,5.81,23.35-23Z"/><path class="cls-1" d="M53.53,228.71H36.09V211.53H49.17v-4.29H31.73V233H57.89V220.12H53.53Z"/><path class="cls-1" d="M42,216.46l-3.08,3,5.9,5.81,23.35-23-3.09-3L44.81,219.23Z"/><path class="cls-1" d="M129.75,182.66h-4.36v8.59H107.94V174.07H121v-4.29H103.58v25.76h26.17Z"/><path class="cls-1" d="M136.93,161.82l-20.27,20L113.84,179l-3.08,3,5.9,5.81,23.35-23Z"/><path class="cls-1" d="M125.39,227.74H107.94V210.57H121v-4.3H103.58V232h26.17V219.15h-4.36Z"/><path class="cls-1" d="M113.84,215.49l-3.08,3,5.9,5.81,23.35-23-3.08-3-20.27,19.95Z"/></g></g></svg>