<svg xmlns="http://www.w3.org/2000/svg" viewBox="0 0 185.92 246"><defs><style>.cls-1{fill:#3d5da6;}</style></defs><title>SalonesRecomendacion 2@1x</title><g id="Capa_2" data-name="Capa 2"><g id="Capa_1-2" data-name="Capa 1"><polygon class="cls-1" points="164.27 93.67 164.27 100.1 164.27 237.35 8.65 237.35 8.65 100.1 8.65 25.53 8.65 16.88 0 16.88 0 246 172.92 246 172.92 93.67 164.27 93.67"/><path class="cls-1" d="M180.1,16a5.75,5.75,0,0,0-2.91.81V10.18a5.83,5.83,0,0,0-5.82-5.82,5.69,5.69,0,0,0-3,.85,5.81,5.81,0,0,0-11.58.61v.81a5.75,5.75,0,0,0-2.91-.81,4.78,4.78,0,0,0-.76.08,5.78,5.78,0,0,0-8.31-2,5.8,5.8,0,0,0-11.29,1.91v.81a5.78,5.78,0,0,0-8.73,5v2.91H110.27v2.91h14.55v8.08a5.78,5.78,0,0,0-8.73,5H95.72v2.91h20.37V45.1h-8.73V48h8.73v4.36a31.36,31.36,0,0,0,3.25,14.89c.56,1.27,1.13,2.56,1.66,4H95.72v2.91h26.17a57.66,57.66,0,0,1,1.47,14.55v1.45h53.83V88.74c0-12,2-15.33,4.15-18.89,2.25-3.75,4.58-7.62,4.58-20.39V21.82A5.83,5.83,0,0,0,180.1,16ZM126.26,87.28c-.16-12-2.33-16.86-4.26-21.2a28.55,28.55,0,0,1-3-13.71V30.55a2.91,2.91,0,1,1,5.82,0v16h2.91V11.64a2.91,2.91,0,0,1,5.82,0V37.82h2.91v-32a2.91,2.91,0,1,1,5.81,0v16h2.91V8.73A2.91,2.91,0,0,1,150.43,7a5.78,5.78,0,0,0-2.34,4.63v13.9a5.75,5.75,0,0,0-2.91-.81,5.82,5.82,0,0,0-5.81,5.82V52.37a31.36,31.36,0,0,0,3.25,14.89c1.9,4.28,3.85,8.71,4,20ZM183,49.46c0,12-2,15.33-4.16,18.89s-4.39,7.32-4.56,18.93H149.54c-.16-12-2.33-16.86-4.26-21.2a28.54,28.54,0,0,1-3-13.71V30.55a2.91,2.91,0,1,1,5.82,0v16H151V11.64a2.91,2.91,0,0,1,5.82,0V37.82h2.91v-32a2.91,2.91,0,0,1,5.82,0v32h2.91V10.18a2.91,2.91,0,1,1,5.82,0V37.82h2.91v-16a2.91,2.91,0,0,1,5.82,0Z"/><rect class="cls-1" x="168.46" y="81.46" width="2.91" height="2.91"/><rect class="cls-1" x="162.64" y="81.46" width="2.91" height="2.91"/><rect class="cls-1" x="95.72" y="50.92" width="14.55" height="2.91"/><rect class="cls-1" x="95.72" y="65.46" width="7.27" height="2.91"/><rect class="cls-1" x="101.54" y="45.1" width="2.91" height="2.91"/><rect class="cls-1" x="95.72" y="14.55" width="10.18" height="2.91"/><path class="cls-1" d="M148,106H134.43a2.26,2.26,0,0,0-2.27,2.26v56.61h-4.53V117.34a2.27,2.27,0,0,0-2.26-2.27H98.19a2.27,2.27,0,0,0-2.26,2.27v47.55H89.14V149a2.27,2.27,0,0,0-2.27-2.26H68.76A2.27,2.27,0,0,0,66.49,149v15.85H59.7V135.45a2.26,2.26,0,0,0-2.27-2.26H39.32a2.27,2.27,0,0,0-2.27,2.26v29.44H32.53V108.28A2.27,2.27,0,0,0,30.26,106H16.67a2.26,2.26,0,0,0-2.26,2.26V239.62a2.26,2.26,0,0,0,2.26,2.26H30.26a2.27,2.27,0,0,0,2.27-2.26v-2.27h99.63v2.27a2.26,2.26,0,0,0,2.27,2.26H148a2.27,2.27,0,0,0,2.27-2.26V108.28A2.27,2.27,0,0,0,148,106ZM100.46,219.24V192.07h9.06v27.17Zm13.59-27.17h9v27.17h-9Zm11.32-4.53H98.19a2.26,2.26,0,0,0-2.26,2.26v29.44H82.28a11.22,11.22,0,0,0,2.33-6.79,11.34,11.34,0,0,0-9.35-11.13,11.32,11.32,0,1,0-22.08,0,11.33,11.33,0,0,0-9.33,11.13,11.21,11.21,0,0,0,2.32,6.79H32.53V183h99.63v36.23h-4.53V189.8A2.26,2.26,0,0,0,125.37,187.54Zm-77,24.91a6.79,6.79,0,1,1,6.79,6.79A6.79,6.79,0,0,1,48.38,212.45Zm9-13.59a6.79,6.79,0,1,1,13,2.68,11.31,11.31,0,0,0-6.17,4.18A11.35,11.35,0,0,0,58,201.53,6.82,6.82,0,0,1,57.43,198.86Zm9.06,13.59a6.8,6.8,0,1,1,6.8,6.79A6.79,6.79,0,0,1,66.49,212.45Zm34-79.26H123.1v9.06H100.46Zm0-13.59H123.1v9.06H100.46Zm0,27.18H123.1v18.11H100.46ZM71,151.31H84.61v4.52H71Zm0,9.05H84.61v4.53H71Zm-15.85,4.53H50.64V137.72h4.53ZM41.58,137.72h4.53v27.17H41.58Zm90.58,31.7v9.06H32.53v-9.06ZM28,237.35H18.94v-9H21.2a2.27,2.27,0,1,0,0-4.53H18.94v-4.53H21.2a2.27,2.27,0,1,0,0-4.53H18.94V146.78H21.2a2.27,2.27,0,1,0,0-4.53H18.94v-4.53H21.2a2.27,2.27,0,1,0,0-4.53H18.94V110.55H28Zm4.53-4.52v-9.06h99.63v9.06Zm104.16,4.52V110.55h9.06v43h-2.27a2.27,2.27,0,0,0,0,4.53h2.27v4.53h-2.27a2.27,2.27,0,0,0,0,4.53h2.27V221.5h-2.27a2.27,2.27,0,0,0,0,4.53h2.27v4.53h-2.27a2.27,2.27,0,0,0,0,4.53h2.27v2.26Z"/><path class="cls-1" d="M114.05,149.25h-4.53a2.27,2.27,0,1,0,0,4.53h4.53a2.27,2.27,0,0,0,0-4.53Z"/><path class="cls-1" d="M16.44,78.09V38.38A4.59,4.59,0,0,1,21,33.8H85.17a4.59,4.59,0,0,1,4.58,4.58v26h3v-26a7.64,7.64,0,0,0-7.63-7.63H74.47V26.16a7.64,7.64,0,0,0-7.63-7.63H39.35a7.64,7.64,0,0,0-7.64,7.63v4.59H21a7.64,7.64,0,0,0-7.64,7.63V78.09A7.65,7.65,0,0,0,21,85.73H59.2v-3H21A4.59,4.59,0,0,1,16.44,78.09ZM65.31,21.58h1.53a4.59,4.59,0,0,1,4.58,4.58v4.59H68.36V24.64h-3Zm0,9.17H40.87V27.69H65.31ZM43.93,21.58H62.26v3.06H43.93Zm-9.17,4.58a4.59,4.59,0,0,1,4.59-4.58h1.52v3.06h-3v6.11H34.76Z"/><path class="cls-1" d="M47,73.51H59.2V64.35h9.16V52.13H59.2V43H47v9.17H37.82V64.35H47ZM40.87,61.29V55.18H50V46h6.11v9.16h9.16v6.11H56.15v9.17H50V61.29Z"/><path class="cls-1" d="M82.11,46a4.59,4.59,0,0,0,4.58-4.58V36.86h-3v4.58A1.53,1.53,0,0,1,82.11,43H77.53A1.53,1.53,0,0,1,76,41.44V36.86H73v4.58A4.59,4.59,0,0,0,77.53,46Z"/><path class="cls-1" d="M19.49,36.86v4.58A4.59,4.59,0,0,0,24.07,46h4.58a4.59,4.59,0,0,0,4.59-4.58V36.86H30.18v4.58A1.52,1.52,0,0,1,28.65,43H24.07a1.53,1.53,0,0,1-1.53-1.52V36.86Z"/><path class="cls-1" d="M39.18,70.15A18.31,18.31,0,0,1,65,44.33L67,42A21.36,21.36,0,0,0,36.87,72.14Z"/><path class="cls-1" d="M74.47,58.24a21.42,21.42,0,0,0-5.15-13.91l-2.32,2A18.31,18.31,0,0,1,41.18,72.15l-2,2.31A21.36,21.36,0,0,0,74.47,58.24Z"/><path class="cls-1" d="M104.57,92.29l-2.16,2.16,2,2a2.17,2.17,0,0,1,0,3.06l-10.06,10a2.21,2.21,0,0,1-3.06,0l-2-2-2.16,2.16,2,2a5.2,5.2,0,0,0,7.37,0l10.06-10a5.21,5.21,0,0,0,0-7.38Z"/><path class="cls-1" d="M108.08,82.68A5.19,5.19,0,0,0,106.55,79L96.49,68.93a5.33,5.33,0,0,0-7.37,0l-4,3.95-4-3.95a5.35,5.35,0,0,0-7.38,0L63.78,79a5.23,5.23,0,0,0,0,7.37l4,4-4,4a5.24,5.24,0,0,0,0,7.38l10.06,10a5.21,5.21,0,0,0,7.38,0l25.33-25.33A5.18,5.18,0,0,0,108.08,82.68ZM65.94,84.2a2.16,2.16,0,0,1,0-3L76,71.09a2.21,2.21,0,0,1,3.06,0l4,4L69.89,88.15Zm38.45,0L79.06,109.53a2.21,2.21,0,0,1-3.06,0l-10.06-10a2.17,2.17,0,0,1,0-3.06L91.27,71.09a2.17,2.17,0,0,1,3.06,0l10.06,10.06a2.16,2.16,0,0,1,0,3Z"/><rect class="cls-1" x="86.69" y="79.62" width="3.05" height="3.05"/><rect class="cls-1" x="80.58" y="85.73" width="3.05" height="3.05"/><rect class="cls-1" x="86.69" y="85.73" width="3.05" height="3.05"/><rect class="cls-1" x="92.8" y="85.73" width="3.05" height="3.05"/><rect class="cls-1" x="74.47" y="91.84" width="3.05" height="3.05"/><rect class="cls-1" x="80.58" y="91.84" width="3.05" height="3.05"/><rect class="cls-1" x="86.69" y="91.84" width="3.05" height="3.05"/><rect class="cls-1" x="80.58" y="97.95" width="3.05" height="3.05"/></g></g></svg>