<svg xmlns="http://www.w3.org/2000/svg" viewBox="0 0 181.37 255.02"><defs><style>.cls-1{fill:#3d5da6;}</style></defs><title>SalonesRecomendacion 3@1x</title><g id="Capa_2" data-name="Capa 2"><g id="Capa_1-2" data-name="Capa 1"><path class="cls-1" d="M18.14,227.81h9.07v9.07H18.14Z"/><path class="cls-1" d="M36.27,227.81h9.07v9.07H36.27Z"/><path class="cls-1" d="M54.41,227.81h9.07v9.07H54.41Z"/><polygon class="cls-1" points="172.3 95.24 172.3 101.99 172.3 245.95 9.07 245.95 9.07 101.99 9.07 23.77 9.07 14.71 0 14.71 0 255.02 181.37 255.02 181.37 95.24 172.3 95.24"/><polygon class="cls-1" points="40.95 141.8 37.24 141.8 37.24 149.71 22.43 149.71 22.43 133.89 33.54 133.89 33.54 129.94 18.73 129.94 18.73 153.67 40.95 153.67 40.95 141.8"/><polygon class="cls-1" points="27.44 138.43 24.82 141.22 29.84 146.58 49.66 125.4 47.04 122.61 29.84 140.98 27.44 138.43"/><polygon class="cls-1" points="40.95 170.82 37.24 170.82 37.24 178.73 22.43 178.73 22.43 162.91 33.54 162.91 33.54 158.96 18.73 158.96 18.73 182.69 40.95 182.69 40.95 170.82"/><polygon class="cls-1" points="27.44 167.45 24.82 170.24 29.84 175.6 49.66 154.42 47.04 151.63 29.84 170 27.44 167.45"/><polygon class="cls-1" points="40.95 201.05 37.24 201.05 37.24 208.96 22.43 208.96 22.43 193.14 33.54 193.14 33.54 189.18 18.73 189.18 18.73 212.91 40.95 212.91 40.95 201.05"/><polygon class="cls-1" points="27.44 197.67 24.82 200.47 29.84 205.82 49.66 184.65 47.04 181.85 29.84 200.23 27.44 197.67"/><path class="cls-1" d="M152.47,45.64a6.53,6.53,0,0,0-6.53,6.53h-23l-8.58-8.83V19.6a8.34,8.34,0,0,0-16.67,0v7.07L73.18,2.16a7.79,7.79,0,0,0-10.77,0,7.55,7.55,0,0,0-2.24,5.38v.08a7.62,7.62,0,0,0-7.69,7.55v.15A7.71,7.71,0,0,0,47,17.55,7.62,7.62,0,0,0,44.78,23a7.93,7.93,0,0,0-5.47,2.23,7.61,7.61,0,0,0,0,10.76L55.23,52.17H36a7.62,7.62,0,0,0-5.32,13.07A7.59,7.59,0,0,0,30.54,76a.8.8,0,0,0,.13.13,7.6,7.6,0,0,0-.13,10.76l.13.13A7.62,7.62,0,0,0,36,100.07H70.64l-5,5a8.34,8.34,0,0,0,11.79,11.79l16.77-16.78h8.19v0L114,111.85l-.06.05a6.53,6.53,0,0,0,9.24,9.24l22.72-22.72v1.65a6.53,6.53,0,0,0,13.06,0V52.17A6.53,6.53,0,0,0,152.47,45.64Zm-6.53,10.89V75.85L127.16,56.53ZM93.31,95.72a2.19,2.19,0,0,0-1.54.64L74.36,113.77a4,4,0,0,1-5.63-5.63l8.71-8.71a2.17,2.17,0,0,0-1.54-3.71H36a3.27,3.27,0,0,1,0-6.53H61V84.83H36a3.27,3.27,0,0,1,0-6.53H61V74H36a3.27,3.27,0,0,1,0-6.54H61V63.06H36a3.27,3.27,0,0,1,0-6.53H59.52L98.14,95.72ZM42.39,32.94A3.26,3.26,0,0,1,47,28.33L64.71,46,67.79,43l-17.7-17.7a3.27,3.27,0,0,1,4.63-4.62l17.7,17.7,3.08-3.08L57.79,17.56a3.28,3.28,0,0,1,0-4.62,3.35,3.35,0,0,1,4.62,0l17.7,17.7,3.08-3.08L65.49,9.86a3.26,3.26,0,0,1,0-4.62,3.34,3.34,0,0,1,4.61,0L98.32,33.45A2.18,2.18,0,0,0,102,31.91V19.6a4,4,0,1,1,8,0h0V44.23a2.16,2.16,0,0,0,.61,1.52L144.88,81l-27.76,27.76Zm77.75,85.13a2.24,2.24,0,0,1-3.08,0,2.18,2.18,0,0,1,0-3.08h0l33.87-33.87A2.17,2.17,0,0,1,154,84.19Zm34.51-18a2.18,2.18,0,0,1-4.36,0v-6l4.36-4.36Zm0-23.55a6.52,6.52,0,0,0-4.36,0V52.17a2.18,2.18,0,0,1,4.36,0Z"/><path class="cls-1" d="M138.84,164.18a1.62,1.62,0,0,0-3.24,0V169c0,14.78,3.45,21.5,3.58,21.74.71,1.42,1.86,4.86.92,6.38-.41.65-1.32,1-2.71,1h-13.1a1.62,1.62,0,0,0,0,3.24h13.1c3.22,0,4.75-1.37,5.46-2.53,2.14-3.46-.47-8.9-.79-9.54,0-.06-3.22-6.4-3.22-20.27v-4.85Z"/><path class="cls-1" d="M83.87,164.18a1.62,1.62,0,0,0-3.24,0c0,6.94,5.1,20.27,6.64,23.36,2,3.94,10.58,13.83,19.23,13.83s17.27-9.89,19.23-13.83c1.55-3.09,6.64-16.42,6.64-23.36a1.62,1.62,0,0,0-3.23,0c0,3.67-1.68,9.63-3.38,14.53-3.15-.09-12.33-.56-18.66-3.09a1.56,1.56,0,0,0-1.2,0c-6.33,2.53-15.53,3-18.66,3.09C85.55,173.81,83.87,167.85,83.87,164.18Zm22.63,14.67c6.17,2.3,14.21,2.9,18.1,3.06-.7,1.84-1.34,3.34-1.76,4.18-1.45,2.91-9.12,12-16.34,12s-14.88-9.13-16.33-12c-.43-.84-1.06-2.34-1.77-4.18C92.27,181.76,100.33,181.16,106.5,178.85Z"/><path class="cls-1" d="M98.42,172.27a1.63,1.63,0,0,0,1.62-1.62v-1.06l.18.19a1.62,1.62,0,0,0,1.43.87,1.69,1.69,0,0,0,.75-.18,1.62,1.62,0,0,0,.69-2.18,5.62,5.62,0,0,0-9.34,0,1.58,1.58,0,0,0,.66,2.12,1.63,1.63,0,0,0,2.19-.59,1.94,1.94,0,0,1,.2-.22v1.05A1.63,1.63,0,0,0,98.42,172.27Z"/><path class="cls-1" d="M114.59,172.27a1.62,1.62,0,0,0,1.61-1.62v-1.06a1.07,1.07,0,0,1,.18.19,1.64,1.64,0,0,0,1.44.87,1.69,1.69,0,0,0,.75-.18,1.61,1.61,0,0,0,.68-2.18,5.61,5.61,0,0,0-9.33,0,1.58,1.58,0,0,0,.65,2.12,1.63,1.63,0,0,0,2.19-.59l.21-.22v1.05A1.62,1.62,0,0,0,114.59,172.27Z"/><path class="cls-1" d="M154.92,221.87c-.14-.43-3.72-10.63-20.62-14a1.61,1.61,0,0,0-1.88,1.19l-2.93,11.71h-46l-2.92-11.71a1.61,1.61,0,0,0-1.89-1.19c-16.89,3.37-20.47,13.57-20.62,14a1.62,1.62,0,0,0,3.07,1c.12-.35,3-8.31,16.68-11.54l2.85,11.41A1.62,1.62,0,0,0,82.25,224h48.5a1.62,1.62,0,0,0,1.57-1.22l2.85-11.41c13.64,3.23,16.57,11.19,16.68,11.53a1.63,1.63,0,0,0,1.54,1.1,1.55,1.55,0,0,0,.51-.08A1.63,1.63,0,0,0,154.92,221.87Z"/><path class="cls-1" d="M83.92,208.23a1.61,1.61,0,0,0,2,1.17l5.4-1.35c2,2.58,7.87,9.49,15.22,9.49s13.27-6.91,15.22-9.49l5.41,1.35a1.61,1.61,0,1,0,.78-3.13l-6.47-1.62a1.61,1.61,0,0,0-1.73.67c-.06.09-6.1,9-13.21,9s-13.14-8.89-13.2-9a1.63,1.63,0,0,0-1.74-.67l-6.47,1.62A1.61,1.61,0,0,0,83.92,208.23Z"/><path class="cls-1" d="M75.61,201.37H88.72a1.62,1.62,0,0,0,0-3.24H75.61c-1.39,0-2.3-.33-2.7-1-1-1.52.21-5,1-6.47.14-.34,3.53-8.54,3.53-21.65v-4.85a1.62,1.62,0,0,0-3.23,0V169c0,12.4-3.24,20.3-3.24,20.3-.3.61-2.91,6-.77,9.51C70.87,200,72.39,201.37,75.61,201.37Z"/><path class="cls-1" d="M75.78,159.33h61.44a1.62,1.62,0,0,0,1.62-1.61V141.55c0-8.84-5.08-14.55-12.94-14.55H88.72a14.22,14.22,0,0,0-14.55,14.55v16.17A1.61,1.61,0,0,0,75.78,159.33Zm1.62-17.78a11,11,0,0,1,11.32-11.32H125.9c7.15,0,9.7,5.85,9.7,11.32V156.1H77.4Z"/></g></g></svg>