<svg xmlns="http://www.w3.org/2000/svg" viewBox="0 0 190.43 253.47"><defs><style>.cls-1{fill:#3d5da6;}</style></defs><title>SalonesRecomendacion 4@1x</title><g id="Capa_2" data-name="Capa 2"><g id="Capa_1-2" data-name="Capa 1"><polygon class="cls-1" points="16.16 159.78 16.16 153.03 16.16 9.07 179.39 9.07 179.39 153.03 179.39 231.25 179.39 240.31 188.46 240.31 188.46 0 7.09 0 7.09 159.78 16.16 159.78"/><path class="cls-1" d="M124.05,56.61A1.51,1.51,0,0,0,123,54.79l-8.73-2.19a1.5,1.5,0,0,0-.73,2.91l8.73,2.19A1.49,1.49,0,0,0,124.05,56.61Z"/><path class="cls-1" d="M122.58,62.43a1.49,1.49,0,0,0-1.09-1.82l-8.72-2.19a1.5,1.5,0,0,0-.74,2.91l8.73,2.19A1.49,1.49,0,0,0,122.58,62.43Z"/><path class="cls-1" d="M121.12,68.25A1.5,1.5,0,0,0,120,66.43l-8.73-2.19a1.5,1.5,0,0,0-.73,2.91l8.73,2.19A1.49,1.49,0,0,0,121.12,68.25Z"/><path class="cls-1" d="M42.79,63.31l-10.43,32v.05l0,0-.73,2.91a4.51,4.51,0,0,0,3.27,5.46l1.46.36-1.1,4.37a1.51,1.51,0,0,0,1.09,1.82L45,112.56a1.51,1.51,0,0,0,1.82-1.09l1.1-4.36,1.45.36a4.49,4.49,0,0,0,5.46-3.27l.76-3L61.56,68A22.51,22.51,0,0,0,67,66.19v0l.14-.08,27,4.62,8.2,3.58.23.08a1.5,1.5,0,0,0,1.82-1.09l7.31-29.1a1.48,1.48,0,0,0-.24-1.24,1.47,1.47,0,0,0-1.1-.62l-8.91-.72-26-8.7-.1-.15,0,0A22.48,22.48,0,1,0,42.79,63.31Zm59.11,7.57-5.57-2.43,6-23.72,6.07.49ZM93.45,67.6,70.91,63.75a22.44,22.44,0,0,0,6.75-26.89l21.69,7.25ZM39.23,104.91l5.82,1.46-.73,2.91-5.82-1.46Zm-4.36-7.28L52.33,102,52,103.47a1.5,1.5,0,0,1-1.82,1.09l-14.55-3.65a1.51,1.51,0,0,1-1.09-1.82ZM45.34,65.16a22.13,22.13,0,0,0,13.1,3.27l-3.1,17.33L52,84.92a1.5,1.5,0,1,0-.73,2.91l3.56.89-.53,3-11-2.77a1.5,1.5,0,0,0-.73,2.91l11.24,2.82L53,99.08,35.7,94.75Zm-7.7-20.37A19.48,19.48,0,1,1,52.37,64.91,19.49,19.49,0,0,1,37.64,44.79Z"/><path class="cls-1" d="M41.11,42a16.5,16.5,0,1,0,20-12A16.5,16.5,0,0,0,41.11,42Zm3.3,8.56,8,2a1.5,1.5,0,1,0,.73-2.91l-8.73-2.19a1.27,1.27,0,0,0-.67,0,13.67,13.67,0,0,1,0-3.26l5.73,1.44a1.5,1.5,0,0,0,.74-2.91l-5.74-1.44a13.66,13.66,0,0,1,1.41-2.74l8,2a1.5,1.5,0,1,0,.73-2.91L48.06,36a13.49,13.49,0,0,1,21.76,5.46l-2.15-.54a1.5,1.5,0,0,0-.73,2.91l3.6.91a13.81,13.81,0,0,1-.05,3.08L56,44.17a1.5,1.5,0,0,0-.73,2.91l14.47,3.64a13.88,13.88,0,0,1-1.51,2.88,1.48,1.48,0,0,0-.59-.32l-8.73-2.19A1.5,1.5,0,0,0,58.2,54l8,2a13.49,13.49,0,0,1-21.76-5.46Z"/><path class="cls-1" d="M58.58,40.17A1.49,1.49,0,0,0,59.67,42l1.45.37a1.5,1.5,0,1,0,.73-2.91l-1.45-.37A1.5,1.5,0,0,0,58.58,40.17Z"/><path class="cls-1" d="M42.83,211.46a4,4,0,0,0,5-5.57A4.12,4.12,0,0,0,42.4,204a4,4,0,0,0,.43,7.44Zm.74-5a1.33,1.33,0,0,1,1.79.62,1.35,1.35,0,0,1-.62,1.8,1.38,1.38,0,0,1-1.8-.63A1.34,1.34,0,0,1,43.57,206.44Z"/><path class="cls-1" d="M64.24,199a1.41,1.41,0,0,0,1-.06l15.4-7.46a1.34,1.34,0,0,0,.61-1.78A1.36,1.36,0,0,0,79.5,189L64.1,196.5a1.35,1.35,0,0,0-.76,1.29A1.36,1.36,0,0,0,64.24,199Z"/><path class="cls-1" d="M55.69,203.12a1.36,1.36,0,0,0,1-.06l3.42-1.66A1.34,1.34,0,0,0,59,199l-3.43,1.66a1.35,1.35,0,0,0,.15,2.48Z"/><path class="cls-1" d="M12.52,220.84a5.38,5.38,0,1,0,3.32,6.85A5.38,5.38,0,0,0,12.52,220.84Zm-2.65,7.62a2.69,2.69,0,1,1,3.43-1.66A2.68,2.68,0,0,1,9.87,228.46Z"/><path class="cls-1" d="M57.29,247.79A5.37,5.37,0,1,0,54,241,5.36,5.36,0,0,0,57.29,247.79Zm2.65-7.62a2.69,2.69,0,1,1-3.43,1.66A2.7,2.7,0,0,1,59.94,240.17Z"/><path class="cls-1" d="M79.21,225.53a5.39,5.39,0,0,1-3.32-6.85,1.34,1.34,0,0,0-.82-1.71,1.36,1.36,0,0,0-1.72.83,5.36,5.36,0,0,1-6.84,3.31,1.34,1.34,0,0,0-.88,2.54,5.38,5.38,0,0,1,3.31,6.85,1.34,1.34,0,1,0,2.54.88,5.37,5.37,0,0,1,6.84-3.31,1.35,1.35,0,1,0,.89-2.54Zm-7.54,1.21a8.13,8.13,0,0,0-1.4-2.9,7.85,7.85,0,0,0,2.89-1.4,8.22,8.22,0,0,0,1.4,2.9A8.08,8.08,0,0,0,71.67,226.74Z"/><path class="cls-1" d="M10,187.23a5.37,5.37,0,0,1,3.31,6.84,1.34,1.34,0,1,0,2.54.88,5.39,5.39,0,0,1,6.85-3.31,1.34,1.34,0,1,0,.88-2.54,5.36,5.36,0,0,1-3.31-6.84,1.35,1.35,0,0,0-2.54-.89,5.39,5.39,0,0,1-6.85,3.32,1.34,1.34,0,0,0-1.71.82A1.36,1.36,0,0,0,10,187.23ZM17.52,186a8,8,0,0,0,1.4,2.89,8,8,0,0,0-2.9,1.4,8,8,0,0,0-1.4-2.89A8.3,8.3,0,0,0,17.52,186Z"/><path class="cls-1" d="M35.29,209.39l-17.45,8.44a10.75,10.75,0,1,0,3.07,11.62,9.83,9.83,0,0,0,.46-1.87l19-8.91,9.34,18.76a11.49,11.49,0,0,0-.8,1.75,10.76,10.76,0,1,0,13.69-6.62,10.37,10.37,0,0,0-4.06-.58l-8.44-17.43,33.65-19.29c8-5,5.47-15.34,5.44-15.45a1.35,1.35,0,0,0-.71-.87,1.37,1.37,0,0,0-1.14,0L48.2,196.11l-20-37.75a1.34,1.34,0,0,0-2-.45c-.09.07-8.47,6.55-5.29,15.54ZM19.55,225.47a1.35,1.35,0,0,0-.76,1.11,8.12,8.12,0,1,1-2.19-6.2,1.36,1.36,0,0,0,1.57.28l18.12-8.77a9.41,9.41,0,0,0,2,2.59l.89,1.78Zm38.36,9.27a7.88,7.88,0,0,1,3.79.36,8.11,8.11,0,1,1-9.35,3.15,1.32,1.32,0,0,0,.08-1.34L42.27,216.5a9.13,9.13,0,0,0,5.45-.67L56.51,234A1.34,1.34,0,0,0,57.91,234.74Zm28.92-52.66c.27,2.64.16,7.95-4.49,10.87L46.88,213.28A6.26,6.26,0,0,1,41.38,202Zm-60.22-21,19.13,36.05-5.49,2.41a9,9,0,0,0-4.3,4.2L23.4,172.5C21.54,167.23,24.74,163,26.61,161.13Z"/><path class="cls-1" d="M183,131.76H163.29a7.15,7.15,0,0,0-2.46.46V119.43a27.18,27.18,0,0,0-27.14-27.14h-14.8a27.17,27.17,0,0,0-27.13,27.14v12.79a7.21,7.21,0,0,0-2.47-.46H69.56a7.4,7.4,0,0,0,0,14.8H72v19.73a9.86,9.86,0,0,0,9.86,9.87h9.87v7.4a7.4,7.4,0,0,0,7.4,7.4h19.73v34.53h-9.56a12.33,12.33,0,0,0-12,9.35l-.59,2.39a2.45,2.45,0,0,0,2.39,3.06h54.27a2.46,2.46,0,0,0,2.39-3.06l-.6-2.39a12.32,12.32,0,0,0-12-9.35h-9.56v-7.4H151a2.47,2.47,0,0,0,2.47-2.46v-9.87a2.48,2.48,0,0,0-2.47-2.47H133.69V191h19.74a7.4,7.4,0,0,0,7.4-7.4v-7.4h9.86a9.87,9.87,0,0,0,9.87-9.87V146.56H183a7.4,7.4,0,0,0,0-14.8Zm-96.2,14.8h2.46a7.44,7.44,0,0,0,2.47-.45v15.25H86.83Zm9.86,14.8h59.2v4.93H96.69Zm64.14-15.25a7.38,7.38,0,0,0,2.46.45h2.47v14.8h-4.93ZM138.63,97.8a22.39,22.39,0,0,1,5,1.8,1.4,1.4,0,0,0-.06.28v34.35h-4.93Zm-4.94-.57v44.4h-14.8V97.23ZM109,99.57A22,22,0,0,1,114,97.8v36.43H109ZM96.69,119.43a22.16,22.16,0,0,1,7.4-16.5v33.76a2.47,2.47,0,0,0,2.47,2.47H114v4.93a2.46,2.46,0,0,0,2.47,2.47h19.73a2.47,2.47,0,0,0,2.47-2.47v-4.93H146a2.46,2.46,0,0,0,2.46-2.47V102.93a22.09,22.09,0,0,1,7.4,16.5v37H96.69Zm-29.6,19.73a2.48,2.48,0,0,1,2.47-2.47H89.29a2.47,2.47,0,1,1,0,4.94H69.56A2.48,2.48,0,0,1,67.09,139.16Zm14.8,32.07A4.94,4.94,0,0,1,77,166.29V146.56h4.93v17.27a2.47,2.47,0,0,0,2.47,2.46h7.4v4.94Zm68.34,64.13H102.35a7.4,7.4,0,0,1,7-4.93h33.92A7.39,7.39,0,0,1,150.23,235.36Zm-1.74-27.13v4.93h-14.8v-4.93Zm-19.73,17.26h-4.93V191h4.93ZM153.43,186H99.16a2.48,2.48,0,0,1-2.47-2.47v-2.47h37a2.47,2.47,0,1,0,0-4.93h-37v-4.93h59.2v4.93H143.56a2.47,2.47,0,1,0,0,4.93h12.33v2.47A2.47,2.47,0,0,1,153.43,186Zm22.2-19.74a4.94,4.94,0,0,1-4.94,4.94h-9.86v-4.94h7.4a2.46,2.46,0,0,0,2.46-2.46V146.56h4.94Zm7.4-24.66H163.29a2.47,2.47,0,0,1,0-4.94H183a2.47,2.47,0,0,1,0,4.94Z"/><polygon class="cls-1" points="164.36 27.92 160.65 27.92 160.65 35.18 145.8 35.18 145.8 20.66 156.94 20.66 156.94 17.03 142.09 17.03 142.09 38.81 164.36 38.81 164.36 27.92"/><polygon class="cls-1" points="150.83 24.82 148.2 27.39 153.23 32.3 173.09 12.86 170.47 10.29 153.23 27.17 150.83 24.82"/><polygon class="cls-1" points="164.36 54.56 160.65 54.56 160.65 61.83 145.8 61.83 145.8 47.3 156.94 47.3 156.94 43.67 142.09 43.67 142.09 65.46 164.36 65.46 164.36 54.56"/><polygon class="cls-1" points="150.83 51.46 148.2 54.03 153.23 58.95 173.09 39.51 170.47 36.94 153.23 53.81 150.83 51.46"/><polygon class="cls-1" points="164.36 82.32 160.65 82.32 160.65 89.58 145.8 89.58 145.8 75.05 156.94 75.05 156.94 71.42 142.09 71.42 142.09 93.21 164.36 93.21 164.36 82.32"/><polygon class="cls-1" points="150.83 79.22 148.2 81.78 153.23 86.7 173.09 67.26 170.47 64.69 153.23 81.56 150.83 79.22"/></g></g></svg>