<svg width="205" height="99" xmlns="http://www.w3.org/2000/svg">
 <defs>
  <style>.cls-1{fill:#fff;}</style>
 </defs>
 <title>Mesa de trabajo 6</title>
 <g>
  <title>background</title>
  <rect fill="none" id="canvas_background" height="402" width="582" y="-1" x="-1"/>
 </g>
 <g>
  <title>Layer 1</title>
  <path id="svg_1" d="m100.2,59.78a5.88,5.88 0 0 0 -5.9,-5.85l-7.1,0l0,18.68l7.72,0a5.84,5.84 0 0 0 4.39,-9.76a5.72,5.72 0 0 0 0.89,-3.07m-8.2,-1.78l2.3,0a1.79,1.79 0 1 1 0,3.57l-2.3,0l0,-3.57zm3,14.12l-3,0l0,-7.12l3,0a1.79,1.79 0 1 1 0,3.58" class="cls-1"/>
  <path id="svg_2" d="m111,53.58a9.78,9.78 0 1 0 9.43,9.77a9.62,9.62 0 0 0 -9.43,-9.77m0,14.47a4.71,4.71 0 1 1 4.36,-4.7a4.55,4.55 0 0 1 -4.36,4.7" class="cls-1"/>
  <path id="svg_3" d="m132,66.22l2.22,0l0,1a5.33,5.33 0 0 1 -2.79,0.8a4.7,4.7 0 1 1 0,-9.39a5.1,5.1 0 0 1 3.57,1.37l0.5,0.45l3.43,-3.74l-0.5,-0.45a10.18,10.18 0 0 0 -6.91,-2.67a9.77,9.77 0 1 0 0,19.54a10.49,10.49 0 0 0 2.79,-0.38l0,0l5.08,0l0,-11.6l-7.39,0l0,5.07z" class="cls-1"/>
  <polygon id="svg_4" points="165.39 59.41 165.39 72.78 171.41 72.78 171.41 59.41 177.09 59.41 177.09 53.67 159.68 53.67 159.68 59.41 165.39 59.41" class="cls-1"/>
  <polygon id="svg_5" points="203.75 80.79 192.23 50.15 181.89 50.15 173.42 72.74 179.69 72.74 187.05 54.15 197.48 80.79 203.75 80.79" class="cls-1"/>
  <path id="svg_6" d="m158.22,58.74l0,0a9.42,9.42 0 0 0 -8.31,-5.14a9.78,9.78 0 1 0 9.44,9.77a10.06,10.06 0 0 0 -1.12,-4.61m-8.32,9.31a4.71,4.71 0 1 1 4.36,-4.7a4.55,4.55 0 0 1 -4.36,4.7" class="cls-1"/>
  <polygon id="svg_7" points="194.87 40.22 200.51 37.91 193 35.22 188.18 22.33 183.19 31.82 173 29.73 180.19 37.51 176.68 46.94 189.34 42.4 198.57 50.15 194.87 40.22" class="cls-1"/>
  <polygon id="svg_8" points="173.81 40.73 176.12 39.24 173.35 38.65 172.56 35.89 171.45 38.24 167.26 37.35 170.54 40.74 169.53 43.47 172.48 41.58 174.76 43.42 173.81 40.73" class="cls-1"/>
  <polygon id="svg_9" points="198.81 26.73 201.22 25.18 198.33 24.57 197.5 21.68 196.1 24.09 191.97 23.21 195.39 26.74 194.34 29.6 197.42 27.62 199.8 29.55 198.81 26.73" class="cls-1"/>
  <rect id="svg_10" height="65.05" width="0.77" y="16.97" x="73.03" class="cls-1"/>
  <path id="svg_11" d="m4.47,66.46l-0.7,-1.88l-0.69,1.88l1.39,0zm0.52,2l0.26,0l-0.44,-1.16l-2,0l-0.42,1.16l-1.14,0l2,-5.11l1.08,0l0.66,5.11z" class="cls-1"/>
  <polygon id="svg_12" points="6.65 68.49 6.65 63.43 7.68 63.43 7.68 67.62 10.24 67.62 10.24 68.49 6.65 68.49" class="cls-1"/>
  <path id="svg_13" d="m14,66.6l1,0.32a2.36,2.36 0 0 1 -0.76,1.25a2.21,2.21 0 0 1 -1.36,0.4a2.22,2.22 0 0 1 -1.68,-0.69a2.64,2.64 0 0 1 -0.7,-1.88a2.76,2.76 0 0 1 0.66,-2a2.25,2.25 0 0 1 1.73,-0.7a2.13,2.13 0 0 1 1.53,0.55a2.22,2.22 0 0 1 0.52,0.94l-1,0.25a1,1 0 0 0 -0.37,-0.63a1.06,1.06 0 0 0 -0.7,-0.23a1.19,1.19 0 0 0 -0.93,0.41a2,2 0 0 0 -0.35,1.31a2.14,2.14 0 0 0 0.35,1.38a1.11,1.11 0 0 0 0.91,0.41a1,1 0 0 0 0.7,-0.26a1.52,1.52 0 0 0 0.45,-0.83" class="cls-1"/>
  <path id="svg_14" d="m18.24,66.46l-0.7,-1.88l-0.69,1.88l1.39,0zm0.51,2l0.25,0l-0.45,-1.16l-2,0l-0.42,1.16l-1.13,0l2,-5.11l1.09,0l0.66,5.11z" class="cls-1"/>
  <polygon id="svg_15" points="20.41 68.49 20.41 63.43 21.45 63.43 21.45 67.62 24.01 67.62 24.01 68.49 20.41 68.49" class="cls-1"/>
  <path id="svg_16" d="m25.47,64.25l0,3.37l0.77,0a2.32,2.32 0 0 0 0.62,-0.05a0.84,0.84 0 0 0 0.42,-0.21a1.07,1.07 0 0 0 0.27,-0.49a3.28,3.28 0 0 0 0.11,-0.93a3,3 0 0 0 -0.11,-0.91a1.22,1.22 0 0 0 -0.29,-0.5a1.1,1.1 0 0 0 -0.47,-0.24a7,7 0 0 0 -0.85,0l-0.47,-0.04zm-0.53,-0.83l1.88,0a3.54,3.54 0 0 1 1,0.1a1.81,1.81 0 0 1 0.77,0.47a2.43,2.43 0 0 1 0.49,0.83a3.79,3.79 0 0 1 0.16,1.2a3.5,3.5 0 0 1 -0.15,1.09a2.29,2.29 0 0 1 -1.09,0.89a1.66,1.66 0 0 1 -0.73,0.41a3.13,3.13 0 0 1 -0.91,0.11l-1.92,0l0.5,-5.1z" class="cls-1"/>
  <path id="svg_17" d="m29.27,63.38l1,0l0,5.11l-1,0l0,-5.11zm0.25,4.64l0.48,-1l1.1,0l-1,1l-0.58,0z" class="cls-1"/>
  <path id="svg_18" d="m33.69,66.46l-0.69,-1.88l-0.68,1.88l1.37,0zm0.53,2l0.25,0l-0.47,-1.13l-2,0l-0.42,1.16l-1.1,0l2,-5.11l1.1,0l0.64,5.08z" class="cls-1"/>
  <polygon id="svg_19" points="37.24 68.49 37.24 63.38 38.78 63.38 39.7 66.87 40.62 63.38 42.17 63.38 42.17 68.49 41.21 68.49 41.21 64.47 40.19 68.49 39.2 68.49 38.2 64.47 38.19 68.49 37.24 68.49" class="cls-1"/>
  <path id="svg_20" d="m45.61,66.46l-0.71,-1.88l-0.69,1.88l1.4,0zm0.49,2l0.28,0l-0.44,-1.16l-2,0l-0.42,1.16l-1.1,0l2,-5.11l1.1,0l0.58,5.11z" class="cls-1"/>
  <polygon id="svg_21" points="48.43 68.49 48.43 66.34 46.56 63.38 47.77 63.38 48.98 65.41 50.16 63.38 51.34 63.38 49.47 66.35 49.47 68.49 48.43 68.49" class="cls-1"/>
  <path id="svg_22" d="m52.41,65.94a1.9,1.9 0 0 0 0.4,1.31a1.38,1.38 0 0 0 2,0a2.43,2.43 0 0 0 0,-2.64a1.3,1.3 0 0 0 -1,-0.43a1.35,1.35 0 0 0 -1,0.44a2,2 0 0 0 -0.38,1.32m-1.07,0a3.34,3.34 0 0 1 0.23,-1.31a2.42,2.42 0 0 1 0.48,-0.7a2,2 0 0 1 0.66,-0.46a2.92,2.92 0 0 1 1.1,-0.2a2.4,2.4 0 0 1 1.81,0.7a3.14,3.14 0 0 1 0,3.88a2.38,2.38 0 0 1 -1.79,0.69a2.42,2.42 0 0 1 -1.85,-0.66a2.66,2.66 0 0 1 -0.66,-1.88" class="cls-1"/>
  <path id="svg_23" d="m57.84,65.54l0.76,0a4,4 0 0 0 0.92,-0.06a0.55,0.55 0 0 0 0.3,-0.22a0.65,0.65 0 0 0 0.1,-0.38a0.58,0.58 0 0 0 -0.53,-0.61c-0.07,0 -0.33,0 -0.74,0l-0.81,0l0,1.27zm-1,1.68l0,-3.84l2.16,0a3.7,3.7 0 0 1 1.19,0.14a1.2,1.2 0 0 1 0.6,0.49a1.47,1.47 0 0 1 0.22,0.81a1.41,1.41 0 0 1 -0.33,1a1.71,1.71 0 0 1 -1,0.47a2.24,2.24 0 0 1 0.55,0.43a4.58,4.58 0 0 1 0.58,0.82l0.63,1l-1.28,0l-0.74,-1.11a7,7 0 0 0 -0.54,-0.75a0.89,0.89 0 0 0 -0.31,-0.22a2.21,2.21 0 0 0 -0.52,0l-0.21,0l0,2.13l-1,-1.37z" class="cls-1"/>
  <rect id="svg_24" height="0.96" width="0.96" y="75.78" x="50.75" class="cls-1"/>
  <path id="svg_25" d="m5.53,72.56l0,3.32l0.77,0a2.87,2.87 0 0 0 0.61,0a0.94,0.94 0 0 0 0.41,-0.21a1.12,1.12 0 0 0 0.26,-0.48a3.15,3.15 0 0 0 0.11,-0.92a2.93,2.93 0 0 0 -0.11,-0.89a1.09,1.09 0 0 0 -0.29,-0.48a0.92,0.92 0 0 0 -0.47,-0.24a4.63,4.63 0 0 0 -0.83,0l-0.46,-0.1zm-0.54,-0.75l1.38,0a3.79,3.79 0 0 1 1,0.1a1.81,1.81 0 0 1 0.76,0.46a2.13,2.13 0 0 1 0.47,0.82a3.64,3.64 0 0 1 0.17,1.18a3.73,3.73 0 0 1 -0.15,1.07a2.27,2.27 0 0 1 -0.54,0.88a1.69,1.69 0 0 1 -0.71,0.4a2.83,2.83 0 0 1 -0.9,0.11l-1.95,0l0.47,-5.02z" class="cls-1"/>
  <polygon id="svg_26" points="9.3 76.73 9.3 71.71 13.02 71.71 13.02 72.56 10.31 72.56 10.31 73.67 12.82 73.67 12.82 74.53 10.31 74.53 10.31 75.88 13.11 75.88 13.11 76.73 9.3 76.73" class="cls-1"/>
  <path id="svg_27" d="m16.35,74.54l0,1.34l0.93,0a4.76,4.76 0 0 0 0.7,0a0.61,0.61 0 0 0 0.37,-0.2a0.59,0.59 0 0 0 0.14,-0.42a0.61,0.61 0 0 0 -0.42,-0.62a3.4,3.4 0 0 0 -0.9,-0.07l-0.82,-0.03zm0.82,-1.97l0,1.13l1.4,0a0.65,0.65 0 0 0 0.4,-0.18a0.6,0.6 0 0 0 0,-0.77a0.54,0.54 0 0 0 -0.38,-0.17a7.63,7.63 0 0 0 -0.86,0l-0.56,-0.01zm-1,-0.84l2,0a6.26,6.26 0 0 1 0.89,0.05a1.3,1.3 0 0 1 0.91,0.63a1.14,1.14 0 0 1 0.15,0.58a1.13,1.13 0 0 1 -0.19,0.65a1.15,1.15 0 0 1 -0.51,0.44a1.35,1.35 0 0 1 0.7,0.46a1.16,1.16 0 0 1 0.25,0.76a1.51,1.51 0 0 1 -1.37,1.16a1.49,1.49 0 0 1 -0.69,0.24c-0.17,0 -0.57,0 -1.22,0l-1.76,0l0.84,-4.97z" class="cls-1"/>
  <path id="svg_28" d="m20.94,74.22a1.85,1.85 0 0 0 0.39,1.28a1.27,1.27 0 0 0 1,0.45a1.31,1.31 0 0 0 1,-0.44a2,2 0 0 0 0.38,-1.31a1.83,1.83 0 0 0 -0.38,-1.28a1.38,1.38 0 0 0 -2,0a1.84,1.84 0 0 0 -0.38,1.29m-1.05,0a3.22,3.22 0 0 1 0.22,-1.21a2.17,2.17 0 0 1 0.47,-0.69a1.77,1.77 0 0 1 0.65,-0.45a2.77,2.77 0 0 1 1.08,-0.2a2.33,2.33 0 0 1 1.77,0.69a2.59,2.59 0 0 1 0.67,1.91a2.63,2.63 0 0 1 -0.66,1.9a2.63,2.63 0 0 1 -3.55,0a2.58,2.58 0 0 1 -0.66,-1.88" class="cls-1"/>
  <path id="svg_29" d="m27.59,74.9l0,-0.9l2.19,0l0,2a3,3 0 0 1 -0.93,0.54a3.27,3.27 0 0 1 -1.22,0.24a2.63,2.63 0 0 1 -1.37,-0.34a2,2 0 0 1 -0.88,-0.94a3,3 0 0 1 -0.3,-1.33a3,3 0 0 1 0.33,-1.4a2.24,2.24 0 0 1 1,-0.93a2.49,2.49 0 0 1 1.2,-0.25a2.43,2.43 0 0 1 1.39,0.41a1.8,1.8 0 0 1 0.67,1.08l-1,0.2a1.08,1.08 0 0 0 -0.4,-0.59a1.23,1.23 0 0 0 -0.73,-0.21a1.39,1.39 0 0 0 -1.06,0.42a1.76,1.76 0 0 0 -0.39,1.24a1.92,1.92 0 0 0 0.4,1.34a1.31,1.31 0 0 0 1,0.45a1.76,1.76 0 0 0 0.63,-0.12a1.93,1.93 0 0 0 0.55,-0.31l0,-0.6l-1.08,0z" class="cls-1"/>
  <path id="svg_30" d="m31.26,74.22a1.85,1.85 0 0 0 0.39,1.28a1.27,1.27 0 0 0 1,0.45a1.31,1.31 0 0 0 1,-0.44a2.42,2.42 0 0 0 0,-2.59a1.33,1.33 0 0 0 -1,-0.43a1.27,1.27 0 0 0 -1,0.44a1.84,1.84 0 0 0 -0.38,1.29m-1.05,0a3.22,3.22 0 0 1 0.22,-1.22a2.17,2.17 0 0 1 0.47,-0.69a1.77,1.77 0 0 1 0.65,-0.45a2.77,2.77 0 0 1 1.08,-0.2a2.39,2.39 0 0 1 1.78,0.69a3.08,3.08 0 0 1 0,3.81a2.63,2.63 0 0 1 -3.55,0a2.58,2.58 0 0 1 -0.66,-1.88" class="cls-1"/>
  <polygon id="svg_31" points="36.71 76.73 36.71 72.56 35.22 72.56 35.22 71.71 39.21 71.71 39.21 72.56 37.73 72.56 37.73 76.73 36.71 76.73" class="cls-1"/>
  <path id="svg_32" d="m41.18,71.25l0.47,-1l1.08,0l-0.94,1l-0.61,0zm1.61,3.49l-0.7,-1.86l-0.67,1.86l1.37,0zm1.86,2l-1.65,0l-0.44,-1.14l-2,0l-0.42,1.14l-1.08,0l1.95,-5l1.08,0l2.56,5z" class="cls-1"/>
  <path id="svg_33" d="m47,72.56l0,3.32l0.76,0a2.87,2.87 0 0 0 0.61,0a0.94,0.94 0 0 0 0.41,-0.21a1.12,1.12 0 0 0 0.27,-0.48a3.68,3.68 0 0 0 0.09,-0.92a3.42,3.42 0 0 0 -0.09,-0.89a1.2,1.2 0 0 0 -0.3,-0.48a0.93,0.93 0 0 0 -0.46,-0.24a4.71,4.71 0 0 0 -0.83,0l-0.46,-0.1zm-0.54,-0.75l1.86,0a3.76,3.76 0 0 1 0.95,0.1a1.75,1.75 0 0 1 0.76,0.46a2.15,2.15 0 0 1 0.48,0.82a3.66,3.66 0 0 1 0.16,1.18a3.41,3.41 0 0 1 -0.67,0.97a2.27,2.27 0 0 1 -0.54,0.88a1.58,1.58 0 0 1 -0.71,0.4a2.83,2.83 0 0 1 -0.9,0.11l-1.85,0l0.46,-4.92z" class="cls-1"/>
  <path id="svg_34" d="m55.62,74.88l1,0.31a2.28,2.28 0 0 1 -0.74,1.23a2.22,2.22 0 0 1 -1.34,0.4a2.14,2.14 0 0 1 -1.64,-0.69a2.58,2.58 0 0 1 -0.65,-1.86a2.75,2.75 0 0 1 0.65,-2a2.22,2.22 0 0 1 1.7,-0.69a1.9,1.9 0 0 1 2,1.47l-1,0.24a1.12,1.12 0 0 0 -0.37,-0.62a1.07,1.07 0 0 0 -0.68,-0.22a1.13,1.13 0 0 0 -0.91,0.4a1.9,1.9 0 0 0 -0.35,1.29a2.07,2.07 0 0 0 0.34,1.35a1.11,1.11 0 0 0 0.89,0.41a1,1 0 0 0 0.7,-0.26a1.48,1.48 0 0 0 0.41,-0.81" class="cls-1"/>
  <rect id="svg_35" height="0.96" width="0.96" y="75.8" x="57.17" class="cls-1"/>
  <path id="svg_36" d="m21.38,41c0.09,0.13 0.6,-0.17 0.55,-0.31s-0.05,-0.83 0.41,-0.88l0,-0.17s-0.68,0 -0.82,0.44c0,0 -0.55,-0.57 -0.69,-0.53s0.14,0.83 0.14,0.83c-0.46,-0.08 -0.68,0.54 -0.68,0.54l0.09,0.08a0.66,0.66 0 0 1 1,0" class="cls-1"/>
  <path id="svg_37" d="m27,45.76a2.18,2.18 0 0 0 -0.51,1.54a1.76,1.76 0 0 0 1.37,-0.66a1.88,1.88 0 0 0 0.5,-1.5a2,2 0 0 0 -1.36,0.62" class="cls-1"/>
  <path id="svg_38" d="m41.43,40.42s0.28,-0.74 0.14,-0.83s-0.68,0.53 -0.68,0.53c-0.14,-0.44 -0.83,-0.44 -0.83,-0.44l0,0.17c0.46,0 0.55,0.66 0.41,0.88s0.46,0.44 0.55,0.31a0.67,0.67 0 0 1 1,0l0.09,-0.08s-0.22,-0.62 -0.69,-0.54" class="cls-1"/>
  <path id="svg_39" d="m35.45,45.76a2,2 0 0 0 -1.37,-0.62a1.85,1.85 0 0 0 0.51,1.5a1.75,1.75 0 0 0 1.41,0.66a2.12,2.12 0 0 0 -0.5,-1.54" class="cls-1"/>
  <path id="svg_40" d="m40.47,43c-0.54,0.79 -1.19,1 -1.59,0.71s-0.55,-0.88 0,-1.63s1.27,-1.19 1.68,-1s0.41,1.1 -0.09,1.89m-9.92,-14.26a0.42,0.42 0 0 1 -0.46,-0.39a0.43,0.43 0 0 1 0.46,-0.45a0.42,0.42 0 0 1 0.41,0.45a0.4,0.4 0 0 1 -0.41,0.39m-7,15c-0.41,0.26 -1.05,0.08 -1.6,-0.71s-0.5,-1.67 -0.09,-1.89s1.18,0.17 1.69,1s0.41,1.4 0,1.63m17.06,-2.74a2,2 0 0 0 -2.74,0.31a1.85,1.85 0 0 0 0.82,2.45c-0.67,0.05 -1.55,-0.87 -1.55,-0.87c-0.38,0.71 0.32,1.11 0.86,1.31l-0.21,0.16c-0.53,-0.13 -0.71,0.12 -0.71,0.12s-1.23,-1.27 -2.08,-2.14l0.75,-0.15c-0.55,-1.27 -2,-1.55 -3,-2.31c-0.75,-0.58 0.09,-0.84 0.29,-0.64a3,3 0 0 0 3.57,0.48a3.74,3.74 0 0 1 -2,-1.94a4.23,4.23 0 0 0 4.83,-0.21a3.93,3.93 0 0 1 -3.24,-1.42a5.45,5.45 0 0 0 4.8,-1.23a12.71,12.71 0 0 1 -3.65,-1c4.16,-0.13 4.53,-3.09 4.57,-3.09c-1.14,0.75 -4.2,0.4 -4.2,0.4c4.34,-1.54 4,-5.11 4,-5.11c-0.92,1.37 -5.12,2.69 -5.12,2.69a2.81,2.81 0 0 0 -2,2.55a1,1 0 0 1 -1,0.88c-1.12,0 -1.1,-1.61 -1.1,-2.38c0,-1.14 0,-2.46 -0.87,-2.46l-1.63,0c-0.3,0 -0.81,0 -1,0.22c-0.43,0.5 -0.36,1.8 -0.17,1.54a1.91,1.91 0 0 1 1.05,0c0.53,0.15 0.14,1.8 0.14,2.16a1,1 0 0 1 -1,0.92a1,1 0 0 1 -1,-0.88a2.81,2.81 0 0 0 -2,-2.55s-4.3,-1.32 -5.21,-2.69c0,0 -0.32,3.61 4.06,5.2c0,0 -3.1,0.26 -4.24,-0.49c0,0 0.59,3.09 4.75,3.22a13.75,13.75 0 0 1 -3.75,0.79a5.31,5.31 0 0 0 4.89,1.59a4.66,4.66 0 0 1 -3.52,1.14a4.25,4.25 0 0 0 4.85,0.3a3.61,3.61 0 0 1 -1.92,1.85a3.06,3.06 0 0 0 3.6,-0.48c0.24,-0.27 1,0 0.24,0.64c-1,0.79 -2.52,1 -3.16,2.31l0.77,0.15c-0.86,0.87 -2,2.11 -2.14,2.14s-0.17,-0.24 -0.65,-0.13c-0.07,-0.05 -0.13,-0.11 -0.2,-0.15c0.55,-0.2 1.25,-0.6 0.86,-1.31c0,0 -0.87,0.92 -1.54,0.87a1.85,1.85 0 0 0 0.81,-2.45a2,2 0 0 0 -2.72,-0.31a1.92,1.92 0 0 0 -0.92,2.55a1.9,1.9 0 0 0 2.6,0.35a2.83,2.83 0 0 1 -1.55,0.93s0.56,1.09 1.81,-0.35a1.49,1.49 0 0 1 0.2,0.15c-0.34,0.26 -0.47,0.72 -0.2,0.91c0,0 -0.13,0.7 0.69,0.66a0.63,0.63 0 0 0 0.86,0.2a10.42,10.42 0 0 1 0.34,2.4l1.05,0a8,8 0 0 0 -1,-3.26a0.36,0.36 0 0 0 0.08,-0.53a30.28,30.28 0 0 1 2.6,-1.68l0.14,0.71a3,3 0 0 1 1.59,-1a4.36,4.36 0 0 0 -0.86,3.52s0.18,-0.57 1.1,-0.66c0,0 -1.29,1.54 0.77,4.54c2.06,-3 0.87,-4.54 0.87,-4.54a1.3,1.3 0 0 1 1.14,0.66a4.44,4.44 0 0 0 -0.87,-3.56a2.92,2.92 0 0 1 1.6,1.08l0.14,-0.73c1.1,0.69 2.62,1.65 2.6,1.7s-0.07,0.39 0.1,0.53a8.29,8.29 0 0 0 -1,3.26l1.05,0a11.28,11.28 0 0 1 0.33,-2.38a0.66,0.66 0 0 0 0.84,-0.22c0.83,0 0.69,-0.66 0.69,-0.66c0.27,-0.19 0.15,-0.62 -0.19,-0.89l0.23,-0.17c1.24,1.44 1.8,0.35 1.8,0.35a2.81,2.81 0 0 1 -1.54,-0.93a1.9,1.9 0 0 0 2.6,-0.35a1.92,1.92 0 0 0 -0.88,-2.59" class="cls-1"/>
  <polygon id="svg_41" points="32.19 26.99 33.11 25.58 31.69 26.11 31.19 24.84 30.64 26.11 29.18 25.58 30.14 26.99 32.19 26.99" class="cls-1"/>
  <path id="svg_42" d="m17.59,37.43c0,-0.88 -0.55,-1.54 -1,-1.49s-0.73,0.75 -0.68,1.63s0.5,1.27 0.91,1.23s0.82,-0.53 0.77,-1.37" class="cls-1"/>
  <path id="svg_43" d="m45.92,48.67c-0.36,-0.22 -1.09,0.13 -1.6,0.84s-0.41,1.32 0,1.54s1,0 1.46,-0.66s0.51,-1.5 0.14,-1.72" class="cls-1"/>
  <path id="svg_44" d="m36.81,21.85c0,-0.4 -0.46,-0.84 -1.33,-0.89s-1.64,0.45 -1.64,0.84s0.73,0.79 1.59,0.84s1.42,-0.35 1.38,-0.79" class="cls-1"/>
  <path id="svg_45" d="m18.31,49.51c-0.51,-0.71 -1.23,-1.06 -1.6,-0.84s-0.37,1 0.13,1.72s1.1,0.88 1.47,0.66s0.45,-0.84 0,-1.54" class="cls-1"/>
  <path id="svg_46" d="m29.34,53.82c-0.92,-0.13 -1.69,0.09 -1.78,0.49s0.5,1 1.37,1.14s1.46,-0.13 1.55,-0.57s-0.27,-0.88 -1.14,-1.06" class="cls-1"/>
  <path id="svg_47" d="m47.94,41.27a1.84,1.84 0 0 1 -1.3,0.48a4.34,4.34 0 0 1 -0.21,2.64l-0.72,-0.57c1.09,-2.18 -0.44,-3 -0.35,-4.33c-1.55,0.33 -1.39,-0.69 -1.39,-0.69a2.56,2.56 0 0 0 1.66,0.08a1.74,1.74 0 0 1 -1.75,-1.62a1.93,1.93 0 0 1 2.12,-1.41a1.84,1.84 0 0 1 1.87,1.67a1.85,1.85 0 0 1 -2,1.38c0.49,0.4 1.69,0.21 1.69,0.21c-0.14,0.85 -1.14,0.6 -1.64,0.42c0,0.3 0,0.6 0.41,1.38c0.06,0.14 0.13,0.28 0.18,0.42a1.33,1.33 0 0 1 0.46,-0.77a1.76,1.76 0 0 1 1.41,-0.48a1.45,1.45 0 0 1 -0.46,1.19m-0.69,7.27a0.57,0.57 0 0 0 -0.92,0c0,0.09 -0.55,-0.22 -0.5,-0.31a0.58,0.58 0 0 0 -0.36,-0.84l0,-0.13s0.59,0 0.73,0.4c0,0 0.5,-0.53 0.64,-0.44s-0.18,0.75 -0.18,0.75c0.45,-0.1 0.68,0.48 0.68,0.48l-0.09,0.09zm-0.46,2.38a1.82,1.82 0 0 1 -2.42,0.3a2.61,2.61 0 0 0 1.41,0.89s-0.52,0.89 -1.57,-0.25c-0.47,0.69 -1.24,0.89 -1.91,1.39a2,2 0 0 1 0.61,0a2,2 0 0 1 1.37,0.61a1.71,1.71 0 0 1 -1.33,0.49a2.21,2.21 0 0 1 -1.21,-0.48a3.33,3.33 0 0 0 -0.52,1.27l-1,0a4.8,4.8 0 0 1 2.28,-2.73c0.78,-0.39 1,-0.59 1.18,-0.86c-0.5,-0.14 -1.45,-0.52 -1,-1.25c0,0 0.82,0.79 1.45,0.77a1.67,1.67 0 0 1 -0.67,-2.27a1.85,1.85 0 0 1 2.56,-0.22a1.77,1.77 0 0 1 0.82,2.34m-15.65,1.33a12.35,12.35 0 0 0 -7.12,-1.73a4.6,4.6 0 0 1 -4.68,-4.67l0,-21.63c2.88,1.54 9.2,0.51 12,-0.93c2.79,1.45 9,2.45 12,0.93l0,21.63a4.89,4.89 0 0 1 -5,4.67a12.27,12.27 0 0 0 -7.07,1.73m4.47,3.42a3.41,3.41 0 0 0 -1.32,-0.53a1.74,1.74 0 0 1 -0.51,1.15a1.69,1.69 0 0 1 -1.28,0.57a2.34,2.34 0 0 1 0.34,-1.41a1.58,1.58 0 0 1 0.48,-0.33a7.78,7.78 0 0 1 -2.37,0.32c0.1,1.51 -0.94,1.2 -0.94,1.2a2.48,2.48 0 0 0 0.34,-1.57a1.73,1.73 0 0 1 -1.9,1.44a1.83,1.83 0 0 1 -1.18,-2.2a1.8,1.8 0 0 1 2,-1.59a1.77,1.77 0 0 1 1.17,2.07c0.46,-0.4 0.43,-1.5 0.43,-1.5c0.86,0.24 0.48,1.13 0.23,1.57a2.75,2.75 0 0 0 1.46,-0.15a5.14,5.14 0 0 1 3.65,0.35l-0.6,0.61zm-8.45,-1.19c-0.27,0 -0.78,0.23 -0.69,0.66l-0.13,0s-0.23,-0.52 0.13,-0.79c0,0 -0.72,-0.31 -0.68,-0.44s0.78,-0.09 0.78,-0.09c-0.23,-0.39 0.23,-0.79 0.23,-0.79l0.13,0.09a0.56,0.56 0 0 0 0.32,0.83c0.14,0 0,0.58 -0.09,0.53m-5.78,0.62a3.42,3.42 0 0 0 -0.52,-1.27a2.37,2.37 0 0 1 -1.21,0.48a1.66,1.66 0 0 1 -1.33,-0.49a1.91,1.91 0 0 1 1.37,-0.61a1.94,1.94 0 0 1 0.6,0c-0.65,-0.5 -1.43,-0.7 -1.9,-1.39c-1.05,1.14 -1.58,0.25 -1.58,0.25a2.53,2.53 0 0 0 1.44,-0.93a1.8,1.8 0 0 1 -2.44,-0.26a1.77,1.77 0 0 1 0.82,-2.34a1.87,1.87 0 0 1 2.52,0.22a1.66,1.66 0 0 1 -0.72,2.26c0.64,0.06 1.49,-0.76 1.49,-0.76c0.41,0.73 -0.55,1.11 -1,1.25c0.15,0.27 0.4,0.47 1.18,0.86a4.76,4.76 0 0 1 2.28,2.73l-1,0zm-6.07,-6.56l-0.09,-0.09s0.22,-0.58 0.68,-0.48c0,0 -0.32,-0.66 -0.18,-0.75s0.64,0.44 0.64,0.44c0.14,-0.4 0.73,-0.4 0.73,-0.4l0.05,0.13a0.6,0.6 0 0 0 -0.42,0.84c0.09,0.09 -0.41,0.4 -0.45,0.31a0.61,0.61 0 0 0 -1,0m-1.08,-8.46a1.72,1.72 0 0 1 1.37,0.48a1.16,1.16 0 0 1 0.47,0.78a3.2,3.2 0 0 1 0.17,-0.43a2.46,2.46 0 0 0 0.4,-1.38c-0.5,0.18 -1.5,0.43 -1.63,-0.42c0,0 1.19,0.19 1.69,-0.21a1.86,1.86 0 0 1 -2,-1.38a1.84,1.84 0 0 1 1.88,-1.67a1.92,1.92 0 0 1 2.14,1.41a1.74,1.74 0 0 1 -1.84,1.62a2.74,2.74 0 0 0 1.71,-0.08s0.12,1 -1.43,0.69c0.13,1.37 -1.4,2.15 -0.35,4.33l-0.73,0.57a4.51,4.51 0 0 1 -0.2,-2.64a1.83,1.83 0 0 1 -1.32,-0.48a1.29,1.29 0 0 1 -0.41,-1.19m3.37,-5.08l0,0.13a0.55,0.55 0 0 0 -0.74,0.48c0,0.14 -0.54,0.18 -0.59,0.05a0.62,0.62 0 0 0 -0.82,-0.44l0,-0.13s0.46,-0.36 0.82,-0.09c0,0 0.1,-0.71 0.23,-0.71s0.37,0.66 0.37,0.66c0.27,-0.26 0.82,0 0.82,0m-1,-12a1.77,1.77 0 0 1 1.88,1.63a1.9,1.9 0 0 1 -2,1.41a2.91,2.91 0 0 0 1.63,0.17c-0.13,0.86 -1.13,0.61 -1.63,0.43a2.48,2.48 0 0 0 0.4,1.38a4.58,4.58 0 0 1 -0.01,3.48l-0.73,-0.57a3.49,3.49 0 0 0 0.37,-1.34a2,2 0 0 1 -1.28,-0.34a1.43,1.43 0 0 1 -0.73,-1.1a2.29,2.29 0 0 1 1.51,0.26a2.15,2.15 0 0 1 0.41,0.38c-0.22,-0.8 -0.71,-1.39 -0.63,-2.2c-1.55,0.33 -1.43,-0.69 -1.43,-0.69a2.88,2.88 0 0 0 1.64,0.11a1.78,1.78 0 0 1 -1.69,-1.65a1.88,1.88 0 0 1 2.18,-1.31m-0.23,-1s0.23,-0.71 0.37,-0.66s0.22,0.7 0.22,0.7c0.37,-0.26 0.83,0.13 0.83,0.13l0,0.09a0.63,0.63 0 0 0 -0.82,0.44c0,0.14 -0.6,0.09 -0.6,0s-0.31,-0.66 -0.72,-0.49l0,-0.13s0.55,-0.31 0.82,0m4.15,0.22a3.86,3.86 0 0 0 1.42,0.25a1.9,1.9 0 0 1 0.23,-1.27a1.54,1.54 0 0 1 1.09,-0.79a1.78,1.78 0 0 1 -0.18,1.46a1.54,1.54 0 0 1 -0.37,0.47a8.14,8.14 0 0 1 2.2,-0.81c-0.41,-1.47 0.64,-1.43 0.64,-1.43a2.51,2.51 0 0 0 0,1.62a1.69,1.69 0 0 1 1.51,-1.79a1.77,1.77 0 0 1 1.65,1.89a1.72,1.72 0 0 1 -1.51,1.94a1.76,1.76 0 0 1 -1.64,-1.8c-0.37,0.51 -0.09,1.62 -0.09,1.62c-0.84,0 -0.7,-1 -0.58,-1.52a3.28,3.28 0 0 0 -1.35,0.51a5.13,5.13 0 0 1 -3.66,0.35l0.64,-0.7zm8.5,-0.66c0.23,0 0.68,-0.36 0.45,-0.75l0.14,-0.05s0.37,0.49 0.09,0.8c0,0 0.78,0.13 0.78,0.26s-0.73,0.26 -0.73,0.26c0.28,0.31 -0.05,0.8 -0.05,0.8l-0.13,0a0.65,0.65 0 0 0 -0.55,-0.8c-0.13,0 -0.13,-0.52 0,-0.52m3.79,0c-0.27,-0.31 0.09,-0.8 0.09,-0.8l0.14,0.05c-0.23,0.39 0.23,0.75 0.46,0.75s0.13,0.52 0,0.52a0.64,0.64 0 0 0 -0.55,0.8l-0.14,0s-0.32,-0.49 0,-0.8c0,0 -0.74,-0.13 -0.74,-0.26s0.78,-0.26 0.78,-0.26m2.6,-1.63a1.68,1.68 0 0 1 1.51,1.79a2.38,2.38 0 0 0 0,-1.62s1.06,0 0.65,1.43a8.2,8.2 0 0 1 2.19,0.81a1.92,1.92 0 0 1 -0.37,-0.47a1.78,1.78 0 0 1 -0.17,-1.46a1.56,1.56 0 0 1 1.09,0.79a1.89,1.89 0 0 1 0.22,1.27a3.86,3.86 0 0 0 1.31,-0.35l0.55,0.75a5.15,5.15 0 0 1 -3.61,-0.4a3.26,3.26 0 0 0 -1.33,-0.55c0.11,0.48 0.26,1.49 -0.58,1.52c0,0 0.28,-1.11 -0.09,-1.62a1.77,1.77 0 0 1 -1.64,1.8a1.72,1.72 0 0 1 -1.51,-1.94a1.77,1.77 0 0 1 1.64,-1.89m11.79,15.19l-0.06,0.13a0.62,0.62 0 0 0 -0.81,0.44c0,0.13 -0.6,0.09 -0.6,-0.05a0.54,0.54 0 0 0 -0.75,-0.48l0,-0.1s0.55,-0.31 0.81,0c0,0 0.24,-0.7 0.37,-0.66s0.23,0.71 0.23,0.71c0.37,-0.27 0.83,0.09 0.83,0.09m-1.24,-12.14a1.87,1.87 0 0 1 2.14,1.36a1.77,1.77 0 0 1 -1.67,1.64a2.87,2.87 0 0 0 1.64,-0.11s0.12,1 -1.45,0.69c0.06,0.82 -0.46,1.43 -0.66,2.25a2.13,2.13 0 0 1 0.46,-0.43a2.29,2.29 0 0 1 1.54,-0.3a1.61,1.61 0 0 1 -0.73,1.1a2.06,2.06 0 0 1 -1.3,0.34a3.39,3.39 0 0 0 0.39,1.34l-0.74,0.57a4.4,4.4 0 0 1 0.1,-3.48c0.37,-0.78 0.44,-1.09 0.39,-1.38c-0.49,0.18 -1.49,0.42 -1.62,-0.43a2.91,2.91 0 0 0 1.6,-0.16a1.9,1.9 0 0 1 -2,-1.41a1.77,1.77 0 0 1 1.91,-1.59m-0.37,-1s0.1,-0.7 0.24,-0.7s0.37,0.66 0.37,0.66c0.27,-0.27 0.82,0 0.82,0l-0.05,0.13a0.55,0.55 0 0 0 -0.73,0.49c0,0.13 -0.59,0.18 -0.59,0a0.63,0.63 0 0 0 -0.82,-0.44l0,-0.09s0.46,-0.39 0.81,-0.13m-14.48,-4.92a19.4,19.4 0 0 1 -17.95,0l0,32.14a7.14,7.14 0 0 0 7.26,7.06c3.89,0 7.35,0.54 10.69,2.68a19,19 0 0 1 10.65,-2.68a7.17,7.17 0 0 0 7.3,-7.06l0,-32.14a19.43,19.43 0 0 1 -17.95,0" class="cls-1"/>
  <path id="svg_48" d="m16.39,25.85c0.42,0 0.87,-0.39 0.92,-1.23s-0.31,-1.62 -0.69,-1.62s-1,0.62 -1,1.5s0.32,1.32 0.77,1.36" class="cls-1"/>
  <path id="svg_49" d="m46.24,25.85c0.4,0 0.82,-0.53 0.77,-1.36s-0.55,-1.49 -1.01,-1.49s-0.78,0.75 -0.73,1.63s0.5,1.28 1,1.23" class="cls-1"/>
  <path id="svg_50" d="m27.12,22.64c0.87,-0.05 1.56,-0.4 1.6,-0.84s-0.72,-0.8 -1.64,-0.8s-1.33,0.49 -1.33,0.89s0.46,0.83 1.37,0.79" class="cls-1"/>
  <path id="svg_51" d="m46.76,37.57c0,-0.88 -0.33,-1.59 -0.73,-1.63s-1,0.61 -1,1.49s0.37,1.32 0.77,1.37s0.92,-0.4 1,-1.23" class="cls-1"/>
 </g>
</svg>