<svg width="264" height="94" xmlns="http://www.w3.org/2000/svg">
 <defs>
  <style>.cls-1{fill:#fff;}</style>
 </defs>
 <title>Mesa de trabajo 7</title>
 <g>
  <title>background</title>
  <rect fill="none" id="canvas_background" height="402" width="582" y="-1" x="-1"/>
 </g>
 <g>
  <title>Layer 1</title>
  <path id="svg_1" d="m129,60.29a7.61,7.61 0 0 0 -7.63,-7.57l-9.17,0l0,24.16l10,0a7.61,7.61 0 0 0 7.63,-7.57a7.53,7.53 0 0 0 -2,-5a7.3,7.3 0 0 0 1.15,-4m-10.62,-2.31l3,0a2.31,2.31 0 1 1 0,4.62l-3,0l0,-4.62zm3.84,18.26l-3.84,0l0,-9.26l3.84,0a2.32,2.32 0 1 1 0,4.63" class="cls-1"/>
  <path id="svg_2" d="m143,52.28a12.64,12.64 0 1 0 12.18,12.62a12.43,12.43 0 0 0 -12.18,-12.62m0,18.72a6.09,6.09 0 1 1 5.63,-6.08a5.87,5.87 0 0 1 -5.63,6.08" class="cls-1"/>
  <path id="svg_3" d="m170.19,68.62l2.87,0l0,1.38a6.88,6.88 0 0 1 -3.6,1a6.08,6.08 0 1 1 0,-12.14a6.63,6.63 0 0 1 4.5,1.72l0.64,0.59l4.4,-4.87l-0.63,-0.58a13.22,13.22 0 0 0 -8.94,-3.44a12.64,12.64 0 1 0 0,25.26a13.25,13.25 0 0 0 3.6,-0.49l0,0l6.56,0l0,-15l-9.43,0l0.03,6.57z" class="cls-1"/>
  <polygon id="svg_4" points="213.3 59.82 213.3 77.1 221.09 77.1 221.09 59.82 228.44 59.82 228.44 52.39 205.93 52.39 205.93 59.82 213.3 59.82" class="cls-1"/>
  <polygon id="svg_5" points="262.91 87.45 248.01 47.84 234.64 47.84 223.69 77.05 231.8 77.05 241.31 53.02 254.8 87.45 262.91 87.45" class="cls-1"/>
  <path id="svg_6" d="m204,59l0,0a12.15,12.15 0 0 0 -10.74,-6.64a12.64,12.64 0 1 0 12.2,12.62a12.94,12.94 0 0 0 -1.46,-5.98m-10.72,12a6.09,6.09 0 1 1 5.64,-6.08a5.87,5.87 0 0 1 -5.64,6.08" class="cls-1"/>
  <polygon id="svg_7" points="251.42 35 258.72 32.01 249 28.53 242.78 11.88 236.32 24.14 223.15 21.44 232.45 31.5 227.91 43.69 244.27 37.81 256.21 47.84 251.42 35" class="cls-1"/>
  <polygon id="svg_8" points="224.19 35.66 227.19 33.73 223.6 32.97 222.57 29.4 221.15 32.45 215.72 31.3 219.96 35.67 218.66 39.2 222.47 36.76 225.43 39.14 224.19 35.66" class="cls-1"/>
  <polygon id="svg_9" points="256.51 17.57 259.64 15.56 255.9 14.76 254.82 11.04 253.01 14.15 247.67 13.01 252.1 17.58 250.74 21.27 254.72 18.71 257.8 21.2 256.51 17.57" class="cls-1"/>
  <rect id="svg_10" height="84.11" width="1" y="4.95" x="93.9" class="cls-1"/>
  <path id="svg_11" d="m5.26,68.93l-0.91,-2.43l-0.88,2.43l1.79,0zm0.67,2.62l0.34,0l-0.57,-1.5l-2.65,0l-0.54,1.5l-1.42,0l2.57,-6.55l1.42,0l0.85,6.55z" class="cls-1"/>
  <polygon id="svg_12" points="8.08 71.55 8.08 65.01 9.41 65.01 9.41 70.43 12.72 70.43 12.72 71.55 8.08 71.55" class="cls-1"/>
  <path id="svg_13" d="m17.52,69.11l1.29,0.41a3,3 0 0 1 -1,1.62a2.83,2.83 0 0 1 -1.76,0.52a2.86,2.86 0 0 1 -2.16,-0.89a3.42,3.42 0 0 1 -0.85,-2.46a3.6,3.6 0 0 1 0.85,-2.56a3,3 0 0 1 2.24,-0.91a2.77,2.77 0 0 1 2,0.72a2.65,2.65 0 0 1 0.67,1.21l-1.32,0.32a1.38,1.38 0 0 0 -0.49,-0.81a1.4,1.4 0 0 0 -0.9,-0.3a1.53,1.53 0 0 0 -1.2,0.53a2.58,2.58 0 0 0 -0.46,1.7a2.76,2.76 0 0 0 0.45,1.79a1.44,1.44 0 0 0 1.17,0.53a1.3,1.3 0 0 0 0.91,-0.34a2,2 0 0 0 0.56,-1.07" class="cls-1"/>
  <path id="svg_14" d="m23.06,68.93l-0.91,-2.43l-0.89,2.43l1.8,0zm0.66,2.62l0.35,0l-0.58,-1.5l-2.64,0l-0.55,1.5l-1.41,0l2.57,-6.55l1.41,0l0.85,6.55z" class="cls-1"/>
  <polygon id="svg_15" points="25.87 71.55 25.87 65.01 27.21 65.01 27.21 70.43 30.52 70.43 30.52 71.55 25.87 71.55" class="cls-1"/>
  <path id="svg_16" d="m32.41,66.07l0,4.36l1,0a3.05,3.05 0 0 0 0.8,-0.07a1.05,1.05 0 0 0 0.54,-0.26a1.43,1.43 0 0 0 0.35,-0.64a4.31,4.31 0 0 0 0.14,-1.21a3.87,3.87 0 0 0 -0.14,-1.17a1.53,1.53 0 0 0 -0.37,-0.64a1.4,1.4 0 0 0 -0.62,-0.31a6.49,6.49 0 0 0 -1.1,-0.06l-0.6,0zm-1.33,-1.07l2.43,0a4.52,4.52 0 0 1 1.26,0.13a2.11,2.11 0 0 1 1,0.6a2.94,2.94 0 0 1 0.64,1.07a5,5 0 0 1 0.21,1.56a4.24,4.24 0 0 1 -0.2,1.41a2.84,2.84 0 0 1 -0.7,1.16a2.32,2.32 0 0 1 -0.94,0.53a4.18,4.18 0 0 1 -1.18,0.14l-2.52,0l0,-6.6z" class="cls-1"/>
  <path id="svg_17" d="m37.32,65l1.33,0l0,6.6l-1.33,0l0,-6.6zm0.33,5.99l0.62,-7.99l1.42,0l-1.24,1.34l-0.8,6.65z" class="cls-1"/>
  <path id="svg_18" d="m43,68.93l-0.92,-2.43l-0.89,2.43l1.81,0zm0.64,2.62l0.36,0l-0.58,-1.5l-2.6,0l-0.54,1.5l-1.42,0l2.57,-6.55l1.42,0l0.79,6.55z" class="cls-1"/>
  <polygon id="svg_19" points="47.62 71.55 47.62 64.95 49.62 64.95 50.81 69.45 52 64.95 54 64.95 54 71.55 52.76 71.55 52.76 66.36 51.45 71.55 50.16 71.55 48.86 66.36 48.86 71.55 47.62 71.55" class="cls-1"/>
  <path id="svg_20" d="m58.44,68.93l-0.91,-2.43l-0.9,2.43l1.81,0zm0.65,2.62l0.36,0l-0.58,-1.5l-2.64,0l-0.55,1.5l-1.42,0l2.57,-6.55l1.43,0l0.83,6.55z" class="cls-1"/>
  <polygon id="svg_21" points="62.1 71.55 62.1 68.77 59.68 64.95 61.24 64.95 62.8 67.56 64.33 64.95 65.86 64.95 63.43 68.78 63.43 71.55 62.1 71.55" class="cls-1"/>
  <path id="svg_22" d="m67.23,68.25a2.52,2.52 0 0 0 0.52,1.7a1.7,1.7 0 0 0 1.32,0.57a1.66,1.66 0 0 0 1.3,-0.57a2.52,2.52 0 0 0 0.51,-1.72a2.47,2.47 0 0 0 -0.49,-1.69a1.85,1.85 0 0 0 -2.65,0a2.5,2.5 0 0 0 -0.51,1.71m-1.37,0a4.19,4.19 0 0 1 0.3,-1.69a3.11,3.11 0 0 1 0.61,-0.9a2.58,2.58 0 0 1 0.86,-0.6a3.67,3.67 0 0 1 1.42,-0.26a3.13,3.13 0 0 1 2.34,0.9a4.07,4.07 0 0 1 0,5a3.1,3.1 0 0 1 -2.33,0.9a3.16,3.16 0 0 1 -2.35,-0.89a3.46,3.46 0 0 1 -0.86,-2.48" class="cls-1"/>
  <path id="svg_23" d="m74.26,67.74l1,0a5.39,5.39 0 0 0 1.2,-0.08a0.7,0.7 0 0 0 0.37,-0.28a0.79,0.79 0 0 0 0.14,-0.49a0.8,0.8 0 0 0 -0.18,-0.54a0.76,0.76 0 0 0 -0.5,-0.26c-0.1,0 -0.43,0 -1,0l-1,0l-0.03,1.65zm-1.31,2.16l0,-4.9l2.8,0a4.71,4.71 0 0 1 1.54,0.18a1.44,1.44 0 0 1 0.77,0.63a1.92,1.92 0 0 1 0.29,1a1.77,1.77 0 0 1 -0.46,1.19a2.12,2.12 0 0 1 -1.3,0.61a3.42,3.42 0 0 1 0.71,0.55a6.91,6.91 0 0 1 0.75,1.07l0.81,1.29l-1.6,0l-1,-1.44c-0.35,-0.51 -0.59,-0.83 -0.7,-1a1.09,1.09 0 0 0 -0.4,-0.27a2.39,2.39 0 0 0 -0.68,-0.07l-0.27,0l0,2.75l-1.26,-1.59z" class="cls-1"/>
  <rect id="svg_24" height="1.24" width="1.24" y="80.98" x="65.09" class="cls-1"/>
  <path id="svg_25" d="m6.63,76.82l0,4.29l1,0a3.53,3.53 0 0 0 0.78,-0.11a1.26,1.26 0 0 0 0.53,-0.26a1.43,1.43 0 0 0 0.34,-0.63a4.18,4.18 0 0 0 0.13,-1.11a3.85,3.85 0 0 0 -0.13,-1.16a1.55,1.55 0 0 0 -0.37,-0.63a1.4,1.4 0 0 0 -0.61,-0.3a6.12,6.12 0 0 0 -1.08,-0.06l-0.59,-0.03zm-0.72,-1.07l2.4,0a4.9,4.9 0 0 1 0.69,0.09a2.33,2.33 0 0 1 1,0.6a2.9,2.9 0 0 1 0.62,1a4.87,4.87 0 0 1 0.14,1.56a4.72,4.72 0 0 1 -0.19,1.39a2.94,2.94 0 0 1 -0.7,1.14a2.34,2.34 0 0 1 -0.92,0.52a4,4 0 0 1 -1.16,0.14l-2.47,0l0.59,-6.44z" class="cls-1"/>
  <polygon id="svg_26" points="11.5 82.21 11.5 75.72 16.31 75.72 16.31 76.82 12.81 76.82 12.81 78.25 16.06 78.25 16.06 79.36 12.81 79.36 12.81 81.11 16.43 81.11 16.43 82.21 11.5 82.21" class="cls-1"/>
  <path id="svg_27" d="m20.62,79.37l0,1.74l1.2,0a7.19,7.19 0 0 0 0.91,0a0.87,0.87 0 0 0 0.48,-0.26a0.81,0.81 0 0 0 0.18,-0.55a0.92,0.92 0 0 0 -0.14,-0.5a0.83,0.83 0 0 0 -0.41,-0.29a4.5,4.5 0 0 0 -1.17,-0.1l-1.05,-0.04zm1.05,-2.53l0,1.49l0.85,0c0.51,0 0.83,0 1,0a0.81,0.81 0 0 0 -0.52,-0.33a0.66,0.66 0 0 0 0.19,-0.51a0.68,0.68 0 0 0 -0.16,-0.48a0.76,0.76 0 0 0 -0.5,-0.23c-0.12,0 -0.5,0 -1.11,0l0.25,0.06zm-2.12,-1.06l2.6,0a8.14,8.14 0 0 1 1.15,0.06a1.79,1.79 0 0 1 0.67,0.27a1.74,1.74 0 0 1 0.5,0.54a1.55,1.55 0 0 1 0,1.59a1.57,1.57 0 0 1 -0.67,0.58a1.72,1.72 0 0 1 0.91,0.58a1.58,1.58 0 0 1 0.32,1a1.85,1.85 0 0 1 -0.21,0.86a1.74,1.74 0 0 1 -0.55,0.67a1.82,1.82 0 0 1 -0.89,0.31c-0.22,0 -0.75,0 -1.58,0l-2.5,0l0.25,-6.46z" class="cls-1"/>
  <path id="svg_28" d="m26.55,79a2.39,2.39 0 0 0 0.51,1.66a1.66,1.66 0 0 0 1.29,0.57a1.68,1.68 0 0 0 1.29,-0.56a2.49,2.49 0 0 0 0.5,-1.69a2.46,2.46 0 0 0 -0.49,-1.66a1.8,1.8 0 0 0 -2.6,0a2.38,2.38 0 0 0 -0.5,1.67m-1.36,0a4.07,4.07 0 0 1 0.3,-1.66a3.14,3.14 0 0 1 0.61,-0.89a2.35,2.35 0 0 1 0.84,-0.58a3.52,3.52 0 0 1 1.39,-0.26a3,3 0 0 1 2.3,0.89a4,4 0 0 1 0,4.93a3,3 0 0 1 -2.28,0.89a3.09,3.09 0 0 1 -2.3,-0.88a3.38,3.38 0 0 1 -0.86,-2.43" class="cls-1"/>
  <path id="svg_29" d="m35.15,79.83l0,-1.1l2.85,0l0,2.58a3.84,3.84 0 0 1 -1.2,0.7a4.19,4.19 0 0 1 -1.58,0.31a3.47,3.47 0 0 1 -1.77,-0.44a2.58,2.58 0 0 1 -1.14,-1.21a4,4 0 0 1 -0.38,-1.73a3.63,3.63 0 0 1 0.43,-1.8a2.84,2.84 0 0 1 1.24,-1.21a3.39,3.39 0 0 1 1.55,-0.32a3.19,3.19 0 0 1 1.89,0.5a2.31,2.31 0 0 1 0.87,1.41l-1.3,0.24a1.37,1.37 0 0 0 -0.51,-0.75a1.55,1.55 0 0 0 -0.95,-0.28a1.75,1.75 0 0 0 -1.36,0.55a2.25,2.25 0 0 0 -0.51,1.61a2.52,2.52 0 0 0 0.51,1.72a1.71,1.71 0 0 0 1.35,0.58a2.37,2.37 0 0 0 0.82,-0.15a3,3 0 0 0 0.71,-0.4l0,-0.81l-1.52,0z" class="cls-1"/>
  <path id="svg_30" d="m39.89,79a2.39,2.39 0 0 0 0.51,1.66a1.64,1.64 0 0 0 1.29,0.57a1.7,1.7 0 0 0 1.31,-0.6a2.49,2.49 0 0 0 0.5,-1.69a2.46,2.46 0 0 0 -0.5,-1.66a1.67,1.67 0 0 0 -1.31,-0.55a1.69,1.69 0 0 0 -1.31,0.56a2.43,2.43 0 0 0 -0.49,1.71m-1.35,0a4.08,4.08 0 0 1 0.29,-1.66a3.14,3.14 0 0 1 0.61,-0.89a2.35,2.35 0 0 1 0.84,-0.58a3.57,3.57 0 0 1 1.4,-0.26a3,3 0 0 1 2.32,0.89a4,4 0 0 1 0,4.93a3,3 0 0 1 -2.29,0.89a3.09,3.09 0 0 1 -2.3,-0.88a3.37,3.37 0 0 1 -0.87,-2.44" class="cls-1"/>
  <polygon id="svg_31" points="46.94 82.21 46.94 76.82 45.02 76.82 45.02 75.72 50.17 75.72 50.17 76.82 48.26 76.82 48.26 82.21 46.94 82.21" class="cls-1"/>
  <path id="svg_32" d="m52.72,75.13l0.61,-1.33l1.39,0l-1.21,1.33l-0.79,0zm2.14,4.5l-0.9,-2.4l-0.86,2.4l1.76,0zm2.42,2.58l-2.22,0l-0.56,-1.48l-2.6,0l-0.53,1.48l-1.37,0l2.53,-6.49l1.39,0l3.36,6.49z" class="cls-1"/>
  <path id="svg_33" d="m60.24,76.82l0,4.29l1,0a3.47,3.47 0 0 0 0.76,-0.11a1.3,1.3 0 0 0 0.54,-0.26a1.53,1.53 0 0 0 0.34,-0.63a4.18,4.18 0 0 0 0.12,-1.11a3.85,3.85 0 0 0 -0.13,-1.16a1.56,1.56 0 0 0 -0.38,-0.63a1.36,1.36 0 0 0 -0.6,-0.3a6.12,6.12 0 0 0 -1.08,-0.06l-0.57,-0.03zm-0.74,-1.07l2.4,0a4.82,4.82 0 0 1 1.23,0.12a2.31,2.31 0 0 1 1,0.6a2.9,2.9 0 0 1 0.62,1a4.87,4.87 0 0 1 -0.38,1.53a4.12,4.12 0 0 1 -0.2,1.39a2.93,2.93 0 0 1 -0.69,1.14a2.34,2.34 0 0 1 -0.92,0.52a4.08,4.08 0 0 1 -1.16,0.14l-2.47,0l0.57,-6.44z" class="cls-1"/>
  <path id="svg_34" d="m71.4,79.81l1.26,0.4a2.93,2.93 0 0 1 -1,1.59a2.82,2.82 0 0 1 -1.73,0.52a2.79,2.79 0 0 1 -2.12,-0.88a3.38,3.38 0 0 1 -0.81,-2.44a3.51,3.51 0 0 1 0.84,-2.51a2.85,2.85 0 0 1 2.2,-0.9a2.73,2.73 0 0 1 1.94,0.71a2.56,2.56 0 0 1 0.66,1.19l-1.3,0.31a1.32,1.32 0 0 0 -0.48,-0.79a1.34,1.34 0 0 0 -0.88,-0.3a1.47,1.47 0 0 0 -1.18,0.52a2.54,2.54 0 0 0 -0.45,1.68a2.61,2.61 0 0 0 0.45,1.74a1.4,1.4 0 0 0 1.14,0.52a1.28,1.28 0 0 0 0.9,-0.33a1.94,1.94 0 0 0 0.55,-1" class="cls-1"/>
  <rect id="svg_35" height="1.24" width="1.24" y="81" x="73.39" class="cls-1"/>
  <path id="svg_36" d="m27.12,36.07c0.12,0.16 0.77,-0.23 0.71,-0.4s-0.06,-1.08 0.53,-1.14l0,-0.23s-0.88,0 -1.06,0.57c0,0 -0.71,-0.74 -0.88,-0.68s0.17,1.08 0.17,1.08c-0.59,-0.11 -0.88,0.68 -0.88,0.68l0.11,0.12a0.84,0.84 0 0 1 1.3,0" class="cls-1"/>
  <path id="svg_37" d="m34.33,42.16a2.82,2.82 0 0 0 -0.65,2a2.28,2.28 0 0 0 1.77,-0.85a2.44,2.44 0 0 0 0.65,-1.93a2.64,2.64 0 0 0 -1.77,0.79" class="cls-1"/>
  <path id="svg_38" d="m53.05,35.27s0.36,-1 0.18,-1.08s-0.89,0.68 -0.89,0.68c-0.18,-0.57 -1.07,-0.57 -1.07,-0.57l0,0.23c0.6,0.06 0.72,0.85 0.54,1.14s0.59,0.56 0.71,0.4a0.84,0.84 0 0 1 1.3,0l0.12,-0.12s-0.29,-0.79 -0.89,-0.68" class="cls-1"/>
  <path id="svg_39" d="m45.31,42.16a2.64,2.64 0 0 0 -1.77,-0.79a2.38,2.38 0 0 0 0.66,1.93a2.25,2.25 0 0 0 1.76,0.85a2.77,2.77 0 0 0 -0.65,-2" class="cls-1"/>
  <path id="svg_40" d="m51.81,38.57c-0.71,1 -1.54,1.26 -2.07,0.91s-0.7,-1.14 0,-2.1s1.65,-1.54 2.18,-1.26s0.53,1.43 -0.11,2.45m-12.81,-18.45a0.53,0.53 0 0 1 -0.59,-0.51a0.55,0.55 0 0 1 0.59,-0.61a0.53,0.53 0 0 1 0.53,0.57a0.51,0.51 0 0 1 -0.53,0.51m-9.1,19.4c-0.53,0.35 -1.36,0.12 -2.07,-0.91s-0.65,-2.16 -0.11,-2.45s1.53,0.23 2.18,1.26s0.53,1.82 0,2.1m22.1,-3.48c-1.3,-0.8 -2.9,-0.63 -3.54,0.4a2.36,2.36 0 0 0 1,3.16c-0.87,0.08 -2,-1.11 -2,-1.11c-0.49,0.92 0.41,1.43 1.12,1.68l-0.28,0.21c-0.67,-0.17 -0.91,0.16 -0.91,0.16s-1.6,-1.64 -2.7,-2.77l1,-0.19c-0.71,-1.64 -2.62,-2 -3.92,-3c-1,-0.75 0.12,-1.08 0.38,-0.83a3.9,3.9 0 0 0 4.61,0.63a4.86,4.86 0 0 1 -2.54,-2.51a5.49,5.49 0 0 0 6.26,-0.28c-2.36,0.4 -4.19,-1.82 -4.19,-1.82a7.08,7.08 0 0 0 6.19,-1.6c-1.35,0.11 -4.72,-1.31 -4.72,-1.31c5.38,-0.17 5.85,-4 5.91,-4c-1.48,1 -5.44,0.52 -5.44,0.52c5.62,-2 5.2,-6.6 5.2,-6.6c-1.19,1.76 -6.61,3.47 -6.61,3.47a3.63,3.63 0 0 0 -2.66,3.3a1.31,1.31 0 0 1 -1.29,1.14c-1.45,0 -1.43,-2.09 -1.43,-3.08c0,-1.48 -0.05,-3.18 -1.12,-3.18l-2.11,0c-0.39,0 -1.05,-0.05 -1.32,0.28c-0.55,0.64 -0.46,2.33 -0.22,2a2.5,2.5 0 0 1 1.36,0c0.69,0.2 0.18,2.33 0.18,2.79a1.28,1.28 0 0 1 -1.3,1.2a1.32,1.32 0 0 1 -1.3,-1.14a3.63,3.63 0 0 0 -2.6,-3.3s-5.55,-1.71 -6.73,-3.47c0,0 -0.41,4.66 5.25,6.71c0,0 -4,0.34 -5.49,-0.63c0.06,0 0.77,4 6.14,4.16c0,0 -3.54,1.2 -4.83,1a6.86,6.86 0 0 0 6.31,2.05a6,6 0 0 1 -4.43,1.48a5.48,5.48 0 0 0 6.26,0.4a4.64,4.64 0 0 1 -2.49,2.44a4,4 0 0 0 4.66,-0.63c0.32,-0.35 1.33,0.06 0.32,0.83c-1.35,1 -3.27,1.28 -4.09,3l1,0.19c-1.12,1.13 -2.61,2.73 -2.77,2.77c0,0 -0.21,-0.3 -0.84,-0.17l-0.26,-0.2c0.72,-0.25 1.62,-0.76 1.12,-1.68c0,0 -1.13,1.19 -2,1.11a2.38,2.38 0 0 0 1.06,-3.16a2.58,2.58 0 0 0 -3.54,-0.4a2.49,2.49 0 0 0 -1.19,3.3a2.48,2.48 0 0 0 3.36,0.46a3.74,3.74 0 0 1 -2,1.2s0.73,1.4 2.35,-0.47l0.25,0.2c-0.44,0.34 -0.61,0.93 -0.25,1.18c0,0 -0.18,0.91 0.88,0.85a0.82,0.82 0 0 0 1.12,0.26a14.3,14.3 0 0 1 0.44,3.1l1.36,0.06a10.44,10.44 0 0 0 -1.25,-4.22a0.44,0.44 0 0 0 0.1,-0.68a39.23,39.23 0 0 1 3.36,-2.17l0.19,0.92a3.87,3.87 0 0 1 2,-1.37a5.68,5.68 0 0 0 -1.11,4.56s0.23,-0.74 1.42,-0.86c0,0 -1.66,2 1,5.87c2.66,-3.87 1.13,-5.87 1.13,-5.87a1.68,1.68 0 0 1 1.47,0.86a5.74,5.74 0 0 0 -1.18,-4.59a3.77,3.77 0 0 1 2.12,1.39l0.18,-1c1.43,0.89 3.39,2.13 3.36,2.2c-0.22,0.24 -0.08,0.51 0.14,0.69a10.58,10.58 0 0 0 -1.25,4.21l1.34,-0.01a13.94,13.94 0 0 1 0.45,-3.09a0.85,0.85 0 0 0 1.09,-0.28c1.06,0.06 0.89,-0.85 0.89,-0.85c0.34,-0.25 0.18,-0.8 -0.26,-1.15l0.3,-0.23c1.6,1.87 2.34,0.47 2.34,0.47a3.74,3.74 0 0 1 -2,-1.2a2.48,2.48 0 0 0 3.36,-0.46a2.49,2.49 0 0 0 -1.17,-3.3" class="cls-1"/>
  <polygon id="svg_41" points="41.1 17.9 42.28 16.08 40.45 16.77 39.8 15.12 39.09 16.77 37.2 16.08 38.44 17.9 41.1 17.9" class="cls-1"/>
  <path id="svg_42" d="m22.23,31.4c-0.06,-1.14 -0.71,-2 -1.3,-1.94s-0.95,1 -0.89,2.11s0.65,1.65 1.18,1.6s1.06,-0.69 1,-1.77" class="cls-1"/>
  <path id="svg_43" d="m58.85,45.93c-0.47,-0.29 -1.42,0.17 -2.07,1.08s-0.53,1.71 0,2s1.24,0.06 1.89,-0.85s0.65,-1.94 0.18,-2.22" class="cls-1"/>
  <path id="svg_44" d="m47.07,11.25c0,-0.52 -0.6,-1.08 -1.72,-1.15s-2.12,0.58 -2.12,1.09s0.94,1 2.06,1.08s1.83,-0.45 1.78,-1" class="cls-1"/>
  <path id="svg_45" d="m23.15,47c-0.65,-0.91 -1.59,-1.37 -2.07,-1.08s-0.47,1.3 0.18,2.22s1.42,1.14 1.89,0.85s0.59,-1.08 0,-2" class="cls-1"/>
  <path id="svg_46" d="m37.41,52.59c-1.18,-0.17 -2.18,0.11 -2.31,0.63s0.66,1.25 1.78,1.47s1.89,-0.17 2,-0.73s-0.35,-1.14 -1.47,-1.37" class="cls-1"/>
  <path id="svg_47" d="m61.46,36.36a2.34,2.34 0 0 1 -1.68,0.62a5.63,5.63 0 0 1 -0.27,3.42l-0.94,-0.74c1.41,-2.83 -0.57,-3.83 -0.44,-5.61c-2,0.43 -1.8,-0.88 -1.8,-0.88a3.33,3.33 0 0 0 2.15,0.1a2.24,2.24 0 0 1 -2.27,-2.1a2.5,2.5 0 0 1 2.79,-1.82a2.37,2.37 0 0 1 2.42,2.16a2.39,2.39 0 0 1 -2.6,1.78c0.63,0.52 2.18,0.27 2.18,0.27c-0.18,1.11 -1.47,0.79 -2.11,0.55c-0.06,0.39 0,0.78 0.52,1.79a3.25,3.25 0 0 1 0.23,0.54a1.73,1.73 0 0 1 0.6,-1a2.28,2.28 0 0 1 1.82,-0.63a1.83,1.83 0 0 1 -0.59,1.54m-0.9,9.39c-0.29,-0.51 -1,-0.28 -1.18,0c-0.06,0.12 -0.71,-0.28 -0.65,-0.39a0.74,0.74 0 0 0 -0.47,-1.09l0.06,-0.17s0.76,0 0.94,0.52c0,0 0.65,-0.69 0.83,-0.57s-0.24,1 -0.24,1c0.59,-0.12 0.89,0.62 0.89,0.62l-0.18,0.08zm-0.75,3.17a2.37,2.37 0 0 1 -3.13,0.4a3.43,3.43 0 0 0 1.83,1.14s-0.67,1.15 -2,-0.32c-0.52,0.87 -1.52,1.07 -2.35,1.72a2.48,2.48 0 0 1 0.78,-0.06a2.52,2.52 0 0 1 1.77,0.8a2.2,2.2 0 0 1 -1.71,0.63a2.78,2.78 0 0 1 -1.56,-0.62a4.31,4.31 0 0 0 -0.68,1.64l-1.24,0.06a6.17,6.17 0 0 1 2.95,-3.53c1,-0.51 1.33,-0.77 1.53,-1.12c-0.65,-0.18 -1.88,-0.68 -1.35,-1.62c0,0 1.06,1 1.87,1a2.17,2.17 0 0 1 -0.87,-2.93c0.59,-0.91 2.07,-1 3.26,-0.29a2.29,2.29 0 0 1 1,3m-20.14,1.74c-3,-1.86 -5.78,-2.23 -9.21,-2.23a6,6 0 0 1 -6,-6l0,-28c3.72,2 11.9,0.65 15.47,-1.21c3.61,1.88 11.69,3.17 15.46,1.21l0,28a6.33,6.33 0 0 1 -6.48,6c-3.4,0 -6.19,0.39 -9.14,2.23m5.68,4.45a4.51,4.51 0 0 0 -1.71,-0.69a2.38,2.38 0 0 1 -2.31,2.23a3,3 0 0 1 0.66,-1.83a2.17,2.17 0 0 1 0.61,-0.43c-1.08,0.13 -2,0.62 -3.05,0.42c0.12,2 -1.23,1.55 -1.23,1.55a3.15,3.15 0 0 0 0.44,-2a2.22,2.22 0 0 1 -2.45,1.85a2.37,2.37 0 0 1 -1.52,-2.88a2.33,2.33 0 0 1 2.54,-2a2.27,2.27 0 0 1 1.46,2.62c0.6,-0.52 0.56,-1.93 0.56,-1.93c1.1,0.29 0.61,1.46 0.3,2a3.53,3.53 0 0 0 1.88,-0.2a6.74,6.74 0 0 1 4.72,0.45l-0.9,0.84zm3.18,-9.98c-0.35,-0.06 -1,0.29 -0.88,0.86l-0.18,0s-0.29,-0.68 0.18,-1c0,0 -1,-0.4 -0.89,-0.57s1,-0.11 1,-0.11c-0.3,-0.52 0.29,-1 0.29,-1l0.18,0.12c-0.36,0.45 0.12,1 0.41,1.08s0,0.74 -0.12,0.68m-7.47,0.8a4.36,4.36 0 0 0 -0.68,-1.65a2.93,2.93 0 0 1 -1.56,0.63a2.12,2.12 0 0 1 -1.71,-0.63a2.42,2.42 0 0 1 1.77,-0.8a2.39,2.39 0 0 1 0.77,0.06c-0.84,-0.65 -1.85,-0.9 -2.46,-1.8c-1.36,1.47 -2,0.32 -2,0.32a3.25,3.25 0 0 0 1.86,-1.2a2.32,2.32 0 0 1 -17.25,8.02a2.29,2.29 0 0 1 1.06,-3c1.18,-0.74 2.66,-0.62 3.25,0.29a2.13,2.13 0 0 1 -0.97,2.88c0.83,0.08 1.93,-1 1.93,-1c0.54,0.94 -0.7,1.44 -1.34,1.62c0.19,0.35 0.52,0.61 1.52,1.12a6.09,6.09 0 0 1 2.95,3.56l12.86,-8.42zm-7.85,-8.49l-0.12,-0.11s0.3,-0.74 0.89,-0.62c0,0 -0.42,-0.86 -0.24,-1s0.82,0.57 0.82,0.57c0.18,-0.52 0.95,-0.52 0.95,-0.52l0.06,0.17a0.78,0.78 0 0 0 -0.53,1.09c0.12,0.11 -0.53,0.51 -0.59,0.39a0.79,0.79 0 0 0 -1.24,0m-1.4,-10.93a2.23,2.23 0 0 1 1.77,0.63a1.49,1.49 0 0 1 0.62,1a3.71,3.71 0 0 1 0.22,-0.55c0.47,-1 0.57,-1.4 0.51,-1.79c-0.64,0.24 -1.93,0.55 -2.11,-0.55c0,0 1.55,0.25 2.18,-0.27a2.39,2.39 0 0 1 -2.6,-1.78a2.37,2.37 0 0 1 2.43,-2.16a2.5,2.5 0 0 1 2.77,1.82a2.24,2.24 0 0 1 -2.27,2.1a3.56,3.56 0 0 0 2.21,-0.1s0.16,1.31 -1.85,0.89c0.17,1.77 -1.81,2.78 -0.45,5.6l-0.95,0.74a5.9,5.9 0 0 1 -14.34,4.99a2.4,2.4 0 0 1 -1.71,-0.62a1.67,1.67 0 0 1 -0.53,-1.54m4.37,-6.61l-0.05,0.17a0.72,0.72 0 0 0 -1,0.63c0,0.17 -0.7,0.23 -0.75,0.06a0.82,0.82 0 0 0 -1.07,-0.57l-0.06,-0.17s0.59,-0.46 1.06,-0.12c0,0 0.12,-0.91 0.3,-0.91s0.47,0.85 0.47,0.85c0.35,-0.34 1.06,0.06 1.06,0.06m-1.24,-15.56a2.28,2.28 0 0 1 2.42,2.1a2.44,2.44 0 0 1 -2.53,1.83a3.74,3.74 0 0 0 2.12,0.22c-0.18,1.11 -1.47,0.79 -2.11,0.56c-0.06,0.38 0,0.77 0.51,1.78a5.92,5.92 0 0 1 0.12,4.5l-0.95,-0.74a4.25,4.25 0 0 0 0.42,-1.73a2.67,2.67 0 0 1 -1.65,-0.43a1.93,1.93 0 0 1 -0.95,-1.43a3,3 0 0 1 1.95,0.34a2.76,2.76 0 0 1 0.53,0.48c-0.28,-1 -0.91,-1.79 -0.81,-2.83c-2,0.42 -1.84,-0.9 -1.84,-0.9a3.65,3.65 0 0 0 2.11,0.15a2.31,2.31 0 0 1 -2.18,-2.14a2.42,2.42 0 0 1 2.84,-1.76m-0.3,-1.25s0.3,-0.91 0.47,-0.86s0.3,0.91 0.3,0.91c0.47,-0.34 1.06,0.17 1.06,0.17l-0.06,0.12a0.81,0.81 0 0 0 -1.06,0.57c-0.05,0.17 -0.77,0.11 -0.77,-0.06s-0.41,-0.85 -0.94,-0.63l-0.06,-0.17s0.71,-0.39 1.06,-0.05m5.3,0.28a5,5 0 0 0 1.83,0.33a2.39,2.39 0 0 1 0.3,-1.64a1.94,1.94 0 0 1 1.41,-1a2.31,2.31 0 0 1 -0.23,1.88a1.77,1.77 0 0 1 -0.48,0.6c1,-0.32 1.77,-1 2.84,-1c-0.53,-1.89 0.83,-1.84 0.83,-1.84a3.16,3.16 0 0 0 0.05,2.08a2.18,2.18 0 0 1 1.95,-2.31a2.29,2.29 0 0 1 2.13,2.45a2.22,2.22 0 0 1 -2,2.5a2.27,2.27 0 0 1 -2.12,-2.32c-0.48,0.65 -0.12,2.09 -0.12,2.09c-1.09,0 -0.89,-1.34 -0.74,-2a4.13,4.13 0 0 0 -1.74,0.65a6.59,6.59 0 0 1 -4.66,0.52l0.75,-0.99zm5.7,-1.13c0.3,0 0.89,-0.46 0.59,-1l0.18,-0.06s0.47,0.63 0.12,1c0,0 1,0.17 1,0.34s-0.94,0.34 -0.94,0.34c0.35,0.4 -0.06,1 -0.06,1l-0.18,0a0.81,0.81 0 0 0 -0.71,-1c-0.17,0 -0.17,-0.68 0,-0.68m4.91,0c-0.36,-0.4 0.11,-1 0.11,-1l0.18,0.06c-0.29,0.51 0.29,1 0.6,1s0.17,0.68 0,0.68a0.82,0.82 0 0 0 -0.72,1l-0.17,0s-0.42,-0.62 -0.06,-1c0,0 -0.95,-0.17 -0.95,-0.34s1,-0.34 1,-0.34m3.36,-2.11a2.16,2.16 0 0 1 2,2.31a3.18,3.18 0 0 0 5.34,-1.77s1.36,-0.05 0.83,1.84c1.06,0 1.8,0.72 2.84,1a1.9,1.9 0 0 1 -0.48,-0.6a2.31,2.31 0 0 1 -0.23,-1.88a2,2 0 0 1 1.41,1a2.44,2.44 0 0 1 0.33,1.64a5,5 0 0 0 1.83,-0.33l0.71,1a6.59,6.59 0 0 1 -4.66,-0.52a4.13,4.13 0 0 0 -1.74,-0.65c0.14,0.62 0.34,1.92 -0.74,2c0,0 0.36,-1.44 -0.12,-2.09a2.27,2.27 0 0 1 -2.12,2.32a2.21,2.21 0 0 1 -1.95,-2.5a2.29,2.29 0 0 1 2.12,-2.45m15.2,19.55l-0.07,0.17a0.81,0.81 0 0 0 -1.06,0.57c0,0.17 -0.77,0.11 -0.77,-0.06a0.71,0.71 0 0 0 -0.94,-0.63l-0.06,-0.17s0.71,-0.4 1,-0.06c0,0 0.31,-0.91 0.48,-0.85s0.3,0.91 0.3,0.91c0.47,-0.34 1.07,0.12 1.07,0.12m-1.48,-15.66a2.4,2.4 0 0 1 2.77,1.76a2.29,2.29 0 0 1 -2.17,2.14a3.65,3.65 0 0 0 2.11,-0.15s0.17,1.32 -1.86,0.9c0.08,1.06 -0.6,1.85 -0.86,2.91a2.71,2.71 0 0 1 0.6,-0.56a3,3 0 0 1 2,-0.34a2.13,2.13 0 0 1 -0.94,1.43a2.73,2.73 0 0 1 -1.69,0.43a4.53,4.53 0 0 0 0.5,1.73l-0.94,0.74a5.7,5.7 0 0 1 0.12,-4.5c0.48,-1 0.57,-1.4 0.51,-1.78c-0.64,0.23 -1.93,0.55 -2.11,-0.56a3.74,3.74 0 0 0 2.12,-0.22a2.46,2.46 0 0 1 -2.54,-1.83a2.29,2.29 0 0 1 2.38,-2.1m-0.48,-1.2s0.13,-0.91 0.31,-0.91s0.47,0.86 0.47,0.86c0.35,-0.34 1.06,0.05 1.06,0.05l-0.06,0.17a0.72,0.72 0 0 0 -0.95,0.63c0,0.17 -0.76,0.23 -0.76,0.06a0.81,0.81 0 0 0 -1.07,-0.57l-0.06,-0.12s0.6,-0.51 1.06,-0.17m-18.7,-6.47a25.08,25.08 0 0 1 -23.21,0l0,41.53a9.23,9.23 0 0 0 9.39,9.13c5,0 9.5,0.7 13.82,3.47c4.32,-2.72 8.75,-3.47 13.76,-3.47a9.27,9.27 0 0 0 9.42,-9.13l0,-41.53a25.12,25.12 0 0 1 -23.2,0" class="cls-1"/>
  <path id="svg_48" d="m20.67,16.43c0.54,0.06 1.13,-0.51 1.18,-1.6s-0.35,-2.05 -0.88,-2.1s-1.24,0.79 -1.3,1.93s0.41,1.71 1,1.77" class="cls-1"/>
  <path id="svg_49" d="m59.26,16.43c0.52,-0.06 1.06,-0.69 1,-1.77s-0.71,-2 -1.3,-1.93s-1,1 -0.94,2.1s0.64,1.66 1.24,1.6" class="cls-1"/>
  <path id="svg_50" d="m34.54,12.27c1.12,-0.06 2,-0.51 2.07,-1.08s-1,-1.09 -2.12,-1.09s-1.72,0.63 -1.72,1.15s0.59,1.08 1.77,1" class="cls-1"/>
  <path id="svg_51" d="m59.93,31.57c0.06,-1.14 -0.42,-2.05 -0.94,-2.11s-1.24,0.8 -1.3,1.94s0.47,1.71 1,1.77s1.19,-0.52 1.25,-1.6" class="cls-1"/>
 </g>
</svg>