<svg xmlns="http://www.w3.org/2000/svg" viewBox="0 0 212 212"><defs><style>.cls-1{fill:#3d5da6;}</style></defs><title>Novedadesicono capacitaciones @1x</title><g id="Capa_2" data-name="Capa 2"><g id="Contenidos"><path class="cls-1" d="M212,157.29V0H0V157.29H41V95.74h6.84v82.07H41V164.57H34.19v37.17A10.27,10.27,0,0,0,44.45,212H58.13a10.27,10.27,0,0,0,10.26-10.26V157.29H88.9v25.65l1.37,1c.6.45,14.88,10.94,39.67,10.94S169,184.41,169.6,184l1.37-1V153.41l9-5.13a9.23,9.23,0,0,0,4-4.67h4.15a3.42,3.42,0,0,1,3.42,3.42V171h-2.57l-7.55,26.42-.13.93a13.68,13.68,0,1,0,27.35,0L200.9,171h-2.58V157.29Zm-10.27,41.46a6.84,6.84,0,0,1-13.65,0l6-20.94h1.68ZM205.16,6.84V27.35H6.84V6.84Zm-171,95.74H20.52V47.87H88.9v54.71H68.39V91.52l-17.1-34.2-17.1,34.2ZM59.43,88.9H43.15l8.14-16.29Zm-1.3,116.26H44.45A3.42,3.42,0,0,1,41,201.74V184.65H61.55v17.09A3.42,3.42,0,0,1,58.13,205.16Zm106-25.78c-3.91,2.38-16,8.68-34.19,8.68s-30.3-6.3-34.2-8.68V157.32l26.11,14.92a16.28,16.28,0,0,0,16.17,0l26.11-14.92Zm-29.5-13.08a9.63,9.63,0,0,1-9.39,0l-41.93-24a2.47,2.47,0,0,1,0-4.29l41.93-24a9.51,9.51,0,0,1,9.39,0l39.71,22.69h-44.4v6.84h44.4Zm53.43-29.53h-4.15a9.29,9.29,0,0,0-4-4.66l-41.93-24a16.56,16.56,0,0,0-16.17,0l-41.94,24a9.32,9.32,0,0,0,0,16.17l3.8,2.17H68.39V116.26H61.55v61.55H54.71V95.74h6.84v13.68H95.74V41H13.68v68.39H34.19v41H6.84V34.19H205.16V150.45h-6.84V147A10.27,10.27,0,0,0,188.06,136.77Z"/></g></g></svg>