<svg xmlns="http://www.w3.org/2000/svg" xmlns:xlink="http://www.w3.org/1999/xlink" viewBox="0 0 203 203"><defs><style>.cls-1{fill:#3d5da6;}.cls-2{fill:url(#Degradado_sin_nombre_18);}.cls-3{fill:url(#Degradado_sin_nombre_18-2);}.cls-4{fill:url(#Degradado_sin_nombre_18-3);}.cls-5{fill:url(#Degradado_sin_nombre_18-4);}.cls-6{fill:url(#Degradado_sin_nombre_18-5);}.cls-7{fill:url(#Degradado_sin_nombre_18-6);}.cls-8{fill:url(#Degradado_sin_nombre_18-7);}.cls-9{fill:url(#Degradado_sin_nombre_18-8);}</style><linearGradient id="Degradado_sin_nombre_18" x1="117.81" y1="17.75" x2="170" y2="17.75" gradientUnits="userSpaceOnUse"><stop offset="0.03" stop-color="#e67d23"/><stop offset="1" stop-color="#fbb03b"/></linearGradient><linearGradient id="Degradado_sin_nombre_18-2" x1="117.81" y1="30.33" y2="30.33" xlink:href="#Degradado_sin_nombre_18"/><linearGradient id="Degradado_sin_nombre_18-3" x1="130.86" y1="42.92" y2="42.92" xlink:href="#Degradado_sin_nombre_18"/><linearGradient id="Degradado_sin_nombre_18-4" x1="117.81" y1="42.92" x2="124.33" y2="42.92" xlink:href="#Degradado_sin_nombre_18"/><linearGradient id="Degradado_sin_nombre_18-5" x1="117.81" y1="55.51" y2="55.51" xlink:href="#Degradado_sin_nombre_18"/><linearGradient id="Degradado_sin_nombre_18-6" x1="117.81" y1="68.09" y2="68.09" xlink:href="#Degradado_sin_nombre_18"/><linearGradient id="Degradado_sin_nombre_18-7" x1="117.81" y1="80.68" x2="156.95" y2="80.68" xlink:href="#Degradado_sin_nombre_18"/><linearGradient id="Degradado_sin_nombre_18-8" x1="117.81" y1="93.27" y2="93.27" xlink:href="#Degradado_sin_nombre_18"/></defs><title>Novedadesicono legislaciones @1x</title><g id="Capa_2" data-name="Capa 2"><g id="Contenidos"><path class="cls-1" d="M186.63,39.29h-3.28V0H19.65V39.29H16.37A16.38,16.38,0,0,0,0,55.66V167a16.38,16.38,0,0,0,16.37,16.37H58.94v13.1H45.84V203H157.16v-6.55h-13.1v-13.1h42.57A16.38,16.38,0,0,0,203,167V55.66A16.38,16.38,0,0,0,186.63,39.29ZM16.37,45.84h9.82V6.55H176.81V117.87H26.19V52.39H19.65v72h163.7V45.84h3.28a9.84,9.84,0,0,1,9.82,9.82v101.5H60.29l-6.55-6.55H6.55v-95A9.84,9.84,0,0,1,16.37,45.84Zm170.26,131H72v6.54h65.49v13.1h-72V176.81H16.37A9.84,9.84,0,0,1,6.55,167v-9.82H51l6.55,6.55H196.45V167A9.84,9.84,0,0,1,186.63,176.81Z"/><path class="cls-1" d="M64.73,101.88l7.41,4.56,7.42-4.56c19.86-12.19,31.73-33,31.73-55.75V38.05L72.14,14,33,38.05v8.08C33,68.84,44.86,89.69,64.73,101.88Zm11.33-5.31L72.14,99l-3.91-2.41A61.26,61.26,0,0,1,52.62,82.9c.51-10,9.06-18,19.52-18s19,8,19.52,18A61.21,61.21,0,0,1,76.06,96.57ZM65.62,52.36V46.07a6.53,6.53,0,0,1,13,0v6.29a6.53,6.53,0,0,1-13,0ZM39.52,41.5l32.62-20,32.62,20v4.63a58,58,0,0,1-8,29.43A25.69,25.69,0,0,0,82,60.53a12.23,12.23,0,0,0,3.2-8.17V46.07a13.05,13.05,0,0,0-26.09,0v6.29a12.23,12.23,0,0,0,3.2,8.17,25.64,25.64,0,0,0-14.77,15,58,58,0,0,1-8-29.43Z"/><path class="cls-2" d="M117.81,14.6H170v6.29H117.81Z"/><path class="cls-3" d="M117.81,27.19H170v6.29H117.81Z"/><path class="cls-4" d="M130.86,39.77H170v6.3H130.86Z"/><path class="cls-5" d="M117.81,39.77h6.52v6.3h-6.52Z"/><path class="cls-6" d="M117.81,52.36H170v6.29H117.81Z"/><path class="cls-7" d="M117.81,65H170v6.29H117.81Z"/><path class="cls-8" d="M117.81,77.53H157v6.3H117.81Z"/><path class="cls-9" d="M117.81,90.12H170v6.29H117.81Z"/><path class="cls-1" d="M140.64,102.71h6.53V109h-6.53Z"/><path class="cls-1" d="M127.6,102.71h6.52V109H127.6Z"/><path class="cls-1" d="M153.69,102.71h6.52V109h-6.52Z"/></g></g></svg>