<svg xmlns="http://www.w3.org/2000/svg" viewBox="0 0 66 66"><defs><style>.cls-1{fill:#3d5da6;}</style></defs><title>Novedadesicono noticias@1x</title><g id="Capa_2" data-name="Capa 2"><g id="Contenidos"><path class="cls-1" d="M63.25,13.71l.42.54.2.24Z"/><path class="cls-1" d="M6.39,59.61H8.52v2.13H6.39Z"/><path class="cls-1" d="M10.65,59.61h2.12v2.13H10.65Z"/><path class="cls-1" d="M14.9,59.61H17v2.13H14.9Z"/><path class="cls-1" d="M51.1,59.61h8.51v2.13H51.1Z"/><path class="cls-1" d="M63.87,55.35V20.23a5.33,5.33,0,0,0-5.32-5.33H53.23V40.45H47.9a14.73,14.73,0,0,0-1.46-6.39H51.1V12.77h-17V25.6c-.35,0-.7-.05-1.06-.05a14.91,14.91,0,0,0-14.9,14.9H12.77V10.65H53.23v2.12h2.12V0H10.65V14.9H7.45a5.33,5.33,0,0,0-5.32,5.33V55.35H0v5.33A5.33,5.33,0,0,0,5.32,66H60.68A5.33,5.33,0,0,0,66,60.68V55.35ZM58.55,17a3.2,3.2,0,0,1,3.19,3.2V55.35H59.61V21.29a2.13,2.13,0,0,0-2.13-2.13H55.35V17ZM36.19,14.9H49v17H45.21a14.93,14.93,0,0,0-9-6ZM33,27.68A12.78,12.78,0,0,1,43.62,47.55a5.32,5.32,0,0,0-3.82-4.74l-3.61-1v-.29a5.31,5.31,0,0,0,2.13-4.23V35.35a5.47,5.47,0,0,0-4.85-5.52,5.3,5.3,0,0,0-5.79,5.3v2.13a5.31,5.31,0,0,0,2.13,4.23v.29l-3.61,1a5.32,5.32,0,0,0-3.82,4.74A12.78,12.78,0,0,1,33,27.68ZM31.41,40a3.16,3.16,0,0,1-1.6-2.75V35.13a3.22,3.22,0,0,1,1-2.36A3.18,3.18,0,0,1,33.29,32a3.33,3.33,0,0,1,2.9,3.4v1.91A3.16,3.16,0,0,1,34.59,40l-.53.3v3.07l5.16,1.48a3.17,3.17,0,0,1,2.11,2H24.67a3.17,3.17,0,0,1,2.11-2l5.16-1.48V40.31Zm11.08,9a12.7,12.7,0,0,1-19,0ZM53.23,2.13V8.52H12.77V2.13Zm-49,18.1A3.2,3.2,0,0,1,7.45,17h3.2v2.13H8.52a2.13,2.13,0,0,0-2.13,2.13V55.35H4.26ZM63.87,60.68a3.19,3.19,0,0,1-3.19,3.19H5.32a3.19,3.19,0,0,1-3.19-3.19v-3.2H24.06a8.39,8.39,0,0,0,5.56,2.13h6.76a8.39,8.39,0,0,0,5.56-2.13H55.35V55.35H41.08l-.32.32a6.24,6.24,0,0,1-4.38,1.81H29.62a6.24,6.24,0,0,1-4.38-1.81l-.32-.32H8.52V21.29h2.13V42.58h7.62a14.88,14.88,0,0,0,29.46,0h7.62V21.29h2.13V57.48h6.39Z"/><path class="cls-1" d="M14.9,4.26H17V6.39H14.9Z"/><path class="cls-1" d="M19.16,4.26h2.13V6.39H19.16Z"/><path class="cls-1" d="M23.42,4.26h2.13V6.39H23.42Z"/><path class="cls-1" d="M14.9,12.77H17V14.9H14.9Z"/><path class="cls-1" d="M19.16,12.77H31.94V14.9H19.16Z"/><path class="cls-1" d="M14.9,17H17v2.13H14.9Z"/><path class="cls-1" d="M19.16,17H31.94v2.13H19.16Z"/><path class="cls-1" d="M14.9,21.29H17v2.13H14.9Z"/><path class="cls-1" d="M19.16,21.29H31.94v2.13H19.16Z"/></g></g></svg>